<?xml version="1.0" encoding="UTF-8"?>
<svg xmlns="http://www.w3.org/2000/svg" xmlns:xlink="http://www.w3.org/1999/xlink" width="1000" height="720" viewBox="0 0 1000 720">
<defs>
<g>
<g id="glyph-0-0-35aacd5f">
<path d="M 7.21875 -3.03125 C 7.21875 -3.03125 0.953125 -3.03125 0.953125 -3.03125 C 0.953125 -3.03125 0.953125 -3.96875 0.953125 -3.96875 C 0.953125 -3.96875 7.21875 -3.96875 7.21875 -3.96875 C 7.21875 -3.96875 7.21875 -3.03125 7.21875 -3.03125 Z M 7.21875 -3.03125 "/>
</g>
<g id="glyph-0-1-35aacd5f">
<path d="M 7.1875 -3.296875 C 7.1875 -1.1875 5.78125 0.203125 3.78125 0.203125 C 2.015625 0.203125 0.890625 -0.578125 0.484375 -2.546875 C 0.484375 -2.546875 1.71875 -2.546875 1.71875 -2.546875 C 2.015625 -1.421875 2.671875 -0.875 3.75 -0.875 C 5.09375 -0.875 5.921875 -1.6875 5.921875 -3.125 C 5.921875 -4.59375 5.078125 -5.453125 3.75 -5.453125 C 2.984375 -5.453125 2.5 -5.203125 1.9375 -4.515625 C 1.9375 -4.515625 0.796875 -4.515625 0.796875 -4.515625 C 0.796875 -4.515625 1.546875 -9.71875 1.546875 -9.71875 C 1.546875 -9.71875 6.65625 -9.71875 6.65625 -9.71875 C 6.65625 -9.71875 6.65625 -8.5 6.65625 -8.5 C 6.65625 -8.5 2.53125 -8.5 2.53125 -8.5 C 2.53125 -8.5 2.140625 -5.9375 2.140625 -5.9375 C 2.71875 -6.359375 3.28125 -6.53125 3.96875 -6.53125 C 5.875 -6.53125 7.1875 -5.25 7.1875 -3.296875 Z M 7.1875 -3.296875 "/>
</g>
<g id="glyph-0-2-35aacd5f">
<path d="M 7.09375 -4.78125 C 7.09375 -1.515625 5.953125 0.203125 3.84375 0.203125 C 1.71875 0.203125 0.609375 -1.515625 0.609375 -4.859375 C 0.609375 -8.1875 1.703125 -9.921875 3.84375 -9.921875 C 6 -9.921875 7.09375 -8.21875 7.09375 -4.78125 Z M 5.84375 -4.890625 C 5.84375 -7.546875 5.1875 -8.828125 3.84375 -8.828125 C 2.515625 -8.828125 1.859375 -7.5625 1.859375 -4.84375 C 1.859375 -2.125 2.515625 -0.8125 3.828125 -0.8125 C 5.1875 -0.8125 5.84375 -2.078125 5.84375 -4.890625 Z M 5.84375 -4.890625 "/>
</g>
<g id="glyph-0-3-35aacd5f">
<path d="M 7.28125 -2.375 C 7.28125 -2.375 5.8125 -2.375 5.8125 -2.375 C 5.8125 -2.375 5.8125 0 5.8125 0 C 5.8125 0 4.578125 0 4.578125 0 C 4.578125 0 4.578125 -2.375 4.578125 -2.375 C 4.578125 -2.375 0.390625 -2.375 0.390625 -2.375 C 0.390625 -2.375 0.390625 -3.6875 0.390625 -3.6875 C 0.390625 -3.6875 4.90625 -9.921875 4.90625 -9.921875 C 4.90625 -9.921875 5.8125 -9.921875 5.8125 -9.921875 C 5.8125 -9.921875 5.8125 -3.484375 5.8125 -3.484375 C 5.8125 -3.484375 7.28125 -3.484375 7.28125 -3.484375 C 7.28125 -3.484375 7.28125 -2.375 7.28125 -2.375 Z M 4.578125 -3.484375 C 4.578125 -3.484375 4.578125 -7.828125 4.578125 -7.828125 C 4.578125 -7.828125 1.46875 -3.484375 1.46875 -3.484375 C 1.46875 -3.484375 4.578125 -3.484375 4.578125 -3.484375 Z M 4.578125 -3.484375 "/>
</g>
<g id="glyph-0-4-35aacd5f">
<path d="M 7.078125 -2.890625 C 7.078125 -1.015625 5.765625 0.203125 3.71875 0.203125 C 1.6875 0.203125 0.609375 -0.78125 0.453125 -3 C 0.453125 -3 1.6875 -3 1.6875 -3 C 1.765625 -1.546875 2.421875 -0.875 3.765625 -0.875 C 5.046875 -0.875 5.828125 -1.625 5.828125 -2.875 C 5.828125 -3.96875 5.125 -4.625 3.765625 -4.625 C 3.765625 -4.625 3.09375 -4.625 3.09375 -4.625 C 3.09375 -4.625 3.09375 -5.65625 3.09375 -5.65625 C 5.0625 -5.65625 5.53125 -6.09375 5.53125 -7.15625 C 5.53125 -8.203125 4.875 -8.84375 3.78125 -8.84375 C 2.515625 -8.84375 1.921875 -8.1875 1.890625 -6.71875 C 1.890625 -6.71875 0.65625 -6.71875 0.65625 -6.71875 C 0.703125 -8.828125 1.765625 -9.921875 3.765625 -9.921875 C 5.65625 -9.921875 6.796875 -8.90625 6.796875 -7.203125 C 6.796875 -6.203125 6.328125 -5.5625 5.40625 -5.1875 C 6.59375 -4.78125 7.078125 -4.09375 7.078125 -2.890625 Z M 7.078125 -2.890625 "/>
</g>
<g id="glyph-0-5-35aacd5f">
<path d="M 7.15625 -7.015625 C 7.15625 -5.796875 6.4375 -4.765625 5.046875 -4.015625 C 5.046875 -4.015625 3.65625 -3.265625 3.65625 -3.265625 C 2.4375 -2.546875 1.984375 -2.03125 1.859375 -1.21875 C 1.859375 -1.21875 7.078125 -1.21875 7.078125 -1.21875 C 7.078125 -1.21875 7.078125 0 7.078125 0 C 7.078125 0 0.46875 0 0.46875 0 C 0.59375 -2.1875 1.1875 -3.125 3.265625 -4.296875 C 3.265625 -4.296875 4.546875 -5.03125 4.546875 -5.03125 C 5.4375 -5.53125 5.890625 -6.203125 5.890625 -6.984375 C 5.890625 -8.046875 5.046875 -8.84375 3.9375 -8.84375 C 2.71875 -8.84375 2.03125 -8.140625 1.9375 -6.484375 C 1.9375 -6.484375 0.703125 -6.484375 0.703125 -6.484375 C 0.765625 -8.890625 1.953125 -9.921875 3.96875 -9.921875 C 5.859375 -9.921875 7.15625 -8.6875 7.15625 -7.015625 Z M 7.15625 -7.015625 "/>
</g>
<g id="glyph-0-6-35aacd5f">
<path d="M 4.859375 0 C 4.859375 0 3.625 0 3.625 0 C 3.625 0 3.625 -7.0625 3.625 -7.0625 C 3.625 -7.0625 1.421875 -7.0625 1.421875 -7.0625 C 1.421875 -7.0625 1.421875 -7.953125 1.421875 -7.953125 C 3.328125 -8.1875 3.609375 -8.40625 4.046875 -9.921875 C 4.046875 -9.921875 4.859375 -9.921875 4.859375 -9.921875 C 4.859375 -9.921875 4.859375 0 4.859375 0 Z M 4.859375 0 "/>
</g>
<g id="glyph-0-7-35aacd5f">
<path d="M 7.1875 -3.078125 C 7.1875 -1.140625 5.828125 0.203125 3.9375 0.203125 C 1.671875 0.203125 0.609375 -1.421875 0.609375 -4.515625 C 0.609375 -7.984375 1.84375 -9.921875 4.15625 -9.921875 C 5.671875 -9.921875 6.734375 -8.953125 6.96875 -7.34375 C 6.96875 -7.34375 5.734375 -7.34375 5.734375 -7.34375 C 5.546875 -8.28125 4.9375 -8.828125 4.078125 -8.828125 C 2.65625 -8.828125 1.875 -7.484375 1.859375 -5.0625 C 2.390625 -5.796875 3.15625 -6.171875 4.140625 -6.171875 C 5.921875 -6.171875 7.1875 -4.921875 7.1875 -3.078125 Z M 5.921875 -2.984375 C 5.921875 -4.3125 5.1875 -5.078125 3.984375 -5.078125 C 2.765625 -5.078125 1.9375 -4.28125 1.9375 -3.046875 C 1.9375 -1.78125 2.796875 -0.875 3.953125 -0.875 C 5.078125 -0.875 5.921875 -1.734375 5.921875 -2.984375 Z M 5.921875 -2.984375 "/>
</g>
<g id="glyph-0-8-35aacd5f">
<path d="M 7.28125 -8.6875 C 5.1875 -6.203125 3.796875 -3.203125 3.25 0 C 3.25 0 1.9375 0 1.9375 0 C 2.625 -3.109375 4.03125 -6 6 -8.5 C 6 -8.5 0.640625 -8.5 0.640625 -8.5 C 0.640625 -8.5 0.640625 -9.71875 0.640625 -9.71875 C 0.640625 -9.71875 7.28125 -9.71875 7.28125 -9.71875 C 7.28125 -9.71875 7.28125 -8.6875 7.28125 -8.6875 Z M 7.28125 -8.6875 "/>
</g>
<g id="glyph-0-9-35aacd5f">
<path d="M 7.1875 -2.796875 C 7.1875 -1 5.8125 0.203125 3.84375 0.203125 C 1.890625 0.203125 0.515625 -1 0.515625 -2.8125 C 0.515625 -3.90625 1.078125 -4.671875 2.21875 -5.21875 C 1.203125 -5.859375 0.875 -6.359375 0.875 -7.28125 C 0.875 -8.828125 2.09375 -9.921875 3.84375 -9.921875 C 5.609375 -9.921875 6.828125 -8.828125 6.828125 -7.28125 C 6.828125 -6.34375 6.5 -5.84375 5.46875 -5.21875 C 6.625 -4.671875 7.1875 -3.90625 7.1875 -2.796875 Z M 5.578125 -7.25 C 5.578125 -8.21875 4.90625 -8.828125 3.84375 -8.828125 C 2.8125 -8.828125 2.125 -8.21875 2.125 -7.265625 C 2.125 -6.328125 2.8125 -5.71875 3.84375 -5.71875 C 4.890625 -5.71875 5.578125 -6.328125 5.578125 -7.25 Z M 5.921875 -2.78125 C 5.921875 -3.953125 5.078125 -4.671875 3.84375 -4.671875 C 2.625 -4.671875 1.78125 -3.953125 1.78125 -2.78125 C 1.78125 -1.625 2.625 -0.875 3.828125 -0.875 C 5.078125 -0.875 5.921875 -1.609375 5.921875 -2.78125 Z M 5.921875 -2.78125 "/>
</g>
<g id="glyph-0-10-35aacd5f">
<path d="M 7.125 -5.1875 C 7.125 -1.765625 5.875 0.203125 3.5625 0.203125 C 2.046875 0.203125 0.984375 -0.75 0.734375 -2.375 C 0.734375 -2.375 1.96875 -2.375 1.96875 -2.375 C 2.171875 -1.421875 2.765625 -0.875 3.640625 -0.875 C 5.046875 -0.875 5.84375 -2.21875 5.859375 -4.640625 C 5.203125 -3.875 4.515625 -3.546875 3.578125 -3.546875 C 1.796875 -3.546875 0.53125 -4.78125 0.53125 -6.640625 C 0.53125 -8.578125 1.890625 -9.921875 3.78125 -9.921875 C 6.046875 -9.921875 7.125 -8.296875 7.125 -5.1875 Z M 5.78125 -6.65625 C 5.78125 -7.953125 4.90625 -8.84375 3.765625 -8.84375 C 2.625 -8.84375 1.796875 -8 1.796875 -6.734375 C 1.796875 -5.40625 2.53125 -4.640625 3.71875 -4.640625 C 4.921875 -4.640625 5.78125 -5.453125 5.78125 -6.65625 Z M 5.78125 -6.65625 "/>
</g>
<g id="glyph-1-0-35aacd5f">
<path d="M 7.09375 -4.78125 C 7.09375 -1.515625 5.953125 0.203125 3.84375 0.203125 C 1.71875 0.203125 0.609375 -1.515625 0.609375 -4.859375 C 0.609375 -8.1875 1.703125 -9.921875 3.84375 -9.921875 C 6 -9.921875 7.09375 -8.21875 7.09375 -4.78125 Z M 5.84375 -4.890625 C 5.84375 -7.546875 5.1875 -8.828125 3.84375 -8.828125 C 2.515625 -8.828125 1.859375 -7.5625 1.859375 -4.84375 C 1.859375 -2.125 2.515625 -0.8125 3.828125 -0.8125 C 5.1875 -0.8125 5.84375 -2.078125 5.84375 -4.890625 Z M 5.84375 -4.890625 "/>
</g>
<g id="glyph-2-0-35aacd5f">
<path d="M 7.09375 -4.78125 C 7.09375 -1.515625 5.953125 0.203125 3.84375 0.203125 C 1.71875 0.203125 0.609375 -1.515625 0.609375 -4.859375 C 0.609375 -8.1875 1.703125 -9.921875 3.84375 -9.921875 C 6 -9.921875 7.09375 -8.21875 7.09375 -4.78125 Z M 5.84375 -4.890625 C 5.84375 -7.546875 5.1875 -8.828125 3.84375 -8.828125 C 2.515625 -8.828125 1.859375 -7.5625 1.859375 -4.84375 C 1.859375 -2.125 2.515625 -0.8125 3.828125 -0.8125 C 5.1875 -0.8125 5.84375 -2.078125 5.84375 -4.890625 Z M 5.84375 -4.890625 "/>
</g>
<g id="glyph-2-1-35aacd5f">
<path d="M 4.859375 0 C 4.859375 0 3.625 0 3.625 0 C 3.625 0 3.625 -7.0625 3.625 -7.0625 C 3.625 -7.0625 1.421875 -7.0625 1.421875 -7.0625 C 1.421875 -7.0625 1.421875 -7.953125 1.421875 -7.953125 C 3.328125 -8.1875 3.609375 -8.40625 4.046875 -9.921875 C 4.046875 -9.921875 4.859375 -9.921875 4.859375 -9.921875 C 4.859375 -9.921875 4.859375 0 4.859375 0 Z M 4.859375 0 "/>
</g>
<g id="glyph-2-2-35aacd5f">
<path d="M 7.15625 -7.015625 C 7.15625 -5.796875 6.4375 -4.765625 5.046875 -4.015625 C 5.046875 -4.015625 3.65625 -3.265625 3.65625 -3.265625 C 2.4375 -2.546875 1.984375 -2.03125 1.859375 -1.21875 C 1.859375 -1.21875 7.078125 -1.21875 7.078125 -1.21875 C 7.078125 -1.21875 7.078125 0 7.078125 0 C 7.078125 0 0.46875 0 0.46875 0 C 0.59375 -2.1875 1.1875 -3.125 3.265625 -4.296875 C 3.265625 -4.296875 4.546875 -5.03125 4.546875 -5.03125 C 5.4375 -5.53125 5.890625 -6.203125 5.890625 -6.984375 C 5.890625 -8.046875 5.046875 -8.84375 3.9375 -8.84375 C 2.71875 -8.84375 2.03125 -8.140625 1.9375 -6.484375 C 1.9375 -6.484375 0.703125 -6.484375 0.703125 -6.484375 C 0.765625 -8.890625 1.953125 -9.921875 3.96875 -9.921875 C 5.859375 -9.921875 7.15625 -8.6875 7.15625 -7.015625 Z M 7.15625 -7.015625 "/>
</g>
<g id="glyph-3-0-35aacd5f">
<path d="M 7.078125 -2.890625 C 7.078125 -1.015625 5.765625 0.203125 3.71875 0.203125 C 1.6875 0.203125 0.609375 -0.78125 0.453125 -3 C 0.453125 -3 1.6875 -3 1.6875 -3 C 1.765625 -1.546875 2.421875 -0.875 3.765625 -0.875 C 5.046875 -0.875 5.828125 -1.625 5.828125 -2.875 C 5.828125 -3.96875 5.125 -4.625 3.765625 -4.625 C 3.765625 -4.625 3.09375 -4.625 3.09375 -4.625 C 3.09375 -4.625 3.09375 -5.65625 3.09375 -5.65625 C 5.0625 -5.65625 5.53125 -6.09375 5.53125 -7.15625 C 5.53125 -8.203125 4.875 -8.84375 3.78125 -8.84375 C 2.515625 -8.84375 1.921875 -8.1875 1.890625 -6.71875 C 1.890625 -6.71875 0.65625 -6.71875 0.65625 -6.71875 C 0.703125 -8.828125 1.765625 -9.921875 3.765625 -9.921875 C 5.65625 -9.921875 6.796875 -8.90625 6.796875 -7.203125 C 6.796875 -6.203125 6.328125 -5.5625 5.40625 -5.1875 C 6.59375 -4.78125 7.078125 -4.09375 7.078125 -2.890625 Z M 7.078125 -2.890625 "/>
</g>
</g>
<clipPath id="clip-0-35aacd5f">
<path clip-rule="nonzero" d="M 33 538 L 984 538 L 984 540 L 33 540 Z M 33 538 "/>
</clipPath>
<clipPath id="clip-1-35aacd5f">
<path clip-rule="nonzero" d="M 349 16 L 351 16 L 351 681 L 349 681 Z M 349 16 "/>
</clipPath>
<clipPath id="clip-2-35aacd5f">
<path clip-rule="nonzero" d="M 33 115 L 984 115 L 984 635 L 33 635 Z M 33 115 "/>
</clipPath>
<clipPath id="clip-3-35aacd5f">
<path clip-rule="nonzero" d="M 33 37 L 984 37 L 984 660 L 33 660 Z M 33 37 "/>
</clipPath>
</defs>
<rect x="-100" y="-72" width="1200" height="864" fill="rgb(100%, 100%, 100%)" fill-opacity="1"/>
<path fill-rule="nonzero" fill="rgb(100%, 100%, 100%)" fill-opacity="1" d="M 33 681 L 984 681 L 984 16 L 33 16 Z M 33 681 "/>
<path fill="none" stroke-width="1" stroke-linecap="butt" stroke-linejoin="miter" stroke="rgb(0%, 0%, 0%)" stroke-opacity="0.12" stroke-miterlimit="1.154701" d="M 33 681 L 33 16 "/>
<path fill="none" stroke-width="1" stroke-linecap="butt" stroke-linejoin="miter" stroke="rgb(0%, 0%, 0%)" stroke-opacity="0.12" stroke-miterlimit="1.154701" d="M 96.398438 681 L 96.398438 16 "/>
<path fill="none" stroke-width="1" stroke-linecap="butt" stroke-linejoin="miter" stroke="rgb(0%, 0%, 0%)" stroke-opacity="0.12" stroke-miterlimit="1.154701" d="M 159.800781 681 L 159.800781 16 "/>
<path fill="none" stroke-width="1" stroke-linecap="butt" stroke-linejoin="miter" stroke="rgb(0%, 0%, 0%)" stroke-opacity="0.12" stroke-miterlimit="1.154701" d="M 223.199219 681 L 223.199219 16 "/>
<path fill="none" stroke-width="1" stroke-linecap="butt" stroke-linejoin="miter" stroke="rgb(0%, 0%, 0%)" stroke-opacity="0.12" stroke-miterlimit="1.154701" d="M 286.601562 681 L 286.601562 16 "/>
<path fill="none" stroke-width="1" stroke-linecap="butt" stroke-linejoin="miter" stroke="rgb(0%, 0%, 0%)" stroke-opacity="0.12" stroke-miterlimit="1.154701" d="M 350 681 L 350 16 "/>
<path fill="none" stroke-width="1" stroke-linecap="butt" stroke-linejoin="miter" stroke="rgb(0%, 0%, 0%)" stroke-opacity="0.12" stroke-miterlimit="1.154701" d="M 413.398438 681 L 413.398438 16 "/>
<path fill="none" stroke-width="1" stroke-linecap="butt" stroke-linejoin="miter" stroke="rgb(0%, 0%, 0%)" stroke-opacity="0.12" stroke-miterlimit="1.154701" d="M 476.800781 681 L 476.800781 16 "/>
<path fill="none" stroke-width="1" stroke-linecap="butt" stroke-linejoin="miter" stroke="rgb(0%, 0%, 0%)" stroke-opacity="0.12" stroke-miterlimit="1.154701" d="M 540.199219 681 L 540.199219 16 "/>
<path fill="none" stroke-width="1" stroke-linecap="butt" stroke-linejoin="miter" stroke="rgb(0%, 0%, 0%)" stroke-opacity="0.12" stroke-miterlimit="1.154701" d="M 603.601562 681 L 603.601562 16 "/>
<path fill="none" stroke-width="1" stroke-linecap="butt" stroke-linejoin="miter" stroke="rgb(0%, 0%, 0%)" stroke-opacity="0.12" stroke-miterlimit="1.154701" d="M 667 681 L 667 16 "/>
<path fill="none" stroke-width="1" stroke-linecap="butt" stroke-linejoin="miter" stroke="rgb(0%, 0%, 0%)" stroke-opacity="0.12" stroke-miterlimit="1.154701" d="M 730.398438 681 L 730.398438 16 "/>
<path fill="none" stroke-width="1" stroke-linecap="butt" stroke-linejoin="miter" stroke="rgb(0%, 0%, 0%)" stroke-opacity="0.12" stroke-miterlimit="1.154701" d="M 793.800781 681 L 793.800781 16 "/>
<path fill="none" stroke-width="1" stroke-linecap="butt" stroke-linejoin="miter" stroke="rgb(0%, 0%, 0%)" stroke-opacity="0.12" stroke-miterlimit="1.154701" d="M 857.199219 681 L 857.199219 16 "/>
<path fill="none" stroke-width="1" stroke-linecap="butt" stroke-linejoin="miter" stroke="rgb(0%, 0%, 0%)" stroke-opacity="0.12" stroke-miterlimit="1.154701" d="M 920.601562 681 L 920.601562 16 "/>
<path fill="none" stroke-width="1" stroke-linecap="butt" stroke-linejoin="miter" stroke="rgb(0%, 0%, 0%)" stroke-opacity="0.12" stroke-miterlimit="1.154701" d="M 984 681 L 984 16 "/>
<path fill="none" stroke-width="1" stroke-linecap="butt" stroke-linejoin="miter" stroke="rgb(0%, 0%, 0%)" stroke-opacity="0.12" stroke-miterlimit="1.154701" d="M 33 539.203125 L 984 539.203125 "/>
<path fill="none" stroke-width="1" stroke-linecap="butt" stroke-linejoin="miter" stroke="rgb(0%, 0%, 0%)" stroke-opacity="0.12" stroke-miterlimit="1.154701" d="M 33 375.953125 L 984 375.953125 "/>
<path fill="none" stroke-width="1" stroke-linecap="butt" stroke-linejoin="miter" stroke="rgb(0%, 0%, 0%)" stroke-opacity="0.12" stroke-miterlimit="1.154701" d="M 33 212.707031 L 984 212.707031 "/>
<path fill="none" stroke-width="1" stroke-linecap="butt" stroke-linejoin="miter" stroke="rgb(0%, 0%, 0%)" stroke-opacity="0.12" stroke-miterlimit="1.154701" d="M 33 49.457031 L 984 49.457031 "/>
<g fill="rgb(0%, 0%, 0%)" fill-opacity="1">
<use xlink:href="#glyph-0-0-35aacd5f" x="17.236001" y="702.258"/>
</g>
<g fill="rgb(0%, 0%, 0%)" fill-opacity="1">
<use xlink:href="#glyph-0-1-35aacd5f" x="25.412001" y="702.258"/>
</g>
<g fill="rgb(0%, 0%, 0%)" fill-opacity="1">
<use xlink:href="#glyph-0-2-35aacd5f" x="33.196001" y="702.258"/>
</g>
<g fill="rgb(0%, 0%, 0%)" fill-opacity="1">
<use xlink:href="#glyph-0-2-35aacd5f" x="40.980001" y="702.258"/>
</g>
<g fill="rgb(0%, 0%, 0%)" fill-opacity="1">
<use xlink:href="#glyph-0-0-35aacd5f" x="80.636005" y="702.258"/>
</g>
<g fill="rgb(0%, 0%, 0%)" fill-opacity="1">
<use xlink:href="#glyph-0-3-35aacd5f" x="88.812005" y="702.258"/>
</g>
<g fill="rgb(0%, 0%, 0%)" fill-opacity="1">
<use xlink:href="#glyph-0-2-35aacd5f" x="96.596005" y="702.258"/>
</g>
<g fill="rgb(0%, 0%, 0%)" fill-opacity="1">
<use xlink:href="#glyph-0-2-35aacd5f" x="104.380006" y="702.258"/>
</g>
<g fill="rgb(0%, 0%, 0%)" fill-opacity="1">
<use xlink:href="#glyph-0-0-35aacd5f" x="144.03601" y="702.258"/>
</g>
<g fill="rgb(0%, 0%, 0%)" fill-opacity="1">
<use xlink:href="#glyph-0-4-35aacd5f" x="152.21201" y="702.258"/>
</g>
<g fill="rgb(0%, 0%, 0%)" fill-opacity="1">
<use xlink:href="#glyph-0-2-35aacd5f" x="159.99601" y="702.258"/>
</g>
<g fill="rgb(0%, 0%, 0%)" fill-opacity="1">
<use xlink:href="#glyph-0-2-35aacd5f" x="167.780011" y="702.258"/>
</g>
<g fill="rgb(0%, 0%, 0%)" fill-opacity="1">
<use xlink:href="#glyph-0-0-35aacd5f" x="207.436007" y="702.258"/>
</g>
<g fill="rgb(0%, 0%, 0%)" fill-opacity="1">
<use xlink:href="#glyph-0-5-35aacd5f" x="215.612007" y="702.258"/>
</g>
<g fill="rgb(0%, 0%, 0%)" fill-opacity="1">
<use xlink:href="#glyph-0-2-35aacd5f" x="223.396007" y="702.258"/>
</g>
<g fill="rgb(0%, 0%, 0%)" fill-opacity="1">
<use xlink:href="#glyph-0-2-35aacd5f" x="231.180007" y="702.258"/>
</g>
<g fill="rgb(0%, 0%, 0%)" fill-opacity="1">
<use xlink:href="#glyph-0-0-35aacd5f" x="270.836019" y="702.258"/>
</g>
<g fill="rgb(0%, 0%, 0%)" fill-opacity="1">
<use xlink:href="#glyph-0-6-35aacd5f" x="279.012019" y="702.258"/>
</g>
<g fill="rgb(0%, 0%, 0%)" fill-opacity="1">
<use xlink:href="#glyph-0-2-35aacd5f" x="286.796019" y="702.258"/>
</g>
<g fill="rgb(0%, 0%, 0%)" fill-opacity="1">
<use xlink:href="#glyph-0-2-35aacd5f" x="294.58002" y="702.258"/>
</g>
<g fill="rgb(0%, 0%, 0%)" fill-opacity="1">
<use xlink:href="#glyph-0-2-35aacd5f" x="346.108016" y="702.258"/>
</g>
<g fill="rgb(0%, 0%, 0%)" fill-opacity="1">
<use xlink:href="#glyph-0-6-35aacd5f" x="401.724013" y="702.258"/>
</g>
<g fill="rgb(0%, 0%, 0%)" fill-opacity="1">
<use xlink:href="#glyph-0-2-35aacd5f" x="409.508014" y="702.258"/>
</g>
<g fill="rgb(0%, 0%, 0%)" fill-opacity="1">
<use xlink:href="#glyph-0-2-35aacd5f" x="417.292014" y="702.258"/>
</g>
<g fill="rgb(0%, 0%, 0%)" fill-opacity="1">
<use xlink:href="#glyph-0-5-35aacd5f" x="465.12401" y="702.258"/>
</g>
<g fill="rgb(0%, 0%, 0%)" fill-opacity="1">
<use xlink:href="#glyph-0-2-35aacd5f" x="472.908011" y="702.258"/>
</g>
<g fill="rgb(0%, 0%, 0%)" fill-opacity="1">
<use xlink:href="#glyph-0-2-35aacd5f" x="480.692011" y="702.258"/>
</g>
<g fill="rgb(0%, 0%, 0%)" fill-opacity="1">
<use xlink:href="#glyph-0-4-35aacd5f" x="528.524038" y="702.258"/>
</g>
<g fill="rgb(0%, 0%, 0%)" fill-opacity="1">
<use xlink:href="#glyph-0-2-35aacd5f" x="536.308038" y="702.258"/>
</g>
<g fill="rgb(0%, 0%, 0%)" fill-opacity="1">
<use xlink:href="#glyph-0-2-35aacd5f" x="544.092038" y="702.258"/>
</g>
<g fill="rgb(0%, 0%, 0%)" fill-opacity="1">
<use xlink:href="#glyph-0-3-35aacd5f" x="591.924004" y="702.258"/>
</g>
<g fill="rgb(0%, 0%, 0%)" fill-opacity="1">
<use xlink:href="#glyph-0-2-35aacd5f" x="599.708004" y="702.258"/>
</g>
<g fill="rgb(0%, 0%, 0%)" fill-opacity="1">
<use xlink:href="#glyph-0-2-35aacd5f" x="607.492005" y="702.258"/>
</g>
<g fill="rgb(0%, 0%, 0%)" fill-opacity="1">
<use xlink:href="#glyph-0-1-35aacd5f" x="655.324031" y="702.258"/>
</g>
<g fill="rgb(0%, 0%, 0%)" fill-opacity="1">
<use xlink:href="#glyph-0-2-35aacd5f" x="663.108032" y="702.258"/>
</g>
<g fill="rgb(0%, 0%, 0%)" fill-opacity="1">
<use xlink:href="#glyph-0-2-35aacd5f" x="670.892032" y="702.258"/>
</g>
<g fill="rgb(0%, 0%, 0%)" fill-opacity="1">
<use xlink:href="#glyph-0-7-35aacd5f" x="718.724059" y="702.258"/>
</g>
<g fill="rgb(0%, 0%, 0%)" fill-opacity="1">
<use xlink:href="#glyph-0-2-35aacd5f" x="726.508059" y="702.258"/>
</g>
<g fill="rgb(0%, 0%, 0%)" fill-opacity="1">
<use xlink:href="#glyph-0-2-35aacd5f" x="734.292059" y="702.258"/>
</g>
<g fill="rgb(0%, 0%, 0%)" fill-opacity="1">
<use xlink:href="#glyph-0-8-35aacd5f" x="782.124025" y="702.258"/>
</g>
<g fill="rgb(0%, 0%, 0%)" fill-opacity="1">
<use xlink:href="#glyph-0-2-35aacd5f" x="789.908026" y="702.258"/>
</g>
<g fill="rgb(0%, 0%, 0%)" fill-opacity="1">
<use xlink:href="#glyph-0-2-35aacd5f" x="797.692026" y="702.258"/>
</g>
<g fill="rgb(0%, 0%, 0%)" fill-opacity="1">
<use xlink:href="#glyph-0-9-35aacd5f" x="845.524053" y="702.258"/>
</g>
<g fill="rgb(0%, 0%, 0%)" fill-opacity="1">
<use xlink:href="#glyph-0-2-35aacd5f" x="853.308053" y="702.258"/>
</g>
<g fill="rgb(0%, 0%, 0%)" fill-opacity="1">
<use xlink:href="#glyph-0-2-35aacd5f" x="861.092053" y="702.258"/>
</g>
<g fill="rgb(0%, 0%, 0%)" fill-opacity="1">
<use xlink:href="#glyph-0-10-35aacd5f" x="908.924019" y="702.258"/>
</g>
<g fill="rgb(0%, 0%, 0%)" fill-opacity="1">
<use xlink:href="#glyph-0-2-35aacd5f" x="916.708019" y="702.258"/>
</g>
<g fill="rgb(0%, 0%, 0%)" fill-opacity="1">
<use xlink:href="#glyph-0-2-35aacd5f" x="924.49202" y="702.258"/>
</g>
<g fill="rgb(0%, 0%, 0%)" fill-opacity="1">
<use xlink:href="#glyph-0-6-35aacd5f" x="968.432046" y="702.258"/>
</g>
<g fill="rgb(0%, 0%, 0%)" fill-opacity="1">
<use xlink:href="#glyph-0-2-35aacd5f" x="976.216046" y="702.258"/>
</g>
<g fill="rgb(0%, 0%, 0%)" fill-opacity="1">
<use xlink:href="#glyph-0-2-35aacd5f" x="984.000047" y="702.258"/>
</g>
<g fill="rgb(0%, 0%, 0%)" fill-opacity="1">
<use xlink:href="#glyph-1-0-35aacd5f" x="991.784047" y="702.258"/>
</g>
<g fill="rgb(0%, 0%, 0%)" fill-opacity="1">
<use xlink:href="#glyph-2-0-35aacd5f" x="15.216001" y="544.305846"/>
</g>
<g fill="rgb(0%, 0%, 0%)" fill-opacity="1">
<use xlink:href="#glyph-2-1-35aacd5f" x="15.216001" y="381.057887"/>
</g>
<g fill="rgb(0%, 0%, 0%)" fill-opacity="1">
<use xlink:href="#glyph-2-2-35aacd5f" x="15.216001" y="217.809897"/>
</g>
<g fill="rgb(0%, 0%, 0%)" fill-opacity="1">
<use xlink:href="#glyph-3-0-35aacd5f" x="15.216001" y="54.561907"/>
</g>
<g clip-path="url(#clip-0-35aacd5f)">
<path fill="none" stroke-width="1.5" stroke-linecap="butt" stroke-linejoin="miter" stroke="rgb(0%, 0%, 0%)" stroke-opacity="0.3" stroke-dasharray="4.5 4.5" stroke-miterlimit="1.154701" d="M 33 539.203125 L 984 539.203125 "/>
</g>
<g clip-path="url(#clip-1-35aacd5f)">
<path fill="none" stroke-width="1.5" stroke-linecap="butt" stroke-linejoin="miter" stroke="rgb(0%, 0%, 0%)" stroke-opacity="0.3" stroke-dasharray="4.5 4.5" stroke-miterlimit="1.154701" d="M 350 681 L 350 16 "/>
</g>
<g clip-path="url(#clip-2-35aacd5f)">
<path fill="none" stroke-width="3" stroke-linecap="butt" stroke-linejoin="miter" stroke="rgb(27.450982%, 50.980395%, 70.588237%)" stroke-opacity="1" stroke-miterlimit="2" d="M 33 582.492188 L 34.269531 581.304688 L 35.535156 579.9375 L 36.804688 579.375 L 38.070312 580.066406 L 39.339844 581.53125 L 40.609375 582.78125 L 41.875 583.234375 L 43.144531 583.140625 L 44.410156 582.8125 L 45.679688 582.113281 L 46.949219 581.039062 L 48.214844 580.296875 L 49.484375 580.789062 L 50.753906 582.308594 L 52.019531 583.390625 L 53.289062 583.042969 L 54.554688 581.96875 L 55.824219 581.519531 L 57.09375 581.859375 L 58.359375 581.773438 L 59.628906 580.550781 L 60.894531 579.234375 L 62.164062 579.1875 L 63.433594 580.109375 L 64.699219 580.234375 L 65.96875 578.472656 L 67.234375 575.867188 L 68.503906 574.417969 L 69.773438 574.917969 L 71.039062 576.515625 L 72.308594 577.996094 L 73.574219 578.835938 L 74.84375 579.109375 L 76.113281 578.730469 L 77.378906 577.601562 L 78.648438 576.332031 L 79.914062 575.988281 L 81.183594 577.082031 L 82.453125 578.914062 L 83.71875 580.191406 L 84.988281 580.398438 L 86.257812 580.03125 L 87.523438 579.605469 L 88.792969 579.007812 L 90.058594 577.972656 L 91.328125 576.964844 L 92.597656 577.042969 L 93.863281 578.425781 L 95.132812 579.84375 L 96.398438 579.71875 L 97.667969 577.8125 L 98.9375 575.597656 L 100.203125 574.757812 L 101.472656 575.597656 L 102.738281 577.195312 L 104.007812 578.523438 L 105.277344 579.191406 L 106.542969 579.34375 L 107.8125 579.09375 L 109.078125 578.53125 L 110.347656 577.898438 L 111.617188 577.421875 L 112.882812 577.144531 L 114.152344 576.9375 L 115.421875 576.648438 L 116.6875 576.367188 L 117.957031 576.328125 L 119.222656 576.609375 L 120.492188 576.976562 L 121.761719 576.917969 L 123.027344 576.257812 L 124.296875 575.648438 L 125.5625 576.035156 L 126.832031 577.5 L 128.101562 578.945312 L 129.367188 579.132812 L 130.636719 578.125 L 131.902344 577.15625 L 133.171875 577.132812 L 134.441406 577.867188 L 135.707031 578.617188 L 136.976562 578.964844 L 138.242188 579.007812 L 139.511719 578.773438 L 140.78125 578.148438 L 142.046875 577.273438 L 143.316406 576.542969 L 144.585938 576.402344 L 145.851562 577.148438 L 147.121094 578.582031 L 148.386719 579.933594 L 149.65625 580.214844 L 150.925781 579.136719 L 152.191406 577.671875 L 153.460938 577.050781 L 154.726562 577.332031 L 155.996094 577.617188 L 157.265625 577.402344 L 158.53125 577.222656 L 159.800781 577.636719 L 161.066406 578.074219 L 162.335938 577.6875 L 163.605469 576.691406 L 164.871094 576.175781 L 166.140625 576.773438 L 167.40625 577.992188 L 168.675781 579.015625 L 169.945312 579.585938 L 171.210938 579.601562 L 172.480469 578.769531 L 173.746094 577.175781 L 175.015625 575.730469 L 176.285156 575.597656 L 177.550781 577.023438 L 178.820312 578.957031 L 180.089844 580.082031 L 181.355469 579.746094 L 182.625 578.101562 L 183.890625 576.089844 L 185.160156 575.03125 L 186.429688 575.773438 L 187.695312 577.808594 L 188.964844 579.339844 L 190.230469 579.070312 L 191.5 577.71875 L 192.769531 577.066406 L 194.035156 577.660156 L 195.304688 578.09375 L 196.570312 577.019531 L 197.839844 575.402344 L 199.109375 575.550781 L 200.375 577.972656 L 201.644531 580.394531 L 202.910156 580.265625 L 204.179688 577.800781 L 205.449219 575.582031 L 206.714844 575.285156 L 207.984375 576.214844 L 209.253906 577.070312 L 210.519531 577.828125 L 211.789062 579.0625 L 213.054688 580.058594 L 214.324219 579.1875 L 215.59375 576.367188 L 216.859375 573.730469 L 218.128906 573.296875 L 219.394531 574.8125 L 220.664062 576.4375 L 221.933594 577.148438 L 223.199219 577.28125 L 224.46875 576.859375 L 225.734375 575.164062 L 227.003906 572.308594 L 228.273438 570.1875 L 229.539062 570.746094 L 230.808594 573.429688 L 232.074219 575.503906 L 233.34375 575.296875 L 234.613281 573.917969 L 235.878906 573.414062 L 237.148438 574.078125 L 238.414062 574.398438 L 239.683594 573.605469 L 240.953125 572.871094 L 242.21875 573.507812 L 243.488281 575.117188 L 244.757812 576.214844 L 246.023438 576.226562 L 247.292969 575.949219 L 248.558594 575.851562 L 249.828125 575.171875 L 251.097656 573.34375 L 252.363281 571.292969 L 253.632812 570.652344 L 254.898438 571.636719 L 256.167969 572.539062 L 257.4375 571.839844 L 258.703125 570.035156 L 259.972656 568.964844 L 261.238281 569.726562 L 262.507812 571.523438 L 263.777344 572.671875 L 265.042969 572.410156 L 266.3125 571.375 L 267.578125 570.628906 L 268.847656 570.472656 L 270.117188 570.265625 L 271.382812 569.617188 L 272.652344 569.183594 L 273.921875 569.855469 L 275.1875 571.367188 L 276.457031 572.183594 L 277.722656 571.183594 L 278.992188 569.136719 L 280.261719 567.757812 L 281.527344 567.613281 L 282.796875 567.796875 L 284.0625 567.46875 L 285.332031 567.109375 L 286.601562 567.484375 L 287.867188 567.988281 L 289.136719 567.132812 L 290.402344 564.632812 L 291.671875 562.132812 L 292.941406 561.632812 L 294.207031 563.226562 L 295.476562 564.976562 L 296.742188 565.074219 L 298.011719 563.566406 L 299.28125 561.96875 L 300.546875 561.523438 L 301.816406 561.953125 L 303.085938 562.25 L 304.351562 562.15625 L 305.621094 562.382812 L 306.886719 563.507812 L 308.15625 564.996094 L 309.425781 565.710938 L 310.691406 565.246094 L 311.960938 564.167969 L 313.226562 563.175781 L 314.496094 562.578125 L 315.765625 562.429688 L 317.03125 562.796875 L 318.300781 563.503906 L 319.566406 563.910156 L 320.835938 563.582031 L 322.105469 562.890625 L 323.371094 562.589844 L 324.640625 563.066406 L 325.90625 564.039062 L 327.175781 564.859375 L 328.445312 564.941406 L 329.710938 563.839844 L 330.980469 561.632812 L 332.246094 559.226562 L 333.515625 557.742188 L 334.785156 557.632812 L 336.050781 558.480469 L 337.320312 559.644531 L 338.589844 560.816406 L 339.855469 561.667969 L 341.125 561.554688 L 342.390625 560.324219 L 343.660156 558.992188 L 344.929688 559.238281 L 346.195312 562.042969 L 347.464844 566.667969 L 348.730469 571.179688 L 350 573.820312 L 351.269531 574.003906 L 352.535156 572.570312 L 353.804688 571.09375 L 355.070312 570.679688 L 356.339844 571.515625 L 357.609375 573.164062 L 358.875 575.058594 L 360.144531 576.648438 L 361.410156 577.289062 L 362.679688 576.816406 L 363.949219 576.25 L 365.214844 577.207031 L 366.484375 580.539062 L 367.753906 585.722656 L 369.019531 591.488281 L 370.289062 596.855469 L 371.554688 601.238281 L 372.824219 604.253906 L 374.09375 606.3125 L 375.359375 608.78125 L 376.628906 612.84375 L 377.894531 618.058594 L 379.164062 622.363281 L 380.433594 624.003906 L 381.699219 623.046875 L 382.96875 620.664062 L 384.234375 617.59375 L 385.503906 613.671875 L 386.773438 608.632812 L 388.039062 602.945312 L 389.308594 597.351562 L 390.574219 591.941406 L 391.84375 586.039062 L 393.113281 578.746094 L 394.378906 569.789062 L 395.648438 559.855469 L 396.914062 550.097656 L 398.183594 541.433594 L 399.453125 533.953125 L 400.71875 526.753906 L 401.988281 518.488281 L 403.257812 508.175781 L 404.523438 495.859375 L 405.792969 482.855469 L 407.058594 470.898438 L 408.328125 460.851562 L 409.597656 452.042969 L 410.863281 442.824219 L 412.132812 432.175781 L 413.398438 420.527344 L 414.667969 408.859375 L 415.9375 397.386719 L 417.203125 385.414062 L 418.472656 372.546875 L 419.738281 359.5625 L 421.007812 347.429688 L 422.277344 335.800781 L 423.542969 323.171875 L 424.8125 308.574219 L 426.078125 292.722656 L 427.347656 277.175781 L 428.617188 262.609375 L 429.882812 248.507812 L 431.152344 234.207031 L 432.421875 219.5625 L 433.6875 204.769531 L 434.957031 190.019531 L 436.222656 175.628906 L 437.492188 162.296875 L 438.761719 150.675781 L 440.027344 141.042969 L 441.296875 133.546875 L 442.5625 128.285156 L 443.832031 125.097656 L 445.101562 123.574219 L 446.367188 123.53125 L 447.636719 125.382812 L 448.902344 129.449219 L 450.171875 135.265625 L 451.441406 142.394531 L 452.707031 151.425781 L 453.976562 163.277344 L 455.242188 177.359375 L 456.511719 191.339844 L 457.78125 203.609375 L 459.046875 215.292969 L 460.316406 228.730469 L 461.585938 244.582031 L 462.851562 261.144531 L 464.121094 276.40625 L 465.386719 289.964844 L 466.65625 302.527344 L 467.925781 314.570312 L 469.191406 326.230469 L 470.460938 337.871094 L 471.726562 350.023438 L 472.996094 362.796875 L 474.265625 375.53125 L 475.53125 387.292969 L 476.800781 397.503906 L 478.066406 406.058594 L 479.335938 413.363281 L 480.605469 420.171875 L 481.871094 427.175781 L 483.140625 434.726562 L 484.40625 442.53125 L 485.675781 449.566406 L 486.945312 454.628906 L 488.210938 457.316406 L 489.480469 458.816406 L 490.746094 461.109375 L 492.015625 464.828125 L 493.285156 468.542969 L 494.550781 470.570312 L 495.820312 471.035156 L 497.089844 471.527344 L 498.355469 472.691406 L 499.625 473.34375 L 500.890625 472.464844 L 502.160156 470.84375 L 503.429688 470.089844 L 504.695312 470.609375 L 505.964844 471.230469 L 507.230469 470.867188 L 508.5 469.609375 L 509.769531 467.996094 L 511.035156 466.257812 L 512.304688 464.546875 L 513.570312 463.359375 L 514.839844 463.277344 L 516.109375 464.265625 L 517.375 465.597656 L 518.644531 466.550781 L 519.910156 466.679688 L 521.179688 465.898438 L 522.449219 464.597656 L 523.714844 463.527344 L 524.984375 463.449219 L 526.253906 464.492188 L 527.519531 465.914062 L 528.789062 466.777344 L 530.054688 466.710938 L 531.324219 466.050781 L 532.59375 465.433594 L 533.859375 465.152344 L 535.128906 465.109375 L 536.394531 465.320312 L 537.664062 465.984375 L 538.933594 466.957031 L 540.199219 467.375 L 541.46875 466.296875 L 542.734375 464.109375 L 544.003906 462.550781 L 545.273438 462.835938 L 546.539062 464.222656 L 547.808594 464.8125 L 549.074219 463.710938 L 550.34375 461.84375 L 551.613281 460.507812 L 552.878906 459.988281 L 554.148438 459.820312 L 555.414062 459.539062 L 556.683594 458.882812 L 557.953125 457.617188 L 559.21875 455.789062 L 560.488281 454.078125 L 561.757812 453.03125 L 563.023438 452.140625 L 564.292969 450.449219 L 565.558594 448.082031 L 566.828125 446.476562 L 568.097656 446.675781 L 569.363281 447.65625 L 570.632812 447.207031 L 571.898438 444.367188 L 573.167969 440.378906 L 574.4375 437.367188 L 575.703125 436.285156 L 576.972656 436.257812 L 578.238281 435.875 L 579.507812 434.636719 L 580.777344 433.273438 L 582.042969 432.699219 L 583.3125 432.636719 L 584.578125 431.726562 L 585.847656 429.203125 L 587.117188 426.191406 L 588.382812 424.96875 L 589.652344 426.566406 L 590.921875 429.28125 L 592.1875 430.289062 L 593.457031 428.492188 L 594.722656 425.449219 L 595.992188 423.558594 L 597.261719 423.578125 L 598.527344 424.425781 L 599.796875 425.105469 L 601.0625 425.894531 L 602.332031 427.460938 L 603.601562 429.421875 L 604.867188 430.378906 L 606.136719 429.632812 L 607.402344 428.15625 L 608.671875 427.574219 L 609.941406 428.582031 L 611.207031 430.4375 L 612.476562 431.988281 L 613.742188 432.878906 L 615.011719 433.472656 L 616.28125 434.125 L 617.546875 434.820312 L 618.816406 435.425781 L 620.085938 436.15625 L 621.351562 437.433594 L 622.621094 439.164062 L 623.886719 440.617188 L 625.15625 441.078125 L 626.425781 440.65625 L 627.691406 440.210938 L 628.960938 440.339844 L 630.226562 440.953125 L 631.496094 442.015625 L 632.765625 444.050781 L 634.03125 447.496094 L 635.300781 451.578125 L 636.566406 454.453125 L 637.835938 455.039062 L 639.105469 454.269531 L 640.371094 454.214844 L 641.640625 456.265625 L 642.90625 460.082031 L 644.175781 464.113281 L 645.445312 466.894531 L 646.710938 467.925781 L 647.980469 467.953125 L 649.246094 468.402344 L 650.515625 470.195312 L 651.785156 473.183594 L 653.050781 476.488281 L 654.320312 479.257812 L 655.589844 481.128906 L 656.855469 482.191406 L 658.125 482.925781 L 659.390625 484.222656 L 660.660156 486.6875 L 661.929688 489.988281 L 663.195312 493.230469 L 664.464844 495.875 L 665.730469 498.101562 L 667 500.121094 L 668.269531 501.691406 L 669.535156 502.785156 L 670.804688 504.046875 L 672.070312 506.019531 L 673.339844 508.433594 L 674.609375 510.578125 L 675.875 512.324219 L 677.144531 514.167969 L 678.410156 516.160156 L 679.679688 517.765625 L 680.949219 518.933594 L 682.214844 520.488281 L 683.484375 523.074219 L 684.753906 526.195312 L 686.019531 528.777344 L 687.289062 530.566406 L 688.554688 532.0625 L 689.824219 533.421875 L 691.09375 534.3125 L 692.359375 534.917969 L 693.628906 536.300781 L 694.894531 539.167969 L 696.164062 542.523438 L 697.433594 544.539062 L 698.699219 544.71875 L 699.96875 544.433594 L 701.234375 545.25 L 702.503906 547.167969 L 703.773438 549.054688 L 705.039062 550.53125 L 706.308594 552.375 L 707.574219 554.929688 L 708.84375 557.171875 L 710.113281 557.886719 L 711.378906 557.53125 L 712.648438 557.894531 L 713.914062 559.820312 L 715.183594 562.320312 L 716.453125 564.199219 L 717.71875 565.539062 L 718.988281 567.089844 L 720.257812 568.707031 L 721.523438 569.441406 L 722.792969 569.15625 L 724.058594 568.847656 L 725.328125 569.335938 L 726.597656 570.566406 L 727.863281 572.214844 L 729.132812 574.316406 L 730.398438 576.601562 L 731.667969 577.980469 L 732.9375 577.710938 L 734.203125 576.605469 L 735.472656 576.269531 L 736.738281 577.332031 L 738.007812 579.007812 L 739.277344 580.3125 L 740.542969 581.042969 L 741.8125 581.261719 L 743.078125 580.886719 L 744.347656 580.242188 L 745.617188 580.207031 L 746.882812 581.441406 L 748.152344 583.546875 L 749.421875 585.34375 L 750.6875 585.941406 L 751.957031 585.113281 L 753.222656 583.179688 L 754.492188 581.160156 L 755.761719 580.554688 L 757.027344 582.292969 L 758.296875 585.765625 L 759.5625 589.167969 L 760.832031 591.101562 L 762.101562 591.46875 L 763.367188 590.714844 L 764.636719 589.195312 L 765.902344 587.402344 L 767.171875 586.28125 L 768.441406 586.695312 L 769.707031 588.460938 L 770.976562 590.386719 L 772.242188 591.515625 L 773.511719 591.84375 L 774.78125 591.929688 L 776.046875 592.210938 L 777.316406 592.710938 L 778.585938 593.476562 L 779.851562 594.671875 L 781.121094 596.140625 L 782.386719 597.292969 L 783.65625 597.589844 L 784.925781 597.203125 L 786.191406 597 L 787.460938 597.5 L 788.726562 598.257812 L 789.996094 598.605469 L 791.265625 598.53125 L 792.53125 598.667969 L 793.800781 599.292969 L 795.066406 599.839844 L 796.335938 599.816406 L 797.605469 599.53125 L 798.871094 599.535156 L 800.140625 599.835938 L 801.40625 600.089844 L 802.675781 600.382812 L 803.945312 601.21875 L 805.210938 602.453125 L 806.480469 603.125 L 807.746094 602.703125 L 809.015625 602.007812 L 810.285156 602.332031 L 811.550781 603.769531 L 812.820312 604.90625 L 814.089844 604.507812 L 815.355469 602.949219 L 816.625 601.621094 L 817.890625 601.304688 L 819.160156 601.5 L 820.429688 601.5625 L 821.695312 602.007812 L 822.964844 603.8125 L 824.230469 606.6875 L 825.5 608.769531 L 826.769531 608.453125 L 828.035156 606.457031 L 829.304688 605.136719 L 830.570312 605.78125 L 831.839844 607.433594 L 833.109375 608.402344 L 834.375 608.300781 L 835.644531 607.957031 L 836.910156 607.722656 L 838.179688 607.027344 L 839.449219 605.691406 L 840.714844 604.605469 L 841.984375 604.726562 L 843.253906 605.878906 L 844.519531 607.015625 L 845.789062 607.644531 L 847.054688 608.136719 L 848.324219 608.734375 L 849.59375 609.03125 L 850.859375 608.53125 L 852.128906 607.660156 L 853.394531 607.632812 L 854.664062 609.070312 L 855.933594 611.117188 L 857.199219 612.207031 L 858.46875 611.671875 L 859.734375 610.515625 L 861.003906 610.207031 L 862.273438 610.984375 L 863.539062 611.933594 L 864.808594 612.4375 L 866.074219 612.835938 L 867.34375 613.5625 L 868.613281 614.171875 L 869.878906 614.097656 L 871.148438 613.78125 L 872.414062 614.097656 L 873.683594 615.003906 L 874.953125 615.617188 L 876.21875 615.625 L 877.488281 615.765625 L 878.757812 616.402344 L 880.023438 616.585938 L 881.292969 615.511719 L 882.558594 614.046875 L 883.828125 613.914062 L 885.097656 615.511719 L 886.363281 617.410156 L 887.632812 618.28125 L 888.898438 618.347656 L 890.167969 618.40625 L 891.4375 618.453125 L 892.703125 617.84375 L 893.972656 616.59375 L 895.238281 615.78125 L 896.507812 616.316406 L 897.777344 617.859375 L 899.042969 619.234375 L 900.3125 619.546875 L 901.578125 618.839844 L 902.847656 617.867188 L 904.117188 617.300781 L 905.382812 617.441406 L 906.652344 618.226562 L 907.921875 619.246094 L 909.1875 619.800781 L 910.457031 619.148438 L 911.722656 617.164062 L 912.992188 614.9375 L 914.261719 614.09375 L 915.527344 615.390625 L 916.796875 618.011719 L 918.0625 620.289062 L 919.332031 621.21875 L 920.601562 621.007812 L 921.867188 620.3125 L 923.136719 619.578125 L 924.402344 619.0625 L 925.671875 619.136719 L 926.941406 620.144531 L 928.207031 621.792969 L 929.476562 623.011719 L 930.742188 622.855469 L 932.011719 621.445312 L 933.28125 619.972656 L 934.546875 619.582031 L 935.816406 620.195312 L 937.085938 620.84375 L 938.351562 620.867188 L 939.621094 620.386719 L 940.886719 619.777344 L 942.15625 619.082031 L 943.425781 618.261719 L 944.691406 617.746094 L 945.960938 617.960938 L 947.226562 618.695312 L 948.496094 619.40625 L 949.765625 619.863281 L 951.03125 620.210938 L 952.300781 620.382812 L 953.566406 620.128906 L 954.835938 619.773438 L 956.105469 620.132812 L 957.371094 621.425781 L 958.640625 622.910156 L 959.90625 623.851562 L 961.175781 624.367188 L 962.445312 624.84375 L 963.710938 625.039062 L 964.980469 624.582031 L 966.246094 623.949219 L 967.515625 624.019531 L 968.785156 624.847656 L 970.050781 625.550781 L 971.320312 625.429688 L 972.589844 624.667969 L 973.855469 623.71875 L 975.125 622.8125 L 976.390625 622.359375 L 977.660156 622.84375 L 978.929688 624.058594 L 980.195312 625.007812 L 981.464844 625.015625 L 982.730469 624.535156 L 984 624.359375 "/>
</g>
<g clip-path="url(#clip-3-35aacd5f)">
<path fill="none" stroke-width="3" stroke-linecap="butt" stroke-linejoin="miter" stroke="rgb(69.803923%, 13.333334%, 13.333334%)" stroke-opacity="1" stroke-miterlimit="2" d="M 33 582.800781 L 34.269531 580.75 L 35.535156 579.492188 L 36.804688 579.816406 L 38.070312 581.070312 L 39.339844 582.238281 L 40.609375 582.914062 L 41.875 583.25 L 43.144531 583.359375 L 44.410156 583 L 45.679688 582.175781 L 46.949219 581.554688 L 48.214844 581.722656 L 49.484375 582.402344 L 50.753906 582.664062 L 52.019531 582.046875 L 53.289062 581.285156 L 54.554688 581.390625 L 55.824219 582.257812 L 57.09375 582.746094 L 58.359375 581.964844 L 59.628906 580.308594 L 60.894531 579.046875 L 62.164062 578.878906 L 63.433594 579.316406 L 64.699219 579.320312 L 65.96875 578.296875 L 67.234375 576.691406 L 68.503906 575.507812 L 69.773438 575.292969 L 71.039062 575.929688 L 72.308594 577.039062 L 73.574219 578.421875 L 74.84375 579.855469 L 76.113281 580.578125 L 77.378906 579.796875 L 78.648438 577.878906 L 79.914062 576.394531 L 81.183594 576.683594 L 82.453125 578.417969 L 83.71875 580.003906 L 84.988281 580.5 L 86.257812 580.308594 L 87.523438 580.09375 L 88.792969 579.78125 L 90.058594 578.910156 L 91.328125 577.839844 L 92.597656 577.808594 L 93.863281 579.367188 L 95.132812 581.382812 L 96.398438 581.941406 L 97.667969 580.191406 L 98.9375 577.351562 L 100.203125 575.628906 L 101.472656 576.179688 L 102.738281 578.410156 L 104.007812 580.714844 L 105.277344 581.875 L 106.542969 581.820312 L 107.8125 581.261719 L 109.078125 580.96875 L 110.347656 581.234375 L 111.617188 581.5625 L 112.882812 581.273438 L 114.152344 580.300781 L 115.421875 579.375 L 116.6875 579.285156 L 117.957031 579.945312 L 119.222656 580.542969 L 120.492188 580.605469 L 121.761719 580.378906 L 123.027344 580.277344 L 124.296875 580.496094 L 125.5625 581.101562 L 126.832031 582.191406 L 128.101562 583.464844 L 129.367188 584.003906 L 130.636719 583.296875 L 131.902344 582.175781 L 133.171875 582.042969 L 134.441406 583.296875 L 135.707031 584.800781 L 136.976562 585.25 L 138.242188 584.683594 L 139.511719 584.074219 L 140.78125 584 L 142.046875 584.152344 L 143.316406 584.011719 L 144.585938 583.824219 L 145.851562 584.410156 L 147.121094 586.035156 L 148.386719 587.820312 L 149.65625 588.402344 L 150.925781 587.34375 L 152.191406 585.769531 L 153.460938 585.09375 L 154.726562 585.5 L 155.996094 586.164062 L 157.265625 586.582031 L 158.53125 587.132812 L 159.800781 588.027344 L 161.066406 588.492188 L 162.335938 587.886719 L 163.605469 586.886719 L 164.871094 586.683594 L 166.140625 587.507812 L 167.40625 588.554688 L 168.675781 589.402344 L 169.945312 590.445312 L 171.210938 591.515625 L 172.480469 591.417969 L 173.746094 589.65625 L 175.015625 587.707031 L 176.285156 587.75 L 177.550781 590.160156 L 178.820312 592.992188 L 180.089844 594.199219 L 181.355469 593.40625 L 182.625 591.605469 L 183.890625 590.101562 L 185.160156 589.832031 L 186.429688 591.066406 L 187.695312 593.039062 L 188.964844 594.179688 L 190.230469 593.75 L 191.5 592.984375 L 192.769531 593.726562 L 194.035156 596 L 195.304688 597.582031 L 196.570312 596.664062 L 197.839844 594.445312 L 199.109375 593.890625 L 200.375 596.054688 L 201.644531 598.761719 L 202.910156 599.320312 L 204.179688 597.898438 L 205.449219 597.089844 L 206.714844 598.300781 L 207.984375 600.246094 L 209.253906 601.320312 L 210.519531 601.898438 L 211.789062 603.230469 L 213.054688 604.738281 L 214.324219 604.433594 L 215.59375 602.199219 L 216.859375 600.546875 L 218.128906 601.460938 L 219.394531 603.871094 L 220.664062 605.382812 L 221.933594 605.65625 L 223.199219 606.242188 L 224.46875 607.355469 L 225.734375 607.253906 L 227.003906 605.277344 L 228.273438 603.707031 L 229.539062 605.269531 L 230.808594 609.441406 L 232.074219 612.957031 L 233.34375 613.90625 L 234.613281 613.582031 L 235.878906 614.199219 L 237.148438 616.0625 L 238.414062 617.765625 L 239.683594 618.625 L 240.953125 619.488281 L 242.21875 621.175781 L 243.488281 623.421875 L 244.757812 625.476562 L 246.023438 627.074219 L 247.292969 628.355469 L 248.558594 629.042969 L 249.828125 628.75 L 251.097656 628.03125 L 252.363281 628.214844 L 253.632812 629.972656 L 254.898438 632.367188 L 256.167969 633.710938 L 257.4375 633.597656 L 258.703125 633.328125 L 259.972656 634.347656 L 261.238281 636.742188 L 262.507812 639.222656 L 263.777344 640.535156 L 265.042969 640.71875 L 266.3125 640.804688 L 267.578125 641.628906 L 268.847656 642.964844 L 270.117188 643.828125 L 271.382812 643.976562 L 272.652344 644.53125 L 273.921875 646.53125 L 275.1875 649.289062 L 276.457031 650.773438 L 277.722656 650.089844 L 278.992188 648.765625 L 280.261719 648.59375 L 281.527344 649.140625 L 282.796875 648.71875 L 284.0625 647.316406 L 285.332031 647.03125 L 286.601562 648.886719 L 287.867188 650.65625 L 289.136719 649.507812 L 290.402344 645.796875 L 291.671875 642.714844 L 292.941406 642.496094 L 294.207031 644.136719 L 295.476562 645.28125 L 296.742188 645.078125 L 298.011719 644.171875 L 299.28125 643.054688 L 300.546875 641.652344 L 301.816406 639.957031 L 303.085938 638.4375 L 304.351562 637.476562 L 305.621094 636.972656 L 306.886719 636.777344 L 308.15625 636.71875 L 309.425781 636.210938 L 310.691406 634.507812 L 311.960938 631.53125 L 313.226562 628.296875 L 314.496094 626.121094 L 315.765625 625.128906 L 317.03125 624.175781 L 318.300781 622.152344 L 319.566406 619.175781 L 320.835938 616.453125 L 322.105469 614.847656 L 323.371094 613.851562 L 324.640625 612.433594 L 325.90625 610.34375 L 327.175781 608.132812 L 328.445312 605.957031 L 329.710938 602.871094 L 330.980469 598.121094 L 332.246094 592.59375 L 333.515625 588.128906 L 334.785156 585.675781 L 336.050781 584.625 L 337.320312 583.859375 L 338.589844 582.921875 L 339.855469 581.628906 L 341.125 579.601562 L 342.390625 576.886719 L 343.660156 574.480469 L 344.929688 573.78125 L 346.195312 575.425781 L 347.464844 578.703125 L 348.730469 582.0625 L 350 583.898438 L 351.269531 583.203125 L 352.535156 580.390625 L 353.804688 577.144531 L 355.070312 575.0625 L 356.339844 574.515625 L 357.609375 574.859375 L 358.875 575.511719 L 360.144531 576.300781 L 361.410156 576.835938 L 362.679688 576.769531 L 363.949219 576.808594 L 365.214844 578.460938 L 366.484375 582.535156 L 367.753906 588.308594 L 369.019531 594.535156 L 370.289062 600.742188 L 371.554688 606.75 L 372.824219 611.855469 L 374.09375 615.695312 L 375.359375 619.367188 L 376.628906 624.464844 L 377.894531 630.761719 L 379.164062 635.5625 L 380.433594 636.277344 L 381.699219 633.0625 L 382.96875 628.152344 L 384.234375 623.230469 L 385.503906 617.96875 L 386.773438 611.105469 L 388.039062 602.480469 L 389.308594 593.304688 L 390.574219 584.707031 L 391.84375 576.367188 L 393.113281 566.644531 L 394.378906 554.382812 L 395.648438 540.410156 L 396.914062 526.867188 L 398.183594 515.300781 L 399.453125 505.464844 L 400.71875 495.875 L 401.988281 485.125 L 403.257812 472.449219 L 404.523438 457.785156 L 405.792969 442.125 L 407.058594 427.3125 L 408.328125 414.703125 L 409.597656 403.871094 L 410.863281 392.929688 L 412.132812 380.570312 L 413.398438 367.183594 L 414.667969 353.652344 L 415.9375 339.949219 L 417.203125 325.488281 L 418.472656 310.582031 L 419.738281 296.613281 L 421.007812 284.128906 L 422.277344 271.652344 L 423.542969 257.148438 L 424.8125 240.324219 L 426.078125 222.984375 L 427.347656 206.898438 L 428.617188 191.824219 L 429.882812 176.402344 L 431.152344 160.242188 L 432.421875 144.246094 L 433.6875 129.125 L 434.957031 114.359375 L 436.222656 99.308594 L 437.492188 84.765625 L 438.761719 72.363281 L 440.027344 62.886719 L 441.296875 55.871094 L 442.5625 50.703125 L 443.832031 47.429688 L 445.101562 46.226562 L 446.367188 46.714844 L 447.636719 48.636719 L 448.902344 52.417969 L 450.171875 58.566406 L 451.441406 67.007812 L 452.707031 77.335938 L 453.976562 89.445312 L 455.242188 103.234375 L 456.511719 117.667969 L 457.78125 131.40625 L 459.046875 144.425781 L 460.316406 158.179688 L 461.585938 173.859375 L 462.851562 190.875 L 464.121094 207.414062 L 465.386719 222.351562 L 466.65625 235.917969 L 467.925781 248.855469 L 469.191406 261.699219 L 470.460938 274.621094 L 471.726562 287.746094 L 472.996094 301.203125 L 474.265625 314.714844 L 475.53125 327.460938 L 476.800781 338.449219 L 478.066406 347.304688 L 479.335938 354.898438 L 480.605469 362.710938 L 481.871094 371.359375 L 483.140625 380.242188 L 484.40625 388.414062 L 485.675781 395.472656 L 486.945312 401.371094 L 488.210938 405.835938 L 489.480469 408.898438 L 490.746094 411.597656 L 492.015625 414.992188 L 493.285156 418.828125 L 494.550781 421.835938 L 495.820312 423.5 L 497.089844 424.816406 L 498.355469 426.644531 L 499.625 428.34375 L 500.890625 428.832031 L 502.160156 428.183594 L 503.429688 427.515625 L 504.695312 427.5 L 505.964844 427.777344 L 507.230469 427.875 L 508.5 427.800781 L 509.769531 427.480469 L 511.035156 426.644531 L 512.304688 425.421875 L 513.570312 424.628906 L 514.839844 425.089844 L 516.109375 426.808594 L 517.375 429.019531 L 518.644531 430.910156 L 519.910156 431.851562 L 521.179688 431.652344 L 522.449219 430.925781 L 523.714844 430.757812 L 524.984375 431.859375 L 526.253906 433.871094 L 527.519531 435.792969 L 528.789062 437.074219 L 530.054688 437.824219 L 531.324219 438.226562 L 532.59375 438.371094 L 533.859375 438.390625 L 535.128906 438.601562 L 536.394531 439.324219 L 537.664062 440.457031 L 538.933594 441.421875 L 540.199219 441.445312 L 541.46875 440.109375 L 542.734375 438.160156 L 544.003906 437.21875 L 545.273438 438.195312 L 546.539062 440.152344 L 547.808594 441.191406 L 549.074219 440.519531 L 550.34375 439.148438 L 551.613281 438.238281 L 552.878906 437.773438 L 554.148438 437.140625 L 555.414062 436.238281 L 556.683594 435.472656 L 557.953125 434.898438 L 559.21875 434.089844 L 560.488281 432.972656 L 561.757812 431.859375 L 563.023438 430.765625 L 564.292969 429.441406 L 565.558594 428.03125 L 566.828125 427.167969 L 568.097656 427.070312 L 569.363281 426.832031 L 570.632812 425.320312 L 571.898438 422.457031 L 573.167969 419.261719 L 574.4375 416.898438 L 575.703125 415.777344 L 576.972656 415.378906 L 578.238281 414.847656 L 579.507812 413.726562 L 580.777344 412.480469 L 582.042969 412.058594 L 583.3125 412.441406 L 584.578125 412.203125 L 585.847656 410.101562 L 587.117188 406.941406 L 588.382812 405.25 L 589.652344 406.542969 L 590.921875 409.316406 L 592.1875 410.605469 L 593.457031 409.066406 L 594.722656 406.164062 L 595.992188 404.335938 L 597.261719 404.378906 L 598.527344 405.207031 L 599.796875 405.789062 L 601.0625 406.410156 L 602.332031 407.945312 L 603.601562 410.195312 L 604.867188 411.625 L 606.136719 411.152344 L 607.402344 409.546875 L 608.671875 408.660156 L 609.941406 409.53125 L 611.207031 411.496094 L 612.476562 413.300781 L 613.742188 414.660156 L 615.011719 416.082031 L 616.28125 417.816406 L 617.546875 419.398438 L 618.816406 420.253906 L 620.085938 420.566406 L 621.351562 421.125 L 622.621094 422.378906 L 623.886719 423.972656 L 625.15625 425.066406 L 626.425781 425.175781 L 627.691406 424.691406 L 628.960938 424.46875 L 630.226562 425.097656 L 631.496094 426.703125 L 632.765625 429.09375 L 634.03125 432.046875 L 635.300781 435.164062 L 636.566406 437.667969 L 637.835938 438.886719 L 639.105469 439.011719 L 640.371094 439.214844 L 641.640625 440.96875 L 642.90625 444.71875 L 644.175781 449.265625 L 645.445312 452.640625 L 646.710938 453.835938 L 647.980469 453.90625 L 649.246094 454.964844 L 650.515625 457.90625 L 651.785156 461.683594 L 653.050781 464.832031 L 654.320312 467.0625 L 655.589844 469.066406 L 656.855469 471.003906 L 658.125 472.359375 L 659.390625 473.332031 L 660.660156 475.109375 L 661.929688 478.445312 L 663.195312 482.59375 L 664.464844 486.140625 L 665.730469 488.628906 L 667 490.617188 L 668.269531 492.480469 L 669.535156 494.160156 L 670.804688 495.765625 L 672.070312 497.660156 L 673.339844 499.894531 L 674.609375 502 L 675.875 503.683594 L 677.144531 505.316406 L 678.410156 507.167969 L 679.679688 508.992188 L 680.949219 510.652344 L 682.214844 512.550781 L 683.484375 515.101562 L 684.753906 517.960938 L 686.019531 520.328125 L 687.289062 522.039062 L 688.554688 523.582031 L 689.824219 525.183594 L 691.09375 526.589844 L 692.359375 527.792969 L 693.628906 529.453125 L 694.894531 532.085938 L 696.164062 534.933594 L 697.433594 536.5 L 698.699219 536.339844 L 699.96875 535.699219 L 701.234375 536.332031 L 702.503906 538.546875 L 703.773438 541.03125 L 705.039062 542.6875 L 706.308594 543.882812 L 707.574219 545.582031 L 708.84375 547.738281 L 710.113281 549.179688 L 711.378906 549.429688 L 712.648438 549.671875 L 713.914062 551.289062 L 715.183594 554.167969 L 716.453125 556.984375 L 717.71875 558.703125 L 718.988281 559.441406 L 720.257812 559.734375 L 721.523438 559.9375 L 722.792969 560.375 L 724.058594 561.214844 L 725.328125 562.214844 L 726.597656 563.109375 L 727.863281 564.226562 L 729.132812 566.183594 L 730.398438 568.621094 L 731.667969 570.074219 L 732.9375 569.828125 L 734.203125 569.035156 L 735.472656 569.234375 L 736.738281 570.511719 L 738.007812 571.703125 L 739.277344 572.1875 L 740.542969 572.363281 L 741.8125 572.460938 L 743.078125 572.1875 L 744.347656 571.792969 L 745.617188 572.199219 L 746.882812 573.796875 L 748.152344 575.722656 L 749.421875 576.863281 L 750.6875 577.101562 L 751.957031 576.742188 L 753.222656 575.574219 L 754.492188 573.625 L 755.761719 572.191406 L 757.027344 573.054688 L 758.296875 576.484375 L 759.5625 580.554688 L 760.832031 583.011719 L 762.101562 583.15625 L 763.367188 581.71875 L 764.636719 579.800781 L 765.902344 578.1875 L 767.171875 577.355469 L 768.441406 577.625 L 769.707031 578.988281 L 770.976562 581.011719 L 772.242188 582.949219 L 773.511719 583.878906 L 774.78125 583.417969 L 776.046875 582.410156 L 777.316406 582.34375 L 778.585938 583.976562 L 779.851562 586.453125 L 781.121094 588.144531 L 782.386719 588.390625 L 783.65625 587.925781 L 784.925781 587.867188 L 786.191406 588.613281 L 787.460938 589.613281 L 788.726562 590.070312 L 789.996094 589.871094 L 791.265625 589.644531 L 792.53125 590.121094 L 793.800781 591.257812 L 795.066406 592.105469 L 796.335938 591.914062 L 797.605469 590.988281 L 798.871094 590.285156 L 800.140625 590.464844 L 801.40625 591.4375 L 802.675781 592.753906 L 803.945312 594.015625 L 805.210938 594.722656 L 806.480469 594.503906 L 807.746094 593.703125 L 809.015625 593.289062 L 810.285156 593.992188 L 811.550781 595.417969 L 812.820312 596.335938 L 814.089844 596.011719 L 815.355469 594.902344 L 816.625 594.078125 L 817.890625 594.101562 L 819.160156 594.503906 L 820.429688 594.691406 L 821.695312 595.0625 L 822.964844 596.628906 L 824.230469 599.449219 L 825.5 601.882812 L 826.769531 602.085938 L 828.035156 600.386719 L 829.304688 599.109375 L 830.570312 599.808594 L 831.839844 601.613281 L 833.109375 602.578125 L 834.375 602.113281 L 835.644531 601.28125 L 836.910156 600.773438 L 838.179688 600.117188 L 839.449219 598.941406 L 840.714844 597.957031 L 841.984375 598.171875 L 843.253906 599.476562 L 844.519531 600.6875 L 845.789062 601.101562 L 847.054688 601.105469 L 848.324219 601.386719 L 849.59375 602.019531 L 850.859375 602.464844 L 852.128906 602.472656 L 853.394531 602.628906 L 854.664062 603.554688 L 855.933594 604.941406 L 857.199219 605.679688 L 858.46875 605.203125 L 859.734375 604.5 L 861.003906 604.976562 L 862.273438 606.566406 L 863.539062 607.839844 L 864.808594 607.921875 L 866.074219 607.546875 L 867.34375 607.738281 L 868.613281 608.21875 L 869.878906 608.171875 L 871.148438 607.914062 L 872.414062 608.441406 L 873.683594 609.808594 L 874.953125 610.992188 L 876.21875 611.449219 L 877.488281 611.769531 L 878.757812 612.195312 L 880.023438 611.882812 L 881.292969 610.527344 L 882.558594 609.546875 L 883.828125 610.515625 L 885.097656 612.878906 L 886.363281 614.488281 L 887.632812 614.460938 L 888.898438 614.179688 L 890.167969 614.980469 L 891.4375 616.191406 L 892.703125 616.164062 L 893.972656 614.566406 L 895.238281 612.980469 L 896.507812 613.023438 L 897.777344 614.695312 L 899.042969 616.628906 L 900.3125 617.453125 L 901.578125 616.886719 L 902.847656 615.730469 L 904.117188 614.949219 L 905.382812 614.964844 L 906.652344 615.574219 L 907.921875 616.3125 L 909.1875 616.8125 L 910.457031 616.726562 L 911.722656 615.871094 L 912.992188 614.691406 L 914.261719 614.101562 L 915.527344 614.710938 L 916.796875 616.292969 L 918.0625 618.035156 L 919.332031 619.304688 L 920.601562 619.863281 L 921.867188 619.582031 L 923.136719 618.632812 L 924.402344 617.664062 L 925.671875 617.472656 L 926.941406 618.394531 L 928.207031 619.953125 L 929.476562 621.257812 L 930.742188 621.605469 L 932.011719 620.78125 L 933.28125 619.28125 L 934.546875 618.222656 L 935.816406 618.378906 L 937.085938 619.398438 L 938.351562 620.117188 L 939.621094 619.761719 L 940.886719 618.816406 L 942.15625 618.292969 L 943.425781 618.527344 L 944.691406 619.035156 L 945.960938 619.191406 L 947.226562 618.980469 L 948.496094 618.964844 L 949.765625 619.570312 L 951.03125 620.558594 L 952.300781 621.257812 L 953.566406 621.25 L 954.835938 620.953125 L 956.105469 621.070312 L 957.371094 621.738281 L 958.640625 622.664062 L 959.90625 623.71875 L 961.175781 624.945312 L 962.445312 625.886719 L 963.710938 625.617188 L 964.980469 624.070312 L 966.246094 622.644531 L 967.515625 622.683594 L 968.785156 623.933594 L 970.050781 625.035156 L 971.320312 625.292969 L 972.589844 625.136719 L 973.855469 624.964844 L 975.125 624.617188 L 976.390625 624.273438 L 977.660156 624.5625 L 978.929688 625.535156 L 980.195312 626.371094 L 981.464844 626.523438 L 982.730469 626.566406 L 984 627.03125 "/>
</g>
<path fill="none" stroke-width="1" stroke-linecap="butt" stroke-linejoin="miter" stroke="rgb(0%, 0%, 0%)" stroke-opacity="1" stroke-miterlimit="1.154701" d="M 33 681.5 L 33 686.5 "/>
<path fill="none" stroke-width="1" stroke-linecap="butt" stroke-linejoin="miter" stroke="rgb(0%, 0%, 0%)" stroke-opacity="1" stroke-miterlimit="1.154701" d="M 96.398438 681.5 L 96.398438 686.5 "/>
<path fill="none" stroke-width="1" stroke-linecap="butt" stroke-linejoin="miter" stroke="rgb(0%, 0%, 0%)" stroke-opacity="1" stroke-miterlimit="1.154701" d="M 159.800781 681.5 L 159.800781 686.5 "/>
<path fill="none" stroke-width="1" stroke-linecap="butt" stroke-linejoin="miter" stroke="rgb(0%, 0%, 0%)" stroke-opacity="1" stroke-miterlimit="1.154701" d="M 223.199219 681.5 L 223.199219 686.5 "/>
<path fill="none" stroke-width="1" stroke-linecap="butt" stroke-linejoin="miter" stroke="rgb(0%, 0%, 0%)" stroke-opacity="1" stroke-miterlimit="1.154701" d="M 286.601562 681.5 L 286.601562 686.5 "/>
<path fill="none" stroke-width="1" stroke-linecap="butt" stroke-linejoin="miter" stroke="rgb(0%, 0%, 0%)" stroke-opacity="1" stroke-miterlimit="1.154701" d="M 350 681.5 L 350 686.5 "/>
<path fill="none" stroke-width="1" stroke-linecap="butt" stroke-linejoin="miter" stroke="rgb(0%, 0%, 0%)" stroke-opacity="1" stroke-miterlimit="1.154701" d="M 413.398438 681.5 L 413.398438 686.5 "/>
<path fill="none" stroke-width="1" stroke-linecap="butt" stroke-linejoin="miter" stroke="rgb(0%, 0%, 0%)" stroke-opacity="1" stroke-miterlimit="1.154701" d="M 476.800781 681.5 L 476.800781 686.5 "/>
<path fill="none" stroke-width="1" stroke-linecap="butt" stroke-linejoin="miter" stroke="rgb(0%, 0%, 0%)" stroke-opacity="1" stroke-miterlimit="1.154701" d="M 540.199219 681.5 L 540.199219 686.5 "/>
<path fill="none" stroke-width="1" stroke-linecap="butt" stroke-linejoin="miter" stroke="rgb(0%, 0%, 0%)" stroke-opacity="1" stroke-miterlimit="1.154701" d="M 603.601562 681.5 L 603.601562 686.5 "/>
<path fill="none" stroke-width="1" stroke-linecap="butt" stroke-linejoin="miter" stroke="rgb(0%, 0%, 0%)" stroke-opacity="1" stroke-miterlimit="1.154701" d="M 667 681.5 L 667 686.5 "/>
<path fill="none" stroke-width="1" stroke-linecap="butt" stroke-linejoin="miter" stroke="rgb(0%, 0%, 0%)" stroke-opacity="1" stroke-miterlimit="1.154701" d="M 730.398438 681.5 L 730.398438 686.5 "/>
<path fill="none" stroke-width="1" stroke-linecap="butt" stroke-linejoin="miter" stroke="rgb(0%, 0%, 0%)" stroke-opacity="1" stroke-miterlimit="1.154701" d="M 793.800781 681.5 L 793.800781 686.5 "/>
<path fill="none" stroke-width="1" stroke-linecap="butt" stroke-linejoin="miter" stroke="rgb(0%, 0%, 0%)" stroke-opacity="1" stroke-miterlimit="1.154701" d="M 857.199219 681.5 L 857.199219 686.5 "/>
<path fill="none" stroke-width="1" stroke-linecap="butt" stroke-linejoin="miter" stroke="rgb(0%, 0%, 0%)" stroke-opacity="1" stroke-miterlimit="1.154701" d="M 920.601562 681.5 L 920.601562 686.5 "/>
<path fill="none" stroke-width="1" stroke-linecap="butt" stroke-linejoin="miter" stroke="rgb(0%, 0%, 0%)" stroke-opacity="1" stroke-miterlimit="1.154701" d="M 984 681.5 L 984 686.5 "/>
<path fill="none" stroke-width="1" stroke-linecap="butt" stroke-linejoin="miter" stroke="rgb(0%, 0%, 0%)" stroke-opacity="1" stroke-miterlimit="1.154701" d="M 32.5 539.203125 L 27.5 539.203125 "/>
<path fill="none" stroke-width="1" stroke-linecap="butt" stroke-linejoin="miter" stroke="rgb(0%, 0%, 0%)" stroke-opacity="1" stroke-miterlimit="1.154701" d="M 32.5 375.953125 L 27.5 375.953125 "/>
<path fill="none" stroke-width="1" stroke-linecap="butt" stroke-linejoin="miter" stroke="rgb(0%, 0%, 0%)" stroke-opacity="1" stroke-miterlimit="1.154701" d="M 32.5 212.707031 L 27.5 212.707031 "/>
<path fill="none" stroke-width="1" stroke-linecap="butt" stroke-linejoin="miter" stroke="rgb(0%, 0%, 0%)" stroke-opacity="1" stroke-miterlimit="1.154701" d="M 32.5 49.457031 L 27.5 49.457031 "/>
<path fill="none" stroke-width="1" stroke-linecap="butt" stroke-linejoin="miter" stroke="rgb(0%, 0%, 0%)" stroke-opacity="1" stroke-miterlimit="1.154701" d="M 32.5 681 L 984.5 681 "/>
<path fill="none" stroke-width="1" stroke-linecap="butt" stroke-linejoin="miter" stroke="rgb(0%, 0%, 0%)" stroke-opacity="1" stroke-miterlimit="1.154701" d="M 33 681.5 L 33 15.5 "/>
<path fill="none" stroke-width="1" stroke-linecap="butt" stroke-linejoin="miter" stroke="rgb(0%, 0%, 0%)" stroke-opacity="1" stroke-miterlimit="1.154701" d="M 32.5 16 L 984.5 16 "/>
<path fill="none" stroke-width="1" stroke-linecap="butt" stroke-linejoin="miter" stroke="rgb(0%, 0%, 0%)" stroke-opacity="1" stroke-miterlimit="1.154701" d="M 984 681.5 L 984 15.5 "/>
</svg>
