<?xml version="1.0" encoding="UTF-8"?>
<svg xmlns="http://www.w3.org/2000/svg" xmlns:xlink="http://www.w3.org/1999/xlink" width="1200" height="800" viewBox="0 0 1200 800">
<defs>
<g>
<g id="glyph-0-0-4ecb8ab5">
<path d="M 7.21875 -3.03125 C 7.21875 -3.03125 0.953125 -3.03125 0.953125 -3.03125 C 0.953125 -3.03125 0.953125 -3.96875 0.953125 -3.96875 C 0.953125 -3.96875 7.21875 -3.96875 7.21875 -3.96875 C 7.21875 -3.96875 7.21875 -3.03125 7.21875 -3.03125 Z M 7.21875 -3.03125 "/>
</g>
<g id="glyph-0-1-4ecb8ab5">
<path d="M 7.09375 -4.78125 C 7.09375 -1.515625 5.953125 0.203125 3.84375 0.203125 C 1.71875 0.203125 0.609375 -1.515625 0.609375 -4.859375 C 0.609375 -8.1875 1.703125 -9.921875 3.84375 -9.921875 C 6 -9.921875 7.09375 -8.21875 7.09375 -4.78125 Z M 5.84375 -4.890625 C 5.84375 -7.546875 5.1875 -8.828125 3.84375 -8.828125 C 2.515625 -8.828125 1.859375 -7.5625 1.859375 -4.84375 C 1.859375 -2.125 2.515625 -0.8125 3.828125 -0.8125 C 5.1875 -0.8125 5.84375 -2.078125 5.84375 -4.890625 Z M 5.84375 -4.890625 "/>
</g>
<g id="glyph-0-2-4ecb8ab5">
<path d="M 2.671875 0 C 2.671875 0 1.21875 0 1.21875 0 C 1.21875 0 1.21875 -1.453125 1.21875 -1.453125 C 1.21875 -1.453125 2.671875 -1.453125 2.671875 -1.453125 C 2.671875 -1.453125 2.671875 0 2.671875 0 Z M 2.671875 0 "/>
</g>
<g id="glyph-0-3-4ecb8ab5">
<path d="M 7.078125 -2.890625 C 7.078125 -1.015625 5.765625 0.203125 3.71875 0.203125 C 1.6875 0.203125 0.609375 -0.78125 0.453125 -3 C 0.453125 -3 1.6875 -3 1.6875 -3 C 1.765625 -1.546875 2.421875 -0.875 3.765625 -0.875 C 5.046875 -0.875 5.828125 -1.625 5.828125 -2.875 C 5.828125 -3.96875 5.125 -4.625 3.765625 -4.625 C 3.765625 -4.625 3.09375 -4.625 3.09375 -4.625 C 3.09375 -4.625 3.09375 -5.65625 3.09375 -5.65625 C 5.0625 -5.65625 5.53125 -6.09375 5.53125 -7.15625 C 5.53125 -8.203125 4.875 -8.84375 3.78125 -8.84375 C 2.515625 -8.84375 1.921875 -8.1875 1.890625 -6.71875 C 1.890625 -6.71875 0.65625 -6.71875 0.65625 -6.71875 C 0.703125 -8.828125 1.765625 -9.921875 3.765625 -9.921875 C 5.65625 -9.921875 6.796875 -8.90625 6.796875 -7.203125 C 6.796875 -6.203125 6.328125 -5.5625 5.40625 -5.1875 C 6.59375 -4.78125 7.078125 -4.09375 7.078125 -2.890625 Z M 7.078125 -2.890625 "/>
</g>
<g id="glyph-0-4-4ecb8ab5">
<path d="M 7.1875 -3.078125 C 7.1875 -1.140625 5.828125 0.203125 3.9375 0.203125 C 1.671875 0.203125 0.609375 -1.421875 0.609375 -4.515625 C 0.609375 -7.984375 1.84375 -9.921875 4.15625 -9.921875 C 5.671875 -9.921875 6.734375 -8.953125 6.96875 -7.34375 C 6.96875 -7.34375 5.734375 -7.34375 5.734375 -7.34375 C 5.546875 -8.28125 4.9375 -8.828125 4.078125 -8.828125 C 2.65625 -8.828125 1.875 -7.484375 1.859375 -5.0625 C 2.390625 -5.796875 3.15625 -6.171875 4.140625 -6.171875 C 5.921875 -6.171875 7.1875 -4.921875 7.1875 -3.078125 Z M 5.921875 -2.984375 C 5.921875 -4.3125 5.1875 -5.078125 3.984375 -5.078125 C 2.765625 -5.078125 1.9375 -4.28125 1.9375 -3.046875 C 1.9375 -1.78125 2.796875 -0.875 3.953125 -0.875 C 5.078125 -0.875 5.921875 -1.734375 5.921875 -2.984375 Z M 5.921875 -2.984375 "/>
</g>
<g id="glyph-0-5-4ecb8ab5">
<path d="M 7.125 -5.1875 C 7.125 -1.765625 5.875 0.203125 3.5625 0.203125 C 2.046875 0.203125 0.984375 -0.75 0.734375 -2.375 C 0.734375 -2.375 1.96875 -2.375 1.96875 -2.375 C 2.171875 -1.421875 2.765625 -0.875 3.640625 -0.875 C 5.046875 -0.875 5.84375 -2.21875 5.859375 -4.640625 C 5.203125 -3.875 4.515625 -3.546875 3.578125 -3.546875 C 1.796875 -3.546875 0.53125 -4.78125 0.53125 -6.640625 C 0.53125 -8.578125 1.890625 -9.921875 3.78125 -9.921875 C 6.046875 -9.921875 7.125 -8.296875 7.125 -5.1875 Z M 5.78125 -6.65625 C 5.78125 -7.953125 4.90625 -8.84375 3.765625 -8.84375 C 2.625 -8.84375 1.796875 -8 1.796875 -6.734375 C 1.796875 -5.40625 2.53125 -4.640625 3.71875 -4.640625 C 4.921875 -4.640625 5.78125 -5.453125 5.78125 -6.65625 Z M 5.78125 -6.65625 "/>
</g>
<g id="glyph-0-6-4ecb8ab5">
<path d="M 4.859375 0 C 4.859375 0 3.625 0 3.625 0 C 3.625 0 3.625 -7.0625 3.625 -7.0625 C 3.625 -7.0625 1.421875 -7.0625 1.421875 -7.0625 C 1.421875 -7.0625 1.421875 -7.953125 1.421875 -7.953125 C 3.328125 -8.1875 3.609375 -8.40625 4.046875 -9.921875 C 4.046875 -9.921875 4.859375 -9.921875 4.859375 -9.921875 C 4.859375 -9.921875 4.859375 0 4.859375 0 Z M 4.859375 0 "/>
</g>
<g id="glyph-1-0-4ecb8ab5">
<path d="M 7.09375 -4.78125 C 7.09375 -1.515625 5.953125 0.203125 3.84375 0.203125 C 1.71875 0.203125 0.609375 -1.515625 0.609375 -4.859375 C 0.609375 -8.1875 1.703125 -9.921875 3.84375 -9.921875 C 6 -9.921875 7.09375 -8.21875 7.09375 -4.78125 Z M 5.84375 -4.890625 C 5.84375 -7.546875 5.1875 -8.828125 3.84375 -8.828125 C 2.515625 -8.828125 1.859375 -7.5625 1.859375 -4.84375 C 1.859375 -2.125 2.515625 -0.8125 3.828125 -0.8125 C 5.1875 -0.8125 5.84375 -2.078125 5.84375 -4.890625 Z M 5.84375 -4.890625 "/>
</g>
<g id="glyph-1-1-4ecb8ab5">
<path d="M 4.859375 0 C 4.859375 0 3.625 0 3.625 0 C 3.625 0 3.625 -7.0625 3.625 -7.0625 C 3.625 -7.0625 1.421875 -7.0625 1.421875 -7.0625 C 1.421875 -7.0625 1.421875 -7.953125 1.421875 -7.953125 C 3.328125 -8.1875 3.609375 -8.40625 4.046875 -9.921875 C 4.046875 -9.921875 4.859375 -9.921875 4.859375 -9.921875 C 4.859375 -9.921875 4.859375 0 4.859375 0 Z M 4.859375 0 "/>
</g>
<g id="glyph-1-2-4ecb8ab5">
<path d="M 7.15625 -7.015625 C 7.15625 -5.796875 6.4375 -4.765625 5.046875 -4.015625 C 5.046875 -4.015625 3.65625 -3.265625 3.65625 -3.265625 C 2.4375 -2.546875 1.984375 -2.03125 1.859375 -1.21875 C 1.859375 -1.21875 7.078125 -1.21875 7.078125 -1.21875 C 7.078125 -1.21875 7.078125 0 7.078125 0 C 7.078125 0 0.46875 0 0.46875 0 C 0.59375 -2.1875 1.1875 -3.125 3.265625 -4.296875 C 3.265625 -4.296875 4.546875 -5.03125 4.546875 -5.03125 C 5.4375 -5.53125 5.890625 -6.203125 5.890625 -6.984375 C 5.890625 -8.046875 5.046875 -8.84375 3.9375 -8.84375 C 2.71875 -8.84375 2.03125 -8.140625 1.9375 -6.484375 C 1.9375 -6.484375 0.703125 -6.484375 0.703125 -6.484375 C 0.765625 -8.890625 1.953125 -9.921875 3.96875 -9.921875 C 5.859375 -9.921875 7.15625 -8.6875 7.15625 -7.015625 Z M 7.15625 -7.015625 "/>
</g>
</g>
</defs>
<rect x="-120" y="-80" width="1440" height="960" fill="rgb(100%, 100%, 100%)" fill-opacity="1"/>
<path fill-rule="nonzero" fill="rgb(100%, 100%, 100%)" fill-opacity="1" d="M 41 761 L 1184 761 L 1184 16 L 41 16 Z M 41 761 "/>
<path fill="none" stroke-width="1" stroke-linecap="butt" stroke-linejoin="miter" stroke="rgb(0%, 0%, 0%)" stroke-opacity="0.12" stroke-miterlimit="1.154701" d="M 231.5 761 L 231.5 16 "/>
<path fill="none" stroke-width="1" stroke-linecap="butt" stroke-linejoin="miter" stroke="rgb(0%, 0%, 0%)" stroke-opacity="0.12" stroke-miterlimit="1.154701" d="M 439.316406 761 L 439.316406 16 "/>
<path fill="none" stroke-width="1" stroke-linecap="butt" stroke-linejoin="miter" stroke="rgb(0%, 0%, 0%)" stroke-opacity="0.12" stroke-miterlimit="1.154701" d="M 647.136719 761 L 647.136719 16 "/>
<path fill="none" stroke-width="1" stroke-linecap="butt" stroke-linejoin="miter" stroke="rgb(0%, 0%, 0%)" stroke-opacity="0.12" stroke-miterlimit="1.154701" d="M 854.953125 761 L 854.953125 16 "/>
<path fill="none" stroke-width="1" stroke-linecap="butt" stroke-linejoin="miter" stroke="rgb(0%, 0%, 0%)" stroke-opacity="0.12" stroke-miterlimit="1.154701" d="M 1062.773438 761 L 1062.773438 16 "/>
<path fill="none" stroke-width="1" stroke-linecap="butt" stroke-linejoin="miter" stroke="rgb(0%, 0%, 0%)" stroke-opacity="0.12" stroke-miterlimit="1.154701" d="M 41 736.164062 L 1184 736.164062 "/>
<path fill="none" stroke-width="1" stroke-linecap="butt" stroke-linejoin="miter" stroke="rgb(0%, 0%, 0%)" stroke-opacity="0.12" stroke-miterlimit="1.154701" d="M 41 544.722656 L 1184 544.722656 "/>
<path fill="none" stroke-width="1" stroke-linecap="butt" stroke-linejoin="miter" stroke="rgb(0%, 0%, 0%)" stroke-opacity="0.12" stroke-miterlimit="1.154701" d="M 41 353.277344 L 1184 353.277344 "/>
<path fill="none" stroke-width="1" stroke-linecap="butt" stroke-linejoin="miter" stroke="rgb(0%, 0%, 0%)" stroke-opacity="0.12" stroke-miterlimit="1.154701" d="M 41 161.835938 L 1184 161.835938 "/>
<g fill="rgb(0%, 0%, 0%)" fill-opacity="1">
<use xlink:href="#glyph-0-0-4ecb8ab5" x="217.682005" y="782.258001"/>
</g>
<g fill="rgb(0%, 0%, 0%)" fill-opacity="1">
<use xlink:href="#glyph-0-1-4ecb8ab5" x="225.858005" y="782.258001"/>
</g>
<g fill="rgb(0%, 0%, 0%)" fill-opacity="1">
<use xlink:href="#glyph-0-2-4ecb8ab5" x="233.642005" y="782.258001"/>
</g>
<g fill="rgb(0%, 0%, 0%)" fill-opacity="1">
<use xlink:href="#glyph-0-3-4ecb8ab5" x="237.534005" y="782.258001"/>
</g>
<g fill="rgb(0%, 0%, 0%)" fill-opacity="1">
<use xlink:href="#glyph-0-1-4ecb8ab5" x="429.588187" y="782.258001"/>
</g>
<g fill="rgb(0%, 0%, 0%)" fill-opacity="1">
<use xlink:href="#glyph-0-2-4ecb8ab5" x="437.372187" y="782.258001"/>
</g>
<g fill="rgb(0%, 0%, 0%)" fill-opacity="1">
<use xlink:href="#glyph-0-1-4ecb8ab5" x="441.264187" y="782.258001"/>
</g>
<g fill="rgb(0%, 0%, 0%)" fill-opacity="1">
<use xlink:href="#glyph-0-1-4ecb8ab5" x="637.406368" y="782.258001"/>
</g>
<g fill="rgb(0%, 0%, 0%)" fill-opacity="1">
<use xlink:href="#glyph-0-2-4ecb8ab5" x="645.190369" y="782.258001"/>
</g>
<g fill="rgb(0%, 0%, 0%)" fill-opacity="1">
<use xlink:href="#glyph-0-3-4ecb8ab5" x="649.082368" y="782.258001"/>
</g>
<g fill="rgb(0%, 0%, 0%)" fill-opacity="1">
<use xlink:href="#glyph-0-1-4ecb8ab5" x="845.22455" y="782.258001"/>
</g>
<g fill="rgb(0%, 0%, 0%)" fill-opacity="1">
<use xlink:href="#glyph-0-2-4ecb8ab5" x="853.00855" y="782.258001"/>
</g>
<g fill="rgb(0%, 0%, 0%)" fill-opacity="1">
<use xlink:href="#glyph-0-4-4ecb8ab5" x="856.90055" y="782.258001"/>
</g>
<g fill="rgb(0%, 0%, 0%)" fill-opacity="1">
<use xlink:href="#glyph-0-1-4ecb8ab5" x="1053.042731" y="782.258001"/>
</g>
<g fill="rgb(0%, 0%, 0%)" fill-opacity="1">
<use xlink:href="#glyph-0-2-4ecb8ab5" x="1060.826731" y="782.258001"/>
</g>
<g fill="rgb(0%, 0%, 0%)" fill-opacity="1">
<use xlink:href="#glyph-0-5-4ecb8ab5" x="1064.718731" y="782.258001"/>
</g>
<g fill="rgb(0%, 0%, 0%)" fill-opacity="1">
<use xlink:href="#glyph-0-0-4ecb8ab5" x="15.040001" y="741.267003"/>
</g>
<g fill="rgb(0%, 0%, 0%)" fill-opacity="1">
<use xlink:href="#glyph-0-6-4ecb8ab5" x="23.216001" y="741.267003"/>
</g>
<g fill="rgb(0%, 0%, 0%)" fill-opacity="1">
<use xlink:href="#glyph-1-0-4ecb8ab5" x="23.216001" y="549.82377"/>
</g>
<g fill="rgb(0%, 0%, 0%)" fill-opacity="1">
<use xlink:href="#glyph-1-1-4ecb8ab5" x="23.216001" y="358.380537"/>
</g>
<g fill="rgb(0%, 0%, 0%)" fill-opacity="1">
<use xlink:href="#glyph-1-2-4ecb8ab5" x="23.216001" y="166.937304"/>
</g>
<path fill="none" stroke-width="3" stroke-linecap="butt" stroke-linejoin="miter" stroke="rgb(0%, 44.705883%, 69.803923%)" stroke-opacity="1" stroke-miterlimit="2" d="M 92.953125 593.984375 L 94.339844 591.371094 L 95.726562 588.996094 L 97.109375 587.886719 L 98.496094 575.953125 L 99.882812 568.152344 L 101.265625 568.546875 L 102.652344 578.152344 L 104.039062 579.515625 L 105.421875 578.488281 L 106.808594 574.378906 L 108.195312 575.648438 L 109.578125 572.613281 L 110.964844 575.546875 L 112.351562 576.636719 L 113.738281 584.195312 L 115.121094 594.28125 L 116.507812 595.832031 L 117.894531 589.535156 L 119.277344 592.878906 L 120.664062 595.769531 L 122.050781 592.195312 L 123.433594 583.808594 L 124.820312 588.660156 L 126.207031 591.488281 L 127.589844 587.464844 L 128.976562 583.78125 L 130.363281 580.839844 L 131.746094 580.359375 L 133.132812 583.339844 L 134.519531 592.464844 L 135.902344 600.394531 L 137.289062 609.757812 L 138.675781 620.464844 L 140.058594 617.601562 L 141.445312 612.945312 L 142.832031 615.847656 L 144.214844 618.300781 L 145.601562 620.8125 L 146.988281 618.492188 L 148.371094 618.378906 L 149.757812 620.804688 L 151.144531 621.4375 L 152.527344 615.328125 L 153.914062 607.167969 L 155.300781 608.09375 L 156.683594 608.710938 L 158.070312 607.761719 L 159.457031 610.722656 L 160.84375 613.925781 L 162.226562 603.792969 L 163.613281 600.921875 L 165 602.1875 L 166.382812 602.210938 L 167.769531 602.765625 L 169.15625 610.417969 L 170.539062 610.890625 L 171.925781 607.175781 L 173.3125 606.628906 L 174.695312 594.242188 L 176.082031 587.445312 L 177.46875 588.34375 L 178.851562 598.050781 L 180.238281 588.367188 L 181.625 590.414062 L 183.007812 586.871094 L 184.394531 587.480469 L 185.78125 591.125 L 187.164062 575.210938 L 188.550781 579.726562 L 189.9375 571.214844 L 191.320312 571.085938 L 192.707031 583.71875 L 194.09375 592.222656 L 195.476562 595.585938 L 196.863281 594.628906 L 198.25 592.011719 L 199.632812 593.5625 L 201.019531 589.804688 L 202.40625 591.992188 L 203.789062 594.695312 L 205.175781 600.894531 L 206.5625 595.199219 L 207.949219 594.402344 L 209.332031 590.625 L 210.71875 590.355469 L 212.105469 595.910156 L 213.488281 601.191406 L 214.875 598.378906 L 216.261719 597.007812 L 217.644531 598.191406 L 219.03125 602.492188 L 220.417969 603.609375 L 221.800781 603.265625 L 223.1875 598.539062 L 224.574219 601.902344 L 225.957031 605.253906 L 227.34375 600.75 L 228.730469 605.148438 L 230.113281 598.871094 L 231.5 589.546875 L 232.886719 588.25 L 234.269531 587.789062 L 235.65625 593.957031 L 237.042969 602.566406 L 238.425781 608.445312 L 239.8125 603.324219 L 241.199219 591.644531 L 242.582031 589.09375 L 243.96875 588.09375 L 245.355469 585.011719 L 246.738281 587.898438 L 248.125 595.464844 L 249.511719 597.605469 L 250.894531 600.941406 L 252.28125 606.363281 L 253.667969 618.234375 L 255.054688 607.375 L 256.4375 606.027344 L 257.824219 610.566406 L 259.210938 616.5625 L 260.59375 619.441406 L 261.980469 624.429688 L 263.367188 612.324219 L 264.75 614.582031 L 266.136719 615.285156 L 267.523438 613.546875 L 268.90625 615.984375 L 270.292969 616.410156 L 271.679688 613.714844 L 273.0625 610.3125 L 274.449219 619.460938 L 275.835938 621.011719 L 277.21875 624.664062 L 278.605469 631.117188 L 279.992188 633.59375 L 281.375 635.546875 L 282.761719 636.652344 L 284.148438 638.554688 L 285.53125 638.226562 L 286.917969 634.253906 L 288.304688 633.195312 L 289.6875 634.785156 L 291.074219 632.726562 L 292.460938 638.742188 L 293.84375 637.230469 L 295.230469 627.960938 L 296.617188 633.976562 L 298 636.425781 L 299.386719 637.621094 L 300.773438 634.519531 L 302.15625 634.6875 L 303.542969 632.949219 L 304.929688 628.554688 L 306.316406 625.375 L 307.699219 624.46875 L 309.085938 626.417969 L 310.472656 639.273438 L 311.855469 635.332031 L 313.242188 627.644531 L 314.628906 622.796875 L 316.011719 623.683594 L 317.398438 622.769531 L 318.785156 617.707031 L 320.167969 617.710938 L 321.554688 625.625 L 322.941406 630.285156 L 324.324219 633.363281 L 325.710938 630.636719 L 327.097656 617.960938 L 328.480469 618.414062 L 329.867188 623.503906 L 331.253906 631.054688 L 332.636719 637.882812 L 334.023438 635.589844 L 335.410156 625.195312 L 336.792969 614.691406 L 338.179688 613.492188 L 339.566406 611.632812 L 340.949219 610.507812 L 342.335938 608.945312 L 343.722656 608.699219 L 345.105469 619.703125 L 346.492188 627.671875 L 347.878906 634.59375 L 349.261719 639.746094 L 350.648438 644.722656 L 352.035156 652.917969 L 353.421875 658.328125 L 354.804688 661.527344 L 356.191406 663.542969 L 357.578125 660.347656 L 358.960938 656.855469 L 360.347656 661.203125 L 361.734375 661.496094 L 363.117188 666.042969 L 364.503906 665.550781 L 365.890625 666.835938 L 367.273438 666.089844 L 368.660156 664.660156 L 370.046875 667.355469 L 371.429688 667.683594 L 372.816406 671.355469 L 374.203125 678.351562 L 375.585938 679.179688 L 376.972656 675.101562 L 378.359375 675.257812 L 379.742188 676.113281 L 381.128906 681.191406 L 382.515625 683.015625 L 383.898438 685.777344 L 385.285156 693.386719 L 386.671875 690.765625 L 388.054688 688.21875 L 389.441406 679.21875 L 390.828125 679.828125 L 392.210938 679.632812 L 393.597656 681.34375 L 394.984375 683.4375 L 396.367188 682.082031 L 397.753906 682.996094 L 399.140625 685.074219 L 400.527344 690.640625 L 401.910156 691.53125 L 403.296875 688.742188 L 404.683594 688.128906 L 406.066406 690.886719 L 407.453125 692.324219 L 408.839844 684.066406 L 410.222656 692.140625 L 411.609375 694.484375 L 412.996094 697.484375 L 414.378906 693.445312 L 415.765625 692.113281 L 417.152344 692.851562 L 418.535156 695.855469 L 419.921875 700.640625 L 421.308594 699.03125 L 422.691406 695.414062 L 424.078125 690.777344 L 425.464844 692.476562 L 426.847656 686.820312 L 428.234375 692.515625 L 429.621094 692.308594 L 431.003906 695.375 L 432.390625 698.117188 L 433.777344 694.140625 L 435.160156 685.710938 L 436.546875 684.386719 L 437.933594 675.558594 L 439.316406 672.429688 L 440.703125 662.8125 L 442.089844 661.492188 L 443.472656 659.125 L 444.859375 656.636719 L 446.246094 662.246094 L 447.632812 665.285156 L 449.015625 665.375 L 450.402344 663.351562 L 451.789062 669.398438 L 453.171875 675.542969 L 454.558594 671.316406 L 455.945312 674.734375 L 457.328125 675.585938 L 458.714844 675.953125 L 460.101562 679.09375 L 461.484375 681.148438 L 462.871094 679.589844 L 464.257812 678.066406 L 465.640625 681.035156 L 467.027344 684.34375 L 468.414062 690.753906 L 469.796875 688.824219 L 471.183594 676.742188 L 472.570312 676.230469 L 473.953125 675.21875 L 475.339844 678.925781 L 476.726562 682.007812 L 478.109375 674.832031 L 479.496094 665.015625 L 480.882812 651.507812 L 482.265625 649.613281 L 483.652344 652.992188 L 485.039062 647.539062 L 486.421875 653.414062 L 487.808594 655.253906 L 489.195312 657.460938 L 490.578125 658.371094 L 491.964844 658.976562 L 493.351562 656.753906 L 494.738281 657.5625 L 496.121094 647.96875 L 497.507812 642.960938 L 498.894531 631.496094 L 500.277344 622.242188 L 501.664062 632.707031 L 503.050781 640.613281 L 504.433594 640.5625 L 505.820312 629.671875 L 507.207031 616.40625 L 508.589844 613.148438 L 509.976562 605.808594 L 511.363281 596.042969 L 512.746094 588.546875 L 514.132812 572.832031 L 515.519531 564.089844 L 516.902344 553.695312 L 518.289062 542.066406 L 519.675781 529.746094 L 521.058594 514.507812 L 522.445312 510.796875 L 523.832031 503.132812 L 525.214844 497.347656 L 526.601562 481.503906 L 527.988281 463.539062 L 529.371094 444.765625 L 530.757812 431.808594 L 532.144531 416.667969 L 533.527344 412.980469 L 534.914062 407.773438 L 536.300781 403.371094 L 537.683594 395.523438 L 539.070312 387.3125 L 540.457031 394.183594 L 541.84375 392.625 L 543.226562 388.972656 L 544.613281 386.253906 L 546 385.382812 L 547.382812 380.117188 L 548.769531 371.464844 L 550.15625 362.773438 L 551.539062 351.53125 L 552.925781 326.488281 L 554.3125 313.335938 L 555.695312 304 L 557.082031 292.035156 L 558.46875 278.15625 L 559.851562 262.734375 L 561.238281 255.722656 L 562.625 242.304688 L 564.007812 231.445312 L 565.394531 213.222656 L 566.78125 195.152344 L 568.164062 182.3125 L 569.550781 167.898438 L 570.9375 154.972656 L 572.320312 136.277344 L 573.707031 114.886719 L 575.09375 103.378906 L 576.476562 93.015625 L 577.863281 90.078125 L 579.25 82.230469 L 580.632812 80.09375 L 582.019531 75.308594 L 583.40625 70.011719 L 584.789062 61.644531 L 586.175781 54.957031 L 587.5625 55.828125 L 588.945312 62.546875 L 590.332031 66.746094 L 591.71875 68.328125 L 593.105469 66.152344 L 594.488281 63.394531 L 595.875 62.5 L 597.261719 60.210938 L 598.644531 59.0625 L 600.03125 56.0625 L 601.417969 59.921875 L 602.800781 70.109375 L 604.1875 74.609375 L 605.574219 80.890625 L 606.957031 84.441406 L 608.34375 97.085938 L 609.730469 105.015625 L 611.113281 112.394531 L 612.5 108.496094 L 613.886719 117.957031 L 615.269531 136.441406 L 616.65625 142.984375 L 618.042969 147.691406 L 619.425781 148.355469 L 620.8125 149.195312 L 622.199219 155.722656 L 623.582031 157.171875 L 624.96875 168.820312 L 626.355469 161.714844 L 627.738281 164.988281 L 629.125 170.554688 L 630.511719 178.386719 L 631.894531 176.09375 L 633.28125 178.648438 L 634.667969 182.136719 L 636.054688 190.746094 L 637.4375 197.730469 L 638.824219 200.320312 L 640.210938 204.417969 L 641.59375 211.765625 L 642.980469 215.324219 L 644.367188 221.105469 L 645.75 225.414062 L 647.136719 233.980469 L 648.523438 240.898438 L 649.90625 249.902344 L 651.292969 256.75 L 652.679688 256.34375 L 654.0625 256.054688 L 655.449219 260.316406 L 656.835938 266.671875 L 658.21875 272.148438 L 659.605469 272.613281 L 660.992188 274.253906 L 662.375 272.746094 L 663.761719 277.921875 L 665.148438 279.050781 L 666.53125 279.90625 L 667.917969 277.335938 L 669.304688 279.707031 L 670.6875 284.910156 L 672.074219 285.742188 L 673.460938 290.234375 L 674.84375 294.828125 L 676.230469 293.359375 L 677.617188 281.289062 L 679 282.285156 L 680.386719 288.023438 L 681.773438 296.410156 L 683.15625 295.15625 L 684.542969 287.445312 L 685.929688 285.15625 L 687.316406 284.070312 L 688.699219 281.78125 L 690.085938 278.242188 L 691.472656 283.535156 L 692.855469 285.574219 L 694.242188 291.265625 L 695.628906 288.683594 L 697.011719 280.035156 L 698.398438 276.597656 L 699.785156 278.546875 L 701.167969 279.910156 L 702.554688 279.035156 L 703.941406 273.863281 L 705.324219 274.003906 L 706.710938 282.078125 L 708.097656 292.902344 L 709.480469 304.207031 L 710.867188 304.679688 L 712.253906 307.121094 L 713.636719 303.121094 L 715.023438 304.820312 L 716.410156 301.691406 L 717.792969 301.828125 L 719.179688 296.480469 L 720.566406 295.140625 L 721.949219 295.691406 L 723.335938 291.691406 L 724.722656 295.148438 L 726.105469 288.863281 L 727.492188 287.996094 L 728.878906 289.171875 L 730.261719 287.683594 L 731.648438 290.609375 L 733.035156 286.308594 L 734.421875 289.421875 L 735.804688 285.277344 L 737.191406 280.601562 L 738.578125 288.65625 L 739.960938 290.476562 L 741.347656 296.90625 L 742.734375 295.53125 L 744.117188 293.671875 L 745.503906 297.476562 L 746.890625 298.042969 L 748.273438 303.25 L 749.660156 308.191406 L 751.046875 312.652344 L 752.429688 316.445312 L 753.816406 313.703125 L 755.203125 312.90625 L 756.585938 307.664062 L 757.972656 300.917969 L 759.359375 303.996094 L 760.742188 309.3125 L 762.128906 310.777344 L 763.515625 304.984375 L 764.898438 297.492188 L 766.285156 301.195312 L 767.671875 301.316406 L 769.054688 305.664062 L 770.441406 304.632812 L 771.828125 300.488281 L 773.210938 296.957031 L 774.597656 299.796875 L 775.984375 304.402344 L 777.367188 309.601562 L 778.753906 309.117188 L 780.140625 316.148438 L 781.523438 317.0625 L 782.910156 321.34375 L 784.296875 324.960938 L 785.683594 320.15625 L 787.066406 316.574219 L 788.453125 308.085938 L 789.839844 302.632812 L 791.222656 304.042969 L 792.609375 308 L 793.996094 307.714844 L 795.378906 310.226562 L 796.765625 311.808594 L 798.152344 306.027344 L 799.535156 304.308594 L 800.921875 302.058594 L 802.308594 304.398438 L 803.691406 311.535156 L 805.078125 315.730469 L 806.464844 319.621094 L 807.847656 329.609375 L 809.234375 329.046875 L 810.621094 320.214844 L 812.003906 328.320312 L 813.390625 345.3125 L 814.777344 345.703125 L 816.160156 351.476562 L 817.546875 360.027344 L 818.933594 370.839844 L 820.316406 375.574219 L 821.703125 383.765625 L 823.089844 384.375 L 824.472656 394.847656 L 825.859375 411.566406 L 827.246094 418.304688 L 828.632812 421.0625 L 830.015625 412.445312 L 831.402344 406.230469 L 832.789062 411.527344 L 834.171875 412.773438 L 835.558594 419.285156 L 836.945312 414.921875 L 838.328125 417.566406 L 839.714844 414.691406 L 841.101562 417.515625 L 842.484375 430.402344 L 843.871094 437.230469 L 845.257812 431.773438 L 846.640625 441.34375 L 848.027344 439.96875 L 849.414062 443.246094 L 850.796875 449.035156 L 852.183594 457.882812 L 853.570312 460.824219 L 854.953125 455.800781 L 856.339844 456.582031 L 857.726562 467.019531 L 859.109375 479.6875 L 860.496094 476.679688 L 861.882812 481.019531 L 863.265625 476.867188 L 864.652344 474.550781 L 866.039062 483.320312 L 867.421875 490.144531 L 868.808594 490.332031 L 870.195312 487.882812 L 871.578125 492.101562 L 872.964844 494.355469 L 874.351562 506.109375 L 875.734375 506.875 L 877.121094 506.488281 L 878.507812 509.246094 L 879.894531 515.59375 L 881.277344 513.207031 L 882.664062 511.113281 L 884.050781 520.101562 L 885.433594 523.019531 L 886.820312 517.4375 L 888.207031 514.871094 L 889.589844 513.957031 L 890.976562 519.910156 L 892.363281 525.566406 L 893.746094 529.492188 L 895.132812 522.355469 L 896.519531 523.855469 L 897.902344 525.292969 L 899.289062 535.53125 L 900.675781 544.144531 L 902.058594 552.6875 L 903.445312 554.695312 L 904.832031 549.957031 L 906.214844 549.34375 L 907.601562 547.304688 L 908.988281 553.59375 L 910.371094 555.117188 L 911.757812 557.71875 L 913.144531 561.265625 L 914.527344 566.953125 L 915.914062 570.300781 L 917.300781 570.941406 L 918.683594 573.617188 L 920.070312 576.746094 L 921.457031 585.246094 L 922.84375 583.445312 L 924.226562 583.867188 L 925.613281 588.839844 L 927 592.054688 L 928.382812 593 L 929.769531 588.851562 L 931.15625 583.988281 L 932.539062 584.699219 L 933.925781 593.003906 L 935.3125 595.746094 L 936.695312 602.742188 L 938.082031 593.304688 L 939.46875 595.894531 L 940.851562 599.21875 L 942.238281 602.8125 L 943.625 611.269531 L 945.007812 609.28125 L 946.394531 606.175781 L 947.78125 602.460938 L 949.164062 603.9375 L 950.550781 604.175781 L 951.9375 604.984375 L 953.320312 600.484375 L 954.707031 601.746094 L 956.09375 607.421875 L 957.476562 608.757812 L 958.863281 605.351562 L 960.25 600.835938 L 961.632812 595.023438 L 963.019531 596.414062 L 964.40625 591.769531 L 965.789062 589.582031 L 967.175781 585.542969 L 968.5625 585.074219 L 969.945312 591.378906 L 971.332031 588.996094 L 972.71875 589.851562 L 974.105469 589.496094 L 975.488281 586.3125 L 976.875 594.007812 L 978.261719 597.535156 L 979.644531 602.742188 L 981.03125 607.621094 L 982.417969 604.820312 L 983.800781 601.65625 L 985.1875 599.992188 L 986.574219 600.296875 L 987.957031 597.039062 L 989.34375 610.308594 L 990.730469 595.5625 L 992.113281 605.570312 L 993.5 612.480469 L 994.886719 620.90625 L 996.269531 619.847656 L 997.65625 614.410156 L 999.042969 609.351562 L 1000.425781 608.507812 L 1001.8125 609.605469 L 1003.199219 606.839844 L 1004.582031 603.355469 L 1005.96875 603.5 L 1007.355469 606.566406 L 1008.738281 602.101562 L 1010.125 595.121094 L 1011.511719 587.765625 L 1012.894531 584.160156 L 1014.28125 589.144531 L 1015.667969 593.6875 L 1017.050781 603.535156 L 1018.4375 610.574219 L 1019.824219 604.007812 L 1021.210938 603.777344 L 1022.59375 607.917969 L 1023.980469 618.5 L 1025.367188 615.277344 L 1026.75 617.496094 L 1028.136719 617.183594 L 1029.523438 608.425781 L 1030.90625 610.886719 L 1032.292969 607.25 L 1033.679688 612.292969 L 1035.0625 611.308594 L 1036.449219 611.835938 L 1037.835938 606.972656 L 1039.21875 606.304688 L 1040.605469 614.117188 L 1041.992188 611.886719 L 1043.375 617.550781 L 1044.761719 621.703125 L 1046.148438 618.1875 L 1047.53125 622.96875 L 1048.917969 619.890625 L 1050.304688 623.492188 L 1051.6875 626.554688 L 1053.074219 640.90625 L 1054.460938 643.71875 L 1055.84375 642.929688 L 1057.230469 642.59375 L 1058.617188 645.625 L 1060 647.097656 L 1061.386719 647.550781 L 1062.773438 640.757812 L 1064.15625 644.578125 L 1065.542969 640.367188 L 1066.929688 634.457031 L 1068.3125 633.183594 L 1069.699219 623.144531 L 1071.085938 619.773438 L 1072.472656 619.667969 L 1073.855469 621.683594 L 1075.242188 623.78125 L 1076.628906 629.105469 L 1078.011719 633.453125 L 1079.398438 638.28125 L 1080.785156 636.605469 L 1082.167969 634.101562 L 1083.554688 628.851562 L 1084.941406 633.140625 L 1086.324219 635.207031 L 1087.710938 637.0625 L 1089.097656 635.597656 L 1090.480469 637.820312 L 1091.867188 641.679688 L 1093.253906 647.289062 L 1094.636719 641.085938 L 1096.023438 650.535156 L 1097.410156 650.269531 L 1098.792969 645.125 L 1100.179688 638.984375 L 1101.566406 632.449219 L 1102.949219 635.9375 L 1104.335938 634.058594 L 1105.722656 631.914062 L 1107.105469 632.300781 L 1108.492188 639.476562 L 1109.878906 645.960938 L 1111.261719 650.789062 L 1112.648438 647.996094 L 1114.035156 652.0625 L 1115.421875 661.042969 L 1116.804688 667.917969 L 1118.191406 671.34375 L 1119.578125 661.605469 L 1120.960938 654.9375 L 1122.347656 656.902344 L 1123.734375 649.289062 L 1125.117188 646.554688 L 1126.503906 645.039062 L 1127.890625 644.203125 L 1129.273438 643.578125 L 1130.660156 638.398438 L 1132.046875 639.238281 "/>
<path fill="none" stroke-width="3" stroke-linecap="butt" stroke-linejoin="miter" stroke="rgb(90.196079%, 62.352943%, 0%)" stroke-opacity="1" stroke-miterlimit="2" d="M 92.953125 634.078125 L 94.339844 635.550781 L 95.726562 636.710938 L 97.109375 631.882812 L 98.496094 638.96875 L 99.882812 646.132812 L 101.265625 652.25 L 102.652344 656.882812 L 104.039062 658.992188 L 105.421875 667.378906 L 106.808594 667.726562 L 108.195312 671.136719 L 109.578125 681.097656 L 110.964844 683.714844 L 112.351562 684.265625 L 113.738281 684.386719 L 115.121094 679.835938 L 116.507812 671.128906 L 117.894531 673.539062 L 119.277344 676.558594 L 120.664062 666.523438 L 122.050781 655.144531 L 123.433594 651.355469 L 124.820312 650.324219 L 126.207031 656.824219 L 127.589844 659.878906 L 128.976562 669.925781 L 130.363281 670.375 L 131.746094 668.207031 L 133.132812 667.230469 L 134.519531 669.878906 L 135.902344 675.089844 L 137.289062 682.511719 L 138.675781 674.71875 L 140.058594 672.082031 L 141.445312 672.429688 L 142.832031 673.21875 L 144.214844 673.507812 L 145.601562 675.59375 L 146.988281 665.5 L 148.371094 665.609375 L 149.757812 657.257812 L 151.144531 653.894531 L 152.527344 660.632812 L 153.914062 660.210938 L 155.300781 657.835938 L 156.683594 655.207031 L 158.070312 653.03125 L 159.457031 655.585938 L 160.84375 653.757812 L 162.226562 649.148438 L 163.613281 654.078125 L 165 657.332031 L 166.382812 662.078125 L 167.769531 666.683594 L 169.15625 674.714844 L 170.539062 672.980469 L 171.925781 674.492188 L 173.3125 666.335938 L 174.695312 668.628906 L 176.082031 672.296875 L 177.46875 674.457031 L 178.851562 675.949219 L 180.238281 675.597656 L 181.625 684.632812 L 183.007812 686.34375 L 184.394531 683.511719 L 185.78125 678.457031 L 187.164062 678.847656 L 188.550781 682.386719 L 189.9375 687.699219 L 191.320312 687.921875 L 192.707031 689.574219 L 194.09375 691.234375 L 195.476562 691.683594 L 196.863281 689.632812 L 198.25 690.761719 L 199.632812 697.484375 L 201.019531 696.96875 L 202.40625 696.75 L 203.789062 694.359375 L 205.175781 694.445312 L 206.5625 690.636719 L 207.949219 676.945312 L 209.332031 670.414062 L 210.71875 668.40625 L 212.105469 667.941406 L 213.488281 667.734375 L 214.875 670.03125 L 216.261719 672.773438 L 217.644531 669.457031 L 219.03125 664.675781 L 220.417969 665.339844 L 221.800781 659.820312 L 223.1875 667.585938 L 224.574219 677.65625 L 225.957031 677.78125 L 227.34375 681.414062 L 228.730469 679.441406 L 230.113281 675.042969 L 231.5 665.023438 L 232.886719 664.351562 L 234.269531 669.617188 L 235.65625 678.335938 L 237.042969 677.226562 L 238.425781 670.019531 L 239.8125 659.820312 L 241.199219 651.324219 L 242.582031 648.773438 L 243.96875 653.296875 L 245.355469 669.824219 L 246.738281 677.546875 L 248.125 672.554688 L 249.511719 664.59375 L 250.894531 659.019531 L 252.28125 653.792969 L 253.667969 652.3125 L 255.054688 648.730469 L 256.4375 649.550781 L 257.824219 650.296875 L 259.210938 656.910156 L 260.59375 654.710938 L 261.980469 651.957031 L 263.367188 648.890625 L 264.75 649.179688 L 266.136719 642.894531 L 267.523438 642.941406 L 268.90625 652.355469 L 270.292969 659.460938 L 271.679688 648.808594 L 273.0625 643.191406 L 274.449219 648.742188 L 275.835938 649.765625 L 277.21875 659.828125 L 278.605469 657.011719 L 279.992188 653.046875 L 281.375 649.476562 L 282.761719 651.347656 L 284.148438 650.609375 L 285.53125 645.246094 L 286.917969 646 L 288.304688 644.476562 L 289.6875 645.511719 L 291.074219 646.957031 L 292.460938 649.316406 L 293.84375 646.527344 L 295.230469 649.066406 L 296.617188 659.046875 L 298 662.253906 L 299.386719 657.253906 L 300.773438 651.523438 L 302.15625 647.050781 L 303.542969 648.851562 L 304.929688 656.0625 L 306.316406 658.585938 L 307.699219 670.300781 L 309.085938 679.855469 L 310.472656 678.9375 L 311.855469 673.097656 L 313.242188 668.515625 L 314.628906 665.335938 L 316.011719 672.628906 L 317.398438 681.4375 L 318.785156 690.308594 L 320.167969 686.789062 L 321.554688 685.523438 L 322.941406 684.5625 L 324.324219 683.96875 L 325.710938 683.933594 L 327.097656 686.109375 L 328.480469 692.824219 L 329.867188 691.457031 L 331.253906 696.96875 L 332.636719 697.214844 L 334.023438 687.882812 L 335.410156 680.777344 L 336.792969 677.917969 L 338.179688 683.984375 L 339.566406 693.460938 L 340.949219 699.070312 L 342.335938 698.292969 L 343.722656 698.863281 L 345.105469 698.328125 L 346.492188 699.558594 L 347.878906 695.109375 L 349.261719 690.90625 L 350.648438 695.90625 L 352.035156 696.207031 L 353.421875 698.257812 L 354.804688 695.609375 L 356.191406 689.164062 L 357.578125 685.507812 L 358.960938 702.964844 L 360.347656 702.242188 L 361.734375 693.058594 L 363.117188 690.265625 L 364.503906 691.515625 L 365.890625 695.476562 L 367.273438 695.6875 L 368.660156 690.769531 L 370.046875 687.980469 L 371.429688 688.703125 L 372.816406 699.90625 L 374.203125 702.371094 L 375.585938 708.796875 L 376.972656 715.875 L 378.359375 715.023438 L 379.742188 714.800781 L 381.128906 716.535156 L 382.515625 714.722656 L 383.898438 712.84375 L 385.285156 720.066406 L 386.671875 713.582031 L 388.054688 714.070312 L 389.441406 716.25 L 390.828125 719.601562 L 392.210938 714.433594 L 393.597656 705.636719 L 394.984375 706.1875 L 396.367188 718.1875 L 397.753906 717.902344 L 399.140625 714.082031 L 400.527344 705.917969 L 401.910156 710.042969 L 403.296875 712.042969 L 404.683594 706.925781 L 406.066406 709.320312 L 407.453125 712.550781 L 408.839844 725.445312 L 410.222656 727.136719 L 411.609375 723.339844 L 412.996094 719.167969 L 414.378906 711.125 L 415.765625 717.664062 L 417.152344 719.394531 L 418.535156 714.363281 L 419.921875 723.121094 L 421.308594 725.679688 L 422.691406 726.472656 L 424.078125 713.832031 L 425.464844 694.269531 L 426.847656 682.234375 L 428.234375 683.984375 L 429.621094 690.691406 L 431.003906 696.667969 L 432.390625 695.230469 L 433.777344 692.015625 L 435.160156 687.847656 L 436.546875 686.980469 L 437.933594 679.183594 L 439.316406 670.722656 L 440.703125 668.277344 L 442.089844 666.023438 L 443.472656 667.808594 L 444.859375 667.917969 L 446.246094 668.675781 L 447.632812 674.511719 L 449.015625 681.050781 L 450.402344 679.800781 L 451.789062 682.003906 L 453.171875 688.949219 L 454.558594 696.230469 L 455.945312 697.875 L 457.328125 699.574219 L 458.714844 690.878906 L 460.101562 684.132812 L 461.484375 681.25 L 462.871094 678.117188 L 464.257812 669.089844 L 465.640625 670.011719 L 467.027344 674.507812 L 468.414062 677.273438 L 469.796875 668.003906 L 471.183594 658.800781 L 472.570312 656.234375 L 473.953125 645.757812 L 475.339844 633.054688 L 476.726562 619.253906 L 478.109375 619.191406 L 479.496094 623.828125 L 480.882812 617.296875 L 482.265625 606.921875 L 483.652344 610.953125 L 485.039062 612.476562 L 486.421875 620.558594 L 487.808594 630.160156 L 489.195312 637.726562 L 490.578125 644.023438 L 491.964844 649.910156 L 493.351562 641.304688 L 494.738281 638.335938 L 496.121094 629.660156 L 497.507812 623.820312 L 498.894531 620.988281 L 500.277344 608.9375 L 501.664062 603.042969 L 503.050781 594.207031 L 504.433594 597.277344 L 505.820312 596.359375 L 507.207031 584.519531 L 508.589844 574.320312 L 509.976562 562.445312 L 511.363281 545.003906 L 512.746094 532.664062 L 514.132812 520.636719 L 515.519531 511.304688 L 516.902344 498.394531 L 518.289062 492.730469 L 519.675781 479.109375 L 521.058594 466.851562 L 522.445312 458.789062 L 523.832031 451.320312 L 525.214844 444.828125 L 526.601562 429.957031 L 527.988281 410.992188 L 529.371094 396.527344 L 530.757812 394.199219 L 532.144531 392.992188 L 533.527344 379.230469 L 534.914062 365.136719 L 536.300781 365.773438 L 537.683594 373.53125 L 539.070312 368.375 L 540.457031 360.605469 L 541.84375 346.167969 L 543.226562 330.429688 L 544.613281 321.804688 L 546 325.40625 L 547.382812 336.351562 L 548.769531 327.667969 L 550.15625 325.554688 L 551.539062 308.945312 L 552.925781 289.464844 L 554.3125 268.644531 L 555.695312 258.257812 L 557.082031 244.246094 L 558.46875 217.496094 L 559.851562 198.011719 L 561.238281 185.035156 L 562.625 163.628906 L 564.007812 156.269531 L 565.394531 142.902344 L 566.78125 137.859375 L 568.164062 128.855469 L 569.550781 127.132812 L 570.9375 118.378906 L 572.320312 113.746094 L 573.707031 101.953125 L 575.09375 94.867188 L 576.476562 85.605469 L 577.863281 79.238281 L 579.25 70.355469 L 580.632812 68.59375 L 582.019531 67.667969 L 583.40625 67.5625 L 584.789062 66.15625 L 586.175781 53.761719 L 587.5625 58.339844 L 588.945312 56.613281 L 590.332031 57.25 L 591.71875 52.359375 L 593.105469 50.59375 L 594.488281 52.164062 L 595.875 49.863281 L 597.261719 54.996094 L 598.644531 52.34375 L 600.03125 57.941406 L 601.417969 64.226562 L 602.800781 72.601562 L 604.1875 74.0625 L 605.574219 77.460938 L 606.957031 84.367188 L 608.34375 92.941406 L 609.730469 97.617188 L 611.113281 100.402344 L 612.5 110.804688 L 613.886719 115.054688 L 615.269531 118.601562 L 616.65625 120.1875 L 618.042969 123.996094 L 619.425781 130.902344 L 620.8125 135.5 L 622.199219 134.28125 L 623.582031 135.183594 L 624.96875 138.6875 L 626.355469 142.339844 L 627.738281 145.046875 L 629.125 146.617188 L 630.511719 161.074219 L 631.894531 169.113281 L 633.28125 174.292969 L 634.667969 178.890625 L 636.054688 177.257812 L 637.4375 169.773438 L 638.824219 167.09375 L 640.210938 181.3125 L 641.59375 191.386719 L 642.980469 190.863281 L 644.367188 199.230469 L 645.75 198.023438 L 647.136719 192.289062 L 648.523438 198.929688 L 649.90625 207.320312 L 651.292969 219.351562 L 652.679688 219.480469 L 654.0625 220.949219 L 655.449219 216.058594 L 656.835938 216.71875 L 658.21875 220.269531 L 659.605469 221.421875 L 660.992188 226.304688 L 662.375 239.066406 L 663.761719 240.699219 L 665.148438 249.886719 L 666.53125 246.78125 L 667.917969 244.972656 L 669.304688 247.46875 L 670.6875 248.523438 L 672.074219 250.832031 L 673.460938 250.132812 L 674.84375 253.042969 L 676.230469 257.199219 L 677.617188 264.789062 L 679 266.796875 L 680.386719 266.003906 L 681.773438 267.5 L 683.15625 270.421875 L 684.542969 276.140625 L 685.929688 290.707031 L 687.316406 299.648438 L 688.699219 305.066406 L 690.085938 309.390625 L 691.472656 303.628906 L 692.855469 302.003906 L 694.242188 297.894531 L 695.628906 301.691406 L 697.011719 307.472656 L 698.398438 309.339844 L 699.785156 307.246094 L 701.167969 301.507812 L 702.554688 295.136719 L 703.941406 300.203125 L 705.324219 307.816406 L 706.710938 312.988281 L 708.097656 318.210938 L 709.480469 320.4375 L 710.867188 320.867188 L 712.253906 320.695312 L 713.636719 317.023438 L 715.023438 316.328125 L 716.410156 314.519531 L 717.792969 305.578125 L 719.179688 311.050781 L 720.566406 323.832031 L 721.949219 321.785156 L 723.335938 321.472656 L 724.722656 316.441406 L 726.105469 317.9375 L 727.492188 321.441406 L 728.878906 320.777344 L 730.261719 314.214844 L 731.648438 309.34375 L 733.035156 313.878906 L 734.421875 314.835938 L 735.804688 321.746094 L 737.191406 312.664062 L 738.578125 310.367188 L 739.960938 308.019531 L 741.347656 310.582031 L 742.734375 308.449219 L 744.117188 310.035156 L 745.503906 311.382812 L 746.890625 322.34375 L 748.273438 316.867188 L 749.660156 318.195312 L 751.046875 322.25 L 752.429688 324.769531 L 753.816406 318.28125 L 755.203125 323.664062 L 756.585938 324.511719 L 757.972656 324.101562 L 759.359375 322.578125 L 760.742188 312.121094 L 762.128906 305.78125 L 763.515625 306.726562 L 764.898438 310.359375 L 766.285156 312.570312 L 767.671875 321.128906 L 769.054688 324.894531 L 770.441406 335.203125 L 771.828125 348.304688 L 773.210938 351.066406 L 774.597656 342.207031 L 775.984375 334.53125 L 777.367188 344.167969 L 778.753906 349.453125 L 780.140625 357.632812 L 781.523438 362.699219 L 782.910156 369.109375 L 784.296875 377.757812 L 785.683594 383.980469 L 787.066406 386.769531 L 788.453125 390.183594 L 789.839844 399.269531 L 791.222656 407.433594 L 792.609375 415.074219 L 793.996094 416.691406 L 795.378906 413.265625 L 796.765625 412.957031 L 798.152344 414.097656 L 799.535156 413.335938 L 800.921875 413.5 L 802.308594 420.167969 L 803.691406 423.84375 L 805.078125 430.128906 L 806.464844 432.339844 L 807.847656 427.75 L 809.234375 425.585938 L 810.621094 421.4375 L 812.003906 433.78125 L 813.390625 438.132812 L 814.777344 445.574219 L 816.160156 454.175781 L 817.546875 453.105469 L 818.933594 459.15625 L 820.316406 450.898438 L 821.703125 454 L 823.089844 463.875 L 824.472656 476.765625 L 825.859375 490.515625 L 827.246094 490.386719 L 828.632812 485.773438 L 830.015625 483.105469 L 831.402344 486.40625 L 832.789062 493.714844 L 834.171875 492.671875 L 835.558594 488.847656 L 836.945312 482.800781 L 838.328125 476.132812 L 839.714844 469.449219 L 841.101562 464.761719 L 842.484375 471.925781 L 843.871094 471.191406 L 845.257812 474.710938 L 846.640625 477.835938 L 848.027344 475.792969 L 849.414062 482.621094 L 850.796875 487.6875 L 852.183594 488.046875 L 853.570312 489.007812 L 854.953125 485.574219 L 856.339844 480.527344 L 857.726562 485.484375 L 859.109375 500.015625 L 860.496094 506.417969 L 861.882812 517.722656 L 863.265625 522.089844 L 864.652344 528.457031 L 866.039062 530.585938 L 867.421875 528.628906 L 868.808594 524.453125 L 870.195312 518.355469 L 871.578125 527.21875 L 872.964844 537.617188 L 874.351562 535.933594 L 875.734375 533.78125 L 877.121094 527.859375 L 878.507812 532.046875 L 879.894531 530.417969 L 881.277344 527.449219 L 882.664062 521.625 L 884.050781 527.722656 L 885.433594 537.230469 L 886.820312 536.433594 L 888.207031 543.757812 L 889.589844 538.628906 L 890.976562 550.039062 L 892.363281 563.308594 L 893.746094 564.292969 L 895.132812 554.039062 L 896.519531 546.855469 L 897.902344 548.328125 L 899.289062 548.183594 L 900.675781 546.382812 L 902.058594 544.527344 L 903.445312 541.355469 L 904.832031 545.335938 L 906.214844 536.3125 L 907.601562 528.492188 L 908.988281 532.101562 L 910.371094 538.25 L 911.757812 539.125 L 913.144531 535.9375 L 914.527344 535.863281 L 915.914062 536.386719 L 917.300781 531.472656 L 918.683594 532.925781 L 920.070312 528.992188 L 921.457031 533.839844 L 922.84375 542.292969 L 924.226562 544.714844 L 925.613281 546.296875 L 927 554.566406 L 928.382812 564.613281 L 929.769531 584.675781 L 931.15625 587.34375 L 932.539062 593.445312 L 933.925781 586.136719 L 935.3125 583.621094 L 936.695312 578.894531 L 938.082031 574.738281 L 939.46875 570.949219 L 940.851562 564.335938 L 942.238281 566.847656 L 943.625 566.800781 L 945.007812 569.480469 L 946.394531 564.214844 L 947.78125 561.808594 L 949.164062 558.160156 L 950.550781 560.195312 L 951.9375 564.207031 L 953.320312 566.273438 L 954.707031 574.609375 L 956.09375 581.515625 L 957.476562 579.242188 L 958.863281 594.761719 L 960.25 598.902344 L 961.632812 612.859375 L 963.019531 610.03125 L 964.40625 615.71875 L 965.789062 616.304688 L 967.175781 613.65625 L 968.5625 611.59375 L 969.945312 608.246094 L 971.332031 608.054688 L 972.71875 599.855469 L 974.105469 598.347656 L 975.488281 600.476562 L 976.875 595.242188 L 978.261719 594.417969 L 979.644531 595.257812 L 981.03125 594.171875 L 982.417969 592.167969 L 983.800781 588.375 L 985.1875 585.765625 L 986.574219 586.394531 L 987.957031 596.449219 L 989.34375 600.46875 L 990.730469 605.671875 L 992.113281 611.769531 L 993.5 616.359375 L 994.886719 614.414062 L 996.269531 617.332031 L 997.65625 617.515625 L 999.042969 618.199219 L 1000.425781 624.316406 L 1001.8125 622.835938 L 1003.199219 631.125 L 1004.582031 627.28125 L 1005.96875 632.867188 L 1007.355469 630.425781 L 1008.738281 628.515625 L 1010.125 629.136719 L 1011.511719 637.886719 L 1012.894531 641.386719 L 1014.28125 642.863281 L 1015.667969 638.65625 L 1017.050781 640.363281 L 1018.4375 648.765625 L 1019.824219 652.585938 L 1021.210938 657.0625 L 1022.59375 652.941406 L 1023.980469 644.824219 L 1025.367188 643.902344 L 1026.75 647.542969 L 1028.136719 660.382812 L 1029.523438 662.105469 L 1030.90625 656.929688 L 1032.292969 652.96875 L 1033.679688 648.410156 L 1035.0625 647.761719 L 1036.449219 643.921875 L 1037.835938 648.332031 L 1039.21875 640.667969 L 1040.605469 636.425781 L 1041.992188 622.199219 L 1043.375 617.738281 L 1044.761719 604.246094 L 1046.148438 612.429688 L 1047.53125 615.441406 L 1048.917969 630.359375 L 1050.304688 640.796875 L 1051.6875 640.945312 L 1053.074219 635.402344 L 1054.460938 629.691406 L 1055.84375 632.820312 L 1057.230469 633.980469 L 1058.617188 634.617188 L 1060 638.847656 L 1061.386719 635.613281 L 1062.773438 628.824219 L 1064.15625 620.292969 L 1065.542969 616.316406 L 1066.929688 617.601562 L 1068.3125 612.105469 L 1069.699219 608 L 1071.085938 606.25 L 1072.472656 606.339844 L 1073.855469 620.957031 L 1075.242188 618.035156 L 1076.628906 616.972656 L 1078.011719 624.808594 L 1079.398438 619.40625 L 1080.785156 620.695312 L 1082.167969 624.914062 L 1083.554688 634.570312 L 1084.941406 653.625 L 1086.324219 662.714844 L 1087.710938 653.398438 L 1089.097656 641.445312 L 1090.480469 643.945312 L 1091.867188 640.46875 L 1093.253906 641.042969 L 1094.636719 642.515625 L 1096.023438 646.964844 L 1097.410156 645.269531 L 1098.792969 645.546875 L 1100.179688 651.285156 L 1101.566406 646.003906 L 1102.949219 642.664062 L 1104.335938 632.917969 L 1105.722656 640.125 L 1107.105469 647.015625 L 1108.492188 651.058594 L 1109.878906 642.828125 L 1111.261719 635.378906 L 1112.648438 631.328125 L 1114.035156 626.851562 L 1115.421875 628.878906 L 1116.804688 632.738281 L 1118.191406 627.394531 L 1119.578125 626.613281 L 1120.960938 630.417969 L 1122.347656 636.34375 L 1123.734375 636.90625 L 1125.117188 639.289062 L 1126.503906 632.507812 L 1127.890625 638.25 L 1129.273438 642.882812 L 1130.660156 649.9375 L 1132.046875 647.753906 "/>
<path fill="none" stroke-width="3" stroke-linecap="butt" stroke-linejoin="miter" stroke="rgb(0%, 61.960787%, 45.09804%)" stroke-opacity="1" stroke-miterlimit="2" d="M 92.953125 630.566406 L 94.339844 634.019531 L 95.726562 626.605469 L 97.109375 627.132812 L 98.496094 628.605469 L 99.882812 629.09375 L 101.265625 630.882812 L 102.652344 629.257812 L 104.039062 630.066406 L 105.421875 637.011719 L 106.808594 636.257812 L 108.195312 632.753906 L 109.578125 635.894531 L 110.964844 632.214844 L 112.351562 635.367188 L 113.738281 625.28125 L 115.121094 620.8125 L 116.507812 618.144531 L 117.894531 617.617188 L 119.277344 626.460938 L 120.664062 612.113281 L 122.050781 604.515625 L 123.433594 615.082031 L 124.820312 626.710938 L 126.207031 633.648438 L 127.589844 637.09375 L 128.976562 636.097656 L 130.363281 632.710938 L 131.746094 635.632812 L 133.132812 640.144531 L 134.519531 641.417969 L 135.902344 640.246094 L 137.289062 634.488281 L 138.675781 643.070312 L 140.058594 644.128906 L 141.445312 634.527344 L 142.832031 638.496094 L 144.214844 642.753906 L 145.601562 643.316406 L 146.988281 640.71875 L 148.371094 641.386719 L 149.757812 638.136719 L 151.144531 636.761719 L 152.527344 644.695312 L 153.914062 652.113281 L 155.300781 647.914062 L 156.683594 637.390625 L 158.070312 633.195312 L 159.457031 630.722656 L 160.84375 633.339844 L 162.226562 624.921875 L 163.613281 629.570312 L 165 634.988281 L 166.382812 635.414062 L 167.769531 637.910156 L 169.15625 637.144531 L 170.539062 632.429688 L 171.925781 633.753906 L 173.3125 639.011719 L 174.695312 633.699219 L 176.082031 632.769531 L 177.46875 629.414062 L 178.851562 625.492188 L 180.238281 619.304688 L 181.625 615.683594 L 183.007812 614.914062 L 184.394531 609.238281 L 185.78125 608.25 L 187.164062 609.160156 L 188.550781 609.039062 L 189.9375 606.074219 L 191.320312 601.46875 L 192.707031 603.574219 L 194.09375 610.808594 L 195.476562 616.964844 L 196.863281 612.542969 L 198.25 612.394531 L 199.632812 619.15625 L 201.019531 629.664062 L 202.40625 636.964844 L 203.789062 641.746094 L 205.175781 643.527344 L 206.5625 644.511719 L 207.949219 646.863281 L 209.332031 648.921875 L 210.71875 651.125 L 212.105469 649.988281 L 213.488281 645.964844 L 214.875 642.503906 L 216.261719 636.402344 L 217.644531 626.886719 L 219.03125 619.449219 L 220.417969 615.1875 L 221.800781 616.105469 L 223.1875 619.207031 L 224.574219 621.953125 L 225.957031 621.492188 L 227.34375 617.640625 L 228.730469 621.472656 L 230.113281 621.902344 L 231.5 620.855469 L 232.886719 624.175781 L 234.269531 623.707031 L 235.65625 618.226562 L 237.042969 615.785156 L 238.425781 623.960938 L 239.8125 620.621094 L 241.199219 620.25 L 242.582031 617.34375 L 243.96875 622.039062 L 245.355469 621.78125 L 246.738281 622.957031 L 248.125 619.84375 L 249.511719 620.558594 L 250.894531 623.035156 L 252.28125 622.777344 L 253.667969 617.878906 L 255.054688 607.96875 L 256.4375 607.558594 L 257.824219 604.964844 L 259.210938 599.570312 L 260.59375 601.164062 L 261.980469 599.792969 L 263.367188 605.808594 L 264.75 609.132812 L 266.136719 617.09375 L 267.523438 627.515625 L 268.90625 635.722656 L 270.292969 639.234375 L 271.679688 640.011719 L 273.0625 632.015625 L 274.449219 633.84375 L 275.835938 636.597656 L 277.21875 639.335938 L 278.605469 647.929688 L 279.992188 646.363281 L 281.375 650.6875 L 282.761719 654.507812 L 284.148438 666.0625 L 285.53125 664.519531 L 286.917969 659.472656 L 288.304688 649.394531 L 289.6875 647.085938 L 291.074219 648.867188 L 292.460938 651.984375 L 293.84375 652.664062 L 295.230469 645.648438 L 296.617188 641.230469 L 298 639.519531 L 299.386719 634.1875 L 300.773438 625.890625 L 302.15625 626.179688 L 303.542969 626.910156 L 304.929688 628.351562 L 306.316406 622.476562 L 307.699219 621.730469 L 309.085938 622.558594 L 310.472656 620.457031 L 311.855469 625.199219 L 313.242188 635.113281 L 314.628906 642.84375 L 316.011719 653.53125 L 317.398438 662.960938 L 318.785156 670.398438 L 320.167969 670.429688 L 321.554688 671.292969 L 322.941406 672.808594 L 324.324219 672.90625 L 325.710938 677.863281 L 327.097656 677.472656 L 328.480469 681.84375 L 329.867188 671.882812 L 331.253906 668.523438 L 332.636719 662.300781 L 334.023438 658.574219 L 335.410156 658.925781 L 336.792969 657.527344 L 338.179688 660.570312 L 339.566406 663.796875 L 340.949219 675.453125 L 342.335938 677.222656 L 343.722656 673.527344 L 345.105469 671.425781 L 346.492188 677.765625 L 347.878906 680.308594 L 349.261719 683.351562 L 350.648438 680.339844 L 352.035156 675.847656 L 353.421875 679.480469 L 354.804688 680.460938 L 356.191406 683.851562 L 357.578125 684.890625 L 358.960938 682.453125 L 360.347656 688.203125 L 361.734375 691.085938 L 363.117188 691.699219 L 364.503906 687.289062 L 365.890625 688.421875 L 367.273438 685.691406 L 368.660156 685.515625 L 370.046875 678.722656 L 371.429688 673.808594 L 372.816406 670.683594 L 374.203125 669.34375 L 375.585938 663.289062 L 376.972656 663.496094 L 378.359375 669.820312 L 379.742188 668.074219 L 381.128906 671.875 L 382.515625 675.867188 L 383.898438 672.65625 L 385.285156 677.296875 L 386.671875 678.535156 L 388.054688 687.714844 L 389.441406 692.445312 L 390.828125 689.570312 L 392.210938 693.777344 L 393.597656 699.40625 L 394.984375 701.210938 L 396.367188 706.375 L 397.753906 713.753906 L 399.140625 718.710938 L 400.527344 721.570312 L 401.910156 722.605469 L 403.296875 717.6875 L 404.683594 715.648438 L 406.066406 718.347656 L 407.453125 719.964844 L 408.839844 717.207031 L 410.222656 713.808594 L 411.609375 714.640625 L 412.996094 717.222656 L 414.378906 715.683594 L 415.765625 710.628906 L 417.152344 707.59375 L 418.535156 704.078125 L 419.921875 704.882812 L 421.308594 706.628906 L 422.691406 709.847656 L 424.078125 712.488281 L 425.464844 712.589844 L 426.847656 710.296875 L 428.234375 708.453125 L 429.621094 710.277344 L 431.003906 712.878906 L 432.390625 713.382812 L 433.777344 711.035156 L 435.160156 705.96875 L 436.546875 699.324219 L 437.933594 699.734375 L 439.316406 699.058594 L 440.703125 692.027344 L 442.089844 682.195312 L 443.472656 675.691406 L 444.859375 671.359375 L 446.246094 676.441406 L 447.632812 689.894531 L 449.015625 695.5625 L 450.402344 703.09375 L 451.789062 708.761719 L 453.171875 709.484375 L 454.558594 710.285156 L 455.945312 718.1875 L 457.328125 711.011719 L 458.714844 708.699219 L 460.101562 708.824219 L 461.484375 709.570312 L 462.871094 704.640625 L 464.257812 708.628906 L 465.640625 702.695312 L 467.027344 696.722656 L 468.414062 680.242188 L 469.796875 667.964844 L 471.183594 660.800781 L 472.570312 648.238281 L 473.953125 631.679688 L 475.339844 624.667969 L 476.726562 612.410156 L 478.109375 602.953125 L 479.496094 600.976562 L 480.882812 604.464844 L 482.265625 599.121094 L 483.652344 603.777344 L 485.039062 609.398438 L 486.421875 621.082031 L 487.808594 635.234375 L 489.195312 644.292969 L 490.578125 645.1875 L 491.964844 650.496094 L 493.351562 651.734375 L 494.738281 644.6875 L 496.121094 635.546875 L 497.507812 623.558594 L 498.894531 624.523438 L 500.277344 621.96875 L 501.664062 615.789062 L 503.050781 607.304688 L 504.433594 603.914062 L 505.820312 599.921875 L 507.207031 589.699219 L 508.589844 580.632812 L 509.976562 573.324219 L 511.363281 567.597656 L 512.746094 562.183594 L 514.132812 559.816406 L 515.519531 548.03125 L 516.902344 539.230469 L 518.289062 529.921875 L 519.675781 520.46875 L 521.058594 505.753906 L 522.445312 487.257812 L 523.832031 467.789062 L 525.214844 453.214844 L 526.601562 450.246094 L 527.988281 443.921875 L 529.371094 437.558594 L 530.757812 426.488281 L 532.144531 407.386719 L 533.527344 400.382812 L 534.914062 393.863281 L 536.300781 380.027344 L 537.683594 373.929688 L 539.070312 366.414062 L 540.457031 356.242188 L 541.84375 352.757812 L 543.226562 350.765625 L 544.613281 352.691406 L 546 343.339844 L 547.382812 330.011719 L 548.769531 329.449219 L 550.15625 330.199219 L 551.539062 323.714844 L 552.925781 312.023438 L 554.3125 295.863281 L 555.695312 282.976562 L 557.082031 278.175781 L 558.46875 268.320312 L 559.851562 254.59375 L 561.238281 241.304688 L 562.625 234.773438 L 564.007812 218.277344 L 565.394531 205.644531 L 566.78125 196.753906 L 568.164062 190.425781 L 569.550781 193.390625 L 570.9375 185.515625 L 572.320312 183.597656 L 573.707031 171.855469 L 575.09375 166.386719 L 576.476562 161.582031 L 577.863281 152.078125 L 579.25 154.050781 L 580.632812 156.050781 L 582.019531 159.652344 L 583.40625 162.226562 L 584.789062 162.339844 L 586.175781 167.308594 L 587.5625 171.914062 L 588.945312 173.6875 L 590.332031 175.550781 L 591.71875 182.9375 L 593.105469 176.453125 L 594.488281 177.089844 L 595.875 175.675781 L 597.261719 177.992188 L 598.644531 181.03125 L 600.03125 172.535156 L 601.417969 174.867188 L 602.800781 184.257812 L 604.1875 194.566406 L 605.574219 196.648438 L 606.957031 202.28125 L 608.34375 212.398438 L 609.730469 220.566406 L 611.113281 229.484375 L 612.5 233.746094 L 613.886719 241.523438 L 615.269531 241.761719 L 616.65625 245.226562 L 618.042969 246.367188 L 619.425781 249.414062 L 620.8125 255.566406 L 622.199219 260.554688 L 623.582031 268.203125 L 624.96875 271.980469 L 626.355469 276.496094 L 627.738281 280.941406 L 629.125 280.175781 L 630.511719 282.0625 L 631.894531 285.042969 L 633.28125 286.5625 L 634.667969 289.1875 L 636.054688 300.769531 L 637.4375 313.097656 L 638.824219 317.101562 L 640.210938 320.660156 L 641.59375 324.507812 L 642.980469 325.636719 L 644.367188 333.34375 L 645.75 336.898438 L 647.136719 337.3125 L 648.523438 335.75 L 649.90625 331.679688 L 651.292969 336.597656 L 652.679688 337.757812 L 654.0625 339.191406 L 655.449219 342.390625 L 656.835938 347.605469 L 658.21875 347.839844 L 659.605469 347.46875 L 660.992188 346.273438 L 662.375 347.394531 L 663.761719 349.117188 L 665.148438 355.519531 L 666.53125 359.214844 L 667.917969 358.238281 L 669.304688 350.027344 L 670.6875 356.078125 L 672.074219 368.976562 L 673.460938 379.289062 L 674.84375 380.242188 L 676.230469 387.976562 L 677.617188 383.21875 L 679 379.832031 L 680.386719 385.839844 L 681.773438 379.007812 L 683.15625 379.582031 L 684.542969 381.457031 L 685.929688 377.050781 L 687.316406 378.542969 L 688.699219 384.457031 L 690.085938 387.160156 L 691.472656 396.972656 L 692.855469 401.152344 L 694.242188 407.042969 L 695.628906 408.816406 L 697.011719 411.644531 L 698.398438 423.242188 L 699.785156 424.144531 L 701.167969 416.1875 L 702.554688 402.566406 L 703.941406 403.144531 L 705.324219 405.296875 L 706.710938 406.398438 L 708.097656 400.265625 L 709.480469 393.394531 L 710.867188 395.421875 L 712.253906 401.132812 L 713.636719 400.433594 L 715.023438 391.84375 L 716.410156 385.257812 L 717.792969 380.539062 L 719.179688 381.015625 L 720.566406 380.808594 L 721.949219 375.167969 L 723.335938 376.15625 L 724.722656 375.511719 L 726.105469 380.179688 L 727.492188 384.507812 L 728.878906 376.0625 L 730.261719 370.636719 L 731.648438 371.894531 L 733.035156 376.523438 L 734.421875 378.25 L 735.804688 374.589844 L 737.191406 375.722656 L 738.578125 384.730469 L 739.960938 385.226562 L 741.347656 381.847656 L 742.734375 383.609375 L 744.117188 380.316406 L 745.503906 374.96875 L 746.890625 373.695312 L 748.273438 375.796875 L 749.660156 381.445312 L 751.046875 386.167969 L 752.429688 394.625 L 753.816406 389.414062 L 755.203125 384.125 L 756.585938 375.984375 L 757.972656 379.226562 L 759.359375 385.46875 L 760.742188 387.277344 L 762.128906 390.105469 L 763.515625 390.714844 L 764.898438 388.269531 L 766.285156 393.089844 L 767.671875 395.855469 L 769.054688 394.695312 L 770.441406 398.066406 L 771.828125 401.355469 L 773.210938 406.660156 L 774.597656 403.453125 L 775.984375 396.6875 L 777.367188 394.460938 L 778.753906 397.929688 L 780.140625 409.085938 L 781.523438 409.160156 L 782.910156 413.707031 L 784.296875 411.179688 L 785.683594 403.199219 L 787.066406 406.675781 L 788.453125 407.515625 L 789.839844 409.605469 L 791.222656 413.378906 L 792.609375 418.632812 L 793.996094 421.820312 L 795.378906 421.839844 L 796.765625 426.734375 L 798.152344 433.8125 L 799.535156 440.359375 L 800.921875 440.398438 L 802.308594 447.09375 L 803.691406 453.65625 L 805.078125 455.269531 L 806.464844 451.21875 L 807.847656 453.957031 L 809.234375 453.140625 L 810.621094 461.4375 L 812.003906 469.867188 L 813.390625 464.875 L 814.777344 463.480469 L 816.160156 467.4375 L 817.546875 472.449219 L 818.933594 482.019531 L 820.316406 483.339844 L 821.703125 482.292969 L 823.089844 480.136719 L 824.472656 484 L 825.859375 484.960938 L 827.246094 488.097656 L 828.632812 487.4375 L 830.015625 492.554688 L 831.402344 490.773438 L 832.789062 493.78125 L 834.171875 500.941406 L 835.558594 505.914062 L 836.945312 505.71875 L 838.328125 505.492188 L 839.714844 510.757812 L 841.101562 515.191406 L 842.484375 515.167969 L 843.871094 514.78125 L 845.257812 508.347656 L 846.640625 504.113281 L 848.027344 506.253906 L 849.414062 507.574219 L 850.796875 509.609375 L 852.183594 512.957031 L 853.570312 512.980469 L 854.953125 513.230469 L 856.339844 509.394531 L 857.726562 509.054688 L 859.109375 509.0625 L 860.496094 511.40625 L 861.882812 517.75 L 863.265625 522.109375 L 864.652344 526.136719 L 866.039062 519.289062 L 867.421875 518.792969 L 868.808594 518.484375 L 870.195312 516.597656 L 871.578125 519.539062 L 872.964844 519.296875 L 874.351562 524.480469 L 875.734375 529.300781 L 877.121094 533.253906 L 878.507812 537.902344 L 879.894531 531.875 L 881.277344 529.625 L 882.664062 533.199219 L 884.050781 536.128906 L 885.433594 532.515625 L 886.820312 537.492188 L 888.207031 543.003906 L 889.589844 538.929688 L 890.976562 542.449219 L 892.363281 542.3125 L 893.746094 539.519531 L 895.132812 532.898438 L 896.519531 535.71875 L 897.902344 528.191406 L 899.289062 531.050781 L 900.675781 532.957031 L 902.058594 534.78125 L 903.445312 543.050781 L 904.832031 549.25 L 906.214844 551.71875 L 907.601562 553.085938 L 908.988281 550.839844 L 910.371094 550.496094 L 911.757812 548.253906 L 913.144531 547.320312 L 914.527344 548.273438 L 915.914062 542.65625 L 917.300781 547.628906 L 918.683594 552.449219 L 920.070312 549.027344 L 921.457031 549.617188 L 922.84375 551.445312 L 924.226562 547.441406 L 925.613281 544.578125 L 927 545.289062 L 928.382812 543.75 L 929.769531 542.828125 L 931.15625 538.363281 L 932.539062 540.25 L 933.925781 539.792969 L 935.3125 535.511719 L 936.695312 541.648438 L 938.082031 548.511719 L 939.46875 541.988281 L 940.851562 538.355469 L 942.238281 541.285156 L 943.625 546.757812 L 945.007812 545.285156 L 946.394531 549.082031 L 947.78125 547.847656 L 949.164062 543.027344 L 950.550781 541.0625 L 951.9375 535.328125 L 953.320312 541.890625 L 954.707031 545.578125 L 956.09375 546.277344 L 957.476562 549.503906 L 958.863281 553.839844 L 960.25 559.167969 L 961.632812 560.15625 L 963.019531 551.890625 L 964.40625 555.109375 L 965.789062 555.363281 L 967.175781 561.554688 L 968.5625 563.816406 L 969.945312 571.523438 L 971.332031 567.503906 L 972.71875 560.835938 L 974.105469 557.746094 L 975.488281 556.710938 L 976.875 554.214844 L 978.261719 554.847656 L 979.644531 555.816406 L 981.03125 566.113281 L 982.417969 558.980469 L 983.800781 557.003906 L 985.1875 553.621094 L 986.574219 555.640625 L 987.957031 564.09375 L 989.34375 567.074219 L 990.730469 562.566406 L 992.113281 561.015625 L 993.5 556.515625 L 994.886719 556.96875 L 996.269531 561.480469 L 997.65625 559.835938 L 999.042969 557.820312 L 1000.425781 556.800781 L 1001.8125 565.445312 L 1003.199219 568.308594 L 1004.582031 558.582031 L 1005.96875 556.363281 L 1007.355469 561.566406 L 1008.738281 559.917969 L 1010.125 559.925781 L 1011.511719 560.902344 L 1012.894531 562.953125 L 1014.28125 573.433594 L 1015.667969 581.25 L 1017.050781 572.226562 L 1018.4375 574.929688 L 1019.824219 574.617188 L 1021.210938 574.097656 L 1022.59375 570.90625 L 1023.980469 574.445312 L 1025.367188 576.734375 L 1026.75 574.886719 L 1028.136719 571.015625 L 1029.523438 567.003906 L 1030.90625 569.652344 L 1032.292969 568.832031 L 1033.679688 569.8125 L 1035.0625 574.355469 L 1036.449219 582.324219 L 1037.835938 583.59375 L 1039.21875 581.160156 L 1040.605469 580.210938 L 1041.992188 573.117188 L 1043.375 563.371094 L 1044.761719 573.851562 L 1046.148438 576.777344 L 1047.53125 575.414062 L 1048.917969 579.40625 L 1050.304688 578.582031 L 1051.6875 576.199219 L 1053.074219 576.140625 L 1054.460938 580.171875 L 1055.84375 579.496094 L 1057.230469 577.914062 L 1058.617188 581.464844 L 1060 579.589844 L 1061.386719 577.480469 L 1062.773438 576.859375 L 1064.15625 576.355469 L 1065.542969 572.476562 L 1066.929688 575.183594 L 1068.3125 576.882812 L 1069.699219 578.59375 L 1071.085938 574.230469 L 1072.472656 570.320312 L 1073.855469 566.5 L 1075.242188 566.683594 L 1076.628906 560.742188 L 1078.011719 552.324219 L 1079.398438 552.519531 L 1080.785156 552.554688 L 1082.167969 558.324219 L 1083.554688 572.945312 L 1084.941406 570.375 L 1086.324219 568.214844 L 1087.710938 568.929688 L 1089.097656 566.941406 L 1090.480469 565.097656 L 1091.867188 568.707031 L 1093.253906 574.984375 L 1094.636719 576.738281 L 1096.023438 565.988281 L 1097.410156 561.058594 L 1098.792969 559.304688 L 1100.179688 558.039062 L 1101.566406 561.507812 L 1102.949219 565.398438 L 1104.335938 566.035156 L 1105.722656 566.78125 L 1107.105469 566.957031 L 1108.492188 572.011719 L 1109.878906 568.136719 L 1111.261719 563.515625 L 1112.648438 562.203125 L 1114.035156 557.027344 L 1115.421875 563.285156 L 1116.804688 561.773438 L 1118.191406 567.640625 L 1119.578125 566.457031 L 1120.960938 566.824219 L 1122.347656 563.152344 L 1123.734375 561.214844 L 1125.117188 562.550781 L 1126.503906 570.703125 L 1127.890625 567.3125 L 1129.273438 564.695312 L 1130.660156 558.488281 L 1132.046875 566.308594 "/>
<path fill="none" stroke-width="3" stroke-linecap="butt" stroke-linejoin="miter" stroke="rgb(80.000001%, 47.450981%, 65.490198%)" stroke-opacity="1" stroke-miterlimit="2" d="M 92.953125 592.96875 L 94.339844 589.777344 L 95.726562 584.207031 L 97.109375 587.164062 L 98.496094 594.828125 L 99.882812 595.84375 L 101.265625 600.652344 L 102.652344 598.441406 L 104.039062 590.96875 L 105.421875 582.816406 L 106.808594 584.839844 L 108.195312 583.34375 L 109.578125 586.828125 L 110.964844 591.402344 L 112.351562 592.605469 L 113.738281 596.628906 L 115.121094 587.675781 L 116.507812 587.109375 L 117.894531 584.796875 L 119.277344 579.929688 L 120.664062 580.351562 L 122.050781 571.660156 L 123.433594 581.40625 L 124.820312 580.507812 L 126.207031 586.308594 L 127.589844 592.605469 L 128.976562 588.144531 L 130.363281 592.605469 L 131.746094 594.382812 L 133.132812 602.1875 L 134.519531 611.386719 L 135.902344 615.957031 L 137.289062 612.164062 L 138.675781 612.378906 L 140.058594 606.144531 L 141.445312 608.570312 L 142.832031 605.167969 L 144.214844 606.851562 L 145.601562 615.46875 L 146.988281 614.960938 L 148.371094 618.917969 L 149.757812 617.347656 L 151.144531 609.6875 L 152.527344 601.6875 L 153.914062 595.84375 L 155.300781 600.25 L 156.683594 603.59375 L 158.070312 610.910156 L 159.457031 606.578125 L 160.84375 602.4375 L 162.226562 598.34375 L 163.613281 593.046875 L 165 589.160156 L 166.382812 597.546875 L 167.769531 596.050781 L 169.15625 599.664062 L 170.539062 595.605469 L 171.925781 597.910156 L 173.3125 589.785156 L 174.695312 592.046875 L 176.082031 593.175781 L 177.46875 591.75 L 178.851562 591.75 L 180.238281 587.589844 L 181.625 586.304688 L 183.007812 590.648438 L 184.394531 589.441406 L 185.78125 582.410156 L 187.164062 578.617188 L 188.550781 579.019531 L 189.9375 578.285156 L 191.320312 587.300781 L 192.707031 590.472656 L 194.09375 586.15625 L 195.476562 580.039062 L 196.863281 582.339844 L 198.25 578.953125 L 199.632812 581.914062 L 201.019531 586.769531 L 202.40625 595.167969 L 203.789062 597.929688 L 205.175781 598.636719 L 206.5625 602.515625 L 207.949219 599.554688 L 209.332031 597.5 L 210.71875 604.148438 L 212.105469 604.832031 L 213.488281 610.765625 L 214.875 615.117188 L 216.261719 615.144531 L 217.644531 614.859375 L 219.03125 612.175781 L 220.417969 607.359375 L 221.800781 609.863281 L 223.1875 606.269531 L 224.574219 605.1875 L 225.957031 601.585938 L 227.34375 591.863281 L 228.730469 595.414062 L 230.113281 594.941406 L 231.5 598.140625 L 232.886719 605.644531 L 234.269531 607.109375 L 235.65625 609.042969 L 237.042969 610.847656 L 238.425781 614.179688 L 239.8125 612.90625 L 241.199219 612.367188 L 242.582031 611.84375 L 243.96875 607.933594 L 245.355469 605.71875 L 246.738281 605.644531 L 248.125 614.429688 L 249.511719 625.089844 L 250.894531 621.546875 L 252.28125 623.738281 L 253.667969 611.738281 L 255.054688 609.773438 L 256.4375 602.738281 L 257.824219 603.597656 L 259.210938 596.792969 L 260.59375 596.128906 L 261.980469 596.300781 L 263.367188 595.074219 L 264.75 598.355469 L 266.136719 603.804688 L 267.523438 610.429688 L 268.90625 610.609375 L 270.292969 613.019531 L 271.679688 612.125 L 273.0625 618.65625 L 274.449219 622.453125 L 275.835938 623.59375 L 277.21875 621.355469 L 278.605469 622.492188 L 279.992188 623.96875 L 281.375 624.527344 L 282.761719 627.207031 L 284.148438 626.535156 L 285.53125 626.585938 L 286.917969 630.066406 L 288.304688 621.824219 L 289.6875 618.667969 L 291.074219 619.421875 L 292.460938 627.789062 L 293.84375 617.269531 L 295.230469 621.300781 L 296.617188 619.109375 L 298 623.371094 L 299.386719 626.273438 L 300.773438 622.914062 L 302.15625 621.964844 L 303.542969 619.296875 L 304.929688 620.414062 L 306.316406 623.855469 L 307.699219 625.59375 L 309.085938 629.367188 L 310.472656 625.667969 L 311.855469 628.210938 L 313.242188 630.695312 L 314.628906 630.429688 L 316.011719 630.777344 L 317.398438 627.492188 L 318.785156 629.660156 L 320.167969 635.734375 L 321.554688 634.113281 L 322.941406 634.910156 L 324.324219 633.230469 L 325.710938 636.417969 L 327.097656 641.460938 L 328.480469 639.390625 L 329.867188 634.402344 L 331.253906 630.453125 L 332.636719 633.210938 L 334.023438 637.746094 L 335.410156 640.066406 L 336.792969 648.285156 L 338.179688 654.761719 L 339.566406 660.875 L 340.949219 658.621094 L 342.335938 660.210938 L 343.722656 665.148438 L 345.105469 670.6875 L 346.492188 669.570312 L 347.878906 670.519531 L 349.261719 663.765625 L 350.648438 666.691406 L 352.035156 669.902344 L 353.421875 675.566406 L 354.804688 673.304688 L 356.191406 676.789062 L 357.578125 673.214844 L 358.960938 675.027344 L 360.347656 669.753906 L 361.734375 668.601562 L 363.117188 663.917969 L 364.503906 672.109375 L 365.890625 679.980469 L 367.273438 679.496094 L 368.660156 675.613281 L 370.046875 674.285156 L 371.429688 680.792969 L 372.816406 695.089844 L 374.203125 702.398438 L 375.585938 705.183594 L 376.972656 700.753906 L 378.359375 701.414062 L 379.742188 697.96875 L 381.128906 696.949219 L 382.515625 695.054688 L 383.898438 695.800781 L 385.285156 695.0625 L 386.671875 693.5625 L 388.054688 695.183594 L 389.441406 689.5 L 390.828125 687.515625 L 392.210938 691.515625 L 393.597656 691.867188 L 394.984375 689.324219 L 396.367188 689.71875 L 397.753906 691.367188 L 399.140625 693.535156 L 400.527344 692.890625 L 401.910156 696.335938 L 403.296875 700.234375 L 404.683594 696.460938 L 406.066406 692.183594 L 407.453125 692.058594 L 408.839844 682.980469 L 410.222656 686.027344 L 411.609375 686.582031 L 412.996094 684.660156 L 414.378906 675.417969 L 415.765625 678.289062 L 417.152344 671.816406 L 418.535156 669.867188 L 419.921875 670.324219 L 421.308594 664.941406 L 422.691406 658.5625 L 424.078125 655.945312 L 425.464844 645.582031 L 426.847656 638.371094 L 428.234375 636.859375 L 429.621094 631.757812 L 431.003906 625.109375 L 432.390625 629.617188 L 433.777344 629.40625 L 435.160156 632.183594 L 436.546875 639.855469 L 437.933594 636.105469 L 439.316406 635.070312 L 440.703125 634.007812 L 442.089844 625.203125 L 443.472656 619.953125 L 444.859375 616.003906 L 446.246094 614.058594 L 447.632812 621.835938 L 449.015625 629.226562 L 450.402344 636.859375 L 451.789062 642.277344 L 453.171875 637.417969 L 454.558594 638.773438 L 455.945312 638.511719 L 457.328125 634.894531 L 458.714844 628.804688 L 460.101562 629.542969 L 461.484375 624.46875 L 462.871094 626.621094 L 464.257812 633.046875 L 465.640625 632.894531 L 467.027344 630.285156 L 468.414062 625.550781 L 469.796875 615.386719 L 471.183594 610.246094 L 472.570312 605.058594 L 473.953125 598.15625 L 475.339844 588.339844 L 476.726562 584.792969 L 478.109375 580.796875 L 479.496094 574.363281 L 480.882812 560.925781 L 482.265625 552.507812 L 483.652344 548.691406 L 485.039062 551.433594 L 486.421875 557.820312 L 487.808594 564.039062 L 489.195312 563.808594 L 490.578125 563.019531 L 491.964844 567.550781 L 493.351562 560.277344 L 494.738281 559.515625 L 496.121094 564.433594 L 497.507812 569.179688 L 498.894531 572.082031 L 500.277344 568.546875 L 501.664062 558.96875 L 503.050781 555.140625 L 504.433594 549.375 L 505.820312 541.394531 L 507.207031 529.679688 L 508.589844 519.167969 L 509.976562 512.09375 L 511.363281 504.253906 L 512.746094 496.9375 L 514.132812 490.621094 L 515.519531 484.253906 L 516.902344 481.902344 L 518.289062 468.53125 L 519.675781 454.613281 L 521.058594 448.371094 L 522.445312 440.941406 L 523.832031 429.160156 L 525.214844 425.507812 L 526.601562 410.648438 L 527.988281 408.027344 L 529.371094 410.628906 L 530.757812 410.34375 L 532.144531 406.027344 L 533.527344 405.453125 L 534.914062 396.015625 L 536.300781 385.644531 L 537.683594 383.3125 L 539.070312 385.527344 L 540.457031 385.378906 L 541.84375 384.128906 L 543.226562 374.613281 L 544.613281 365.710938 L 546 358.265625 L 547.382812 353.421875 L 548.769531 350.507812 L 550.15625 350.558594 L 551.539062 342.753906 L 552.925781 328.59375 L 554.3125 319.863281 L 555.695312 310.894531 L 557.082031 301.273438 L 558.46875 291.476562 L 559.851562 282.617188 L 561.238281 273.425781 L 562.625 268.417969 L 564.007812 262.089844 L 565.394531 261.195312 L 566.78125 256.742188 L 568.164062 252.207031 L 569.550781 250.808594 L 570.9375 246.558594 L 572.320312 246.636719 L 573.707031 243.96875 L 575.09375 245.625 L 576.476562 247.597656 L 577.863281 251.015625 L 579.25 254.234375 L 580.632812 256.753906 L 582.019531 256.863281 L 583.40625 264.457031 L 584.789062 269.507812 L 586.175781 276.847656 L 587.5625 277.300781 L 588.945312 276.828125 L 590.332031 278.246094 L 591.71875 283.175781 L 593.105469 287.976562 L 594.488281 286.871094 L 595.875 292.882812 L 597.261719 295.640625 L 598.644531 296.59375 L 600.03125 297.003906 L 601.417969 302.144531 L 602.800781 308.796875 L 604.1875 310.398438 L 605.574219 311.246094 L 606.957031 311.527344 L 608.34375 315.042969 L 609.730469 319.476562 L 611.113281 321.589844 L 612.5 318.34375 L 613.886719 320.183594 L 615.269531 322.253906 L 616.65625 329.773438 L 618.042969 329.71875 L 619.425781 328.769531 L 620.8125 328.355469 L 622.199219 334.050781 L 623.582031 329.074219 L 624.96875 327.078125 L 626.355469 338.867188 L 627.738281 341.679688 L 629.125 345.707031 L 630.511719 345.414062 L 631.894531 339.949219 L 633.28125 342.945312 L 634.667969 347.5625 L 636.054688 355.90625 L 637.4375 363.523438 L 638.824219 368.738281 L 640.210938 367.691406 L 641.59375 373.238281 L 642.980469 381.074219 L 644.367188 383.582031 L 645.75 390.332031 L 647.136719 383.957031 L 648.523438 384.890625 L 649.90625 383.128906 L 651.292969 385.230469 L 652.679688 385.28125 L 654.0625 383.335938 L 655.449219 384.824219 L 656.835938 382.140625 L 658.21875 380.625 L 659.605469 381.902344 L 660.992188 383.25 L 662.375 386.105469 L 663.761719 377.78125 L 665.148438 380.117188 L 666.53125 381.355469 L 667.917969 385.269531 L 669.304688 385.257812 L 670.6875 384.289062 L 672.074219 380.847656 L 673.460938 379.589844 L 674.84375 377.257812 L 676.230469 379.078125 L 677.617188 382.207031 L 679 385.898438 L 680.386719 388.691406 L 681.773438 393.34375 L 683.15625 405.394531 L 684.542969 415.023438 L 685.929688 415.382812 L 687.316406 411.855469 L 688.699219 403.085938 L 690.085938 404.660156 L 691.472656 404.28125 L 692.855469 404.402344 L 694.242188 400.480469 L 695.628906 398.476562 L 697.011719 401.671875 L 698.398438 409.867188 L 699.785156 409.945312 L 701.167969 418.746094 L 702.554688 413.714844 L 703.941406 418.519531 L 705.324219 419.667969 L 706.710938 424.824219 L 708.097656 433.726562 L 709.480469 438.832031 L 710.867188 433.515625 L 712.253906 435.585938 L 713.636719 440.613281 L 715.023438 448.347656 L 716.410156 450.515625 L 717.792969 448.332031 L 719.179688 444.011719 L 720.566406 442.140625 L 721.949219 441.472656 L 723.335938 436.5625 L 724.722656 429.9375 L 726.105469 429.585938 L 727.492188 427.167969 L 728.878906 422.539062 L 730.261719 420.773438 L 731.648438 417.640625 L 733.035156 416.789062 L 734.421875 420.421875 L 735.804688 423.90625 L 737.191406 427.375 L 738.578125 430.8125 L 739.960938 436.980469 L 741.347656 437.832031 L 742.734375 444.894531 L 744.117188 449.402344 L 745.503906 453.132812 L 746.890625 449.1875 L 748.273438 458.667969 L 749.660156 455.582031 L 751.046875 445.398438 L 752.429688 443.773438 L 753.816406 450.480469 L 755.203125 449.339844 L 756.585938 450.835938 L 757.972656 451.117188 L 759.359375 446.898438 L 760.742188 446.140625 L 762.128906 450.21875 L 763.515625 451.46875 L 764.898438 449.175781 L 766.285156 445.296875 L 767.671875 442.242188 L 769.054688 442.734375 L 770.441406 444.039062 L 771.828125 444.4375 L 773.210938 447.046875 L 774.597656 449.683594 L 775.984375 449.980469 L 777.367188 446.117188 L 778.753906 453.6875 L 780.140625 459.707031 L 781.523438 466.730469 L 782.910156 471.292969 L 784.296875 466.257812 L 785.683594 466.242188 L 787.066406 465.675781 L 788.453125 467.160156 L 789.839844 467.328125 L 791.222656 468.277344 L 792.609375 466.457031 L 793.996094 469.179688 L 795.378906 470.148438 L 796.765625 467.257812 L 798.152344 467.84375 L 799.535156 475.769531 L 800.921875 473.617188 L 802.308594 470.097656 L 803.691406 473.308594 L 805.078125 482.882812 L 806.464844 486.410156 L 807.847656 484.992188 L 809.234375 488.195312 L 810.621094 489.453125 L 812.003906 488.210938 L 813.390625 486.308594 L 814.777344 486.417969 L 816.160156 488.652344 L 817.546875 496.0625 L 818.933594 500.972656 L 820.316406 502.933594 L 821.703125 498.855469 L 823.089844 501.402344 L 824.472656 508.234375 L 825.859375 509.246094 L 827.246094 513.6875 L 828.632812 514.777344 L 830.015625 515.539062 L 831.402344 514.300781 L 832.789062 518.933594 L 834.171875 517.785156 L 835.558594 517.667969 L 836.945312 517.074219 L 838.328125 513.640625 L 839.714844 513.933594 L 841.101562 512.9375 L 842.484375 513.820312 L 843.871094 518.722656 L 845.257812 516.609375 L 846.640625 525.269531 L 848.027344 528.015625 L 849.414062 525.078125 L 850.796875 527.007812 L 852.183594 534.347656 L 853.570312 542.613281 L 854.953125 545.375 L 856.339844 547.347656 L 857.726562 549.402344 L 859.109375 548.609375 L 860.496094 549.847656 L 861.882812 546.605469 L 863.265625 544.816406 L 864.652344 543.453125 L 866.039062 534.066406 L 867.421875 535.511719 L 868.808594 540.84375 L 870.195312 541.097656 L 871.578125 544.34375 L 872.964844 544.359375 L 874.351562 546.664062 L 875.734375 547.578125 L 877.121094 538.214844 L 878.507812 540.863281 L 879.894531 538.953125 L 881.277344 539.144531 L 882.664062 546.304688 L 884.050781 555.273438 L 885.433594 560.085938 L 886.820312 567.019531 L 888.207031 568.3125 L 889.589844 568.058594 L 890.976562 572.132812 L 892.363281 577.921875 L 893.746094 575.003906 L 895.132812 571.011719 L 896.519531 571.3125 L 897.902344 566.769531 L 899.289062 568.992188 L 900.675781 561.570312 L 902.058594 554.3125 L 903.445312 557.992188 L 904.832031 556.390625 L 906.214844 557.601562 L 907.601562 559.472656 L 908.988281 561.324219 L 910.371094 561.375 L 911.757812 564 L 913.144531 561.015625 L 914.527344 560.222656 L 915.914062 560.328125 L 917.300781 560.222656 L 918.683594 563.042969 L 920.070312 563.320312 L 921.457031 558.328125 L 922.84375 559.910156 L 924.226562 561.257812 L 925.613281 566.253906 L 927 572.332031 L 928.382812 570.914062 L 929.769531 577.742188 L 931.15625 572.5 L 932.539062 568.585938 L 933.925781 566 L 935.3125 572.320312 L 936.695312 569.34375 L 938.082031 567.804688 L 939.46875 566.351562 L 940.851562 569.347656 L 942.238281 570.816406 L 943.625 569.324219 L 945.007812 567.070312 L 946.394531 571.820312 L 947.78125 566.402344 L 949.164062 561.757812 L 950.550781 570.464844 L 951.9375 571.476562 L 953.320312 579.710938 L 954.707031 583.273438 L 956.09375 577.78125 L 957.476562 569.554688 L 958.863281 568.097656 L 960.25 574.503906 L 961.632812 577.066406 L 963.019531 589.308594 L 964.40625 591.382812 L 965.789062 595.210938 L 967.175781 592.683594 L 968.5625 595.609375 L 969.945312 592.25 L 971.332031 588.921875 L 972.71875 590.4375 L 974.105469 593.105469 L 975.488281 590.480469 L 976.875 586.304688 L 978.261719 587.265625 L 979.644531 585.589844 L 981.03125 590.027344 L 982.417969 597.636719 L 983.800781 597.363281 L 985.1875 593.261719 L 986.574219 586.539062 L 987.957031 593.753906 L 989.34375 596.292969 L 990.730469 595.050781 L 992.113281 596.933594 L 993.5 594.546875 L 994.886719 590.378906 L 996.269531 588.121094 L 997.65625 588.570312 L 999.042969 593.003906 L 1000.425781 596.789062 L 1001.8125 595.84375 L 1003.199219 606.597656 L 1004.582031 605.839844 L 1005.96875 609.125 L 1007.355469 614.363281 L 1008.738281 611.1875 L 1010.125 613.089844 L 1011.511719 608.105469 L 1012.894531 609.6875 L 1014.28125 610.53125 L 1015.667969 606.015625 L 1017.050781 599.921875 L 1018.4375 603.136719 L 1019.824219 608.800781 L 1021.210938 607.5625 L 1022.59375 596.785156 L 1023.980469 594.539062 L 1025.367188 592.617188 L 1026.75 597.207031 L 1028.136719 594.835938 L 1029.523438 594.671875 L 1030.90625 591.488281 L 1032.292969 596.515625 L 1033.679688 596.035156 L 1035.0625 599.339844 L 1036.449219 600.128906 L 1037.835938 599.164062 L 1039.21875 602.972656 L 1040.605469 603.367188 L 1041.992188 605.992188 L 1043.375 612.863281 L 1044.761719 620.777344 L 1046.148438 624.664062 L 1047.53125 623.714844 L 1048.917969 628.769531 L 1050.304688 628.1875 L 1051.6875 624.3125 L 1053.074219 615.671875 L 1054.460938 618.753906 L 1055.84375 615.03125 L 1057.230469 608.917969 L 1058.617188 604.09375 L 1060 605.242188 L 1061.386719 606.457031 L 1062.773438 607.882812 L 1064.15625 606.515625 L 1065.542969 606.582031 L 1066.929688 611.492188 L 1068.3125 615.53125 L 1069.699219 616.074219 L 1071.085938 608.585938 L 1072.472656 604.820312 L 1073.855469 605.824219 L 1075.242188 607.953125 L 1076.628906 610.367188 L 1078.011719 614.640625 L 1079.398438 618.023438 L 1080.785156 618.816406 L 1082.167969 612.753906 L 1083.554688 616.578125 L 1084.941406 619.710938 L 1086.324219 620.296875 L 1087.710938 620.71875 L 1089.097656 619.164062 L 1090.480469 615.84375 L 1091.867188 612.535156 L 1093.253906 607.773438 L 1094.636719 607.019531 L 1096.023438 613.617188 L 1097.410156 615.484375 L 1098.792969 614.828125 L 1100.179688 612.28125 L 1101.566406 614.210938 L 1102.949219 611.546875 L 1104.335938 611.734375 L 1105.722656 611.054688 L 1107.105469 618.527344 L 1108.492188 613.347656 L 1109.878906 617.148438 L 1111.261719 616.601562 L 1112.648438 620.132812 L 1114.035156 621.332031 L 1115.421875 620.089844 L 1116.804688 623.199219 L 1118.191406 626.988281 L 1119.578125 628.933594 L 1120.960938 628.726562 L 1122.347656 626.070312 L 1123.734375 626.15625 L 1125.117188 625.886719 L 1126.503906 624.476562 L 1127.890625 622.304688 L 1129.273438 619.203125 L 1130.660156 620.664062 L 1132.046875 621.882812 "/>
<path fill="none" stroke-width="1" stroke-linecap="butt" stroke-linejoin="miter" stroke="rgb(0%, 0%, 0%)" stroke-opacity="1" stroke-miterlimit="1.154701" d="M 231.5 761.5 L 231.5 766.5 "/>
<path fill="none" stroke-width="1" stroke-linecap="butt" stroke-linejoin="miter" stroke="rgb(0%, 0%, 0%)" stroke-opacity="1" stroke-miterlimit="1.154701" d="M 439.316406 761.5 L 439.316406 766.5 "/>
<path fill="none" stroke-width="1" stroke-linecap="butt" stroke-linejoin="miter" stroke="rgb(0%, 0%, 0%)" stroke-opacity="1" stroke-miterlimit="1.154701" d="M 647.136719 761.5 L 647.136719 766.5 "/>
<path fill="none" stroke-width="1" stroke-linecap="butt" stroke-linejoin="miter" stroke="rgb(0%, 0%, 0%)" stroke-opacity="1" stroke-miterlimit="1.154701" d="M 854.953125 761.5 L 854.953125 766.5 "/>
<path fill="none" stroke-width="1" stroke-linecap="butt" stroke-linejoin="miter" stroke="rgb(0%, 0%, 0%)" stroke-opacity="1" stroke-miterlimit="1.154701" d="M 1062.773438 761.5 L 1062.773438 766.5 "/>
<path fill="none" stroke-width="1" stroke-linecap="butt" stroke-linejoin="miter" stroke="rgb(0%, 0%, 0%)" stroke-opacity="1" stroke-miterlimit="1.154701" d="M 40.5 736.164062 L 35.5 736.164062 "/>
<path fill="none" stroke-width="1" stroke-linecap="butt" stroke-linejoin="miter" stroke="rgb(0%, 0%, 0%)" stroke-opacity="1" stroke-miterlimit="1.154701" d="M 40.5 544.722656 L 35.5 544.722656 "/>
<path fill="none" stroke-width="1" stroke-linecap="butt" stroke-linejoin="miter" stroke="rgb(0%, 0%, 0%)" stroke-opacity="1" stroke-miterlimit="1.154701" d="M 40.5 353.277344 L 35.5 353.277344 "/>
<path fill="none" stroke-width="1" stroke-linecap="butt" stroke-linejoin="miter" stroke="rgb(0%, 0%, 0%)" stroke-opacity="1" stroke-miterlimit="1.154701" d="M 40.5 161.835938 L 35.5 161.835938 "/>
<path fill="none" stroke-width="1" stroke-linecap="butt" stroke-linejoin="miter" stroke="rgb(0%, 0%, 0%)" stroke-opacity="1" stroke-miterlimit="1.154701" d="M 40.5 761 L 1184.5 761 "/>
<path fill="none" stroke-width="1" stroke-linecap="butt" stroke-linejoin="miter" stroke="rgb(0%, 0%, 0%)" stroke-opacity="1" stroke-miterlimit="1.154701" d="M 41 761.5 L 41 15.5 "/>
<path fill="none" stroke-width="1" stroke-linecap="butt" stroke-linejoin="miter" stroke="rgb(0%, 0%, 0%)" stroke-opacity="1" stroke-miterlimit="1.154701" d="M 40.5 16 L 1184.5 16 "/>
<path fill="none" stroke-width="1" stroke-linecap="butt" stroke-linejoin="miter" stroke="rgb(0%, 0%, 0%)" stroke-opacity="1" stroke-miterlimit="1.154701" d="M 1184 761.5 L 1184 15.5 "/>
</svg>
