<?xml version="1.0" encoding="UTF-8"?>
<svg xmlns="http://www.w3.org/2000/svg" xmlns:xlink="http://www.w3.org/1999/xlink" width="1200" height="800" viewBox="0 0 1200 800">
<defs>
<g>
<g id="glyph-0-0-cbfb7b0d">
<path d="M 7.21875 -3.03125 C 7.21875 -3.03125 0.953125 -3.03125 0.953125 -3.03125 C 0.953125 -3.03125 0.953125 -3.96875 0.953125 -3.96875 C 0.953125 -3.96875 7.21875 -3.96875 7.21875 -3.96875 C 7.21875 -3.96875 7.21875 -3.03125 7.21875 -3.03125 Z M 7.21875 -3.03125 "/>
</g>
<g id="glyph-0-1-cbfb7b0d">
<path d="M 7.09375 -4.78125 C 7.09375 -1.515625 5.953125 0.203125 3.84375 0.203125 C 1.71875 0.203125 0.609375 -1.515625 0.609375 -4.859375 C 0.609375 -8.1875 1.703125 -9.921875 3.84375 -9.921875 C 6 -9.921875 7.09375 -8.21875 7.09375 -4.78125 Z M 5.84375 -4.890625 C 5.84375 -7.546875 5.1875 -8.828125 3.84375 -8.828125 C 2.515625 -8.828125 1.859375 -7.5625 1.859375 -4.84375 C 1.859375 -2.125 2.515625 -0.8125 3.828125 -0.8125 C 5.1875 -0.8125 5.84375 -2.078125 5.84375 -4.890625 Z M 5.84375 -4.890625 "/>
</g>
<g id="glyph-0-2-cbfb7b0d">
<path d="M 2.671875 0 C 2.671875 0 1.21875 0 1.21875 0 C 1.21875 0 1.21875 -1.453125 1.21875 -1.453125 C 1.21875 -1.453125 2.671875 -1.453125 2.671875 -1.453125 C 2.671875 -1.453125 2.671875 0 2.671875 0 Z M 2.671875 0 "/>
</g>
<g id="glyph-0-3-cbfb7b0d">
<path d="M 7.078125 -2.890625 C 7.078125 -1.015625 5.765625 0.203125 3.71875 0.203125 C 1.6875 0.203125 0.609375 -0.78125 0.453125 -3 C 0.453125 -3 1.6875 -3 1.6875 -3 C 1.765625 -1.546875 2.421875 -0.875 3.765625 -0.875 C 5.046875 -0.875 5.828125 -1.625 5.828125 -2.875 C 5.828125 -3.96875 5.125 -4.625 3.765625 -4.625 C 3.765625 -4.625 3.09375 -4.625 3.09375 -4.625 C 3.09375 -4.625 3.09375 -5.65625 3.09375 -5.65625 C 5.0625 -5.65625 5.53125 -6.09375 5.53125 -7.15625 C 5.53125 -8.203125 4.875 -8.84375 3.78125 -8.84375 C 2.515625 -8.84375 1.921875 -8.1875 1.890625 -6.71875 C 1.890625 -6.71875 0.65625 -6.71875 0.65625 -6.71875 C 0.703125 -8.828125 1.765625 -9.921875 3.765625 -9.921875 C 5.65625 -9.921875 6.796875 -8.90625 6.796875 -7.203125 C 6.796875 -6.203125 6.328125 -5.5625 5.40625 -5.1875 C 6.59375 -4.78125 7.078125 -4.09375 7.078125 -2.890625 Z M 7.078125 -2.890625 "/>
</g>
<g id="glyph-0-4-cbfb7b0d">
<path d="M 7.1875 -3.078125 C 7.1875 -1.140625 5.828125 0.203125 3.9375 0.203125 C 1.671875 0.203125 0.609375 -1.421875 0.609375 -4.515625 C 0.609375 -7.984375 1.84375 -9.921875 4.15625 -9.921875 C 5.671875 -9.921875 6.734375 -8.953125 6.96875 -7.34375 C 6.96875 -7.34375 5.734375 -7.34375 5.734375 -7.34375 C 5.546875 -8.28125 4.9375 -8.828125 4.078125 -8.828125 C 2.65625 -8.828125 1.875 -7.484375 1.859375 -5.0625 C 2.390625 -5.796875 3.15625 -6.171875 4.140625 -6.171875 C 5.921875 -6.171875 7.1875 -4.921875 7.1875 -3.078125 Z M 5.921875 -2.984375 C 5.921875 -4.3125 5.1875 -5.078125 3.984375 -5.078125 C 2.765625 -5.078125 1.9375 -4.28125 1.9375 -3.046875 C 1.9375 -1.78125 2.796875 -0.875 3.953125 -0.875 C 5.078125 -0.875 5.921875 -1.734375 5.921875 -2.984375 Z M 5.921875 -2.984375 "/>
</g>
<g id="glyph-0-5-cbfb7b0d">
<path d="M 7.125 -5.1875 C 7.125 -1.765625 5.875 0.203125 3.5625 0.203125 C 2.046875 0.203125 0.984375 -0.75 0.734375 -2.375 C 0.734375 -2.375 1.96875 -2.375 1.96875 -2.375 C 2.171875 -1.421875 2.765625 -0.875 3.640625 -0.875 C 5.046875 -0.875 5.84375 -2.21875 5.859375 -4.640625 C 5.203125 -3.875 4.515625 -3.546875 3.578125 -3.546875 C 1.796875 -3.546875 0.53125 -4.78125 0.53125 -6.640625 C 0.53125 -8.578125 1.890625 -9.921875 3.78125 -9.921875 C 6.046875 -9.921875 7.125 -8.296875 7.125 -5.1875 Z M 5.78125 -6.65625 C 5.78125 -7.953125 4.90625 -8.84375 3.765625 -8.84375 C 2.625 -8.84375 1.796875 -8 1.796875 -6.734375 C 1.796875 -5.40625 2.53125 -4.640625 3.71875 -4.640625 C 4.921875 -4.640625 5.78125 -5.453125 5.78125 -6.65625 Z M 5.78125 -6.65625 "/>
</g>
<g id="glyph-0-6-cbfb7b0d">
<path d="M 4.859375 0 C 4.859375 0 3.625 0 3.625 0 C 3.625 0 3.625 -7.0625 3.625 -7.0625 C 3.625 -7.0625 1.421875 -7.0625 1.421875 -7.0625 C 1.421875 -7.0625 1.421875 -7.953125 1.421875 -7.953125 C 3.328125 -8.1875 3.609375 -8.40625 4.046875 -9.921875 C 4.046875 -9.921875 4.859375 -9.921875 4.859375 -9.921875 C 4.859375 -9.921875 4.859375 0 4.859375 0 Z M 4.859375 0 "/>
</g>
<g id="glyph-0-7-cbfb7b0d">
<path d="M 7.15625 -7.015625 C 7.15625 -5.796875 6.4375 -4.765625 5.046875 -4.015625 C 5.046875 -4.015625 3.65625 -3.265625 3.65625 -3.265625 C 2.4375 -2.546875 1.984375 -2.03125 1.859375 -1.21875 C 1.859375 -1.21875 7.078125 -1.21875 7.078125 -1.21875 C 7.078125 -1.21875 7.078125 0 7.078125 0 C 7.078125 0 0.46875 0 0.46875 0 C 0.59375 -2.1875 1.1875 -3.125 3.265625 -4.296875 C 3.265625 -4.296875 4.546875 -5.03125 4.546875 -5.03125 C 5.4375 -5.53125 5.890625 -6.203125 5.890625 -6.984375 C 5.890625 -8.046875 5.046875 -8.84375 3.9375 -8.84375 C 2.71875 -8.84375 2.03125 -8.140625 1.9375 -6.484375 C 1.9375 -6.484375 0.703125 -6.484375 0.703125 -6.484375 C 0.765625 -8.890625 1.953125 -9.921875 3.96875 -9.921875 C 5.859375 -9.921875 7.15625 -8.6875 7.15625 -7.015625 Z M 7.15625 -7.015625 "/>
</g>
</g>
</defs>
<rect x="-120" y="-80" width="1440" height="960" fill="rgb(100%, 100%, 100%)" fill-opacity="1"/>
<path fill-rule="nonzero" fill="rgb(100%, 100%, 100%)" fill-opacity="1" d="M 33 761 L 1184 761 L 1184 16 L 33 16 Z M 33 761 "/>
<path fill="none" stroke-width="1" stroke-linecap="butt" stroke-linejoin="miter" stroke="rgb(0%, 0%, 0%)" stroke-opacity="0.12" stroke-miterlimit="1.154701" d="M 224.832031 761 L 224.832031 16 "/>
<path fill="none" stroke-width="1" stroke-linecap="butt" stroke-linejoin="miter" stroke="rgb(0%, 0%, 0%)" stroke-opacity="0.12" stroke-miterlimit="1.154701" d="M 434.105469 761 L 434.105469 16 "/>
<path fill="none" stroke-width="1" stroke-linecap="butt" stroke-linejoin="miter" stroke="rgb(0%, 0%, 0%)" stroke-opacity="0.12" stroke-miterlimit="1.154701" d="M 643.378906 761 L 643.378906 16 "/>
<path fill="none" stroke-width="1" stroke-linecap="butt" stroke-linejoin="miter" stroke="rgb(0%, 0%, 0%)" stroke-opacity="0.12" stroke-miterlimit="1.154701" d="M 852.652344 761 L 852.652344 16 "/>
<path fill="none" stroke-width="1" stroke-linecap="butt" stroke-linejoin="miter" stroke="rgb(0%, 0%, 0%)" stroke-opacity="0.12" stroke-miterlimit="1.154701" d="M 1061.925781 761 L 1061.925781 16 "/>
<path fill="none" stroke-width="1" stroke-linecap="butt" stroke-linejoin="miter" stroke="rgb(0%, 0%, 0%)" stroke-opacity="0.12" stroke-miterlimit="1.154701" d="M 33 580.175781 L 1184 580.175781 "/>
<path fill="none" stroke-width="1" stroke-linecap="butt" stroke-linejoin="miter" stroke="rgb(0%, 0%, 0%)" stroke-opacity="0.12" stroke-miterlimit="1.154701" d="M 33 341.148438 L 1184 341.148438 "/>
<path fill="none" stroke-width="1" stroke-linecap="butt" stroke-linejoin="miter" stroke="rgb(0%, 0%, 0%)" stroke-opacity="0.12" stroke-miterlimit="1.154701" d="M 33 102.117188 L 1184 102.117188 "/>
<g fill="rgb(0%, 0%, 0%)" fill-opacity="1">
<use xlink:href="#glyph-0-0-cbfb7b0d" x="211.015334" y="782.258001"/>
</g>
<g fill="rgb(0%, 0%, 0%)" fill-opacity="1">
<use xlink:href="#glyph-0-1-cbfb7b0d" x="219.191333" y="782.258001"/>
</g>
<g fill="rgb(0%, 0%, 0%)" fill-opacity="1">
<use xlink:href="#glyph-0-2-cbfb7b0d" x="226.975333" y="782.258001"/>
</g>
<g fill="rgb(0%, 0%, 0%)" fill-opacity="1">
<use xlink:href="#glyph-0-3-cbfb7b0d" x="230.867333" y="782.258001"/>
</g>
<g fill="rgb(0%, 0%, 0%)" fill-opacity="1">
<use xlink:href="#glyph-0-1-cbfb7b0d" x="424.376059" y="782.258001"/>
</g>
<g fill="rgb(0%, 0%, 0%)" fill-opacity="1">
<use xlink:href="#glyph-0-2-cbfb7b0d" x="432.160059" y="782.258001"/>
</g>
<g fill="rgb(0%, 0%, 0%)" fill-opacity="1">
<use xlink:href="#glyph-0-1-cbfb7b0d" x="436.052059" y="782.258001"/>
</g>
<g fill="rgb(0%, 0%, 0%)" fill-opacity="1">
<use xlink:href="#glyph-0-1-cbfb7b0d" x="633.6488" y="782.258001"/>
</g>
<g fill="rgb(0%, 0%, 0%)" fill-opacity="1">
<use xlink:href="#glyph-0-2-cbfb7b0d" x="641.4328" y="782.258001"/>
</g>
<g fill="rgb(0%, 0%, 0%)" fill-opacity="1">
<use xlink:href="#glyph-0-3-cbfb7b0d" x="645.3248" y="782.258001"/>
</g>
<g fill="rgb(0%, 0%, 0%)" fill-opacity="1">
<use xlink:href="#glyph-0-1-cbfb7b0d" x="842.92151" y="782.258001"/>
</g>
<g fill="rgb(0%, 0%, 0%)" fill-opacity="1">
<use xlink:href="#glyph-0-2-cbfb7b0d" x="850.70551" y="782.258001"/>
</g>
<g fill="rgb(0%, 0%, 0%)" fill-opacity="1">
<use xlink:href="#glyph-0-4-cbfb7b0d" x="854.59751" y="782.258001"/>
</g>
<g fill="rgb(0%, 0%, 0%)" fill-opacity="1">
<use xlink:href="#glyph-0-1-cbfb7b0d" x="1052.19422" y="782.258001"/>
</g>
<g fill="rgb(0%, 0%, 0%)" fill-opacity="1">
<use xlink:href="#glyph-0-2-cbfb7b0d" x="1059.97822" y="782.258001"/>
</g>
<g fill="rgb(0%, 0%, 0%)" fill-opacity="1">
<use xlink:href="#glyph-0-5-cbfb7b0d" x="1063.87022" y="782.258001"/>
</g>
<g fill="rgb(0%, 0%, 0%)" fill-opacity="1">
<use xlink:href="#glyph-0-1-cbfb7b0d" x="15.216" y="585.279931"/>
</g>
<g fill="rgb(0%, 0%, 0%)" fill-opacity="1">
<use xlink:href="#glyph-0-6-cbfb7b0d" x="15.216" y="346.250563"/>
</g>
<g fill="rgb(0%, 0%, 0%)" fill-opacity="1">
<use xlink:href="#glyph-0-7-cbfb7b0d" x="15.216" y="107.221241"/>
</g>
<path fill="none" stroke-width="3" stroke-linecap="butt" stroke-linejoin="miter" stroke="rgb(0%, 44.705883%, 69.803923%)" stroke-opacity="1" stroke-miterlimit="2" d="M 85.316406 652.402344 L 86.714844 658.714844 L 88.109375 661.960938 L 89.503906 666.945312 L 90.898438 665.75 L 92.292969 667.824219 L 93.6875 669.375 L 95.085938 670.847656 L 96.480469 673.0625 L 97.875 675.84375 L 99.269531 672.035156 L 100.664062 671.617188 L 102.058594 671.234375 L 103.457031 675.726562 L 104.851562 682.679688 L 106.246094 680.140625 L 107.640625 671.316406 L 109.035156 668.171875 L 110.429688 664.453125 L 111.824219 668.402344 L 113.222656 668.574219 L 114.617188 667.03125 L 116.011719 661.601562 L 117.40625 663.09375 L 118.800781 662.683594 L 120.195312 667.699219 L 121.59375 668.5625 L 122.988281 676.109375 L 124.382812 678.40625 L 125.777344 681.4375 L 127.171875 686.816406 L 128.566406 692.847656 L 129.964844 691.109375 L 131.359375 687.953125 L 132.753906 687.199219 L 134.148438 689.539062 L 135.542969 690.285156 L 136.9375 691.605469 L 138.332031 689.515625 L 139.730469 689.546875 L 141.125 682.378906 L 142.519531 676.097656 L 143.914062 673.054688 L 145.308594 667.890625 L 146.703125 669.378906 L 148.101562 666.644531 L 149.496094 665.035156 L 150.890625 668.34375 L 152.285156 670.828125 L 153.679688 670.382812 L 155.074219 668.90625 L 156.472656 665.085938 L 157.867188 664.855469 L 159.261719 669.109375 L 160.65625 672.789062 L 162.050781 674.542969 L 163.445312 677.386719 L 164.84375 676.046875 L 166.238281 670.515625 L 167.632812 668.996094 L 169.027344 671.65625 L 170.421875 672.644531 L 171.816406 670.722656 L 173.210938 669.589844 L 174.609375 671.730469 L 176.003906 675.050781 L 177.398438 674.339844 L 178.792969 668.558594 L 180.1875 668.050781 L 181.582031 666.742188 L 182.980469 667.472656 L 184.375 664.992188 L 185.769531 665.882812 L 187.164062 663.121094 L 188.558594 657.273438 L 189.953125 659.117188 L 191.351562 660.519531 L 192.746094 666.386719 L 194.140625 670.34375 L 195.535156 671.621094 L 196.929688 673.167969 L 198.324219 679.605469 L 199.71875 679.539062 L 201.117188 679.199219 L 202.511719 681.707031 L 203.90625 682.957031 L 205.300781 683.28125 L 206.695312 683.359375 L 208.089844 685.527344 L 209.488281 684.390625 L 210.882812 680.820312 L 212.277344 674.230469 L 213.671875 676.796875 L 215.066406 682.523438 L 216.460938 681.628906 L 217.859375 682.570312 L 219.253906 682.902344 L 220.648438 677.285156 L 222.042969 677.757812 L 223.4375 675.328125 L 224.832031 671.621094 L 226.226562 669.671875 L 227.625 665.359375 L 229.019531 663.582031 L 230.414062 663.941406 L 231.808594 662.5625 L 233.203125 665.839844 L 234.597656 667.898438 L 235.996094 670.074219 L 237.390625 668.539062 L 238.785156 672.796875 L 240.179688 676.566406 L 241.574219 681.179688 L 242.96875 682.765625 L 244.367188 682.597656 L 245.761719 682.105469 L 247.15625 673.582031 L 248.550781 666.285156 L 249.945312 664.40625 L 251.339844 670.746094 L 252.738281 672.089844 L 254.132812 671.773438 L 255.527344 668.164062 L 256.921875 664.507812 L 258.316406 662.46875 L 259.710938 664.023438 L 261.105469 666.476562 L 262.503906 667.046875 L 263.898438 672.0625 L 265.292969 664.914062 L 266.6875 665.554688 L 268.082031 669.3125 L 269.476562 668.457031 L 270.875 669.074219 L 272.269531 677.230469 L 273.664062 673.65625 L 275.058594 680.757812 L 276.453125 680.683594 L 277.847656 683.792969 L 279.246094 685.886719 L 280.640625 683.773438 L 282.035156 684.574219 L 283.429688 672.140625 L 284.824219 679.972656 L 286.21875 685.226562 L 287.613281 688.488281 L 289.011719 681.722656 L 290.40625 678.90625 L 291.800781 679.90625 L 293.195312 679.171875 L 294.589844 677.503906 L 295.984375 680.605469 L 297.382812 679.9375 L 298.777344 678.664062 L 300.171875 674.363281 L 301.566406 675.296875 L 302.960938 675.433594 L 304.355469 681.171875 L 305.753906 678.640625 L 307.148438 676.125 L 308.542969 674.539062 L 309.9375 681.191406 L 311.332031 692.015625 L 312.726562 697.664062 L 314.121094 698.710938 L 315.519531 697.902344 L 316.914062 696.867188 L 318.308594 702.019531 L 319.703125 702.980469 L 321.097656 707.757812 L 322.492188 709.144531 L 323.890625 709.300781 L 325.285156 710.6875 L 326.679688 706.335938 L 328.074219 704.261719 L 329.46875 699.710938 L 330.863281 700.59375 L 332.261719 696.648438 L 333.65625 695.925781 L 335.050781 696.121094 L 336.445312 702.359375 L 337.839844 708.328125 L 339.234375 703.898438 L 340.632812 700.933594 L 342.027344 706.902344 L 343.421875 710.296875 L 344.816406 712.128906 L 346.210938 715.539062 L 347.605469 721.332031 L 349 724.128906 L 350.398438 724.511719 L 351.792969 727.136719 L 353.1875 723.433594 L 354.582031 720.527344 L 355.976562 716.109375 L 357.371094 718.644531 L 358.769531 724.785156 L 360.164062 720.421875 L 361.558594 714.871094 L 362.953125 708.449219 L 364.347656 704.648438 L 365.742188 708.128906 L 367.140625 709.363281 L 368.535156 712.589844 L 369.929688 714.105469 L 371.324219 715.394531 L 372.71875 712.851562 L 374.113281 713.773438 L 375.507812 710.839844 L 376.90625 712.597656 L 378.300781 715.289062 L 379.695312 716.988281 L 381.089844 716.941406 L 382.484375 716.714844 L 383.878906 713.957031 L 385.277344 706.398438 L 386.671875 700.890625 L 388.066406 705.703125 L 389.460938 707.230469 L 390.855469 706.144531 L 392.25 708.527344 L 393.648438 706.886719 L 395.042969 708.527344 L 396.4375 709.386719 L 397.832031 709.980469 L 399.226562 707.179688 L 400.621094 708.769531 L 402.015625 710.445312 L 403.414062 711.8125 L 404.808594 710.894531 L 406.203125 709.660156 L 407.597656 709.1875 L 408.992188 709.164062 L 410.386719 708.703125 L 411.785156 705.351562 L 413.179688 703.40625 L 414.574219 703.902344 L 415.96875 705.28125 L 417.363281 700.285156 L 418.757812 693.773438 L 420.15625 687.421875 L 421.550781 683.78125 L 422.945312 681.136719 L 424.339844 684.425781 L 425.734375 688.527344 L 427.128906 687.417969 L 428.527344 690.113281 L 429.921875 686.867188 L 431.316406 684.878906 L 432.710938 677.878906 L 434.105469 669.160156 L 435.5 663.183594 L 436.894531 658.800781 L 438.292969 657.773438 L 439.6875 651.855469 L 441.082031 655.53125 L 442.476562 667.585938 L 443.871094 678.726562 L 445.265625 680.621094 L 446.664062 685.285156 L 448.058594 692.230469 L 449.453125 693.542969 L 450.847656 691.703125 L 452.242188 686.023438 L 453.636719 678.46875 L 455.035156 679.320312 L 456.429688 678.796875 L 457.824219 673.390625 L 459.21875 672.179688 L 460.613281 669.863281 L 462.007812 665.921875 L 463.402344 663.0625 L 464.800781 654.730469 L 466.195312 644.394531 L 467.589844 636.464844 L 468.984375 627.246094 L 470.378906 619.304688 L 471.773438 610.085938 L 473.171875 602.460938 L 474.566406 598.738281 L 475.960938 598.265625 L 477.355469 598.578125 L 478.75 603.980469 L 480.144531 610.148438 L 481.542969 625.492188 L 482.9375 635.609375 L 484.332031 646.582031 L 485.726562 648.386719 L 487.121094 650.71875 L 488.515625 652.992188 L 489.914062 658.550781 L 491.308594 658.953125 L 492.703125 656.0625 L 494.097656 652.070312 L 495.492188 655.480469 L 496.886719 658.191406 L 498.28125 652.703125 L 499.679688 648.160156 L 501.074219 646.316406 L 502.46875 640.410156 L 503.863281 630.179688 L 505.257812 618.246094 L 506.652344 612.253906 L 508.050781 611.289062 L 509.445312 603.429688 L 510.839844 591.6875 L 512.234375 575.386719 L 513.628906 565.078125 L 515.023438 555.738281 L 516.421875 541.304688 L 517.816406 530.832031 L 519.210938 520.789062 L 520.605469 504.585938 L 522 489.464844 L 523.394531 478.160156 L 524.789062 463.449219 L 526.1875 453.453125 L 527.582031 443.773438 L 528.976562 438.113281 L 530.371094 429.421875 L 531.765625 424.316406 L 533.160156 422.855469 L 534.558594 413.769531 L 535.953125 403.113281 L 537.347656 393.078125 L 538.742188 384.855469 L 540.136719 373.710938 L 541.53125 369.140625 L 542.929688 360.339844 L 544.324219 349.898438 L 545.71875 335.128906 L 547.113281 314.8125 L 548.507812 294.003906 L 549.902344 271.507812 L 551.296875 248.574219 L 552.695312 230.609375 L 554.089844 213.703125 L 555.484375 190.777344 L 556.878906 174 L 558.273438 154.011719 L 559.667969 137.238281 L 561.066406 122.253906 L 562.460938 110.714844 L 563.855469 101.835938 L 565.25 98.019531 L 566.644531 89.800781 L 568.039062 78.59375 L 569.4375 73.511719 L 570.832031 68.925781 L 572.226562 64.855469 L 573.621094 60.011719 L 575.015625 61.785156 L 576.410156 62.800781 L 577.804688 57.625 L 579.203125 57.28125 L 580.597656 68.726562 L 581.992188 73.183594 L 583.386719 77.570312 L 584.78125 78.308594 L 586.175781 77.9375 L 587.574219 82.148438 L 588.96875 79.917969 L 590.363281 80.609375 L 591.757812 85.566406 L 593.152344 91.785156 L 594.546875 99.273438 L 595.945312 105.910156 L 597.339844 113.890625 L 598.734375 121.671875 L 600.128906 129.105469 L 601.523438 135.605469 L 602.917969 143.914062 L 604.316406 151.453125 L 605.710938 164.257812 L 607.105469 169.941406 L 608.5 180.089844 L 609.894531 189.242188 L 611.289062 190.152344 L 612.683594 194.675781 L 614.082031 198.671875 L 615.476562 201.398438 L 616.871094 208.996094 L 618.265625 215.765625 L 619.660156 220.714844 L 621.054688 228.476562 L 622.453125 231.101562 L 623.847656 238.351562 L 625.242188 239.453125 L 626.636719 245.800781 L 628.03125 245.675781 L 629.425781 252.140625 L 630.824219 257.65625 L 632.21875 265.191406 L 633.613281 272.683594 L 635.007812 275.832031 L 636.402344 280.144531 L 637.796875 285.96875 L 639.191406 293.75 L 640.589844 296.652344 L 641.984375 300.90625 L 643.378906 302.628906 L 644.773438 304.539062 L 646.167969 307.980469 L 647.5625 313.804688 L 648.960938 317.660156 L 650.355469 320.242188 L 651.75 327.671875 L 653.144531 327.890625 L 654.539062 332.757812 L 655.933594 338.1875 L 657.332031 341.859375 L 658.726562 338.511719 L 660.121094 337.113281 L 661.515625 342.410156 L 662.910156 346.953125 L 664.304688 355.484375 L 665.703125 359.566406 L 667.097656 360.21875 L 668.492188 365.839844 L 669.886719 364.457031 L 671.28125 368.886719 L 672.675781 368.597656 L 674.070312 363.492188 L 675.46875 365.082031 L 676.863281 369.511719 L 678.257812 369.992188 L 679.652344 377.351562 L 681.046875 376.4375 L 682.441406 378.847656 L 683.839844 385.886719 L 685.234375 382.621094 L 686.628906 378.90625 L 688.023438 378.976562 L 689.417969 375.382812 L 690.8125 379.960938 L 692.210938 382.109375 L 693.605469 387.304688 L 695 392.957031 L 696.394531 397.691406 L 697.789062 397.015625 L 699.183594 394.902344 L 700.578125 390.882812 L 701.976562 386.941406 L 703.371094 393.652344 L 704.765625 393.394531 L 706.160156 394.9375 L 707.554688 395.613281 L 708.949219 391.578125 L 710.347656 390.515625 L 711.742188 387.742188 L 713.136719 379.214844 L 714.53125 372.84375 L 715.925781 369.125 L 717.320312 368.84375 L 718.71875 372.527344 L 720.113281 372.097656 L 721.507812 370.214844 L 722.902344 371.179688 L 724.296875 371.804688 L 725.691406 369.484375 L 727.085938 370.507812 L 728.484375 369.191406 L 729.878906 371.074219 L 731.273438 368.574219 L 732.667969 369.109375 L 734.0625 369.9375 L 735.457031 367.980469 L 736.855469 376.765625 L 738.25 380.761719 L 739.644531 377.199219 L 741.039062 379.1875 L 742.433594 384.007812 L 743.828125 388.195312 L 745.226562 396.839844 L 746.621094 394.371094 L 748.015625 401.023438 L 749.410156 399.851562 L 750.804688 399.324219 L 752.199219 397.300781 L 753.59375 396.113281 L 754.992188 393.730469 L 756.386719 397.183594 L 757.78125 397.363281 L 759.175781 396.902344 L 760.570312 405.929688 L 761.964844 407.078125 L 763.363281 405.097656 L 764.757812 407.34375 L 766.152344 410.320312 L 767.546875 412.121094 L 768.941406 412.957031 L 770.335938 417 L 771.734375 417.621094 L 773.128906 422.597656 L 774.523438 424.867188 L 775.917969 429.941406 L 777.3125 435.996094 L 778.707031 443.898438 L 780.105469 445.617188 L 781.5 447.117188 L 782.894531 451.359375 L 784.289062 454.625 L 785.683594 452.726562 L 787.078125 451.675781 L 788.472656 452.402344 L 789.871094 455.925781 L 791.265625 460.535156 L 792.660156 462.796875 L 794.054688 458.691406 L 795.449219 457.550781 L 796.84375 455.667969 L 798.242188 457.734375 L 799.636719 460.921875 L 801.03125 467.445312 L 802.425781 478.101562 L 803.820312 478.585938 L 805.214844 482.414062 L 806.613281 479.75 L 808.007812 482.742188 L 809.402344 485.964844 L 810.796875 494.859375 L 812.191406 497.109375 L 813.585938 504.292969 L 814.984375 515.109375 L 816.378906 524.203125 L 817.773438 526.832031 L 819.167969 527.699219 L 820.5625 531.078125 L 821.957031 538.066406 L 823.351562 538.71875 L 824.75 542.019531 L 826.144531 543.179688 L 827.539062 542.273438 L 828.933594 541.746094 L 830.328125 544.257812 L 831.722656 540.378906 L 833.121094 542.191406 L 834.515625 540.492188 L 835.910156 538.503906 L 837.304688 540.449219 L 838.699219 540.683594 L 840.09375 538.226562 L 841.492188 535.839844 L 842.886719 545.65625 L 844.28125 549.269531 L 845.675781 546.648438 L 847.070312 548.222656 L 848.464844 554.21875 L 849.859375 559.605469 L 851.257812 563.890625 L 852.652344 559.980469 L 854.046875 564.136719 L 855.441406 567.367188 L 856.835938 574.941406 L 858.230469 575.601562 L 859.628906 575.71875 L 861.023438 582.175781 L 862.417969 584.917969 L 863.8125 588.515625 L 865.207031 589.363281 L 866.601562 590.355469 L 868 590.3125 L 869.394531 589 L 870.789062 594 L 872.183594 590.226562 L 873.578125 588.878906 L 874.972656 590.902344 L 876.367188 597.410156 L 877.765625 600.5625 L 879.160156 598.292969 L 880.554688 596.132812 L 881.949219 600.585938 L 883.34375 606.828125 L 884.738281 613.472656 L 886.136719 617.078125 L 887.53125 621.773438 L 888.925781 627.925781 L 890.320312 635.390625 L 891.714844 628.707031 L 893.109375 623.84375 L 894.507812 622.988281 L 895.902344 624.191406 L 897.296875 623.3125 L 898.691406 625.140625 L 900.085938 623.425781 L 901.480469 621.332031 L 902.875 626.671875 L 904.273438 624.761719 L 905.667969 623.28125 L 907.0625 621.449219 L 908.457031 622.703125 L 909.851562 626.503906 L 911.246094 632.335938 L 912.644531 634.625 L 914.039062 638.929688 L 915.433594 638.265625 L 916.828125 633.890625 L 918.222656 636.914062 L 919.617188 640.050781 L 921.015625 647.042969 L 922.410156 637.097656 L 923.804688 639.035156 L 925.199219 640.292969 L 926.59375 641.398438 L 927.988281 640.40625 L 929.382812 640.328125 L 930.78125 642.507812 L 932.175781 643.285156 L 933.570312 649.972656 L 934.964844 650.671875 L 936.359375 648.179688 L 937.753906 650.652344 L 939.152344 645.285156 L 940.546875 645.230469 L 941.941406 648.742188 L 943.335938 645.128906 L 944.730469 643.675781 L 946.125 637.476562 L 947.523438 634.980469 L 948.917969 637.621094 L 950.3125 639.476562 L 951.707031 640.710938 L 953.101562 640.257812 L 954.496094 637.628906 L 955.894531 639.863281 L 957.289062 644.144531 L 958.683594 652.503906 L 960.078125 654.234375 L 961.472656 661.726562 L 962.867188 655.015625 L 964.261719 658.855469 L 965.660156 659.378906 L 967.054688 657.707031 L 968.449219 660.675781 L 969.84375 662.421875 L 971.238281 662.042969 L 972.632812 666.894531 L 974.03125 666.679688 L 975.425781 665.015625 L 976.820312 663.402344 L 978.214844 663.648438 L 979.609375 662.347656 L 981.003906 663.671875 L 982.402344 663.949219 L 983.796875 660.957031 L 985.191406 664.324219 L 986.585938 665.632812 L 987.980469 663.808594 L 989.375 668.070312 L 990.773438 667.296875 L 992.167969 671.980469 L 993.5625 674.578125 L 994.957031 673.296875 L 996.351562 670.621094 L 997.746094 673.515625 L 999.140625 680.945312 L 1000.539062 683.695312 L 1001.933594 687.382812 L 1003.328125 691.441406 L 1004.722656 688.964844 L 1006.117188 691.484375 L 1007.511719 686.742188 L 1008.910156 687.882812 L 1010.304688 683.160156 L 1011.699219 679.460938 L 1013.09375 679.824219 L 1014.488281 677.097656 L 1015.882812 675.824219 L 1017.28125 679.558594 L 1018.675781 678.136719 L 1020.070312 676.828125 L 1021.464844 672.421875 L 1022.859375 669.332031 L 1024.253906 665.429688 L 1025.648438 666.320312 L 1027.046875 665.003906 L 1028.441406 664.386719 L 1029.835938 665.207031 L 1031.230469 669.140625 L 1032.625 663.78125 L 1034.019531 662.746094 L 1035.417969 663.523438 L 1036.8125 670.167969 L 1038.207031 672.691406 L 1039.601562 668.53125 L 1040.996094 671.074219 L 1042.390625 673.875 L 1043.789062 671.566406 L 1045.183594 670.84375 L 1046.578125 670.175781 L 1047.972656 673.542969 L 1049.367188 676.523438 L 1050.761719 678.804688 L 1052.15625 672.433594 L 1053.554688 672.160156 L 1054.949219 672.023438 L 1056.34375 680.820312 L 1057.738281 684.933594 L 1059.132812 686.589844 L 1060.527344 689.617188 L 1061.925781 690.425781 L 1063.320312 695.828125 L 1064.714844 697.703125 L 1066.109375 698.34375 L 1067.503906 698.304688 L 1068.898438 693.457031 L 1070.296875 693.21875 L 1071.691406 690.207031 L 1073.085938 685.148438 L 1074.480469 683.574219 L 1075.875 683.398438 L 1077.269531 680.621094 L 1078.664062 681.371094 L 1080.0625 678.796875 L 1081.457031 680.902344 L 1082.851562 681.953125 L 1084.246094 685.707031 L 1085.640625 686.59375 L 1087.035156 684.085938 L 1088.433594 687.578125 L 1089.828125 684.378906 L 1091.222656 685.800781 L 1092.617188 687.410156 L 1094.011719 687.734375 L 1095.40625 689.503906 L 1096.804688 689.632812 L 1098.199219 688.023438 L 1099.59375 682.933594 L 1100.988281 682.203125 L 1102.382812 683.605469 L 1103.777344 675.652344 L 1105.175781 673.371094 L 1106.570312 674.605469 L 1107.964844 677.691406 L 1109.359375 678.628906 L 1110.753906 675.113281 L 1112.148438 673.851562 L 1113.542969 669.578125 L 1114.941406 669.746094 L 1116.335938 674.035156 L 1117.730469 672.839844 L 1119.125 675.183594 L 1120.519531 678.859375 L 1121.914062 676.179688 L 1123.3125 676.75 L 1124.707031 675.53125 L 1126.101562 679.707031 L 1127.496094 683.605469 L 1128.890625 683.640625 L 1130.285156 677.710938 L 1131.683594 675.117188 "/>
<path fill="none" stroke-width="3" stroke-linecap="butt" stroke-linejoin="miter" stroke="rgb(90.196079%, 62.352943%, 0%)" stroke-opacity="1" stroke-miterlimit="2" d="M 85.316406 695.039062 L 86.714844 690.382812 L 88.109375 687.53125 L 89.503906 694.941406 L 90.898438 699.09375 L 92.292969 700.578125 L 93.6875 699.898438 L 95.085938 701.328125 L 96.480469 696.894531 L 97.875 694.386719 L 99.269531 691.824219 L 100.664062 693.265625 L 102.058594 690.449219 L 103.457031 692.167969 L 104.851562 694.582031 L 106.246094 692.375 L 107.640625 693.976562 L 109.035156 697.894531 L 110.429688 695.300781 L 111.824219 691.90625 L 113.222656 688.519531 L 114.617188 690.535156 L 116.011719 691.007812 L 117.40625 690.789062 L 118.800781 695.367188 L 120.195312 694.3125 L 121.59375 692.253906 L 122.988281 691.136719 L 124.382812 694.480469 L 125.777344 694.957031 L 127.171875 699.414062 L 128.566406 695.710938 L 129.964844 698.378906 L 131.359375 710.125 L 132.753906 711.816406 L 134.148438 713.832031 L 135.542969 708.34375 L 136.9375 707.410156 L 138.332031 714.976562 L 139.730469 718.304688 L 141.125 715.226562 L 142.519531 713.210938 L 143.914062 711.953125 L 145.308594 717.492188 L 146.703125 715.164062 L 148.101562 711.703125 L 149.496094 706.554688 L 150.890625 704.027344 L 152.285156 705.488281 L 153.679688 704.132812 L 155.074219 704.820312 L 156.472656 707.296875 L 157.867188 710.253906 L 159.261719 712.554688 L 160.65625 714.34375 L 162.050781 714.320312 L 163.445312 716.863281 L 164.84375 709.367188 L 166.238281 699.394531 L 167.632812 696.398438 L 169.027344 688.773438 L 170.421875 689.570312 L 171.816406 687.324219 L 173.210938 683.105469 L 174.609375 681.777344 L 176.003906 681.492188 L 177.398438 679.753906 L 178.792969 679.722656 L 180.1875 688.308594 L 181.582031 684.941406 L 182.980469 686.003906 L 184.375 681.3125 L 185.769531 687.128906 L 187.164062 686.964844 L 188.558594 688.527344 L 189.953125 692.257812 L 191.351562 696.746094 L 192.746094 699.816406 L 194.140625 701.222656 L 195.535156 703.113281 L 196.929688 703.117188 L 198.324219 701.113281 L 199.71875 702.371094 L 201.117188 698.703125 L 202.511719 698.925781 L 203.90625 700.351562 L 205.300781 700.449219 L 206.695312 705.242188 L 208.089844 705.347656 L 209.488281 706.507812 L 210.882812 705.066406 L 212.277344 699.476562 L 213.671875 700.378906 L 215.066406 703.015625 L 216.460938 703.71875 L 217.859375 700.628906 L 219.253906 698.058594 L 220.648438 698.578125 L 222.042969 697.851562 L 223.4375 696.789062 L 224.832031 696.289062 L 226.226562 702.640625 L 227.625 700.734375 L 229.019531 704.542969 L 230.414062 702.824219 L 231.808594 705.722656 L 233.203125 699.796875 L 234.597656 692.738281 L 235.996094 694.792969 L 237.390625 695.273438 L 238.785156 698.480469 L 240.179688 705.695312 L 241.574219 708.671875 L 242.96875 707.847656 L 244.367188 707.070312 L 245.761719 699.90625 L 247.15625 694.917969 L 248.550781 694.035156 L 249.945312 694.351562 L 251.339844 690.9375 L 252.738281 688.492188 L 254.132812 689.675781 L 255.527344 692.355469 L 256.921875 697.628906 L 258.316406 702.457031 L 259.710938 709.53125 L 261.105469 714.207031 L 262.503906 719.320312 L 263.898438 719.429688 L 265.292969 711.125 L 266.6875 711.414062 L 268.082031 710.871094 L 269.476562 715.621094 L 270.875 721.390625 L 272.269531 717.390625 L 273.664062 716.777344 L 275.058594 711.71875 L 276.453125 718.109375 L 277.847656 722.34375 L 279.246094 719.871094 L 280.640625 719.582031 L 282.035156 711.472656 L 283.429688 712.085938 L 284.824219 709.960938 L 286.21875 713.320312 L 287.613281 720.210938 L 289.011719 717.425781 L 290.40625 715.347656 L 291.800781 715.011719 L 293.195312 707.320312 L 294.589844 704.363281 L 295.984375 704.296875 L 297.382812 704.550781 L 298.777344 703.34375 L 300.171875 705.0625 L 301.566406 706.792969 L 302.960938 708.382812 L 304.355469 713.632812 L 305.753906 713.402344 L 307.148438 709.949219 L 308.542969 711.9375 L 309.9375 712.46875 L 311.332031 714 L 312.726562 718.421875 L 314.121094 717.164062 L 315.519531 715.78125 L 316.914062 717.84375 L 318.308594 714.777344 L 319.703125 713.289062 L 321.097656 711.746094 L 322.492188 707.414062 L 323.890625 706.421875 L 325.285156 708.078125 L 326.679688 704.390625 L 328.074219 705.488281 L 329.46875 699.640625 L 330.863281 700.015625 L 332.261719 704.59375 L 333.65625 706.625 L 335.050781 707.472656 L 336.445312 707.089844 L 337.839844 709 L 339.234375 706.316406 L 340.632812 707.433594 L 342.027344 707.300781 L 343.421875 707.78125 L 344.816406 708.230469 L 346.210938 707.386719 L 347.605469 713.199219 L 349 713.617188 L 350.398438 712.824219 L 351.792969 715.164062 L 353.1875 711.128906 L 354.582031 704.871094 L 355.976562 704.878906 L 357.371094 706.660156 L 358.769531 712.371094 L 360.164062 714.945312 L 361.558594 711.632812 L 362.953125 707.71875 L 364.347656 701.199219 L 365.742188 701.785156 L 367.140625 704.316406 L 368.535156 705.25 L 369.929688 705.355469 L 371.324219 704.730469 L 372.71875 704.191406 L 374.113281 701.542969 L 375.507812 699.890625 L 376.90625 697.691406 L 378.300781 702.792969 L 379.695312 705.558594 L 381.089844 705.964844 L 382.484375 706.800781 L 383.878906 707.84375 L 385.277344 710.578125 L 386.671875 704.769531 L 388.066406 702.722656 L 389.460938 699.324219 L 390.855469 701.675781 L 392.25 705.898438 L 393.648438 709.671875 L 395.042969 708.011719 L 396.4375 703.792969 L 397.832031 700.464844 L 399.226562 699.554688 L 400.621094 700.25 L 402.015625 709.683594 L 403.414062 707.578125 L 404.808594 697.871094 L 406.203125 690.992188 L 407.597656 685.648438 L 408.992188 687.109375 L 410.386719 688.6875 L 411.785156 681.996094 L 413.179688 681.90625 L 414.574219 684.597656 L 415.96875 689.644531 L 417.363281 691.09375 L 418.757812 681.554688 L 420.15625 671.996094 L 421.550781 664.691406 L 422.945312 660.945312 L 424.339844 656.644531 L 425.734375 659.058594 L 427.128906 658.859375 L 428.527344 657.644531 L 429.921875 654.679688 L 431.316406 654.195312 L 432.710938 649.800781 L 434.105469 642.097656 L 435.5 637.613281 L 436.894531 632.234375 L 438.292969 626.660156 L 439.6875 628.148438 L 441.082031 633.011719 L 442.476562 643.46875 L 443.871094 656.105469 L 445.265625 658.109375 L 446.664062 660.246094 L 448.058594 658.71875 L 449.453125 653.941406 L 450.847656 655.46875 L 452.242188 656.84375 L 453.636719 652.664062 L 455.035156 656.917969 L 456.429688 657.765625 L 457.824219 659.773438 L 459.21875 661.445312 L 460.613281 659.121094 L 462.007812 655.824219 L 463.402344 649.511719 L 464.800781 644 L 466.195312 632.300781 L 467.589844 618.109375 L 468.984375 602.847656 L 470.378906 593.613281 L 471.773438 586.402344 L 473.171875 581.816406 L 474.566406 578.390625 L 475.960938 575.082031 L 477.355469 567.402344 L 478.75 571.378906 L 480.144531 576.648438 L 481.542969 590.257812 L 482.9375 600.421875 L 484.332031 612.640625 L 485.726562 615.945312 L 487.121094 621.085938 L 488.515625 627.011719 L 489.914062 631.242188 L 491.308594 632.730469 L 492.703125 631.472656 L 494.097656 625.8125 L 495.492188 618.636719 L 496.886719 613.632812 L 498.28125 605.570312 L 499.679688 601.34375 L 501.074219 595.644531 L 502.46875 589.421875 L 503.863281 580.375 L 505.257812 578.566406 L 506.652344 564.78125 L 508.050781 556.113281 L 509.445312 540.152344 L 510.839844 525.5625 L 512.234375 522.355469 L 513.628906 517.214844 L 515.023438 503.535156 L 516.421875 492.460938 L 517.816406 483.058594 L 519.210938 473.46875 L 520.605469 463.667969 L 522 455.996094 L 523.394531 442.976562 L 524.789062 436.367188 L 526.1875 433.742188 L 527.582031 429.375 L 528.976562 419.5 L 530.371094 405.441406 L 531.765625 394.234375 L 533.160156 380.273438 L 534.558594 373.234375 L 535.953125 368.03125 L 537.347656 358.984375 L 538.742188 351.039062 L 540.136719 339.273438 L 541.53125 324.648438 L 542.929688 315.234375 L 544.324219 305.789062 L 545.71875 297.082031 L 547.113281 281.492188 L 548.507812 263.574219 L 549.902344 243.613281 L 551.296875 227.8125 L 552.695312 210.628906 L 554.089844 194.003906 L 555.484375 175.746094 L 556.878906 160.574219 L 558.273438 143.089844 L 559.667969 126.886719 L 561.066406 114 L 562.460938 96.761719 L 563.855469 80.351562 L 565.25 68.8125 L 566.644531 62.851562 L 568.039062 55.332031 L 569.4375 51.859375 L 570.832031 51.769531 L 572.226562 49.863281 L 573.621094 50.164062 L 575.015625 50.542969 L 576.410156 57 L 577.804688 59.296875 L 579.203125 65.953125 L 580.597656 65 L 581.992188 71.507812 L 583.386719 72.25 L 584.78125 77.210938 L 586.175781 85.410156 L 587.574219 88.617188 L 588.96875 89.746094 L 590.363281 87.765625 L 591.757812 93.511719 L 593.152344 95.035156 L 594.546875 94.429688 L 595.945312 96.371094 L 597.339844 100.914062 L 598.734375 109.671875 L 600.128906 115.550781 L 601.523438 118.785156 L 602.917969 124.21875 L 604.316406 132.027344 L 605.710938 141.558594 L 607.105469 154.148438 L 608.5 158.679688 L 609.894531 163.9375 L 611.289062 171.8125 L 612.683594 177.441406 L 614.082031 183.136719 L 615.476562 190.195312 L 616.871094 194.421875 L 618.265625 200.191406 L 619.660156 205.664062 L 621.054688 208.875 L 622.453125 215.800781 L 623.847656 215.464844 L 625.242188 216.363281 L 626.636719 215.824219 L 628.03125 219.097656 L 629.425781 226.519531 L 630.824219 234.347656 L 632.21875 236.714844 L 633.613281 239.898438 L 635.007812 242.429688 L 636.402344 246.875 L 637.796875 252.089844 L 639.191406 256.839844 L 640.589844 266.65625 L 641.984375 273.203125 L 643.378906 274.578125 L 644.773438 279.472656 L 646.167969 279.824219 L 647.5625 283.640625 L 648.960938 281.738281 L 650.355469 279.226562 L 651.75 271.082031 L 653.144531 273.84375 L 654.539062 276.5625 L 655.933594 284.867188 L 657.332031 288.695312 L 658.726562 289.359375 L 660.121094 293.390625 L 661.515625 291.855469 L 662.910156 295.667969 L 664.304688 293.3125 L 665.703125 293.566406 L 667.097656 294.367188 L 668.492188 295.175781 L 669.886719 301.769531 L 671.28125 304.5 L 672.675781 305.417969 L 674.070312 307.957031 L 675.46875 313.175781 L 676.863281 318.339844 L 678.257812 318.070312 L 679.652344 324.605469 L 681.046875 329.097656 L 682.441406 331.753906 L 683.839844 337.171875 L 685.234375 335.164062 L 686.628906 336.578125 L 688.023438 332.863281 L 689.417969 335.355469 L 690.8125 337.921875 L 692.210938 344.203125 L 693.605469 347.691406 L 695 351.398438 L 696.394531 353.144531 L 697.789062 345.273438 L 699.183594 344.675781 L 700.578125 345.613281 L 701.976562 351.4375 L 703.371094 355.605469 L 704.765625 356.085938 L 706.160156 352.09375 L 707.554688 350.441406 L 708.949219 353.160156 L 710.347656 358.882812 L 711.742188 364 L 713.136719 363.691406 L 714.53125 361.675781 L 715.925781 356.203125 L 717.320312 353.800781 L 718.71875 354.355469 L 720.113281 357.066406 L 721.507812 360.125 L 722.902344 358.605469 L 724.296875 354.386719 L 725.691406 351.007812 L 727.085938 345.816406 L 728.484375 344.382812 L 729.878906 345.289062 L 731.273438 354.71875 L 732.667969 352.171875 L 734.0625 353.078125 L 735.457031 358.429688 L 736.855469 358.59375 L 738.25 358.605469 L 739.644531 363.210938 L 741.039062 358.726562 L 742.433594 356.695312 L 743.828125 356.941406 L 745.226562 361.0625 L 746.621094 366.4375 L 748.015625 369.992188 L 749.410156 378.105469 L 750.804688 388.761719 L 752.199219 387.421875 L 753.59375 383.558594 L 754.992188 382.78125 L 756.386719 384.015625 L 757.78125 383.179688 L 759.175781 383.015625 L 760.570312 379.597656 L 761.964844 379.707031 L 763.363281 378.882812 L 764.757812 379.621094 L 766.152344 375.292969 L 767.546875 376.160156 L 768.941406 385.105469 L 770.335938 384.441406 L 771.734375 383.660156 L 773.128906 383.46875 L 774.523438 384.933594 L 775.917969 389.488281 L 777.3125 396.917969 L 778.707031 401.738281 L 780.105469 399.511719 L 781.5 403.386719 L 782.894531 405.992188 L 784.289062 407.515625 L 785.683594 411.191406 L 787.078125 416.707031 L 788.472656 420.511719 L 789.871094 421.472656 L 791.265625 424.417969 L 792.660156 420.703125 L 794.054688 421.820312 L 795.449219 427.613281 L 796.84375 432.519531 L 798.242188 436.3125 L 799.636719 440.339844 L 801.03125 440.675781 L 802.425781 441.699219 L 803.820312 448.699219 L 805.214844 454.261719 L 806.613281 460.675781 L 808.007812 469.402344 L 809.402344 475.214844 L 810.796875 476.417969 L 812.191406 480.675781 L 813.585938 483.089844 L 814.984375 483.921875 L 816.378906 487.03125 L 817.773438 493.171875 L 819.167969 494.503906 L 820.5625 500.75 L 821.957031 502.875 L 823.351562 508.046875 L 824.75 509.804688 L 826.144531 511.535156 L 827.539062 511.160156 L 828.933594 512.621094 L 830.328125 516.957031 L 831.722656 519.40625 L 833.121094 523.441406 L 834.515625 524.726562 L 835.910156 526.203125 L 837.304688 527.160156 L 838.699219 530.347656 L 840.09375 535.167969 L 841.492188 537.875 L 842.886719 540.285156 L 844.28125 544.546875 L 845.675781 548.210938 L 847.070312 550.570312 L 848.464844 552.46875 L 849.859375 553.976562 L 851.257812 553.863281 L 852.652344 554.902344 L 854.046875 554.191406 L 855.441406 560.730469 L 856.835938 562.007812 L 858.230469 562.414062 L 859.628906 561.632812 L 861.023438 566.0625 L 862.417969 564.480469 L 863.8125 570.746094 L 865.207031 574.363281 L 866.601562 572.078125 L 868 569.496094 L 869.394531 567.992188 L 870.789062 571.945312 L 872.183594 575.265625 L 873.578125 571.824219 L 874.972656 567.355469 L 876.367188 567.6875 L 877.765625 570.117188 L 879.160156 566.570312 L 880.554688 572.75 L 881.949219 582.117188 L 883.34375 588.492188 L 884.738281 595.351562 L 886.136719 596.949219 L 887.53125 596.125 L 888.925781 602.089844 L 890.320312 612.167969 L 891.714844 607.519531 L 893.109375 601.640625 L 894.507812 600.011719 L 895.902344 602.722656 L 897.296875 599.09375 L 898.691406 589.492188 L 900.085938 592.554688 L 901.480469 592.808594 L 902.875 597.367188 L 904.273438 597.628906 L 905.667969 596.980469 L 907.0625 602.917969 L 908.457031 600.707031 L 909.851562 605 L 911.246094 606.726562 L 912.644531 605.871094 L 914.039062 606.886719 L 915.433594 610.308594 L 916.828125 612.539062 L 918.222656 612.507812 L 919.617188 611.613281 L 921.015625 607.871094 L 922.410156 613.519531 L 923.804688 615.566406 L 925.199219 619.652344 L 926.59375 621.566406 L 927.988281 625.511719 L 929.382812 625.167969 L 930.78125 629.289062 L 932.175781 628.535156 L 933.570312 626.75 L 934.964844 622.378906 L 936.359375 618.835938 L 937.753906 615.445312 L 939.152344 619.914062 L 940.546875 626.664062 L 941.941406 629.632812 L 943.335938 632.144531 L 944.730469 632.867188 L 946.125 635.082031 L 947.523438 632.9375 L 948.917969 634.132812 L 950.3125 629.859375 L 951.707031 629.578125 L 953.101562 630.980469 L 954.496094 633.089844 L 955.894531 630.460938 L 957.289062 633.058594 L 958.683594 631.621094 L 960.078125 629.433594 L 961.472656 632.964844 L 962.867188 639.769531 L 964.261719 640.683594 L 965.660156 642.171875 L 967.054688 644.136719 L 968.449219 643.976562 L 969.84375 647.296875 L 971.238281 640.8125 L 972.632812 633.441406 L 974.03125 630.589844 L 975.425781 636.335938 L 976.820312 638.816406 L 978.214844 641.769531 L 979.609375 641.585938 L 981.003906 639.53125 L 982.402344 637.007812 L 983.796875 640.070312 L 985.191406 635.386719 L 986.585938 637.734375 L 987.980469 634.550781 L 989.375 637.789062 L 990.773438 638.785156 L 992.167969 640.320312 L 993.5625 648.019531 L 994.957031 648.976562 L 996.351562 650.816406 L 997.746094 652.023438 L 999.140625 649.425781 L 1000.539062 653.5 L 1001.933594 648.324219 L 1003.328125 645.171875 L 1004.722656 651.273438 L 1006.117188 652.515625 L 1007.511719 655.867188 L 1008.910156 665.328125 L 1010.304688 664.894531 L 1011.699219 666.710938 L 1013.09375 666.171875 L 1014.488281 669.90625 L 1015.882812 678.445312 L 1017.28125 683.03125 L 1018.675781 687.492188 L 1020.070312 686.15625 L 1021.464844 686.847656 L 1022.859375 685.753906 L 1024.253906 684.828125 L 1025.648438 685.652344 L 1027.046875 688.84375 L 1028.441406 687.320312 L 1029.835938 685.480469 L 1031.230469 683.9375 L 1032.625 678.488281 L 1034.019531 685.847656 L 1035.417969 695.609375 L 1036.8125 697.992188 L 1038.207031 695.886719 L 1039.601562 690.277344 L 1040.996094 687.835938 L 1042.390625 686.277344 L 1043.789062 692.210938 L 1045.183594 693.808594 L 1046.578125 700.40625 L 1047.972656 698.117188 L 1049.367188 693.597656 L 1050.761719 691.015625 L 1052.15625 690.609375 L 1053.554688 686.964844 L 1054.949219 685.25 L 1056.34375 680.070312 L 1057.738281 682.304688 L 1059.132812 682.851562 L 1060.527344 679.496094 L 1061.925781 671.773438 L 1063.320312 658.296875 L 1064.714844 652.136719 L 1066.109375 651.246094 L 1067.503906 655.976562 L 1068.898438 656.773438 L 1070.296875 656.191406 L 1071.691406 656.578125 L 1073.085938 651.6875 L 1074.480469 654.628906 L 1075.875 659.527344 L 1077.269531 661 L 1078.664062 664.289062 L 1080.0625 665.332031 L 1081.457031 673.019531 L 1082.851562 674.914062 L 1084.246094 671.84375 L 1085.640625 674.710938 L 1087.035156 667.75 L 1088.433594 670.382812 L 1089.828125 665.441406 L 1091.222656 662.171875 L 1092.617188 659.019531 L 1094.011719 663.199219 L 1095.40625 663.691406 L 1096.804688 660.453125 L 1098.199219 660.601562 L 1099.59375 658.996094 L 1100.988281 658.632812 L 1102.382812 657.757812 L 1103.777344 661.230469 L 1105.175781 661.609375 L 1106.570312 661.46875 L 1107.964844 662.589844 L 1109.359375 668.421875 L 1110.753906 667.09375 L 1112.148438 670.816406 L 1113.542969 669.882812 L 1114.941406 670.511719 L 1116.335938 679.628906 L 1117.730469 687.109375 L 1119.125 684.3125 L 1120.519531 679.875 L 1121.914062 677.328125 L 1123.3125 673.878906 L 1124.707031 674.296875 L 1126.101562 671.003906 L 1127.496094 666.78125 L 1128.890625 669.5625 L 1130.285156 674.832031 L 1131.683594 673.34375 "/>
<path fill="none" stroke-width="1" stroke-linecap="butt" stroke-linejoin="miter" stroke="rgb(0%, 0%, 0%)" stroke-opacity="1" stroke-miterlimit="1.154701" d="M 224.832031 761.5 L 224.832031 766.5 "/>
<path fill="none" stroke-width="1" stroke-linecap="butt" stroke-linejoin="miter" stroke="rgb(0%, 0%, 0%)" stroke-opacity="1" stroke-miterlimit="1.154701" d="M 434.105469 761.5 L 434.105469 766.5 "/>
<path fill="none" stroke-width="1" stroke-linecap="butt" stroke-linejoin="miter" stroke="rgb(0%, 0%, 0%)" stroke-opacity="1" stroke-miterlimit="1.154701" d="M 643.378906 761.5 L 643.378906 766.5 "/>
<path fill="none" stroke-width="1" stroke-linecap="butt" stroke-linejoin="miter" stroke="rgb(0%, 0%, 0%)" stroke-opacity="1" stroke-miterlimit="1.154701" d="M 852.652344 761.5 L 852.652344 766.5 "/>
<path fill="none" stroke-width="1" stroke-linecap="butt" stroke-linejoin="miter" stroke="rgb(0%, 0%, 0%)" stroke-opacity="1" stroke-miterlimit="1.154701" d="M 1061.925781 761.5 L 1061.925781 766.5 "/>
<path fill="none" stroke-width="1" stroke-linecap="butt" stroke-linejoin="miter" stroke="rgb(0%, 0%, 0%)" stroke-opacity="1" stroke-miterlimit="1.154701" d="M 32.5 580.175781 L 27.5 580.175781 "/>
<path fill="none" stroke-width="1" stroke-linecap="butt" stroke-linejoin="miter" stroke="rgb(0%, 0%, 0%)" stroke-opacity="1" stroke-miterlimit="1.154701" d="M 32.5 341.148438 L 27.5 341.148438 "/>
<path fill="none" stroke-width="1" stroke-linecap="butt" stroke-linejoin="miter" stroke="rgb(0%, 0%, 0%)" stroke-opacity="1" stroke-miterlimit="1.154701" d="M 32.5 102.117188 L 27.5 102.117188 "/>
<path fill="none" stroke-width="1" stroke-linecap="butt" stroke-linejoin="miter" stroke="rgb(0%, 0%, 0%)" stroke-opacity="1" stroke-miterlimit="1.154701" d="M 32.5 761 L 1184.5 761 "/>
<path fill="none" stroke-width="1" stroke-linecap="butt" stroke-linejoin="miter" stroke="rgb(0%, 0%, 0%)" stroke-opacity="1" stroke-miterlimit="1.154701" d="M 33 761.5 L 33 15.5 "/>
<path fill="none" stroke-width="1" stroke-linecap="butt" stroke-linejoin="miter" stroke="rgb(0%, 0%, 0%)" stroke-opacity="1" stroke-miterlimit="1.154701" d="M 32.5 16 L 1184.5 16 "/>
<path fill="none" stroke-width="1" stroke-linecap="butt" stroke-linejoin="miter" stroke="rgb(0%, 0%, 0%)" stroke-opacity="1" stroke-miterlimit="1.154701" d="M 1184 761.5 L 1184 15.5 "/>
</svg>
