<?xml version="1.0" encoding="UTF-8"?>
<svg xmlns="http://www.w3.org/2000/svg" xmlns:xlink="http://www.w3.org/1999/xlink" width="1200" height="800" viewBox="0 0 1200 800">
<defs>
<g>
<g id="glyph-0-0-80ff17da">
<path d="M 7.21875 -3.03125 C 7.21875 -3.03125 0.953125 -3.03125 0.953125 -3.03125 C 0.953125 -3.03125 0.953125 -3.96875 0.953125 -3.96875 C 0.953125 -3.96875 7.21875 -3.96875 7.21875 -3.96875 C 7.21875 -3.96875 7.21875 -3.03125 7.21875 -3.03125 Z M 7.21875 -3.03125 "/>
</g>
<g id="glyph-0-1-80ff17da">
<path d="M 7.09375 -4.78125 C 7.09375 -1.515625 5.953125 0.203125 3.84375 0.203125 C 1.71875 0.203125 0.609375 -1.515625 0.609375 -4.859375 C 0.609375 -8.1875 1.703125 -9.921875 3.84375 -9.921875 C 6 -9.921875 7.09375 -8.21875 7.09375 -4.78125 Z M 5.84375 -4.890625 C 5.84375 -7.546875 5.1875 -8.828125 3.84375 -8.828125 C 2.515625 -8.828125 1.859375 -7.5625 1.859375 -4.84375 C 1.859375 -2.125 2.515625 -0.8125 3.828125 -0.8125 C 5.1875 -0.8125 5.84375 -2.078125 5.84375 -4.890625 Z M 5.84375 -4.890625 "/>
</g>
<g id="glyph-0-2-80ff17da">
<path d="M 2.671875 0 C 2.671875 0 1.21875 0 1.21875 0 C 1.21875 0 1.21875 -1.453125 1.21875 -1.453125 C 1.21875 -1.453125 2.671875 -1.453125 2.671875 -1.453125 C 2.671875 -1.453125 2.671875 0 2.671875 0 Z M 2.671875 0 "/>
</g>
<g id="glyph-0-3-80ff17da">
<path d="M 7.078125 -2.890625 C 7.078125 -1.015625 5.765625 0.203125 3.71875 0.203125 C 1.6875 0.203125 0.609375 -0.78125 0.453125 -3 C 0.453125 -3 1.6875 -3 1.6875 -3 C 1.765625 -1.546875 2.421875 -0.875 3.765625 -0.875 C 5.046875 -0.875 5.828125 -1.625 5.828125 -2.875 C 5.828125 -3.96875 5.125 -4.625 3.765625 -4.625 C 3.765625 -4.625 3.09375 -4.625 3.09375 -4.625 C 3.09375 -4.625 3.09375 -5.65625 3.09375 -5.65625 C 5.0625 -5.65625 5.53125 -6.09375 5.53125 -7.15625 C 5.53125 -8.203125 4.875 -8.84375 3.78125 -8.84375 C 2.515625 -8.84375 1.921875 -8.1875 1.890625 -6.71875 C 1.890625 -6.71875 0.65625 -6.71875 0.65625 -6.71875 C 0.703125 -8.828125 1.765625 -9.921875 3.765625 -9.921875 C 5.65625 -9.921875 6.796875 -8.90625 6.796875 -7.203125 C 6.796875 -6.203125 6.328125 -5.5625 5.40625 -5.1875 C 6.59375 -4.78125 7.078125 -4.09375 7.078125 -2.890625 Z M 7.078125 -2.890625 "/>
</g>
<g id="glyph-0-4-80ff17da">
<path d="M 7.1875 -3.078125 C 7.1875 -1.140625 5.828125 0.203125 3.9375 0.203125 C 1.671875 0.203125 0.609375 -1.421875 0.609375 -4.515625 C 0.609375 -7.984375 1.84375 -9.921875 4.15625 -9.921875 C 5.671875 -9.921875 6.734375 -8.953125 6.96875 -7.34375 C 6.96875 -7.34375 5.734375 -7.34375 5.734375 -7.34375 C 5.546875 -8.28125 4.9375 -8.828125 4.078125 -8.828125 C 2.65625 -8.828125 1.875 -7.484375 1.859375 -5.0625 C 2.390625 -5.796875 3.15625 -6.171875 4.140625 -6.171875 C 5.921875 -6.171875 7.1875 -4.921875 7.1875 -3.078125 Z M 5.921875 -2.984375 C 5.921875 -4.3125 5.1875 -5.078125 3.984375 -5.078125 C 2.765625 -5.078125 1.9375 -4.28125 1.9375 -3.046875 C 1.9375 -1.78125 2.796875 -0.875 3.953125 -0.875 C 5.078125 -0.875 5.921875 -1.734375 5.921875 -2.984375 Z M 5.921875 -2.984375 "/>
</g>
<g id="glyph-0-5-80ff17da">
<path d="M 7.125 -5.1875 C 7.125 -1.765625 5.875 0.203125 3.5625 0.203125 C 2.046875 0.203125 0.984375 -0.75 0.734375 -2.375 C 0.734375 -2.375 1.96875 -2.375 1.96875 -2.375 C 2.171875 -1.421875 2.765625 -0.875 3.640625 -0.875 C 5.046875 -0.875 5.84375 -2.21875 5.859375 -4.640625 C 5.203125 -3.875 4.515625 -3.546875 3.578125 -3.546875 C 1.796875 -3.546875 0.53125 -4.78125 0.53125 -6.640625 C 0.53125 -8.578125 1.890625 -9.921875 3.78125 -9.921875 C 6.046875 -9.921875 7.125 -8.296875 7.125 -5.1875 Z M 5.78125 -6.65625 C 5.78125 -7.953125 4.90625 -8.84375 3.765625 -8.84375 C 2.625 -8.84375 1.796875 -8 1.796875 -6.734375 C 1.796875 -5.40625 2.53125 -4.640625 3.71875 -4.640625 C 4.921875 -4.640625 5.78125 -5.453125 5.78125 -6.65625 Z M 5.78125 -6.65625 "/>
</g>
<g id="glyph-0-6-80ff17da">
<path d="M 4.859375 0 C 4.859375 0 3.625 0 3.625 0 C 3.625 0 3.625 -7.0625 3.625 -7.0625 C 3.625 -7.0625 1.421875 -7.0625 1.421875 -7.0625 C 1.421875 -7.0625 1.421875 -7.953125 1.421875 -7.953125 C 3.328125 -8.1875 3.609375 -8.40625 4.046875 -9.921875 C 4.046875 -9.921875 4.859375 -9.921875 4.859375 -9.921875 C 4.859375 -9.921875 4.859375 0 4.859375 0 Z M 4.859375 0 "/>
</g>
<g id="glyph-1-0-80ff17da">
<path d="M 7.15625 -7.015625 C 7.15625 -5.796875 6.4375 -4.765625 5.046875 -4.015625 C 5.046875 -4.015625 3.65625 -3.265625 3.65625 -3.265625 C 2.4375 -2.546875 1.984375 -2.03125 1.859375 -1.21875 C 1.859375 -1.21875 7.078125 -1.21875 7.078125 -1.21875 C 7.078125 -1.21875 7.078125 0 7.078125 0 C 7.078125 0 0.46875 0 0.46875 0 C 0.59375 -2.1875 1.1875 -3.125 3.265625 -4.296875 C 3.265625 -4.296875 4.546875 -5.03125 4.546875 -5.03125 C 5.4375 -5.53125 5.890625 -6.203125 5.890625 -6.984375 C 5.890625 -8.046875 5.046875 -8.84375 3.9375 -8.84375 C 2.71875 -8.84375 2.03125 -8.140625 1.9375 -6.484375 C 1.9375 -6.484375 0.703125 -6.484375 0.703125 -6.484375 C 0.765625 -8.890625 1.953125 -9.921875 3.96875 -9.921875 C 5.859375 -9.921875 7.15625 -8.6875 7.15625 -7.015625 Z M 7.15625 -7.015625 "/>
</g>
</g>
</defs>
<rect x="-120" y="-80" width="1440" height="960" fill="rgb(100%, 100%, 100%)" fill-opacity="1"/>
<path fill-rule="nonzero" fill="rgb(100%, 100%, 100%)" fill-opacity="1" d="M 33 761 L 1184 761 L 1184 16 L 33 16 Z M 33 761 "/>
<path fill="none" stroke-width="1" stroke-linecap="butt" stroke-linejoin="miter" stroke="rgb(0%, 0%, 0%)" stroke-opacity="0.12" stroke-miterlimit="1.154701" d="M 224.832031 761 L 224.832031 16 "/>
<path fill="none" stroke-width="1" stroke-linecap="butt" stroke-linejoin="miter" stroke="rgb(0%, 0%, 0%)" stroke-opacity="0.12" stroke-miterlimit="1.154701" d="M 434.105469 761 L 434.105469 16 "/>
<path fill="none" stroke-width="1" stroke-linecap="butt" stroke-linejoin="miter" stroke="rgb(0%, 0%, 0%)" stroke-opacity="0.12" stroke-miterlimit="1.154701" d="M 643.378906 761 L 643.378906 16 "/>
<path fill="none" stroke-width="1" stroke-linecap="butt" stroke-linejoin="miter" stroke="rgb(0%, 0%, 0%)" stroke-opacity="0.12" stroke-miterlimit="1.154701" d="M 852.652344 761 L 852.652344 16 "/>
<path fill="none" stroke-width="1" stroke-linecap="butt" stroke-linejoin="miter" stroke="rgb(0%, 0%, 0%)" stroke-opacity="0.12" stroke-miterlimit="1.154701" d="M 1061.925781 761 L 1061.925781 16 "/>
<path fill="none" stroke-width="1" stroke-linecap="butt" stroke-linejoin="miter" stroke="rgb(0%, 0%, 0%)" stroke-opacity="0.12" stroke-miterlimit="1.154701" d="M 33 565.800781 L 1184 565.800781 "/>
<path fill="none" stroke-width="1" stroke-linecap="butt" stroke-linejoin="miter" stroke="rgb(0%, 0%, 0%)" stroke-opacity="0.12" stroke-miterlimit="1.154701" d="M 33 341.066406 L 1184 341.066406 "/>
<path fill="none" stroke-width="1" stroke-linecap="butt" stroke-linejoin="miter" stroke="rgb(0%, 0%, 0%)" stroke-opacity="0.12" stroke-miterlimit="1.154701" d="M 33 116.335938 L 1184 116.335938 "/>
<g fill="rgb(0%, 0%, 0%)" fill-opacity="1">
<use xlink:href="#glyph-0-0-80ff17da" x="211.015334" y="782.258001"/>
</g>
<g fill="rgb(0%, 0%, 0%)" fill-opacity="1">
<use xlink:href="#glyph-0-1-80ff17da" x="219.191333" y="782.258001"/>
</g>
<g fill="rgb(0%, 0%, 0%)" fill-opacity="1">
<use xlink:href="#glyph-0-2-80ff17da" x="226.975333" y="782.258001"/>
</g>
<g fill="rgb(0%, 0%, 0%)" fill-opacity="1">
<use xlink:href="#glyph-0-3-80ff17da" x="230.867333" y="782.258001"/>
</g>
<g fill="rgb(0%, 0%, 0%)" fill-opacity="1">
<use xlink:href="#glyph-0-1-80ff17da" x="424.376059" y="782.258001"/>
</g>
<g fill="rgb(0%, 0%, 0%)" fill-opacity="1">
<use xlink:href="#glyph-0-2-80ff17da" x="432.160059" y="782.258001"/>
</g>
<g fill="rgb(0%, 0%, 0%)" fill-opacity="1">
<use xlink:href="#glyph-0-1-80ff17da" x="436.052059" y="782.258001"/>
</g>
<g fill="rgb(0%, 0%, 0%)" fill-opacity="1">
<use xlink:href="#glyph-0-1-80ff17da" x="633.6488" y="782.258001"/>
</g>
<g fill="rgb(0%, 0%, 0%)" fill-opacity="1">
<use xlink:href="#glyph-0-2-80ff17da" x="641.4328" y="782.258001"/>
</g>
<g fill="rgb(0%, 0%, 0%)" fill-opacity="1">
<use xlink:href="#glyph-0-3-80ff17da" x="645.3248" y="782.258001"/>
</g>
<g fill="rgb(0%, 0%, 0%)" fill-opacity="1">
<use xlink:href="#glyph-0-1-80ff17da" x="842.92151" y="782.258001"/>
</g>
<g fill="rgb(0%, 0%, 0%)" fill-opacity="1">
<use xlink:href="#glyph-0-2-80ff17da" x="850.70551" y="782.258001"/>
</g>
<g fill="rgb(0%, 0%, 0%)" fill-opacity="1">
<use xlink:href="#glyph-0-4-80ff17da" x="854.59751" y="782.258001"/>
</g>
<g fill="rgb(0%, 0%, 0%)" fill-opacity="1">
<use xlink:href="#glyph-0-1-80ff17da" x="1052.19422" y="782.258001"/>
</g>
<g fill="rgb(0%, 0%, 0%)" fill-opacity="1">
<use xlink:href="#glyph-0-2-80ff17da" x="1059.97822" y="782.258001"/>
</g>
<g fill="rgb(0%, 0%, 0%)" fill-opacity="1">
<use xlink:href="#glyph-0-5-80ff17da" x="1063.87022" y="782.258001"/>
</g>
<g fill="rgb(0%, 0%, 0%)" fill-opacity="1">
<use xlink:href="#glyph-0-1-80ff17da" x="15.216" y="570.902779"/>
</g>
<g fill="rgb(0%, 0%, 0%)" fill-opacity="1">
<use xlink:href="#glyph-0-6-80ff17da" x="15.216" y="346.170668"/>
</g>
<g fill="rgb(0%, 0%, 0%)" fill-opacity="1">
<use xlink:href="#glyph-1-0-80ff17da" x="15.216" y="121.438587"/>
</g>
<path fill="none" stroke-width="3" stroke-linecap="butt" stroke-linejoin="miter" stroke="rgb(0%, 44.705883%, 69.803923%)" stroke-opacity="1" stroke-miterlimit="2" d="M 85.316406 618.886719 L 86.714844 616.144531 L 88.109375 614.6875 L 89.503906 618.796875 L 90.898438 620.910156 L 92.292969 625.484375 L 93.6875 630.140625 L 95.085938 638.40625 L 96.480469 638.621094 L 97.875 637.765625 L 99.269531 636.667969 L 100.664062 643.457031 L 102.058594 644.796875 L 103.457031 651.09375 L 104.851562 650.726562 L 106.246094 645.988281 L 107.640625 641.457031 L 109.035156 638.589844 L 110.429688 632.59375 L 111.824219 633.085938 L 113.222656 627.667969 L 114.617188 630.394531 L 116.011719 628.34375 L 117.40625 638.371094 L 118.800781 634.792969 L 120.195312 632.878906 L 121.59375 630.71875 L 122.988281 633.441406 L 124.382812 634.714844 L 125.777344 639.230469 L 127.171875 646.855469 L 128.566406 649.082031 L 129.964844 649.300781 L 131.359375 659.027344 L 132.753906 663.550781 L 134.148438 665.28125 L 135.542969 662.082031 L 136.9375 663.1875 L 138.332031 672.460938 L 139.730469 679.257812 L 141.125 673.875 L 142.519531 661.878906 L 143.914062 650.238281 L 145.308594 643.265625 L 146.703125 645.570312 L 148.101562 643.351562 L 149.496094 641.726562 L 150.890625 637.628906 L 152.285156 639.6875 L 153.679688 637.777344 L 155.074219 631.023438 L 156.472656 626.730469 L 157.867188 626.933594 L 159.261719 637.441406 L 160.65625 644.246094 L 162.050781 645.988281 L 163.445312 646.460938 L 164.84375 645.363281 L 166.238281 646.949219 L 167.632812 642.910156 L 169.027344 644.503906 L 170.421875 647.1875 L 171.816406 649.609375 L 173.210938 652.9375 L 174.609375 656.054688 L 176.003906 665.28125 L 177.398438 658.660156 L 178.792969 656.382812 L 180.1875 653.996094 L 181.582031 646.210938 L 182.980469 646.128906 L 184.375 650.019531 L 185.769531 645.066406 L 187.164062 636.289062 L 188.558594 628.023438 L 189.953125 627.398438 L 191.351562 635.09375 L 192.746094 639.640625 L 194.140625 638.128906 L 195.535156 638.550781 L 196.929688 634.199219 L 198.324219 637.335938 L 199.71875 646.515625 L 201.117188 646.664062 L 202.511719 645.574219 L 203.90625 647.398438 L 205.300781 649.121094 L 206.695312 659.699219 L 208.089844 660.675781 L 209.488281 671.394531 L 210.882812 676.59375 L 212.277344 672.050781 L 213.671875 667.136719 L 215.066406 664.242188 L 216.460938 663.980469 L 217.859375 667.578125 L 219.253906 657.464844 L 220.648438 654.582031 L 222.042969 653.867188 L 223.4375 646.285156 L 224.832031 644.582031 L 226.226562 638.292969 L 227.625 626.632812 L 229.019531 621.007812 L 230.414062 614.488281 L 231.808594 618.449219 L 233.203125 619.707031 L 234.597656 624.390625 L 235.996094 636.671875 L 237.390625 647.050781 L 238.785156 661.246094 L 240.179688 671.453125 L 241.574219 671.496094 L 242.96875 672.269531 L 244.367188 675.253906 L 245.761719 673.789062 L 247.15625 668.742188 L 248.550781 669.394531 L 249.945312 663.839844 L 251.339844 655.671875 L 252.738281 649.441406 L 254.132812 640.390625 L 255.527344 639.316406 L 256.921875 645.496094 L 258.316406 652.238281 L 259.710938 653.179688 L 261.105469 651.746094 L 262.503906 654.359375 L 263.898438 657.46875 L 265.292969 650.925781 L 266.6875 651.210938 L 268.082031 653.8125 L 269.476562 662.367188 L 270.875 673.867188 L 272.269531 673.355469 L 273.664062 681.289062 L 275.058594 675.746094 L 276.453125 676.234375 L 277.847656 680.472656 L 279.246094 680.34375 L 280.640625 680.410156 L 282.035156 679.234375 L 283.429688 672.699219 L 284.824219 671.707031 L 286.21875 669.8125 L 287.613281 662.6875 L 289.011719 653.886719 L 290.40625 650.890625 L 291.800781 651.949219 L 293.195312 654.171875 L 294.589844 651.8125 L 295.984375 652.28125 L 297.382812 649.289062 L 298.777344 655.625 L 300.171875 658.785156 L 301.566406 657.265625 L 302.960938 655.039062 L 304.355469 664.96875 L 305.753906 668.109375 L 307.148438 674.378906 L 308.542969 680.792969 L 309.9375 686.867188 L 311.332031 691.253906 L 312.726562 693.550781 L 314.121094 699.113281 L 315.519531 697.25 L 316.914062 694.898438 L 318.308594 692.347656 L 319.703125 689.027344 L 321.097656 688.65625 L 322.492188 686.238281 L 323.890625 679.429688 L 325.285156 678.738281 L 326.679688 678.570312 L 328.074219 669.796875 L 329.46875 669.03125 L 330.863281 675.867188 L 332.261719 672.59375 L 333.65625 676.808594 L 335.050781 674.960938 L 336.445312 684.757812 L 337.839844 692.320312 L 339.234375 692.414062 L 340.632812 690.027344 L 342.027344 688.433594 L 343.421875 690.964844 L 344.816406 694.195312 L 346.210938 698.109375 L 347.605469 698.816406 L 349 693.640625 L 350.398438 696.105469 L 351.792969 693.773438 L 353.1875 694.320312 L 354.582031 688.097656 L 355.976562 690.359375 L 357.371094 690.878906 L 358.769531 691.796875 L 360.164062 698.703125 L 361.558594 699.324219 L 362.953125 687.300781 L 364.347656 685.007812 L 365.742188 688.601562 L 367.140625 691 L 368.535156 692.066406 L 369.929688 696.300781 L 371.324219 695.777344 L 372.71875 697.582031 L 374.113281 702.3125 L 375.507812 703.082031 L 376.90625 693.640625 L 378.300781 694.039062 L 379.695312 698.261719 L 381.089844 694.726562 L 382.484375 697.042969 L 383.878906 696.867188 L 385.277344 688.238281 L 386.671875 687.363281 L 388.066406 685.859375 L 389.460938 689.828125 L 390.855469 693.296875 L 392.25 699.378906 L 393.648438 696.476562 L 395.042969 700.242188 L 396.4375 698.488281 L 397.832031 697.59375 L 399.226562 701.28125 L 400.621094 701.273438 L 402.015625 705.71875 L 403.414062 700.796875 L 404.808594 701.027344 L 406.203125 692.90625 L 407.597656 678.777344 L 408.992188 674.355469 L 410.386719 676.851562 L 411.785156 678.636719 L 413.179688 675.082031 L 414.574219 674.105469 L 415.96875 671.113281 L 417.363281 672.777344 L 418.757812 663.832031 L 420.15625 655.921875 L 421.550781 648.324219 L 422.945312 649.195312 L 424.339844 648.121094 L 425.734375 649.949219 L 427.128906 649 L 428.527344 639.628906 L 429.921875 644.304688 L 431.316406 657.507812 L 432.710938 657.109375 L 434.105469 650.738281 L 435.5 646.480469 L 436.894531 644.324219 L 438.292969 638.132812 L 439.6875 632.542969 L 441.082031 632.300781 L 442.476562 633.9375 L 443.871094 641.53125 L 445.265625 646.195312 L 446.664062 645.226562 L 448.058594 644.910156 L 449.453125 643.59375 L 450.847656 643.941406 L 452.242188 633.78125 L 453.636719 629.074219 L 455.035156 634.125 L 456.429688 630.808594 L 457.824219 629.34375 L 459.21875 626.789062 L 460.613281 626.40625 L 462.007812 626.953125 L 463.402344 617.632812 L 464.800781 611.429688 L 466.195312 602.148438 L 467.589844 599.046875 L 468.984375 585.285156 L 470.378906 577.714844 L 471.773438 571.695312 L 473.171875 566.789062 L 474.566406 561.800781 L 475.960938 559.011719 L 477.355469 551.675781 L 478.75 560.085938 L 480.144531 568.886719 L 481.542969 577.546875 L 482.9375 582.980469 L 484.332031 593.042969 L 485.726562 597.597656 L 487.121094 595.589844 L 488.515625 597.46875 L 489.914062 600.742188 L 491.308594 597.171875 L 492.703125 590.785156 L 494.097656 584.179688 L 495.492188 587.464844 L 496.886719 587.511719 L 498.28125 580.980469 L 499.679688 582.417969 L 501.074219 578.730469 L 502.46875 581.058594 L 503.863281 571.792969 L 505.257812 563.140625 L 506.652344 562.351562 L 508.050781 559.039062 L 509.445312 555.308594 L 510.839844 539.511719 L 512.234375 525.210938 L 513.628906 510.835938 L 515.023438 497.660156 L 516.421875 480.078125 L 517.816406 469.492188 L 519.210938 457.515625 L 520.605469 444.976562 L 522 421.582031 L 523.394531 396.605469 L 524.789062 386.058594 L 526.1875 387.886719 L 527.582031 384.292969 L 528.976562 377.339844 L 530.371094 364.933594 L 531.765625 356.066406 L 533.160156 344.027344 L 534.558594 336.566406 L 535.953125 332.464844 L 537.347656 328.800781 L 538.742188 324.03125 L 540.136719 320.457031 L 541.53125 313.140625 L 542.929688 301.117188 L 544.324219 289.5 L 545.71875 280.984375 L 547.113281 267.097656 L 548.507812 238.890625 L 549.902344 214.691406 L 551.296875 199.042969 L 552.695312 189.105469 L 554.089844 173.421875 L 555.484375 155.730469 L 556.878906 136.4375 L 558.273438 123.125 L 559.667969 110.382812 L 561.066406 95.46875 L 562.460938 86.5 L 563.855469 70.722656 L 565.25 61.128906 L 566.644531 52.0625 L 568.039062 50.535156 L 569.4375 51.484375 L 570.832031 57.523438 L 572.226562 54.355469 L 573.621094 51.683594 L 575.015625 53.726562 L 576.410156 62.746094 L 577.804688 68.664062 L 579.203125 78.429688 L 580.597656 88.929688 L 581.992188 85.757812 L 583.386719 94.078125 L 584.78125 102.496094 L 586.175781 111.902344 L 587.574219 118.539062 L 588.96875 117.089844 L 590.363281 109.542969 L 591.757812 111.652344 L 593.152344 111.21875 L 594.546875 108.164062 L 595.945312 111.453125 L 597.339844 110.773438 L 598.734375 115.453125 L 600.128906 125.25 L 601.523438 129.78125 L 602.917969 133.695312 L 604.316406 148.445312 L 605.710938 162.042969 L 607.105469 169.117188 L 608.5 182.738281 L 609.894531 186.820312 L 611.289062 197.019531 L 612.683594 199.855469 L 614.082031 210.234375 L 615.476562 212.71875 L 616.871094 223.046875 L 618.265625 229.304688 L 619.660156 235.851562 L 621.054688 242.890625 L 622.453125 248.582031 L 623.847656 243.609375 L 625.242188 244.230469 L 626.636719 243.289062 L 628.03125 242.21875 L 629.425781 247.898438 L 630.824219 255.328125 L 632.21875 259.480469 L 633.613281 262.113281 L 635.007812 265.992188 L 636.402344 269.890625 L 637.796875 274.074219 L 639.191406 280.59375 L 640.589844 287.367188 L 641.984375 289.09375 L 643.378906 292.757812 L 644.773438 304.242188 L 646.167969 314.898438 L 647.5625 316.832031 L 648.960938 321.460938 L 650.355469 324.601562 L 651.75 325.953125 L 653.144531 328.207031 L 654.539062 333.1875 L 655.933594 331.988281 L 657.332031 334.414062 L 658.726562 331.324219 L 660.121094 330.574219 L 661.515625 328.421875 L 662.910156 326.953125 L 664.304688 328.75 L 665.703125 331.144531 L 667.097656 335.78125 L 668.492188 333.667969 L 669.886719 330.78125 L 671.28125 327.433594 L 672.675781 330.1875 L 674.070312 332.875 L 675.46875 341.714844 L 676.863281 343.191406 L 678.257812 348.242188 L 679.652344 353.039062 L 681.046875 357.738281 L 682.441406 367.769531 L 683.839844 367.046875 L 685.234375 371.488281 L 686.628906 374.320312 L 688.023438 381.03125 L 689.417969 380.078125 L 690.8125 381.875 L 692.210938 384.335938 L 693.605469 391.355469 L 695 389.691406 L 696.394531 387.851562 L 697.789062 385.648438 L 699.183594 388.046875 L 700.578125 387.53125 L 701.976562 387.132812 L 703.371094 384.105469 L 704.765625 385.449219 L 706.160156 386.070312 L 707.554688 381.851562 L 708.949219 382.5625 L 710.347656 395.253906 L 711.742188 395.207031 L 713.136719 392.632812 L 714.53125 386.203125 L 715.925781 379.132812 L 717.320312 377.011719 L 718.71875 381.101562 L 720.113281 384.273438 L 721.507812 383.710938 L 722.902344 382.28125 L 724.296875 376.171875 L 725.691406 377.128906 L 727.085938 374.832031 L 728.484375 377.449219 L 729.878906 383.617188 L 731.273438 391.597656 L 732.667969 395.726562 L 734.0625 395.007812 L 735.457031 391.695312 L 736.855469 394.09375 L 738.25 395.359375 L 739.644531 394.792969 L 741.039062 389.644531 L 742.433594 385.234375 L 743.828125 387.886719 L 745.226562 389.503906 L 746.621094 392.644531 L 748.015625 401.847656 L 749.410156 407.328125 L 750.804688 413.675781 L 752.199219 413.015625 L 753.59375 413.519531 L 754.992188 414.460938 L 756.386719 421.039062 L 757.78125 422.707031 L 759.175781 419.714844 L 760.570312 429.5 L 761.964844 435.074219 L 763.363281 439.078125 L 764.757812 447.785156 L 766.152344 448.339844 L 767.546875 446.195312 L 768.941406 448.511719 L 770.335938 448.621094 L 771.734375 447.59375 L 773.128906 450.53125 L 774.523438 446.71875 L 775.917969 446.011719 L 777.3125 449.882812 L 778.707031 455.433594 L 780.105469 455.691406 L 781.5 453.199219 L 782.894531 461.617188 L 784.289062 464.675781 L 785.683594 466.335938 L 787.078125 469.46875 L 788.472656 467.234375 L 789.871094 463.6875 L 791.265625 467.878906 L 792.660156 471.273438 L 794.054688 475.265625 L 795.449219 476.964844 L 796.84375 480.128906 L 798.242188 486.265625 L 799.636719 492.46875 L 801.03125 500.898438 L 802.425781 504.257812 L 803.820312 507.121094 L 805.214844 505.507812 L 806.613281 506.078125 L 808.007812 509.101562 L 809.402344 509.652344 L 810.796875 509.515625 L 812.191406 510.292969 L 813.585938 511.496094 L 814.984375 518.792969 L 816.378906 526.464844 L 817.773438 524.511719 L 819.167969 522.664062 L 820.5625 521.613281 L 821.957031 534.734375 L 823.351562 537.5 L 824.75 543.929688 L 826.144531 548.898438 L 827.539062 551.800781 L 828.933594 556.085938 L 830.328125 557.125 L 831.722656 559.28125 L 833.121094 565.3125 L 834.515625 569.027344 L 835.910156 572.855469 L 837.304688 572.554688 L 838.699219 571.679688 L 840.09375 571.164062 L 841.492188 563.371094 L 842.886719 562.9375 L 844.28125 562.914062 L 845.675781 561.195312 L 847.070312 560.132812 L 848.464844 560.449219 L 849.859375 567.492188 L 851.257812 570.589844 L 852.652344 573.851562 L 854.046875 579.078125 L 855.441406 584.308594 L 856.835938 588.519531 L 858.230469 588.167969 L 859.628906 590.027344 L 861.023438 593.804688 L 862.417969 593.71875 L 863.8125 595.363281 L 865.207031 608.976562 L 866.601562 603.550781 L 868 602.8125 L 869.394531 595.015625 L 870.789062 587.695312 L 872.183594 584.019531 L 873.578125 582.878906 L 874.972656 587.101562 L 876.367188 588.355469 L 877.765625 592.117188 L 879.160156 586.890625 L 880.554688 591.117188 L 881.949219 592.4375 L 883.34375 598.839844 L 884.738281 608.277344 L 886.136719 617.441406 L 887.53125 621.601562 L 888.925781 627.363281 L 890.320312 634.023438 L 891.714844 633.933594 L 893.109375 639.671875 L 894.507812 637.808594 L 895.902344 636.957031 L 897.296875 635.933594 L 898.691406 626.292969 L 900.085938 630.039062 L 901.480469 630.757812 L 902.875 628.96875 L 904.273438 628.085938 L 905.667969 626.613281 L 907.0625 621.230469 L 908.457031 619.949219 L 909.851562 620.6875 L 911.246094 619.320312 L 912.644531 617.191406 L 914.039062 619.484375 L 915.433594 623.546875 L 916.828125 623.886719 L 918.222656 625.75 L 919.617188 637.953125 L 921.015625 642.824219 L 922.410156 643.628906 L 923.804688 647.964844 L 925.199219 644.292969 L 926.59375 648.613281 L 927.988281 661.164062 L 929.382812 669.90625 L 930.78125 672.0625 L 932.175781 668.175781 L 933.570312 665.03125 L 934.964844 658.496094 L 936.359375 663.996094 L 937.753906 668.382812 L 939.152344 672.105469 L 940.546875 664.117188 L 941.941406 672.40625 L 943.335938 664.179688 L 944.730469 648.785156 L 946.125 643.066406 L 947.523438 638.621094 L 948.917969 634.183594 L 950.3125 632.230469 L 951.707031 631.097656 L 953.101562 638.445312 L 954.496094 632.546875 L 955.894531 629.300781 L 957.289062 632.539062 L 958.683594 640.03125 L 960.078125 645.25 L 961.472656 656.105469 L 962.867188 651.535156 L 964.261719 659.570312 L 965.660156 653.679688 L 967.054688 647.0625 L 968.449219 653.9375 L 969.84375 663.113281 L 971.238281 667.894531 L 972.632812 662.644531 L 974.03125 662.359375 L 975.425781 660.160156 L 976.820312 657.371094 L 978.214844 650.066406 L 979.609375 646.953125 L 981.003906 645.402344 L 982.402344 645.601562 L 983.796875 643.851562 L 985.191406 640.648438 L 986.585938 646.378906 L 987.980469 645.675781 L 989.375 651.457031 L 990.773438 663.652344 L 992.167969 662.058594 L 993.5625 666.042969 L 994.957031 662.890625 L 996.351562 660.078125 L 997.746094 663.570312 L 999.140625 660.34375 L 1000.539062 667.773438 L 1001.933594 660.992188 L 1003.328125 650.871094 L 1004.722656 651.453125 L 1006.117188 654.21875 L 1007.511719 662.261719 L 1008.910156 665.359375 L 1010.304688 663.765625 L 1011.699219 659.363281 L 1013.09375 658.695312 L 1014.488281 656.039062 L 1015.882812 656.714844 L 1017.28125 669.730469 L 1018.675781 667.457031 L 1020.070312 672.152344 L 1021.464844 672.90625 L 1022.859375 670.40625 L 1024.253906 665.132812 L 1025.648438 657.601562 L 1027.046875 645.285156 L 1028.441406 646.925781 L 1029.835938 647.476562 L 1031.230469 641.089844 L 1032.625 639.671875 L 1034.019531 644.378906 L 1035.417969 651.773438 L 1036.8125 658.746094 L 1038.207031 655.449219 L 1039.601562 652.390625 L 1040.996094 651.078125 L 1042.390625 652.078125 L 1043.789062 654.984375 L 1045.183594 657.910156 L 1046.578125 661.324219 L 1047.972656 661.132812 L 1049.367188 662.9375 L 1050.761719 668.148438 L 1052.15625 661.882812 L 1053.554688 660.792969 L 1054.949219 664.488281 L 1056.34375 661.660156 L 1057.738281 658.828125 L 1059.132812 656.796875 L 1060.527344 646.304688 L 1061.925781 637.316406 L 1063.320312 631.894531 L 1064.714844 632.683594 L 1066.109375 631.246094 L 1067.503906 634.691406 L 1068.898438 634.582031 L 1070.296875 629.964844 L 1071.691406 639.054688 L 1073.085938 633.035156 L 1074.480469 621.519531 L 1075.875 625.101562 L 1077.269531 619.949219 L 1078.664062 623.46875 L 1080.0625 619.488281 L 1081.457031 622.019531 L 1082.851562 631.070312 L 1084.246094 631.832031 L 1085.640625 632.746094 L 1087.035156 633.742188 L 1088.433594 626.519531 L 1089.828125 625.015625 L 1091.222656 624.183594 L 1092.617188 613.230469 L 1094.011719 612.558594 L 1095.40625 624.984375 L 1096.804688 632.613281 L 1098.199219 618.523438 L 1099.59375 614.886719 L 1100.988281 612.34375 L 1102.382812 608.96875 L 1103.777344 608.34375 L 1105.175781 605.773438 L 1106.570312 602.535156 L 1107.964844 606.058594 L 1109.359375 616.296875 L 1110.753906 613.1875 L 1112.148438 618.691406 L 1113.542969 616.539062 L 1114.941406 617.847656 L 1116.335938 625.722656 L 1117.730469 635.605469 L 1119.125 636.421875 L 1120.519531 651.292969 L 1121.914062 651.804688 L 1123.3125 649.789062 L 1124.707031 648.339844 L 1126.101562 645.984375 L 1127.496094 641.191406 L 1128.890625 643.90625 L 1130.285156 645.015625 L 1131.683594 642.085938 "/>
<path fill="none" stroke-width="3" stroke-linecap="butt" stroke-linejoin="miter" stroke="rgb(90.196079%, 62.352943%, 0%)" stroke-opacity="1" stroke-miterlimit="2" d="M 85.316406 648.613281 L 86.714844 644.550781 L 88.109375 638.109375 L 89.503906 643.648438 L 90.898438 649.570312 L 92.292969 646.507812 L 93.6875 646.328125 L 95.085938 646.355469 L 96.480469 650.109375 L 97.875 649.820312 L 99.269531 642.652344 L 100.664062 638.375 L 102.058594 636.414062 L 103.457031 633.9375 L 104.851562 634.160156 L 106.246094 636.917969 L 107.640625 636.90625 L 109.035156 635.671875 L 110.429688 629.53125 L 111.824219 625.914062 L 113.222656 616.5 L 114.617188 609.894531 L 116.011719 608.882812 L 117.40625 605.914062 L 118.800781 604.726562 L 120.195312 610.605469 L 121.59375 621.382812 L 122.988281 628.207031 L 124.382812 625.644531 L 125.777344 629.167969 L 127.171875 631.855469 L 128.566406 627.242188 L 129.964844 624.070312 L 131.359375 627.394531 L 132.753906 634.585938 L 134.148438 636.480469 L 135.542969 637.257812 L 136.9375 634.328125 L 138.332031 632.472656 L 139.730469 626.988281 L 141.125 630.785156 L 142.519531 633.019531 L 143.914062 639.367188 L 145.308594 637.386719 L 146.703125 638.828125 L 148.101562 638.402344 L 149.496094 637.449219 L 150.890625 634.660156 L 152.285156 636.65625 L 153.679688 641.839844 L 155.074219 649.039062 L 156.472656 650.25 L 157.867188 645.367188 L 159.261719 641.449219 L 160.65625 646.234375 L 162.050781 650.199219 L 163.445312 649.019531 L 164.84375 639.015625 L 166.238281 637.660156 L 167.632812 638.609375 L 169.027344 635.859375 L 170.421875 628.535156 L 171.816406 622.480469 L 173.210938 621.851562 L 174.609375 619.734375 L 176.003906 618.71875 L 177.398438 618.625 L 178.792969 627.03125 L 180.1875 627.46875 L 181.582031 625.082031 L 182.980469 623.136719 L 184.375 613.859375 L 185.769531 615.355469 L 187.164062 624.125 L 188.558594 625.792969 L 189.953125 631 L 191.351562 632.308594 L 192.746094 635.527344 L 194.140625 634.878906 L 195.535156 636.59375 L 196.929688 637.820312 L 198.324219 635.554688 L 199.71875 638.628906 L 201.117188 636.550781 L 202.511719 632.460938 L 203.90625 627.777344 L 205.300781 627.148438 L 206.695312 628.71875 L 208.089844 632.054688 L 209.488281 628.914062 L 210.882812 627.566406 L 212.277344 622.632812 L 213.671875 628.324219 L 215.066406 625.832031 L 216.460938 624.894531 L 217.859375 621.714844 L 219.253906 624.609375 L 220.648438 624.042969 L 222.042969 621.785156 L 223.4375 620.355469 L 224.832031 617.527344 L 226.226562 617.542969 L 227.625 616.515625 L 229.019531 614.914062 L 230.414062 621.59375 L 231.808594 621.324219 L 233.203125 620.46875 L 234.597656 611.835938 L 235.996094 610.277344 L 237.390625 609.71875 L 238.785156 612.242188 L 240.179688 615.628906 L 241.574219 624.609375 L 242.96875 632.328125 L 244.367188 625.304688 L 245.761719 617.644531 L 247.15625 615.734375 L 248.550781 611.734375 L 249.945312 610.832031 L 251.339844 610.089844 L 252.738281 613.71875 L 254.132812 616.398438 L 255.527344 615.0625 L 256.921875 618.5625 L 258.316406 627.585938 L 259.710938 633.714844 L 261.105469 643.195312 L 262.503906 651.925781 L 263.898438 651.960938 L 265.292969 646.238281 L 266.6875 648.882812 L 268.082031 651.433594 L 269.476562 650.882812 L 270.875 654.210938 L 272.269531 657.746094 L 273.664062 655.855469 L 275.058594 659.605469 L 276.453125 662.242188 L 277.847656 671.003906 L 279.246094 680.578125 L 280.640625 674.03125 L 282.035156 666.527344 L 283.429688 669.160156 L 284.824219 668.679688 L 286.21875 670.269531 L 287.613281 678.433594 L 289.011719 679.410156 L 290.40625 683.890625 L 291.800781 681.269531 L 293.195312 679.261719 L 294.589844 672.015625 L 295.984375 675.074219 L 297.382812 674.421875 L 298.777344 678.695312 L 300.171875 678.71875 L 301.566406 675.878906 L 302.960938 672.632812 L 304.355469 673.625 L 305.753906 663.011719 L 307.148438 660.429688 L 308.542969 663.691406 L 309.9375 670.375 L 311.332031 667.863281 L 312.726562 668.945312 L 314.121094 669.300781 L 315.519531 673.464844 L 316.914062 675.847656 L 318.308594 672.570312 L 319.703125 672.660156 L 321.097656 675.316406 L 322.492188 679.191406 L 323.890625 682.703125 L 325.285156 683.6875 L 326.679688 683.515625 L 328.074219 680.058594 L 329.46875 677.199219 L 330.863281 677.019531 L 332.261719 673.234375 L 333.65625 672.804688 L 335.050781 672.386719 L 336.445312 677.320312 L 337.839844 677.480469 L 339.234375 670.632812 L 340.632812 671.9375 L 342.027344 671.570312 L 343.421875 669.449219 L 344.816406 663.980469 L 346.210938 660.757812 L 347.605469 673.035156 L 349 677.257812 L 350.398438 676.789062 L 351.792969 677.273438 L 353.1875 675.109375 L 354.582031 677.339844 L 355.976562 672.722656 L 357.371094 674.707031 L 358.769531 680 L 360.164062 679.828125 L 361.558594 676.375 L 362.953125 671.777344 L 364.347656 669.761719 L 365.742188 670.191406 L 367.140625 669.609375 L 368.535156 676.925781 L 369.929688 677.351562 L 371.324219 674.648438 L 372.71875 664.949219 L 374.113281 656.871094 L 375.507812 649.871094 L 376.90625 644.234375 L 378.300781 648.628906 L 379.695312 655.839844 L 381.089844 652.191406 L 382.484375 657.0625 L 383.878906 658.792969 L 385.277344 660.667969 L 386.671875 664.703125 L 388.066406 661.601562 L 389.460938 654.039062 L 390.855469 651.1875 L 392.25 652.125 L 393.648438 655.195312 L 395.042969 658.425781 L 396.4375 662.84375 L 397.832031 660 L 399.226562 649.199219 L 400.621094 649.46875 L 402.015625 656.4375 L 403.414062 657.1875 L 404.808594 654.558594 L 406.203125 649.695312 L 407.597656 648.746094 L 408.992188 649.683594 L 410.386719 646.203125 L 411.785156 639.699219 L 413.179688 648.90625 L 414.574219 648.671875 L 415.96875 650.402344 L 417.363281 644.707031 L 418.757812 637.429688 L 420.15625 635.683594 L 421.550781 636.082031 L 422.945312 631.71875 L 424.339844 631.757812 L 425.734375 627 L 427.128906 629.347656 L 428.527344 630.597656 L 429.921875 634.050781 L 431.316406 622.976562 L 432.710938 614.78125 L 434.105469 610.664062 L 435.5 612.726562 L 436.894531 607.464844 L 438.292969 603.304688 L 439.6875 602 L 441.082031 611.0625 L 442.476562 623.300781 L 443.871094 627.144531 L 445.265625 629.257812 L 446.664062 629.632812 L 448.058594 628.351562 L 449.453125 626.992188 L 450.847656 621.949219 L 452.242188 621.554688 L 453.636719 615.445312 L 455.035156 617.746094 L 456.429688 617.683594 L 457.824219 615.125 L 459.21875 612.703125 L 460.613281 611.785156 L 462.007812 617.007812 L 463.402344 619.3125 L 464.800781 608.515625 L 466.195312 592.652344 L 467.589844 585.285156 L 468.984375 576.421875 L 470.378906 578.136719 L 471.773438 567.648438 L 473.171875 563.074219 L 474.566406 556.046875 L 475.960938 548.875 L 477.355469 548.671875 L 478.75 555.648438 L 480.144531 556.875 L 481.542969 568.761719 L 482.9375 574.480469 L 484.332031 587.117188 L 485.726562 592.191406 L 487.121094 596.167969 L 488.515625 601.046875 L 489.914062 604.386719 L 491.308594 608.1875 L 492.703125 605.101562 L 494.097656 601.828125 L 495.492188 598.960938 L 496.886719 595.816406 L 498.28125 588.808594 L 499.679688 587.945312 L 501.074219 585.914062 L 502.46875 582.085938 L 503.863281 572.074219 L 505.257812 563.542969 L 506.652344 552.429688 L 508.050781 546.035156 L 509.445312 533.734375 L 510.839844 521.199219 L 512.234375 511.238281 L 513.628906 501.054688 L 515.023438 492.144531 L 516.421875 482.621094 L 517.816406 472.875 L 519.210938 464.429688 L 520.605469 460.53125 L 522 450.214844 L 523.394531 432.398438 L 524.789062 427.355469 L 526.1875 423.226562 L 527.582031 420.757812 L 528.976562 420.019531 L 530.371094 407.929688 L 531.765625 396.570312 L 533.160156 392.992188 L 534.558594 381.742188 L 535.953125 374.050781 L 537.347656 372.082031 L 538.742188 364.273438 L 540.136719 358.875 L 541.53125 345.972656 L 542.929688 333.890625 L 544.324219 326.671875 L 545.71875 315.304688 L 547.113281 307.269531 L 548.507812 296.042969 L 549.902344 280.265625 L 551.296875 264.742188 L 552.695312 245.292969 L 554.089844 229.460938 L 555.484375 209.75 L 556.878906 195.640625 L 558.273438 180.253906 L 559.667969 166.347656 L 561.066406 157.628906 L 562.460938 150.070312 L 563.855469 144.554688 L 565.25 136.960938 L 566.644531 128.128906 L 568.039062 123.417969 L 569.4375 120.210938 L 570.832031 114.09375 L 572.226562 114.773438 L 573.621094 115.683594 L 575.015625 114.78125 L 576.410156 114.25 L 577.804688 110.542969 L 579.203125 109.101562 L 580.597656 111.789062 L 581.992188 111.210938 L 583.386719 111.40625 L 584.78125 110.332031 L 586.175781 110.238281 L 587.574219 115.753906 L 588.96875 113.84375 L 590.363281 118.359375 L 591.757812 120.53125 L 593.152344 118.140625 L 594.546875 121.953125 L 595.945312 131.460938 L 597.339844 144.015625 L 598.734375 150.070312 L 600.128906 155.070312 L 601.523438 162.824219 L 602.917969 170.855469 L 604.316406 179.609375 L 605.710938 188.578125 L 607.105469 197.296875 L 608.5 203.839844 L 609.894531 211.667969 L 611.289062 214.546875 L 612.683594 215.878906 L 614.082031 217.421875 L 615.476562 218.945312 L 616.871094 224.644531 L 618.265625 228.378906 L 619.660156 235.554688 L 621.054688 233.164062 L 622.453125 235.726562 L 623.847656 237.414062 L 625.242188 244.128906 L 626.636719 247.226562 L 628.03125 240.203125 L 629.425781 237.683594 L 630.824219 247.160156 L 632.21875 260.792969 L 633.613281 273.152344 L 635.007812 278.679688 L 636.402344 280.859375 L 637.796875 285.761719 L 639.191406 297.5 L 640.589844 307.539062 L 641.984375 312.308594 L 643.378906 318.871094 L 644.773438 316.179688 L 646.167969 309.316406 L 647.5625 307.300781 L 648.960938 312.933594 L 650.355469 307.375 L 651.75 295.007812 L 653.144531 302.742188 L 654.539062 308.238281 L 655.933594 319.917969 L 657.332031 320.933594 L 658.726562 318.085938 L 660.121094 309.714844 L 661.515625 317.074219 L 662.910156 319.84375 L 664.304688 328.597656 L 665.703125 332.457031 L 667.097656 334.636719 L 668.492188 341.59375 L 669.886719 342.519531 L 671.28125 346.878906 L 672.675781 349.113281 L 674.070312 347.039062 L 675.46875 347.375 L 676.863281 360.5 L 678.257812 369.140625 L 679.652344 378.464844 L 681.046875 366.847656 L 682.441406 371.078125 L 683.839844 377.890625 L 685.234375 380.75 L 686.628906 376.140625 L 688.023438 378.605469 L 689.417969 375.03125 L 690.8125 373.410156 L 692.210938 377.035156 L 693.605469 378.554688 L 695 380.3125 L 696.394531 386.257812 L 697.789062 385.609375 L 699.183594 382.320312 L 700.578125 383.972656 L 701.976562 386.414062 L 703.371094 389.683594 L 704.765625 392.125 L 706.160156 392.160156 L 707.554688 398.625 L 708.949219 399.972656 L 710.347656 397.40625 L 711.742188 392.042969 L 713.136719 379.976562 L 714.53125 383.691406 L 715.925781 381.199219 L 717.320312 384.210938 L 718.71875 387.113281 L 720.113281 389.546875 L 721.507812 381.40625 L 722.902344 381.605469 L 724.296875 382.773438 L 725.691406 387.964844 L 727.085938 388.238281 L 728.484375 380.53125 L 729.878906 383.875 L 731.273438 380.835938 L 732.667969 373.476562 L 734.0625 377.128906 L 735.457031 392.222656 L 736.855469 395.925781 L 738.25 397.824219 L 739.644531 408.667969 L 741.039062 411.710938 L 742.433594 410.988281 L 743.828125 415.5 L 745.226562 421.378906 L 746.621094 418.203125 L 748.015625 420.574219 L 749.410156 426.589844 L 750.804688 432.230469 L 752.199219 424.292969 L 753.59375 416.347656 L 754.992188 411.875 L 756.386719 412.304688 L 757.78125 420.941406 L 759.175781 421.941406 L 760.570312 418.890625 L 761.964844 420.105469 L 763.363281 421.753906 L 764.757812 420.605469 L 766.152344 416.886719 L 767.546875 415.082031 L 768.941406 423.195312 L 770.335938 429.222656 L 771.734375 434.308594 L 773.128906 435.074219 L 774.523438 437.207031 L 775.917969 437.804688 L 777.3125 445.738281 L 778.707031 446 L 780.105469 453.007812 L 781.5 453.816406 L 782.894531 455.027344 L 784.289062 460.839844 L 785.683594 460.773438 L 787.078125 462.304688 L 788.472656 464.332031 L 789.871094 464.960938 L 791.265625 467.714844 L 792.660156 462.796875 L 794.054688 464.949219 L 795.449219 466.890625 L 796.84375 463.929688 L 798.242188 461.335938 L 799.636719 455.085938 L 801.03125 451.386719 L 802.425781 454.648438 L 803.820312 461.234375 L 805.214844 462.511719 L 806.613281 471.660156 L 808.007812 478.605469 L 809.402344 489.71875 L 810.796875 495.765625 L 812.191406 501.859375 L 813.585938 505.363281 L 814.984375 506.121094 L 816.378906 508.703125 L 817.773438 517.292969 L 819.167969 532.890625 L 820.5625 534.195312 L 821.957031 540.65625 L 823.351562 546.363281 L 824.75 546.117188 L 826.144531 543.148438 L 827.539062 546.109375 L 828.933594 547.949219 L 830.328125 552.1875 L 831.722656 553.328125 L 833.121094 557.734375 L 834.515625 557.046875 L 835.910156 552.777344 L 837.304688 555.488281 L 838.699219 552.113281 L 840.09375 560.410156 L 841.492188 570.164062 L 842.886719 578.351562 L 844.28125 579.695312 L 845.675781 576.328125 L 847.070312 576.125 L 848.464844 580.484375 L 849.859375 588.433594 L 851.257812 593.398438 L 852.652344 603.144531 L 854.046875 604.277344 L 855.441406 603.828125 L 856.835938 604.769531 L 858.230469 602.308594 L 859.628906 605.515625 L 861.023438 610.21875 L 862.417969 613.488281 L 863.8125 614.429688 L 865.207031 612.300781 L 866.601562 608.003906 L 868 605.128906 L 869.394531 602.285156 L 870.789062 605.34375 L 872.183594 603.25 L 873.578125 601.289062 L 874.972656 596.824219 L 876.367188 600.957031 L 877.765625 603.984375 L 879.160156 600.242188 L 880.554688 599.101562 L 881.949219 596.449219 L 883.34375 601.929688 L 884.738281 609.851562 L 886.136719 610.042969 L 887.53125 610.773438 L 888.925781 616.109375 L 890.320312 625.152344 L 891.714844 625.917969 L 893.109375 624.300781 L 894.507812 618.933594 L 895.902344 616.269531 L 897.296875 614.1875 L 898.691406 611.984375 L 900.085938 609.613281 L 901.480469 600.230469 L 902.875 603.683594 L 904.273438 605.53125 L 905.667969 611.273438 L 907.0625 616.207031 L 908.457031 618.957031 L 909.851562 623.097656 L 911.246094 629.070312 L 912.644531 636.289062 L 914.039062 634.1875 L 915.433594 631.714844 L 916.828125 637.84375 L 918.222656 638.089844 L 919.617188 636.691406 L 921.015625 633.300781 L 922.410156 632.824219 L 923.804688 633.898438 L 925.199219 641.40625 L 926.59375 641.378906 L 927.988281 640.847656 L 929.382812 635.867188 L 930.78125 642.140625 L 932.175781 641.945312 L 933.570312 639.816406 L 934.964844 630.199219 L 936.359375 632.496094 L 937.753906 627.914062 L 939.152344 626.894531 L 940.546875 633.484375 L 941.941406 645.179688 L 943.335938 643.515625 L 944.730469 649.164062 L 946.125 649.867188 L 947.523438 647.460938 L 948.917969 648.65625 L 950.3125 648.964844 L 951.707031 641.054688 L 953.101562 632.746094 L 954.496094 638.800781 L 955.894531 635.511719 L 957.289062 637.0625 L 958.683594 633.273438 L 960.078125 623.625 L 961.472656 621.085938 L 962.867188 625.292969 L 964.261719 625.070312 L 965.660156 627.390625 L 967.054688 622.726562 L 968.449219 621.363281 L 969.84375 625.355469 L 971.238281 623.054688 L 972.632812 632.566406 L 974.03125 638.347656 L 975.425781 639.554688 L 976.820312 634.417969 L 978.214844 647.539062 L 979.609375 637.820312 L 981.003906 637.832031 L 982.402344 637.617188 L 983.796875 635.421875 L 985.191406 627.152344 L 986.585938 624.625 L 987.980469 624.554688 L 989.375 632.953125 L 990.773438 631.957031 L 992.167969 624.214844 L 993.5625 622.972656 L 994.957031 625.648438 L 996.351562 623.101562 L 997.746094 626.144531 L 999.140625 627.648438 L 1000.539062 629.71875 L 1001.933594 626.03125 L 1003.328125 623.535156 L 1004.722656 627.300781 L 1006.117188 630.835938 L 1007.511719 633.757812 L 1008.910156 638.007812 L 1010.304688 644.285156 L 1011.699219 645.847656 L 1013.09375 641.0625 L 1014.488281 647.421875 L 1015.882812 650.9375 L 1017.28125 647.960938 L 1018.675781 647.859375 L 1020.070312 639.242188 L 1021.464844 636.066406 L 1022.859375 640.039062 L 1024.253906 641.800781 L 1025.648438 641.335938 L 1027.046875 644.132812 L 1028.441406 637.851562 L 1029.835938 636.28125 L 1031.230469 637.09375 L 1032.625 640.824219 L 1034.019531 645.867188 L 1035.417969 653.171875 L 1036.8125 652.914062 L 1038.207031 645.5 L 1039.601562 643.371094 L 1040.996094 648.800781 L 1042.390625 649.402344 L 1043.789062 652.613281 L 1045.183594 656.957031 L 1046.578125 655.117188 L 1047.972656 661.597656 L 1049.367188 661.785156 L 1050.761719 658.96875 L 1052.15625 652.953125 L 1053.554688 653.632812 L 1054.949219 654.992188 L 1056.34375 659.054688 L 1057.738281 663.738281 L 1059.132812 667.8125 L 1060.527344 666.875 L 1061.925781 661.050781 L 1063.320312 654.972656 L 1064.714844 647.503906 L 1066.109375 651.890625 L 1067.503906 654.234375 L 1068.898438 659.53125 L 1070.296875 656.832031 L 1071.691406 657.367188 L 1073.085938 653.105469 L 1074.480469 651.777344 L 1075.875 653.617188 L 1077.269531 656.308594 L 1078.664062 660.234375 L 1080.0625 669.488281 L 1081.457031 669.203125 L 1082.851562 668.742188 L 1084.246094 669.179688 L 1085.640625 676.105469 L 1087.035156 673.402344 L 1088.433594 674.933594 L 1089.828125 667.304688 L 1091.222656 673.378906 L 1092.617188 674.546875 L 1094.011719 677.503906 L 1095.40625 668.523438 L 1096.804688 660.191406 L 1098.199219 651.757812 L 1099.59375 653.613281 L 1100.988281 658.859375 L 1102.382812 665.710938 L 1103.777344 660.332031 L 1105.175781 655.585938 L 1106.570312 659.652344 L 1107.964844 659.574219 L 1109.359375 650.683594 L 1110.753906 646.871094 L 1112.148438 645.324219 L 1113.542969 644.117188 L 1114.941406 646.496094 L 1116.335938 657.664062 L 1117.730469 658.664062 L 1119.125 655.253906 L 1120.519531 651.667969 L 1121.914062 651.535156 L 1123.3125 650.433594 L 1124.707031 649.578125 L 1126.101562 648.023438 L 1127.496094 640.476562 L 1128.890625 643.800781 L 1130.285156 647.960938 L 1131.683594 643.46875 "/>
<path fill="none" stroke-width="3" stroke-linecap="butt" stroke-linejoin="miter" stroke="rgb(0%, 61.960787%, 45.09804%)" stroke-opacity="1" stroke-miterlimit="2" d="M 85.316406 695.765625 L 86.714844 696.398438 L 88.109375 700.910156 L 89.503906 707.527344 L 90.898438 709.488281 L 92.292969 709.84375 L 93.6875 707.957031 L 95.085938 704.796875 L 96.480469 697.628906 L 97.875 699.789062 L 99.269531 696.582031 L 100.664062 702.597656 L 102.058594 703.222656 L 103.457031 712.535156 L 104.851562 710.101562 L 106.246094 712.921875 L 107.640625 710.046875 L 109.035156 708.058594 L 110.429688 710.457031 L 111.824219 710.898438 L 113.222656 714.242188 L 114.617188 717.40625 L 116.011719 717.296875 L 117.40625 717.394531 L 118.800781 712.34375 L 120.195312 713.816406 L 121.59375 717.386719 L 122.988281 718.390625 L 124.382812 718.308594 L 125.777344 716.890625 L 127.171875 718.570312 L 128.566406 727.074219 L 129.964844 727.136719 L 131.359375 726.402344 L 132.753906 720.0625 L 134.148438 712.449219 L 135.542969 711.507812 L 136.9375 720.410156 L 138.332031 717.496094 L 139.730469 720.757812 L 141.125 711.976562 L 142.519531 703.15625 L 143.914062 702.007812 L 145.308594 707.582031 L 146.703125 708.269531 L 148.101562 709.722656 L 149.496094 709.53125 L 150.890625 710.09375 L 152.285156 709.332031 L 153.679688 711.410156 L 155.074219 704.910156 L 156.472656 702.457031 L 157.867188 701.601562 L 159.261719 708.132812 L 160.65625 706.621094 L 162.050781 696.402344 L 163.445312 714.105469 L 164.84375 705 L 166.238281 684.824219 L 167.632812 677.535156 L 169.027344 673.601562 L 170.421875 686.09375 L 171.816406 692.078125 L 173.210938 679.132812 L 174.609375 668.9375 L 176.003906 668.707031 L 177.398438 675.515625 L 178.792969 673.320312 L 180.1875 672.566406 L 181.582031 673.753906 L 182.980469 671.789062 L 184.375 669.441406 L 185.769531 673.507812 L 187.164062 672.707031 L 188.558594 677.507812 L 189.953125 673.441406 L 191.351562 685.363281 L 192.746094 683.808594 L 194.140625 692.035156 L 195.535156 692.285156 L 196.929688 700.316406 L 198.324219 703.445312 L 199.71875 693.074219 L 201.117188 687.496094 L 202.511719 690.082031 L 203.90625 686.265625 L 205.300781 689.796875 L 206.695312 691.402344 L 208.089844 696.292969 L 209.488281 690.914062 L 210.882812 685.117188 L 212.277344 674.058594 L 213.671875 667.957031 L 215.066406 671.898438 L 216.460938 679.097656 L 217.859375 686.359375 L 219.253906 689.992188 L 220.648438 689.351562 L 222.042969 687.53125 L 223.4375 684.429688 L 224.832031 686.597656 L 226.226562 694.445312 L 227.625 698.949219 L 229.019531 705.226562 L 230.414062 699.597656 L 231.808594 711.246094 L 233.203125 707.320312 L 234.597656 705.539062 L 235.996094 702.75 L 237.390625 696.097656 L 238.785156 697.921875 L 240.179688 706.792969 L 241.574219 715.410156 L 242.96875 715.226562 L 244.367188 717.121094 L 245.761719 709.648438 L 247.15625 701.847656 L 248.550781 688.597656 L 249.945312 696.351562 L 251.339844 700.6875 L 252.738281 710.402344 L 254.132812 708.324219 L 255.527344 709.507812 L 256.921875 704.429688 L 258.316406 706.21875 L 259.710938 704.605469 L 261.105469 702.503906 L 262.503906 701.25 L 263.898438 708.882812 L 265.292969 715.957031 L 266.6875 717.269531 L 268.082031 717.003906 L 269.476562 711.3125 L 270.875 703.503906 L 272.269531 707.121094 L 273.664062 717.246094 L 275.058594 714.460938 L 276.453125 719.324219 L 277.847656 721.839844 L 279.246094 722.652344 L 280.640625 714.921875 L 282.035156 705.238281 L 283.429688 682.882812 L 284.824219 689.328125 L 286.21875 702.542969 L 287.613281 704.035156 L 289.011719 690.175781 L 290.40625 691.308594 L 291.800781 691.074219 L 293.195312 687.570312 L 294.589844 686 L 295.984375 683.140625 L 297.382812 678.199219 L 298.777344 672.285156 L 300.171875 672.023438 L 301.566406 675.257812 L 302.960938 683.347656 L 304.355469 686.410156 L 305.753906 689.472656 L 307.148438 679.171875 L 308.542969 680.515625 L 309.9375 682.855469 L 311.332031 695.5625 L 312.726562 703.480469 L 314.121094 706.628906 L 315.519531 701.355469 L 316.914062 694.835938 L 318.308594 694.339844 L 319.703125 696.0625 L 321.097656 694.546875 L 322.492188 697.921875 L 323.890625 698.671875 L 325.285156 704.589844 L 326.679688 700.777344 L 328.074219 699.320312 L 329.46875 693.648438 L 330.863281 684.304688 L 332.261719 680.09375 L 333.65625 681.261719 L 335.050781 684.824219 L 336.445312 683.105469 L 337.839844 686.632812 L 339.234375 688.285156 L 340.632812 688.917969 L 342.027344 694.058594 L 343.421875 697.582031 L 344.816406 698.523438 L 346.210938 702.785156 L 347.605469 701.039062 L 349 708.101562 L 350.398438 713.621094 L 351.792969 713.808594 L 353.1875 705.898438 L 354.582031 689.128906 L 355.976562 685.734375 L 357.371094 684.089844 L 358.769531 684.988281 L 360.164062 684.886719 L 361.558594 682.265625 L 362.953125 672.796875 L 364.347656 660.042969 L 365.742188 662.34375 L 367.140625 669.09375 L 368.535156 673.351562 L 369.929688 679.777344 L 371.324219 680.1875 L 372.71875 682.277344 L 374.113281 677.453125 L 375.507812 679.710938 L 376.90625 682.871094 L 378.300781 685.964844 L 379.695312 690.109375 L 381.089844 690.691406 L 382.484375 693.28125 L 383.878906 692.859375 L 385.277344 686.527344 L 386.671875 675.683594 L 388.066406 672.066406 L 389.460938 672.945312 L 390.855469 680.261719 L 392.25 685.679688 L 393.648438 687.910156 L 395.042969 686.351562 L 396.4375 686.476562 L 397.832031 683.472656 L 399.226562 680.375 L 400.621094 679.414062 L 402.015625 674.835938 L 403.414062 677.308594 L 404.808594 678.199219 L 406.203125 683.363281 L 407.597656 675.710938 L 408.992188 678.113281 L 410.386719 681.789062 L 411.785156 678.820312 L 413.179688 671.214844 L 414.574219 675.503906 L 415.96875 676.722656 L 417.363281 684.304688 L 418.757812 684.195312 L 420.15625 675.644531 L 421.550781 668.097656 L 422.945312 656.175781 L 424.339844 650.285156 L 425.734375 655.125 L 427.128906 670.25 L 428.527344 673.867188 L 429.921875 673.519531 L 431.316406 654.65625 L 432.710938 642.207031 L 434.105469 629.359375 L 435.5 620.121094 L 436.894531 621.3125 L 438.292969 620.269531 L 439.6875 620.078125 L 441.082031 617.605469 L 442.476562 635.753906 L 443.871094 650.335938 L 445.265625 652.894531 L 446.664062 654.140625 L 448.058594 659.191406 L 449.453125 667.34375 L 450.847656 674.917969 L 452.242188 671.132812 L 453.636719 667.101562 L 455.035156 664.867188 L 456.429688 661.015625 L 457.824219 659.296875 L 459.21875 660.84375 L 460.613281 651.484375 L 462.007812 638.179688 L 463.402344 629.792969 L 464.800781 624.152344 L 466.195312 616.335938 L 467.589844 607.347656 L 468.984375 598.113281 L 470.378906 590.828125 L 471.773438 582.597656 L 473.171875 577.5 L 474.566406 583.929688 L 475.960938 584.449219 L 477.355469 588.722656 L 478.75 586.152344 L 480.144531 592.585938 L 481.542969 612.976562 L 482.9375 628.761719 L 484.332031 645.160156 L 485.726562 655.164062 L 487.121094 650.265625 L 488.515625 653.980469 L 489.914062 660.199219 L 491.308594 659.910156 L 492.703125 658.964844 L 494.097656 648.507812 L 495.492188 649.667969 L 496.886719 648.867188 L 498.28125 640.238281 L 499.679688 629.300781 L 501.074219 620.953125 L 502.46875 608.71875 L 503.863281 602.917969 L 505.257812 599.820312 L 506.652344 598.476562 L 508.050781 591.527344 L 509.445312 582.65625 L 510.839844 577.570312 L 512.234375 573.300781 L 513.628906 568.976562 L 515.023438 559.335938 L 516.421875 551.152344 L 517.816406 541.457031 L 519.210938 542.710938 L 520.605469 537.417969 L 522 526.058594 L 523.394531 511.726562 L 524.789062 500.8125 L 526.1875 496.453125 L 527.582031 486.824219 L 528.976562 478.539062 L 530.371094 474.523438 L 531.765625 466.339844 L 533.160156 455.199219 L 534.558594 438.21875 L 535.953125 428.402344 L 537.347656 416.777344 L 538.742188 400.816406 L 540.136719 390.75 L 541.53125 378.304688 L 542.929688 366.664062 L 544.324219 356.425781 L 545.71875 342.511719 L 547.113281 327.113281 L 548.507812 306.039062 L 549.902344 291.433594 L 551.296875 271.28125 L 552.695312 252.09375 L 554.089844 238.597656 L 555.484375 216.066406 L 556.878906 190.667969 L 558.273438 174.265625 L 559.667969 162.363281 L 561.066406 155.847656 L 562.460938 134.453125 L 563.855469 123.175781 L 565.25 104.117188 L 566.644531 100.210938 L 568.039062 90.449219 L 569.4375 82.160156 L 570.832031 77.90625 L 572.226562 73.214844 L 573.621094 63.175781 L 575.015625 57.320312 L 576.410156 52.492188 L 577.804688 51.121094 L 579.203125 49.863281 L 580.597656 52.695312 L 581.992188 57.535156 L 583.386719 66.03125 L 584.78125 71.4375 L 586.175781 75.71875 L 587.574219 82.859375 L 588.96875 87.609375 L 590.363281 90.703125 L 591.757812 95.304688 L 593.152344 100.765625 L 594.546875 109.480469 L 595.945312 117.210938 L 597.339844 128.789062 L 598.734375 140.050781 L 600.128906 145.953125 L 601.523438 150.464844 L 602.917969 153.199219 L 604.316406 157.984375 L 605.710938 165.515625 L 607.105469 172.652344 L 608.5 172.871094 L 609.894531 174.5 L 611.289062 179.246094 L 612.683594 180.773438 L 614.082031 185.832031 L 615.476562 185.503906 L 616.871094 189.074219 L 618.265625 192.761719 L 619.660156 197.265625 L 621.054688 206.046875 L 622.453125 205.414062 L 623.847656 211.675781 L 625.242188 217.808594 L 626.636719 225.25 L 628.03125 236.804688 L 629.425781 245.96875 L 630.824219 251.125 L 632.21875 252.191406 L 633.613281 258.320312 L 635.007812 264.773438 L 636.402344 269.296875 L 637.796875 279.660156 L 639.191406 279.804688 L 640.589844 280.949219 L 641.984375 275.082031 L 643.378906 268.175781 L 644.773438 261.359375 L 646.167969 263.847656 L 647.5625 263.574219 L 648.960938 274.289062 L 650.355469 271.964844 L 651.75 273.214844 L 653.144531 274.949219 L 654.539062 278.863281 L 655.933594 281.921875 L 657.332031 291.570312 L 658.726562 297.480469 L 660.121094 310.441406 L 661.515625 310.398438 L 662.910156 310.15625 L 664.304688 306.460938 L 665.703125 302.984375 L 667.097656 299.089844 L 668.492188 305.296875 L 669.886719 307.929688 L 671.28125 308.011719 L 672.675781 309.152344 L 674.070312 312.21875 L 675.46875 319.804688 L 676.863281 321.085938 L 678.257812 319.097656 L 679.652344 315.835938 L 681.046875 321.699219 L 682.441406 321.703125 L 683.839844 316.5 L 685.234375 308.59375 L 686.628906 309.488281 L 688.023438 310.191406 L 689.417969 312.417969 L 690.8125 316.125 L 692.210938 324.589844 L 693.605469 330.226562 L 695 336.09375 L 696.394531 341.578125 L 697.789062 339.964844 L 699.183594 339.875 L 700.578125 337.140625 L 701.976562 342.613281 L 703.371094 352.363281 L 704.765625 353.046875 L 706.160156 355.246094 L 707.554688 354.484375 L 708.949219 352.15625 L 710.347656 347.238281 L 711.742188 351.78125 L 713.136719 350.878906 L 714.53125 348.113281 L 715.925781 342.320312 L 717.320312 338.769531 L 718.71875 338.175781 L 720.113281 341.398438 L 721.507812 345.074219 L 722.902344 343 L 724.296875 338.761719 L 725.691406 330.988281 L 727.085938 321.59375 L 728.484375 324.90625 L 729.878906 327.625 L 731.273438 330.074219 L 732.667969 331.265625 L 734.0625 329.582031 L 735.457031 326.851562 L 736.855469 326.144531 L 738.25 326.921875 L 739.644531 328.660156 L 741.039062 338.925781 L 742.433594 338.507812 L 743.828125 341.035156 L 745.226562 340.558594 L 746.621094 346.074219 L 748.015625 353.113281 L 749.410156 359.800781 L 750.804688 364.726562 L 752.199219 363.445312 L 753.59375 362.046875 L 754.992188 360.757812 L 756.386719 359.34375 L 757.78125 356.226562 L 759.175781 355.300781 L 760.570312 354.808594 L 761.964844 354.722656 L 763.363281 352.722656 L 764.757812 351.265625 L 766.152344 345.296875 L 767.546875 347.015625 L 768.941406 341.632812 L 770.335938 341.441406 L 771.734375 344.4375 L 773.128906 353.613281 L 774.523438 358.136719 L 775.917969 360.714844 L 777.3125 370.734375 L 778.707031 381.449219 L 780.105469 388.054688 L 781.5 389.09375 L 782.894531 394.28125 L 784.289062 396.050781 L 785.683594 395.082031 L 787.078125 398.574219 L 788.472656 398.582031 L 789.871094 400.203125 L 791.265625 401.5625 L 792.660156 394.796875 L 794.054688 390.726562 L 795.449219 393.402344 L 796.84375 397.765625 L 798.242188 404.109375 L 799.636719 404.339844 L 801.03125 411 L 802.425781 410.910156 L 803.820312 414.148438 L 805.214844 411.546875 L 806.613281 410.882812 L 808.007812 416.992188 L 809.402344 426.59375 L 810.796875 429.496094 L 812.191406 435.445312 L 813.585938 439.25 L 814.984375 459.554688 L 816.378906 466.703125 L 817.773438 471.738281 L 819.167969 471.03125 L 820.5625 464.109375 L 821.957031 463.933594 L 823.351562 466.898438 L 824.75 473.0625 L 826.144531 474.386719 L 827.539062 465.988281 L 828.933594 457.929688 L 830.328125 461.449219 L 831.722656 467.257812 L 833.121094 471.664062 L 834.515625 469.722656 L 835.910156 467.910156 L 837.304688 465.375 L 838.699219 469.375 L 840.09375 471.042969 L 841.492188 470.445312 L 842.886719 473.46875 L 844.28125 474.007812 L 845.675781 479.863281 L 847.070312 486.355469 L 848.464844 491.773438 L 849.859375 487.449219 L 851.257812 488.210938 L 852.652344 489.117188 L 854.046875 494.253906 L 855.441406 500.925781 L 856.835938 510.292969 L 858.230469 509.410156 L 859.628906 505.136719 L 861.023438 506.589844 L 862.417969 507.085938 L 863.8125 514.519531 L 865.207031 517.636719 L 866.601562 523.367188 L 868 522.191406 L 869.394531 522.628906 L 870.789062 522.515625 L 872.183594 520.121094 L 873.578125 518.851562 L 874.972656 511.464844 L 876.367188 517.695312 L 877.765625 518.292969 L 879.160156 518.019531 L 880.554688 518.542969 L 881.949219 529.953125 L 883.34375 541.433594 L 884.738281 549.03125 L 886.136719 552.226562 L 887.53125 557.4375 L 888.925781 569.554688 L 890.320312 570.46875 L 891.714844 565.050781 L 893.109375 558.25 L 894.507812 553.886719 L 895.902344 556.289062 L 897.296875 552.042969 L 898.691406 549.125 L 900.085938 542.023438 L 901.480469 543.085938 L 902.875 548.449219 L 904.273438 552.9375 L 905.667969 560.363281 L 907.0625 563.875 L 908.457031 565.8125 L 909.851562 567.996094 L 911.246094 569.714844 L 912.644531 570.351562 L 914.039062 575.21875 L 915.433594 574.027344 L 916.828125 570.710938 L 918.222656 565.34375 L 919.617188 567.457031 L 921.015625 566.332031 L 922.410156 560.292969 L 923.804688 558.355469 L 925.199219 565.378906 L 926.59375 564.632812 L 927.988281 567.550781 L 929.382812 565.859375 L 930.78125 571.796875 L 932.175781 573.078125 L 933.570312 571.664062 L 934.964844 574.878906 L 936.359375 582.46875 L 937.753906 574.804688 L 939.152344 572.546875 L 940.546875 575.476562 L 941.941406 575.910156 L 943.335938 579.183594 L 944.730469 582.980469 L 946.125 578.707031 L 947.523438 579.402344 L 948.917969 581.050781 L 950.3125 584.058594 L 951.707031 583.597656 L 953.101562 589.101562 L 954.496094 585.679688 L 955.894531 590.328125 L 957.289062 592.007812 L 958.683594 594.152344 L 960.078125 595.539062 L 961.472656 597.195312 L 962.867188 595.859375 L 964.261719 599.308594 L 965.660156 602.589844 L 967.054688 604.324219 L 968.449219 603.28125 L 969.84375 604.097656 L 971.238281 602.445312 L 972.632812 600.269531 L 974.03125 598.617188 L 975.425781 596.707031 L 976.820312 602.4375 L 978.214844 612.890625 L 979.609375 615.394531 L 981.003906 616.988281 L 982.402344 610.496094 L 983.796875 608.695312 L 985.191406 615.253906 L 986.585938 615.375 L 987.980469 606.675781 L 989.375 604.152344 L 990.773438 605.945312 L 992.167969 608.289062 L 993.5625 619.128906 L 994.957031 622.519531 L 996.351562 625.847656 L 997.746094 627.382812 L 999.140625 638.34375 L 1000.539062 643.5625 L 1001.933594 648.230469 L 1003.328125 642.894531 L 1004.722656 646.292969 L 1006.117188 651.40625 L 1007.511719 651.109375 L 1008.910156 643.25 L 1010.304688 643.320312 L 1011.699219 638.929688 L 1013.09375 635.3125 L 1014.488281 633.839844 L 1015.882812 642.359375 L 1017.28125 650.269531 L 1018.675781 648.179688 L 1020.070312 644.816406 L 1021.464844 639.90625 L 1022.859375 637.761719 L 1024.253906 636.988281 L 1025.648438 639.671875 L 1027.046875 639.554688 L 1028.441406 642.023438 L 1029.835938 644.03125 L 1031.230469 644.855469 L 1032.625 646.664062 L 1034.019531 645.246094 L 1035.417969 650.839844 L 1036.8125 658.898438 L 1038.207031 667.582031 L 1039.601562 667.503906 L 1040.996094 666.902344 L 1042.390625 671.929688 L 1043.789062 673.007812 L 1045.183594 663.808594 L 1046.578125 656.960938 L 1047.972656 650.183594 L 1049.367188 647.972656 L 1050.761719 650.699219 L 1052.15625 645.773438 L 1053.554688 642.921875 L 1054.949219 634.625 L 1056.34375 637.675781 L 1057.738281 636.535156 L 1059.132812 640.980469 L 1060.527344 639.710938 L 1061.925781 636.449219 L 1063.320312 634.621094 L 1064.714844 634.75 L 1066.109375 631.949219 L 1067.503906 629.640625 L 1068.898438 624.703125 L 1070.296875 624.148438 L 1071.691406 621.085938 L 1073.085938 623.640625 L 1074.480469 626.976562 L 1075.875 621.867188 L 1077.269531 620.609375 L 1078.664062 620.328125 L 1080.0625 614.285156 L 1081.457031 617.109375 L 1082.851562 623.441406 L 1084.246094 632.550781 L 1085.640625 638.011719 L 1087.035156 639.210938 L 1088.433594 640.085938 L 1089.828125 637.6875 L 1091.222656 635.605469 L 1092.617188 638.320312 L 1094.011719 639.039062 L 1095.40625 649.203125 L 1096.804688 648.699219 L 1098.199219 653.84375 L 1099.59375 653.15625 L 1100.988281 651.695312 L 1102.382812 645.371094 L 1103.777344 647.558594 L 1105.175781 647.207031 L 1106.570312 650.613281 L 1107.964844 655.671875 L 1109.359375 658.925781 L 1110.753906 655.101562 L 1112.148438 655.59375 L 1113.542969 656.515625 L 1114.941406 656.230469 L 1116.335938 654.386719 L 1117.730469 653.714844 L 1119.125 652.460938 L 1120.519531 646.246094 L 1121.914062 645.910156 L 1123.3125 645.214844 L 1124.707031 636.21875 L 1126.101562 633.371094 L 1127.496094 633.675781 L 1128.890625 638.355469 L 1130.285156 645.421875 L 1131.683594 649.484375 "/>
<path fill="none" stroke-width="3" stroke-linecap="butt" stroke-linejoin="miter" stroke="rgb(80.000001%, 47.450981%, 65.490198%)" stroke-opacity="1" stroke-miterlimit="2" d="M 85.316406 660.667969 L 86.714844 667.535156 L 88.109375 664.238281 L 89.503906 671.105469 L 90.898438 673.164062 L 92.292969 672.714844 L 93.6875 672.628906 L 95.085938 672.34375 L 96.480469 673.042969 L 97.875 674.953125 L 99.269531 674.542969 L 100.664062 676.746094 L 102.058594 676.3125 L 103.457031 683.195312 L 104.851562 685.585938 L 106.246094 680.359375 L 107.640625 674.738281 L 109.035156 676.644531 L 110.429688 676.042969 L 111.824219 684.347656 L 113.222656 687.398438 L 114.617188 687.730469 L 116.011719 684.886719 L 117.40625 683.695312 L 118.800781 683.984375 L 120.195312 681.375 L 121.59375 678.515625 L 122.988281 679.257812 L 124.382812 678.621094 L 125.777344 689.488281 L 127.171875 693.9375 L 128.566406 697.289062 L 129.964844 698.730469 L 131.359375 705.859375 L 132.753906 713.359375 L 134.148438 715.179688 L 135.542969 715.554688 L 136.9375 708.273438 L 138.332031 708.082031 L 139.730469 703.628906 L 141.125 699.59375 L 142.519531 699.328125 L 143.914062 703.53125 L 145.308594 700.570312 L 146.703125 693.742188 L 148.101562 687.15625 L 149.496094 685.980469 L 150.890625 687.789062 L 152.285156 686.382812 L 153.679688 689.957031 L 155.074219 688.515625 L 156.472656 691.492188 L 157.867188 695.546875 L 159.261719 698.359375 L 160.65625 693.433594 L 162.050781 693.914062 L 163.445312 695.75 L 164.84375 697.507812 L 166.238281 690.09375 L 167.632812 697.457031 L 169.027344 694.8125 L 170.421875 688.605469 L 171.816406 684.328125 L 173.210938 688.863281 L 174.609375 682.417969 L 176.003906 679.292969 L 177.398438 684.386719 L 178.792969 685.460938 L 180.1875 687.828125 L 181.582031 685 L 182.980469 679.945312 L 184.375 681.511719 L 185.769531 679.871094 L 187.164062 681.339844 L 188.558594 685.875 L 189.953125 688.078125 L 191.351562 694.820312 L 192.746094 695.183594 L 194.140625 693.644531 L 195.535156 698.800781 L 196.929688 705.136719 L 198.324219 705.421875 L 199.71875 707.828125 L 201.117188 708.058594 L 202.511719 708.335938 L 203.90625 711.015625 L 205.300781 706.414062 L 206.695312 705.199219 L 208.089844 705.542969 L 209.488281 702.054688 L 210.882812 710.367188 L 212.277344 707.605469 L 213.671875 713.246094 L 215.066406 720.617188 L 216.460938 717.226562 L 217.859375 709.320312 L 219.253906 708.761719 L 220.648438 706.484375 L 222.042969 712.933594 L 223.4375 713 L 224.832031 713.164062 L 226.226562 716.914062 L 227.625 714.617188 L 229.019531 714.652344 L 230.414062 716.058594 L 231.808594 707.476562 L 233.203125 701.5 L 234.597656 697.164062 L 235.996094 694.335938 L 237.390625 693.820312 L 238.785156 693.46875 L 240.179688 691.546875 L 241.574219 685.613281 L 242.96875 684.054688 L 244.367188 683.554688 L 245.761719 674.816406 L 247.15625 674.214844 L 248.550781 668.730469 L 249.945312 677.507812 L 251.339844 680.164062 L 252.738281 690.933594 L 254.132812 684.117188 L 255.527344 687.808594 L 256.921875 686.101562 L 258.316406 682.261719 L 259.710938 685.226562 L 261.105469 687.984375 L 262.503906 685.351562 L 263.898438 679.78125 L 265.292969 673.359375 L 266.6875 667.078125 L 268.082031 664.347656 L 269.476562 669.5625 L 270.875 675.914062 L 272.269531 675.585938 L 273.664062 668.824219 L 275.058594 660.707031 L 276.453125 663.375 L 277.847656 656.609375 L 279.246094 660.90625 L 280.640625 661.535156 L 282.035156 663.722656 L 283.429688 665.300781 L 284.824219 671.777344 L 286.21875 672.027344 L 287.613281 678.230469 L 289.011719 675.511719 L 290.40625 672.359375 L 291.800781 668.171875 L 293.195312 673.265625 L 294.589844 674.210938 L 295.984375 675.964844 L 297.382812 675.707031 L 298.777344 675.519531 L 300.171875 676.296875 L 301.566406 675.328125 L 302.960938 669.152344 L 304.355469 675.679688 L 305.753906 675.136719 L 307.148438 672.761719 L 308.542969 671.707031 L 309.9375 669.074219 L 311.332031 672.355469 L 312.726562 674.265625 L 314.121094 671.5 L 315.519531 668.464844 L 316.914062 675.082031 L 318.308594 678.6875 L 319.703125 677.347656 L 321.097656 681.789062 L 322.492188 685.375 L 323.890625 686.15625 L 325.285156 682.375 L 326.679688 671.898438 L 328.074219 672.328125 L 329.46875 672.511719 L 330.863281 672.851562 L 332.261719 684.921875 L 333.65625 685.542969 L 335.050781 686.277344 L 336.445312 688.839844 L 337.839844 682.1875 L 339.234375 677.984375 L 340.632812 676.855469 L 342.027344 682.859375 L 343.421875 681.105469 L 344.816406 688.628906 L 346.210938 695.214844 L 347.605469 693.554688 L 349 694.445312 L 350.398438 695.976562 L 351.792969 696.8125 L 353.1875 699.4375 L 354.582031 700.0625 L 355.976562 701.664062 L 357.371094 705.675781 L 358.769531 707.757812 L 360.164062 710.203125 L 361.558594 708.855469 L 362.953125 704.296875 L 364.347656 698.726562 L 365.742188 699.65625 L 367.140625 702.570312 L 368.535156 702.886719 L 369.929688 701.886719 L 371.324219 696.175781 L 372.71875 697.910156 L 374.113281 700.09375 L 375.507812 696.652344 L 376.90625 692.878906 L 378.300781 702.515625 L 379.695312 702.136719 L 381.089844 700.953125 L 382.484375 702.453125 L 383.878906 701.324219 L 385.277344 694.09375 L 386.671875 696.4375 L 388.066406 704.015625 L 389.460938 701.082031 L 390.855469 694.992188 L 392.25 689.839844 L 393.648438 688.246094 L 395.042969 684.65625 L 396.4375 685.167969 L 397.832031 699.050781 L 399.226562 704.074219 L 400.621094 710.882812 L 402.015625 708.644531 L 403.414062 711.066406 L 404.808594 714.304688 L 406.203125 700.667969 L 407.597656 700.222656 L 408.992188 706.863281 L 410.386719 710.601562 L 411.785156 706.265625 L 413.179688 703.199219 L 414.574219 704.789062 L 415.96875 710.230469 L 417.363281 714.484375 L 418.757812 703.292969 L 420.15625 693.074219 L 421.550781 680.546875 L 422.945312 678.136719 L 424.339844 678.960938 L 425.734375 679.410156 L 427.128906 683.417969 L 428.527344 678.121094 L 429.921875 671.894531 L 431.316406 671.335938 L 432.710938 668.871094 L 434.105469 660.738281 L 435.5 655.246094 L 436.894531 640.472656 L 438.292969 644.699219 L 439.6875 648.09375 L 441.082031 659.589844 L 442.476562 666.605469 L 443.871094 676.304688 L 445.265625 681.664062 L 446.664062 690.914062 L 448.058594 693.652344 L 449.453125 680.929688 L 450.847656 676.394531 L 452.242188 676.78125 L 453.636719 680.757812 L 455.035156 685.289062 L 456.429688 686.59375 L 457.824219 686.164062 L 459.21875 686.230469 L 460.613281 684.265625 L 462.007812 685.210938 L 463.402344 678.925781 L 464.800781 671.894531 L 466.195312 669.878906 L 467.589844 661.664062 L 468.984375 657.066406 L 470.378906 647.289062 L 471.773438 625.949219 L 473.171875 618.421875 L 474.566406 617.601562 L 475.960938 617.78125 L 477.355469 613.386719 L 478.75 613.039062 L 480.144531 618.035156 L 481.542969 630.324219 L 482.9375 634.738281 L 484.332031 641.230469 L 485.726562 639.210938 L 487.121094 640.640625 L 488.515625 642.664062 L 489.914062 645.605469 L 491.308594 643.128906 L 492.703125 641.824219 L 494.097656 641.285156 L 495.492188 638.335938 L 496.886719 634.878906 L 498.28125 638.695312 L 499.679688 636.292969 L 501.074219 630.765625 L 502.46875 627.371094 L 503.863281 620.082031 L 505.257812 612.058594 L 506.652344 603.140625 L 508.050781 599.054688 L 509.445312 590.929688 L 510.839844 576.777344 L 512.234375 564.644531 L 513.628906 557.460938 L 515.023438 537.644531 L 516.421875 529.785156 L 517.816406 517.542969 L 519.210938 504.003906 L 520.605469 493.257812 L 522 482.746094 L 523.394531 477.890625 L 524.789062 467.707031 L 526.1875 453.183594 L 527.582031 445.523438 L 528.976562 428.167969 L 530.371094 422.453125 L 531.765625 416.410156 L 533.160156 413.035156 L 534.558594 406.835938 L 535.953125 395.304688 L 537.347656 383.347656 L 538.742188 374.785156 L 540.136719 367.203125 L 541.53125 358.644531 L 542.929688 350.550781 L 544.324219 343.375 L 545.71875 335.941406 L 547.113281 320.394531 L 548.507812 301.078125 L 549.902344 277.988281 L 551.296875 257.597656 L 552.695312 231.535156 L 554.089844 209.925781 L 555.484375 199.539062 L 556.878906 180.550781 L 558.273438 159.183594 L 559.667969 136.511719 L 561.066406 119.585938 L 562.460938 107.625 L 563.855469 91.453125 L 565.25 83.167969 L 566.644531 82.800781 L 568.039062 68.707031 L 569.4375 58.1875 L 570.832031 53.414062 L 572.226562 53.09375 L 573.621094 50.949219 L 575.015625 57.371094 L 576.410156 60.214844 L 577.804688 60.664062 L 579.203125 67.265625 L 580.597656 67.53125 L 581.992188 75.164062 L 583.386719 78.351562 L 584.78125 83.449219 L 586.175781 86.285156 L 587.574219 92.417969 L 588.96875 90.03125 L 590.363281 79.628906 L 591.757812 75.300781 L 593.152344 78.402344 L 594.546875 80.148438 L 595.945312 90.214844 L 597.339844 98.828125 L 598.734375 113.160156 L 600.128906 108.996094 L 601.523438 111.4375 L 602.917969 123.347656 L 604.316406 125.917969 L 605.710938 144.953125 L 607.105469 157.503906 L 608.5 157.53125 L 609.894531 162.492188 L 611.289062 161.6875 L 612.683594 168.753906 L 614.082031 185.191406 L 615.476562 196.117188 L 616.871094 203.664062 L 618.265625 204.816406 L 619.660156 206.835938 L 621.054688 215.089844 L 622.453125 226.390625 L 623.847656 227.488281 L 625.242188 232.058594 L 626.636719 232.421875 L 628.03125 234.253906 L 629.425781 242.199219 L 630.824219 255.894531 L 632.21875 258.1875 L 633.613281 256.070312 L 635.007812 252.992188 L 636.402344 253.101562 L 637.796875 258.25 L 639.191406 266.6875 L 640.589844 273.703125 L 641.984375 283.878906 L 643.378906 287.171875 L 644.773438 292.5 L 646.167969 300.132812 L 647.5625 302.246094 L 648.960938 303.199219 L 650.355469 306.761719 L 651.75 301.953125 L 653.144531 305.246094 L 654.539062 308.859375 L 655.933594 313.675781 L 657.332031 318.238281 L 658.726562 321.222656 L 660.121094 323.167969 L 661.515625 329.179688 L 662.910156 339.761719 L 664.304688 341.460938 L 665.703125 342.984375 L 667.097656 345.132812 L 668.492188 355.003906 L 669.886719 359.609375 L 671.28125 358.164062 L 672.675781 354.003906 L 674.070312 348.074219 L 675.46875 350.085938 L 676.863281 339.917969 L 678.257812 339.175781 L 679.652344 341.652344 L 681.046875 346.515625 L 682.441406 349.046875 L 683.839844 357.648438 L 685.234375 355 L 686.628906 349.175781 L 688.023438 347.484375 L 689.417969 345.296875 L 690.8125 348.4375 L 692.210938 355.351562 L 693.605469 359.339844 L 695 366.648438 L 696.394531 378.191406 L 697.789062 376.851562 L 699.183594 373.75 L 700.578125 366.453125 L 701.976562 357.230469 L 703.371094 353.15625 L 704.765625 353.367188 L 706.160156 347.515625 L 707.554688 348.191406 L 708.949219 351.390625 L 710.347656 353.089844 L 711.742188 358.089844 L 713.136719 356.484375 L 714.53125 355.375 L 715.925781 350.925781 L 717.320312 344.714844 L 718.71875 339.851562 L 720.113281 339.160156 L 721.507812 342.375 L 722.902344 342.09375 L 724.296875 342.152344 L 725.691406 343.523438 L 727.085938 341.035156 L 728.484375 334.320312 L 729.878906 331.085938 L 731.273438 332.789062 L 732.667969 335.289062 L 734.0625 344.433594 L 735.457031 350.378906 L 736.855469 357.957031 L 738.25 359.9375 L 739.644531 350.070312 L 741.039062 338.277344 L 742.433594 340.96875 L 743.828125 350.285156 L 745.226562 353.011719 L 746.621094 347.8125 L 748.015625 352.398438 L 749.410156 351.910156 L 750.804688 345.027344 L 752.199219 342.496094 L 753.59375 338.28125 L 754.992188 338.597656 L 756.386719 336 L 757.78125 336.964844 L 759.175781 336.40625 L 760.570312 336.386719 L 761.964844 336.355469 L 763.363281 337.6875 L 764.757812 343.761719 L 766.152344 347.679688 L 767.546875 348.648438 L 768.941406 357.164062 L 770.335938 356.429688 L 771.734375 361.878906 L 773.128906 358.101562 L 774.523438 353.902344 L 775.917969 361.4375 L 777.3125 365.195312 L 778.707031 366.464844 L 780.105469 369.390625 L 781.5 368.203125 L 782.894531 367.679688 L 784.289062 376.28125 L 785.683594 370.699219 L 787.078125 361.09375 L 788.472656 365.585938 L 789.871094 375.820312 L 791.265625 384.734375 L 792.660156 387.902344 L 794.054688 384.070312 L 795.449219 388.265625 L 796.84375 391.75 L 798.242188 403.121094 L 799.636719 407.359375 L 801.03125 413.488281 L 802.425781 420.902344 L 803.820312 432.039062 L 805.214844 435.34375 L 806.613281 431.082031 L 808.007812 433.019531 L 809.402344 436.921875 L 810.796875 439.171875 L 812.191406 446.273438 L 813.585938 450.316406 L 814.984375 452.894531 L 816.378906 451.59375 L 817.773438 455.875 L 819.167969 465.28125 L 820.5625 476.351562 L 821.957031 474.117188 L 823.351562 470.0625 L 824.75 470.574219 L 826.144531 476.492188 L 827.539062 478.472656 L 828.933594 479.8125 L 830.328125 476.199219 L 831.722656 476.96875 L 833.121094 475.15625 L 834.515625 465.558594 L 835.910156 466.476562 L 837.304688 477.957031 L 838.699219 479.855469 L 840.09375 485.933594 L 841.492188 484.140625 L 842.886719 490.082031 L 844.28125 498.546875 L 845.675781 500.277344 L 847.070312 510.5625 L 848.464844 514.589844 L 849.859375 513.757812 L 851.257812 507.640625 L 852.652344 498.144531 L 854.046875 503.074219 L 855.441406 499.011719 L 856.835938 505.234375 L 858.230469 512.785156 L 859.628906 517.226562 L 861.023438 516.71875 L 862.417969 519.761719 L 863.8125 525.34375 L 865.207031 529.15625 L 866.601562 528.894531 L 868 524.089844 L 869.394531 524.148438 L 870.789062 536.328125 L 872.183594 552.847656 L 873.578125 554.574219 L 874.972656 552.78125 L 876.367188 549.949219 L 877.765625 546.648438 L 879.160156 548.273438 L 880.554688 552.371094 L 881.949219 566.222656 L 883.34375 566.964844 L 884.738281 568.339844 L 886.136719 565.421875 L 887.53125 570.585938 L 888.925781 568.132812 L 890.320312 571.019531 L 891.714844 576.640625 L 893.109375 566.523438 L 894.507812 574.308594 L 895.902344 582.128906 L 897.296875 579.25 L 898.691406 580.613281 L 900.085938 583.371094 L 901.480469 586.621094 L 902.875 590.355469 L 904.273438 587.992188 L 905.667969 581.246094 L 907.0625 577.527344 L 908.457031 573.203125 L 909.851562 574.679688 L 911.246094 579.34375 L 912.644531 587.898438 L 914.039062 587.679688 L 915.433594 586.398438 L 916.828125 588.058594 L 918.222656 591.765625 L 919.617188 596.164062 L 921.015625 605.082031 L 922.410156 611.921875 L 923.804688 613.757812 L 925.199219 609.347656 L 926.59375 609.867188 L 927.988281 609.640625 L 929.382812 610.121094 L 930.78125 605.195312 L 932.175781 607.789062 L 933.570312 612.28125 L 934.964844 609.847656 L 936.359375 610.101562 L 937.753906 597.78125 L 939.152344 600.304688 L 940.546875 597.609375 L 941.941406 601.089844 L 943.335938 599.839844 L 944.730469 599.15625 L 946.125 605.300781 L 947.523438 606.121094 L 948.917969 614.191406 L 950.3125 615.84375 L 951.707031 617.945312 L 953.101562 621.125 L 954.496094 614.925781 L 955.894531 620.371094 L 957.289062 621.277344 L 958.683594 628.191406 L 960.078125 630.726562 L 961.472656 635.207031 L 962.867188 639.113281 L 964.261719 641.328125 L 965.660156 644.109375 L 967.054688 646.542969 L 968.449219 646.859375 L 969.84375 641.242188 L 971.238281 638.53125 L 972.632812 643.734375 L 974.03125 634.742188 L 975.425781 634.644531 L 976.820312 637.992188 L 978.214844 640.476562 L 979.609375 640.222656 L 981.003906 636.695312 L 982.402344 637.34375 L 983.796875 643.195312 L 985.191406 637.164062 L 986.585938 643.582031 L 987.980469 643.273438 L 989.375 645.941406 L 990.773438 648.339844 L 992.167969 650.871094 L 993.5625 650.195312 L 994.957031 653.964844 L 996.351562 646.761719 L 997.746094 642.257812 L 999.140625 646.871094 L 1000.539062 653.273438 L 1001.933594 658.105469 L 1003.328125 666.253906 L 1004.722656 678.46875 L 1006.117188 688.628906 L 1007.511719 675.027344 L 1008.910156 676.730469 L 1010.304688 682.6875 L 1011.699219 677.296875 L 1013.09375 678.042969 L 1014.488281 676.71875 L 1015.882812 685.480469 L 1017.28125 687.507812 L 1018.675781 690.339844 L 1020.070312 688.0625 L 1021.464844 681.757812 L 1022.859375 676.976562 L 1024.253906 678.589844 L 1025.648438 687.390625 L 1027.046875 688.539062 L 1028.441406 691.777344 L 1029.835938 694.558594 L 1031.230469 692.175781 L 1032.625 686.433594 L 1034.019531 685.546875 L 1035.417969 684.121094 L 1036.8125 686.660156 L 1038.207031 683.710938 L 1039.601562 676.652344 L 1040.996094 664.699219 L 1042.390625 663.214844 L 1043.789062 663.226562 L 1045.183594 675.316406 L 1046.578125 682.886719 L 1047.972656 681.664062 L 1049.367188 682.769531 L 1050.761719 684.285156 L 1052.15625 678.144531 L 1053.554688 677.269531 L 1054.949219 686.109375 L 1056.34375 684.882812 L 1057.738281 690.738281 L 1059.132812 690.953125 L 1060.527344 692.316406 L 1061.925781 698.679688 L 1063.320312 697.367188 L 1064.714844 698.554688 L 1066.109375 693.097656 L 1067.503906 691.980469 L 1068.898438 698.726562 L 1070.296875 700.871094 L 1071.691406 697.570312 L 1073.085938 703.011719 L 1074.480469 702.636719 L 1075.875 709.699219 L 1077.269531 713.289062 L 1078.664062 711.6875 L 1080.0625 708.050781 L 1081.457031 709.160156 L 1082.851562 704.34375 L 1084.246094 700.761719 L 1085.640625 696.015625 L 1087.035156 685.082031 L 1088.433594 669.003906 L 1089.828125 670.472656 L 1091.222656 684.433594 L 1092.617188 682.121094 L 1094.011719 673.441406 L 1095.40625 678.730469 L 1096.804688 676.5 L 1098.199219 676.234375 L 1099.59375 677.800781 L 1100.988281 667.171875 L 1102.382812 671.226562 L 1103.777344 674.421875 L 1105.175781 671.796875 L 1106.570312 667.859375 L 1107.964844 670.242188 L 1109.359375 676.113281 L 1110.753906 672.339844 L 1112.148438 668.019531 L 1113.542969 679.148438 L 1114.941406 678.976562 L 1116.335938 680.488281 L 1117.730469 687.097656 L 1119.125 683.769531 L 1120.519531 684.640625 L 1121.914062 689.011719 L 1123.3125 682.652344 L 1124.707031 681.363281 L 1126.101562 682.617188 L 1127.496094 690.742188 L 1128.890625 682.207031 L 1130.285156 685.144531 L 1131.683594 683.84375 "/>
<path fill="none" stroke-width="1" stroke-linecap="butt" stroke-linejoin="miter" stroke="rgb(0%, 0%, 0%)" stroke-opacity="1" stroke-miterlimit="1.154701" d="M 224.832031 761.5 L 224.832031 766.5 "/>
<path fill="none" stroke-width="1" stroke-linecap="butt" stroke-linejoin="miter" stroke="rgb(0%, 0%, 0%)" stroke-opacity="1" stroke-miterlimit="1.154701" d="M 434.105469 761.5 L 434.105469 766.5 "/>
<path fill="none" stroke-width="1" stroke-linecap="butt" stroke-linejoin="miter" stroke="rgb(0%, 0%, 0%)" stroke-opacity="1" stroke-miterlimit="1.154701" d="M 643.378906 761.5 L 643.378906 766.5 "/>
<path fill="none" stroke-width="1" stroke-linecap="butt" stroke-linejoin="miter" stroke="rgb(0%, 0%, 0%)" stroke-opacity="1" stroke-miterlimit="1.154701" d="M 852.652344 761.5 L 852.652344 766.5 "/>
<path fill="none" stroke-width="1" stroke-linecap="butt" stroke-linejoin="miter" stroke="rgb(0%, 0%, 0%)" stroke-opacity="1" stroke-miterlimit="1.154701" d="M 1061.925781 761.5 L 1061.925781 766.5 "/>
<path fill="none" stroke-width="1" stroke-linecap="butt" stroke-linejoin="miter" stroke="rgb(0%, 0%, 0%)" stroke-opacity="1" stroke-miterlimit="1.154701" d="M 32.5 565.800781 L 27.5 565.800781 "/>
<path fill="none" stroke-width="1" stroke-linecap="butt" stroke-linejoin="miter" stroke="rgb(0%, 0%, 0%)" stroke-opacity="1" stroke-miterlimit="1.154701" d="M 32.5 341.066406 L 27.5 341.066406 "/>
<path fill="none" stroke-width="1" stroke-linecap="butt" stroke-linejoin="miter" stroke="rgb(0%, 0%, 0%)" stroke-opacity="1" stroke-miterlimit="1.154701" d="M 32.5 116.335938 L 27.5 116.335938 "/>
<path fill="none" stroke-width="1" stroke-linecap="butt" stroke-linejoin="miter" stroke="rgb(0%, 0%, 0%)" stroke-opacity="1" stroke-miterlimit="1.154701" d="M 32.5 761 L 1184.5 761 "/>
<path fill="none" stroke-width="1" stroke-linecap="butt" stroke-linejoin="miter" stroke="rgb(0%, 0%, 0%)" stroke-opacity="1" stroke-miterlimit="1.154701" d="M 33 761.5 L 33 15.5 "/>
<path fill="none" stroke-width="1" stroke-linecap="butt" stroke-linejoin="miter" stroke="rgb(0%, 0%, 0%)" stroke-opacity="1" stroke-miterlimit="1.154701" d="M 32.5 16 L 1184.5 16 "/>
<path fill="none" stroke-width="1" stroke-linecap="butt" stroke-linejoin="miter" stroke="rgb(0%, 0%, 0%)" stroke-opacity="1" stroke-miterlimit="1.154701" d="M 1184 761.5 L 1184 15.5 "/>
</svg>
