<?xml version="1.0" encoding="UTF-8"?>
<svg xmlns="http://www.w3.org/2000/svg" xmlns:xlink="http://www.w3.org/1999/xlink" width="1200" height="800" viewBox="0 0 1200 800">
<defs>
<g>
<g id="glyph-0-0-03119fd9">
<path d="M 7.21875 -3.03125 C 7.21875 -3.03125 0.953125 -3.03125 0.953125 -3.03125 C 0.953125 -3.03125 0.953125 -3.96875 0.953125 -3.96875 C 0.953125 -3.96875 7.21875 -3.96875 7.21875 -3.96875 C 7.21875 -3.96875 7.21875 -3.03125 7.21875 -3.03125 Z M 7.21875 -3.03125 "/>
</g>
<g id="glyph-0-1-03119fd9">
<path d="M 7.09375 -4.78125 C 7.09375 -1.515625 5.953125 0.203125 3.84375 0.203125 C 1.71875 0.203125 0.609375 -1.515625 0.609375 -4.859375 C 0.609375 -8.1875 1.703125 -9.921875 3.84375 -9.921875 C 6 -9.921875 7.09375 -8.21875 7.09375 -4.78125 Z M 5.84375 -4.890625 C 5.84375 -7.546875 5.1875 -8.828125 3.84375 -8.828125 C 2.515625 -8.828125 1.859375 -7.5625 1.859375 -4.84375 C 1.859375 -2.125 2.515625 -0.8125 3.828125 -0.8125 C 5.1875 -0.8125 5.84375 -2.078125 5.84375 -4.890625 Z M 5.84375 -4.890625 "/>
</g>
<g id="glyph-0-2-03119fd9">
<path d="M 2.671875 0 C 2.671875 0 1.21875 0 1.21875 0 C 1.21875 0 1.21875 -1.453125 1.21875 -1.453125 C 1.21875 -1.453125 2.671875 -1.453125 2.671875 -1.453125 C 2.671875 -1.453125 2.671875 0 2.671875 0 Z M 2.671875 0 "/>
</g>
<g id="glyph-0-3-03119fd9">
<path d="M 7.078125 -2.890625 C 7.078125 -1.015625 5.765625 0.203125 3.71875 0.203125 C 1.6875 0.203125 0.609375 -0.78125 0.453125 -3 C 0.453125 -3 1.6875 -3 1.6875 -3 C 1.765625 -1.546875 2.421875 -0.875 3.765625 -0.875 C 5.046875 -0.875 5.828125 -1.625 5.828125 -2.875 C 5.828125 -3.96875 5.125 -4.625 3.765625 -4.625 C 3.765625 -4.625 3.09375 -4.625 3.09375 -4.625 C 3.09375 -4.625 3.09375 -5.65625 3.09375 -5.65625 C 5.0625 -5.65625 5.53125 -6.09375 5.53125 -7.15625 C 5.53125 -8.203125 4.875 -8.84375 3.78125 -8.84375 C 2.515625 -8.84375 1.921875 -8.1875 1.890625 -6.71875 C 1.890625 -6.71875 0.65625 -6.71875 0.65625 -6.71875 C 0.703125 -8.828125 1.765625 -9.921875 3.765625 -9.921875 C 5.65625 -9.921875 6.796875 -8.90625 6.796875 -7.203125 C 6.796875 -6.203125 6.328125 -5.5625 5.40625 -5.1875 C 6.59375 -4.78125 7.078125 -4.09375 7.078125 -2.890625 Z M 7.078125 -2.890625 "/>
</g>
<g id="glyph-0-4-03119fd9">
<path d="M 7.1875 -3.078125 C 7.1875 -1.140625 5.828125 0.203125 3.9375 0.203125 C 1.671875 0.203125 0.609375 -1.421875 0.609375 -4.515625 C 0.609375 -7.984375 1.84375 -9.921875 4.15625 -9.921875 C 5.671875 -9.921875 6.734375 -8.953125 6.96875 -7.34375 C 6.96875 -7.34375 5.734375 -7.34375 5.734375 -7.34375 C 5.546875 -8.28125 4.9375 -8.828125 4.078125 -8.828125 C 2.65625 -8.828125 1.875 -7.484375 1.859375 -5.0625 C 2.390625 -5.796875 3.15625 -6.171875 4.140625 -6.171875 C 5.921875 -6.171875 7.1875 -4.921875 7.1875 -3.078125 Z M 5.921875 -2.984375 C 5.921875 -4.3125 5.1875 -5.078125 3.984375 -5.078125 C 2.765625 -5.078125 1.9375 -4.28125 1.9375 -3.046875 C 1.9375 -1.78125 2.796875 -0.875 3.953125 -0.875 C 5.078125 -0.875 5.921875 -1.734375 5.921875 -2.984375 Z M 5.921875 -2.984375 "/>
</g>
<g id="glyph-0-5-03119fd9">
<path d="M 7.125 -5.1875 C 7.125 -1.765625 5.875 0.203125 3.5625 0.203125 C 2.046875 0.203125 0.984375 -0.75 0.734375 -2.375 C 0.734375 -2.375 1.96875 -2.375 1.96875 -2.375 C 2.171875 -1.421875 2.765625 -0.875 3.640625 -0.875 C 5.046875 -0.875 5.84375 -2.21875 5.859375 -4.640625 C 5.203125 -3.875 4.515625 -3.546875 3.578125 -3.546875 C 1.796875 -3.546875 0.53125 -4.78125 0.53125 -6.640625 C 0.53125 -8.578125 1.890625 -9.921875 3.78125 -9.921875 C 6.046875 -9.921875 7.125 -8.296875 7.125 -5.1875 Z M 5.78125 -6.65625 C 5.78125 -7.953125 4.90625 -8.84375 3.765625 -8.84375 C 2.625 -8.84375 1.796875 -8 1.796875 -6.734375 C 1.796875 -5.40625 2.53125 -4.640625 3.71875 -4.640625 C 4.921875 -4.640625 5.78125 -5.453125 5.78125 -6.65625 Z M 5.78125 -6.65625 "/>
</g>
<g id="glyph-0-6-03119fd9">
<path d="M 4.859375 0 C 4.859375 0 3.625 0 3.625 0 C 3.625 0 3.625 -7.0625 3.625 -7.0625 C 3.625 -7.0625 1.421875 -7.0625 1.421875 -7.0625 C 1.421875 -7.0625 1.421875 -7.953125 1.421875 -7.953125 C 3.328125 -8.1875 3.609375 -8.40625 4.046875 -9.921875 C 4.046875 -9.921875 4.859375 -9.921875 4.859375 -9.921875 C 4.859375 -9.921875 4.859375 0 4.859375 0 Z M 4.859375 0 "/>
</g>
<g id="glyph-1-0-03119fd9">
<path d="M 7.09375 -4.78125 C 7.09375 -1.515625 5.953125 0.203125 3.84375 0.203125 C 1.71875 0.203125 0.609375 -1.515625 0.609375 -4.859375 C 0.609375 -8.1875 1.703125 -9.921875 3.84375 -9.921875 C 6 -9.921875 7.09375 -8.21875 7.09375 -4.78125 Z M 5.84375 -4.890625 C 5.84375 -7.546875 5.1875 -8.828125 3.84375 -8.828125 C 2.515625 -8.828125 1.859375 -7.5625 1.859375 -4.84375 C 1.859375 -2.125 2.515625 -0.8125 3.828125 -0.8125 C 5.1875 -0.8125 5.84375 -2.078125 5.84375 -4.890625 Z M 5.84375 -4.890625 "/>
</g>
<g id="glyph-1-1-03119fd9">
<path d="M 4.859375 0 C 4.859375 0 3.625 0 3.625 0 C 3.625 0 3.625 -7.0625 3.625 -7.0625 C 3.625 -7.0625 1.421875 -7.0625 1.421875 -7.0625 C 1.421875 -7.0625 1.421875 -7.953125 1.421875 -7.953125 C 3.328125 -8.1875 3.609375 -8.40625 4.046875 -9.921875 C 4.046875 -9.921875 4.859375 -9.921875 4.859375 -9.921875 C 4.859375 -9.921875 4.859375 0 4.859375 0 Z M 4.859375 0 "/>
</g>
<g id="glyph-1-2-03119fd9">
<path d="M 7.15625 -7.015625 C 7.15625 -5.796875 6.4375 -4.765625 5.046875 -4.015625 C 5.046875 -4.015625 3.65625 -3.265625 3.65625 -3.265625 C 2.4375 -2.546875 1.984375 -2.03125 1.859375 -1.21875 C 1.859375 -1.21875 7.078125 -1.21875 7.078125 -1.21875 C 7.078125 -1.21875 7.078125 0 7.078125 0 C 7.078125 0 0.46875 0 0.46875 0 C 0.59375 -2.1875 1.1875 -3.125 3.265625 -4.296875 C 3.265625 -4.296875 4.546875 -5.03125 4.546875 -5.03125 C 5.4375 -5.53125 5.890625 -6.203125 5.890625 -6.984375 C 5.890625 -8.046875 5.046875 -8.84375 3.9375 -8.84375 C 2.71875 -8.84375 2.03125 -8.140625 1.9375 -6.484375 C 1.9375 -6.484375 0.703125 -6.484375 0.703125 -6.484375 C 0.765625 -8.890625 1.953125 -9.921875 3.96875 -9.921875 C 5.859375 -9.921875 7.15625 -8.6875 7.15625 -7.015625 Z M 7.15625 -7.015625 "/>
</g>
</g>
</defs>
<rect x="-120" y="-80" width="1440" height="960" fill="rgb(100%, 100%, 100%)" fill-opacity="1"/>
<path fill-rule="nonzero" fill="rgb(100%, 100%, 100%)" fill-opacity="1" d="M 41 761 L 1184 761 L 1184 16 L 41 16 Z M 41 761 "/>
<path fill="none" stroke-width="1" stroke-linecap="butt" stroke-linejoin="miter" stroke="rgb(0%, 0%, 0%)" stroke-opacity="0.12" stroke-miterlimit="1.154701" d="M 231.5 761 L 231.5 16 "/>
<path fill="none" stroke-width="1" stroke-linecap="butt" stroke-linejoin="miter" stroke="rgb(0%, 0%, 0%)" stroke-opacity="0.12" stroke-miterlimit="1.154701" d="M 439.316406 761 L 439.316406 16 "/>
<path fill="none" stroke-width="1" stroke-linecap="butt" stroke-linejoin="miter" stroke="rgb(0%, 0%, 0%)" stroke-opacity="0.12" stroke-miterlimit="1.154701" d="M 647.136719 761 L 647.136719 16 "/>
<path fill="none" stroke-width="1" stroke-linecap="butt" stroke-linejoin="miter" stroke="rgb(0%, 0%, 0%)" stroke-opacity="0.12" stroke-miterlimit="1.154701" d="M 854.953125 761 L 854.953125 16 "/>
<path fill="none" stroke-width="1" stroke-linecap="butt" stroke-linejoin="miter" stroke="rgb(0%, 0%, 0%)" stroke-opacity="0.12" stroke-miterlimit="1.154701" d="M 1062.773438 761 L 1062.773438 16 "/>
<path fill="none" stroke-width="1" stroke-linecap="butt" stroke-linejoin="miter" stroke="rgb(0%, 0%, 0%)" stroke-opacity="0.12" stroke-miterlimit="1.154701" d="M 41 666.636719 L 1184 666.636719 "/>
<path fill="none" stroke-width="1" stroke-linecap="butt" stroke-linejoin="miter" stroke="rgb(0%, 0%, 0%)" stroke-opacity="0.12" stroke-miterlimit="1.154701" d="M 41 479.761719 L 1184 479.761719 "/>
<path fill="none" stroke-width="1" stroke-linecap="butt" stroke-linejoin="miter" stroke="rgb(0%, 0%, 0%)" stroke-opacity="0.12" stroke-miterlimit="1.154701" d="M 41 292.886719 L 1184 292.886719 "/>
<path fill="none" stroke-width="1" stroke-linecap="butt" stroke-linejoin="miter" stroke="rgb(0%, 0%, 0%)" stroke-opacity="0.12" stroke-miterlimit="1.154701" d="M 41 106.015625 L 1184 106.015625 "/>
<g fill="rgb(0%, 0%, 0%)" fill-opacity="1">
<use xlink:href="#glyph-0-0-03119fd9" x="217.682005" y="782.258001"/>
</g>
<g fill="rgb(0%, 0%, 0%)" fill-opacity="1">
<use xlink:href="#glyph-0-1-03119fd9" x="225.858005" y="782.258001"/>
</g>
<g fill="rgb(0%, 0%, 0%)" fill-opacity="1">
<use xlink:href="#glyph-0-2-03119fd9" x="233.642005" y="782.258001"/>
</g>
<g fill="rgb(0%, 0%, 0%)" fill-opacity="1">
<use xlink:href="#glyph-0-3-03119fd9" x="237.534005" y="782.258001"/>
</g>
<g fill="rgb(0%, 0%, 0%)" fill-opacity="1">
<use xlink:href="#glyph-0-1-03119fd9" x="429.588187" y="782.258001"/>
</g>
<g fill="rgb(0%, 0%, 0%)" fill-opacity="1">
<use xlink:href="#glyph-0-2-03119fd9" x="437.372187" y="782.258001"/>
</g>
<g fill="rgb(0%, 0%, 0%)" fill-opacity="1">
<use xlink:href="#glyph-0-1-03119fd9" x="441.264187" y="782.258001"/>
</g>
<g fill="rgb(0%, 0%, 0%)" fill-opacity="1">
<use xlink:href="#glyph-0-1-03119fd9" x="637.406368" y="782.258001"/>
</g>
<g fill="rgb(0%, 0%, 0%)" fill-opacity="1">
<use xlink:href="#glyph-0-2-03119fd9" x="645.190369" y="782.258001"/>
</g>
<g fill="rgb(0%, 0%, 0%)" fill-opacity="1">
<use xlink:href="#glyph-0-3-03119fd9" x="649.082368" y="782.258001"/>
</g>
<g fill="rgb(0%, 0%, 0%)" fill-opacity="1">
<use xlink:href="#glyph-0-1-03119fd9" x="845.22455" y="782.258001"/>
</g>
<g fill="rgb(0%, 0%, 0%)" fill-opacity="1">
<use xlink:href="#glyph-0-2-03119fd9" x="853.00855" y="782.258001"/>
</g>
<g fill="rgb(0%, 0%, 0%)" fill-opacity="1">
<use xlink:href="#glyph-0-4-03119fd9" x="856.90055" y="782.258001"/>
</g>
<g fill="rgb(0%, 0%, 0%)" fill-opacity="1">
<use xlink:href="#glyph-0-1-03119fd9" x="1053.042731" y="782.258001"/>
</g>
<g fill="rgb(0%, 0%, 0%)" fill-opacity="1">
<use xlink:href="#glyph-0-2-03119fd9" x="1060.826731" y="782.258001"/>
</g>
<g fill="rgb(0%, 0%, 0%)" fill-opacity="1">
<use xlink:href="#glyph-0-5-03119fd9" x="1064.718731" y="782.258001"/>
</g>
<g fill="rgb(0%, 0%, 0%)" fill-opacity="1">
<use xlink:href="#glyph-0-0-03119fd9" x="15.040001" y="671.738394"/>
</g>
<g fill="rgb(0%, 0%, 0%)" fill-opacity="1">
<use xlink:href="#glyph-0-6-03119fd9" x="23.216001" y="671.738394"/>
</g>
<g fill="rgb(0%, 0%, 0%)" fill-opacity="1">
<use xlink:href="#glyph-1-0-03119fd9" x="23.216001" y="484.864756"/>
</g>
<g fill="rgb(0%, 0%, 0%)" fill-opacity="1">
<use xlink:href="#glyph-1-1-03119fd9" x="23.216001" y="297.991134"/>
</g>
<g fill="rgb(0%, 0%, 0%)" fill-opacity="1">
<use xlink:href="#glyph-1-2-03119fd9" x="23.216001" y="111.117481"/>
</g>
<path fill="none" stroke-width="3" stroke-linecap="butt" stroke-linejoin="miter" stroke="rgb(0%, 44.705883%, 69.803923%)" stroke-opacity="1" stroke-miterlimit="2" d="M 92.953125 576.214844 L 94.339844 577.226562 L 95.726562 576.949219 L 97.109375 572.316406 L 98.496094 582.632812 L 99.882812 582.359375 L 101.265625 580.433594 L 102.652344 581.480469 L 104.039062 586.078125 L 105.421875 582.125 L 106.808594 571.597656 L 108.195312 566.511719 L 109.578125 569.070312 L 110.964844 567.765625 L 112.351562 574.425781 L 113.738281 581.246094 L 115.121094 564.933594 L 116.507812 559.972656 L 117.894531 555.210938 L 119.277344 547.992188 L 120.664062 548.871094 L 122.050781 542.269531 L 123.433594 540.53125 L 124.820312 540.710938 L 126.207031 547.464844 L 127.589844 550.578125 L 128.976562 554.664062 L 130.363281 560.878906 L 131.746094 562.316406 L 133.132812 569.371094 L 134.519531 574.292969 L 135.902344 575.628906 L 137.289062 575.945312 L 138.675781 575.222656 L 140.058594 567.257812 L 141.445312 561.761719 L 142.832031 562.386719 L 144.214844 557.785156 L 145.601562 547.273438 L 146.988281 542.429688 L 148.371094 537.5625 L 149.757812 526.417969 L 151.144531 539.390625 L 152.527344 554.953125 L 153.914062 556.65625 L 155.300781 548.5 L 156.683594 547.316406 L 158.070312 559.621094 L 159.457031 569.039062 L 160.84375 569.863281 L 162.226562 569.339844 L 163.613281 566.167969 L 165 574.824219 L 166.382812 571.09375 L 167.769531 574.015625 L 169.15625 568.59375 L 170.539062 566.542969 L 171.925781 558.992188 L 173.3125 549.695312 L 174.695312 549.859375 L 176.082031 551.304688 L 177.46875 549.363281 L 178.851562 542.171875 L 180.238281 534.9375 L 181.625 536.242188 L 183.007812 541.386719 L 184.394531 541.484375 L 185.78125 543.382812 L 187.164062 542.519531 L 188.550781 535.996094 L 189.9375 525.628906 L 191.320312 539.738281 L 192.707031 557.976562 L 194.09375 555.253906 L 195.476562 559.953125 L 196.863281 545.984375 L 198.25 541.730469 L 199.632812 539.960938 L 201.019531 542.386719 L 202.40625 553.273438 L 203.789062 566.824219 L 205.175781 566.015625 L 206.5625 558.136719 L 207.949219 549.226562 L 209.332031 545.5625 L 210.71875 552.601562 L 212.105469 550.230469 L 213.488281 551.910156 L 214.875 551.460938 L 216.261719 543.917969 L 217.644531 543.671875 L 219.03125 548.679688 L 220.417969 552.445312 L 221.800781 565.738281 L 223.1875 561.164062 L 224.574219 557.578125 L 225.957031 560.675781 L 227.34375 557.371094 L 228.730469 559.226562 L 230.113281 556.53125 L 231.5 561.65625 L 232.886719 569.539062 L 234.269531 563.425781 L 235.65625 558.097656 L 237.042969 551.410156 L 238.425781 552.070312 L 239.8125 542.445312 L 241.199219 542.617188 L 242.582031 542.273438 L 243.96875 543.511719 L 245.355469 549.769531 L 246.738281 556.753906 L 248.125 554.730469 L 249.511719 553.105469 L 250.894531 546.113281 L 252.28125 544.785156 L 253.667969 546.054688 L 255.054688 557.867188 L 256.4375 554.574219 L 257.824219 548.816406 L 259.210938 555.875 L 260.59375 558.15625 L 261.980469 568.175781 L 263.367188 567.148438 L 264.75 559.636719 L 266.136719 548.085938 L 267.523438 543.410156 L 268.90625 539.894531 L 270.292969 535.925781 L 271.679688 525.511719 L 273.0625 526.0625 L 274.449219 520.511719 L 275.835938 525.851562 L 277.21875 537.460938 L 278.605469 548.957031 L 279.992188 560.292969 L 281.375 564.730469 L 282.761719 567.699219 L 284.148438 564.976562 L 285.53125 570.339844 L 286.917969 580.472656 L 288.304688 580.300781 L 289.6875 580.851562 L 291.074219 576.203125 L 292.460938 573.503906 L 293.84375 564.183594 L 295.230469 560.097656 L 296.617188 564.277344 L 298 568.554688 L 299.386719 563.972656 L 300.773438 568.640625 L 302.15625 568.59375 L 303.542969 571.402344 L 304.929688 566.070312 L 306.316406 559.777344 L 307.699219 562.996094 L 309.085938 558.1875 L 310.472656 556.042969 L 311.855469 554.820312 L 313.242188 556.8125 L 314.628906 558.75 L 316.011719 558.152344 L 317.398438 563.363281 L 318.785156 561.191406 L 320.167969 564.8125 L 321.554688 573.4375 L 322.941406 577.707031 L 324.324219 582.226562 L 325.710938 587.074219 L 327.097656 594.011719 L 328.480469 589.554688 L 329.867188 589.480469 L 331.253906 584.484375 L 332.636719 585.691406 L 334.023438 582.566406 L 335.410156 581.386719 L 336.792969 576.449219 L 338.179688 573.140625 L 339.566406 568.546875 L 340.949219 570.230469 L 342.335938 564.398438 L 343.722656 568.679688 L 345.105469 585.214844 L 346.492188 590.882812 L 347.878906 583.824219 L 349.261719 579.867188 L 350.648438 582.183594 L 352.035156 591.714844 L 353.421875 599.496094 L 354.804688 602.894531 L 356.191406 602.558594 L 357.578125 605.988281 L 358.960938 607.523438 L 360.347656 623.371094 L 361.734375 639.941406 L 363.117188 645.171875 L 364.503906 650.984375 L 365.890625 651.542969 L 367.273438 653.210938 L 368.660156 656.152344 L 370.046875 655.199219 L 371.429688 652.941406 L 372.816406 658.21875 L 374.203125 673.644531 L 375.585938 677.484375 L 376.972656 665.90625 L 378.359375 658.109375 L 379.742188 663.484375 L 381.128906 666.644531 L 382.515625 668.789062 L 383.898438 667.273438 L 385.285156 666.707031 L 386.671875 663.753906 L 388.054688 669.894531 L 389.441406 670.925781 L 390.828125 670.046875 L 392.210938 680.195312 L 393.597656 673.023438 L 394.984375 669.5625 L 396.367188 661.488281 L 397.753906 663.511719 L 399.140625 671.394531 L 400.527344 672.910156 L 401.910156 674.664062 L 403.296875 668.539062 L 404.683594 666.921875 L 406.066406 670.632812 L 407.453125 672.835938 L 408.839844 669.171875 L 410.222656 670.320312 L 411.609375 678.566406 L 412.996094 679.027344 L 414.378906 671.359375 L 415.765625 674.757812 L 417.152344 669.457031 L 418.535156 676.601562 L 419.921875 684.148438 L 421.308594 692.800781 L 422.691406 689.492188 L 424.078125 677.371094 L 425.464844 674.378906 L 426.847656 681.960938 L 428.234375 681.507812 L 429.621094 675.800781 L 431.003906 677.085938 L 432.390625 671.667969 L 433.777344 672.402344 L 435.160156 672.714844 L 436.546875 664.914062 L 437.933594 646.359375 L 439.316406 630.488281 L 440.703125 623.859375 L 442.089844 616.785156 L 443.472656 615.984375 L 444.859375 615.402344 L 446.246094 616.839844 L 447.632812 617.445312 L 449.015625 625.824219 L 450.402344 639.160156 L 451.789062 653.78125 L 453.171875 648.527344 L 454.558594 654.496094 L 455.945312 660.355469 L 457.328125 655.070312 L 458.714844 656.46875 L 460.101562 651.785156 L 461.484375 652.347656 L 462.871094 652.007812 L 464.257812 648.601562 L 465.640625 645.023438 L 467.027344 645.824219 L 468.414062 639.292969 L 469.796875 643.109375 L 471.183594 636.53125 L 472.570312 629.28125 L 473.953125 625.601562 L 475.339844 616.117188 L 476.726562 608.847656 L 478.109375 606.597656 L 479.496094 609.996094 L 480.882812 605.175781 L 482.265625 601.054688 L 483.652344 592.503906 L 485.039062 593.988281 L 486.421875 587.238281 L 487.808594 588.964844 L 489.195312 605.238281 L 490.578125 615.835938 L 491.964844 611.488281 L 493.351562 610.398438 L 494.738281 590.078125 L 496.121094 587.488281 L 497.507812 576.019531 L 498.894531 561.125 L 500.277344 543.589844 L 501.664062 544.851562 L 503.050781 533.941406 L 504.433594 523.632812 L 505.820312 504.585938 L 507.207031 490.0625 L 508.589844 487.132812 L 509.976562 481.328125 L 511.363281 471.695312 L 512.746094 457.027344 L 514.132812 444.433594 L 515.519531 431.464844 L 516.902344 426.007812 L 518.289062 421.671875 L 519.675781 412.828125 L 521.058594 404.46875 L 522.445312 396.371094 L 523.832031 385.171875 L 525.214844 380.0625 L 526.601562 368.988281 L 527.988281 365.363281 L 529.371094 369.015625 L 530.757812 364.503906 L 532.144531 350.492188 L 533.527344 331.464844 L 534.914062 320.472656 L 536.300781 310.136719 L 537.683594 306.65625 L 539.070312 303.046875 L 540.457031 296.9375 L 541.84375 293.519531 L 543.226562 293.941406 L 544.613281 290.011719 L 546 284.878906 L 547.382812 285.335938 L 548.769531 285.035156 L 550.15625 284.457031 L 551.539062 283.101562 L 552.925781 272.195312 L 554.3125 264.585938 L 555.695312 252.957031 L 557.082031 248.128906 L 558.46875 234.703125 L 559.851562 221.859375 L 561.238281 213.566406 L 562.625 206.730469 L 564.007812 196.808594 L 565.394531 184.125 L 566.78125 169.773438 L 568.164062 153.78125 L 569.550781 147.816406 L 570.9375 140.96875 L 572.320312 133.128906 L 573.707031 121.304688 L 575.09375 104.230469 L 576.476562 95.296875 L 577.863281 94.214844 L 579.25 95.066406 L 580.632812 90.945312 L 582.019531 92.171875 L 583.40625 88.492188 L 584.789062 74.691406 L 586.175781 76.96875 L 587.5625 86.734375 L 588.945312 89.585938 L 590.332031 91.75 L 591.71875 91.152344 L 593.105469 89.738281 L 594.488281 81.320312 L 595.875 80.496094 L 597.261719 77.65625 L 598.644531 76.054688 L 600.03125 78.855469 L 601.417969 78.824219 L 602.800781 79.226562 L 604.1875 80.265625 L 605.574219 83.449219 L 606.957031 85.832031 L 608.34375 98.382812 L 609.730469 107.839844 L 611.113281 106.480469 L 612.5 108.410156 L 613.886719 102.324219 L 615.269531 105.203125 L 616.65625 103.507812 L 618.042969 107.882812 L 619.425781 122.121094 L 620.8125 121.136719 L 622.199219 130.910156 L 623.582031 133.941406 L 624.96875 143.117188 L 626.355469 150.539062 L 627.738281 156.484375 L 629.125 166.597656 L 630.511719 177.183594 L 631.894531 184.398438 L 633.28125 192.429688 L 634.667969 198.933594 L 636.054688 203.878906 L 637.4375 208.398438 L 638.824219 211.484375 L 640.210938 211.734375 L 641.59375 202.15625 L 642.980469 204.734375 L 644.367188 204.742188 L 645.75 207.441406 L 647.136719 198.808594 L 648.523438 195 L 649.90625 180.5 L 651.292969 185.402344 L 652.679688 200.292969 L 654.0625 207.191406 L 655.449219 202.964844 L 656.835938 209.242188 L 658.21875 218.066406 L 659.605469 214.800781 L 660.992188 220.074219 L 662.375 218.484375 L 663.761719 213.40625 L 665.148438 216.335938 L 666.53125 219.113281 L 667.917969 218.792969 L 669.304688 221.175781 L 670.6875 224.65625 L 672.074219 224.535156 L 673.460938 231.882812 L 674.84375 235.886719 L 676.230469 232.449219 L 677.617188 229.101562 L 679 228.878906 L 680.386719 226.925781 L 681.773438 229.6875 L 683.15625 236.976562 L 684.542969 239.585938 L 685.929688 238.335938 L 687.316406 242.023438 L 688.699219 244.855469 L 690.085938 250.382812 L 691.472656 262.03125 L 692.855469 269.433594 L 694.242188 266.664062 L 695.628906 269.429688 L 697.011719 271.378906 L 698.398438 265.644531 L 699.785156 267.78125 L 701.167969 262.511719 L 702.554688 259.203125 L 703.941406 259.542969 L 705.324219 266.820312 L 706.710938 270.171875 L 708.097656 273.074219 L 709.480469 271.402344 L 710.867188 275.484375 L 712.253906 275.066406 L 713.636719 285.851562 L 715.023438 291.3125 L 716.410156 286.25 L 717.792969 281.011719 L 719.179688 273.84375 L 720.566406 274.277344 L 721.949219 267.996094 L 723.335938 271.203125 L 724.722656 273.394531 L 726.105469 284.839844 L 727.492188 282.257812 L 728.878906 277.5625 L 730.261719 272.605469 L 731.648438 269.359375 L 733.035156 266.15625 L 734.421875 267.839844 L 735.804688 281.003906 L 737.191406 280.660156 L 738.578125 277.003906 L 739.960938 277.964844 L 741.347656 282.058594 L 742.734375 280.234375 L 744.117188 290.816406 L 745.503906 289.15625 L 746.890625 291.972656 L 748.273438 298.800781 L 749.660156 305.664062 L 751.046875 307.28125 L 752.429688 305.257812 L 753.816406 304.648438 L 755.203125 299.75 L 756.585938 300.515625 L 757.972656 298.839844 L 759.359375 294.964844 L 760.742188 291.019531 L 762.128906 289.550781 L 763.515625 286.019531 L 764.898438 281.484375 L 766.285156 284.867188 L 767.671875 277.417969 L 769.054688 272.597656 L 770.441406 274.613281 L 771.828125 275.394531 L 773.210938 277.039062 L 774.597656 279.132812 L 775.984375 280.0625 L 777.367188 273.65625 L 778.753906 281.207031 L 780.140625 287.285156 L 781.523438 292.507812 L 782.910156 299.609375 L 784.296875 307.398438 L 785.683594 322.519531 L 787.066406 320.433594 L 788.453125 320.347656 L 789.839844 323.9375 L 791.222656 326.113281 L 792.609375 325.785156 L 793.996094 322.964844 L 795.378906 324.480469 L 796.765625 330.839844 L 798.152344 333.445312 L 799.535156 338.175781 L 800.921875 339.851562 L 802.308594 336.542969 L 803.691406 351.382812 L 805.078125 362.339844 L 806.464844 358.804688 L 807.847656 365.265625 L 809.234375 354.875 L 810.621094 353.214844 L 812.003906 354.777344 L 813.390625 353.855469 L 814.777344 364.5 L 816.160156 369.625 L 817.546875 375.359375 L 818.933594 385.382812 L 820.316406 390.652344 L 821.703125 394.351562 L 823.089844 402.390625 L 824.472656 403.71875 L 825.859375 417.273438 L 827.246094 416.078125 L 828.632812 409.089844 L 830.015625 410.757812 L 831.402344 412.148438 L 832.789062 420.109375 L 834.171875 420.804688 L 835.558594 411.863281 L 836.945312 407.601562 L 838.328125 402.277344 L 839.714844 401.199219 L 841.101562 406.914062 L 842.484375 404.90625 L 843.871094 410.589844 L 845.257812 422.398438 L 846.640625 416.101562 L 848.027344 416.675781 L 849.414062 422.601562 L 850.796875 437.199219 L 852.183594 444.328125 L 853.570312 454.535156 L 854.953125 439.402344 L 856.339844 436.273438 L 857.726562 440.855469 L 859.109375 436.710938 L 860.496094 445.683594 L 861.882812 455.976562 L 863.265625 452.601562 L 864.652344 449.914062 L 866.039062 455.359375 L 867.421875 449.628906 L 868.808594 444.980469 L 870.195312 441.472656 L 871.578125 450.386719 L 872.964844 449.609375 L 874.351562 451.679688 L 875.734375 462.34375 L 877.121094 469.285156 L 878.507812 468.667969 L 879.894531 460.578125 L 881.277344 457.570312 L 882.664062 457.785156 L 884.050781 451.292969 L 885.433594 445.765625 L 886.820312 459.007812 L 888.207031 455.570312 L 889.589844 464.570312 L 890.976562 470.210938 L 892.363281 471.945312 L 893.746094 476.304688 L 895.132812 475.460938 L 896.519531 473.894531 L 897.902344 468.324219 L 899.289062 466.265625 L 900.675781 472.394531 L 902.058594 479.269531 L 903.445312 479.164062 L 904.832031 486.371094 L 906.214844 487.53125 L 907.601562 490.203125 L 908.988281 486.414062 L 910.371094 488.628906 L 911.757812 494.464844 L 913.144531 501.988281 L 914.527344 497.257812 L 915.914062 497.859375 L 917.300781 482.5625 L 918.683594 489.75 L 920.070312 500.332031 L 921.457031 495.789062 L 922.84375 497.742188 L 924.226562 498.5 L 925.613281 508.175781 L 927 514.46875 L 928.382812 515.5 L 929.769531 515.582031 L 931.15625 506.601562 L 932.539062 495.457031 L 933.925781 496.914062 L 935.3125 495.726562 L 936.695312 498.238281 L 938.082031 492.4375 L 939.46875 488.4375 L 940.851562 482.242188 L 942.238281 469.699219 L 943.625 474.828125 L 945.007812 483.554688 L 946.394531 494.285156 L 947.78125 482.121094 L 949.164062 478.953125 L 950.550781 483.359375 L 951.9375 483.273438 L 953.320312 483.039062 L 954.707031 480.726562 L 956.09375 485.167969 L 957.476562 486.925781 L 958.863281 494.585938 L 960.25 498.855469 L 961.632812 503.433594 L 963.019531 513.632812 L 964.40625 520.75 L 965.789062 517.046875 L 967.175781 510.796875 L 968.5625 519.09375 L 969.945312 528.308594 L 971.332031 518.242188 L 972.71875 516.378906 L 974.105469 510.238281 L 975.488281 511.839844 L 976.875 507.828125 L 978.261719 497.796875 L 979.644531 498.296875 L 981.03125 498.042969 L 982.417969 497.148438 L 983.800781 498.230469 L 985.1875 501.871094 L 986.574219 513.632812 L 987.957031 524.277344 L 989.34375 531.109375 L 990.730469 528.082031 L 992.113281 526.765625 L 993.5 524.230469 L 994.886719 531.324219 L 996.269531 531.257812 L 997.65625 539.640625 L 999.042969 550.195312 L 1000.425781 544.890625 L 1001.8125 546.589844 L 1003.199219 544.40625 L 1004.582031 538.136719 L 1005.96875 538.707031 L 1007.355469 540.855469 L 1008.738281 541.890625 L 1010.125 533.371094 L 1011.511719 525.976562 L 1012.894531 526.191406 L 1014.28125 530.796875 L 1015.667969 531.769531 L 1017.050781 533.4375 L 1018.4375 537.738281 L 1019.824219 530.988281 L 1021.210938 526.152344 L 1022.59375 524.089844 L 1023.980469 527.550781 L 1025.367188 535.347656 L 1026.75 534.914062 L 1028.136719 532.636719 L 1029.523438 530.851562 L 1030.90625 525.980469 L 1032.292969 525.503906 L 1033.679688 522.589844 L 1035.0625 527.296875 L 1036.449219 533.019531 L 1037.835938 539.554688 L 1039.21875 542.867188 L 1040.605469 536.363281 L 1041.992188 530.984375 L 1043.375 533.667969 L 1044.761719 543.136719 L 1046.148438 558.0625 L 1047.53125 558.257812 L 1048.917969 556.003906 L 1050.304688 550.894531 L 1051.6875 550.304688 L 1053.074219 543.46875 L 1054.460938 541.621094 L 1055.84375 534.71875 L 1057.230469 530.71875 L 1058.617188 534.191406 L 1060 531.617188 L 1061.386719 521.757812 L 1062.773438 526.449219 L 1064.15625 535.554688 L 1065.542969 534.558594 L 1066.929688 537.023438 L 1068.3125 537.945312 L 1069.699219 544.605469 L 1071.085938 548.300781 L 1072.472656 546.996094 L 1073.855469 543.023438 L 1075.242188 536.6875 L 1076.628906 543.734375 L 1078.011719 543.558594 L 1079.398438 542.703125 L 1080.785156 542.324219 L 1082.167969 549.019531 L 1083.554688 559.253906 L 1084.941406 553.863281 L 1086.324219 554.371094 L 1087.710938 547.648438 L 1089.097656 546.0625 L 1090.480469 549.230469 L 1091.867188 544.628906 L 1093.253906 542.273438 L 1094.636719 544.941406 L 1096.023438 548.550781 L 1097.410156 542.800781 L 1098.792969 534.570312 L 1100.179688 535.917969 L 1101.566406 535.242188 L 1102.949219 539.808594 L 1104.335938 545.554688 L 1105.722656 544.882812 L 1107.105469 542.453125 L 1108.492188 551.964844 L 1109.878906 545.386719 L 1111.261719 547.769531 L 1112.648438 549.859375 L 1114.035156 548.800781 L 1115.421875 552.757812 L 1116.804688 562.414062 L 1118.191406 565.785156 L 1119.578125 564.402344 L 1120.960938 553.703125 L 1123.734375 544.1875 L 1125.117188 542.121094 L 1126.503906 537.988281 L 1127.890625 534.160156 L 1129.273438 525.8125 L 1130.660156 517.15625 L 1132.046875 517.46875 "/>
<path fill="none" stroke-width="3" stroke-linecap="butt" stroke-linejoin="miter" stroke="rgb(90.196079%, 62.352943%, 0%)" stroke-opacity="1" stroke-miterlimit="2" d="M 92.953125 524.316406 L 94.339844 526.542969 L 95.726562 524.488281 L 97.109375 517.621094 L 98.496094 511.679688 L 99.882812 506.210938 L 101.265625 510.613281 L 102.652344 515.316406 L 104.039062 518.597656 L 105.421875 512.832031 L 106.808594 513.214844 L 108.195312 522.984375 L 109.578125 531.089844 L 110.964844 538.648438 L 112.351562 545.691406 L 113.738281 540.664062 L 115.121094 547.648438 L 116.507812 557.441406 L 117.894531 559.332031 L 119.277344 548.300781 L 120.664062 543.652344 L 122.050781 543.605469 L 123.433594 538.960938 L 124.820312 539.574219 L 126.207031 541.019531 L 127.589844 536.167969 L 128.976562 539.304688 L 130.363281 530.472656 L 131.746094 530.835938 L 133.132812 542.039062 L 134.519531 548.34375 L 135.902344 549.714844 L 137.289062 550.449219 L 138.675781 554.90625 L 140.058594 567.050781 L 141.445312 572.730469 L 142.832031 569.628906 L 144.214844 567.953125 L 145.601562 565.042969 L 146.988281 566.96875 L 148.371094 579.480469 L 149.757812 573.644531 L 151.144531 578.640625 L 152.527344 577.003906 L 153.914062 563.503906 L 155.300781 555.96875 L 156.683594 547.644531 L 158.070312 554.734375 L 159.457031 560.699219 L 160.84375 554.25 L 162.226562 555.867188 L 163.613281 554.703125 L 165 555.546875 L 166.382812 554.640625 L 167.769531 556.671875 L 169.15625 562.152344 L 170.539062 557.503906 L 171.925781 551.328125 L 173.3125 550.535156 L 174.695312 546.066406 L 176.082031 538.800781 L 177.46875 542.371094 L 178.851562 549.5625 L 180.238281 555.921875 L 181.625 551.65625 L 183.007812 537.519531 L 184.394531 531.734375 L 185.78125 529.445312 L 187.164062 536.671875 L 188.550781 544.824219 L 189.9375 540.871094 L 191.320312 540.128906 L 192.707031 543.179688 L 194.09375 548.011719 L 195.476562 554.804688 L 196.863281 559.183594 L 198.25 555.660156 L 199.632812 554.246094 L 201.019531 554.097656 L 202.40625 556.839844 L 203.789062 569.058594 L 205.175781 574.257812 L 206.5625 571.53125 L 207.949219 563.941406 L 209.332031 558.992188 L 210.71875 560.476562 L 212.105469 560.242188 L 213.488281 558.730469 L 214.875 557.527344 L 216.261719 546.851562 L 217.644531 551.269531 L 219.03125 551.753906 L 220.417969 543.066406 L 221.800781 547.152344 L 223.1875 556.320312 L 224.574219 557.796875 L 225.957031 559.171875 L 227.34375 559.855469 L 228.730469 554.144531 L 230.113281 550.058594 L 231.5 547.175781 L 232.886719 546.152344 L 234.269531 543.132812 L 235.65625 537.777344 L 237.042969 539.285156 L 238.425781 542.070312 L 239.8125 542.664062 L 241.199219 534.675781 L 242.582031 530.53125 L 243.96875 530.332031 L 245.355469 537.152344 L 246.738281 536.757812 L 248.125 547.058594 L 249.511719 540.261719 L 250.894531 532.507812 L 252.28125 524.582031 L 253.667969 523.503906 L 255.054688 529.679688 L 256.4375 536.230469 L 257.824219 528.292969 L 259.210938 537.074219 L 260.59375 538.429688 L 261.980469 533.972656 L 263.367188 535.03125 L 264.75 534.675781 L 266.136719 541.078125 L 267.523438 545.234375 L 268.90625 553.773438 L 270.292969 554.054688 L 271.679688 542.925781 L 273.0625 550.21875 L 274.449219 556.050781 L 275.835938 561.578125 L 277.21875 565.570312 L 278.605469 570.316406 L 279.992188 573.902344 L 281.375 568.378906 L 282.761719 561.734375 L 284.148438 557.976562 L 285.53125 558.613281 L 286.917969 550.210938 L 288.304688 541.445312 L 289.6875 539.890625 L 291.074219 546.578125 L 292.460938 556.679688 L 293.84375 570.433594 L 295.230469 569.433594 L 296.617188 562.894531 L 298 561.648438 L 299.386719 567.515625 L 300.773438 575.65625 L 302.15625 575.164062 L 303.542969 568.625 L 304.929688 574.53125 L 306.316406 586.296875 L 307.699219 592.617188 L 309.085938 598.238281 L 310.472656 608.375 L 311.855469 608.011719 L 313.242188 604.585938 L 314.628906 605.132812 L 316.011719 615.003906 L 317.398438 621.296875 L 318.785156 621.839844 L 320.167969 625.761719 L 321.554688 626.753906 L 322.941406 622.574219 L 324.324219 615.566406 L 325.710938 616.355469 L 327.097656 609.773438 L 328.480469 611.902344 L 329.867188 609.019531 L 331.253906 616.128906 L 332.636719 622.882812 L 334.023438 623.359375 L 335.410156 624.066406 L 336.792969 628.113281 L 338.179688 644.253906 L 339.566406 653.59375 L 340.949219 667.480469 L 342.335938 669.976562 L 343.722656 673.019531 L 345.105469 677.519531 L 346.492188 682.0625 L 347.878906 672.402344 L 349.261719 676.351562 L 350.648438 675.355469 L 352.035156 675.167969 L 353.421875 679.441406 L 354.804688 680.644531 L 356.191406 678.277344 L 357.578125 678.722656 L 358.960938 675.339844 L 360.347656 665.535156 L 361.734375 661.1875 L 363.117188 660.929688 L 364.503906 670.394531 L 365.890625 675.320312 L 367.273438 673.429688 L 368.660156 674.523438 L 370.046875 665.664062 L 371.429688 666.933594 L 372.816406 675.585938 L 374.203125 687.71875 L 375.585938 682.050781 L 376.972656 684.125 L 378.359375 683.496094 L 379.742188 672.226562 L 381.128906 675.105469 L 382.515625 679.65625 L 383.898438 684.109375 L 385.285156 684.84375 L 386.671875 683.035156 L 388.054688 686.757812 L 389.441406 679.769531 L 390.828125 680.707031 L 392.210938 676.480469 L 393.597656 685.757812 L 394.984375 689.742188 L 396.367188 700.976562 L 397.753906 710.953125 L 399.140625 704.675781 L 400.527344 705.695312 L 401.910156 701.75 L 403.296875 709.234375 L 404.683594 716.457031 L 406.066406 719.542969 L 407.453125 720.484375 L 408.839844 716.917969 L 410.222656 718.019531 L 411.609375 716.902344 L 412.996094 717.394531 L 414.378906 725.472656 L 415.765625 727.136719 L 417.152344 719.597656 L 418.535156 720.496094 L 419.921875 716.195312 L 421.308594 704.132812 L 422.691406 697.066406 L 424.078125 692.910156 L 425.464844 682.53125 L 426.847656 676.953125 L 428.234375 674.191406 L 429.621094 674.660156 L 431.003906 675.160156 L 432.390625 679.070312 L 433.777344 684.441406 L 435.160156 675.917969 L 436.546875 677.363281 L 437.933594 672.371094 L 439.316406 666.214844 L 440.703125 663.632812 L 442.089844 663.261719 L 443.472656 661.859375 L 444.859375 660.953125 L 446.246094 664.847656 L 447.632812 673.589844 L 449.015625 677.363281 L 450.402344 679.96875 L 451.789062 674.640625 L 453.171875 677.480469 L 454.558594 685.140625 L 455.945312 686.367188 L 457.328125 685.175781 L 458.714844 675.230469 L 460.101562 666.945312 L 461.484375 659.179688 L 462.871094 650.363281 L 464.257812 638.019531 L 465.640625 631.09375 L 467.027344 623.609375 L 468.414062 623.371094 L 469.796875 613.054688 L 471.183594 597.867188 L 472.570312 590.042969 L 473.953125 587.835938 L 475.339844 580.167969 L 476.726562 565.191406 L 478.109375 554.300781 L 479.496094 536.796875 L 480.882812 529.347656 L 482.265625 534.59375 L 483.652344 543.691406 L 485.039062 546.867188 L 486.421875 545.910156 L 487.808594 552.238281 L 489.195312 547.425781 L 490.578125 549.03125 L 491.964844 547.78125 L 493.351562 551.949219 L 494.738281 544.945312 L 496.121094 534.558594 L 497.507812 535.304688 L 498.894531 532.613281 L 500.277344 530.410156 L 501.664062 521.96875 L 503.050781 517.980469 L 504.433594 511.386719 L 505.820312 504.097656 L 507.207031 500.96875 L 508.589844 484.402344 L 509.976562 477.027344 L 511.363281 467.171875 L 512.746094 463.695312 L 514.132812 458.003906 L 515.519531 436.152344 L 516.902344 421.6875 L 518.289062 406.984375 L 519.675781 394.515625 L 521.058594 375.464844 L 522.445312 358.347656 L 523.832031 347.839844 L 525.214844 335.316406 L 526.601562 317.792969 L 527.988281 314.234375 L 529.371094 309.375 L 530.757812 292.855469 L 532.144531 287.410156 L 533.527344 273.808594 L 534.914062 266.507812 L 536.300781 261.550781 L 537.683594 246.570312 L 539.070312 252.15625 L 540.457031 253.171875 L 541.84375 245.6875 L 543.226562 233.183594 L 544.613281 222.050781 L 546 215.148438 L 547.382812 206.867188 L 548.769531 202.984375 L 550.15625 193.351562 L 551.539062 192.28125 L 552.925781 185.539062 L 554.3125 178.585938 L 555.695312 175.5625 L 557.082031 161.058594 L 558.46875 146.546875 L 559.851562 135.121094 L 561.238281 128.277344 L 562.625 126 L 564.007812 126.859375 L 565.394531 120.160156 L 566.78125 111.863281 L 568.164062 107.457031 L 569.550781 101.316406 L 570.9375 94.3125 L 572.320312 81.445312 L 573.707031 78.691406 L 575.09375 79.757812 L 576.476562 85.5 L 577.863281 70.726562 L 579.25 64.183594 L 580.632812 58.085938 L 582.019531 51.710938 L 583.40625 49.863281 L 584.789062 54.722656 L 586.175781 57.78125 L 587.5625 68.109375 L 588.945312 73.902344 L 590.332031 78.550781 L 591.71875 79.242188 L 593.105469 80.054688 L 594.488281 81.203125 L 595.875 92.230469 L 597.261719 98.484375 L 598.644531 91.902344 L 600.03125 89.789062 L 601.417969 82.980469 L 602.800781 88.066406 L 604.1875 105.050781 L 605.574219 106.523438 L 606.957031 112.140625 L 608.34375 108.710938 L 609.730469 108.289062 L 611.113281 114.222656 L 612.5 111.835938 L 613.886719 115.601562 L 615.269531 121.976562 L 616.65625 118.726562 L 618.042969 113.753906 L 619.425781 119.859375 L 620.8125 134.144531 L 622.199219 146.769531 L 623.582031 147.242188 L 624.96875 152.035156 L 626.355469 150.300781 L 627.738281 146.078125 L 629.125 148.765625 L 630.511719 154.898438 L 631.894531 160.230469 L 633.28125 161.609375 L 634.667969 171.34375 L 636.054688 174.6875 L 637.4375 178.195312 L 638.824219 170.484375 L 640.210938 172.460938 L 641.59375 179.816406 L 642.980469 181.722656 L 644.367188 186.335938 L 645.75 183.125 L 647.136719 187.390625 L 648.523438 195.558594 L 649.90625 197.832031 L 651.292969 197.875 L 652.679688 210.558594 L 654.0625 204.4375 L 655.449219 203.355469 L 656.835938 201.546875 L 658.21875 200.042969 L 659.605469 205.691406 L 660.992188 216.40625 L 662.375 227.421875 L 663.761719 226.253906 L 665.148438 220.21875 L 666.53125 230.742188 L 667.917969 231.875 L 669.304688 231.222656 L 670.6875 225.984375 L 672.074219 234.167969 L 673.460938 237.714844 L 674.84375 243.480469 L 676.230469 247.703125 L 677.617188 236.417969 L 679 247.761719 L 680.386719 249.394531 L 681.773438 246.234375 L 683.15625 249.546875 L 684.542969 249.65625 L 685.929688 249.890625 L 687.316406 246.265625 L 688.699219 248.425781 L 690.085938 247.738281 L 691.472656 255.304688 L 692.855469 255.59375 L 694.242188 259.1875 L 695.628906 262.324219 L 697.011719 269.480469 L 698.398438 278.0625 L 699.785156 278.402344 L 701.167969 278.417969 L 702.554688 271.300781 L 703.941406 276.609375 L 705.324219 281.421875 L 706.710938 286.132812 L 708.097656 290.101562 L 709.480469 294.753906 L 710.867188 298.796875 L 712.253906 296.804688 L 713.636719 293.46875 L 715.023438 290.667969 L 716.410156 279.519531 L 717.792969 275.945312 L 719.179688 281.152344 L 720.566406 272.003906 L 721.949219 272.164062 L 723.335938 272.492188 L 724.722656 272.1875 L 726.105469 265.335938 L 727.492188 262.496094 L 728.878906 258.875 L 730.261719 257.535156 L 731.648438 259.652344 L 733.035156 263.585938 L 734.421875 267.464844 L 735.804688 263.011719 L 737.191406 266.71875 L 738.578125 267.886719 L 739.960938 266.132812 L 741.347656 268.226562 L 742.734375 268.507812 L 744.117188 262.980469 L 745.503906 260.730469 L 746.890625 262.820312 L 748.273438 255.316406 L 749.660156 253.359375 L 751.046875 251.539062 L 752.429688 250.507812 L 753.816406 248.414062 L 755.203125 248.523438 L 756.585938 241.089844 L 757.972656 242.902344 L 759.359375 249.492188 L 760.742188 246.003906 L 762.128906 250.320312 L 763.515625 251.1875 L 764.898438 251.0625 L 766.285156 252.964844 L 767.671875 253.160156 L 769.054688 255.152344 L 770.441406 259.0625 L 771.828125 267.902344 L 773.210938 270.03125 L 774.597656 271.769531 L 775.984375 268.363281 L 777.367188 270.113281 L 778.753906 267.335938 L 780.140625 269.820312 L 781.523438 284.300781 L 782.910156 289.304688 L 784.296875 287.214844 L 785.683594 281.574219 L 787.066406 273.324219 L 788.453125 275.117188 L 789.839844 282.542969 L 791.222656 287.402344 L 792.609375 285.152344 L 793.996094 291.195312 L 795.378906 288.148438 L 796.765625 286.03125 L 798.152344 294.9375 L 799.535156 305.253906 L 800.921875 313.457031 L 802.308594 316.007812 L 803.691406 317.359375 L 805.078125 326.195312 L 806.464844 324.648438 L 807.847656 330.761719 L 809.234375 337.644531 L 810.621094 338.160156 L 812.003906 343.710938 L 813.390625 349.398438 L 814.777344 345.347656 L 816.160156 349.253906 L 817.546875 355.371094 L 818.933594 356.738281 L 820.316406 349.695312 L 821.703125 355.496094 L 823.089844 350.976562 L 824.472656 355.425781 L 825.859375 360.386719 L 827.246094 367.980469 L 828.632812 360.460938 L 830.015625 361.460938 L 831.402344 356.410156 L 832.789062 361.167969 L 834.171875 361.332031 L 835.558594 379.675781 L 836.945312 377.859375 L 838.328125 369.8125 L 839.714844 376.109375 L 841.101562 387.308594 L 842.484375 390.832031 L 843.871094 388.203125 L 845.257812 391.535156 L 846.640625 394.339844 L 848.027344 391.679688 L 849.414062 395.683594 L 850.796875 401.390625 L 852.183594 405.277344 L 853.570312 411.222656 L 854.953125 407.359375 L 856.339844 411.253906 L 857.726562 410.773438 L 859.109375 414.53125 L 860.496094 419.085938 L 861.882812 421.0625 L 863.265625 420.023438 L 864.652344 420.210938 L 866.039062 426.019531 L 867.421875 424.273438 L 868.808594 422.132812 L 870.195312 421.359375 L 871.578125 429.765625 L 872.964844 429.800781 L 874.351562 422.78125 L 875.734375 428.191406 L 877.121094 425.65625 L 878.507812 422.789062 L 879.894531 419.867188 L 881.277344 416.878906 L 882.664062 428.222656 L 884.050781 441.242188 L 885.433594 448.785156 L 886.820312 446.324219 L 888.207031 436.414062 L 889.589844 432.265625 L 890.976562 440.113281 L 892.363281 449.335938 L 893.746094 448.078125 L 895.132812 441.632812 L 896.519531 436.050781 L 897.902344 431.113281 L 899.289062 427.460938 L 900.675781 423.183594 L 902.058594 430.554688 L 903.445312 433.625 L 904.832031 439.394531 L 906.214844 430.96875 L 907.601562 438.617188 L 908.988281 446.6875 L 910.371094 452.980469 L 911.757812 453.488281 L 913.144531 446.09375 L 914.527344 444.375 L 915.914062 437.128906 L 917.300781 439.140625 L 918.683594 435.71875 L 920.070312 444.867188 L 921.457031 442.675781 L 922.84375 443.425781 L 924.226562 441.542969 L 925.613281 440.863281 L 927 447.898438 L 928.382812 445.75 L 929.769531 450.363281 L 931.15625 455.542969 L 932.539062 465.957031 L 933.925781 468.738281 L 935.3125 465.390625 L 936.695312 462.378906 L 938.082031 459.578125 L 939.46875 449.25 L 940.851562 452.027344 L 942.238281 449.84375 L 943.625 462.730469 L 945.007812 476.109375 L 946.394531 469.363281 L 947.78125 462.832031 L 949.164062 450.402344 L 950.550781 468.347656 L 951.9375 472.214844 L 953.320312 487.027344 L 954.707031 485.527344 L 956.09375 477.71875 L 957.476562 471.160156 L 958.863281 466.945312 L 960.25 476.683594 L 961.632812 479.183594 L 963.019531 484.269531 L 964.40625 492.503906 L 965.789062 501.085938 L 967.175781 503.003906 L 968.5625 507.460938 L 969.945312 508.554688 L 971.332031 507.035156 L 972.71875 503.488281 L 974.105469 505.390625 L 975.488281 510.949219 L 976.875 515.195312 L 978.261719 513.394531 L 979.644531 507.972656 L 981.03125 513.925781 L 982.417969 514.210938 L 983.800781 512.480469 L 985.1875 509.933594 L 986.574219 504.261719 L 987.957031 492.355469 L 989.34375 493.621094 L 990.730469 503.902344 L 992.113281 509.984375 L 993.5 514.925781 L 994.886719 515.011719 L 996.269531 519.585938 L 997.65625 515.070312 L 999.042969 518.386719 L 1000.425781 523.449219 L 1001.8125 527.011719 L 1003.199219 531.144531 L 1004.582031 531.554688 L 1005.96875 544.660156 L 1007.355469 550.570312 L 1008.738281 547.441406 L 1010.125 539.363281 L 1011.511719 534.664062 L 1012.894531 535.867188 L 1014.28125 542.390625 L 1015.667969 541.824219 L 1017.050781 541.113281 L 1018.4375 546.03125 L 1019.824219 550.660156 L 1021.210938 555.460938 L 1022.59375 561.367188 L 1023.980469 559.589844 L 1025.367188 567.714844 L 1026.75 563.058594 L 1028.136719 563.710938 L 1029.523438 565.085938 L 1030.90625 562.148438 L 1032.292969 566.386719 L 1033.679688 568.679688 L 1035.0625 570.519531 L 1036.449219 572.796875 L 1037.835938 574.3125 L 1039.21875 576.390625 L 1040.605469 573.820312 L 1041.992188 566.835938 L 1043.375 542.449219 L 1044.761719 534.074219 L 1046.148438 529.042969 L 1047.53125 541.71875 L 1048.917969 561.578125 L 1050.304688 554.679688 L 1051.6875 544.515625 L 1053.074219 542.027344 L 1054.460938 546.40625 L 1055.84375 541.152344 L 1057.230469 536.714844 L 1058.617188 532.664062 L 1060 541.886719 L 1061.386719 545.054688 L 1062.773438 537.917969 L 1064.15625 532.167969 L 1065.542969 530.847656 L 1066.929688 535.085938 L 1068.3125 532.375 L 1069.699219 527.164062 L 1071.085938 529.03125 L 1072.472656 531.699219 L 1073.855469 537.054688 L 1075.242188 535.996094 L 1076.628906 538.179688 L 1078.011719 537.285156 L 1079.398438 535.40625 L 1080.785156 527.898438 L 1082.167969 526.945312 L 1083.554688 530.515625 L 1084.941406 549.03125 L 1086.324219 562.957031 L 1087.710938 561.945312 L 1089.097656 564.28125 L 1090.480469 558.75 L 1091.867188 554.113281 L 1093.253906 560.421875 L 1094.636719 552.347656 L 1096.023438 552.921875 L 1097.410156 552.683594 L 1098.792969 552.570312 L 1100.179688 552.089844 L 1101.566406 553.910156 L 1102.949219 562.1875 L 1104.335938 566.742188 L 1105.722656 568.972656 L 1107.105469 568.8125 L 1108.492188 576.0625 L 1109.878906 570.457031 L 1111.261719 565.246094 L 1112.648438 554.101562 L 1114.035156 550.613281 L 1115.421875 550.082031 L 1116.804688 546.753906 L 1118.191406 554.980469 L 1119.578125 567.820312 L 1120.960938 565.3125 L 1122.347656 561.601562 L 1123.734375 555.789062 L 1125.117188 557.980469 L 1126.503906 577.632812 L 1127.890625 573.515625 L 1129.273438 569.996094 L 1130.660156 570.484375 L 1132.046875 579.554688 "/>
<path fill="none" stroke-width="3" stroke-linecap="butt" stroke-linejoin="miter" stroke="rgb(0%, 61.960787%, 45.09804%)" stroke-opacity="1" stroke-miterlimit="2" d="M 92.953125 519.632812 L 94.339844 515.730469 L 95.726562 529.066406 L 97.109375 522.039062 L 98.496094 520.765625 L 99.882812 521.867188 L 101.265625 522.828125 L 102.652344 527.988281 L 104.039062 535.949219 L 105.421875 544.628906 L 106.808594 546.460938 L 108.195312 542.429688 L 109.578125 543.148438 L 110.964844 533.683594 L 112.351562 536.738281 L 113.738281 535.691406 L 115.121094 529.617188 L 116.507812 524.523438 L 117.894531 527.007812 L 119.277344 524.515625 L 120.664062 514.746094 L 122.050781 504.6875 L 123.433594 499.601562 L 124.820312 497.761719 L 126.207031 504.949219 L 127.589844 508.351562 L 128.976562 511.160156 L 130.363281 510.816406 L 131.746094 513.050781 L 133.132812 511.882812 L 134.519531 516.964844 L 135.902344 524.589844 L 137.289062 536.105469 L 138.675781 547.269531 L 140.058594 547.332031 L 141.445312 543.132812 L 142.832031 544.863281 L 144.214844 551.304688 L 145.601562 558.5625 L 146.988281 562.761719 L 148.371094 560.5 L 149.757812 555.011719 L 151.144531 560.300781 L 152.527344 564.761719 L 153.914062 563.203125 L 155.300781 557.738281 L 156.683594 558.757812 L 158.070312 556.210938 L 159.457031 553.828125 L 160.84375 548.859375 L 162.226562 547.941406 L 163.613281 545.746094 L 165 545.347656 L 166.382812 557.5 L 167.769531 558.34375 L 169.15625 556.664062 L 170.539062 566.070312 L 171.925781 571.75 L 173.3125 566.726562 L 174.695312 556.058594 L 176.082031 554.933594 L 177.46875 554.960938 L 178.851562 564 L 180.238281 557.257812 L 181.625 561.777344 L 183.007812 559.878906 L 184.394531 559.246094 L 185.78125 564.21875 L 187.164062 559.832031 L 188.550781 558.40625 L 189.9375 553.761719 L 191.320312 555.753906 L 192.707031 558.207031 L 194.09375 560.425781 L 195.476562 560.53125 L 196.863281 561.761719 L 198.25 562.449219 L 199.632812 560.253906 L 201.019531 567.445312 L 202.40625 572.28125 L 203.789062 574.242188 L 205.175781 577.097656 L 206.5625 575.265625 L 207.949219 575.03125 L 209.332031 577.089844 L 210.71875 580.738281 L 212.105469 576.378906 L 213.488281 575.867188 L 214.875 576.183594 L 216.261719 574.519531 L 217.644531 564.476562 L 219.03125 556.703125 L 220.417969 551.097656 L 221.800781 552.136719 L 223.1875 553.59375 L 224.574219 548.316406 L 225.957031 536.019531 L 227.34375 533.574219 L 228.730469 533.109375 L 230.113281 525.5 L 231.5 523.742188 L 232.886719 528.324219 L 234.269531 540.859375 L 235.65625 540.71875 L 237.042969 541.617188 L 238.425781 539.363281 L 239.8125 539.261719 L 241.199219 529.851562 L 242.582031 523.667969 L 243.96875 524.316406 L 245.355469 522.660156 L 246.738281 519.144531 L 248.125 524.1875 L 249.511719 527.773438 L 250.894531 530.976562 L 252.28125 525.0625 L 253.667969 518.980469 L 255.054688 514.429688 L 256.4375 504.578125 L 257.824219 501.054688 L 259.210938 499.582031 L 260.59375 493.773438 L 261.980469 499.464844 L 263.367188 502.195312 L 264.75 509.15625 L 266.136719 519.542969 L 267.523438 528.828125 L 268.90625 535.992188 L 270.292969 538.550781 L 271.679688 541.128906 L 273.0625 538.171875 L 274.449219 542.152344 L 275.835938 546.476562 L 277.21875 547.691406 L 278.605469 542.792969 L 279.992188 538.445312 L 281.375 542.605469 L 282.761719 548.894531 L 284.148438 545.8125 L 285.53125 541.210938 L 286.917969 533.90625 L 288.304688 528.730469 L 289.6875 530.351562 L 291.074219 527.507812 L 292.460938 520.886719 L 293.84375 514.613281 L 295.230469 516.832031 L 296.617188 520.9375 L 298 527.105469 L 299.386719 529.335938 L 300.773438 526.277344 L 302.15625 528.214844 L 303.542969 522.285156 L 304.929688 521.816406 L 306.316406 528.53125 L 307.699219 527.3125 L 309.085938 529.8125 L 310.472656 538.433594 L 311.855469 536.226562 L 313.242188 537.949219 L 314.628906 542.765625 L 316.011719 538.859375 L 317.398438 538.335938 L 318.785156 542.269531 L 320.167969 543.007812 L 321.554688 543.28125 L 322.941406 544.609375 L 324.324219 540.570312 L 325.710938 533.269531 L 327.097656 529.472656 L 328.480469 526.820312 L 329.867188 529.582031 L 331.253906 537.796875 L 332.636719 547.785156 L 334.023438 556.21875 L 335.410156 557.300781 L 336.792969 566.804688 L 338.179688 567.128906 L 339.566406 576.085938 L 340.949219 578.335938 L 342.335938 569.582031 L 343.722656 565.34375 L 345.105469 575.960938 L 346.492188 579.925781 L 347.878906 580.5625 L 349.261719 581.046875 L 350.648438 581.453125 L 352.035156 583.164062 L 353.421875 580.703125 L 354.804688 585.082031 L 356.191406 585.890625 L 357.578125 588.589844 L 358.960938 592.4375 L 360.347656 587.546875 L 361.734375 584.820312 L 363.117188 583.878906 L 364.503906 587.476562 L 365.890625 589.398438 L 367.273438 595.390625 L 368.660156 601.78125 L 370.046875 606.347656 L 371.429688 610.925781 L 372.816406 615.699219 L 374.203125 628.914062 L 375.585938 629.261719 L 376.972656 629.605469 L 378.359375 629.25 L 379.742188 633.371094 L 381.128906 640.847656 L 382.515625 640.1875 L 383.898438 633.082031 L 385.285156 629.925781 L 386.671875 627.328125 L 388.054688 619.109375 L 389.441406 614.351562 L 390.828125 609.054688 L 392.210938 615.242188 L 393.597656 626.757812 L 394.984375 629.0625 L 396.367188 639.347656 L 397.753906 638.46875 L 399.140625 643.386719 L 400.527344 639.84375 L 401.910156 641.929688 L 403.296875 647.691406 L 404.683594 661.511719 L 406.066406 658.65625 L 407.453125 653.402344 L 408.839844 655.867188 L 410.222656 654.554688 L 411.609375 646.808594 L 412.996094 641.359375 L 414.378906 639.980469 L 415.765625 633.039062 L 417.152344 631.023438 L 418.535156 624.640625 L 419.921875 620.796875 L 421.308594 613.351562 L 422.691406 610.917969 L 424.078125 605.988281 L 425.464844 606.132812 L 426.847656 605.582031 L 428.234375 612.644531 L 429.621094 616.988281 L 431.003906 616.640625 L 432.390625 620.179688 L 433.777344 626.640625 L 435.160156 628.839844 L 436.546875 632.019531 L 437.933594 637.207031 L 439.316406 637.847656 L 440.703125 638.761719 L 442.089844 619.121094 L 443.472656 618.585938 L 444.859375 612.417969 L 446.246094 608.65625 L 447.632812 620.421875 L 449.015625 625.777344 L 450.402344 624.984375 L 451.789062 628.832031 L 453.171875 629.1875 L 454.558594 629.632812 L 455.945312 625.785156 L 457.328125 626.511719 L 458.714844 624.386719 L 460.101562 632.34375 L 461.484375 636.976562 L 462.871094 634.429688 L 464.257812 636.234375 L 465.640625 636.132812 L 467.027344 639.105469 L 468.414062 636.484375 L 469.796875 628.476562 L 471.183594 628.050781 L 472.570312 621.414062 L 473.953125 620.390625 L 475.339844 608.175781 L 476.726562 597.050781 L 478.109375 588.378906 L 479.496094 589.132812 L 480.882812 574.203125 L 482.265625 567.113281 L 483.652344 558.035156 L 485.039062 553.34375 L 486.421875 552.101562 L 487.808594 564.585938 L 489.195312 562.785156 L 490.578125 559.222656 L 491.964844 551.460938 L 493.351562 554.410156 L 494.738281 553.078125 L 496.121094 542.109375 L 497.507812 534.089844 L 498.894531 527.207031 L 500.277344 520.878906 L 501.664062 525.203125 L 503.050781 519.730469 L 504.433594 514.621094 L 505.820312 499.871094 L 507.207031 485.578125 L 508.589844 474.984375 L 509.976562 462.175781 L 511.363281 447.554688 L 512.746094 433.089844 L 514.132812 420.023438 L 515.519531 412.628906 L 516.902344 399.824219 L 518.289062 396.539062 L 519.675781 381.296875 L 521.058594 374.433594 L 522.445312 361.523438 L 523.832031 349.808594 L 525.214844 340.058594 L 526.601562 331.910156 L 527.988281 317.953125 L 529.371094 314.277344 L 530.757812 300.589844 L 532.144531 303.324219 L 533.527344 295.976562 L 534.914062 282.632812 L 536.300781 269.199219 L 537.683594 264.667969 L 539.070312 262.074219 L 540.457031 264.035156 L 541.84375 264.613281 L 543.226562 265.359375 L 544.613281 263.101562 L 546 268.832031 L 547.382812 270.363281 L 548.769531 265.460938 L 550.15625 270.019531 L 551.539062 259.234375 L 552.925781 245.308594 L 554.3125 227.019531 L 555.695312 235.789062 L 557.082031 232.78125 L 558.46875 219.46875 L 559.851562 205.121094 L 561.238281 186.378906 L 562.625 181.957031 L 564.007812 181.984375 L 565.394531 173.007812 L 566.78125 165.460938 L 568.164062 165.796875 L 569.550781 166.121094 L 570.9375 163.804688 L 572.320312 151.792969 L 573.707031 152.65625 L 575.09375 157.003906 L 576.476562 156.855469 L 577.863281 150.171875 L 579.25 147.269531 L 580.632812 131.933594 L 582.019531 132.765625 L 583.40625 139.382812 L 584.789062 141.015625 L 586.175781 139.503906 L 587.5625 135.761719 L 588.945312 137.429688 L 590.332031 141.476562 L 591.71875 141.359375 L 593.105469 138.644531 L 594.488281 136.890625 L 595.875 134.628906 L 597.261719 135.417969 L 598.644531 138.582031 L 600.03125 145.804688 L 601.417969 159.570312 L 602.800781 166.660156 L 604.1875 177.03125 L 605.574219 184.839844 L 606.957031 184.285156 L 608.34375 185.097656 L 609.730469 193.128906 L 611.113281 206.46875 L 612.5 195.335938 L 613.886719 202.746094 L 615.269531 206.179688 L 616.65625 206.214844 L 618.042969 196.648438 L 619.425781 188.019531 L 620.8125 179.714844 L 622.199219 184.300781 L 623.582031 194.804688 L 624.96875 201.488281 L 626.355469 200.394531 L 627.738281 195.699219 L 629.125 203.410156 L 630.511719 206.652344 L 631.894531 214.75 L 633.28125 217.496094 L 634.667969 216.921875 L 636.054688 214.074219 L 637.4375 217.238281 L 638.824219 226.703125 L 640.210938 238.144531 L 641.59375 240.136719 L 642.980469 258.542969 L 644.367188 265.390625 L 645.75 264.574219 L 647.136719 263.019531 L 648.523438 264.5625 L 649.90625 270.320312 L 651.292969 275.917969 L 652.679688 279.265625 L 654.0625 281.5 L 655.449219 278.644531 L 656.835938 275.042969 L 658.21875 277.703125 L 659.605469 277.097656 L 660.992188 273.621094 L 662.375 279.273438 L 663.761719 276.890625 L 665.148438 276.324219 L 666.53125 280.160156 L 667.917969 279.253906 L 669.304688 286.898438 L 670.6875 291.28125 L 672.074219 300.074219 L 673.460938 301.808594 L 674.84375 309.800781 L 676.230469 306.871094 L 677.617188 313.101562 L 679 326.503906 L 680.386719 318.417969 L 681.773438 319.476562 L 683.15625 320.375 L 684.542969 324.566406 L 685.929688 331.914062 L 687.316406 325.410156 L 688.699219 315.710938 L 690.085938 304.566406 L 691.472656 297.109375 L 692.855469 299.347656 L 694.242188 294.136719 L 695.628906 304.828125 L 697.011719 308.324219 L 698.398438 307.191406 L 699.785156 305.894531 L 701.167969 315.78125 L 702.554688 314.609375 L 703.941406 310.828125 L 705.324219 312.367188 L 706.710938 309.183594 L 708.097656 314.667969 L 709.480469 316.234375 L 710.867188 310.289062 L 712.253906 309.582031 L 713.636719 310.628906 L 715.023438 311.046875 L 716.410156 306.511719 L 717.792969 307.261719 L 719.179688 312.148438 L 720.566406 322.40625 L 721.949219 324.875 L 723.335938 319.355469 L 724.722656 312.0625 L 726.105469 307.742188 L 727.492188 299.261719 L 728.878906 302.265625 L 730.261719 309.601562 L 731.648438 311.222656 L 733.035156 317.480469 L 734.421875 314.3125 L 735.804688 305.695312 L 737.191406 298.785156 L 738.578125 305.46875 L 739.960938 304.289062 L 741.347656 314.125 L 742.734375 320.832031 L 744.117188 324.527344 L 745.503906 323.464844 L 746.890625 322.5 L 748.273438 317.761719 L 749.660156 312.777344 L 751.046875 307.488281 L 752.429688 322.902344 L 753.816406 332.109375 L 755.203125 326.933594 L 756.585938 328.425781 L 757.972656 329.734375 L 759.359375 326.914062 L 760.742188 320.746094 L 762.128906 317.484375 L 763.515625 316.714844 L 764.898438 316.222656 L 766.285156 324.234375 L 767.671875 334.992188 L 769.054688 340.800781 L 770.441406 344.554688 L 771.828125 344.773438 L 773.210938 347.511719 L 774.597656 358.65625 L 775.984375 358.023438 L 777.367188 359.269531 L 778.753906 362.582031 L 780.140625 365.1875 L 781.523438 367.648438 L 782.910156 363.800781 L 784.296875 357.152344 L 785.683594 347.148438 L 787.066406 355.894531 L 788.453125 352.316406 L 789.839844 363.800781 L 791.222656 364.941406 L 792.609375 371.25 L 793.996094 373.046875 L 795.378906 372.289062 L 796.765625 366.421875 L 798.152344 368.6875 L 799.535156 366.054688 L 800.921875 367.96875 L 802.308594 372.769531 L 803.691406 376.238281 L 805.078125 381.097656 L 806.464844 373.757812 L 807.847656 375.753906 L 809.234375 377.164062 L 810.621094 384.300781 L 812.003906 396.078125 L 813.390625 397.4375 L 814.777344 390.261719 L 816.160156 395.761719 L 817.546875 405.058594 L 818.933594 406.613281 L 820.316406 400.972656 L 821.703125 404.113281 L 823.089844 407.492188 L 824.472656 409.300781 L 825.859375 415.222656 L 827.246094 411.421875 L 828.632812 409.621094 L 830.015625 411.351562 L 831.402344 408.554688 L 832.789062 407.183594 L 834.171875 412.640625 L 835.558594 411.164062 L 836.945312 410.207031 L 838.328125 408.144531 L 839.714844 407.585938 L 841.101562 418.054688 L 842.484375 419.453125 L 843.871094 418.8125 L 845.257812 413.933594 L 846.640625 416.617188 L 848.027344 423.292969 L 849.414062 421.828125 L 850.796875 418.65625 L 852.183594 421.800781 L 853.570312 419.113281 L 854.953125 416.949219 L 856.339844 418.96875 L 857.726562 419.472656 L 859.109375 421.195312 L 860.496094 423.605469 L 861.882812 428.921875 L 863.265625 431.621094 L 864.652344 435.316406 L 866.039062 443.679688 L 867.421875 448.542969 L 868.808594 445.996094 L 870.195312 453.164062 L 871.578125 459.542969 L 872.964844 463.296875 L 874.351562 464.140625 L 875.734375 464.066406 L 877.121094 479.332031 L 878.507812 482.683594 L 879.894531 478.410156 L 881.277344 470.40625 L 882.664062 474.464844 L 884.050781 473.9375 L 885.433594 486.203125 L 886.820312 483.359375 L 888.207031 485.417969 L 889.589844 485.644531 L 890.976562 488.375 L 892.363281 492.90625 L 893.746094 492.3125 L 895.132812 484.472656 L 896.519531 480.671875 L 897.902344 487.800781 L 899.289062 490.589844 L 900.675781 488.5625 L 902.058594 498.160156 L 903.445312 500.1875 L 904.832031 511.832031 L 906.214844 512.265625 L 907.601562 515.316406 L 908.988281 517.683594 L 910.371094 519.164062 L 911.757812 515.371094 L 913.144531 507.140625 L 914.527344 505.476562 L 915.914062 513.527344 L 917.300781 517.242188 L 918.683594 517.671875 L 920.070312 516.347656 L 921.457031 521.722656 L 922.84375 522.507812 L 924.226562 519.460938 L 925.613281 516.996094 L 927 523.816406 L 928.382812 519.757812 L 929.769531 515.503906 L 931.15625 518.84375 L 932.539062 520.914062 L 933.925781 514.683594 L 935.3125 516.46875 L 936.695312 519.125 L 938.082031 509.621094 L 939.46875 513.984375 L 940.851562 517.210938 L 942.238281 536.292969 L 943.625 534.148438 L 945.007812 519.320312 L 946.394531 514.519531 L 947.78125 516.066406 L 949.164062 526.941406 L 950.550781 524.265625 L 951.9375 525.585938 L 953.320312 515.105469 L 954.707031 516.316406 L 956.09375 519.230469 L 957.476562 525.402344 L 958.863281 533.96875 L 960.25 530.574219 L 961.632812 529.566406 L 963.019531 514.261719 L 964.40625 508.109375 L 965.789062 512.960938 L 967.175781 512.167969 L 968.5625 511.476562 L 969.945312 506.851562 L 971.332031 504.128906 L 972.71875 503.726562 L 974.105469 505.25 L 975.488281 503.269531 L 976.875 502.660156 L 978.261719 508.796875 L 979.644531 516.988281 L 981.03125 518.6875 L 982.417969 513.851562 L 983.800781 515.382812 L 985.1875 528.523438 L 986.574219 546.582031 L 987.957031 549.777344 L 989.34375 545.167969 L 990.730469 538.121094 L 992.113281 540.679688 L 993.5 539.285156 L 994.886719 544.03125 L 996.269531 541.125 L 997.65625 538.523438 L 999.042969 529.925781 L 1000.425781 527.15625 L 1001.8125 521.722656 L 1003.199219 519.824219 L 1004.582031 527.457031 L 1005.96875 524.753906 L 1007.355469 518.757812 L 1008.738281 517.097656 L 1010.125 521.820312 L 1011.511719 520.632812 L 1012.894531 531.371094 L 1014.28125 533.746094 L 1015.667969 532.316406 L 1017.050781 533.082031 L 1018.4375 536.902344 L 1019.824219 530.644531 L 1021.210938 532.261719 L 1022.59375 532.632812 L 1023.980469 540.515625 L 1025.367188 540.269531 L 1026.75 543.367188 L 1028.136719 555.863281 L 1029.523438 557.40625 L 1030.90625 560.070312 L 1032.292969 554.847656 L 1033.679688 544.546875 L 1035.0625 542.941406 L 1036.449219 535.664062 L 1037.835938 522.539062 L 1039.21875 515.988281 L 1040.605469 506.9375 L 1041.992188 516.40625 L 1043.375 519.46875 L 1044.761719 528.585938 L 1046.148438 526.515625 L 1047.53125 528.535156 L 1048.917969 536.011719 L 1050.304688 541.855469 L 1051.6875 559.765625 L 1053.074219 560.109375 L 1054.460938 551.386719 L 1055.84375 558.121094 L 1057.230469 562.253906 L 1058.617188 555.011719 L 1060 554.824219 L 1061.386719 550.824219 L 1062.773438 546.566406 L 1064.15625 542.675781 L 1065.542969 540.832031 L 1066.929688 536.082031 L 1068.3125 539.125 L 1069.699219 527.734375 L 1071.085938 518.132812 L 1072.472656 521.175781 L 1073.855469 520.699219 L 1075.242188 524.824219 L 1076.628906 520.859375 L 1078.011719 524.882812 L 1079.398438 525.121094 L 1080.785156 531.382812 L 1082.167969 537.65625 L 1083.554688 543.183594 L 1084.941406 559.148438 L 1086.324219 561.367188 L 1087.710938 559.199219 L 1089.097656 555.265625 L 1090.480469 556.285156 L 1091.867188 558.964844 L 1093.253906 557.644531 L 1094.636719 556.742188 L 1096.023438 556.585938 L 1097.410156 559.027344 L 1098.792969 560.066406 L 1100.179688 556.515625 L 1101.566406 549.207031 L 1102.949219 547.738281 L 1104.335938 545.851562 L 1105.722656 537.695312 L 1107.105469 533.78125 L 1108.492188 536.460938 L 1109.878906 543.464844 L 1111.261719 551.371094 L 1112.648438 552.234375 L 1114.035156 547.171875 L 1115.421875 549.917969 L 1116.804688 557.808594 L 1118.191406 567.035156 L 1119.578125 565.609375 L 1120.960938 565.144531 L 1122.347656 564.253906 L 1123.734375 565.414062 L 1125.117188 571.859375 L 1126.503906 574.933594 L 1127.890625 575.828125 L 1129.273438 575.507812 L 1130.660156 576.480469 L 1132.046875 575.421875 "/>
<path fill="none" stroke-width="3" stroke-linecap="butt" stroke-linejoin="miter" stroke="rgb(80.000001%, 47.450981%, 65.490198%)" stroke-opacity="1" stroke-miterlimit="2" d="M 92.953125 496.53125 L 94.339844 494.75 L 95.726562 487.128906 L 97.109375 498.921875 L 98.496094 501.894531 L 99.882812 502.128906 L 101.265625 507.5625 L 102.652344 508.476562 L 104.039062 497.8125 L 105.421875 506.902344 L 106.808594 517.960938 L 108.195312 525.074219 L 109.578125 523.882812 L 110.964844 523.949219 L 112.351562 530.808594 L 113.738281 535.1875 L 115.121094 526.933594 L 116.507812 519.503906 L 117.894531 509.660156 L 119.277344 519.316406 L 120.664062 529.6875 L 122.050781 519.960938 L 123.433594 520.347656 L 124.820312 522.394531 L 126.207031 528.65625 L 127.589844 537.441406 L 128.976562 537.757812 L 130.363281 536.15625 L 131.746094 538.332031 L 133.132812 546.285156 L 134.519531 550.953125 L 135.902344 558.375 L 137.289062 552.144531 L 138.675781 546.84375 L 140.058594 546.679688 L 141.445312 548.8125 L 142.832031 547.941406 L 144.214844 549.40625 L 145.601562 551.191406 L 146.988281 552.953125 L 148.371094 551.984375 L 149.757812 547.292969 L 151.144531 540.539062 L 152.527344 524.164062 L 153.914062 523.863281 L 155.300781 532.023438 L 156.683594 526.882812 L 158.070312 523.402344 L 159.457031 525.550781 L 160.84375 528.265625 L 162.226562 536.234375 L 163.613281 537.957031 L 165 535.164062 L 166.382812 545.109375 L 167.769531 545.539062 L 169.15625 545.039062 L 170.539062 545.523438 L 171.925781 553.847656 L 173.3125 560.429688 L 174.695312 568.222656 L 176.082031 557.398438 L 177.46875 552.699219 L 178.851562 549.347656 L 180.238281 545.441406 L 181.625 544.414062 L 183.007812 538.453125 L 184.394531 531.0625 L 185.78125 528.9375 L 187.164062 531.304688 L 188.550781 532.097656 L 189.9375 531.089844 L 191.320312 528.578125 L 192.707031 528.128906 L 194.09375 535.992188 L 195.476562 536.980469 L 196.863281 527.21875 L 198.25 521.488281 L 199.632812 525.9375 L 201.019531 535.558594 L 202.40625 538.089844 L 203.789062 541.167969 L 205.175781 541.988281 L 206.5625 536.78125 L 207.949219 534.457031 L 209.332031 535.582031 L 210.71875 540.230469 L 212.105469 549.296875 L 213.488281 550.070312 L 214.875 544.617188 L 216.261719 544.8125 L 217.644531 545.695312 L 219.03125 537.585938 L 220.417969 530.140625 L 221.800781 532.953125 L 223.1875 543.433594 L 224.574219 550.457031 L 225.957031 547.246094 L 227.34375 534.285156 L 228.730469 532.097656 L 230.113281 531.359375 L 231.5 518.328125 L 232.886719 523.691406 L 234.269531 530.175781 L 235.65625 536.773438 L 237.042969 534.601562 L 238.425781 531.117188 L 239.8125 533.640625 L 241.199219 537.59375 L 242.582031 544.726562 L 243.96875 549.011719 L 245.355469 556.832031 L 246.738281 569.484375 L 248.125 576.546875 L 249.511719 573.519531 L 250.894531 572.855469 L 252.28125 566.472656 L 253.667969 567.328125 L 255.054688 557.6875 L 256.4375 554.628906 L 257.824219 560.675781 L 259.210938 557.457031 L 260.59375 560.824219 L 261.980469 563.042969 L 263.367188 554.632812 L 264.75 553.523438 L 266.136719 539.714844 L 267.523438 540.253906 L 268.90625 550.917969 L 270.292969 557.617188 L 271.679688 557.273438 L 273.0625 555.175781 L 274.449219 557.226562 L 275.835938 560.535156 L 277.21875 566.386719 L 278.605469 564.859375 L 279.992188 560.460938 L 281.375 570.78125 L 282.761719 580.441406 L 284.148438 582.273438 L 285.53125 586.722656 L 286.917969 585.707031 L 288.304688 580.75 L 289.6875 582.632812 L 291.074219 581.660156 L 292.460938 590.394531 L 293.84375 593.152344 L 295.230469 594.335938 L 296.617188 598.488281 L 298 600.222656 L 299.386719 593.121094 L 300.773438 591.859375 L 302.15625 582.347656 L 303.542969 584.261719 L 304.929688 583.699219 L 306.316406 579.46875 L 307.699219 585.273438 L 309.085938 587.292969 L 310.472656 584.257812 L 311.855469 575.40625 L 313.242188 568.296875 L 314.628906 579.761719 L 316.011719 583.253906 L 317.398438 583.042969 L 318.785156 581.292969 L 320.167969 593.40625 L 321.554688 592.875 L 322.941406 598.320312 L 324.324219 596.539062 L 325.710938 600.664062 L 327.097656 603.75 L 328.480469 606.375 L 329.867188 612.5 L 331.253906 614.945312 L 332.636719 614.941406 L 334.023438 612.285156 L 335.410156 612.011719 L 336.792969 609.367188 L 338.179688 608.582031 L 339.566406 615.4375 L 340.949219 622.660156 L 342.335938 630.628906 L 343.722656 625.785156 L 345.105469 622.6875 L 346.492188 621.820312 L 347.878906 618.890625 L 349.261719 626.878906 L 350.648438 632.09375 L 352.035156 634.449219 L 353.421875 623.125 L 354.804688 618.234375 L 356.191406 625.332031 L 357.578125 623.226562 L 358.960938 621.964844 L 360.347656 624.621094 L 361.734375 630.433594 L 363.117188 631.949219 L 364.503906 640.945312 L 365.890625 644.542969 L 367.273438 646.425781 L 368.660156 643.460938 L 370.046875 643.523438 L 371.429688 645.734375 L 372.816406 645.710938 L 374.203125 646.59375 L 375.585938 644.984375 L 376.972656 658.039062 L 378.359375 662.914062 L 379.742188 668.367188 L 381.128906 666.296875 L 382.515625 664.410156 L 383.898438 660.378906 L 385.285156 654.367188 L 386.671875 657.519531 L 388.054688 661.191406 L 389.441406 667.796875 L 390.828125 668.898438 L 392.210938 661.199219 L 393.597656 659.980469 L 394.984375 660.433594 L 396.367188 667.523438 L 397.753906 677.722656 L 399.140625 675.5 L 400.527344 676.773438 L 401.910156 679.527344 L 403.296875 684.308594 L 404.683594 686.722656 L 406.066406 682.386719 L 407.453125 688.515625 L 408.839844 690.898438 L 410.222656 698.253906 L 411.609375 704.007812 L 412.996094 704.488281 L 414.378906 701.21875 L 415.765625 701.933594 L 417.152344 705.40625 L 418.535156 712.867188 L 419.921875 713.6875 L 421.308594 715.335938 L 422.691406 719.105469 L 424.078125 717.722656 L 425.464844 707.070312 L 426.847656 697.480469 L 428.234375 695.167969 L 429.621094 690.929688 L 431.003906 689.363281 L 432.390625 696.796875 L 433.777344 694.292969 L 435.160156 685.382812 L 436.546875 691.625 L 437.933594 690.746094 L 439.316406 695.910156 L 440.703125 695.238281 L 442.089844 689.726562 L 443.472656 685.523438 L 444.859375 685.875 L 446.246094 683.613281 L 447.632812 690.347656 L 449.015625 691.273438 L 450.402344 692.890625 L 451.789062 693.507812 L 453.171875 700.738281 L 454.558594 699.210938 L 455.945312 700.351562 L 457.328125 703.1875 L 458.714844 695.308594 L 460.101562 683.871094 L 461.484375 678.660156 L 462.871094 677.683594 L 464.257812 684.277344 L 465.640625 686.378906 L 467.027344 682.085938 L 468.414062 673.265625 L 469.796875 670.289062 L 471.183594 671.898438 L 472.570312 670.570312 L 473.953125 656.242188 L 475.339844 652 L 476.726562 651.589844 L 478.109375 649.003906 L 479.496094 633.894531 L 480.882812 624.484375 L 482.265625 606.59375 L 483.652344 604.621094 L 485.039062 608.421875 L 486.421875 622.988281 L 487.808594 614.195312 L 489.195312 613.886719 L 490.578125 609.121094 L 491.964844 607.511719 L 493.351562 610.113281 L 494.738281 612.386719 L 496.121094 607.058594 L 497.507812 595.679688 L 498.894531 583.570312 L 500.277344 580.226562 L 501.664062 579.605469 L 503.050781 577.414062 L 504.433594 573.609375 L 505.820312 567.082031 L 507.207031 569.910156 L 508.589844 554.980469 L 509.976562 549.730469 L 511.363281 541.59375 L 512.746094 522.980469 L 514.132812 512.519531 L 515.519531 505.488281 L 516.902344 497.777344 L 518.289062 482.003906 L 519.675781 464.636719 L 521.058594 451.351562 L 522.445312 436.6875 L 523.832031 426.3125 L 525.214844 416.476562 L 526.601562 407.601562 L 527.988281 394.210938 L 529.371094 391.300781 L 530.757812 387.148438 L 532.144531 367.984375 L 533.527344 360.046875 L 534.914062 357.269531 L 536.300781 357.789062 L 537.683594 359.0625 L 539.070312 355.160156 L 540.457031 348.785156 L 541.84375 336.519531 L 543.226562 327.320312 L 544.613281 322.738281 L 546 322.613281 L 547.382812 316.867188 L 548.769531 310.542969 L 550.15625 308.203125 L 551.539062 299.460938 L 552.925781 284.417969 L 554.3125 272.882812 L 555.695312 254.796875 L 557.082031 247.730469 L 558.46875 242.214844 L 559.851562 228.695312 L 561.238281 221.003906 L 562.625 214.6875 L 564.007812 203.25 L 565.394531 192.519531 L 566.78125 195.398438 L 568.164062 191.03125 L 569.550781 189.136719 L 570.9375 186.753906 L 572.320312 187.183594 L 573.707031 183.355469 L 575.09375 170.25 L 576.476562 164.847656 L 577.863281 161.421875 L 579.25 158.109375 L 580.632812 152.304688 L 582.019531 158.5625 L 583.40625 159.921875 L 584.789062 159.113281 L 586.175781 159.742188 L 587.5625 155.042969 L 588.945312 158.382812 L 590.332031 155.527344 L 591.71875 155.09375 L 593.105469 158.195312 L 594.488281 155.640625 L 595.875 150.699219 L 597.261719 149.402344 L 598.644531 149.410156 L 600.03125 152.585938 L 601.417969 157.511719 L 602.800781 156.953125 L 604.1875 150.804688 L 605.574219 150.863281 L 606.957031 152.023438 L 608.34375 163.109375 L 609.730469 167.488281 L 611.113281 174.164062 L 612.5 179.863281 L 613.886719 186.859375 L 615.269531 185.699219 L 616.65625 179.796875 L 618.042969 177.011719 L 619.425781 182.15625 L 620.8125 187.808594 L 622.199219 192.765625 L 623.582031 194.992188 L 624.96875 200.992188 L 626.355469 197.648438 L 627.738281 198.007812 L 629.125 201.429688 L 630.511719 205.355469 L 631.894531 204.550781 L 633.28125 202.785156 L 634.667969 204.925781 L 636.054688 207.425781 L 637.4375 216.222656 L 638.824219 223.992188 L 640.210938 230.210938 L 641.59375 246.683594 L 642.980469 259.632812 L 644.367188 261.21875 L 645.75 255.789062 L 647.136719 250.066406 L 648.523438 252.667969 L 649.90625 253.488281 L 651.292969 255.050781 L 652.679688 257.585938 L 654.0625 250.601562 L 655.449219 253.957031 L 656.835938 257.636719 L 658.21875 264.507812 L 659.605469 272.671875 L 660.992188 274.953125 L 662.375 270.207031 L 663.761719 266.914062 L 665.148438 270.710938 L 666.53125 263.875 L 667.917969 270.328125 L 669.304688 270.871094 L 670.6875 273.695312 L 672.074219 274.589844 L 673.460938 287.140625 L 674.84375 289.546875 L 676.230469 288.089844 L 677.617188 286.0625 L 679 297.28125 L 680.386719 292.195312 L 681.773438 295.519531 L 683.15625 304.121094 L 684.542969 306.828125 L 685.929688 306.410156 L 687.316406 295.976562 L 688.699219 298.992188 L 690.085938 302.96875 L 691.472656 308.816406 L 692.855469 313.398438 L 694.242188 307.285156 L 695.628906 309.71875 L 697.011719 306.152344 L 698.398438 311.910156 L 699.785156 318.074219 L 701.167969 320.773438 L 702.554688 319.101562 L 703.941406 321.363281 L 705.324219 322.175781 L 706.710938 325.910156 L 708.097656 323.257812 L 709.480469 330.390625 L 710.867188 339.101562 L 712.253906 340.71875 L 713.636719 345.808594 L 715.023438 342.308594 L 716.410156 339.019531 L 717.792969 334.574219 L 719.179688 330.570312 L 720.566406 328.027344 L 721.949219 331.171875 L 723.335938 334.867188 L 724.722656 338.234375 L 726.105469 337.71875 L 727.492188 332.058594 L 728.878906 328.96875 L 730.261719 329.722656 L 731.648438 334.261719 L 733.035156 338.027344 L 734.421875 338.539062 L 735.804688 336.191406 L 737.191406 338.539062 L 738.578125 341.890625 L 739.960938 342.839844 L 741.347656 340.226562 L 742.734375 336.070312 L 744.117188 337.816406 L 745.503906 341.839844 L 746.890625 351.085938 L 748.273438 358.375 L 749.660156 359.140625 L 751.046875 364.828125 L 752.429688 360.171875 L 753.816406 356.113281 L 755.203125 362.980469 L 756.585938 361.980469 L 757.972656 365.066406 L 759.359375 367.542969 L 760.742188 367.476562 L 762.128906 364.542969 L 763.515625 364.339844 L 764.898438 364.628906 L 766.285156 364.769531 L 767.671875 364.070312 L 769.054688 365.367188 L 770.441406 359.886719 L 771.828125 364.855469 L 773.210938 376.570312 L 774.597656 373.289062 L 775.984375 364.351562 L 777.367188 347.089844 L 778.753906 348.964844 L 780.140625 355.898438 L 781.523438 366.359375 L 782.910156 372.28125 L 784.296875 370.140625 L 785.683594 364.636719 L 787.066406 365.367188 L 788.453125 365.6875 L 789.839844 372.265625 L 791.222656 381.726562 L 792.609375 393.320312 L 793.996094 395.246094 L 795.378906 391.941406 L 796.765625 383.800781 L 798.152344 381.390625 L 799.535156 383.566406 L 800.921875 383.582031 L 802.308594 387.347656 L 803.691406 387.316406 L 805.078125 391.964844 L 806.464844 387.453125 L 807.847656 389.542969 L 809.234375 382.066406 L 810.621094 376.828125 L 812.003906 371.421875 L 813.390625 373.980469 L 814.777344 376.804688 L 816.160156 381.996094 L 817.546875 387 L 818.933594 388.835938 L 820.316406 394.53125 L 821.703125 393.789062 L 823.089844 397.339844 L 824.472656 405.117188 L 825.859375 416.921875 L 827.246094 422.078125 L 828.632812 421.039062 L 830.015625 424.097656 L 831.402344 424.054688 L 832.789062 428.761719 L 834.171875 439.699219 L 835.558594 432.785156 L 836.945312 431.226562 L 838.328125 427.238281 L 839.714844 426.316406 L 841.101562 431.886719 L 842.484375 433.277344 L 843.871094 435.527344 L 845.257812 437.472656 L 846.640625 442.933594 L 848.027344 442.800781 L 849.414062 438.613281 L 850.796875 440.730469 L 852.183594 438.523438 L 853.570312 444.375 L 854.953125 447.027344 L 856.339844 458 L 857.726562 463.195312 L 859.109375 464.578125 L 860.496094 466.753906 L 861.882812 464.757812 L 863.265625 462.117188 L 864.652344 463.949219 L 866.039062 466.65625 L 867.421875 459.984375 L 868.808594 460 L 870.195312 463.5 L 871.578125 460.3125 L 872.964844 461.628906 L 874.351562 465.484375 L 875.734375 463.371094 L 877.121094 459.445312 L 878.507812 463.042969 L 879.894531 470.480469 L 881.277344 483.769531 L 882.664062 483.054688 L 884.050781 486.859375 L 885.433594 488.550781 L 886.820312 489.566406 L 888.207031 490.570312 L 889.589844 489.996094 L 890.976562 491.03125 L 892.363281 494.132812 L 893.746094 495.847656 L 895.132812 500.90625 L 896.519531 504.605469 L 897.902344 507.28125 L 899.289062 508.351562 L 900.675781 516.613281 L 902.058594 530.84375 L 903.445312 533.089844 L 904.832031 527.828125 L 906.214844 521.347656 L 907.601562 515.03125 L 908.988281 503.578125 L 910.371094 504.261719 L 911.757812 499.613281 L 913.144531 501.394531 L 914.527344 501.601562 L 915.914062 505.429688 L 917.300781 501.886719 L 918.683594 497.589844 L 920.070312 492.117188 L 921.457031 490.824219 L 922.84375 493.066406 L 924.226562 492.386719 L 925.613281 500.082031 L 927 503.410156 L 928.382812 508.464844 L 929.769531 507.832031 L 931.15625 504.914062 L 932.539062 507.839844 L 933.925781 517.042969 L 935.3125 522.054688 L 936.695312 524.480469 L 938.082031 522.195312 L 939.46875 516.570312 L 940.851562 518.007812 L 942.238281 526.914062 L 943.625 529.398438 L 945.007812 526.71875 L 946.394531 523.746094 L 947.78125 523.972656 L 949.164062 524.308594 L 950.550781 519.757812 L 951.9375 517.785156 L 953.320312 512.976562 L 954.707031 516.03125 L 956.09375 522.820312 L 957.476562 520.847656 L 958.863281 515.742188 L 960.25 514.058594 L 961.632812 523.089844 L 963.019531 527.878906 L 964.40625 531.203125 L 965.789062 528.359375 L 967.175781 533.285156 L 968.5625 540.640625 L 969.945312 541.050781 L 971.332031 536.742188 L 972.71875 531.136719 L 974.105469 529.519531 L 975.488281 533.746094 L 976.875 532.972656 L 978.261719 527.609375 L 979.644531 517.523438 L 981.03125 522.824219 L 982.417969 520.957031 L 983.800781 526.109375 L 985.1875 520.503906 L 986.574219 518.527344 L 987.957031 514.808594 L 989.34375 514.984375 L 990.730469 516.804688 L 992.113281 526.941406 L 993.5 530.449219 L 994.886719 535.734375 L 996.269531 534.355469 L 997.65625 523.546875 L 999.042969 523.996094 L 1000.425781 526.007812 L 1001.8125 537.125 L 1003.199219 549.75 L 1004.582031 550.152344 L 1005.96875 547.863281 L 1007.355469 543.617188 L 1008.738281 540.089844 L 1010.125 540.5625 L 1011.511719 537.371094 L 1012.894531 546.015625 L 1014.28125 549.367188 L 1015.667969 550.488281 L 1017.050781 548.425781 L 1018.4375 554.105469 L 1019.824219 559.097656 L 1021.210938 555.683594 L 1022.59375 552.957031 L 1023.980469 546.503906 L 1025.367188 542.09375 L 1026.75 541.617188 L 1028.136719 537.402344 L 1029.523438 538.921875 L 1030.90625 533.761719 L 1032.292969 522.855469 L 1033.679688 516.132812 L 1035.0625 516.648438 L 1036.449219 520.078125 L 1037.835938 525.90625 L 1039.21875 518.863281 L 1040.605469 515.050781 L 1041.992188 516.808594 L 1043.375 518.105469 L 1044.761719 519.902344 L 1046.148438 520.460938 L 1047.53125 526.746094 L 1048.917969 533.835938 L 1050.304688 531.089844 L 1051.6875 529.660156 L 1053.074219 528 L 1054.460938 526.46875 L 1055.84375 532.070312 L 1057.230469 527.007812 L 1058.617188 523.351562 L 1060 526.511719 L 1061.386719 525.320312 L 1062.773438 526.800781 L 1064.15625 520.742188 L 1065.542969 514.757812 L 1066.929688 516.207031 L 1068.3125 515.265625 L 1069.699219 515.167969 L 1071.085938 509.25 L 1072.472656 512.878906 L 1073.855469 518.082031 L 1075.242188 517.671875 L 1076.628906 515.722656 L 1078.011719 517.496094 L 1079.398438 518.585938 L 1080.785156 525.019531 L 1082.167969 535.175781 L 1083.554688 536.160156 L 1084.941406 538.882812 L 1086.324219 535.277344 L 1087.710938 530.523438 L 1089.097656 533.140625 L 1090.480469 526.636719 L 1091.867188 527.53125 L 1093.253906 525.917969 L 1094.636719 522.066406 L 1096.023438 524.160156 L 1097.410156 521.152344 L 1098.792969 518.738281 L 1100.179688 514.933594 L 1101.566406 513.925781 L 1102.949219 515.9375 L 1104.335938 513.808594 L 1105.722656 512.070312 L 1107.105469 512.835938 L 1108.492188 514.109375 L 1109.878906 515.574219 L 1111.261719 514.410156 L 1112.648438 513.207031 L 1114.035156 513.300781 L 1115.421875 510.15625 L 1116.804688 512.53125 L 1118.191406 514.503906 L 1119.578125 506.777344 L 1120.960938 504.257812 L 1122.347656 508.03125 L 1123.734375 522.113281 L 1125.117188 514.929688 L 1126.503906 502.597656 L 1127.890625 499.507812 L 1129.273438 506.699219 L 1130.660156 510.554688 L 1132.046875 513.363281 "/>
<path fill="none" stroke-width="1" stroke-linecap="butt" stroke-linejoin="miter" stroke="rgb(0%, 0%, 0%)" stroke-opacity="1" stroke-miterlimit="1.154701" d="M 231.5 761.5 L 231.5 766.5 "/>
<path fill="none" stroke-width="1" stroke-linecap="butt" stroke-linejoin="miter" stroke="rgb(0%, 0%, 0%)" stroke-opacity="1" stroke-miterlimit="1.154701" d="M 439.316406 761.5 L 439.316406 766.5 "/>
<path fill="none" stroke-width="1" stroke-linecap="butt" stroke-linejoin="miter" stroke="rgb(0%, 0%, 0%)" stroke-opacity="1" stroke-miterlimit="1.154701" d="M 647.136719 761.5 L 647.136719 766.5 "/>
<path fill="none" stroke-width="1" stroke-linecap="butt" stroke-linejoin="miter" stroke="rgb(0%, 0%, 0%)" stroke-opacity="1" stroke-miterlimit="1.154701" d="M 854.953125 761.5 L 854.953125 766.5 "/>
<path fill="none" stroke-width="1" stroke-linecap="butt" stroke-linejoin="miter" stroke="rgb(0%, 0%, 0%)" stroke-opacity="1" stroke-miterlimit="1.154701" d="M 1062.773438 761.5 L 1062.773438 766.5 "/>
<path fill="none" stroke-width="1" stroke-linecap="butt" stroke-linejoin="miter" stroke="rgb(0%, 0%, 0%)" stroke-opacity="1" stroke-miterlimit="1.154701" d="M 40.5 666.636719 L 35.5 666.636719 "/>
<path fill="none" stroke-width="1" stroke-linecap="butt" stroke-linejoin="miter" stroke="rgb(0%, 0%, 0%)" stroke-opacity="1" stroke-miterlimit="1.154701" d="M 40.5 479.761719 L 35.5 479.761719 "/>
<path fill="none" stroke-width="1" stroke-linecap="butt" stroke-linejoin="miter" stroke="rgb(0%, 0%, 0%)" stroke-opacity="1" stroke-miterlimit="1.154701" d="M 40.5 292.886719 L 35.5 292.886719 "/>
<path fill="none" stroke-width="1" stroke-linecap="butt" stroke-linejoin="miter" stroke="rgb(0%, 0%, 0%)" stroke-opacity="1" stroke-miterlimit="1.154701" d="M 40.5 106.015625 L 35.5 106.015625 "/>
<path fill="none" stroke-width="1" stroke-linecap="butt" stroke-linejoin="miter" stroke="rgb(0%, 0%, 0%)" stroke-opacity="1" stroke-miterlimit="1.154701" d="M 40.5 761 L 1184.5 761 "/>
<path fill="none" stroke-width="1" stroke-linecap="butt" stroke-linejoin="miter" stroke="rgb(0%, 0%, 0%)" stroke-opacity="1" stroke-miterlimit="1.154701" d="M 41 761.5 L 41 15.5 "/>
<path fill="none" stroke-width="1" stroke-linecap="butt" stroke-linejoin="miter" stroke="rgb(0%, 0%, 0%)" stroke-opacity="1" stroke-miterlimit="1.154701" d="M 40.5 16 L 1184.5 16 "/>
<path fill="none" stroke-width="1" stroke-linecap="butt" stroke-linejoin="miter" stroke="rgb(0%, 0%, 0%)" stroke-opacity="1" stroke-miterlimit="1.154701" d="M 1184 761.5 L 1184 15.5 "/>
</svg>
