<?xml version="1.0" encoding="UTF-8"?>
<svg xmlns="http://www.w3.org/2000/svg" xmlns:xlink="http://www.w3.org/1999/xlink" width="1200" height="800" viewBox="0 0 1200 800">
<defs>
<g>
<g id="glyph-0-0-23e4fa79">
<path d="M 7.21875 -3.03125 C 7.21875 -3.03125 0.953125 -3.03125 0.953125 -3.03125 C 0.953125 -3.03125 0.953125 -3.96875 0.953125 -3.96875 C 0.953125 -3.96875 7.21875 -3.96875 7.21875 -3.96875 C 7.21875 -3.96875 7.21875 -3.03125 7.21875 -3.03125 Z M 7.21875 -3.03125 "/>
</g>
<g id="glyph-0-1-23e4fa79">
<path d="M 7.09375 -4.78125 C 7.09375 -1.515625 5.953125 0.203125 3.84375 0.203125 C 1.71875 0.203125 0.609375 -1.515625 0.609375 -4.859375 C 0.609375 -8.1875 1.703125 -9.921875 3.84375 -9.921875 C 6 -9.921875 7.09375 -8.21875 7.09375 -4.78125 Z M 5.84375 -4.890625 C 5.84375 -7.546875 5.1875 -8.828125 3.84375 -8.828125 C 2.515625 -8.828125 1.859375 -7.5625 1.859375 -4.84375 C 1.859375 -2.125 2.515625 -0.8125 3.828125 -0.8125 C 5.1875 -0.8125 5.84375 -2.078125 5.84375 -4.890625 Z M 5.84375 -4.890625 "/>
</g>
<g id="glyph-0-2-23e4fa79">
<path d="M 2.671875 0 C 2.671875 0 1.21875 0 1.21875 0 C 1.21875 0 1.21875 -1.453125 1.21875 -1.453125 C 1.21875 -1.453125 2.671875 -1.453125 2.671875 -1.453125 C 2.671875 -1.453125 2.671875 0 2.671875 0 Z M 2.671875 0 "/>
</g>
<g id="glyph-0-3-23e4fa79">
<path d="M 7.078125 -2.890625 C 7.078125 -1.015625 5.765625 0.203125 3.71875 0.203125 C 1.6875 0.203125 0.609375 -0.78125 0.453125 -3 C 0.453125 -3 1.6875 -3 1.6875 -3 C 1.765625 -1.546875 2.421875 -0.875 3.765625 -0.875 C 5.046875 -0.875 5.828125 -1.625 5.828125 -2.875 C 5.828125 -3.96875 5.125 -4.625 3.765625 -4.625 C 3.765625 -4.625 3.09375 -4.625 3.09375 -4.625 C 3.09375 -4.625 3.09375 -5.65625 3.09375 -5.65625 C 5.0625 -5.65625 5.53125 -6.09375 5.53125 -7.15625 C 5.53125 -8.203125 4.875 -8.84375 3.78125 -8.84375 C 2.515625 -8.84375 1.921875 -8.1875 1.890625 -6.71875 C 1.890625 -6.71875 0.65625 -6.71875 0.65625 -6.71875 C 0.703125 -8.828125 1.765625 -9.921875 3.765625 -9.921875 C 5.65625 -9.921875 6.796875 -8.90625 6.796875 -7.203125 C 6.796875 -6.203125 6.328125 -5.5625 5.40625 -5.1875 C 6.59375 -4.78125 7.078125 -4.09375 7.078125 -2.890625 Z M 7.078125 -2.890625 "/>
</g>
<g id="glyph-0-4-23e4fa79">
<path d="M 7.1875 -3.078125 C 7.1875 -1.140625 5.828125 0.203125 3.9375 0.203125 C 1.671875 0.203125 0.609375 -1.421875 0.609375 -4.515625 C 0.609375 -7.984375 1.84375 -9.921875 4.15625 -9.921875 C 5.671875 -9.921875 6.734375 -8.953125 6.96875 -7.34375 C 6.96875 -7.34375 5.734375 -7.34375 5.734375 -7.34375 C 5.546875 -8.28125 4.9375 -8.828125 4.078125 -8.828125 C 2.65625 -8.828125 1.875 -7.484375 1.859375 -5.0625 C 2.390625 -5.796875 3.15625 -6.171875 4.140625 -6.171875 C 5.921875 -6.171875 7.1875 -4.921875 7.1875 -3.078125 Z M 5.921875 -2.984375 C 5.921875 -4.3125 5.1875 -5.078125 3.984375 -5.078125 C 2.765625 -5.078125 1.9375 -4.28125 1.9375 -3.046875 C 1.9375 -1.78125 2.796875 -0.875 3.953125 -0.875 C 5.078125 -0.875 5.921875 -1.734375 5.921875 -2.984375 Z M 5.921875 -2.984375 "/>
</g>
<g id="glyph-0-5-23e4fa79">
<path d="M 7.125 -5.1875 C 7.125 -1.765625 5.875 0.203125 3.5625 0.203125 C 2.046875 0.203125 0.984375 -0.75 0.734375 -2.375 C 0.734375 -2.375 1.96875 -2.375 1.96875 -2.375 C 2.171875 -1.421875 2.765625 -0.875 3.640625 -0.875 C 5.046875 -0.875 5.84375 -2.21875 5.859375 -4.640625 C 5.203125 -3.875 4.515625 -3.546875 3.578125 -3.546875 C 1.796875 -3.546875 0.53125 -4.78125 0.53125 -6.640625 C 0.53125 -8.578125 1.890625 -9.921875 3.78125 -9.921875 C 6.046875 -9.921875 7.125 -8.296875 7.125 -5.1875 Z M 5.78125 -6.65625 C 5.78125 -7.953125 4.90625 -8.84375 3.765625 -8.84375 C 2.625 -8.84375 1.796875 -8 1.796875 -6.734375 C 1.796875 -5.40625 2.53125 -4.640625 3.71875 -4.640625 C 4.921875 -4.640625 5.78125 -5.453125 5.78125 -6.65625 Z M 5.78125 -6.65625 "/>
</g>
<g id="glyph-0-6-23e4fa79">
<path d="M 4.859375 0 C 4.859375 0 3.625 0 3.625 0 C 3.625 0 3.625 -7.0625 3.625 -7.0625 C 3.625 -7.0625 1.421875 -7.0625 1.421875 -7.0625 C 1.421875 -7.0625 1.421875 -7.953125 1.421875 -7.953125 C 3.328125 -8.1875 3.609375 -8.40625 4.046875 -9.921875 C 4.046875 -9.921875 4.859375 -9.921875 4.859375 -9.921875 C 4.859375 -9.921875 4.859375 0 4.859375 0 Z M 4.859375 0 "/>
</g>
<g id="glyph-1-0-23e4fa79">
<path d="M 7.09375 -4.78125 C 7.09375 -1.515625 5.953125 0.203125 3.84375 0.203125 C 1.71875 0.203125 0.609375 -1.515625 0.609375 -4.859375 C 0.609375 -8.1875 1.703125 -9.921875 3.84375 -9.921875 C 6 -9.921875 7.09375 -8.21875 7.09375 -4.78125 Z M 5.84375 -4.890625 C 5.84375 -7.546875 5.1875 -8.828125 3.84375 -8.828125 C 2.515625 -8.828125 1.859375 -7.5625 1.859375 -4.84375 C 1.859375 -2.125 2.515625 -0.8125 3.828125 -0.8125 C 5.1875 -0.8125 5.84375 -2.078125 5.84375 -4.890625 Z M 5.84375 -4.890625 "/>
</g>
<g id="glyph-1-1-23e4fa79">
<path d="M 4.859375 0 C 4.859375 0 3.625 0 3.625 0 C 3.625 0 3.625 -7.0625 3.625 -7.0625 C 3.625 -7.0625 1.421875 -7.0625 1.421875 -7.0625 C 1.421875 -7.0625 1.421875 -7.953125 1.421875 -7.953125 C 3.328125 -8.1875 3.609375 -8.40625 4.046875 -9.921875 C 4.046875 -9.921875 4.859375 -9.921875 4.859375 -9.921875 C 4.859375 -9.921875 4.859375 0 4.859375 0 Z M 4.859375 0 "/>
</g>
<g id="glyph-2-0-23e4fa79">
<path d="M 7.15625 -7.015625 C 7.15625 -5.796875 6.4375 -4.765625 5.046875 -4.015625 C 5.046875 -4.015625 3.65625 -3.265625 3.65625 -3.265625 C 2.4375 -2.546875 1.984375 -2.03125 1.859375 -1.21875 C 1.859375 -1.21875 7.078125 -1.21875 7.078125 -1.21875 C 7.078125 -1.21875 7.078125 0 7.078125 0 C 7.078125 0 0.46875 0 0.46875 0 C 0.59375 -2.1875 1.1875 -3.125 3.265625 -4.296875 C 3.265625 -4.296875 4.546875 -5.03125 4.546875 -5.03125 C 5.4375 -5.53125 5.890625 -6.203125 5.890625 -6.984375 C 5.890625 -8.046875 5.046875 -8.84375 3.9375 -8.84375 C 2.71875 -8.84375 2.03125 -8.140625 1.9375 -6.484375 C 1.9375 -6.484375 0.703125 -6.484375 0.703125 -6.484375 C 0.765625 -8.890625 1.953125 -9.921875 3.96875 -9.921875 C 5.859375 -9.921875 7.15625 -8.6875 7.15625 -7.015625 Z M 7.15625 -7.015625 "/>
</g>
</g>
</defs>
<rect x="-120" y="-80" width="1440" height="960" fill="rgb(100%, 100%, 100%)" fill-opacity="1"/>
<path fill-rule="nonzero" fill="rgb(100%, 100%, 100%)" fill-opacity="1" d="M 41 761 L 1184 761 L 1184 16 L 41 16 Z M 41 761 "/>
<path fill="none" stroke-width="1" stroke-linecap="butt" stroke-linejoin="miter" stroke="rgb(0%, 0%, 0%)" stroke-opacity="0.12" stroke-miterlimit="1.154701" d="M 231.5 761 L 231.5 16 "/>
<path fill="none" stroke-width="1" stroke-linecap="butt" stroke-linejoin="miter" stroke="rgb(0%, 0%, 0%)" stroke-opacity="0.12" stroke-miterlimit="1.154701" d="M 439.316406 761 L 439.316406 16 "/>
<path fill="none" stroke-width="1" stroke-linecap="butt" stroke-linejoin="miter" stroke="rgb(0%, 0%, 0%)" stroke-opacity="0.12" stroke-miterlimit="1.154701" d="M 647.136719 761 L 647.136719 16 "/>
<path fill="none" stroke-width="1" stroke-linecap="butt" stroke-linejoin="miter" stroke="rgb(0%, 0%, 0%)" stroke-opacity="0.12" stroke-miterlimit="1.154701" d="M 854.953125 761 L 854.953125 16 "/>
<path fill="none" stroke-width="1" stroke-linecap="butt" stroke-linejoin="miter" stroke="rgb(0%, 0%, 0%)" stroke-opacity="0.12" stroke-miterlimit="1.154701" d="M 1062.773438 761 L 1062.773438 16 "/>
<path fill="none" stroke-width="1" stroke-linecap="butt" stroke-linejoin="miter" stroke="rgb(0%, 0%, 0%)" stroke-opacity="0.12" stroke-miterlimit="1.154701" d="M 41 731.066406 L 1184 731.066406 "/>
<path fill="none" stroke-width="1" stroke-linecap="butt" stroke-linejoin="miter" stroke="rgb(0%, 0%, 0%)" stroke-opacity="0.12" stroke-miterlimit="1.154701" d="M 41 525.09375 L 1184 525.09375 "/>
<path fill="none" stroke-width="1" stroke-linecap="butt" stroke-linejoin="miter" stroke="rgb(0%, 0%, 0%)" stroke-opacity="0.12" stroke-miterlimit="1.154701" d="M 41 319.121094 L 1184 319.121094 "/>
<path fill="none" stroke-width="1" stroke-linecap="butt" stroke-linejoin="miter" stroke="rgb(0%, 0%, 0%)" stroke-opacity="0.12" stroke-miterlimit="1.154701" d="M 41 113.148438 L 1184 113.148438 "/>
<g fill="rgb(0%, 0%, 0%)" fill-opacity="1">
<use xlink:href="#glyph-0-0-23e4fa79" x="217.682005" y="782.258001"/>
</g>
<g fill="rgb(0%, 0%, 0%)" fill-opacity="1">
<use xlink:href="#glyph-0-1-23e4fa79" x="225.858005" y="782.258001"/>
</g>
<g fill="rgb(0%, 0%, 0%)" fill-opacity="1">
<use xlink:href="#glyph-0-2-23e4fa79" x="233.642005" y="782.258001"/>
</g>
<g fill="rgb(0%, 0%, 0%)" fill-opacity="1">
<use xlink:href="#glyph-0-3-23e4fa79" x="237.534005" y="782.258001"/>
</g>
<g fill="rgb(0%, 0%, 0%)" fill-opacity="1">
<use xlink:href="#glyph-0-1-23e4fa79" x="429.588187" y="782.258001"/>
</g>
<g fill="rgb(0%, 0%, 0%)" fill-opacity="1">
<use xlink:href="#glyph-0-2-23e4fa79" x="437.372187" y="782.258001"/>
</g>
<g fill="rgb(0%, 0%, 0%)" fill-opacity="1">
<use xlink:href="#glyph-0-1-23e4fa79" x="441.264187" y="782.258001"/>
</g>
<g fill="rgb(0%, 0%, 0%)" fill-opacity="1">
<use xlink:href="#glyph-0-1-23e4fa79" x="637.406368" y="782.258001"/>
</g>
<g fill="rgb(0%, 0%, 0%)" fill-opacity="1">
<use xlink:href="#glyph-0-2-23e4fa79" x="645.190369" y="782.258001"/>
</g>
<g fill="rgb(0%, 0%, 0%)" fill-opacity="1">
<use xlink:href="#glyph-0-3-23e4fa79" x="649.082368" y="782.258001"/>
</g>
<g fill="rgb(0%, 0%, 0%)" fill-opacity="1">
<use xlink:href="#glyph-0-1-23e4fa79" x="845.22455" y="782.258001"/>
</g>
<g fill="rgb(0%, 0%, 0%)" fill-opacity="1">
<use xlink:href="#glyph-0-2-23e4fa79" x="853.00855" y="782.258001"/>
</g>
<g fill="rgb(0%, 0%, 0%)" fill-opacity="1">
<use xlink:href="#glyph-0-4-23e4fa79" x="856.90055" y="782.258001"/>
</g>
<g fill="rgb(0%, 0%, 0%)" fill-opacity="1">
<use xlink:href="#glyph-0-1-23e4fa79" x="1053.042731" y="782.258001"/>
</g>
<g fill="rgb(0%, 0%, 0%)" fill-opacity="1">
<use xlink:href="#glyph-0-2-23e4fa79" x="1060.826731" y="782.258001"/>
</g>
<g fill="rgb(0%, 0%, 0%)" fill-opacity="1">
<use xlink:href="#glyph-0-5-23e4fa79" x="1064.718731" y="782.258001"/>
</g>
<g fill="rgb(0%, 0%, 0%)" fill-opacity="1">
<use xlink:href="#glyph-0-0-23e4fa79" x="15.040001" y="736.167638"/>
</g>
<g fill="rgb(0%, 0%, 0%)" fill-opacity="1">
<use xlink:href="#glyph-0-6-23e4fa79" x="23.216001" y="736.167638"/>
</g>
<g fill="rgb(0%, 0%, 0%)" fill-opacity="1">
<use xlink:href="#glyph-1-0-23e4fa79" x="23.216001" y="530.195841"/>
</g>
<g fill="rgb(0%, 0%, 0%)" fill-opacity="1">
<use xlink:href="#glyph-1-1-23e4fa79" x="23.216001" y="324.224013"/>
</g>
<g fill="rgb(0%, 0%, 0%)" fill-opacity="1">
<use xlink:href="#glyph-2-0-23e4fa79" x="23.216001" y="118.252185"/>
</g>
<path fill="none" stroke-width="3" stroke-linecap="butt" stroke-linejoin="miter" stroke="rgb(0%, 44.705883%, 69.803923%)" stroke-opacity="1" stroke-miterlimit="2" d="M 92.953125 616.289062 L 94.339844 608.757812 L 95.726562 614.679688 L 97.109375 614.214844 L 98.496094 615.597656 L 99.882812 619.214844 L 101.265625 624.59375 L 102.652344 629.507812 L 104.039062 629.304688 L 105.421875 635.203125 L 106.808594 631.019531 L 108.195312 622.265625 L 109.578125 618.1875 L 110.964844 619.648438 L 112.351562 620.019531 L 113.738281 622.507812 L 115.121094 623.5 L 116.507812 622.011719 L 117.894531 609.765625 L 119.277344 611.675781 L 120.664062 607.972656 L 122.050781 602.191406 L 123.433594 601.355469 L 124.820312 604.460938 L 126.207031 613 L 127.589844 614.195312 L 128.976562 615.839844 L 130.363281 609.855469 L 131.746094 613.019531 L 133.132812 618.414062 L 134.519531 624.105469 L 135.902344 617.242188 L 137.289062 624.261719 L 138.675781 623.023438 L 140.058594 619.941406 L 141.445312 610.175781 L 142.832031 608.082031 L 144.214844 613.113281 L 145.601562 613.003906 L 146.988281 605.347656 L 148.371094 591.445312 L 149.757812 580.984375 L 151.144531 593.574219 L 152.527344 605.914062 L 153.914062 600.585938 L 155.300781 598.941406 L 156.683594 601.546875 L 158.070312 599.648438 L 159.457031 604.496094 L 160.84375 603.257812 L 162.226562 603.363281 L 163.613281 597.332031 L 165 609.519531 L 166.382812 603.488281 L 167.769531 605.871094 L 169.15625 602.457031 L 170.539062 601.5 L 171.925781 602.222656 L 173.3125 598.742188 L 174.695312 596.855469 L 176.082031 596.238281 L 177.46875 588.347656 L 178.851562 578.363281 L 180.238281 571.625 L 181.625 572.683594 L 183.007812 573.367188 L 184.394531 581.515625 L 185.78125 582.972656 L 187.164062 586.699219 L 188.550781 575.703125 L 189.9375 576.820312 L 191.320312 577.84375 L 192.707031 579.304688 L 194.09375 590.644531 L 195.476562 592.226562 L 196.863281 585.941406 L 198.25 587.726562 L 199.632812 587.089844 L 201.019531 590.707031 L 202.40625 596.238281 L 203.789062 598.296875 L 205.175781 598.636719 L 206.5625 597.484375 L 207.949219 592.855469 L 209.332031 592.023438 L 210.71875 594.425781 L 212.105469 594.527344 L 213.488281 596.96875 L 214.875 590.152344 L 216.261719 591.222656 L 217.644531 595.53125 L 219.03125 602.648438 L 220.417969 605.3125 L 221.800781 617.355469 L 223.1875 619.011719 L 224.574219 614.246094 L 225.957031 609.722656 L 227.34375 606 L 228.730469 616.308594 L 230.113281 613.234375 L 231.5 615.46875 L 232.886719 612.585938 L 234.269531 610.121094 L 235.65625 612.390625 L 237.042969 612.171875 L 238.425781 605.96875 L 239.8125 605.949219 L 241.199219 597.421875 L 242.582031 598.578125 L 243.96875 612.878906 L 245.355469 617.132812 L 246.738281 621.019531 L 248.125 614.976562 L 249.511719 614.683594 L 250.894531 609.886719 L 252.28125 610.429688 L 253.667969 612.867188 L 255.054688 612.375 L 256.4375 614.28125 L 257.824219 610.511719 L 259.210938 616.933594 L 260.59375 612.101562 L 261.980469 617.851562 L 263.367188 614.960938 L 264.75 610.726562 L 266.136719 606.480469 L 267.523438 614.6875 L 268.90625 616.28125 L 270.292969 604.535156 L 271.679688 591.472656 L 273.0625 588.414062 L 274.449219 592.722656 L 275.835938 600.246094 L 277.21875 605.210938 L 278.605469 608.085938 L 279.992188 613.382812 L 281.375 608.484375 L 282.761719 611.480469 L 284.148438 613.707031 L 285.53125 619.917969 L 286.917969 628.699219 L 288.304688 628.773438 L 289.6875 630.914062 L 291.074219 627.195312 L 292.460938 626.277344 L 293.84375 618.84375 L 295.230469 614.859375 L 296.617188 616.710938 L 298 614 L 299.386719 616.285156 L 300.773438 618.007812 L 302.15625 617.113281 L 303.542969 621.324219 L 304.929688 622.929688 L 306.316406 611.867188 L 307.699219 617.886719 L 309.085938 619.742188 L 310.472656 617.003906 L 311.855469 615.875 L 313.242188 615.550781 L 314.628906 613.046875 L 316.011719 617.9375 L 317.398438 619.867188 L 318.785156 624.214844 L 320.167969 627.910156 L 321.554688 631.878906 L 322.941406 637.507812 L 324.324219 650.460938 L 325.710938 649.894531 L 327.097656 639.609375 L 328.480469 641.253906 L 329.867188 649.570312 L 331.253906 645.730469 L 332.636719 650.597656 L 334.023438 644.601562 L 335.410156 644.941406 L 336.792969 633.097656 L 338.179688 624.519531 L 339.566406 619.53125 L 340.949219 618.523438 L 342.335938 624.625 L 343.722656 625.121094 L 345.105469 628.796875 L 346.492188 632.449219 L 347.878906 629.722656 L 349.261719 631.898438 L 350.648438 634.402344 L 352.035156 640.546875 L 353.421875 650.6875 L 354.804688 659.730469 L 356.191406 660.277344 L 357.578125 656.75 L 358.960938 665.9375 L 360.347656 675.421875 L 361.734375 689.40625 L 363.117188 699.1875 L 364.503906 695.859375 L 365.890625 698.882812 L 367.273438 695.527344 L 368.660156 692.617188 L 370.046875 696.03125 L 371.429688 695.492188 L 372.816406 697.96875 L 374.203125 701.015625 L 375.585938 701.929688 L 376.972656 688.96875 L 378.359375 684.042969 L 379.742188 686.613281 L 381.128906 689.640625 L 382.515625 691.6875 L 383.898438 694.039062 L 385.285156 688.542969 L 386.671875 689.078125 L 388.054688 689.691406 L 389.441406 689.601562 L 390.828125 699.972656 L 392.210938 707.820312 L 393.597656 707.324219 L 394.984375 694.601562 L 396.367188 685.738281 L 397.753906 685.707031 L 399.140625 692.210938 L 400.527344 697.976562 L 401.910156 696.042969 L 403.296875 684.886719 L 404.683594 681.714844 L 406.066406 688.316406 L 407.453125 695.976562 L 408.839844 697.957031 L 410.222656 700.074219 L 411.609375 703.761719 L 412.996094 700.804688 L 414.378906 687.125 L 415.765625 684.363281 L 417.152344 683.890625 L 418.535156 685.070312 L 419.921875 695.246094 L 421.308594 692.402344 L 422.691406 690.242188 L 424.078125 685.550781 L 425.464844 681.285156 L 426.847656 680.3125 L 428.234375 676.585938 L 429.621094 679.246094 L 431.003906 685.3125 L 432.390625 680.238281 L 433.777344 678.859375 L 435.160156 675.617188 L 436.546875 658.90625 L 437.933594 642.523438 L 439.316406 629.574219 L 440.703125 631.039062 L 442.089844 631.597656 L 443.472656 631.46875 L 444.859375 633.011719 L 446.246094 644.457031 L 447.632812 644.929688 L 449.015625 648 L 450.402344 670.179688 L 451.789062 683.363281 L 453.171875 680.496094 L 454.558594 677.132812 L 455.945312 667.222656 L 457.328125 667.070312 L 458.714844 665.609375 L 460.101562 664.023438 L 461.484375 663.664062 L 462.871094 669.867188 L 464.257812 670.539062 L 465.640625 661.585938 L 467.027344 669.515625 L 468.414062 670.777344 L 469.796875 674.039062 L 471.183594 667.246094 L 472.570312 664.230469 L 473.953125 660.347656 L 475.339844 649.628906 L 476.726562 634.886719 L 478.109375 628.039062 L 479.496094 621.226562 L 480.882812 619.945312 L 482.265625 616.964844 L 483.652344 616.457031 L 485.039062 619.863281 L 486.421875 624.972656 L 487.808594 631.273438 L 489.195312 640.503906 L 490.578125 644.363281 L 491.964844 650 L 493.351562 644.324219 L 494.738281 629.5 L 496.121094 619.8125 L 497.507812 619.417969 L 498.894531 605.328125 L 500.277344 592.121094 L 501.664062 594.671875 L 503.050781 590.65625 L 504.433594 582.148438 L 505.820312 573.710938 L 507.207031 557.953125 L 508.589844 552.820312 L 509.976562 545.5 L 511.363281 531.273438 L 512.746094 523.820312 L 514.132812 508.375 L 515.519531 495.121094 L 516.902344 490.53125 L 518.289062 483.300781 L 519.675781 473.753906 L 521.058594 470.976562 L 522.445312 462.359375 L 523.832031 451.929688 L 525.214844 443.542969 L 526.601562 435.40625 L 527.988281 425.789062 L 529.371094 420.546875 L 530.757812 403.269531 L 532.144531 392.519531 L 533.527344 380.976562 L 534.914062 374.636719 L 536.300781 371.246094 L 537.683594 357.03125 L 539.070312 356.296875 L 540.457031 359.226562 L 541.84375 356.246094 L 543.226562 346.449219 L 544.613281 342.328125 L 546 343.308594 L 547.382812 344.113281 L 548.769531 346.78125 L 550.15625 345.472656 L 551.539062 337.316406 L 552.925781 319.433594 L 554.3125 299.34375 L 555.695312 284.328125 L 557.082031 266.625 L 558.46875 251.042969 L 559.851562 233.28125 L 561.238281 225.292969 L 562.625 209.121094 L 564.007812 191.695312 L 565.394531 178.546875 L 566.78125 163.15625 L 568.164062 147.050781 L 569.550781 140.582031 L 570.9375 126.964844 L 572.320312 115.382812 L 573.707031 104.796875 L 575.09375 98.035156 L 576.476562 94.785156 L 577.863281 83.546875 L 579.25 83.308594 L 580.632812 79.089844 L 582.019531 80.804688 L 583.40625 79.378906 L 584.789062 74.886719 L 586.175781 74.523438 L 587.5625 73.175781 L 588.945312 82.652344 L 590.332031 77.894531 L 591.71875 75.933594 L 593.105469 73.03125 L 594.488281 64.683594 L 595.875 68.382812 L 597.261719 72.601562 L 598.644531 73.085938 L 600.03125 73.890625 L 601.417969 77.046875 L 602.800781 83.804688 L 604.1875 90.960938 L 605.574219 85.753906 L 606.957031 95.199219 L 608.34375 103.78125 L 609.730469 110.355469 L 611.113281 110.289062 L 612.5 113.710938 L 613.886719 114.671875 L 615.269531 112.117188 L 616.65625 113.136719 L 618.042969 117.136719 L 619.425781 126.90625 L 620.8125 124.699219 L 622.199219 125.769531 L 623.582031 132.476562 L 624.96875 142.046875 L 626.355469 150.171875 L 627.738281 162.027344 L 629.125 172.613281 L 630.511719 178.316406 L 631.894531 186.554688 L 633.28125 189.765625 L 634.667969 202.550781 L 636.054688 207.207031 L 637.4375 217.730469 L 638.824219 221.761719 L 640.210938 225.605469 L 641.59375 225.648438 L 642.980469 229.953125 L 644.367188 229.792969 L 645.75 228.367188 L 647.136719 221.097656 L 648.523438 218.289062 L 649.90625 217.109375 L 651.292969 221.605469 L 652.679688 223.082031 L 654.0625 224.75 L 655.449219 228.5625 L 656.835938 232.34375 L 658.21875 247.675781 L 659.605469 247.824219 L 660.992188 253.117188 L 662.375 250.976562 L 663.761719 254.25 L 665.148438 265.226562 L 666.53125 266.230469 L 667.917969 268.820312 L 669.304688 268.847656 L 670.6875 275.828125 L 672.074219 284.386719 L 673.460938 283.296875 L 674.84375 280.285156 L 676.230469 279.21875 L 677.617188 278.503906 L 679 270.859375 L 680.386719 269.621094 L 681.773438 272.039062 L 683.15625 278.285156 L 684.542969 279.59375 L 685.929688 283.265625 L 687.316406 275.417969 L 688.699219 280.433594 L 690.085938 283.917969 L 691.472656 294.089844 L 692.855469 299.394531 L 694.242188 296.738281 L 695.628906 295.824219 L 697.011719 303.605469 L 698.398438 316.800781 L 699.785156 321.941406 L 701.167969 317.425781 L 702.554688 318.429688 L 703.941406 313.65625 L 705.324219 308.933594 L 706.710938 318.855469 L 708.097656 321.90625 L 709.480469 328.257812 L 710.867188 328.832031 L 712.253906 330.023438 L 713.636719 334.4375 L 715.023438 341.925781 L 716.410156 336.359375 L 717.792969 332.949219 L 719.179688 320.351562 L 720.566406 317.515625 L 721.949219 314.585938 L 723.335938 310.308594 L 724.722656 324.394531 L 726.105469 327.6875 L 727.492188 329.558594 L 728.878906 320.03125 L 730.261719 320.570312 L 731.648438 311.246094 L 733.035156 306.234375 L 734.421875 307.308594 L 735.804688 317.03125 L 737.191406 317.285156 L 738.578125 323.632812 L 739.960938 326.390625 L 741.347656 323.476562 L 742.734375 322.921875 L 744.117188 327.460938 L 745.503906 330.613281 L 746.890625 335.375 L 748.273438 337.921875 L 749.660156 342.816406 L 751.046875 350.050781 L 752.429688 346.25 L 753.816406 347.5 L 755.203125 341.453125 L 756.585938 337.261719 L 757.972656 338.074219 L 759.359375 341.480469 L 760.742188 341.917969 L 762.128906 339.644531 L 763.515625 332.21875 L 764.898438 334.558594 L 766.285156 331.3125 L 767.671875 331.570312 L 769.054688 328.792969 L 770.441406 327.898438 L 771.828125 324.738281 L 773.210938 320.320312 L 774.597656 322.871094 L 775.984375 330.597656 L 777.367188 337.515625 L 778.753906 340.269531 L 780.140625 345.425781 L 781.523438 344.46875 L 782.910156 347.449219 L 784.296875 355.511719 L 785.683594 363.636719 L 787.066406 356.839844 L 788.453125 355.992188 L 789.839844 356.355469 L 791.222656 366.160156 L 792.609375 368.648438 L 793.996094 368.257812 L 795.378906 375.410156 L 796.765625 383.472656 L 798.152344 378.898438 L 799.535156 378.1875 L 800.921875 381.699219 L 802.308594 376.382812 L 803.691406 383.070312 L 805.078125 392.953125 L 806.464844 391.792969 L 807.847656 393.308594 L 809.234375 394.28125 L 810.621094 396.824219 L 812.003906 396.699219 L 813.390625 396.28125 L 814.777344 396.875 L 816.160156 402.597656 L 817.546875 414.246094 L 818.933594 426.601562 L 820.316406 422.960938 L 821.703125 426.730469 L 823.089844 421.804688 L 824.472656 423.972656 L 825.859375 439.972656 L 827.246094 444.996094 L 828.632812 446.042969 L 830.015625 447.488281 L 831.402344 448.195312 L 832.789062 451.648438 L 834.171875 451.878906 L 835.558594 449.222656 L 836.945312 433.457031 L 838.328125 433.339844 L 839.714844 436.980469 L 841.101562 442.511719 L 842.484375 442.484375 L 843.871094 445.5625 L 845.257812 447.625 L 846.640625 451.539062 L 848.027344 456.519531 L 849.414062 460.601562 L 850.796875 470.699219 L 852.183594 473.867188 L 853.570312 476.492188 L 854.953125 471.835938 L 856.339844 466.265625 L 857.726562 472.15625 L 859.109375 478.632812 L 860.496094 483.03125 L 861.882812 485.710938 L 863.265625 487.460938 L 864.652344 489.980469 L 866.039062 488.578125 L 867.421875 489.097656 L 868.808594 485.894531 L 870.195312 484.839844 L 871.578125 482.167969 L 872.964844 489.117188 L 874.351562 493.007812 L 875.734375 496.914062 L 877.121094 507.675781 L 878.507812 509.335938 L 879.894531 506.738281 L 881.277344 503.429688 L 882.664062 503.011719 L 884.050781 502.035156 L 885.433594 501.5 L 886.820312 501.671875 L 888.207031 500.128906 L 889.589844 509.863281 L 890.976562 513.828125 L 892.363281 518.683594 L 893.746094 521.386719 L 895.132812 511.160156 L 896.519531 509.957031 L 897.902344 513.394531 L 899.289062 512.105469 L 900.675781 516.308594 L 902.058594 519.429688 L 903.445312 528.933594 L 904.832031 525.757812 L 906.214844 526.105469 L 907.601562 525.886719 L 908.988281 525.0625 L 910.371094 531.050781 L 911.757812 531.902344 L 913.144531 534.691406 L 914.527344 537.957031 L 915.914062 526.621094 L 917.300781 528.992188 L 918.683594 531.066406 L 920.070312 543.140625 L 921.457031 542.648438 L 922.84375 545.660156 L 924.226562 549.5 L 925.613281 551.199219 L 927 551.679688 L 928.382812 557.300781 L 929.769531 560.507812 L 931.15625 561.804688 L 932.539062 555.15625 L 933.925781 548.433594 L 935.3125 550.320312 L 936.695312 552.039062 L 938.082031 545.8125 L 939.46875 541.210938 L 940.851562 536.757812 L 942.238281 534.242188 L 943.625 531.664062 L 945.007812 535.3125 L 946.394531 533.132812 L 947.78125 536.144531 L 949.164062 534.386719 L 950.550781 537.769531 L 951.9375 533.699219 L 953.320312 525.46875 L 954.707031 526.21875 L 956.09375 531.195312 L 957.476562 538.839844 L 958.863281 540.769531 L 960.25 547.554688 L 961.632812 562.332031 L 963.019531 565.425781 L 964.40625 559.007812 L 965.789062 554.625 L 967.175781 550.855469 L 968.5625 552.707031 L 969.945312 561.5625 L 971.332031 567.617188 L 972.71875 569.066406 L 974.105469 569.164062 L 975.488281 569.628906 L 976.875 561.441406 L 978.261719 560.386719 L 979.644531 557.945312 L 981.03125 558.003906 L 982.417969 556.941406 L 983.800781 555.613281 L 985.1875 560.023438 L 986.574219 559.960938 L 987.957031 560.269531 L 989.34375 571.199219 L 990.730469 573.515625 L 992.113281 579.28125 L 993.5 576.527344 L 994.886719 580.0625 L 996.269531 575.210938 L 997.65625 585.085938 L 999.042969 593.386719 L 1000.425781 593.746094 L 1001.8125 590.542969 L 1003.199219 584.222656 L 1004.582031 578.414062 L 1005.96875 584.746094 L 1007.355469 593.605469 L 1008.738281 587.613281 L 1010.125 585.9375 L 1011.511719 572.449219 L 1012.894531 571.238281 L 1014.28125 570.179688 L 1015.667969 580.28125 L 1017.050781 586.765625 L 1018.4375 581.191406 L 1019.824219 583.417969 L 1021.210938 577.632812 L 1022.59375 580.597656 L 1023.980469 585.667969 L 1025.367188 579.597656 L 1026.75 579.773438 L 1028.136719 578.335938 L 1029.523438 570.128906 L 1030.90625 572.753906 L 1032.292969 583.734375 L 1033.679688 581.535156 L 1035.0625 579.320312 L 1036.449219 581.335938 L 1037.835938 591.171875 L 1039.21875 599.4375 L 1040.605469 597.914062 L 1041.992188 592.3125 L 1043.375 590.730469 L 1044.761719 596.933594 L 1046.148438 605.449219 L 1047.53125 603.757812 L 1048.917969 604.09375 L 1050.304688 606.792969 L 1051.6875 601.335938 L 1053.074219 603.570312 L 1054.460938 603.570312 L 1055.84375 605.109375 L 1057.230469 606.339844 L 1058.617188 602.820312 L 1060 600.421875 L 1061.386719 596.808594 L 1062.773438 596.113281 L 1064.15625 601.496094 L 1065.542969 602.945312 L 1066.929688 605.929688 L 1068.3125 602.984375 L 1069.699219 604.839844 L 1071.085938 605.660156 L 1072.472656 611.617188 L 1073.855469 616.042969 L 1075.242188 616.421875 L 1076.628906 614.796875 L 1078.011719 615.597656 L 1079.398438 616.792969 L 1080.785156 613.953125 L 1082.167969 613.734375 L 1083.554688 617.019531 L 1084.941406 612.421875 L 1086.324219 604.320312 L 1087.710938 595.949219 L 1089.097656 596.765625 L 1090.480469 591.363281 L 1091.867188 592.28125 L 1093.253906 593.421875 L 1094.636719 596.867188 L 1096.023438 603.601562 L 1097.410156 595.535156 L 1098.792969 593.835938 L 1100.179688 596.355469 L 1101.566406 601.597656 L 1102.949219 603.226562 L 1104.335938 610.148438 L 1105.722656 603.882812 L 1107.105469 609.132812 L 1108.492188 615.574219 L 1109.878906 614.117188 L 1111.261719 615.691406 L 1112.648438 609.414062 L 1114.035156 605.03125 L 1115.421875 617.761719 L 1116.804688 627.285156 L 1118.191406 625.28125 L 1119.578125 623.070312 L 1120.960938 614.957031 L 1122.347656 607.65625 L 1123.734375 609.570312 L 1125.117188 607.222656 L 1126.503906 602.238281 L 1127.890625 599.417969 L 1129.273438 597.011719 L 1130.660156 598.128906 L 1132.046875 597.601562 "/>
<path fill="none" stroke-width="3" stroke-linecap="butt" stroke-linejoin="miter" stroke="rgb(90.196079%, 62.352943%, 0%)" stroke-opacity="1" stroke-miterlimit="2" d="M 92.953125 619.824219 L 94.339844 622.152344 L 95.726562 618.777344 L 97.109375 618.902344 L 98.496094 619.746094 L 99.882812 618.363281 L 101.265625 615.425781 L 102.652344 614.519531 L 104.039062 614.886719 L 105.421875 615.976562 L 106.808594 617.539062 L 108.195312 616.828125 L 109.578125 620.816406 L 110.964844 626.574219 L 112.351562 632.164062 L 113.738281 629.023438 L 115.121094 627.078125 L 116.507812 623.726562 L 117.894531 626.5625 L 119.277344 628.820312 L 120.664062 623.894531 L 122.050781 621.34375 L 123.433594 625.707031 L 124.820312 621.777344 L 126.207031 621.644531 L 127.589844 623.042969 L 128.976562 619.003906 L 130.363281 617.421875 L 131.746094 620.476562 L 133.132812 620.007812 L 134.519531 622.347656 L 135.902344 622.851562 L 137.289062 617.628906 L 138.675781 624.773438 L 140.058594 635.15625 L 141.445312 641.734375 L 142.832031 645.53125 L 144.214844 640.890625 L 145.601562 644.160156 L 146.988281 658.734375 L 148.371094 654.96875 L 149.757812 647.429688 L 151.144531 642.339844 L 152.527344 641.667969 L 153.914062 635.78125 L 155.300781 624.28125 L 156.683594 623.25 L 158.070312 630.40625 L 159.457031 620.4375 L 160.84375 616.863281 L 162.226562 616.816406 L 163.613281 613.949219 L 165 611.28125 L 166.382812 616.386719 L 167.769531 622.285156 L 169.15625 625.070312 L 170.539062 623.628906 L 171.925781 624.015625 L 173.3125 607.921875 L 174.695312 602.027344 L 176.082031 604.566406 L 177.46875 611.433594 L 178.851562 614.355469 L 180.238281 617.648438 L 181.625 612.816406 L 183.007812 611.210938 L 184.394531 600.328125 L 185.78125 590.988281 L 187.164062 602.441406 L 188.550781 611.347656 L 189.9375 612.171875 L 191.320312 599.648438 L 192.707031 596.375 L 194.09375 597.683594 L 195.476562 607.746094 L 196.863281 606.285156 L 198.25 607.113281 L 199.632812 614.628906 L 201.019531 613.855469 L 202.40625 619.898438 L 203.789062 621.78125 L 205.175781 624.703125 L 206.5625 626.320312 L 207.949219 609.359375 L 209.332031 612.144531 L 210.71875 615.996094 L 212.105469 624.25 L 213.488281 617.457031 L 214.875 616.972656 L 216.261719 613.457031 L 217.644531 613.996094 L 219.03125 616.277344 L 220.417969 610.671875 L 221.800781 607.65625 L 223.1875 612.511719 L 224.574219 613.652344 L 225.957031 613.976562 L 227.34375 613.78125 L 228.730469 610.054688 L 230.113281 599.605469 L 231.5 604.832031 L 232.886719 611.921875 L 234.269531 613.960938 L 235.65625 608.042969 L 237.042969 609.773438 L 238.425781 617.09375 L 239.8125 613.035156 L 241.199219 604.097656 L 242.582031 607.371094 L 243.96875 608.332031 L 245.355469 612.109375 L 246.738281 624.179688 L 248.125 625.3125 L 249.511719 617.597656 L 250.894531 612.3125 L 252.28125 600.191406 L 253.667969 600.355469 L 255.054688 605.113281 L 256.4375 611.828125 L 257.824219 608.1875 L 259.210938 608.667969 L 260.59375 602.484375 L 261.980469 605.0625 L 263.367188 600.941406 L 264.75 603.1875 L 266.136719 606.507812 L 267.523438 621.078125 L 268.90625 629.050781 L 270.292969 628.113281 L 271.679688 622.597656 L 273.0625 628.847656 L 274.449219 628.238281 L 275.835938 645.769531 L 277.21875 648.132812 L 278.605469 648.894531 L 279.992188 654.960938 L 281.375 646.5 L 282.761719 640.335938 L 284.148438 638.769531 L 285.53125 631.320312 L 286.917969 620.042969 L 288.304688 609.996094 L 289.6875 600.925781 L 291.074219 607.234375 L 292.460938 619.902344 L 293.84375 630.359375 L 295.230469 626.613281 L 296.617188 625.792969 L 298 627.6875 L 299.386719 624.984375 L 300.773438 624.402344 L 302.15625 626.023438 L 303.542969 631.613281 L 304.929688 637.308594 L 306.316406 646.335938 L 307.699219 652.84375 L 309.085938 655.8125 L 310.472656 666.113281 L 311.855469 667.726562 L 313.242188 667.152344 L 314.628906 667.363281 L 316.011719 676.335938 L 317.398438 685.714844 L 318.785156 688.359375 L 320.167969 686.5 L 321.554688 678.921875 L 322.941406 680.015625 L 324.324219 675.28125 L 325.710938 678.753906 L 327.097656 684.558594 L 328.480469 680.074219 L 329.867188 666.914062 L 331.253906 669.96875 L 332.636719 664.402344 L 334.023438 661.226562 L 335.410156 662.433594 L 336.792969 665.488281 L 338.179688 673.617188 L 339.566406 683.320312 L 340.949219 689.832031 L 342.335938 694.617188 L 343.722656 698.328125 L 345.105469 711.660156 L 346.492188 719.605469 L 347.878906 724.804688 L 349.261719 725.222656 L 350.648438 725.089844 L 352.035156 719.859375 L 353.421875 722.3125 L 354.804688 719.367188 L 356.191406 712.636719 L 357.578125 710.972656 L 358.960938 706.90625 L 360.347656 698.941406 L 361.734375 687.480469 L 363.117188 690.113281 L 364.503906 688.605469 L 365.890625 690.984375 L 367.273438 694.035156 L 368.660156 687.226562 L 370.046875 683.886719 L 371.429688 683.386719 L 372.816406 690.933594 L 374.203125 696.8125 L 375.585938 699.050781 L 376.972656 697.058594 L 378.359375 694.136719 L 379.742188 693.410156 L 381.128906 694.191406 L 382.515625 699.210938 L 383.898438 703.199219 L 385.285156 705.746094 L 386.671875 705.078125 L 388.054688 703.984375 L 389.441406 705.351562 L 390.828125 703.203125 L 392.210938 700.609375 L 393.597656 703.601562 L 394.984375 707.355469 L 396.367188 709.5625 L 397.753906 714.363281 L 399.140625 714.191406 L 400.527344 711.195312 L 401.910156 707.839844 L 403.296875 708.796875 L 404.683594 703.21875 L 406.066406 703.851562 L 407.453125 710.664062 L 408.839844 711.148438 L 410.222656 709.019531 L 411.609375 709.222656 L 412.996094 714.011719 L 414.378906 719.421875 L 415.765625 710.769531 L 417.152344 708.378906 L 418.535156 703.136719 L 419.921875 703.722656 L 421.308594 700.460938 L 422.691406 688.804688 L 424.078125 689.0625 L 425.464844 678.464844 L 426.847656 667.28125 L 428.234375 669.992188 L 429.621094 663.953125 L 431.003906 666.125 L 432.390625 674.339844 L 433.777344 674.710938 L 435.160156 670.921875 L 436.546875 662.746094 L 437.933594 653.308594 L 439.316406 652.804688 L 440.703125 656.070312 L 442.089844 651.730469 L 443.472656 648.460938 L 444.859375 643.527344 L 446.246094 649.597656 L 447.632812 659.71875 L 449.015625 668.761719 L 450.402344 666.53125 L 451.789062 666.582031 L 453.171875 669.914062 L 454.558594 681.988281 L 455.945312 688.992188 L 457.328125 690.207031 L 458.714844 685.628906 L 460.101562 674.269531 L 461.484375 673.234375 L 462.871094 670.972656 L 464.257812 665.324219 L 465.640625 661.851562 L 467.027344 657.789062 L 468.414062 643.878906 L 469.796875 631.378906 L 471.183594 616.550781 L 472.570312 611.496094 L 473.953125 602.382812 L 475.339844 591.1875 L 476.726562 581.164062 L 478.109375 574.238281 L 479.496094 560.457031 L 480.882812 560.261719 L 482.265625 567.078125 L 483.652344 577.105469 L 485.039062 584.089844 L 486.421875 591.597656 L 487.808594 599.960938 L 489.195312 601.378906 L 490.578125 602.570312 L 491.964844 602.878906 L 493.351562 604.695312 L 494.738281 597.132812 L 496.121094 595.113281 L 497.507812 588.03125 L 498.894531 585.4375 L 500.277344 580.667969 L 501.664062 580.5625 L 503.050781 574.195312 L 504.433594 566.457031 L 505.820312 561.394531 L 507.207031 549.589844 L 508.589844 540.753906 L 509.976562 540.605469 L 511.363281 534.242188 L 512.746094 528.71875 L 514.132812 521.835938 L 515.519531 505.804688 L 516.902344 492.578125 L 518.289062 471.257812 L 519.675781 459.492188 L 521.058594 447.9375 L 522.445312 444.335938 L 523.832031 432.96875 L 525.214844 417.984375 L 526.601562 402.675781 L 527.988281 390.210938 L 529.371094 384.101562 L 530.757812 375.449219 L 532.144531 362.691406 L 533.527344 348.640625 L 534.914062 341.871094 L 536.300781 335.121094 L 537.683594 334.523438 L 539.070312 331.847656 L 540.457031 325.015625 L 541.84375 309.511719 L 543.226562 299.132812 L 544.613281 289.515625 L 546 285.683594 L 547.382812 274.785156 L 548.769531 270.175781 L 550.15625 260.425781 L 551.539062 243.652344 L 552.925781 228.765625 L 554.3125 212.382812 L 555.695312 199.910156 L 557.082031 187.023438 L 558.46875 174.960938 L 559.851562 177.191406 L 561.238281 165.800781 L 562.625 154.683594 L 564.007812 148.507812 L 565.394531 136.777344 L 566.78125 123.28125 L 568.164062 119.242188 L 569.550781 110.070312 L 570.9375 99.121094 L 572.320312 85.449219 L 573.707031 74.742188 L 575.09375 70.152344 L 576.476562 64.515625 L 577.863281 65.8125 L 579.25 66.210938 L 580.632812 58.585938 L 582.019531 54.867188 L 583.40625 53.359375 L 584.789062 49.863281 L 586.175781 52.25 L 587.5625 58.929688 L 588.945312 65.089844 L 590.332031 75.253906 L 591.71875 65.515625 L 593.105469 72 L 594.488281 79.527344 L 595.875 86.324219 L 597.261719 92.226562 L 598.644531 88.734375 L 600.03125 76.875 L 601.417969 79.023438 L 602.800781 88.007812 L 604.1875 92.859375 L 605.574219 97.316406 L 606.957031 104.160156 L 608.34375 112.1875 L 609.730469 119.464844 L 611.113281 117.28125 L 612.5 113.871094 L 613.886719 126.019531 L 615.269531 129.910156 L 616.65625 134.707031 L 618.042969 138.5 L 619.425781 142.003906 L 620.8125 144.097656 L 622.199219 155.253906 L 623.582031 154.3125 L 624.96875 163.589844 L 626.355469 175.164062 L 627.738281 179.042969 L 629.125 175 L 630.511719 174.777344 L 631.894531 176.933594 L 633.28125 178.652344 L 634.667969 182.191406 L 636.054688 192.527344 L 637.4375 197.863281 L 638.824219 203.1875 L 640.210938 197.652344 L 641.59375 199.75 L 642.980469 204.652344 L 644.367188 203.226562 L 645.75 208.320312 L 647.136719 222.039062 L 648.523438 233.917969 L 649.90625 238.695312 L 651.292969 238.738281 L 652.679688 242.484375 L 654.0625 243.953125 L 655.449219 241.121094 L 656.835938 234.519531 L 658.21875 233.742188 L 659.605469 242.140625 L 660.992188 255.742188 L 662.375 263.058594 L 663.761719 264.105469 L 665.148438 259.890625 L 666.53125 263.679688 L 667.917969 265.605469 L 669.304688 262.898438 L 670.6875 260.714844 L 672.074219 262.449219 L 673.460938 263.214844 L 674.84375 263.953125 L 676.230469 265.386719 L 677.617188 260.433594 L 679 268.804688 L 680.386719 273.625 L 681.773438 271.980469 L 683.15625 280.648438 L 684.542969 277.5625 L 685.929688 277.753906 L 687.316406 290.113281 L 688.699219 301.515625 L 690.085938 305.652344 L 691.472656 297.496094 L 692.855469 299.480469 L 694.242188 296.796875 L 695.628906 304.867188 L 697.011719 312.605469 L 698.398438 313.539062 L 699.785156 313.921875 L 701.167969 307.949219 L 702.554688 302.976562 L 703.941406 298.324219 L 705.324219 300.101562 L 706.710938 305.03125 L 708.097656 308.160156 L 709.480469 310.878906 L 710.867188 317.875 L 712.253906 319.859375 L 713.636719 309.070312 L 715.023438 306.210938 L 716.410156 302.339844 L 717.792969 299.589844 L 719.179688 298.253906 L 720.566406 300.523438 L 721.949219 301.132812 L 723.335938 296.371094 L 724.722656 296.605469 L 726.105469 288.851562 L 727.492188 285.148438 L 728.878906 278.859375 L 730.261719 276.328125 L 731.648438 280.011719 L 733.035156 285.003906 L 734.421875 289.300781 L 735.804688 285.894531 L 737.191406 282.898438 L 738.578125 289.289062 L 739.960938 291.65625 L 741.347656 299.261719 L 742.734375 301.164062 L 744.117188 294.746094 L 745.503906 283.753906 L 746.890625 280.300781 L 748.273438 283.582031 L 749.660156 286.789062 L 751.046875 286.917969 L 752.429688 289.9375 L 753.816406 275.527344 L 755.203125 276.53125 L 756.585938 273.453125 L 757.972656 270.140625 L 759.359375 275.023438 L 760.742188 274.347656 L 762.128906 274.71875 L 763.515625 282.320312 L 764.898438 281.507812 L 766.285156 288.695312 L 767.671875 298.671875 L 769.054688 309.820312 L 770.441406 308.773438 L 771.828125 316.617188 L 773.210938 322.75 L 774.597656 327.46875 L 775.984375 330.578125 L 777.367188 328.417969 L 778.753906 325.863281 L 780.140625 330.871094 L 781.523438 342.292969 L 782.910156 344.644531 L 784.296875 349.449219 L 785.683594 342.074219 L 787.066406 327.515625 L 788.453125 325.675781 L 789.839844 322.289062 L 791.222656 325.601562 L 792.609375 331.089844 L 793.996094 335.730469 L 795.378906 338.46875 L 796.765625 351.328125 L 798.152344 352.285156 L 799.535156 359.765625 L 800.921875 367.136719 L 802.308594 370.40625 L 803.691406 374.746094 L 805.078125 378.484375 L 806.464844 382.914062 L 807.847656 385.957031 L 809.234375 387.015625 L 810.621094 391.007812 L 812.003906 397.757812 L 813.390625 409.894531 L 814.777344 414.628906 L 816.160156 421.367188 L 817.546875 427.15625 L 818.933594 429.136719 L 820.316406 430.390625 L 821.703125 434.863281 L 823.089844 430.128906 L 824.472656 429.734375 L 825.859375 436.09375 L 827.246094 438.75 L 828.632812 439.445312 L 830.015625 439.851562 L 831.402344 432.453125 L 832.789062 433.878906 L 834.171875 442.285156 L 835.558594 443.914062 L 836.945312 450.335938 L 838.328125 446.984375 L 839.714844 453.363281 L 841.101562 455.257812 L 842.484375 454.082031 L 843.871094 453.1875 L 845.257812 452.949219 L 846.640625 455.085938 L 848.027344 456.003906 L 849.414062 467.140625 L 850.796875 476.910156 L 852.183594 477.074219 L 853.570312 481.78125 L 854.953125 481.671875 L 856.339844 485.3125 L 857.726562 486.320312 L 859.109375 485.035156 L 860.496094 479.078125 L 861.882812 483.984375 L 863.265625 485.757812 L 864.652344 490.304688 L 866.039062 495.871094 L 867.421875 498.105469 L 868.808594 498.070312 L 870.195312 495.597656 L 871.578125 493.1875 L 872.964844 493.945312 L 874.351562 492.980469 L 875.734375 498.074219 L 877.121094 500.492188 L 878.507812 505.785156 L 879.894531 503.71875 L 881.277344 491.9375 L 882.664062 493.816406 L 884.050781 510.246094 L 885.433594 513.808594 L 886.820312 513.59375 L 888.207031 507.183594 L 889.589844 509.984375 L 890.976562 517.453125 L 892.363281 523.425781 L 893.746094 521.011719 L 895.132812 514.683594 L 896.519531 510.652344 L 897.902344 512.679688 L 899.289062 507.441406 L 900.675781 501.707031 L 902.058594 503.710938 L 903.445312 502.347656 L 904.832031 506.792969 L 906.214844 510.363281 L 907.601562 507.121094 L 908.988281 511.121094 L 910.371094 516.796875 L 911.757812 519.785156 L 913.144531 525.78125 L 914.527344 517.785156 L 915.914062 513.167969 L 917.300781 511.515625 L 918.683594 512.054688 L 920.070312 518.582031 L 921.457031 524.640625 L 922.84375 530.25 L 924.226562 524.261719 L 925.613281 526.765625 L 927 528.265625 L 928.382812 527.3125 L 929.769531 535.484375 L 931.15625 540.488281 L 932.539062 545.808594 L 933.925781 545.382812 L 935.3125 547.820312 L 936.695312 546.367188 L 938.082031 540.265625 L 939.46875 539.5625 L 940.851562 533.359375 L 942.238281 538.167969 L 943.625 546.785156 L 945.007812 553.023438 L 946.394531 548.894531 L 947.78125 543.628906 L 949.164062 542.433594 L 950.550781 545.753906 L 951.9375 545.21875 L 953.320312 549.492188 L 954.707031 555.492188 L 956.09375 560.738281 L 957.476562 565.007812 L 958.863281 567.273438 L 960.25 570.726562 L 961.632812 571.886719 L 963.019531 572.082031 L 964.40625 574.304688 L 965.789062 575.335938 L 967.175781 579.515625 L 968.5625 580.472656 L 969.945312 580.449219 L 971.332031 581.789062 L 972.71875 581.164062 L 974.105469 579.957031 L 975.488281 575.503906 L 976.875 571.757812 L 978.261719 574.949219 L 979.644531 578.878906 L 981.03125 589.597656 L 982.417969 590.457031 L 983.800781 583.039062 L 985.1875 569.042969 L 986.574219 564.871094 L 987.957031 557.074219 L 989.34375 561.214844 L 990.730469 562.089844 L 992.113281 569.707031 L 993.5 572.863281 L 994.886719 577.585938 L 996.269531 572.035156 L 997.65625 572.863281 L 999.042969 571.683594 L 1000.425781 572.878906 L 1001.8125 576.824219 L 1003.199219 582.757812 L 1004.582031 584.355469 L 1005.96875 595.671875 L 1007.355469 598.683594 L 1008.738281 595.109375 L 1010.125 588.4375 L 1011.511719 585.316406 L 1012.894531 591.382812 L 1014.28125 592.394531 L 1015.667969 590.082031 L 1017.050781 588.910156 L 1018.4375 592.328125 L 1019.824219 594.128906 L 1021.210938 598.527344 L 1022.59375 605.429688 L 1023.980469 605.386719 L 1025.367188 608.414062 L 1026.75 606.414062 L 1028.136719 598.222656 L 1029.523438 604.492188 L 1030.90625 604.632812 L 1032.292969 599.039062 L 1033.679688 600.902344 L 1035.0625 603.515625 L 1036.449219 605.828125 L 1037.835938 618.640625 L 1039.21875 621.28125 L 1040.605469 620.203125 L 1041.992188 614.625 L 1043.375 603.859375 L 1044.761719 583.136719 L 1046.148438 579.582031 L 1047.53125 590.0625 L 1048.917969 600.308594 L 1050.304688 600.234375 L 1051.6875 589.136719 L 1053.074219 580.242188 L 1054.460938 584.515625 L 1055.84375 588.105469 L 1057.230469 586.636719 L 1058.617188 595.394531 L 1060 603.335938 L 1061.386719 604.28125 L 1062.773438 589.058594 L 1064.15625 585.742188 L 1065.542969 583.59375 L 1066.929688 587.007812 L 1068.3125 590.882812 L 1069.699219 583.414062 L 1071.085938 581.53125 L 1072.472656 579.917969 L 1073.855469 582.199219 L 1075.242188 583.097656 L 1076.628906 586.53125 L 1078.011719 581.167969 L 1079.398438 583.957031 L 1080.785156 584.277344 L 1082.167969 592.105469 L 1083.554688 601.472656 L 1084.941406 620.097656 L 1086.324219 627.53125 L 1087.710938 628.445312 L 1089.097656 634.210938 L 1090.480469 633.207031 L 1091.867188 634.476562 L 1093.253906 620.273438 L 1094.636719 613.34375 L 1096.023438 613.753906 L 1097.410156 617.792969 L 1098.792969 621.972656 L 1100.179688 622.296875 L 1101.566406 627.445312 L 1102.949219 631.605469 L 1104.335938 644.207031 L 1105.722656 651.253906 L 1107.105469 641 L 1108.492188 640.425781 L 1109.878906 632.722656 L 1111.261719 626.152344 L 1112.648438 623.527344 L 1114.035156 619.988281 L 1115.421875 618.964844 L 1116.804688 624.136719 L 1118.191406 632.167969 L 1119.578125 638.515625 L 1120.960938 641.09375 L 1122.347656 638.695312 L 1123.734375 635.0625 L 1125.117188 631.757812 L 1126.503906 637.804688 L 1127.890625 636.335938 L 1129.273438 637.910156 L 1130.660156 632.859375 L 1132.046875 633.261719 "/>
<path fill="none" stroke-width="3" stroke-linecap="butt" stroke-linejoin="miter" stroke="rgb(0%, 61.960787%, 45.09804%)" stroke-opacity="1" stroke-miterlimit="2" d="M 92.953125 582.882812 L 94.339844 578.472656 L 95.726562 583.175781 L 97.109375 590.714844 L 98.496094 590.308594 L 99.882812 588.042969 L 101.265625 572.726562 L 102.652344 576.921875 L 104.039062 584.6875 L 105.421875 589.46875 L 106.808594 590.335938 L 108.195312 583.226562 L 109.578125 581.582031 L 110.964844 582.097656 L 112.351562 582.800781 L 113.738281 584.78125 L 115.121094 583.386719 L 116.507812 575.417969 L 117.894531 576.796875 L 119.277344 576.167969 L 120.664062 564.296875 L 122.050781 553.84375 L 123.433594 550.460938 L 124.820312 555.582031 L 126.207031 565.152344 L 127.589844 573.496094 L 128.976562 571.285156 L 130.363281 572.125 L 131.746094 574.417969 L 133.132812 578.609375 L 134.519531 583.207031 L 135.902344 595.75 L 137.289062 603.628906 L 138.675781 609.378906 L 140.058594 602.519531 L 141.445312 597.90625 L 142.832031 605.304688 L 144.214844 612.351562 L 145.601562 621.601562 L 146.988281 619.402344 L 148.371094 614.464844 L 149.757812 609.773438 L 151.144531 615.027344 L 152.527344 617.664062 L 153.914062 615.449219 L 155.300781 616.648438 L 156.683594 613.765625 L 158.070312 612.410156 L 159.457031 603.320312 L 160.84375 596.664062 L 162.226562 590.929688 L 163.613281 601.003906 L 165 600.035156 L 166.382812 608.597656 L 167.769531 610.339844 L 169.15625 609.652344 L 170.539062 614.527344 L 171.925781 615.210938 L 173.3125 621.929688 L 174.695312 613.078125 L 176.082031 606.15625 L 177.46875 604.253906 L 178.851562 609.410156 L 180.238281 601.214844 L 181.625 604.246094 L 183.007812 610.476562 L 184.394531 613.34375 L 185.78125 614.929688 L 187.164062 614.410156 L 188.550781 605.503906 L 189.9375 600.195312 L 191.320312 602.644531 L 192.707031 608.804688 L 194.09375 609.847656 L 195.476562 611.070312 L 196.863281 610.976562 L 198.25 615.578125 L 199.632812 616.335938 L 201.019531 623.472656 L 202.40625 631.546875 L 203.789062 637.863281 L 205.175781 636.960938 L 206.5625 637.871094 L 207.949219 640.433594 L 209.332031 643.566406 L 210.71875 639.589844 L 212.105469 636.21875 L 213.488281 638.101562 L 214.875 636.8125 L 216.261719 639.027344 L 217.644531 625.574219 L 219.03125 615.578125 L 220.417969 611.25 L 221.800781 606.515625 L 223.1875 604.472656 L 224.574219 603.582031 L 225.957031 599.109375 L 227.34375 596.316406 L 228.730469 593.957031 L 230.113281 592.023438 L 231.5 590.640625 L 232.886719 592.109375 L 234.269531 602.234375 L 235.65625 604.703125 L 237.042969 607.035156 L 238.425781 611.363281 L 239.8125 605.902344 L 241.199219 591.304688 L 242.582031 582.507812 L 243.96875 577.324219 L 245.355469 581.207031 L 246.738281 576.273438 L 248.125 585.394531 L 249.511719 589.574219 L 250.894531 592.609375 L 252.28125 584.035156 L 253.667969 579.316406 L 255.054688 574.789062 L 256.4375 567.113281 L 257.824219 559.519531 L 259.210938 554.398438 L 260.59375 552.746094 L 261.980469 551.785156 L 263.367188 560.519531 L 264.75 563.980469 L 266.136719 569.414062 L 267.523438 576.761719 L 268.90625 582.382812 L 270.292969 583.855469 L 271.679688 591.84375 L 273.0625 586.394531 L 274.449219 590.542969 L 275.835938 595.417969 L 277.21875 604.714844 L 278.605469 606.613281 L 279.992188 607.085938 L 281.375 602.742188 L 282.761719 601.453125 L 284.148438 604.679688 L 285.53125 595.277344 L 286.917969 591.71875 L 288.304688 581.371094 L 289.6875 581.425781 L 291.074219 579.710938 L 292.460938 582.5 L 293.84375 581.195312 L 295.230469 573.628906 L 296.617188 575.707031 L 298 583.535156 L 299.386719 587.640625 L 300.773438 581.921875 L 302.15625 574.183594 L 303.542969 576.308594 L 304.929688 573.355469 L 306.316406 570.371094 L 307.699219 570.796875 L 309.085938 575.921875 L 310.472656 586.992188 L 311.855469 588.390625 L 313.242188 588.351562 L 314.628906 587.792969 L 316.011719 588.578125 L 317.398438 591.105469 L 318.785156 601.535156 L 320.167969 595.28125 L 321.554688 594.6875 L 322.941406 591.472656 L 324.324219 595.261719 L 325.710938 589.257812 L 327.097656 581.519531 L 328.480469 576.300781 L 329.867188 580.425781 L 331.253906 586.382812 L 332.636719 599.191406 L 334.023438 604.96875 L 335.410156 601.019531 L 336.792969 605.734375 L 338.179688 614.007812 L 339.566406 611.785156 L 340.949219 612.746094 L 342.335938 613.71875 L 343.722656 612.417969 L 345.105469 619.433594 L 346.492188 624.851562 L 347.878906 630.789062 L 349.261719 629.644531 L 350.648438 625.3125 L 352.035156 620.925781 L 353.421875 623.414062 L 354.804688 630.394531 L 356.191406 635.3125 L 357.578125 633.476562 L 358.960938 638.148438 L 360.347656 639.769531 L 361.734375 632.507812 L 363.117188 628.777344 L 364.503906 631.492188 L 365.890625 638.777344 L 367.273438 641.328125 L 368.660156 640.0625 L 370.046875 640.085938 L 371.429688 641.632812 L 372.816406 647.097656 L 374.203125 648.207031 L 375.585938 650.273438 L 376.972656 652.246094 L 378.359375 653.78125 L 379.742188 659.136719 L 381.128906 655.355469 L 382.515625 657.882812 L 383.898438 661.332031 L 385.285156 659.160156 L 386.671875 654.464844 L 388.054688 653.496094 L 389.441406 649.210938 L 390.828125 650.195312 L 392.210938 648.371094 L 393.597656 651.5 L 394.984375 650.625 L 396.367188 660.519531 L 397.753906 663.390625 L 399.140625 668.542969 L 400.527344 664.402344 L 401.910156 662.515625 L 403.296875 667.203125 L 404.683594 677.929688 L 406.066406 675.984375 L 407.453125 675.304688 L 408.839844 672.203125 L 410.222656 663.515625 L 411.609375 655.382812 L 412.996094 660.851562 L 414.378906 657.859375 L 415.765625 648.65625 L 417.152344 644.132812 L 418.535156 638.40625 L 419.921875 634.703125 L 421.308594 639.191406 L 422.691406 637.554688 L 424.078125 631.574219 L 425.464844 631.34375 L 426.847656 627.507812 L 428.234375 628.953125 L 429.621094 627.605469 L 431.003906 626.496094 L 432.390625 634.3125 L 433.777344 635.074219 L 435.160156 638.335938 L 436.546875 642.699219 L 437.933594 647.582031 L 439.316406 643.070312 L 440.703125 642.15625 L 442.089844 626.730469 L 443.472656 616.359375 L 444.859375 610.167969 L 446.246094 610.925781 L 447.632812 626.113281 L 449.015625 631.671875 L 450.402344 633.132812 L 451.789062 630.847656 L 453.171875 627.667969 L 454.558594 632.8125 L 455.945312 629.863281 L 457.328125 632.699219 L 458.714844 631.359375 L 460.101562 637.988281 L 461.484375 640.46875 L 462.871094 641.5 L 464.257812 636.027344 L 465.640625 642.367188 L 467.027344 643.011719 L 468.414062 633.910156 L 469.796875 624.457031 L 471.183594 621.074219 L 472.570312 618.246094 L 473.953125 611.691406 L 475.339844 600.71875 L 476.726562 591.796875 L 478.109375 585.027344 L 479.496094 579.246094 L 480.882812 573.226562 L 482.265625 567.085938 L 483.652344 564.550781 L 485.039062 564.917969 L 486.421875 568.785156 L 487.808594 574.96875 L 489.195312 582.347656 L 490.578125 581.261719 L 491.964844 583.324219 L 493.351562 581.347656 L 494.738281 577.25 L 496.121094 576.898438 L 497.507812 571.085938 L 498.894531 572.738281 L 500.277344 564.648438 L 501.664062 568.261719 L 503.050781 563.199219 L 504.433594 559.773438 L 505.820312 546.976562 L 507.207031 542.945312 L 508.589844 528.214844 L 509.976562 517.097656 L 511.363281 510.503906 L 512.746094 494.105469 L 514.132812 483.386719 L 515.519531 478.125 L 516.902344 466.855469 L 518.289062 457.722656 L 519.675781 444.765625 L 521.058594 426.226562 L 522.445312 419.761719 L 523.832031 412.207031 L 525.214844 406.230469 L 526.601562 389.648438 L 527.988281 375.453125 L 529.371094 364.253906 L 530.757812 354.359375 L 532.144531 350.914062 L 533.527344 339.582031 L 534.914062 330.515625 L 536.300781 319.421875 L 537.683594 312.085938 L 539.070312 313.984375 L 540.457031 312.019531 L 541.84375 305.097656 L 543.226562 302.234375 L 544.613281 299.546875 L 546 297.871094 L 547.382812 291.078125 L 548.769531 287.023438 L 550.15625 281.410156 L 551.539062 275.214844 L 552.925781 264.101562 L 554.3125 245.585938 L 555.695312 233.226562 L 557.082031 231.441406 L 558.46875 213.175781 L 559.851562 192.195312 L 561.238281 177.203125 L 562.625 161.300781 L 564.007812 153.605469 L 565.394531 143.464844 L 566.78125 132.824219 L 568.164062 130.230469 L 569.550781 123.074219 L 570.9375 119.371094 L 572.320312 114.238281 L 573.707031 106.746094 L 575.09375 96.273438 L 576.476562 96.507812 L 577.863281 96.546875 L 579.25 92.207031 L 580.632812 86.125 L 582.019531 85.34375 L 583.40625 99.0625 L 584.789062 100.09375 L 586.175781 96.839844 L 587.5625 98.433594 L 588.945312 111.085938 L 590.332031 110.695312 L 591.71875 109.554688 L 593.105469 106.171875 L 594.488281 103.707031 L 595.875 101.84375 L 597.261719 103.898438 L 598.644531 103.785156 L 600.03125 108.546875 L 601.417969 120.761719 L 602.800781 137.898438 L 604.1875 150.554688 L 605.574219 155.566406 L 606.957031 161.308594 L 608.34375 168.074219 L 609.730469 182.40625 L 611.113281 187.964844 L 612.5 182.582031 L 613.886719 191.253906 L 615.269531 193.917969 L 616.65625 203.023438 L 618.042969 197.4375 L 619.425781 188.808594 L 620.8125 198.164062 L 622.199219 201.054688 L 623.582031 194.347656 L 624.96875 195.6875 L 626.355469 201.042969 L 627.738281 203.578125 L 629.125 208.851562 L 630.511719 207.726562 L 631.894531 207.902344 L 633.28125 211.679688 L 634.667969 216.765625 L 636.054688 215.988281 L 637.4375 225.488281 L 638.824219 232.535156 L 640.210938 240.589844 L 641.59375 245.878906 L 642.980469 262.804688 L 644.367188 268.75 L 645.75 268.589844 L 647.136719 271.257812 L 648.523438 275.816406 L 649.90625 280.832031 L 651.292969 283.03125 L 652.679688 292.472656 L 654.0625 293.6875 L 655.449219 294.355469 L 656.835938 294.519531 L 658.21875 301.382812 L 659.605469 300.03125 L 660.992188 293.878906 L 662.375 287.222656 L 663.761719 288.964844 L 665.148438 286.523438 L 666.53125 286.378906 L 667.917969 288.4375 L 669.304688 294.929688 L 670.6875 305.425781 L 672.074219 315.128906 L 673.460938 317.332031 L 674.84375 322.21875 L 676.230469 317.886719 L 677.617188 323.519531 L 679 336.699219 L 680.386719 330.144531 L 681.773438 334.152344 L 683.15625 333.644531 L 684.542969 349.195312 L 685.929688 352.59375 L 687.316406 351.703125 L 688.699219 347.097656 L 690.085938 334.128906 L 691.472656 329.296875 L 692.855469 336.75 L 694.242188 340.570312 L 695.628906 338.207031 L 697.011719 335.441406 L 698.398438 326.429688 L 699.785156 328.941406 L 701.167969 329.953125 L 702.554688 324.554688 L 703.941406 320.691406 L 705.324219 319.140625 L 706.710938 325.507812 L 708.097656 323.398438 L 709.480469 320.410156 L 710.867188 321.105469 L 712.253906 322.617188 L 713.636719 321.796875 L 715.023438 323.4375 L 716.410156 325.949219 L 717.792969 325.664062 L 719.179688 334.988281 L 720.566406 340.023438 L 721.949219 342.671875 L 723.335938 337.632812 L 724.722656 328.46875 L 726.105469 330.453125 L 727.492188 320.597656 L 728.878906 316.824219 L 730.261719 315.3125 L 731.648438 313.730469 L 733.035156 311.683594 L 734.421875 315.640625 L 735.804688 314.425781 L 737.191406 310.429688 L 738.578125 309.667969 L 739.960938 308.914062 L 741.347656 319.199219 L 742.734375 322.226562 L 744.117188 329.8125 L 745.503906 330.472656 L 746.890625 328.785156 L 748.273438 332.324219 L 749.660156 328.664062 L 751.046875 332.507812 L 752.429688 341.292969 L 753.816406 339.6875 L 755.203125 341.144531 L 756.585938 337.5 L 757.972656 342.648438 L 759.359375 339.207031 L 760.742188 336.960938 L 762.128906 332.113281 L 763.515625 329.980469 L 764.898438 330.65625 L 766.285156 336.8125 L 767.671875 343.355469 L 769.054688 339.191406 L 770.441406 351.21875 L 771.828125 356.984375 L 773.210938 344.453125 L 774.597656 341.449219 L 775.984375 344.542969 L 777.367188 350.890625 L 778.753906 356.410156 L 780.140625 358.601562 L 781.523438 368.570312 L 782.910156 373.269531 L 784.296875 376.4375 L 785.683594 370.777344 L 787.066406 372.300781 L 788.453125 377.109375 L 789.839844 380.835938 L 791.222656 383.617188 L 792.609375 381.125 L 793.996094 377.679688 L 795.378906 378.519531 L 796.765625 371.402344 L 798.152344 375.636719 L 799.535156 375.296875 L 800.921875 376.113281 L 802.308594 381.632812 L 803.691406 388.445312 L 805.078125 392.253906 L 806.464844 395.046875 L 807.847656 391.835938 L 809.234375 394.386719 L 810.621094 394.511719 L 812.003906 405.636719 L 813.390625 411.472656 L 814.777344 415.910156 L 816.160156 427.15625 L 817.546875 432.117188 L 818.933594 437.816406 L 820.316406 444.769531 L 821.703125 443.332031 L 823.089844 444.472656 L 824.472656 445.183594 L 825.859375 445.753906 L 827.246094 448.980469 L 828.632812 445.097656 L 830.015625 444.636719 L 831.402344 446.539062 L 832.789062 448.421875 L 834.171875 450.035156 L 835.558594 450.679688 L 836.945312 447.367188 L 838.328125 442.957031 L 839.714844 433.222656 L 841.101562 440.140625 L 842.484375 445.234375 L 843.871094 439.136719 L 845.257812 451.335938 L 846.640625 458.664062 L 848.027344 461.574219 L 849.414062 465.386719 L 850.796875 471.027344 L 852.183594 479.015625 L 853.570312 478.0625 L 854.953125 471.15625 L 856.339844 475.308594 L 857.726562 483.804688 L 859.109375 494.90625 L 860.496094 499.773438 L 861.882812 495.082031 L 863.265625 493.210938 L 864.652344 494.359375 L 866.039062 501.4375 L 867.421875 506.6875 L 868.808594 503.238281 L 870.195312 500.324219 L 871.578125 499.4375 L 872.964844 514.628906 L 874.351562 513.546875 L 875.734375 505.597656 L 877.121094 507.570312 L 878.507812 515.6875 L 879.894531 528.027344 L 881.277344 516.386719 L 882.664062 512.714844 L 884.050781 519.859375 L 885.433594 539.269531 L 886.820312 543.804688 L 888.207031 537.320312 L 889.589844 526.167969 L 890.976562 530.777344 L 892.363281 542.625 L 893.746094 542.199219 L 895.132812 538.324219 L 896.519531 528.578125 L 897.902344 525.265625 L 899.289062 524.488281 L 900.675781 517.773438 L 902.058594 523.699219 L 903.445312 530.488281 L 904.832031 530.144531 L 906.214844 534.492188 L 907.601562 532.324219 L 908.988281 541.042969 L 910.371094 543.433594 L 911.757812 538.363281 L 913.144531 529.074219 L 914.527344 530.898438 L 915.914062 537.777344 L 917.300781 542.117188 L 918.683594 548.726562 L 920.070312 550.613281 L 921.457031 559.253906 L 922.84375 565.003906 L 924.226562 562.007812 L 925.613281 565.617188 L 927 564.371094 L 928.382812 571.644531 L 929.769531 566.878906 L 931.15625 567.253906 L 932.539062 571.371094 L 933.925781 570.152344 L 935.3125 566.777344 L 936.695312 568.328125 L 938.082031 564.34375 L 939.46875 569.199219 L 940.851562 575.613281 L 942.238281 569.3125 L 943.625 574.59375 L 945.007812 571.28125 L 946.394531 568.265625 L 947.78125 563.550781 L 949.164062 562.503906 L 950.550781 560.082031 L 951.9375 559.425781 L 953.320312 557.617188 L 954.707031 565.4375 L 956.09375 576.320312 L 957.476562 583.648438 L 958.863281 586.289062 L 960.25 577.929688 L 961.632812 574.519531 L 963.019531 572.207031 L 964.40625 562.753906 L 965.789062 568.03125 L 967.175781 574.925781 L 968.5625 572.21875 L 969.945312 562.609375 L 971.332031 548.699219 L 972.71875 548.984375 L 974.105469 550.722656 L 975.488281 548.390625 L 976.875 546.613281 L 978.261719 555.023438 L 979.644531 564.621094 L 981.03125 565.363281 L 982.417969 564.40625 L 983.800781 563.929688 L 985.1875 568.164062 L 986.574219 577.015625 L 987.957031 583.816406 L 989.34375 583.488281 L 990.730469 573.613281 L 992.113281 575.53125 L 993.5 572.578125 L 994.886719 573.859375 L 996.269531 582.050781 L 997.65625 581.179688 L 999.042969 571.800781 L 1000.425781 569.984375 L 1001.8125 570.414062 L 1003.199219 574.34375 L 1004.582031 581.886719 L 1005.96875 577.484375 L 1007.355469 582.328125 L 1008.738281 573.613281 L 1010.125 570.292969 L 1011.511719 566.210938 L 1012.894531 564.722656 L 1014.28125 572.726562 L 1015.667969 576.523438 L 1017.050781 578.851562 L 1018.4375 575.085938 L 1019.824219 572.921875 L 1021.210938 570.800781 L 1022.59375 572.257812 L 1023.980469 573.539062 L 1025.367188 578.746094 L 1026.75 581.945312 L 1028.136719 586.546875 L 1029.523438 596.027344 L 1030.90625 603.011719 L 1032.292969 596.792969 L 1033.679688 596.0625 L 1035.0625 595.578125 L 1036.449219 591.742188 L 1037.835938 571.273438 L 1039.21875 562.457031 L 1040.605469 561.730469 L 1041.992188 568.894531 L 1043.375 577.871094 L 1044.761719 581.40625 L 1046.148438 587.957031 L 1047.53125 580.492188 L 1048.917969 592.582031 L 1050.304688 602.507812 L 1051.6875 611.371094 L 1053.074219 607.527344 L 1054.460938 606.886719 L 1055.84375 600.28125 L 1057.230469 603.257812 L 1058.617188 607.296875 L 1060 606.402344 L 1061.386719 610.085938 L 1062.773438 604.90625 L 1064.15625 602.699219 L 1065.542969 590.6875 L 1066.929688 590.539062 L 1068.3125 589.039062 L 1069.699219 585.820312 L 1071.085938 566.636719 L 1072.472656 574.097656 L 1073.855469 576.8125 L 1075.242188 578.058594 L 1076.628906 577.226562 L 1078.011719 579.5625 L 1079.398438 586.425781 L 1080.785156 580.472656 L 1082.167969 594.929688 L 1083.554688 605.871094 L 1084.941406 613.515625 L 1086.324219 612.492188 L 1087.710938 611.027344 L 1089.097656 608.523438 L 1090.480469 603.042969 L 1091.867188 601.46875 L 1093.253906 603.808594 L 1094.636719 604.351562 L 1096.023438 606.050781 L 1097.410156 601.90625 L 1098.792969 603.296875 L 1100.179688 597.265625 L 1101.566406 598.789062 L 1102.949219 598.03125 L 1104.335938 592.082031 L 1105.722656 582.003906 L 1107.105469 583.9375 L 1108.492188 590.578125 L 1109.878906 598.1875 L 1111.261719 592.480469 L 1112.648438 594.703125 L 1114.035156 595.546875 L 1115.421875 601.902344 L 1116.804688 610.199219 L 1118.191406 612.789062 L 1119.578125 614.992188 L 1120.960938 614.609375 L 1122.347656 616.011719 L 1123.734375 618.613281 L 1125.117188 618.546875 L 1126.503906 620.246094 L 1127.890625 620.332031 L 1129.273438 611.136719 L 1130.660156 603.21875 L 1132.046875 602.152344 "/>
<path fill="none" stroke-width="3" stroke-linecap="butt" stroke-linejoin="miter" stroke="rgb(80.000001%, 47.450981%, 65.490198%)" stroke-opacity="1" stroke-miterlimit="2" d="M 92.953125 597.40625 L 94.339844 587.695312 L 95.726562 580.992188 L 97.109375 581.390625 L 98.496094 582.382812 L 99.882812 586.585938 L 101.265625 591.847656 L 102.652344 592.667969 L 104.039062 597.183594 L 105.421875 589.808594 L 106.808594 591.277344 L 108.195312 603.1875 L 109.578125 610.742188 L 110.964844 613.589844 L 112.351562 619.347656 L 113.738281 616.269531 L 115.121094 613.769531 L 116.507812 601.335938 L 117.894531 607.980469 L 119.277344 604.398438 L 120.664062 608.300781 L 122.050781 607.488281 L 123.433594 603.441406 L 124.820312 605.613281 L 126.207031 612.578125 L 127.589844 612.984375 L 128.976562 615.167969 L 130.363281 610.261719 L 131.746094 609.425781 L 133.132812 621.519531 L 134.519531 634.808594 L 135.902344 644.175781 L 137.289062 637.546875 L 138.675781 632.4375 L 140.058594 623.417969 L 141.445312 622.6875 L 142.832031 618.671875 L 144.214844 623.40625 L 145.601562 626.765625 L 146.988281 629.617188 L 148.371094 635.152344 L 149.757812 627.378906 L 151.144531 612.511719 L 152.527344 603.722656 L 153.914062 598.726562 L 155.300781 609.953125 L 156.683594 611.109375 L 158.070312 606.867188 L 159.457031 612.210938 L 160.84375 607.875 L 162.226562 605.027344 L 163.613281 601.6875 L 165 609.695312 L 166.382812 613.65625 L 167.769531 618.03125 L 169.15625 622.949219 L 170.539062 620.242188 L 171.925781 623.394531 L 173.3125 625.261719 L 174.695312 625.664062 L 176.082031 628.503906 L 177.46875 623.183594 L 178.851562 615.503906 L 180.238281 623.070312 L 181.625 625.429688 L 183.007812 624.28125 L 184.394531 626.722656 L 185.78125 615.21875 L 187.164062 606.363281 L 188.550781 606.820312 L 189.9375 609.382812 L 191.320312 607.371094 L 192.707031 615.238281 L 194.09375 615.726562 L 195.476562 615.207031 L 196.863281 603.71875 L 198.25 594.203125 L 199.632812 600.6875 L 201.019531 611.683594 L 202.40625 619.53125 L 203.789062 617.492188 L 205.175781 614.992188 L 206.5625 617.742188 L 207.949219 612.703125 L 209.332031 613.695312 L 210.71875 617.527344 L 212.105469 618.371094 L 213.488281 617.792969 L 214.875 622.914062 L 216.261719 631.082031 L 217.644531 627.699219 L 219.03125 624.484375 L 220.417969 617.804688 L 221.800781 613.679688 L 223.1875 623.636719 L 224.574219 627.703125 L 225.957031 627.636719 L 227.34375 627.339844 L 228.730469 624.347656 L 230.113281 625.378906 L 231.5 615.277344 L 232.886719 608.589844 L 234.269531 610.6875 L 235.65625 611.859375 L 237.042969 616.496094 L 238.425781 620.71875 L 239.8125 624.609375 L 241.199219 625.75 L 242.582031 629.371094 L 243.96875 631.375 L 245.355469 637.929688 L 246.738281 646.011719 L 248.125 649.648438 L 249.511719 654.417969 L 250.894531 657.785156 L 252.28125 658.003906 L 253.667969 652.082031 L 255.054688 643.921875 L 256.4375 642.269531 L 257.824219 638.402344 L 259.210938 636.039062 L 260.59375 641.179688 L 261.980469 645.070312 L 263.367188 640.164062 L 264.75 635.503906 L 266.136719 630.894531 L 267.523438 635.726562 L 268.90625 642.101562 L 270.292969 647.347656 L 271.679688 643.585938 L 273.0625 636.113281 L 274.449219 646.386719 L 275.835938 648.523438 L 277.21875 653.21875 L 278.605469 646.257812 L 279.992188 641.234375 L 281.375 649.316406 L 282.761719 667.78125 L 284.148438 677.253906 L 285.53125 683.070312 L 286.917969 679.515625 L 288.304688 673.464844 L 289.6875 669.796875 L 291.074219 671.1875 L 292.460938 675.902344 L 293.84375 676.167969 L 295.230469 675.488281 L 296.617188 669.339844 L 298 673.386719 L 299.386719 672.484375 L 300.773438 663.382812 L 302.15625 661.160156 L 303.542969 654.394531 L 304.929688 650.808594 L 306.316406 643.582031 L 307.699219 646.109375 L 309.085938 644.019531 L 310.472656 641.035156 L 311.855469 628.257812 L 313.242188 622.214844 L 314.628906 626.488281 L 316.011719 643.707031 L 317.398438 650.304688 L 318.785156 658.71875 L 320.167969 662.789062 L 321.554688 660.550781 L 322.941406 661.046875 L 324.324219 659.351562 L 325.710938 669.882812 L 327.097656 667.859375 L 328.480469 672.769531 L 329.867188 669.050781 L 331.253906 673.910156 L 332.636719 673.015625 L 334.023438 669.851562 L 335.410156 664.167969 L 336.792969 657.378906 L 338.179688 653.871094 L 339.566406 662.007812 L 340.949219 666.59375 L 342.335938 666.015625 L 343.722656 659.992188 L 345.105469 660.015625 L 346.492188 654.410156 L 347.878906 658.9375 L 349.261719 662.425781 L 350.648438 659.417969 L 352.035156 663.132812 L 353.421875 660.980469 L 354.804688 660.863281 L 356.191406 658.8125 L 357.578125 661.152344 L 358.960938 662.101562 L 360.347656 663.8125 L 361.734375 670.898438 L 363.117188 670.398438 L 364.503906 675.382812 L 365.890625 682.613281 L 367.273438 682.109375 L 368.660156 675.902344 L 370.046875 669.5625 L 371.429688 674.617188 L 372.816406 679.226562 L 374.203125 681.695312 L 375.585938 690.210938 L 376.972656 692.371094 L 378.359375 698.535156 L 379.742188 696.851562 L 381.128906 699.007812 L 382.515625 699.703125 L 383.898438 700.339844 L 385.285156 697.257812 L 386.671875 698.507812 L 388.054688 701.867188 L 389.441406 704.179688 L 390.828125 701.011719 L 392.210938 693.863281 L 393.597656 690.808594 L 394.984375 695.113281 L 396.367188 709.0625 L 397.753906 717.8125 L 399.140625 719.078125 L 400.527344 715.5 L 401.910156 720.265625 L 403.296875 721.121094 L 404.683594 712.710938 L 406.066406 715.382812 L 407.453125 711.875 L 408.839844 715.925781 L 410.222656 722.867188 L 411.609375 727.136719 L 412.996094 716.632812 L 414.378906 709.988281 L 415.765625 710.855469 L 417.152344 711.707031 L 418.535156 714.332031 L 419.921875 721.742188 L 421.308594 721.359375 L 422.691406 719.433594 L 424.078125 713.390625 L 425.464844 705.132812 L 426.847656 698.757812 L 428.234375 697.796875 L 429.621094 701.238281 L 431.003906 704.5625 L 432.390625 700.894531 L 433.777344 692.90625 L 435.160156 688.074219 L 436.546875 693.964844 L 437.933594 698.257812 L 439.316406 695.492188 L 440.703125 693.015625 L 442.089844 687.210938 L 443.472656 682.320312 L 444.859375 683.742188 L 446.246094 686.753906 L 447.632812 694.636719 L 449.015625 691.105469 L 450.402344 689.492188 L 451.789062 696.734375 L 453.171875 700.925781 L 454.558594 702.398438 L 455.945312 701.695312 L 457.328125 701.527344 L 458.714844 691.980469 L 460.101562 678.855469 L 461.484375 680.753906 L 462.871094 676.921875 L 464.257812 675.367188 L 465.640625 671.390625 L 467.027344 673.753906 L 468.414062 670.476562 L 469.796875 666.027344 L 471.183594 660.722656 L 472.570312 651.976562 L 473.953125 641.894531 L 475.339844 637.039062 L 476.726562 635.175781 L 478.109375 636.320312 L 479.496094 629.105469 L 480.882812 617.332031 L 482.265625 610.132812 L 483.652344 607.53125 L 485.039062 613.886719 L 486.421875 625.695312 L 487.808594 622.15625 L 489.195312 619.410156 L 490.578125 618.261719 L 491.964844 623.015625 L 493.351562 625.96875 L 494.738281 638.039062 L 496.121094 640.589844 L 497.507812 631.027344 L 498.894531 621.550781 L 500.277344 614.707031 L 501.664062 610.679688 L 503.050781 604.570312 L 504.433594 602.148438 L 505.820312 600.710938 L 507.207031 596.132812 L 508.589844 583.832031 L 509.976562 579.148438 L 511.363281 570.058594 L 512.746094 558.980469 L 514.132812 555.195312 L 515.519531 548.742188 L 516.902344 538.839844 L 518.289062 528.195312 L 519.675781 508.03125 L 521.058594 490.375 L 522.445312 476.433594 L 523.832031 465.5 L 525.214844 457.320312 L 526.601562 444.863281 L 527.988281 437.699219 L 529.371094 432.390625 L 530.757812 422.859375 L 532.144531 417.703125 L 533.527344 408.308594 L 534.914062 402.542969 L 536.300781 402.886719 L 537.683594 399.980469 L 539.070312 394.671875 L 540.457031 390.269531 L 541.84375 382.25 L 543.226562 373.265625 L 544.613281 364.644531 L 546 358.507812 L 547.382812 360.984375 L 548.769531 351.863281 L 550.15625 338.125 L 551.539062 325.601562 L 552.925781 312.167969 L 554.3125 287.203125 L 555.695312 275.375 L 557.082031 268.015625 L 558.46875 253.542969 L 559.851562 237.039062 L 561.238281 221.179688 L 562.625 203.535156 L 564.007812 196.074219 L 565.394531 185 L 566.78125 181.507812 L 568.164062 181.660156 L 569.550781 178.53125 L 570.9375 172.917969 L 572.320312 167.375 L 573.707031 156.1875 L 575.09375 145.085938 L 576.476562 138.949219 L 577.863281 133.398438 L 579.25 135.378906 L 580.632812 132.234375 L 582.019531 137.453125 L 583.40625 140.855469 L 584.789062 151.429688 L 586.175781 156.664062 L 587.5625 152.335938 L 588.945312 151.4375 L 590.332031 156.011719 L 591.71875 150.78125 L 593.105469 153.941406 L 594.488281 147.066406 L 595.875 143.019531 L 597.261719 138.089844 L 598.644531 143.160156 L 600.03125 140.488281 L 601.417969 148.148438 L 602.800781 144.84375 L 604.1875 147.242188 L 605.574219 144.765625 L 606.957031 152.875 L 608.34375 165.589844 L 609.730469 177.703125 L 611.113281 184.367188 L 612.5 189.996094 L 613.886719 195.5 L 615.269531 202.582031 L 616.65625 211.496094 L 618.042969 216.726562 L 619.425781 213.355469 L 620.8125 216.925781 L 622.199219 222.113281 L 623.582031 229.496094 L 624.96875 231.355469 L 626.355469 218.960938 L 627.738281 214.371094 L 629.125 219.726562 L 630.511719 226.777344 L 631.894531 227.363281 L 633.28125 223.042969 L 634.667969 222.882812 L 636.054688 228.695312 L 637.4375 239.902344 L 638.824219 242.558594 L 640.210938 251.910156 L 641.59375 263.589844 L 642.980469 270.457031 L 644.367188 278.773438 L 645.75 278.648438 L 647.136719 277.097656 L 648.523438 276.570312 L 649.90625 276.605469 L 651.292969 283.488281 L 652.679688 281.871094 L 654.0625 278.925781 L 655.449219 277.441406 L 656.835938 272.519531 L 658.21875 279.835938 L 659.605469 286.3125 L 660.992188 292.78125 L 662.375 294.625 L 663.761719 294.828125 L 665.148438 289.820312 L 666.53125 286.183594 L 667.917969 291.945312 L 669.304688 290.917969 L 670.6875 293.585938 L 672.074219 295.222656 L 673.460938 296.082031 L 674.84375 299.277344 L 676.230469 299.179688 L 677.617188 305.902344 L 679 305.597656 L 680.386719 315.941406 L 681.773438 319.617188 L 683.15625 326.523438 L 684.542969 330.449219 L 685.929688 326.132812 L 687.316406 325.332031 L 688.699219 323.425781 L 690.085938 327.214844 L 691.472656 333.917969 L 692.855469 336.453125 L 694.242188 327.261719 L 695.628906 335.296875 L 697.011719 330.28125 L 698.398438 333.042969 L 699.785156 336.496094 L 701.167969 336.574219 L 702.554688 336.027344 L 703.941406 334.511719 L 705.324219 344.578125 L 706.710938 349.734375 L 708.097656 353.019531 L 709.480469 353.386719 L 710.867188 355.800781 L 712.253906 359.648438 L 713.636719 355.230469 L 715.023438 358.988281 L 716.410156 355.746094 L 717.792969 356.214844 L 719.179688 350.105469 L 720.566406 348.320312 L 721.949219 354.804688 L 723.335938 352.378906 L 724.722656 358.308594 L 726.105469 356.082031 L 727.492188 354.972656 L 728.878906 357.007812 L 730.261719 356.847656 L 731.648438 355.855469 L 733.035156 358.140625 L 734.421875 357.050781 L 735.804688 354.957031 L 737.191406 360.464844 L 738.578125 360.875 L 739.960938 354.941406 L 741.347656 354.042969 L 742.734375 349.339844 L 744.117188 353.003906 L 745.503906 359.269531 L 746.890625 364.9375 L 748.273438 371.847656 L 749.660156 375.445312 L 751.046875 380.449219 L 752.429688 374.351562 L 753.816406 373.648438 L 755.203125 374.984375 L 756.585938 379.605469 L 757.972656 386.960938 L 759.359375 392.542969 L 760.742188 385.542969 L 762.128906 385.332031 L 763.515625 383.398438 L 764.898438 381.9375 L 766.285156 378.347656 L 767.671875 376.605469 L 769.054688 375.53125 L 770.441406 379.074219 L 771.828125 381.292969 L 773.210938 380.890625 L 774.597656 380.21875 L 775.984375 380.15625 L 777.367188 369.933594 L 778.753906 367.257812 L 780.140625 377.589844 L 781.523438 384.390625 L 782.910156 393.515625 L 784.296875 392.492188 L 785.683594 389.027344 L 787.066406 394.851562 L 788.453125 397.019531 L 789.839844 402.25 L 791.222656 404.347656 L 792.609375 411.339844 L 793.996094 424.203125 L 795.378906 421.890625 L 796.765625 418.9375 L 798.152344 416.628906 L 799.535156 415.980469 L 800.921875 416.046875 L 802.308594 418.621094 L 803.691406 417.453125 L 805.078125 418.410156 L 806.464844 417.878906 L 807.847656 415.640625 L 809.234375 412.554688 L 810.621094 412.847656 L 812.003906 412.695312 L 813.390625 417.65625 L 814.777344 424.3125 L 816.160156 427.734375 L 817.546875 436.859375 L 818.933594 439.539062 L 820.316406 443.179688 L 821.703125 440.769531 L 823.089844 442.6875 L 824.472656 448.96875 L 825.859375 454.535156 L 827.246094 458.660156 L 828.632812 463.058594 L 830.015625 463.839844 L 831.402344 474.21875 L 832.789062 479.019531 L 834.171875 485.6875 L 835.558594 486.488281 L 836.945312 480.332031 L 838.328125 474.277344 L 839.714844 473.191406 L 841.101562 474.3125 L 842.484375 477.675781 L 843.871094 470.589844 L 845.257812 467.988281 L 846.640625 469.589844 L 848.027344 475.542969 L 849.414062 471.828125 L 850.796875 467.964844 L 852.183594 468.902344 L 853.570312 465.25 L 854.953125 471.335938 L 856.339844 478.949219 L 857.726562 483.570312 L 859.109375 486.332031 L 860.496094 488.222656 L 861.882812 490.03125 L 863.265625 495.207031 L 864.652344 500 L 866.039062 499.03125 L 867.421875 493.917969 L 868.808594 494.742188 L 870.195312 497.199219 L 871.578125 497.464844 L 872.964844 501.980469 L 874.351562 506.664062 L 875.734375 500.820312 L 877.121094 493.253906 L 878.507812 499.121094 L 879.894531 503.398438 L 881.277344 505.039062 L 882.664062 503.84375 L 884.050781 504.671875 L 885.433594 511.460938 L 886.820312 518.273438 L 888.207031 518.0625 L 889.589844 520.457031 L 890.976562 526.054688 L 892.363281 537.5 L 893.746094 537.84375 L 895.132812 540.066406 L 896.519531 543.601562 L 897.902344 543.832031 L 899.289062 546.246094 L 900.675781 555.097656 L 902.058594 560.261719 L 903.445312 560.195312 L 904.832031 554.785156 L 906.214844 552.421875 L 907.601562 545.289062 L 908.988281 548.019531 L 910.371094 547.808594 L 911.757812 544.960938 L 913.144531 544.570312 L 914.527344 548.550781 L 915.914062 537.140625 L 917.300781 532.679688 L 918.683594 528.195312 L 920.070312 526.285156 L 921.457031 535.351562 L 922.84375 539.101562 L 924.226562 541.65625 L 925.613281 539.027344 L 927 548.828125 L 928.382812 555.800781 L 929.769531 549.710938 L 931.15625 554.921875 L 932.539062 556.683594 L 933.925781 568.664062 L 935.3125 571.671875 L 936.695312 577.148438 L 938.082031 567.863281 L 939.46875 562.550781 L 940.851562 569.734375 L 942.238281 571.535156 L 943.625 577.589844 L 945.007812 580.988281 L 946.394531 575.484375 L 947.78125 566.863281 L 949.164062 568.253906 L 950.550781 563.347656 L 951.9375 569.984375 L 953.320312 568.34375 L 954.707031 572.171875 L 956.09375 564.257812 L 957.476562 564.800781 L 958.863281 562.878906 L 960.25 560.347656 L 961.632812 564.753906 L 963.019531 570.636719 L 964.40625 570.785156 L 965.789062 575.152344 L 967.175781 573.460938 L 968.5625 581.203125 L 969.945312 587.417969 L 971.332031 588.960938 L 972.71875 583.820312 L 974.105469 570.558594 L 975.488281 574.601562 L 976.875 569.234375 L 978.261719 567.523438 L 979.644531 571.152344 L 981.03125 574.390625 L 982.417969 573.449219 L 983.800781 572.460938 L 985.1875 560.671875 L 986.574219 560.71875 L 987.957031 561.644531 L 989.34375 565.058594 L 990.730469 566.300781 L 992.113281 569.703125 L 993.5 577.105469 L 994.886719 579.023438 L 996.269531 573.519531 L 997.65625 568.480469 L 999.042969 567.136719 L 1000.425781 572.683594 L 1001.8125 589.078125 L 1003.199219 596.933594 L 1004.582031 588.210938 L 1005.96875 587.609375 L 1007.355469 586.96875 L 1008.738281 588.917969 L 1010.125 590.089844 L 1011.511719 589.035156 L 1012.894531 597.410156 L 1014.28125 599.523438 L 1015.667969 600.03125 L 1017.050781 601.914062 L 1018.4375 602.570312 L 1019.824219 607.824219 L 1021.210938 604.46875 L 1022.59375 597.425781 L 1023.980469 590.457031 L 1025.367188 589.820312 L 1026.75 594.882812 L 1028.136719 598.789062 L 1029.523438 591.640625 L 1030.90625 586.542969 L 1032.292969 577.511719 L 1033.679688 572.96875 L 1035.0625 578.554688 L 1036.449219 583.570312 L 1037.835938 585.746094 L 1039.21875 581.289062 L 1040.605469 576.261719 L 1041.992188 573.800781 L 1043.375 574.578125 L 1044.761719 578.417969 L 1046.148438 580.324219 L 1047.53125 585.238281 L 1048.917969 596.605469 L 1050.304688 596.878906 L 1051.6875 596.652344 L 1053.074219 588.945312 L 1054.460938 587.878906 L 1055.84375 594.234375 L 1057.230469 590.445312 L 1058.617188 591.011719 L 1060 589.933594 L 1061.386719 591.171875 L 1062.773438 586.171875 L 1064.15625 588.476562 L 1065.542969 582.910156 L 1066.929688 581.804688 L 1068.3125 580.253906 L 1069.699219 583.027344 L 1071.085938 581.167969 L 1072.472656 581.875 L 1073.855469 586.867188 L 1075.242188 582.3125 L 1076.628906 579.96875 L 1078.011719 581.25 L 1079.398438 582.472656 L 1080.785156 586.941406 L 1082.167969 590.238281 L 1083.554688 593.304688 L 1084.941406 592.65625 L 1086.324219 590.042969 L 1087.710938 597.066406 L 1089.097656 589.21875 L 1090.480469 593.671875 L 1091.867188 593.660156 L 1093.253906 591.710938 L 1094.636719 588.324219 L 1096.023438 588.527344 L 1097.410156 587.347656 L 1098.792969 592.558594 L 1100.179688 591.1875 L 1101.566406 589.050781 L 1102.949219 584.664062 L 1104.335938 578.484375 L 1105.722656 577.570312 L 1107.105469 584.898438 L 1108.492188 584.984375 L 1109.878906 584.421875 L 1111.261719 583.449219 L 1112.648438 580.574219 L 1114.035156 580.648438 L 1115.421875 584.238281 L 1116.804688 578.523438 L 1118.191406 579.191406 L 1119.578125 574.839844 L 1120.960938 570.328125 L 1122.347656 570.433594 L 1123.734375 567.820312 L 1125.117188 567.660156 L 1126.503906 566.527344 L 1127.890625 562.542969 L 1129.273438 572.296875 L 1130.660156 574.773438 L 1132.046875 575.886719 "/>
<path fill="none" stroke-width="1" stroke-linecap="butt" stroke-linejoin="miter" stroke="rgb(0%, 0%, 0%)" stroke-opacity="1" stroke-miterlimit="1.154701" d="M 231.5 761.5 L 231.5 766.5 "/>
<path fill="none" stroke-width="1" stroke-linecap="butt" stroke-linejoin="miter" stroke="rgb(0%, 0%, 0%)" stroke-opacity="1" stroke-miterlimit="1.154701" d="M 439.316406 761.5 L 439.316406 766.5 "/>
<path fill="none" stroke-width="1" stroke-linecap="butt" stroke-linejoin="miter" stroke="rgb(0%, 0%, 0%)" stroke-opacity="1" stroke-miterlimit="1.154701" d="M 647.136719 761.5 L 647.136719 766.5 "/>
<path fill="none" stroke-width="1" stroke-linecap="butt" stroke-linejoin="miter" stroke="rgb(0%, 0%, 0%)" stroke-opacity="1" stroke-miterlimit="1.154701" d="M 854.953125 761.5 L 854.953125 766.5 "/>
<path fill="none" stroke-width="1" stroke-linecap="butt" stroke-linejoin="miter" stroke="rgb(0%, 0%, 0%)" stroke-opacity="1" stroke-miterlimit="1.154701" d="M 1062.773438 761.5 L 1062.773438 766.5 "/>
<path fill="none" stroke-width="1" stroke-linecap="butt" stroke-linejoin="miter" stroke="rgb(0%, 0%, 0%)" stroke-opacity="1" stroke-miterlimit="1.154701" d="M 40.5 731.066406 L 35.5 731.066406 "/>
<path fill="none" stroke-width="1" stroke-linecap="butt" stroke-linejoin="miter" stroke="rgb(0%, 0%, 0%)" stroke-opacity="1" stroke-miterlimit="1.154701" d="M 40.5 525.09375 L 35.5 525.09375 "/>
<path fill="none" stroke-width="1" stroke-linecap="butt" stroke-linejoin="miter" stroke="rgb(0%, 0%, 0%)" stroke-opacity="1" stroke-miterlimit="1.154701" d="M 40.5 319.121094 L 35.5 319.121094 "/>
<path fill="none" stroke-width="1" stroke-linecap="butt" stroke-linejoin="miter" stroke="rgb(0%, 0%, 0%)" stroke-opacity="1" stroke-miterlimit="1.154701" d="M 40.5 113.148438 L 35.5 113.148438 "/>
<path fill="none" stroke-width="1" stroke-linecap="butt" stroke-linejoin="miter" stroke="rgb(0%, 0%, 0%)" stroke-opacity="1" stroke-miterlimit="1.154701" d="M 40.5 761 L 1184.5 761 "/>
<path fill="none" stroke-width="1" stroke-linecap="butt" stroke-linejoin="miter" stroke="rgb(0%, 0%, 0%)" stroke-opacity="1" stroke-miterlimit="1.154701" d="M 41 761.5 L 41 15.5 "/>
<path fill="none" stroke-width="1" stroke-linecap="butt" stroke-linejoin="miter" stroke="rgb(0%, 0%, 0%)" stroke-opacity="1" stroke-miterlimit="1.154701" d="M 40.5 16 L 1184.5 16 "/>
<path fill="none" stroke-width="1" stroke-linecap="butt" stroke-linejoin="miter" stroke="rgb(0%, 0%, 0%)" stroke-opacity="1" stroke-miterlimit="1.154701" d="M 1184 761.5 L 1184 15.5 "/>
</svg>
