<?xml version="1.0" encoding="UTF-8"?>
<svg xmlns="http://www.w3.org/2000/svg" xmlns:xlink="http://www.w3.org/1999/xlink" width="1200" height="800" viewBox="0 0 1200 800">
<defs>
<g>
<g id="glyph-0-0-231a0885">
<path d="M 7.21875 -3.03125 C 7.21875 -3.03125 0.953125 -3.03125 0.953125 -3.03125 C 0.953125 -3.03125 0.953125 -3.96875 0.953125 -3.96875 C 0.953125 -3.96875 7.21875 -3.96875 7.21875 -3.96875 C 7.21875 -3.96875 7.21875 -3.03125 7.21875 -3.03125 Z M 7.21875 -3.03125 "/>
</g>
<g id="glyph-0-1-231a0885">
<path d="M 7.09375 -4.78125 C 7.09375 -1.515625 5.953125 0.203125 3.84375 0.203125 C 1.71875 0.203125 0.609375 -1.515625 0.609375 -4.859375 C 0.609375 -8.1875 1.703125 -9.921875 3.84375 -9.921875 C 6 -9.921875 7.09375 -8.21875 7.09375 -4.78125 Z M 5.84375 -4.890625 C 5.84375 -7.546875 5.1875 -8.828125 3.84375 -8.828125 C 2.515625 -8.828125 1.859375 -7.5625 1.859375 -4.84375 C 1.859375 -2.125 2.515625 -0.8125 3.828125 -0.8125 C 5.1875 -0.8125 5.84375 -2.078125 5.84375 -4.890625 Z M 5.84375 -4.890625 "/>
</g>
<g id="glyph-0-2-231a0885">
<path d="M 2.671875 0 C 2.671875 0 1.21875 0 1.21875 0 C 1.21875 0 1.21875 -1.453125 1.21875 -1.453125 C 1.21875 -1.453125 2.671875 -1.453125 2.671875 -1.453125 C 2.671875 -1.453125 2.671875 0 2.671875 0 Z M 2.671875 0 "/>
</g>
<g id="glyph-0-3-231a0885">
<path d="M 7.078125 -2.890625 C 7.078125 -1.015625 5.765625 0.203125 3.71875 0.203125 C 1.6875 0.203125 0.609375 -0.78125 0.453125 -3 C 0.453125 -3 1.6875 -3 1.6875 -3 C 1.765625 -1.546875 2.421875 -0.875 3.765625 -0.875 C 5.046875 -0.875 5.828125 -1.625 5.828125 -2.875 C 5.828125 -3.96875 5.125 -4.625 3.765625 -4.625 C 3.765625 -4.625 3.09375 -4.625 3.09375 -4.625 C 3.09375 -4.625 3.09375 -5.65625 3.09375 -5.65625 C 5.0625 -5.65625 5.53125 -6.09375 5.53125 -7.15625 C 5.53125 -8.203125 4.875 -8.84375 3.78125 -8.84375 C 2.515625 -8.84375 1.921875 -8.1875 1.890625 -6.71875 C 1.890625 -6.71875 0.65625 -6.71875 0.65625 -6.71875 C 0.703125 -8.828125 1.765625 -9.921875 3.765625 -9.921875 C 5.65625 -9.921875 6.796875 -8.90625 6.796875 -7.203125 C 6.796875 -6.203125 6.328125 -5.5625 5.40625 -5.1875 C 6.59375 -4.78125 7.078125 -4.09375 7.078125 -2.890625 Z M 7.078125 -2.890625 "/>
</g>
<g id="glyph-0-4-231a0885">
<path d="M 7.1875 -3.078125 C 7.1875 -1.140625 5.828125 0.203125 3.9375 0.203125 C 1.671875 0.203125 0.609375 -1.421875 0.609375 -4.515625 C 0.609375 -7.984375 1.84375 -9.921875 4.15625 -9.921875 C 5.671875 -9.921875 6.734375 -8.953125 6.96875 -7.34375 C 6.96875 -7.34375 5.734375 -7.34375 5.734375 -7.34375 C 5.546875 -8.28125 4.9375 -8.828125 4.078125 -8.828125 C 2.65625 -8.828125 1.875 -7.484375 1.859375 -5.0625 C 2.390625 -5.796875 3.15625 -6.171875 4.140625 -6.171875 C 5.921875 -6.171875 7.1875 -4.921875 7.1875 -3.078125 Z M 5.921875 -2.984375 C 5.921875 -4.3125 5.1875 -5.078125 3.984375 -5.078125 C 2.765625 -5.078125 1.9375 -4.28125 1.9375 -3.046875 C 1.9375 -1.78125 2.796875 -0.875 3.953125 -0.875 C 5.078125 -0.875 5.921875 -1.734375 5.921875 -2.984375 Z M 5.921875 -2.984375 "/>
</g>
<g id="glyph-0-5-231a0885">
<path d="M 7.125 -5.1875 C 7.125 -1.765625 5.875 0.203125 3.5625 0.203125 C 2.046875 0.203125 0.984375 -0.75 0.734375 -2.375 C 0.734375 -2.375 1.96875 -2.375 1.96875 -2.375 C 2.171875 -1.421875 2.765625 -0.875 3.640625 -0.875 C 5.046875 -0.875 5.84375 -2.21875 5.859375 -4.640625 C 5.203125 -3.875 4.515625 -3.546875 3.578125 -3.546875 C 1.796875 -3.546875 0.53125 -4.78125 0.53125 -6.640625 C 0.53125 -8.578125 1.890625 -9.921875 3.78125 -9.921875 C 6.046875 -9.921875 7.125 -8.296875 7.125 -5.1875 Z M 5.78125 -6.65625 C 5.78125 -7.953125 4.90625 -8.84375 3.765625 -8.84375 C 2.625 -8.84375 1.796875 -8 1.796875 -6.734375 C 1.796875 -5.40625 2.53125 -4.640625 3.71875 -4.640625 C 4.921875 -4.640625 5.78125 -5.453125 5.78125 -6.65625 Z M 5.78125 -6.65625 "/>
</g>
<g id="glyph-0-6-231a0885">
<path d="M 4.859375 0 C 4.859375 0 3.625 0 3.625 0 C 3.625 0 3.625 -7.0625 3.625 -7.0625 C 3.625 -7.0625 1.421875 -7.0625 1.421875 -7.0625 C 1.421875 -7.0625 1.421875 -7.953125 1.421875 -7.953125 C 3.328125 -8.1875 3.609375 -8.40625 4.046875 -9.921875 C 4.046875 -9.921875 4.859375 -9.921875 4.859375 -9.921875 C 4.859375 -9.921875 4.859375 0 4.859375 0 Z M 4.859375 0 "/>
</g>
<g id="glyph-1-0-231a0885">
<path d="M 7.09375 -4.78125 C 7.09375 -1.515625 5.953125 0.203125 3.84375 0.203125 C 1.71875 0.203125 0.609375 -1.515625 0.609375 -4.859375 C 0.609375 -8.1875 1.703125 -9.921875 3.84375 -9.921875 C 6 -9.921875 7.09375 -8.21875 7.09375 -4.78125 Z M 5.84375 -4.890625 C 5.84375 -7.546875 5.1875 -8.828125 3.84375 -8.828125 C 2.515625 -8.828125 1.859375 -7.5625 1.859375 -4.84375 C 1.859375 -2.125 2.515625 -0.8125 3.828125 -0.8125 C 5.1875 -0.8125 5.84375 -2.078125 5.84375 -4.890625 Z M 5.84375 -4.890625 "/>
</g>
<g id="glyph-1-1-231a0885">
<path d="M 4.859375 0 C 4.859375 0 3.625 0 3.625 0 C 3.625 0 3.625 -7.0625 3.625 -7.0625 C 3.625 -7.0625 1.421875 -7.0625 1.421875 -7.0625 C 1.421875 -7.0625 1.421875 -7.953125 1.421875 -7.953125 C 3.328125 -8.1875 3.609375 -8.40625 4.046875 -9.921875 C 4.046875 -9.921875 4.859375 -9.921875 4.859375 -9.921875 C 4.859375 -9.921875 4.859375 0 4.859375 0 Z M 4.859375 0 "/>
</g>
<g id="glyph-1-2-231a0885">
<path d="M 7.15625 -7.015625 C 7.15625 -5.796875 6.4375 -4.765625 5.046875 -4.015625 C 5.046875 -4.015625 3.65625 -3.265625 3.65625 -3.265625 C 2.4375 -2.546875 1.984375 -2.03125 1.859375 -1.21875 C 1.859375 -1.21875 7.078125 -1.21875 7.078125 -1.21875 C 7.078125 -1.21875 7.078125 0 7.078125 0 C 7.078125 0 0.46875 0 0.46875 0 C 0.59375 -2.1875 1.1875 -3.125 3.265625 -4.296875 C 3.265625 -4.296875 4.546875 -5.03125 4.546875 -5.03125 C 5.4375 -5.53125 5.890625 -6.203125 5.890625 -6.984375 C 5.890625 -8.046875 5.046875 -8.84375 3.9375 -8.84375 C 2.71875 -8.84375 2.03125 -8.140625 1.9375 -6.484375 C 1.9375 -6.484375 0.703125 -6.484375 0.703125 -6.484375 C 0.765625 -8.890625 1.953125 -9.921875 3.96875 -9.921875 C 5.859375 -9.921875 7.15625 -8.6875 7.15625 -7.015625 Z M 7.15625 -7.015625 "/>
</g>
</g>
</defs>
<rect x="-120" y="-80" width="1440" height="960" fill="rgb(100%, 100%, 100%)" fill-opacity="1"/>
<path fill-rule="nonzero" fill="rgb(100%, 100%, 100%)" fill-opacity="1" d="M 41 761 L 1184 761 L 1184 16 L 41 16 Z M 41 761 "/>
<path fill="none" stroke-width="1" stroke-linecap="butt" stroke-linejoin="miter" stroke="rgb(0%, 0%, 0%)" stroke-opacity="0.12" stroke-miterlimit="1.154701" d="M 231.5 761 L 231.5 16 "/>
<path fill="none" stroke-width="1" stroke-linecap="butt" stroke-linejoin="miter" stroke="rgb(0%, 0%, 0%)" stroke-opacity="0.12" stroke-miterlimit="1.154701" d="M 439.316406 761 L 439.316406 16 "/>
<path fill="none" stroke-width="1" stroke-linecap="butt" stroke-linejoin="miter" stroke="rgb(0%, 0%, 0%)" stroke-opacity="0.12" stroke-miterlimit="1.154701" d="M 647.136719 761 L 647.136719 16 "/>
<path fill="none" stroke-width="1" stroke-linecap="butt" stroke-linejoin="miter" stroke="rgb(0%, 0%, 0%)" stroke-opacity="0.12" stroke-miterlimit="1.154701" d="M 854.953125 761 L 854.953125 16 "/>
<path fill="none" stroke-width="1" stroke-linecap="butt" stroke-linejoin="miter" stroke="rgb(0%, 0%, 0%)" stroke-opacity="0.12" stroke-miterlimit="1.154701" d="M 1062.773438 761 L 1062.773438 16 "/>
<path fill="none" stroke-width="1" stroke-linecap="butt" stroke-linejoin="miter" stroke="rgb(0%, 0%, 0%)" stroke-opacity="0.12" stroke-miterlimit="1.154701" d="M 41 724.273438 L 1184 724.273438 "/>
<path fill="none" stroke-width="1" stroke-linecap="butt" stroke-linejoin="miter" stroke="rgb(0%, 0%, 0%)" stroke-opacity="0.12" stroke-miterlimit="1.154701" d="M 41 526.222656 L 1184 526.222656 "/>
<path fill="none" stroke-width="1" stroke-linecap="butt" stroke-linejoin="miter" stroke="rgb(0%, 0%, 0%)" stroke-opacity="0.12" stroke-miterlimit="1.154701" d="M 41 328.175781 L 1184 328.175781 "/>
<path fill="none" stroke-width="1" stroke-linecap="butt" stroke-linejoin="miter" stroke="rgb(0%, 0%, 0%)" stroke-opacity="0.12" stroke-miterlimit="1.154701" d="M 41 130.125 L 1184 130.125 "/>
<g fill="rgb(0%, 0%, 0%)" fill-opacity="1">
<use xlink:href="#glyph-0-0-231a0885" x="217.682005" y="782.258001"/>
</g>
<g fill="rgb(0%, 0%, 0%)" fill-opacity="1">
<use xlink:href="#glyph-0-1-231a0885" x="225.858005" y="782.258001"/>
</g>
<g fill="rgb(0%, 0%, 0%)" fill-opacity="1">
<use xlink:href="#glyph-0-2-231a0885" x="233.642005" y="782.258001"/>
</g>
<g fill="rgb(0%, 0%, 0%)" fill-opacity="1">
<use xlink:href="#glyph-0-3-231a0885" x="237.534005" y="782.258001"/>
</g>
<g fill="rgb(0%, 0%, 0%)" fill-opacity="1">
<use xlink:href="#glyph-0-1-231a0885" x="429.588187" y="782.258001"/>
</g>
<g fill="rgb(0%, 0%, 0%)" fill-opacity="1">
<use xlink:href="#glyph-0-2-231a0885" x="437.372187" y="782.258001"/>
</g>
<g fill="rgb(0%, 0%, 0%)" fill-opacity="1">
<use xlink:href="#glyph-0-1-231a0885" x="441.264187" y="782.258001"/>
</g>
<g fill="rgb(0%, 0%, 0%)" fill-opacity="1">
<use xlink:href="#glyph-0-1-231a0885" x="637.406368" y="782.258001"/>
</g>
<g fill="rgb(0%, 0%, 0%)" fill-opacity="1">
<use xlink:href="#glyph-0-2-231a0885" x="645.190369" y="782.258001"/>
</g>
<g fill="rgb(0%, 0%, 0%)" fill-opacity="1">
<use xlink:href="#glyph-0-3-231a0885" x="649.082368" y="782.258001"/>
</g>
<g fill="rgb(0%, 0%, 0%)" fill-opacity="1">
<use xlink:href="#glyph-0-1-231a0885" x="845.22455" y="782.258001"/>
</g>
<g fill="rgb(0%, 0%, 0%)" fill-opacity="1">
<use xlink:href="#glyph-0-2-231a0885" x="853.00855" y="782.258001"/>
</g>
<g fill="rgb(0%, 0%, 0%)" fill-opacity="1">
<use xlink:href="#glyph-0-4-231a0885" x="856.90055" y="782.258001"/>
</g>
<g fill="rgb(0%, 0%, 0%)" fill-opacity="1">
<use xlink:href="#glyph-0-1-231a0885" x="1053.042731" y="782.258001"/>
</g>
<g fill="rgb(0%, 0%, 0%)" fill-opacity="1">
<use xlink:href="#glyph-0-2-231a0885" x="1060.826731" y="782.258001"/>
</g>
<g fill="rgb(0%, 0%, 0%)" fill-opacity="1">
<use xlink:href="#glyph-0-5-231a0885" x="1064.718731" y="782.258001"/>
</g>
<g fill="rgb(0%, 0%, 0%)" fill-opacity="1">
<use xlink:href="#glyph-0-0-231a0885" x="15.040001" y="729.374997"/>
</g>
<g fill="rgb(0%, 0%, 0%)" fill-opacity="1">
<use xlink:href="#glyph-0-6-231a0885" x="23.216001" y="729.374997"/>
</g>
<g fill="rgb(0%, 0%, 0%)" fill-opacity="1">
<use xlink:href="#glyph-1-0-231a0885" x="23.216001" y="531.326486"/>
</g>
<g fill="rgb(0%, 0%, 0%)" fill-opacity="1">
<use xlink:href="#glyph-1-1-231a0885" x="23.216001" y="333.277968"/>
</g>
<g fill="rgb(0%, 0%, 0%)" fill-opacity="1">
<use xlink:href="#glyph-1-2-231a0885" x="23.216001" y="135.229419"/>
</g>
<path fill="none" stroke-width="3" stroke-linecap="butt" stroke-linejoin="miter" stroke="rgb(0%, 44.705883%, 69.803923%)" stroke-opacity="1" stroke-miterlimit="2" d="M 92.953125 603.464844 L 94.339844 603.90625 L 95.726562 606.578125 L 97.109375 611.566406 L 98.496094 603.578125 L 99.882812 601.039062 L 101.265625 600.207031 L 102.652344 601.566406 L 104.039062 603.539062 L 105.421875 603.246094 L 106.808594 603.152344 L 108.195312 608.941406 L 109.578125 608.28125 L 110.964844 612.132812 L 112.351562 610.292969 L 113.738281 609.152344 L 115.121094 605.601562 L 116.507812 607.75 L 117.894531 607.484375 L 119.277344 609.804688 L 120.664062 601.253906 L 122.050781 596.710938 L 123.433594 599.484375 L 124.820312 597.535156 L 126.207031 601.75 L 127.589844 607.070312 L 128.976562 608.183594 L 130.363281 605.898438 L 131.746094 605.402344 L 133.132812 606.582031 L 134.519531 607.191406 L 135.902344 606.917969 L 137.289062 609.046875 L 138.675781 609.964844 L 140.058594 610.839844 L 141.445312 605.464844 L 142.832031 609.902344 L 144.214844 615.503906 L 145.601562 617.59375 L 146.988281 618.921875 L 148.371094 616.941406 L 149.757812 614.167969 L 151.144531 617.175781 L 152.527344 619.53125 L 153.914062 615.1875 L 155.300781 615.519531 L 156.683594 617.257812 L 158.070312 617.273438 L 159.457031 614.613281 L 160.84375 608.660156 L 162.226562 605.503906 L 163.613281 605.277344 L 165 605.925781 L 166.382812 606.546875 L 167.769531 603.433594 L 169.15625 603.28125 L 170.539062 605.125 L 171.925781 607.273438 L 173.3125 603.09375 L 174.695312 604.023438 L 176.082031 601.179688 L 177.46875 601.800781 L 178.851562 598.867188 L 180.238281 589.332031 L 181.625 592.667969 L 183.007812 589.949219 L 184.394531 597.445312 L 185.78125 600.683594 L 187.164062 598.292969 L 188.550781 594.230469 L 189.9375 597.324219 L 191.320312 601.734375 L 192.707031 602.265625 L 194.09375 606.75 L 195.476562 607.097656 L 196.863281 601.992188 L 198.25 600.480469 L 199.632812 602.453125 L 201.019531 609.578125 L 202.40625 612.117188 L 203.789062 618.25 L 205.175781 622.4375 L 206.5625 621.121094 L 207.949219 620.089844 L 209.332031 616.121094 L 210.71875 610.875 L 212.105469 614.203125 L 213.488281 620.8125 L 214.875 624.785156 L 216.261719 626.125 L 217.644531 629.917969 L 219.03125 632.664062 L 220.417969 625.605469 L 221.800781 629.746094 L 223.1875 634.984375 L 224.574219 636.414062 L 225.957031 632.195312 L 227.34375 625.898438 L 228.730469 627.640625 L 230.113281 629.65625 L 231.5 627.234375 L 232.886719 626.074219 L 234.269531 619.285156 L 235.65625 622.355469 L 237.042969 621.738281 L 238.425781 621.648438 L 239.8125 620.742188 L 241.199219 607.636719 L 242.582031 602.417969 L 243.96875 609.171875 L 245.355469 613 L 246.738281 611.976562 L 248.125 610.53125 L 249.511719 608.285156 L 250.894531 611.484375 L 252.28125 609.792969 L 253.667969 610.492188 L 255.054688 606.703125 L 256.4375 609.453125 L 257.824219 607.519531 L 259.210938 607.601562 L 260.59375 601.492188 L 261.980469 607.988281 L 263.367188 616.078125 L 264.75 616.796875 L 266.136719 613.8125 L 267.523438 612.492188 L 268.90625 615.328125 L 270.292969 616.804688 L 271.679688 612.113281 L 273.0625 610.460938 L 274.449219 614.085938 L 275.835938 610.757812 L 277.21875 614.476562 L 278.605469 614.226562 L 279.992188 610.59375 L 281.375 607.355469 L 282.761719 606.652344 L 284.148438 611.667969 L 285.53125 613.542969 L 286.917969 614.78125 L 288.304688 613.28125 L 289.6875 612.195312 L 291.074219 617.195312 L 292.460938 620.867188 L 293.84375 621.378906 L 295.230469 618.496094 L 296.617188 620.511719 L 298 627.65625 L 299.386719 632.214844 L 300.773438 626.4375 L 302.15625 626.300781 L 303.542969 627.703125 L 304.929688 628.058594 L 306.316406 622.382812 L 307.699219 623.976562 L 309.085938 624.535156 L 310.472656 628.851562 L 311.855469 628.699219 L 313.242188 626.910156 L 314.628906 629.140625 L 316.011719 633.089844 L 317.398438 639.996094 L 318.785156 644.742188 L 320.167969 645.636719 L 321.554688 655.003906 L 322.941406 659.597656 L 324.324219 663.804688 L 325.710938 654.667969 L 327.097656 649.164062 L 328.480469 653.4375 L 329.867188 653.554688 L 331.253906 653.210938 L 332.636719 653.28125 L 334.023438 657.359375 L 335.410156 655.671875 L 336.792969 656.6875 L 338.179688 666.804688 L 339.566406 670.335938 L 340.949219 677.386719 L 342.335938 678.535156 L 343.722656 672.460938 L 345.105469 673.097656 L 346.492188 682.292969 L 347.878906 687.851562 L 349.261719 686.339844 L 350.648438 683.496094 L 352.035156 695.949219 L 353.421875 704.175781 L 354.804688 705.136719 L 356.191406 701.191406 L 357.578125 701.742188 L 358.960938 698.796875 L 360.347656 701.726562 L 361.734375 701.488281 L 363.117188 697.109375 L 364.503906 694.574219 L 365.890625 699.101562 L 367.273438 701.871094 L 368.660156 700.277344 L 370.046875 703.347656 L 371.429688 703.84375 L 372.816406 705.632812 L 374.203125 708.085938 L 375.585938 713.019531 L 376.972656 716.867188 L 378.359375 713.367188 L 379.742188 711.890625 L 381.128906 709.675781 L 382.515625 710.570312 L 383.898438 712.0625 L 385.285156 711.113281 L 386.671875 715.175781 L 388.054688 714.859375 L 389.441406 721.179688 L 390.828125 719.859375 L 392.210938 715.792969 L 393.597656 717.410156 L 394.984375 717.625 L 396.367188 724.699219 L 397.753906 727.136719 L 399.140625 726.386719 L 400.527344 722.675781 L 401.910156 721.785156 L 403.296875 721.292969 L 404.683594 717.847656 L 406.066406 717.785156 L 407.453125 720.523438 L 408.839844 719.6875 L 410.222656 721.25 L 411.609375 725.042969 L 412.996094 722.03125 L 414.378906 720.191406 L 415.765625 716.667969 L 417.152344 710.910156 L 418.535156 712.863281 L 419.921875 724.804688 L 421.308594 717.75 L 422.691406 708.621094 L 424.078125 698.953125 L 425.464844 698.117188 L 426.847656 698.480469 L 428.234375 700.417969 L 429.621094 699.675781 L 431.003906 706.039062 L 432.390625 713.074219 L 433.777344 716.03125 L 435.160156 701.234375 L 436.546875 694.773438 L 437.933594 684.511719 L 439.316406 681.210938 L 440.703125 684.75 L 442.089844 676.53125 L 443.472656 670.683594 L 444.859375 664.492188 L 446.246094 666.898438 L 447.632812 671.976562 L 449.015625 678.910156 L 450.402344 681.832031 L 451.789062 687.796875 L 453.171875 699.210938 L 454.558594 706.324219 L 455.945312 705.828125 L 457.328125 712.09375 L 458.714844 707.683594 L 460.101562 700.171875 L 461.484375 699.09375 L 462.871094 701.722656 L 464.257812 705.476562 L 465.640625 701.820312 L 467.027344 705.734375 L 468.414062 696.800781 L 469.796875 689.839844 L 471.183594 686.539062 L 472.570312 682.359375 L 473.953125 671.382812 L 475.339844 657.835938 L 476.726562 649.21875 L 478.109375 643.871094 L 479.496094 640.992188 L 480.882812 643.292969 L 482.265625 641.398438 L 483.652344 638.703125 L 485.039062 640.210938 L 486.421875 648.328125 L 487.808594 658.109375 L 489.195312 664.488281 L 490.578125 669.316406 L 491.964844 675.113281 L 493.351562 674.257812 L 494.738281 676.925781 L 496.121094 676.273438 L 497.507812 669.71875 L 498.894531 664.042969 L 500.277344 664.65625 L 501.664062 652.082031 L 503.050781 640.667969 L 504.433594 637.335938 L 505.820312 629.015625 L 507.207031 621.539062 L 508.589844 611.996094 L 509.976562 610.394531 L 511.363281 599.101562 L 512.746094 587.46875 L 514.132812 579.441406 L 515.519531 562.992188 L 516.902344 551.59375 L 518.289062 540.664062 L 519.675781 530.410156 L 521.058594 518.574219 L 522.445312 507.464844 L 523.832031 494.066406 L 525.214844 479.074219 L 526.601562 466.671875 L 527.988281 458.363281 L 529.371094 450.75 L 530.757812 439.179688 L 532.144531 427.46875 L 533.527344 413.488281 L 534.914062 403.792969 L 536.300781 394.414062 L 537.683594 393.902344 L 539.070312 385.632812 L 540.457031 376.984375 L 541.84375 373.355469 L 543.226562 367.113281 L 544.613281 363.011719 L 546 353.671875 L 547.382812 344.460938 L 548.769531 338.144531 L 550.15625 335.164062 L 551.539062 320.835938 L 552.925781 310.789062 L 554.3125 294.121094 L 555.695312 281.375 L 557.082031 278.40625 L 558.46875 264.152344 L 559.851562 251.230469 L 561.238281 239.992188 L 562.625 222.132812 L 564.007812 209.4375 L 565.394531 196.898438 L 566.78125 183.933594 L 568.164062 169.535156 L 569.550781 161.023438 L 570.9375 151.6875 L 572.320312 140.59375 L 573.707031 128.519531 L 575.09375 123.453125 L 576.476562 121.238281 L 577.863281 113.035156 L 579.25 111.566406 L 580.632812 112.90625 L 582.019531 103.429688 L 583.40625 105.128906 L 584.789062 102.714844 L 586.175781 106.554688 L 587.5625 106.800781 L 588.945312 112.703125 L 590.332031 122.902344 L 591.71875 122.714844 L 593.105469 122.148438 L 594.488281 118.269531 L 595.875 122.875 L 597.261719 120.394531 L 598.644531 120.324219 L 600.03125 117.5625 L 601.417969 123.96875 L 602.800781 128.710938 L 604.1875 134.816406 L 605.574219 140.238281 L 606.957031 140.152344 L 608.34375 143.851562 L 609.730469 150.371094 L 611.113281 151.640625 L 612.5 147.789062 L 613.886719 155.910156 L 615.269531 163.132812 L 616.65625 168.003906 L 618.042969 172.230469 L 619.425781 172.804688 L 620.8125 180.9375 L 622.199219 187 L 623.582031 190.421875 L 624.96875 195.097656 L 626.355469 199.582031 L 627.738281 201.8125 L 629.125 207.878906 L 630.511719 215.992188 L 631.894531 224.476562 L 633.28125 215.972656 L 634.667969 223.59375 L 636.054688 230.914062 L 637.4375 233.550781 L 638.824219 236.324219 L 640.210938 238.597656 L 641.59375 242.695312 L 642.980469 255.0625 L 644.367188 260.09375 L 645.75 257.550781 L 647.136719 243.992188 L 648.523438 252.324219 L 649.90625 260.507812 L 651.292969 262.414062 L 652.679688 263.820312 L 654.0625 262.035156 L 655.449219 256.953125 L 656.835938 263.71875 L 658.21875 268.765625 L 659.605469 279.304688 L 660.992188 284.453125 L 662.375 290.015625 L 663.761719 292.863281 L 665.148438 295.304688 L 666.53125 296.234375 L 667.917969 294.964844 L 669.304688 293.25 L 670.6875 295.695312 L 672.074219 294.660156 L 673.460938 297.21875 L 674.84375 300.242188 L 676.230469 296.496094 L 677.617188 296.003906 L 679 293.820312 L 680.386719 291.738281 L 681.773438 291.109375 L 683.15625 296.660156 L 684.542969 305.621094 L 685.929688 303.742188 L 687.316406 299.015625 L 688.699219 298.78125 L 690.085938 298.941406 L 691.472656 299.898438 L 692.855469 303.539062 L 694.242188 299.035156 L 695.628906 299.136719 L 697.011719 303.273438 L 698.398438 310.753906 L 699.785156 319.511719 L 701.167969 317.066406 L 702.554688 312.273438 L 703.941406 307.945312 L 705.324219 312.054688 L 706.710938 322.53125 L 708.097656 323.421875 L 709.480469 326.441406 L 710.867188 322.84375 L 712.253906 320.726562 L 713.636719 319.617188 L 715.023438 319.320312 L 716.410156 317.84375 L 717.792969 314.832031 L 719.179688 315.113281 L 720.566406 306.253906 L 721.949219 301.691406 L 723.335938 301.046875 L 724.722656 303.34375 L 726.105469 306.824219 L 727.492188 307.320312 L 728.878906 311.121094 L 730.261719 314.515625 L 731.648438 315.347656 L 733.035156 312.535156 L 734.421875 309.488281 L 735.804688 304.453125 L 737.191406 301.960938 L 738.578125 308.167969 L 739.960938 310.683594 L 741.347656 315.425781 L 742.734375 311.011719 L 744.117188 311.042969 L 745.503906 310.121094 L 746.890625 305.128906 L 748.273438 305.226562 L 749.660156 307.863281 L 751.046875 308.054688 L 752.429688 310.761719 L 753.816406 306.5625 L 755.203125 300.761719 L 756.585938 300.964844 L 757.972656 304.511719 L 759.359375 306.777344 L 760.742188 309.476562 L 762.128906 308.609375 L 763.515625 307.53125 L 764.898438 308.761719 L 766.285156 306.421875 L 767.671875 310.40625 L 769.054688 316.132812 L 770.441406 315.601562 L 771.828125 314.667969 L 773.210938 319.5 L 774.597656 316.867188 L 775.984375 320.171875 L 777.367188 322.738281 L 778.753906 322.550781 L 780.140625 328.46875 L 781.523438 333.253906 L 782.910156 338.453125 L 784.296875 347.582031 L 785.683594 343.671875 L 787.066406 339.394531 L 788.453125 333.257812 L 789.839844 337.222656 L 791.222656 341.253906 L 792.609375 345.179688 L 793.996094 348.417969 L 795.378906 350.160156 L 796.765625 356.550781 L 798.152344 354.101562 L 799.535156 350.097656 L 800.921875 348.886719 L 802.308594 363.019531 L 803.691406 372.945312 L 805.078125 379.199219 L 806.464844 379.410156 L 807.847656 376.273438 L 809.234375 372.242188 L 810.621094 377.054688 L 812.003906 379.90625 L 813.390625 388.3125 L 814.777344 390.648438 L 816.160156 394.761719 L 817.546875 406.191406 L 818.933594 409.476562 L 820.316406 413.433594 L 821.703125 419.484375 L 823.089844 417.390625 L 824.472656 418.410156 L 825.859375 424.792969 L 827.246094 427.28125 L 828.632812 426.394531 L 830.015625 426.011719 L 831.402344 426.683594 L 832.789062 428.308594 L 834.171875 427.589844 L 835.558594 423.292969 L 836.945312 424.5625 L 838.328125 428.214844 L 839.714844 432.839844 L 841.101562 434.589844 L 842.484375 433.410156 L 843.871094 434.441406 L 845.257812 435.375 L 846.640625 439.425781 L 848.027344 438.132812 L 849.414062 438.527344 L 850.796875 443.449219 L 852.183594 447.695312 L 853.570312 445.742188 L 854.953125 439.933594 L 856.339844 444.558594 L 857.726562 451.304688 L 859.109375 455.675781 L 860.496094 455.765625 L 861.882812 453.570312 L 863.265625 453.972656 L 864.652344 456.3125 L 866.039062 457.964844 L 867.421875 455.804688 L 868.808594 451.855469 L 870.195312 451.910156 L 871.578125 457.871094 L 872.964844 459.921875 L 874.351562 459.769531 L 875.734375 458.1875 L 877.121094 463.277344 L 878.507812 463.410156 L 879.894531 470.285156 L 881.277344 467.039062 L 882.664062 467.664062 L 884.050781 482.171875 L 885.433594 498.796875 L 886.820312 502.289062 L 888.207031 494.445312 L 889.589844 492.621094 L 890.976562 495.828125 L 892.363281 503.386719 L 893.746094 507.207031 L 895.132812 502.640625 L 896.519531 499.085938 L 897.902344 495.832031 L 899.289062 489.949219 L 900.675781 492.0625 L 902.058594 498.226562 L 903.445312 506.925781 L 904.832031 508.007812 L 906.214844 506.726562 L 907.601562 506.40625 L 908.988281 506.277344 L 910.371094 505.746094 L 911.757812 502.402344 L 913.144531 506.4375 L 914.527344 512.0625 L 915.914062 514.65625 L 917.300781 509.808594 L 918.683594 509.992188 L 920.070312 516.925781 L 921.457031 520.757812 L 922.84375 517.976562 L 924.226562 527.257812 L 925.613281 526.664062 L 927 529.039062 L 928.382812 532.988281 L 929.769531 532.511719 L 931.15625 528.480469 L 932.539062 531.8125 L 933.925781 534.164062 L 935.3125 536.726562 L 936.695312 537.824219 L 938.082031 529.316406 L 939.46875 527.253906 L 940.851562 525.832031 L 942.238281 519.957031 L 943.625 520.09375 L 945.007812 520.148438 L 946.394531 515.949219 L 947.78125 512.957031 L 949.164062 512.671875 L 950.550781 511.585938 L 951.9375 517.707031 L 953.320312 521.429688 L 954.707031 529.558594 L 956.09375 530.59375 L 957.476562 528.96875 L 958.863281 526.019531 L 960.25 531.3125 L 961.632812 531.398438 L 963.019531 535.667969 L 964.40625 539.96875 L 965.789062 544.441406 L 967.175781 546.324219 L 968.5625 543.21875 L 969.945312 545.242188 L 971.332031 546.640625 L 972.71875 543.773438 L 974.105469 543.214844 L 975.488281 542.488281 L 976.875 536.292969 L 978.261719 530.046875 L 979.644531 529.078125 L 981.03125 529.09375 L 982.417969 533.019531 L 983.800781 526.359375 L 985.1875 526.449219 L 986.574219 526.550781 L 987.957031 529.527344 L 989.34375 528.914062 L 990.730469 528.484375 L 992.113281 532.519531 L 993.5 540.527344 L 994.886719 545.121094 L 996.269531 544.824219 L 997.65625 550.28125 L 999.042969 555.390625 L 1000.425781 559.832031 L 1001.8125 560.425781 L 1003.199219 556.582031 L 1004.582031 549.425781 L 1005.96875 554.257812 L 1007.355469 557.992188 L 1008.738281 559.269531 L 1010.125 553.992188 L 1011.511719 548.65625 L 1012.894531 545.753906 L 1014.28125 541.066406 L 1015.667969 540.457031 L 1017.050781 544.109375 L 1018.4375 545.78125 L 1019.824219 548.273438 L 1021.210938 550.160156 L 1022.59375 548.695312 L 1023.980469 551.101562 L 1025.367188 549.714844 L 1026.75 551.523438 L 1028.136719 555.734375 L 1029.523438 554.535156 L 1030.90625 557.539062 L 1032.292969 558.820312 L 1033.679688 559.84375 L 1035.0625 565.417969 L 1036.449219 562.101562 L 1037.835938 560.664062 L 1039.21875 552.253906 L 1040.605469 551.007812 L 1041.992188 550.753906 L 1043.375 548.746094 L 1044.761719 542 L 1046.148438 541.152344 L 1047.53125 538.597656 L 1048.917969 538.105469 L 1050.304688 538.910156 L 1051.6875 542.664062 L 1053.074219 543.316406 L 1054.460938 552.515625 L 1055.84375 556.289062 L 1057.230469 554.574219 L 1058.617188 553.8125 L 1060 560.25 L 1061.386719 563.492188 L 1062.773438 562.347656 L 1064.15625 558.003906 L 1065.542969 555.859375 L 1066.929688 563.882812 L 1068.3125 569.101562 L 1069.699219 573.164062 L 1071.085938 565.0625 L 1072.472656 568.207031 L 1073.855469 567.375 L 1075.242188 567.601562 L 1076.628906 566.746094 L 1078.011719 567.636719 L 1079.398438 573.84375 L 1080.785156 567.136719 L 1082.167969 576.121094 L 1083.554688 583.289062 L 1084.941406 587.957031 L 1086.324219 584.492188 L 1087.710938 580.695312 L 1089.097656 578.003906 L 1090.480469 575.304688 L 1091.867188 574.820312 L 1093.253906 575.574219 L 1094.636719 577.492188 L 1096.023438 582.058594 L 1097.410156 588.34375 L 1098.792969 588.019531 L 1100.179688 592.433594 L 1101.566406 586.476562 L 1102.949219 591.363281 L 1104.335938 591.023438 L 1105.722656 592.824219 L 1107.105469 591.382812 L 1108.492188 595.398438 L 1109.878906 590.164062 L 1111.261719 582.792969 L 1112.648438 579.347656 L 1114.035156 582.355469 L 1115.421875 584.367188 L 1116.804688 590.367188 L 1118.191406 591.023438 L 1119.578125 588.863281 L 1120.960938 586.410156 L 1122.347656 585.867188 L 1123.734375 592.085938 L 1125.117188 593.226562 L 1126.503906 595.277344 L 1127.890625 594.816406 L 1129.273438 596.332031 L 1130.660156 593.378906 L 1132.046875 597.882812 "/>
<path fill="none" stroke-width="3" stroke-linecap="butt" stroke-linejoin="miter" stroke="rgb(90.196079%, 62.352943%, 0%)" stroke-opacity="1" stroke-miterlimit="2" d="M 92.953125 592.332031 L 94.339844 591.304688 L 95.726562 583.964844 L 97.109375 589.652344 L 98.496094 598.953125 L 99.882812 601.226562 L 101.265625 598.738281 L 102.652344 601.691406 L 104.039062 598.761719 L 105.421875 591.324219 L 106.808594 587.863281 L 108.195312 588.390625 L 109.578125 604.859375 L 110.964844 609.03125 L 112.351562 613.304688 L 113.738281 604.9375 L 115.121094 603.03125 L 116.507812 592.144531 L 117.894531 588.144531 L 119.277344 584.027344 L 120.664062 584.726562 L 122.050781 579.152344 L 123.433594 572.597656 L 124.820312 576.179688 L 126.207031 582.980469 L 127.589844 584.609375 L 128.976562 584.246094 L 130.363281 584.289062 L 131.746094 590.78125 L 133.132812 596.835938 L 134.519531 605.9375 L 135.902344 611.203125 L 137.289062 615.246094 L 138.675781 615.933594 L 140.058594 615.347656 L 141.445312 610.480469 L 142.832031 615.769531 L 144.214844 613.59375 L 145.601562 612.214844 L 146.988281 610.800781 L 148.371094 606.53125 L 149.757812 598.449219 L 151.144531 597.074219 L 152.527344 593.351562 L 153.914062 593.011719 L 155.300781 591.371094 L 156.683594 594.957031 L 158.070312 598.976562 L 159.457031 591.46875 L 160.84375 589.242188 L 162.226562 589.269531 L 163.613281 596.207031 L 165 600.742188 L 166.382812 609.785156 L 167.769531 611.769531 L 169.15625 621.179688 L 170.539062 611.773438 L 171.925781 605.628906 L 173.3125 597.664062 L 174.695312 594.714844 L 176.082031 594.929688 L 177.46875 599.71875 L 178.851562 603.742188 L 180.238281 601.714844 L 181.625 604.953125 L 183.007812 604.960938 L 184.394531 600.957031 L 185.78125 594.347656 L 187.164062 598.285156 L 188.550781 600.644531 L 189.9375 600.636719 L 191.320312 604.023438 L 192.707031 606.65625 L 194.09375 607.90625 L 195.476562 603.277344 L 196.863281 600.125 L 198.25 597.5 L 199.632812 603.421875 L 201.019531 609.839844 L 202.40625 618.929688 L 203.789062 615.347656 L 205.175781 618.78125 L 206.5625 621.007812 L 207.949219 620.367188 L 209.332031 621.398438 L 210.71875 620.042969 L 212.105469 619.742188 L 213.488281 618.898438 L 214.875 618.296875 L 216.261719 619.425781 L 217.644531 610.9375 L 219.03125 607.480469 L 220.417969 605.554688 L 221.800781 607.160156 L 223.1875 609.75 L 224.574219 613.652344 L 225.957031 617.160156 L 227.34375 609.125 L 228.730469 615.84375 L 230.113281 615.160156 L 231.5 617.339844 L 232.886719 615.898438 L 234.269531 618.609375 L 235.65625 622.503906 L 237.042969 624.34375 L 238.425781 628.816406 L 239.8125 616.246094 L 241.199219 611.675781 L 242.582031 611.050781 L 243.96875 605.261719 L 245.355469 605.773438 L 246.738281 619.917969 L 248.125 621.40625 L 249.511719 619.445312 L 250.894531 613.34375 L 252.28125 610.683594 L 253.667969 612.160156 L 255.054688 611.234375 L 256.4375 612.769531 L 257.824219 602.253906 L 259.210938 602.53125 L 260.59375 599.558594 L 261.980469 604.039062 L 263.367188 595.21875 L 264.75 593.03125 L 266.136719 594.691406 L 267.523438 612.644531 L 268.90625 620.988281 L 270.292969 622.667969 L 271.679688 618.320312 L 273.0625 603.132812 L 274.449219 612.960938 L 275.835938 621.429688 L 277.21875 636.003906 L 278.605469 634.808594 L 279.992188 634.992188 L 281.375 640.96875 L 282.761719 642.113281 L 284.148438 646.199219 L 285.53125 641.414062 L 286.917969 639.507812 L 288.304688 633.195312 L 289.6875 628.886719 L 291.074219 631.269531 L 292.460938 632.695312 L 293.84375 640.59375 L 295.230469 640.28125 L 296.617188 636.046875 L 298 647.648438 L 299.386719 646.171875 L 300.773438 634.914062 L 302.15625 628.503906 L 303.542969 621.074219 L 304.929688 624.113281 L 306.316406 624.496094 L 307.699219 621.933594 L 309.085938 624.316406 L 310.472656 631.625 L 311.855469 626.117188 L 313.242188 623.167969 L 314.628906 623.757812 L 316.011719 624.820312 L 317.398438 625.359375 L 318.785156 633.382812 L 320.167969 644.65625 L 321.554688 645.667969 L 322.941406 647.792969 L 324.324219 649.375 L 325.710938 653.671875 L 327.097656 659.902344 L 328.480469 660.839844 L 329.867188 661.292969 L 331.253906 668.113281 L 332.636719 673.144531 L 334.023438 666.476562 L 335.410156 660.882812 L 336.792969 656.28125 L 338.179688 655.03125 L 339.566406 659.703125 L 340.949219 663.179688 L 342.335938 658.203125 L 343.722656 652.847656 L 345.105469 658.703125 L 346.492188 659.546875 L 347.878906 663.269531 L 349.261719 666.046875 L 350.648438 662.027344 L 352.035156 659.242188 L 353.421875 663.113281 L 354.804688 664.808594 L 356.191406 670.808594 L 357.578125 668.765625 L 358.960938 670.667969 L 360.347656 676.179688 L 361.734375 681.910156 L 363.117188 688.773438 L 364.503906 688.378906 L 365.890625 695.6875 L 367.273438 695.183594 L 368.660156 690.589844 L 370.046875 687.507812 L 371.429688 691.839844 L 372.816406 692.570312 L 374.203125 701.132812 L 375.585938 698.390625 L 376.972656 705.695312 L 378.359375 694.179688 L 379.742188 702.546875 L 381.128906 709.644531 L 382.515625 712.820312 L 383.898438 714 L 385.285156 709.101562 L 386.671875 699.683594 L 388.054688 693.628906 L 389.441406 697.929688 L 390.828125 703.921875 L 392.210938 698.675781 L 393.597656 698.394531 L 394.984375 700.921875 L 396.367188 707.527344 L 397.753906 704.640625 L 399.140625 707.6875 L 400.527344 705.105469 L 401.910156 707.585938 L 403.296875 706.226562 L 404.683594 710.445312 L 406.066406 707.210938 L 407.453125 705.359375 L 408.839844 705.292969 L 410.222656 704.996094 L 411.609375 704.261719 L 412.996094 700.753906 L 414.378906 700.578125 L 415.765625 696.816406 L 417.152344 690.519531 L 418.535156 688.765625 L 419.921875 685.230469 L 421.308594 685.589844 L 422.691406 686.019531 L 424.078125 681.152344 L 425.464844 674.851562 L 426.847656 665.785156 L 428.234375 670.011719 L 429.621094 666.375 L 431.003906 667.910156 L 432.390625 667.238281 L 433.777344 670.039062 L 435.160156 675.492188 L 436.546875 679.0625 L 437.933594 678.148438 L 439.316406 677.195312 L 440.703125 673.15625 L 442.089844 669.53125 L 443.472656 661.714844 L 444.859375 656.605469 L 446.246094 663.761719 L 447.632812 671.394531 L 449.015625 679.949219 L 450.402344 684.632812 L 451.789062 691.054688 L 453.171875 685.328125 L 454.558594 683.269531 L 455.945312 680.625 L 457.328125 678.671875 L 458.714844 672.914062 L 460.101562 665.886719 L 461.484375 665.863281 L 462.871094 662.558594 L 464.257812 658.34375 L 465.640625 652.714844 L 467.027344 655.988281 L 468.414062 661.304688 L 469.796875 656.867188 L 471.183594 648.796875 L 472.570312 641.699219 L 473.953125 628.578125 L 475.339844 621.386719 L 476.726562 618.09375 L 478.109375 608.625 L 479.496094 601.136719 L 480.882812 591.542969 L 482.265625 583.785156 L 483.652344 583.753906 L 485.039062 586.613281 L 486.421875 591.421875 L 487.808594 599 L 489.195312 602.480469 L 490.578125 598.484375 L 491.964844 598.417969 L 493.351562 597.46875 L 494.738281 590.175781 L 496.121094 584.703125 L 497.507812 577.207031 L 498.894531 574.285156 L 500.277344 561.097656 L 501.664062 557.117188 L 503.050781 557.210938 L 504.433594 550.617188 L 505.820312 545.621094 L 507.207031 536.207031 L 508.589844 534.015625 L 509.976562 525.925781 L 511.363281 514.375 L 512.746094 507.257812 L 514.132812 495.425781 L 515.519531 481.6875 L 516.902344 465.625 L 518.289062 449.398438 L 519.675781 431.925781 L 521.058594 419.324219 L 522.445312 407.296875 L 523.832031 394.609375 L 525.214844 384.472656 L 526.601562 375.207031 L 527.988281 366.253906 L 529.371094 348.421875 L 530.757812 337.859375 L 532.144531 329.40625 L 533.527344 323.078125 L 534.914062 315.5 L 536.300781 304.710938 L 537.683594 301.050781 L 539.070312 298.390625 L 540.457031 292.238281 L 541.84375 286.984375 L 543.226562 279.792969 L 544.613281 269.316406 L 546 270.648438 L 547.382812 268.152344 L 548.769531 262.957031 L 550.15625 260.53125 L 551.539062 246.792969 L 552.925781 235.433594 L 554.3125 221.753906 L 555.695312 203.265625 L 557.082031 186.441406 L 558.46875 166.007812 L 559.851562 154.742188 L 561.238281 140.550781 L 562.625 129.949219 L 564.007812 124.285156 L 565.394531 117.738281 L 566.78125 109.835938 L 568.164062 107.046875 L 569.550781 99.632812 L 570.9375 88.484375 L 572.320312 83.421875 L 573.707031 67.492188 L 575.09375 56.453125 L 576.476562 56.351562 L 577.863281 54.339844 L 579.25 54.941406 L 580.632812 49.863281 L 582.019531 54.039062 L 583.40625 58.582031 L 584.789062 60.21875 L 586.175781 62.140625 L 587.5625 64.300781 L 588.945312 63.816406 L 590.332031 62.210938 L 591.71875 67.382812 L 593.105469 63.878906 L 594.488281 66.464844 L 595.875 64.828125 L 597.261719 71.84375 L 598.644531 78.636719 L 600.03125 76.070312 L 601.417969 84.976562 L 602.800781 94.609375 L 604.1875 104.300781 L 605.574219 99.75 L 606.957031 110.800781 L 608.34375 119.382812 L 609.730469 129.847656 L 611.113281 141.632812 L 612.5 154.167969 L 613.886719 158.367188 L 615.269531 159.140625 L 616.65625 170.242188 L 618.042969 173.078125 L 619.425781 169.59375 L 620.8125 168.410156 L 622.199219 171.492188 L 623.582031 171.96875 L 624.96875 179.582031 L 626.355469 184.390625 L 627.738281 189.253906 L 629.125 196.171875 L 630.511719 195.152344 L 631.894531 199.324219 L 633.28125 197.460938 L 634.667969 198.875 L 636.054688 206.042969 L 637.4375 212.585938 L 638.824219 217.019531 L 640.210938 219.457031 L 641.59375 223.378906 L 642.980469 232.949219 L 644.367188 241.84375 L 645.75 239.757812 L 647.136719 239.578125 L 648.523438 239.089844 L 649.90625 240.042969 L 651.292969 246.710938 L 652.679688 245.621094 L 654.0625 249.667969 L 655.449219 251 L 656.835938 246.511719 L 658.21875 247.171875 L 659.605469 253.457031 L 660.992188 254.386719 L 662.375 253.890625 L 663.761719 251.308594 L 665.148438 248.285156 L 666.53125 253.027344 L 667.917969 260.84375 L 669.304688 262.4375 L 670.6875 275.316406 L 672.074219 280.234375 L 673.460938 284.179688 L 674.84375 281.398438 L 676.230469 285.289062 L 677.617188 288.324219 L 679 291.550781 L 680.386719 295.839844 L 681.773438 297.832031 L 683.15625 296.296875 L 684.542969 291.679688 L 685.929688 301.0625 L 687.316406 304.105469 L 688.699219 309.445312 L 690.085938 312.214844 L 691.472656 312.375 L 692.855469 309.632812 L 694.242188 307.398438 L 695.628906 311.703125 L 697.011719 313.386719 L 698.398438 316.03125 L 699.785156 312.570312 L 701.167969 312.214844 L 702.554688 311.207031 L 703.941406 313.683594 L 705.324219 320.703125 L 706.710938 322.734375 L 708.097656 327.578125 L 709.480469 325.003906 L 710.867188 326.589844 L 712.253906 329.519531 L 713.636719 330.652344 L 715.023438 332.269531 L 716.410156 329.636719 L 717.792969 321.773438 L 719.179688 323.152344 L 720.566406 326.34375 L 721.949219 326.914062 L 723.335938 325.996094 L 724.722656 325.601562 L 726.105469 318.925781 L 727.492188 313.496094 L 728.878906 308.832031 L 730.261719 302.820312 L 731.648438 307.835938 L 733.035156 313.953125 L 734.421875 317.699219 L 735.804688 320.699219 L 737.191406 316.929688 L 738.578125 323.480469 L 739.960938 325.53125 L 741.347656 327.714844 L 742.734375 329.636719 L 744.117188 322.652344 L 745.503906 321.4375 L 746.890625 331.695312 L 748.273438 336.121094 L 749.660156 338.78125 L 751.046875 341.277344 L 752.429688 343.195312 L 753.816406 344.816406 L 755.203125 336.886719 L 756.585938 335.421875 L 757.972656 335 L 759.359375 334.957031 L 760.742188 332.980469 L 762.128906 343.265625 L 763.515625 339.652344 L 764.898438 332.9375 L 766.285156 335.222656 L 767.671875 334.875 L 769.054688 340.960938 L 770.441406 348.4375 L 771.828125 355.269531 L 773.210938 355.757812 L 774.597656 360.660156 L 775.984375 363.28125 L 777.367188 368.664062 L 778.753906 376.082031 L 780.140625 376.992188 L 781.523438 387.308594 L 782.910156 392.496094 L 784.296875 395.355469 L 785.683594 388.472656 L 787.066406 393.34375 L 788.453125 391.128906 L 789.839844 390.074219 L 791.222656 390.542969 L 792.609375 387.4375 L 793.996094 391.277344 L 795.378906 392.171875 L 796.765625 390.921875 L 798.152344 397.949219 L 799.535156 401.550781 L 800.921875 407.75 L 802.308594 411.46875 L 803.691406 415.75 L 805.078125 420.980469 L 806.464844 425.113281 L 807.847656 425.410156 L 809.234375 427.875 L 810.621094 430.152344 L 812.003906 437.808594 L 813.390625 441.65625 L 814.777344 446.046875 L 816.160156 447.773438 L 817.546875 453.765625 L 818.933594 457.09375 L 820.316406 465.773438 L 821.703125 473.417969 L 823.089844 470.238281 L 824.472656 475.078125 L 825.859375 482.589844 L 827.246094 484.304688 L 828.632812 483.417969 L 830.015625 483.980469 L 831.402344 491.136719 L 832.789062 494.859375 L 834.171875 497.308594 L 835.558594 485.617188 L 836.945312 477.617188 L 838.328125 482.945312 L 839.714844 493.925781 L 841.101562 495.28125 L 842.484375 490.625 L 843.871094 483.167969 L 845.257812 487.976562 L 846.640625 493.082031 L 848.027344 500.789062 L 849.414062 504.039062 L 850.796875 499.386719 L 852.183594 501.929688 L 853.570312 510.351562 L 854.953125 509.359375 L 856.339844 516.867188 L 857.726562 522.117188 L 859.109375 523.542969 L 860.496094 523.890625 L 861.882812 519.703125 L 863.265625 522.136719 L 864.652344 527.183594 L 866.039062 527.167969 L 867.421875 525.441406 L 868.808594 527.390625 L 870.195312 522.335938 L 871.578125 517.0625 L 872.964844 529.351562 L 874.351562 534.609375 L 875.734375 534.382812 L 877.121094 535.304688 L 878.507812 538.382812 L 879.894531 534.976562 L 881.277344 531.421875 L 882.664062 527.339844 L 884.050781 528.808594 L 885.433594 535.230469 L 886.820312 538.738281 L 888.207031 542.371094 L 889.589844 537.925781 L 890.976562 544.605469 L 892.363281 544.40625 L 893.746094 544.3125 L 895.132812 545.089844 L 896.519531 547.226562 L 897.902344 546.226562 L 899.289062 545.277344 L 900.675781 540.546875 L 902.058594 542.667969 L 903.445312 548.691406 L 904.832031 554.777344 L 906.214844 558.160156 L 907.601562 559.894531 L 908.988281 564.140625 L 910.371094 565.886719 L 911.757812 568.769531 L 913.144531 566.214844 L 914.527344 564.019531 L 915.914062 564.675781 L 917.300781 566.417969 L 918.683594 575.878906 L 920.070312 582.3125 L 921.457031 585.300781 L 922.84375 590.484375 L 924.226562 596.839844 L 925.613281 604.507812 L 927 602.335938 L 928.382812 607.003906 L 929.769531 602.960938 L 931.15625 600.1875 L 932.539062 595.582031 L 933.925781 592.539062 L 935.3125 591.152344 L 936.695312 590 L 938.082031 589.160156 L 939.46875 592.890625 L 940.851562 591.71875 L 942.238281 591.761719 L 943.625 601.285156 L 945.007812 611.023438 L 946.394531 610.390625 L 947.78125 612.476562 L 949.164062 612.898438 L 950.550781 612.015625 L 951.9375 614.308594 L 953.320312 612.429688 L 954.707031 607.070312 L 956.09375 614.605469 L 957.476562 618.453125 L 958.863281 624.015625 L 960.25 623.222656 L 961.632812 627.53125 L 963.019531 626.972656 L 964.40625 630.300781 L 965.789062 628.808594 L 967.175781 624.425781 L 968.5625 629.363281 L 969.945312 633.675781 L 971.332031 631.308594 L 972.71875 619.421875 L 974.105469 618.199219 L 975.488281 613.34375 L 976.875 611.507812 L 978.261719 613.144531 L 979.644531 616.480469 L 981.03125 621.835938 L 982.417969 622.355469 L 983.800781 627.734375 L 985.1875 622.355469 L 986.574219 626.546875 L 987.957031 626.269531 L 989.34375 627.398438 L 990.730469 635.175781 L 992.113281 631.171875 L 993.5 640.304688 L 994.886719 640.003906 L 996.269531 638.460938 L 997.65625 638.34375 L 999.042969 641.976562 L 1000.425781 644.796875 L 1001.8125 644.566406 L 1003.199219 648.84375 L 1004.582031 648.769531 L 1005.96875 649.734375 L 1007.355469 644.445312 L 1008.738281 642.230469 L 1010.125 640.851562 L 1011.511719 634.5 L 1012.894531 637.476562 L 1014.28125 641.652344 L 1015.667969 639.847656 L 1017.050781 645.066406 L 1018.4375 653.550781 L 1019.824219 655.496094 L 1021.210938 651.320312 L 1022.59375 653.363281 L 1023.980469 649.292969 L 1025.367188 644.171875 L 1026.75 646.921875 L 1028.136719 651.894531 L 1029.523438 659.042969 L 1030.90625 661.480469 L 1032.292969 651.628906 L 1033.679688 651.636719 L 1035.0625 656.105469 L 1036.449219 651.539062 L 1037.835938 661.019531 L 1039.21875 667.921875 L 1040.605469 660.125 L 1041.992188 658.796875 L 1043.375 658.808594 L 1044.761719 653.992188 L 1046.148438 657.859375 L 1047.53125 663.171875 L 1048.917969 670.460938 L 1050.304688 671.847656 L 1051.6875 669.488281 L 1053.074219 660.636719 L 1054.460938 658.261719 L 1055.84375 663.671875 L 1057.230469 663.761719 L 1058.617188 671.296875 L 1060 674.738281 L 1061.386719 678.378906 L 1062.773438 669.765625 L 1064.15625 659.929688 L 1065.542969 653.851562 L 1066.929688 649.515625 L 1068.3125 646.738281 L 1069.699219 650.273438 L 1071.085938 650.367188 L 1072.472656 651.425781 L 1073.855469 649.480469 L 1075.242188 653 L 1076.628906 647.664062 L 1078.011719 637.882812 L 1079.398438 646 L 1080.785156 646.019531 L 1082.167969 644.429688 L 1083.554688 647.789062 L 1084.941406 653.855469 L 1086.324219 651.730469 L 1087.710938 656.21875 L 1089.097656 649.699219 L 1090.480469 645.707031 L 1091.867188 645.640625 L 1093.253906 652.910156 L 1094.636719 644.460938 L 1096.023438 644.308594 L 1097.410156 644.890625 L 1098.792969 642.164062 L 1100.179688 644.390625 L 1101.566406 644.0625 L 1102.949219 642.1875 L 1104.335938 638.765625 L 1105.722656 635.339844 L 1107.105469 639.28125 L 1108.492188 642.65625 L 1109.878906 645.304688 L 1111.261719 639.558594 L 1112.648438 640.742188 L 1114.035156 644.324219 L 1115.421875 646.117188 L 1116.804688 651.835938 L 1118.191406 652.101562 L 1119.578125 645.90625 L 1120.960938 647.152344 L 1122.347656 646.300781 L 1123.734375 648.714844 L 1125.117188 645.515625 L 1126.503906 647.636719 L 1127.890625 649.992188 L 1129.273438 648.621094 L 1130.660156 652.03125 L 1132.046875 650.410156 "/>
<path fill="none" stroke-width="1" stroke-linecap="butt" stroke-linejoin="miter" stroke="rgb(0%, 0%, 0%)" stroke-opacity="1" stroke-miterlimit="1.154701" d="M 231.5 761.5 L 231.5 766.5 "/>
<path fill="none" stroke-width="1" stroke-linecap="butt" stroke-linejoin="miter" stroke="rgb(0%, 0%, 0%)" stroke-opacity="1" stroke-miterlimit="1.154701" d="M 439.316406 761.5 L 439.316406 766.5 "/>
<path fill="none" stroke-width="1" stroke-linecap="butt" stroke-linejoin="miter" stroke="rgb(0%, 0%, 0%)" stroke-opacity="1" stroke-miterlimit="1.154701" d="M 647.136719 761.5 L 647.136719 766.5 "/>
<path fill="none" stroke-width="1" stroke-linecap="butt" stroke-linejoin="miter" stroke="rgb(0%, 0%, 0%)" stroke-opacity="1" stroke-miterlimit="1.154701" d="M 854.953125 761.5 L 854.953125 766.5 "/>
<path fill="none" stroke-width="1" stroke-linecap="butt" stroke-linejoin="miter" stroke="rgb(0%, 0%, 0%)" stroke-opacity="1" stroke-miterlimit="1.154701" d="M 1062.773438 761.5 L 1062.773438 766.5 "/>
<path fill="none" stroke-width="1" stroke-linecap="butt" stroke-linejoin="miter" stroke="rgb(0%, 0%, 0%)" stroke-opacity="1" stroke-miterlimit="1.154701" d="M 40.5 724.273438 L 35.5 724.273438 "/>
<path fill="none" stroke-width="1" stroke-linecap="butt" stroke-linejoin="miter" stroke="rgb(0%, 0%, 0%)" stroke-opacity="1" stroke-miterlimit="1.154701" d="M 40.5 526.222656 L 35.5 526.222656 "/>
<path fill="none" stroke-width="1" stroke-linecap="butt" stroke-linejoin="miter" stroke="rgb(0%, 0%, 0%)" stroke-opacity="1" stroke-miterlimit="1.154701" d="M 40.5 328.175781 L 35.5 328.175781 "/>
<path fill="none" stroke-width="1" stroke-linecap="butt" stroke-linejoin="miter" stroke="rgb(0%, 0%, 0%)" stroke-opacity="1" stroke-miterlimit="1.154701" d="M 40.5 130.125 L 35.5 130.125 "/>
<path fill="none" stroke-width="1" stroke-linecap="butt" stroke-linejoin="miter" stroke="rgb(0%, 0%, 0%)" stroke-opacity="1" stroke-miterlimit="1.154701" d="M 40.5 761 L 1184.5 761 "/>
<path fill="none" stroke-width="1" stroke-linecap="butt" stroke-linejoin="miter" stroke="rgb(0%, 0%, 0%)" stroke-opacity="1" stroke-miterlimit="1.154701" d="M 41 761.5 L 41 15.5 "/>
<path fill="none" stroke-width="1" stroke-linecap="butt" stroke-linejoin="miter" stroke="rgb(0%, 0%, 0%)" stroke-opacity="1" stroke-miterlimit="1.154701" d="M 40.5 16 L 1184.5 16 "/>
<path fill="none" stroke-width="1" stroke-linecap="butt" stroke-linejoin="miter" stroke="rgb(0%, 0%, 0%)" stroke-opacity="1" stroke-miterlimit="1.154701" d="M 1184 761.5 L 1184 15.5 "/>
</svg>
