<?xml version="1.0" encoding="UTF-8"?>
<svg xmlns="http://www.w3.org/2000/svg" xmlns:xlink="http://www.w3.org/1999/xlink" width="1200" height="800" viewBox="0 0 1200 800">
<defs>
<g>
<g id="glyph-0-0-883cdebe">
<path d="M 7.21875 -3.03125 C 7.21875 -3.03125 0.953125 -3.03125 0.953125 -3.03125 C 0.953125 -3.03125 0.953125 -3.96875 0.953125 -3.96875 C 0.953125 -3.96875 7.21875 -3.96875 7.21875 -3.96875 C 7.21875 -3.96875 7.21875 -3.03125 7.21875 -3.03125 Z M 7.21875 -3.03125 "/>
</g>
<g id="glyph-0-1-883cdebe">
<path d="M 7.09375 -4.78125 C 7.09375 -1.515625 5.953125 0.203125 3.84375 0.203125 C 1.71875 0.203125 0.609375 -1.515625 0.609375 -4.859375 C 0.609375 -8.1875 1.703125 -9.921875 3.84375 -9.921875 C 6 -9.921875 7.09375 -8.21875 7.09375 -4.78125 Z M 5.84375 -4.890625 C 5.84375 -7.546875 5.1875 -8.828125 3.84375 -8.828125 C 2.515625 -8.828125 1.859375 -7.5625 1.859375 -4.84375 C 1.859375 -2.125 2.515625 -0.8125 3.828125 -0.8125 C 5.1875 -0.8125 5.84375 -2.078125 5.84375 -4.890625 Z M 5.84375 -4.890625 "/>
</g>
<g id="glyph-0-2-883cdebe">
<path d="M 2.671875 0 C 2.671875 0 1.21875 0 1.21875 0 C 1.21875 0 1.21875 -1.453125 1.21875 -1.453125 C 1.21875 -1.453125 2.671875 -1.453125 2.671875 -1.453125 C 2.671875 -1.453125 2.671875 0 2.671875 0 Z M 2.671875 0 "/>
</g>
<g id="glyph-0-3-883cdebe">
<path d="M 7.078125 -2.890625 C 7.078125 -1.015625 5.765625 0.203125 3.71875 0.203125 C 1.6875 0.203125 0.609375 -0.78125 0.453125 -3 C 0.453125 -3 1.6875 -3 1.6875 -3 C 1.765625 -1.546875 2.421875 -0.875 3.765625 -0.875 C 5.046875 -0.875 5.828125 -1.625 5.828125 -2.875 C 5.828125 -3.96875 5.125 -4.625 3.765625 -4.625 C 3.765625 -4.625 3.09375 -4.625 3.09375 -4.625 C 3.09375 -4.625 3.09375 -5.65625 3.09375 -5.65625 C 5.0625 -5.65625 5.53125 -6.09375 5.53125 -7.15625 C 5.53125 -8.203125 4.875 -8.84375 3.78125 -8.84375 C 2.515625 -8.84375 1.921875 -8.1875 1.890625 -6.71875 C 1.890625 -6.71875 0.65625 -6.71875 0.65625 -6.71875 C 0.703125 -8.828125 1.765625 -9.921875 3.765625 -9.921875 C 5.65625 -9.921875 6.796875 -8.90625 6.796875 -7.203125 C 6.796875 -6.203125 6.328125 -5.5625 5.40625 -5.1875 C 6.59375 -4.78125 7.078125 -4.09375 7.078125 -2.890625 Z M 7.078125 -2.890625 "/>
</g>
<g id="glyph-0-4-883cdebe">
<path d="M 7.1875 -3.078125 C 7.1875 -1.140625 5.828125 0.203125 3.9375 0.203125 C 1.671875 0.203125 0.609375 -1.421875 0.609375 -4.515625 C 0.609375 -7.984375 1.84375 -9.921875 4.15625 -9.921875 C 5.671875 -9.921875 6.734375 -8.953125 6.96875 -7.34375 C 6.96875 -7.34375 5.734375 -7.34375 5.734375 -7.34375 C 5.546875 -8.28125 4.9375 -8.828125 4.078125 -8.828125 C 2.65625 -8.828125 1.875 -7.484375 1.859375 -5.0625 C 2.390625 -5.796875 3.15625 -6.171875 4.140625 -6.171875 C 5.921875 -6.171875 7.1875 -4.921875 7.1875 -3.078125 Z M 5.921875 -2.984375 C 5.921875 -4.3125 5.1875 -5.078125 3.984375 -5.078125 C 2.765625 -5.078125 1.9375 -4.28125 1.9375 -3.046875 C 1.9375 -1.78125 2.796875 -0.875 3.953125 -0.875 C 5.078125 -0.875 5.921875 -1.734375 5.921875 -2.984375 Z M 5.921875 -2.984375 "/>
</g>
<g id="glyph-0-5-883cdebe">
<path d="M 7.125 -5.1875 C 7.125 -1.765625 5.875 0.203125 3.5625 0.203125 C 2.046875 0.203125 0.984375 -0.75 0.734375 -2.375 C 0.734375 -2.375 1.96875 -2.375 1.96875 -2.375 C 2.171875 -1.421875 2.765625 -0.875 3.640625 -0.875 C 5.046875 -0.875 5.84375 -2.21875 5.859375 -4.640625 C 5.203125 -3.875 4.515625 -3.546875 3.578125 -3.546875 C 1.796875 -3.546875 0.53125 -4.78125 0.53125 -6.640625 C 0.53125 -8.578125 1.890625 -9.921875 3.78125 -9.921875 C 6.046875 -9.921875 7.125 -8.296875 7.125 -5.1875 Z M 5.78125 -6.65625 C 5.78125 -7.953125 4.90625 -8.84375 3.765625 -8.84375 C 2.625 -8.84375 1.796875 -8 1.796875 -6.734375 C 1.796875 -5.40625 2.53125 -4.640625 3.71875 -4.640625 C 4.921875 -4.640625 5.78125 -5.453125 5.78125 -6.65625 Z M 5.78125 -6.65625 "/>
</g>
<g id="glyph-0-6-883cdebe">
<path d="M 4.859375 0 C 4.859375 0 3.625 0 3.625 0 C 3.625 0 3.625 -7.0625 3.625 -7.0625 C 3.625 -7.0625 1.421875 -7.0625 1.421875 -7.0625 C 1.421875 -7.0625 1.421875 -7.953125 1.421875 -7.953125 C 3.328125 -8.1875 3.609375 -8.40625 4.046875 -9.921875 C 4.046875 -9.921875 4.859375 -9.921875 4.859375 -9.921875 C 4.859375 -9.921875 4.859375 0 4.859375 0 Z M 4.859375 0 "/>
</g>
<g id="glyph-1-0-883cdebe">
<path d="M 7.09375 -4.78125 C 7.09375 -1.515625 5.953125 0.203125 3.84375 0.203125 C 1.71875 0.203125 0.609375 -1.515625 0.609375 -4.859375 C 0.609375 -8.1875 1.703125 -9.921875 3.84375 -9.921875 C 6 -9.921875 7.09375 -8.21875 7.09375 -4.78125 Z M 5.84375 -4.890625 C 5.84375 -7.546875 5.1875 -8.828125 3.84375 -8.828125 C 2.515625 -8.828125 1.859375 -7.5625 1.859375 -4.84375 C 1.859375 -2.125 2.515625 -0.8125 3.828125 -0.8125 C 5.1875 -0.8125 5.84375 -2.078125 5.84375 -4.890625 Z M 5.84375 -4.890625 "/>
</g>
<g id="glyph-1-1-883cdebe">
<path d="M 4.859375 0 C 4.859375 0 3.625 0 3.625 0 C 3.625 0 3.625 -7.0625 3.625 -7.0625 C 3.625 -7.0625 1.421875 -7.0625 1.421875 -7.0625 C 1.421875 -7.0625 1.421875 -7.953125 1.421875 -7.953125 C 3.328125 -8.1875 3.609375 -8.40625 4.046875 -9.921875 C 4.046875 -9.921875 4.859375 -9.921875 4.859375 -9.921875 C 4.859375 -9.921875 4.859375 0 4.859375 0 Z M 4.859375 0 "/>
</g>
<g id="glyph-2-0-883cdebe">
<path d="M 7.15625 -7.015625 C 7.15625 -5.796875 6.4375 -4.765625 5.046875 -4.015625 C 5.046875 -4.015625 3.65625 -3.265625 3.65625 -3.265625 C 2.4375 -2.546875 1.984375 -2.03125 1.859375 -1.21875 C 1.859375 -1.21875 7.078125 -1.21875 7.078125 -1.21875 C 7.078125 -1.21875 7.078125 0 7.078125 0 C 7.078125 0 0.46875 0 0.46875 0 C 0.59375 -2.1875 1.1875 -3.125 3.265625 -4.296875 C 3.265625 -4.296875 4.546875 -5.03125 4.546875 -5.03125 C 5.4375 -5.53125 5.890625 -6.203125 5.890625 -6.984375 C 5.890625 -8.046875 5.046875 -8.84375 3.9375 -8.84375 C 2.71875 -8.84375 2.03125 -8.140625 1.9375 -6.484375 C 1.9375 -6.484375 0.703125 -6.484375 0.703125 -6.484375 C 0.765625 -8.890625 1.953125 -9.921875 3.96875 -9.921875 C 5.859375 -9.921875 7.15625 -8.6875 7.15625 -7.015625 Z M 7.15625 -7.015625 "/>
</g>
</g>
</defs>
<rect x="-120" y="-80" width="1440" height="960" fill="rgb(100%, 100%, 100%)" fill-opacity="1"/>
<path fill-rule="nonzero" fill="rgb(100%, 100%, 100%)" fill-opacity="1" d="M 41 761 L 1184 761 L 1184 16 L 41 16 Z M 41 761 "/>
<path fill="none" stroke-width="1" stroke-linecap="butt" stroke-linejoin="miter" stroke="rgb(0%, 0%, 0%)" stroke-opacity="0.12" stroke-miterlimit="1.154701" d="M 231.5 761 L 231.5 16 "/>
<path fill="none" stroke-width="1" stroke-linecap="butt" stroke-linejoin="miter" stroke="rgb(0%, 0%, 0%)" stroke-opacity="0.12" stroke-miterlimit="1.154701" d="M 439.316406 761 L 439.316406 16 "/>
<path fill="none" stroke-width="1" stroke-linecap="butt" stroke-linejoin="miter" stroke="rgb(0%, 0%, 0%)" stroke-opacity="0.12" stroke-miterlimit="1.154701" d="M 647.136719 761 L 647.136719 16 "/>
<path fill="none" stroke-width="1" stroke-linecap="butt" stroke-linejoin="miter" stroke="rgb(0%, 0%, 0%)" stroke-opacity="0.12" stroke-miterlimit="1.154701" d="M 854.953125 761 L 854.953125 16 "/>
<path fill="none" stroke-width="1" stroke-linecap="butt" stroke-linejoin="miter" stroke="rgb(0%, 0%, 0%)" stroke-opacity="0.12" stroke-miterlimit="1.154701" d="M 1062.773438 761 L 1062.773438 16 "/>
<path fill="none" stroke-width="1" stroke-linecap="butt" stroke-linejoin="miter" stroke="rgb(0%, 0%, 0%)" stroke-opacity="0.12" stroke-miterlimit="1.154701" d="M 41 657.878906 L 1184 657.878906 "/>
<path fill="none" stroke-width="1" stroke-linecap="butt" stroke-linejoin="miter" stroke="rgb(0%, 0%, 0%)" stroke-opacity="0.12" stroke-miterlimit="1.154701" d="M 41 479.332031 L 1184 479.332031 "/>
<path fill="none" stroke-width="1" stroke-linecap="butt" stroke-linejoin="miter" stroke="rgb(0%, 0%, 0%)" stroke-opacity="0.12" stroke-miterlimit="1.154701" d="M 41 300.78125 L 1184 300.78125 "/>
<path fill="none" stroke-width="1" stroke-linecap="butt" stroke-linejoin="miter" stroke="rgb(0%, 0%, 0%)" stroke-opacity="0.12" stroke-miterlimit="1.154701" d="M 41 122.234375 L 1184 122.234375 "/>
<g fill="rgb(0%, 0%, 0%)" fill-opacity="1">
<use xlink:href="#glyph-0-0-883cdebe" x="217.682005" y="782.258001"/>
</g>
<g fill="rgb(0%, 0%, 0%)" fill-opacity="1">
<use xlink:href="#glyph-0-1-883cdebe" x="225.858005" y="782.258001"/>
</g>
<g fill="rgb(0%, 0%, 0%)" fill-opacity="1">
<use xlink:href="#glyph-0-2-883cdebe" x="233.642005" y="782.258001"/>
</g>
<g fill="rgb(0%, 0%, 0%)" fill-opacity="1">
<use xlink:href="#glyph-0-3-883cdebe" x="237.534005" y="782.258001"/>
</g>
<g fill="rgb(0%, 0%, 0%)" fill-opacity="1">
<use xlink:href="#glyph-0-1-883cdebe" x="429.588187" y="782.258001"/>
</g>
<g fill="rgb(0%, 0%, 0%)" fill-opacity="1">
<use xlink:href="#glyph-0-2-883cdebe" x="437.372187" y="782.258001"/>
</g>
<g fill="rgb(0%, 0%, 0%)" fill-opacity="1">
<use xlink:href="#glyph-0-1-883cdebe" x="441.264187" y="782.258001"/>
</g>
<g fill="rgb(0%, 0%, 0%)" fill-opacity="1">
<use xlink:href="#glyph-0-1-883cdebe" x="637.406368" y="782.258001"/>
</g>
<g fill="rgb(0%, 0%, 0%)" fill-opacity="1">
<use xlink:href="#glyph-0-2-883cdebe" x="645.190369" y="782.258001"/>
</g>
<g fill="rgb(0%, 0%, 0%)" fill-opacity="1">
<use xlink:href="#glyph-0-3-883cdebe" x="649.082368" y="782.258001"/>
</g>
<g fill="rgb(0%, 0%, 0%)" fill-opacity="1">
<use xlink:href="#glyph-0-1-883cdebe" x="845.22455" y="782.258001"/>
</g>
<g fill="rgb(0%, 0%, 0%)" fill-opacity="1">
<use xlink:href="#glyph-0-2-883cdebe" x="853.00855" y="782.258001"/>
</g>
<g fill="rgb(0%, 0%, 0%)" fill-opacity="1">
<use xlink:href="#glyph-0-4-883cdebe" x="856.90055" y="782.258001"/>
</g>
<g fill="rgb(0%, 0%, 0%)" fill-opacity="1">
<use xlink:href="#glyph-0-1-883cdebe" x="1053.042731" y="782.258001"/>
</g>
<g fill="rgb(0%, 0%, 0%)" fill-opacity="1">
<use xlink:href="#glyph-0-2-883cdebe" x="1060.826731" y="782.258001"/>
</g>
<g fill="rgb(0%, 0%, 0%)" fill-opacity="1">
<use xlink:href="#glyph-0-5-883cdebe" x="1064.718731" y="782.258001"/>
</g>
<g fill="rgb(0%, 0%, 0%)" fill-opacity="1">
<use xlink:href="#glyph-0-0-883cdebe" x="15.040001" y="662.982428"/>
</g>
<g fill="rgb(0%, 0%, 0%)" fill-opacity="1">
<use xlink:href="#glyph-0-6-883cdebe" x="23.216001" y="662.982428"/>
</g>
<g fill="rgb(0%, 0%, 0%)" fill-opacity="1">
<use xlink:href="#glyph-1-0-883cdebe" x="23.216001" y="484.433543"/>
</g>
<g fill="rgb(0%, 0%, 0%)" fill-opacity="1">
<use xlink:href="#glyph-1-1-883cdebe" x="23.216001" y="305.884658"/>
</g>
<g fill="rgb(0%, 0%, 0%)" fill-opacity="1">
<use xlink:href="#glyph-2-0-883cdebe" x="23.216001" y="127.335803"/>
</g>
<path fill="none" stroke-width="3" stroke-linecap="butt" stroke-linejoin="miter" stroke="rgb(0%, 44.705883%, 69.803923%)" stroke-opacity="1" stroke-miterlimit="2" d="M 92.953125 524.234375 L 94.339844 527.183594 L 95.726562 530.472656 L 97.109375 525.992188 L 98.496094 524.917969 L 99.882812 520.421875 L 101.265625 512.820312 L 102.652344 513.035156 L 104.039062 524.742188 L 105.421875 528.195312 L 106.808594 530.910156 L 108.195312 528.0625 L 109.578125 530.207031 L 110.964844 531.410156 L 112.351562 530.976562 L 113.738281 532.261719 L 115.121094 528.304688 L 116.507812 525.488281 L 117.894531 533.980469 L 119.277344 534.96875 L 120.664062 533.464844 L 122.050781 527.964844 L 123.433594 526.359375 L 124.820312 528.746094 L 126.207031 531.804688 L 127.589844 528.546875 L 128.976562 531.382812 L 130.363281 533.492188 L 131.746094 528.359375 L 133.132812 523.328125 L 134.519531 523.140625 L 135.902344 526.351562 L 137.289062 533.09375 L 138.675781 536.839844 L 140.058594 542.96875 L 141.445312 545.429688 L 142.832031 544.003906 L 144.214844 545.324219 L 145.601562 549.792969 L 146.988281 550.617188 L 148.371094 549.960938 L 149.757812 549.09375 L 151.144531 549.65625 L 152.527344 554.949219 L 153.914062 553.808594 L 155.300781 554.035156 L 156.683594 544.867188 L 158.070312 545.164062 L 159.457031 546.453125 L 160.84375 546.816406 L 162.226562 544.347656 L 163.613281 542.664062 L 165 540.417969 L 166.382812 537.160156 L 167.769531 537.109375 L 169.15625 536.199219 L 170.539062 539.78125 L 171.925781 540.769531 L 173.3125 537.214844 L 174.695312 533.171875 L 176.082031 532.316406 L 177.46875 533.769531 L 178.851562 532.453125 L 180.238281 526.949219 L 181.625 521.050781 L 183.007812 516.597656 L 184.394531 520.785156 L 185.78125 532.890625 L 187.164062 531.355469 L 188.550781 526.582031 L 189.9375 522.472656 L 191.320312 531.789062 L 192.707031 537.292969 L 194.09375 540.035156 L 195.476562 538.441406 L 196.863281 531.660156 L 198.25 530.183594 L 199.632812 530.640625 L 201.019531 530.789062 L 202.40625 535.59375 L 203.789062 547.761719 L 205.175781 554.417969 L 206.5625 554.894531 L 207.949219 543.878906 L 209.332031 541.152344 L 210.71875 542.027344 L 212.105469 543.992188 L 213.488281 539.832031 L 214.875 544.402344 L 216.261719 543.453125 L 217.644531 552.476562 L 219.03125 553.410156 L 220.417969 556.78125 L 221.800781 554.082031 L 223.1875 553.117188 L 224.574219 556.019531 L 225.957031 556.550781 L 227.34375 552.410156 L 228.730469 555.648438 L 230.113281 552.523438 L 231.5 551.796875 L 232.886719 556.152344 L 234.269531 552.339844 L 235.65625 548.722656 L 237.042969 553.988281 L 238.425781 553.167969 L 239.8125 548.988281 L 241.199219 544.09375 L 242.582031 537.3125 L 243.96875 537.640625 L 245.355469 542.117188 L 246.738281 545.398438 L 248.125 541.640625 L 249.511719 540.800781 L 250.894531 539.234375 L 252.28125 541.683594 L 253.667969 537.488281 L 255.054688 536.550781 L 256.4375 537.246094 L 257.824219 532.363281 L 259.210938 532.480469 L 260.59375 534.429688 L 261.980469 537.84375 L 263.367188 536.566406 L 264.75 540.207031 L 266.136719 542.761719 L 267.523438 541.449219 L 268.90625 539.136719 L 270.292969 535.101562 L 271.679688 531.898438 L 273.0625 536.710938 L 274.449219 541.558594 L 275.835938 542.699219 L 277.21875 540.398438 L 278.605469 539.695312 L 279.992188 553.066406 L 281.375 548.410156 L 282.761719 546.367188 L 284.148438 544.550781 L 285.53125 545.753906 L 286.917969 545.265625 L 288.304688 545.191406 L 289.6875 546.074219 L 291.074219 554.144531 L 292.460938 559.4375 L 293.84375 561.671875 L 295.230469 563.421875 L 296.617188 566.257812 L 298 567.503906 L 299.386719 564.449219 L 300.773438 564.3125 L 302.15625 568.683594 L 303.542969 567.816406 L 304.929688 563.6875 L 306.316406 569.179688 L 307.699219 570.332031 L 309.085938 575.597656 L 310.472656 571.335938 L 311.855469 570.84375 L 313.242188 574.613281 L 314.628906 580.929688 L 316.011719 581.941406 L 317.398438 579.800781 L 318.785156 584.167969 L 320.167969 597.347656 L 321.554688 604.523438 L 322.941406 607.429688 L 324.324219 605.386719 L 325.710938 593.953125 L 327.097656 595.570312 L 328.480469 598.226562 L 329.867188 599.246094 L 331.253906 595.953125 L 332.636719 596.15625 L 334.023438 600.941406 L 335.410156 600.9375 L 336.792969 604.800781 L 338.179688 610.890625 L 339.566406 617.625 L 340.949219 629.417969 L 342.335938 626.898438 L 343.722656 632.074219 L 345.105469 638.542969 L 346.492188 639.613281 L 347.878906 645.945312 L 349.261719 645.429688 L 350.648438 646.882812 L 352.035156 653.941406 L 353.421875 665.171875 L 354.804688 656.945312 L 356.191406 657.953125 L 357.578125 657.382812 L 358.960938 655.976562 L 360.347656 660.171875 L 361.734375 665.082031 L 363.117188 666.773438 L 364.503906 665.371094 L 365.890625 663.308594 L 367.273438 668.585938 L 368.660156 671.996094 L 370.046875 670.492188 L 371.429688 671.023438 L 372.816406 674.601562 L 374.203125 682.472656 L 375.585938 688.980469 L 376.972656 684.933594 L 378.359375 683.46875 L 379.742188 681.953125 L 381.128906 677.25 L 382.515625 679.4375 L 383.898438 686.503906 L 385.285156 689.503906 L 386.671875 692.835938 L 388.054688 699.789062 L 389.441406 699.558594 L 390.828125 699.796875 L 392.210938 693.601562 L 393.597656 698.003906 L 394.984375 700.425781 L 396.367188 703.226562 L 397.753906 706.683594 L 399.140625 708.761719 L 400.527344 713.921875 L 401.910156 717.308594 L 403.296875 713.226562 L 404.683594 711.738281 L 406.066406 716.335938 L 407.453125 712.863281 L 408.839844 713.910156 L 410.222656 715.503906 L 411.609375 714.941406 L 412.996094 720.210938 L 414.378906 716.199219 L 415.765625 708.796875 L 417.152344 706.867188 L 418.535156 718.25 L 419.921875 726.652344 L 421.308594 727.136719 L 422.691406 712.761719 L 424.078125 700.039062 L 425.464844 700.46875 L 426.847656 701.960938 L 428.234375 702.304688 L 429.621094 698.144531 L 431.003906 703.945312 L 432.390625 717.976562 L 433.777344 715.210938 L 435.160156 710.515625 L 436.546875 701.164062 L 437.933594 696.863281 L 439.316406 692.785156 L 440.703125 692.800781 L 442.089844 686.1875 L 443.472656 678.761719 L 444.859375 672.210938 L 446.246094 667.632812 L 447.632812 678.710938 L 449.015625 686.679688 L 450.402344 685.601562 L 451.789062 690.164062 L 453.171875 692.566406 L 454.558594 703.140625 L 455.945312 712.410156 L 457.328125 709.066406 L 458.714844 704.371094 L 460.101562 698.527344 L 461.484375 693.792969 L 462.871094 692.347656 L 464.257812 697.355469 L 465.640625 696.152344 L 467.027344 687.21875 L 468.414062 679.851562 L 469.796875 677.582031 L 471.183594 678.71875 L 472.570312 676.144531 L 473.953125 666.652344 L 475.339844 659.511719 L 476.726562 646.972656 L 478.109375 645.015625 L 479.496094 646.1875 L 480.882812 638.351562 L 482.265625 633.574219 L 483.652344 629.617188 L 485.039062 629.164062 L 486.421875 638.253906 L 487.808594 644.527344 L 489.195312 651.382812 L 490.578125 654.1875 L 491.964844 649.34375 L 493.351562 643.871094 L 494.738281 640.75 L 496.121094 634.367188 L 497.507812 626.351562 L 498.894531 616.933594 L 500.277344 608.96875 L 501.664062 610.265625 L 503.050781 597.320312 L 504.433594 589.785156 L 505.820312 586.34375 L 507.207031 576.480469 L 508.589844 572.730469 L 509.976562 565.058594 L 511.363281 555.230469 L 512.746094 540.234375 L 514.132812 528.386719 L 515.519531 507.648438 L 516.902344 495.953125 L 518.289062 486.824219 L 519.675781 476.792969 L 521.058594 463.488281 L 522.445312 452.722656 L 523.832031 443.464844 L 525.214844 431.101562 L 526.601562 420.226562 L 527.988281 409.308594 L 529.371094 398.761719 L 530.757812 394.410156 L 532.144531 377.894531 L 533.527344 368.730469 L 534.914062 356.738281 L 536.300781 348.492188 L 537.683594 331.253906 L 539.070312 326.609375 L 540.457031 330.464844 L 541.84375 328.785156 L 543.226562 323.847656 L 544.613281 315.734375 L 546 308.636719 L 547.382812 310.417969 L 548.769531 307.855469 L 550.15625 304.921875 L 551.539062 297.023438 L 552.925781 283.773438 L 554.3125 279.554688 L 555.695312 278.457031 L 557.082031 275.433594 L 558.46875 268.289062 L 559.851562 262.753906 L 561.238281 251.625 L 562.625 244.597656 L 564.007812 233.671875 L 565.394531 221.945312 L 566.78125 210.75 L 568.164062 198.664062 L 569.550781 189.640625 L 570.9375 183.726562 L 572.320312 170.207031 L 573.707031 161.390625 L 575.09375 155.796875 L 576.476562 154.855469 L 577.863281 149.042969 L 579.25 140.710938 L 580.632812 138.585938 L 582.019531 135.339844 L 583.40625 136.15625 L 584.789062 142.808594 L 586.175781 146.753906 L 587.5625 140.234375 L 588.945312 144.371094 L 590.332031 152.378906 L 591.71875 156.484375 L 593.105469 155.878906 L 594.488281 152.921875 L 595.875 156.25 L 597.261719 156.847656 L 598.644531 154.972656 L 600.03125 147.761719 L 601.417969 150.886719 L 602.800781 151.996094 L 604.1875 158.25 L 605.574219 156.089844 L 606.957031 154.804688 L 608.34375 152.792969 L 609.730469 152.496094 L 611.113281 153.070312 L 612.5 154.496094 L 613.886719 160.707031 L 615.269531 170.28125 L 616.65625 170.273438 L 618.042969 168.691406 L 619.425781 169.988281 L 620.8125 179.597656 L 622.199219 189.917969 L 623.582031 193.019531 L 624.96875 205.933594 L 626.355469 203.253906 L 627.738281 205.972656 L 629.125 215.484375 L 630.511719 220.105469 L 631.894531 225.0625 L 633.28125 219.417969 L 634.667969 218.558594 L 636.054688 224.628906 L 637.4375 224.683594 L 638.824219 238.992188 L 640.210938 243.113281 L 641.59375 238.3125 L 642.980469 233.535156 L 644.367188 243.496094 L 645.75 239.289062 L 647.136719 232.496094 L 648.523438 231.003906 L 649.90625 235.886719 L 651.292969 247.351562 L 652.679688 254.105469 L 654.0625 246.042969 L 655.449219 247.6875 L 656.835938 249.75 L 658.21875 257.289062 L 659.605469 265.777344 L 660.992188 265.765625 L 662.375 270.53125 L 663.761719 271.652344 L 665.148438 276.332031 L 666.53125 279.503906 L 667.917969 277.179688 L 669.304688 275.355469 L 670.6875 276.832031 L 672.074219 282.949219 L 673.460938 284.988281 L 674.84375 282.117188 L 676.230469 281.117188 L 677.617188 281.21875 L 679 282.140625 L 680.386719 278.652344 L 681.773438 279.675781 L 683.15625 284.152344 L 684.542969 283.71875 L 685.929688 284.089844 L 687.316406 278.476562 L 688.699219 276.140625 L 690.085938 278.148438 L 691.472656 283.144531 L 692.855469 287.113281 L 694.242188 288.996094 L 695.628906 291.746094 L 697.011719 297.441406 L 698.398438 299.425781 L 699.785156 298.113281 L 701.167969 303.769531 L 702.554688 304.871094 L 703.941406 305.441406 L 705.324219 306.574219 L 706.710938 306.351562 L 708.097656 307.289062 L 709.480469 311.773438 L 710.867188 308.246094 L 712.253906 310.042969 L 713.636719 310.257812 L 715.023438 310.488281 L 716.410156 306.902344 L 717.792969 307.855469 L 719.179688 304.082031 L 720.566406 301.929688 L 721.949219 299.015625 L 723.335938 297.476562 L 724.722656 301.90625 L 726.105469 305.746094 L 727.492188 308.21875 L 728.878906 304.519531 L 730.261719 305.21875 L 731.648438 308.015625 L 733.035156 307.792969 L 734.421875 304.160156 L 735.804688 299.203125 L 737.191406 298.882812 L 738.578125 299.660156 L 739.960938 301.863281 L 741.347656 305.640625 L 742.734375 302.742188 L 744.117188 297.242188 L 745.503906 291.292969 L 746.890625 297.285156 L 748.273438 293.960938 L 749.660156 297.386719 L 751.046875 298.035156 L 752.429688 299.515625 L 753.816406 295.554688 L 755.203125 292.351562 L 756.585938 292.882812 L 757.972656 297.121094 L 759.359375 294.144531 L 760.742188 295.75 L 762.128906 301.023438 L 763.515625 298.871094 L 764.898438 302.839844 L 766.285156 301.644531 L 767.671875 298.117188 L 769.054688 298.992188 L 770.441406 298.4375 L 771.828125 302.214844 L 773.210938 307.078125 L 774.597656 308.207031 L 775.984375 306.21875 L 777.367188 299.652344 L 778.753906 300.707031 L 780.140625 298.449219 L 781.523438 304.539062 L 782.910156 311.0625 L 784.296875 316.070312 L 785.683594 310.109375 L 787.066406 309.976562 L 788.453125 313.007812 L 789.839844 315.425781 L 791.222656 318.660156 L 792.609375 322.78125 L 793.996094 325.9375 L 795.378906 331.367188 L 796.765625 336.691406 L 798.152344 331.027344 L 799.535156 325.992188 L 800.921875 323.199219 L 802.308594 329.492188 L 803.691406 337.96875 L 805.078125 342.023438 L 806.464844 350.894531 L 807.847656 352.910156 L 809.234375 346.113281 L 810.621094 350.511719 L 812.003906 356.445312 L 813.390625 360.496094 L 814.777344 359.496094 L 816.160156 362.164062 L 817.546875 367.816406 L 818.933594 369.332031 L 820.316406 369.53125 L 821.703125 376.035156 L 823.089844 375.75 L 824.472656 376.242188 L 825.859375 378.472656 L 827.246094 381.835938 L 828.632812 382.25 L 830.015625 380.164062 L 831.402344 380.152344 L 832.789062 380.652344 L 834.171875 380.660156 L 835.558594 387.839844 L 836.945312 387.625 L 838.328125 385.242188 L 839.714844 393.417969 L 841.101562 396.957031 L 842.484375 393.867188 L 843.871094 395.125 L 845.257812 399.761719 L 846.640625 400.128906 L 848.027344 403.445312 L 849.414062 403.105469 L 850.796875 402.386719 L 852.183594 406.847656 L 853.570312 408.152344 L 854.953125 404.84375 L 856.339844 399.699219 L 857.726562 404.625 L 859.109375 410.292969 L 860.496094 414.394531 L 861.882812 413.277344 L 863.265625 410.03125 L 864.652344 406.890625 L 866.039062 408.042969 L 867.421875 410.070312 L 868.808594 407.804688 L 870.195312 413.910156 L 871.578125 412.851562 L 872.964844 414.597656 L 874.351562 416.300781 L 875.734375 416.984375 L 877.121094 426.007812 L 878.507812 435.101562 L 879.894531 427.167969 L 881.277344 427.597656 L 882.664062 425.945312 L 884.050781 435.101562 L 885.433594 446.316406 L 886.820312 452.367188 L 888.207031 445.078125 L 889.589844 440.503906 L 890.976562 444.632812 L 892.363281 448.332031 L 893.746094 454.835938 L 895.132812 453.78125 L 896.519531 446.03125 L 897.902344 440.953125 L 899.289062 439.605469 L 900.675781 444.445312 L 902.058594 454.8125 L 903.445312 457.460938 L 904.832031 458.355469 L 906.214844 455.210938 L 907.601562 453.429688 L 908.988281 458.800781 L 910.371094 460.128906 L 911.757812 464.0625 L 913.144531 462.238281 L 914.527344 462.695312 L 915.914062 459.957031 L 917.300781 458.480469 L 918.683594 453.890625 L 920.070312 454.339844 L 921.457031 457.984375 L 922.84375 460.785156 L 924.226562 459.84375 L 925.613281 460.820312 L 927 464.140625 L 928.382812 466.714844 L 929.769531 469.300781 L 931.15625 465.515625 L 932.539062 461.144531 L 933.925781 466.234375 L 935.3125 468.695312 L 936.695312 470.167969 L 938.082031 465.203125 L 939.46875 462.386719 L 940.851562 463.023438 L 942.238281 458.722656 L 943.625 463.648438 L 945.007812 467.332031 L 946.394531 465.976562 L 947.78125 465.835938 L 949.164062 462.191406 L 950.550781 458.746094 L 951.9375 458.492188 L 953.320312 463.207031 L 954.707031 468.355469 L 956.09375 471.207031 L 957.476562 473.90625 L 958.863281 471 L 960.25 473.894531 L 961.632812 477.324219 L 963.019531 481.058594 L 964.40625 486.105469 L 965.789062 489.722656 L 967.175781 480.964844 L 968.5625 483.925781 L 969.945312 486.585938 L 971.332031 483.894531 L 972.71875 477.570312 L 974.105469 480.691406 L 975.488281 481.566406 L 976.875 480.417969 L 978.261719 479.082031 L 979.644531 477.980469 L 981.03125 474.054688 L 982.417969 472.707031 L 983.800781 466.433594 L 985.1875 473.253906 L 986.574219 482.628906 L 987.957031 486.980469 L 989.34375 484.765625 L 990.730469 481.226562 L 992.113281 489.277344 L 993.5 497.472656 L 994.886719 503.824219 L 996.269531 505.183594 L 997.65625 505.609375 L 999.042969 504.058594 L 1000.425781 510.265625 L 1001.8125 509.503906 L 1003.199219 505.898438 L 1004.582031 505.539062 L 1005.96875 500.671875 L 1007.355469 503.070312 L 1008.738281 509.054688 L 1010.125 506.121094 L 1011.511719 500.75 L 1012.894531 503.390625 L 1014.28125 500.777344 L 1015.667969 508.507812 L 1017.050781 509.195312 L 1018.4375 497.921875 L 1019.824219 504.539062 L 1021.210938 501.265625 L 1022.59375 504.441406 L 1023.980469 513.578125 L 1025.367188 514.285156 L 1026.75 509.101562 L 1028.136719 513.21875 L 1029.523438 513.265625 L 1030.90625 505.4375 L 1032.292969 503.3125 L 1033.679688 504.027344 L 1035.0625 504.84375 L 1036.449219 507.515625 L 1037.835938 504.765625 L 1039.21875 498.742188 L 1040.605469 491.308594 L 1041.992188 488.464844 L 1043.375 494.40625 L 1044.761719 496.019531 L 1046.148438 496.277344 L 1047.53125 496.191406 L 1048.917969 497.703125 L 1050.304688 496.335938 L 1051.6875 495.394531 L 1053.074219 493.441406 L 1054.460938 497.121094 L 1055.84375 501.566406 L 1057.230469 504.253906 L 1058.617188 499.578125 L 1060 500.511719 L 1061.386719 501.253906 L 1062.773438 503.023438 L 1064.15625 501.5 L 1065.542969 503.515625 L 1066.929688 510.359375 L 1068.3125 518.710938 L 1069.699219 522.945312 L 1071.085938 519.882812 L 1072.472656 515.839844 L 1073.855469 507.933594 L 1075.242188 508.480469 L 1076.628906 511.414062 L 1078.011719 508.066406 L 1079.398438 509.597656 L 1080.785156 510.292969 L 1082.167969 514.941406 L 1083.554688 520.46875 L 1084.941406 521.488281 L 1086.324219 524.128906 L 1087.710938 520.03125 L 1089.097656 517.839844 L 1090.480469 516.335938 L 1091.867188 517.011719 L 1093.253906 524.84375 L 1094.636719 524.964844 L 1096.023438 526.851562 L 1097.410156 528.207031 L 1098.792969 521.777344 L 1100.179688 518.660156 L 1101.566406 522.074219 L 1102.949219 526.554688 L 1104.335938 526.613281 L 1105.722656 515.6875 L 1107.105469 511.160156 L 1108.492188 516.714844 L 1109.878906 514.617188 L 1111.261719 509.269531 L 1112.648438 507.9375 L 1114.035156 503.347656 L 1115.421875 506.539062 L 1116.804688 515.144531 L 1118.191406 516.566406 L 1119.578125 516.863281 L 1120.960938 513.566406 L 1122.347656 513.039062 L 1123.734375 515.535156 L 1125.117188 523.625 L 1126.503906 525.453125 L 1127.890625 524.597656 L 1129.273438 522.015625 L 1130.660156 521.894531 L 1132.046875 517.089844 "/>
<path fill="none" stroke-width="3" stroke-linecap="butt" stroke-linejoin="miter" stroke="rgb(90.196079%, 62.352943%, 0%)" stroke-opacity="1" stroke-miterlimit="2" d="M 92.953125 516.617188 L 94.339844 513.246094 L 95.726562 509.957031 L 97.109375 518.34375 L 98.496094 524.535156 L 99.882812 535.988281 L 101.265625 533.480469 L 102.652344 533.910156 L 104.039062 529.660156 L 105.421875 529.640625 L 106.808594 527.105469 L 108.195312 525.878906 L 109.578125 525.761719 L 110.964844 526.070312 L 112.351562 534.054688 L 113.738281 531.921875 L 115.121094 520.625 L 116.507812 516.117188 L 117.894531 505.984375 L 119.277344 505.027344 L 120.664062 505.070312 L 122.050781 498.105469 L 123.433594 486.3125 L 124.820312 487.449219 L 126.207031 494.644531 L 127.589844 498.503906 L 128.976562 501.175781 L 130.363281 503.398438 L 131.746094 509.714844 L 133.132812 517.253906 L 134.519531 530.28125 L 135.902344 537.152344 L 137.289062 536.5625 L 138.675781 539.402344 L 140.058594 538.496094 L 141.445312 533.703125 L 142.832031 537.839844 L 144.214844 535.128906 L 145.601562 529.492188 L 146.988281 528.832031 L 148.371094 523.75 L 149.757812 515.5625 L 151.144531 515.136719 L 152.527344 513.78125 L 153.914062 513.339844 L 155.300781 513.167969 L 156.683594 515.320312 L 158.070312 517.988281 L 159.457031 522.160156 L 160.84375 518.308594 L 162.226562 513.644531 L 163.613281 520.8125 L 165 530.132812 L 166.382812 537.515625 L 167.769531 542.324219 L 169.15625 540.796875 L 170.539062 539.574219 L 171.925781 537.621094 L 173.3125 525.824219 L 174.695312 522.175781 L 176.082031 522.824219 L 177.46875 528.175781 L 178.851562 533.875 L 180.238281 531.640625 L 181.625 525.878906 L 183.007812 522.597656 L 184.394531 514.597656 L 185.78125 510.523438 L 187.164062 514.0625 L 188.550781 522.351562 L 189.9375 528.398438 L 191.320312 526.890625 L 192.707031 531.285156 L 194.09375 535.796875 L 195.476562 536.492188 L 196.863281 521.824219 L 198.25 524.300781 L 199.632812 532.539062 L 201.019531 544.078125 L 202.40625 550.035156 L 203.789062 551.152344 L 205.175781 546.058594 L 206.5625 547.640625 L 207.949219 546.996094 L 209.332031 541.292969 L 210.71875 545.324219 L 212.105469 550.558594 L 213.488281 553.058594 L 214.875 545.90625 L 216.261719 534.324219 L 217.644531 525.925781 L 219.03125 526.871094 L 220.417969 526.335938 L 221.800781 527.058594 L 223.1875 531.863281 L 224.574219 533.714844 L 225.957031 538.730469 L 227.34375 536.578125 L 228.730469 534.613281 L 230.113281 539.445312 L 231.5 538.871094 L 232.886719 537.84375 L 234.269531 538.976562 L 235.65625 540.242188 L 237.042969 535.945312 L 238.425781 528.589844 L 239.8125 522.398438 L 241.199219 514.738281 L 242.582031 517.761719 L 243.96875 519.964844 L 245.355469 516.226562 L 246.738281 519.609375 L 248.125 524.078125 L 249.511719 526.125 L 250.894531 521.703125 L 252.28125 523.25 L 253.667969 524.296875 L 255.054688 523.378906 L 256.4375 517.167969 L 257.824219 512.996094 L 259.210938 517.683594 L 260.59375 519.066406 L 261.980469 520.152344 L 263.367188 520.679688 L 264.75 513.652344 L 266.136719 510.777344 L 267.523438 520.34375 L 268.90625 535.5625 L 270.292969 541.738281 L 271.679688 529.003906 L 273.0625 522.011719 L 274.449219 520.300781 L 275.835938 529.472656 L 277.21875 544.699219 L 278.605469 548.15625 L 279.992188 551.855469 L 281.375 556.207031 L 282.761719 559.9375 L 284.148438 563.191406 L 285.53125 562.410156 L 286.917969 564.585938 L 288.304688 566.105469 L 289.6875 568.15625 L 291.074219 565.609375 L 292.460938 560.820312 L 293.84375 566.5 L 295.230469 562.335938 L 296.617188 565.207031 L 298 569.449219 L 299.386719 572.546875 L 300.773438 564.167969 L 302.15625 560.484375 L 303.542969 556.445312 L 304.929688 560.789062 L 306.316406 564.824219 L 307.699219 565.09375 L 309.085938 565.546875 L 310.472656 565.226562 L 311.855469 556.503906 L 313.242188 548.765625 L 314.628906 552.863281 L 316.011719 559.300781 L 317.398438 560.902344 L 318.785156 565.878906 L 320.167969 564.878906 L 321.554688 561.953125 L 322.941406 568.382812 L 324.324219 569.949219 L 325.710938 578.695312 L 327.097656 582.703125 L 328.480469 586.675781 L 329.867188 586.414062 L 331.253906 589.039062 L 332.636719 595.183594 L 334.023438 595.488281 L 335.410156 594.324219 L 336.792969 598.46875 L 338.179688 600.179688 L 339.566406 600.589844 L 340.949219 595.039062 L 342.335938 595.335938 L 343.722656 599.175781 L 345.105469 597.96875 L 346.492188 598.53125 L 347.878906 592.929688 L 349.261719 592.921875 L 350.648438 590.503906 L 352.035156 589.453125 L 353.421875 587.273438 L 354.804688 586.863281 L 356.191406 590.292969 L 357.578125 593.355469 L 358.960938 596.027344 L 360.347656 601.71875 L 361.734375 608.308594 L 363.117188 619.195312 L 364.503906 623.324219 L 365.890625 627.9375 L 367.273438 634.898438 L 368.660156 633.070312 L 370.046875 628.117188 L 371.429688 631.003906 L 372.816406 632.894531 L 374.203125 633.390625 L 375.585938 635.113281 L 376.972656 642.890625 L 378.359375 652.445312 L 379.742188 640.617188 L 381.128906 653.792969 L 382.515625 660.125 L 383.898438 652.183594 L 385.285156 638.191406 L 386.671875 636.261719 L 388.054688 633.625 L 389.441406 635.035156 L 390.828125 641.628906 L 392.210938 641.128906 L 393.597656 642.648438 L 394.984375 638.699219 L 396.367188 641.328125 L 397.753906 643.273438 L 399.140625 648.777344 L 400.527344 648.023438 L 401.910156 655.878906 L 403.296875 658.539062 L 404.683594 662.09375 L 406.066406 657.554688 L 407.453125 653.425781 L 408.839844 654.277344 L 410.222656 656.226562 L 411.609375 654.703125 L 412.996094 657.425781 L 414.378906 658.929688 L 415.765625 660.484375 L 417.152344 653.628906 L 418.535156 656.167969 L 419.921875 651.238281 L 421.308594 646.566406 L 422.691406 640.046875 L 424.078125 637.941406 L 425.464844 629.257812 L 426.847656 629.558594 L 428.234375 633.25 L 429.621094 634.984375 L 431.003906 637.085938 L 432.390625 634.386719 L 433.777344 640.539062 L 435.160156 640.613281 L 436.546875 649.417969 L 437.933594 645.1875 L 439.316406 642.953125 L 440.703125 641.679688 L 442.089844 637.285156 L 443.472656 636.160156 L 444.859375 633.652344 L 446.246094 631.527344 L 447.632812 638.863281 L 449.015625 647.257812 L 450.402344 653.238281 L 451.789062 656.605469 L 453.171875 653.335938 L 454.558594 651.011719 L 455.945312 649.167969 L 457.328125 652.234375 L 458.714844 648.078125 L 460.101562 637.144531 L 461.484375 632.523438 L 462.871094 628.21875 L 464.257812 621.851562 L 465.640625 617.292969 L 467.027344 609.875 L 468.414062 613.378906 L 469.796875 615.597656 L 471.183594 607.347656 L 472.570312 608.65625 L 473.953125 604.242188 L 475.339844 594.640625 L 476.726562 594.492188 L 478.109375 570.710938 L 479.496094 553.492188 L 480.882812 540.882812 L 482.265625 534.589844 L 483.652344 533.410156 L 485.039062 534.007812 L 486.421875 538.390625 L 487.808594 543.074219 L 489.195312 546.59375 L 490.578125 540.574219 L 491.964844 534.375 L 493.351562 529.960938 L 494.738281 528.5 L 496.121094 521.648438 L 497.507812 513.652344 L 498.894531 512.796875 L 500.277344 496.503906 L 501.664062 493.445312 L 503.050781 479.960938 L 504.433594 473.363281 L 505.820312 463.582031 L 507.207031 455.949219 L 508.589844 446.546875 L 509.976562 435.554688 L 511.363281 423.714844 L 512.746094 410.089844 L 514.132812 399.15625 L 515.519531 389.996094 L 516.902344 375.253906 L 518.289062 360.8125 L 519.675781 344.445312 L 521.058594 331.332031 L 522.445312 321.027344 L 523.832031 309.832031 L 525.214844 301.339844 L 526.601562 288.8125 L 527.988281 282.480469 L 529.371094 281 L 530.757812 273.671875 L 532.144531 265.277344 L 533.527344 250.886719 L 534.914062 238.269531 L 536.300781 230.140625 L 537.683594 229.964844 L 539.070312 227.238281 L 540.457031 219.417969 L 541.84375 215.167969 L 543.226562 208.691406 L 544.613281 208.730469 L 546 203.726562 L 547.382812 197.347656 L 548.769531 197.457031 L 550.15625 196.738281 L 551.539062 193.484375 L 552.925781 182.1875 L 554.3125 171.722656 L 555.695312 159.152344 L 557.082031 152.105469 L 558.46875 136.359375 L 559.851562 128.433594 L 561.238281 120.691406 L 562.625 113.957031 L 564.007812 104.601562 L 565.394531 100.175781 L 566.78125 95.050781 L 568.164062 90.886719 L 569.550781 88.53125 L 570.9375 90.945312 L 572.320312 81.730469 L 573.707031 74.574219 L 575.09375 72.871094 L 576.476562 65.457031 L 577.863281 64.234375 L 579.25 70.085938 L 580.632812 66.367188 L 582.019531 58.191406 L 583.40625 54.226562 L 584.789062 49.863281 L 586.175781 53.234375 L 587.5625 55.542969 L 588.945312 61.601562 L 590.332031 70.921875 L 591.71875 71.847656 L 593.105469 74.292969 L 594.488281 62.757812 L 595.875 63.214844 L 597.261719 68.332031 L 598.644531 67.84375 L 600.03125 79.414062 L 601.417969 86.648438 L 602.800781 94.636719 L 604.1875 103.691406 L 605.574219 105.664062 L 606.957031 111.121094 L 608.34375 115.425781 L 609.730469 118.902344 L 611.113281 125.515625 L 612.5 137.957031 L 613.886719 145.058594 L 615.269531 141.140625 L 616.65625 138.527344 L 618.042969 136.515625 L 619.425781 129.03125 L 620.8125 129.429688 L 622.199219 132.910156 L 623.582031 135.019531 L 624.96875 144.589844 L 626.355469 143.722656 L 627.738281 145.480469 L 629.125 151.828125 L 630.511719 155.253906 L 631.894531 159.734375 L 633.28125 162.480469 L 634.667969 164.246094 L 636.054688 171.910156 L 637.4375 179.289062 L 638.824219 182.886719 L 640.210938 190.792969 L 641.59375 196.964844 L 642.980469 207.59375 L 644.367188 203.214844 L 645.75 202.957031 L 647.136719 200.277344 L 648.523438 208.921875 L 649.90625 206.378906 L 651.292969 205.804688 L 652.679688 206.695312 L 654.0625 208.339844 L 655.449219 214.496094 L 656.835938 207.589844 L 658.21875 203.199219 L 659.605469 210.042969 L 660.992188 216.097656 L 662.375 214.144531 L 663.761719 218.71875 L 665.148438 210.691406 L 666.53125 214.1875 L 667.917969 215.828125 L 669.304688 218.183594 L 670.6875 228.980469 L 672.074219 235.757812 L 673.460938 245.871094 L 674.84375 250.535156 L 676.230469 251.851562 L 677.617188 253.382812 L 679 254.855469 L 680.386719 251.03125 L 681.773438 247.085938 L 683.15625 248.507812 L 684.542969 255.546875 L 685.929688 254.855469 L 687.316406 249.332031 L 688.699219 256.367188 L 690.085938 257.066406 L 691.472656 255.082031 L 692.855469 256.84375 L 694.242188 261.464844 L 695.628906 259.382812 L 697.011719 260.980469 L 698.398438 274.566406 L 699.785156 279.421875 L 701.167969 276.75 L 702.554688 272.367188 L 703.941406 278 L 705.324219 284.824219 L 706.710938 287.777344 L 708.097656 291.15625 L 709.480469 290.171875 L 710.867188 295.289062 L 712.253906 299.554688 L 713.636719 304.589844 L 715.023438 300.230469 L 716.410156 298.984375 L 717.792969 298.8125 L 719.179688 298.210938 L 720.566406 295.511719 L 721.949219 290.960938 L 723.335938 290.425781 L 724.722656 284.777344 L 726.105469 279.484375 L 727.492188 266.992188 L 728.878906 269.152344 L 730.261719 269.597656 L 731.648438 273.566406 L 733.035156 287.738281 L 734.421875 294.023438 L 735.804688 290.472656 L 737.191406 294.773438 L 738.578125 299.371094 L 739.960938 297.53125 L 741.347656 300.515625 L 742.734375 307.300781 L 744.117188 312.296875 L 745.503906 312.980469 L 746.890625 316.855469 L 748.273438 313.640625 L 749.660156 308.84375 L 751.046875 314.386719 L 752.429688 317.757812 L 753.816406 315.316406 L 755.203125 306.871094 L 756.585938 300.148438 L 757.972656 303.316406 L 759.359375 304.691406 L 760.742188 301.910156 L 762.128906 299.023438 L 763.515625 298.941406 L 764.898438 299.054688 L 766.285156 303.558594 L 767.671875 303.492188 L 769.054688 304.792969 L 770.441406 311.457031 L 771.828125 319.527344 L 773.210938 328.089844 L 774.597656 330.339844 L 775.984375 330.335938 L 777.367188 333.6875 L 778.753906 346.058594 L 780.140625 360.367188 L 781.523438 374.964844 L 782.910156 375.570312 L 784.296875 373.324219 L 785.683594 366.476562 L 787.066406 361.847656 L 788.453125 359.414062 L 789.839844 354.945312 L 791.222656 351.070312 L 792.609375 353.335938 L 793.996094 356.335938 L 795.378906 354.554688 L 796.765625 363.230469 L 798.152344 368.660156 L 799.535156 378.351562 L 800.921875 384.121094 L 802.308594 393.320312 L 803.691406 395.875 L 805.078125 395.9375 L 806.464844 396.359375 L 807.847656 393.109375 L 809.234375 389.847656 L 810.621094 393.285156 L 812.003906 397.398438 L 813.390625 403.355469 L 814.777344 406.042969 L 816.160156 409.40625 L 817.546875 416.832031 L 818.933594 419.394531 L 820.316406 421.976562 L 821.703125 421.042969 L 823.089844 424.570312 L 824.472656 433.449219 L 825.859375 437.140625 L 827.246094 438.152344 L 828.632812 440.214844 L 830.015625 441.582031 L 831.402344 443.417969 L 832.789062 452.804688 L 834.171875 449.113281 L 835.558594 445.304688 L 836.945312 438.953125 L 838.328125 431.875 L 839.714844 439.230469 L 841.101562 444.316406 L 842.484375 446.914062 L 843.871094 440.78125 L 845.257812 448.480469 L 846.640625 453.945312 L 848.027344 459.746094 L 849.414062 452.449219 L 850.796875 451.328125 L 852.183594 459.457031 L 853.570312 464.632812 L 854.953125 454.171875 L 856.339844 453.535156 L 857.726562 465.082031 L 859.109375 472.695312 L 860.496094 478.890625 L 861.882812 466.425781 L 863.265625 464.886719 L 864.652344 473.109375 L 866.039062 479.46875 L 867.421875 475.777344 L 868.808594 470.722656 L 870.195312 474.0625 L 871.578125 477.308594 L 872.964844 482.167969 L 874.351562 490.855469 L 875.734375 484.933594 L 877.121094 485.992188 L 878.507812 491.246094 L 879.894531 485.640625 L 881.277344 476.878906 L 882.664062 474.707031 L 884.050781 479.636719 L 885.433594 486.339844 L 886.820312 490.882812 L 888.207031 492.277344 L 889.589844 497.132812 L 890.976562 494.535156 L 892.363281 498.394531 L 893.746094 504.046875 L 895.132812 500.003906 L 896.519531 501.898438 L 897.902344 503.339844 L 899.289062 505.734375 L 900.675781 506.320312 L 902.058594 510.316406 L 903.445312 517.960938 L 904.832031 521.003906 L 906.214844 524.734375 L 907.601562 524.386719 L 908.988281 525.878906 L 910.371094 525.394531 L 911.757812 525.816406 L 913.144531 530.144531 L 914.527344 529.621094 L 915.914062 536.015625 L 917.300781 539.167969 L 918.683594 537.714844 L 920.070312 545.214844 L 921.457031 543.636719 L 922.84375 543.140625 L 924.226562 545.1875 L 925.613281 553.433594 L 927 555.75 L 928.382812 555.546875 L 929.769531 554.011719 L 931.15625 558.105469 L 932.539062 550.945312 L 933.925781 547.683594 L 935.3125 545.234375 L 936.695312 545.398438 L 938.082031 544.054688 L 939.46875 540.417969 L 940.851562 532.753906 L 942.238281 538.242188 L 943.625 548.933594 L 945.007812 551.640625 L 946.394531 555.390625 L 947.78125 556.578125 L 949.164062 557.199219 L 950.550781 553.992188 L 951.9375 560.136719 L 953.320312 555.222656 L 954.707031 558.335938 L 956.09375 557.898438 L 957.476562 556.558594 L 958.863281 557.257812 L 960.25 560.757812 L 961.632812 558.179688 L 963.019531 562.746094 L 964.40625 564.796875 L 965.789062 569.023438 L 967.175781 577.289062 L 968.5625 580.878906 L 969.945312 582.160156 L 971.332031 579.761719 L 972.71875 572.363281 L 974.105469 563.835938 L 975.488281 559.496094 L 976.875 559.425781 L 978.261719 559.730469 L 979.644531 560.714844 L 981.03125 567.316406 L 982.417969 572.5 L 983.800781 578.042969 L 985.1875 575.242188 L 986.574219 573.761719 L 987.957031 577.640625 L 989.34375 579.273438 L 990.730469 576.753906 L 992.113281 585.191406 L 993.5 589.046875 L 994.886719 596.511719 L 996.269531 601.777344 L 997.65625 596.9375 L 999.042969 598.121094 L 1000.425781 604.050781 L 1001.8125 609.230469 L 1003.199219 615.882812 L 1004.582031 606.664062 L 1005.96875 602.21875 L 1007.355469 601.25 L 1008.738281 598.738281 L 1010.125 586.664062 L 1011.511719 593.054688 L 1012.894531 599.953125 L 1014.28125 605.097656 L 1015.667969 602.238281 L 1017.050781 603.726562 L 1018.4375 608.507812 L 1019.824219 615.613281 L 1021.210938 612.019531 L 1022.59375 602.25 L 1023.980469 596.21875 L 1025.367188 598.3125 L 1026.75 601.71875 L 1028.136719 611.203125 L 1029.523438 608.519531 L 1030.90625 614.453125 L 1032.292969 616.34375 L 1033.679688 608.183594 L 1035.0625 607.027344 L 1036.449219 605.386719 L 1037.835938 613.628906 L 1039.21875 617.589844 L 1040.605469 616.175781 L 1041.992188 611.324219 L 1043.375 610.765625 L 1044.761719 616.058594 L 1046.148438 619.609375 L 1047.53125 617.097656 L 1048.917969 620.78125 L 1050.304688 625.859375 L 1051.6875 624.429688 L 1053.074219 614.996094 L 1054.460938 610.921875 L 1055.84375 613.636719 L 1057.230469 619.039062 L 1058.617188 623.859375 L 1060 626.0625 L 1061.386719 622.246094 L 1062.773438 617.523438 L 1064.15625 615.324219 L 1065.542969 607.417969 L 1066.929688 602.007812 L 1068.3125 599.070312 L 1069.699219 598.59375 L 1071.085938 596.664062 L 1072.472656 596.566406 L 1073.855469 600.691406 L 1075.242188 602.785156 L 1076.628906 602.109375 L 1078.011719 596.890625 L 1079.398438 595.882812 L 1080.785156 601.402344 L 1082.167969 606.769531 L 1083.554688 607.125 L 1084.941406 612.640625 L 1086.324219 614.855469 L 1087.710938 613.542969 L 1089.097656 611.351562 L 1090.480469 607.9375 L 1091.867188 610.246094 L 1093.253906 611.632812 L 1094.636719 608.828125 L 1096.023438 609.675781 L 1097.410156 601.246094 L 1098.792969 598.050781 L 1100.179688 592.734375 L 1101.566406 598.988281 L 1102.949219 602.132812 L 1104.335938 604.316406 L 1105.722656 601.464844 L 1107.105469 596.375 L 1108.492188 604.445312 L 1109.878906 602.457031 L 1111.261719 610.875 L 1112.648438 609.792969 L 1114.035156 608.578125 L 1115.421875 609.027344 L 1116.804688 616.324219 L 1118.191406 623.34375 L 1119.578125 621.753906 L 1120.960938 618.878906 L 1122.347656 612.691406 L 1123.734375 612.347656 L 1125.117188 607.144531 L 1126.503906 602.402344 L 1127.890625 609.917969 L 1129.273438 614.820312 L 1130.660156 617.375 L 1132.046875 618.484375 "/>
<path fill="none" stroke-width="1" stroke-linecap="butt" stroke-linejoin="miter" stroke="rgb(0%, 0%, 0%)" stroke-opacity="1" stroke-miterlimit="1.154701" d="M 231.5 761.5 L 231.5 766.5 "/>
<path fill="none" stroke-width="1" stroke-linecap="butt" stroke-linejoin="miter" stroke="rgb(0%, 0%, 0%)" stroke-opacity="1" stroke-miterlimit="1.154701" d="M 439.316406 761.5 L 439.316406 766.5 "/>
<path fill="none" stroke-width="1" stroke-linecap="butt" stroke-linejoin="miter" stroke="rgb(0%, 0%, 0%)" stroke-opacity="1" stroke-miterlimit="1.154701" d="M 647.136719 761.5 L 647.136719 766.5 "/>
<path fill="none" stroke-width="1" stroke-linecap="butt" stroke-linejoin="miter" stroke="rgb(0%, 0%, 0%)" stroke-opacity="1" stroke-miterlimit="1.154701" d="M 854.953125 761.5 L 854.953125 766.5 "/>
<path fill="none" stroke-width="1" stroke-linecap="butt" stroke-linejoin="miter" stroke="rgb(0%, 0%, 0%)" stroke-opacity="1" stroke-miterlimit="1.154701" d="M 1062.773438 761.5 L 1062.773438 766.5 "/>
<path fill="none" stroke-width="1" stroke-linecap="butt" stroke-linejoin="miter" stroke="rgb(0%, 0%, 0%)" stroke-opacity="1" stroke-miterlimit="1.154701" d="M 40.5 657.878906 L 35.5 657.878906 "/>
<path fill="none" stroke-width="1" stroke-linecap="butt" stroke-linejoin="miter" stroke="rgb(0%, 0%, 0%)" stroke-opacity="1" stroke-miterlimit="1.154701" d="M 40.5 479.332031 L 35.5 479.332031 "/>
<path fill="none" stroke-width="1" stroke-linecap="butt" stroke-linejoin="miter" stroke="rgb(0%, 0%, 0%)" stroke-opacity="1" stroke-miterlimit="1.154701" d="M 40.5 300.78125 L 35.5 300.78125 "/>
<path fill="none" stroke-width="1" stroke-linecap="butt" stroke-linejoin="miter" stroke="rgb(0%, 0%, 0%)" stroke-opacity="1" stroke-miterlimit="1.154701" d="M 40.5 122.234375 L 35.5 122.234375 "/>
<path fill="none" stroke-width="1" stroke-linecap="butt" stroke-linejoin="miter" stroke="rgb(0%, 0%, 0%)" stroke-opacity="1" stroke-miterlimit="1.154701" d="M 40.5 761 L 1184.5 761 "/>
<path fill="none" stroke-width="1" stroke-linecap="butt" stroke-linejoin="miter" stroke="rgb(0%, 0%, 0%)" stroke-opacity="1" stroke-miterlimit="1.154701" d="M 41 761.5 L 41 15.5 "/>
<path fill="none" stroke-width="1" stroke-linecap="butt" stroke-linejoin="miter" stroke="rgb(0%, 0%, 0%)" stroke-opacity="1" stroke-miterlimit="1.154701" d="M 40.5 16 L 1184.5 16 "/>
<path fill="none" stroke-width="1" stroke-linecap="butt" stroke-linejoin="miter" stroke="rgb(0%, 0%, 0%)" stroke-opacity="1" stroke-miterlimit="1.154701" d="M 1184 761.5 L 1184 15.5 "/>
</svg>
