<?xml version="1.0" encoding="UTF-8"?>
<svg xmlns="http://www.w3.org/2000/svg" xmlns:xlink="http://www.w3.org/1999/xlink" width="1200" height="800" viewBox="0 0 1200 800">
<defs>
<g>
<g id="glyph-0-0-1a67842f">
<path d="M 7.21875 -3.03125 C 7.21875 -3.03125 0.953125 -3.03125 0.953125 -3.03125 C 0.953125 -3.03125 0.953125 -3.96875 0.953125 -3.96875 C 0.953125 -3.96875 7.21875 -3.96875 7.21875 -3.96875 C 7.21875 -3.96875 7.21875 -3.03125 7.21875 -3.03125 Z M 7.21875 -3.03125 "/>
</g>
<g id="glyph-0-1-1a67842f">
<path d="M 7.09375 -4.78125 C 7.09375 -1.515625 5.953125 0.203125 3.84375 0.203125 C 1.71875 0.203125 0.609375 -1.515625 0.609375 -4.859375 C 0.609375 -8.1875 1.703125 -9.921875 3.84375 -9.921875 C 6 -9.921875 7.09375 -8.21875 7.09375 -4.78125 Z M 5.84375 -4.890625 C 5.84375 -7.546875 5.1875 -8.828125 3.84375 -8.828125 C 2.515625 -8.828125 1.859375 -7.5625 1.859375 -4.84375 C 1.859375 -2.125 2.515625 -0.8125 3.828125 -0.8125 C 5.1875 -0.8125 5.84375 -2.078125 5.84375 -4.890625 Z M 5.84375 -4.890625 "/>
</g>
<g id="glyph-0-2-1a67842f">
<path d="M 2.671875 0 C 2.671875 0 1.21875 0 1.21875 0 C 1.21875 0 1.21875 -1.453125 1.21875 -1.453125 C 1.21875 -1.453125 2.671875 -1.453125 2.671875 -1.453125 C 2.671875 -1.453125 2.671875 0 2.671875 0 Z M 2.671875 0 "/>
</g>
<g id="glyph-0-3-1a67842f">
<path d="M 7.078125 -2.890625 C 7.078125 -1.015625 5.765625 0.203125 3.71875 0.203125 C 1.6875 0.203125 0.609375 -0.78125 0.453125 -3 C 0.453125 -3 1.6875 -3 1.6875 -3 C 1.765625 -1.546875 2.421875 -0.875 3.765625 -0.875 C 5.046875 -0.875 5.828125 -1.625 5.828125 -2.875 C 5.828125 -3.96875 5.125 -4.625 3.765625 -4.625 C 3.765625 -4.625 3.09375 -4.625 3.09375 -4.625 C 3.09375 -4.625 3.09375 -5.65625 3.09375 -5.65625 C 5.0625 -5.65625 5.53125 -6.09375 5.53125 -7.15625 C 5.53125 -8.203125 4.875 -8.84375 3.78125 -8.84375 C 2.515625 -8.84375 1.921875 -8.1875 1.890625 -6.71875 C 1.890625 -6.71875 0.65625 -6.71875 0.65625 -6.71875 C 0.703125 -8.828125 1.765625 -9.921875 3.765625 -9.921875 C 5.65625 -9.921875 6.796875 -8.90625 6.796875 -7.203125 C 6.796875 -6.203125 6.328125 -5.5625 5.40625 -5.1875 C 6.59375 -4.78125 7.078125 -4.09375 7.078125 -2.890625 Z M 7.078125 -2.890625 "/>
</g>
<g id="glyph-0-4-1a67842f">
<path d="M 7.1875 -3.078125 C 7.1875 -1.140625 5.828125 0.203125 3.9375 0.203125 C 1.671875 0.203125 0.609375 -1.421875 0.609375 -4.515625 C 0.609375 -7.984375 1.84375 -9.921875 4.15625 -9.921875 C 5.671875 -9.921875 6.734375 -8.953125 6.96875 -7.34375 C 6.96875 -7.34375 5.734375 -7.34375 5.734375 -7.34375 C 5.546875 -8.28125 4.9375 -8.828125 4.078125 -8.828125 C 2.65625 -8.828125 1.875 -7.484375 1.859375 -5.0625 C 2.390625 -5.796875 3.15625 -6.171875 4.140625 -6.171875 C 5.921875 -6.171875 7.1875 -4.921875 7.1875 -3.078125 Z M 5.921875 -2.984375 C 5.921875 -4.3125 5.1875 -5.078125 3.984375 -5.078125 C 2.765625 -5.078125 1.9375 -4.28125 1.9375 -3.046875 C 1.9375 -1.78125 2.796875 -0.875 3.953125 -0.875 C 5.078125 -0.875 5.921875 -1.734375 5.921875 -2.984375 Z M 5.921875 -2.984375 "/>
</g>
<g id="glyph-0-5-1a67842f">
<path d="M 7.125 -5.1875 C 7.125 -1.765625 5.875 0.203125 3.5625 0.203125 C 2.046875 0.203125 0.984375 -0.75 0.734375 -2.375 C 0.734375 -2.375 1.96875 -2.375 1.96875 -2.375 C 2.171875 -1.421875 2.765625 -0.875 3.640625 -0.875 C 5.046875 -0.875 5.84375 -2.21875 5.859375 -4.640625 C 5.203125 -3.875 4.515625 -3.546875 3.578125 -3.546875 C 1.796875 -3.546875 0.53125 -4.78125 0.53125 -6.640625 C 0.53125 -8.578125 1.890625 -9.921875 3.78125 -9.921875 C 6.046875 -9.921875 7.125 -8.296875 7.125 -5.1875 Z M 5.78125 -6.65625 C 5.78125 -7.953125 4.90625 -8.84375 3.765625 -8.84375 C 2.625 -8.84375 1.796875 -8 1.796875 -6.734375 C 1.796875 -5.40625 2.53125 -4.640625 3.71875 -4.640625 C 4.921875 -4.640625 5.78125 -5.453125 5.78125 -6.65625 Z M 5.78125 -6.65625 "/>
</g>
<g id="glyph-0-6-1a67842f">
<path d="M 4.859375 0 C 4.859375 0 3.625 0 3.625 0 C 3.625 0 3.625 -7.0625 3.625 -7.0625 C 3.625 -7.0625 1.421875 -7.0625 1.421875 -7.0625 C 1.421875 -7.0625 1.421875 -7.953125 1.421875 -7.953125 C 3.328125 -8.1875 3.609375 -8.40625 4.046875 -9.921875 C 4.046875 -9.921875 4.859375 -9.921875 4.859375 -9.921875 C 4.859375 -9.921875 4.859375 0 4.859375 0 Z M 4.859375 0 "/>
</g>
<g id="glyph-1-0-1a67842f">
<path d="M 7.09375 -4.78125 C 7.09375 -1.515625 5.953125 0.203125 3.84375 0.203125 C 1.71875 0.203125 0.609375 -1.515625 0.609375 -4.859375 C 0.609375 -8.1875 1.703125 -9.921875 3.84375 -9.921875 C 6 -9.921875 7.09375 -8.21875 7.09375 -4.78125 Z M 5.84375 -4.890625 C 5.84375 -7.546875 5.1875 -8.828125 3.84375 -8.828125 C 2.515625 -8.828125 1.859375 -7.5625 1.859375 -4.84375 C 1.859375 -2.125 2.515625 -0.8125 3.828125 -0.8125 C 5.1875 -0.8125 5.84375 -2.078125 5.84375 -4.890625 Z M 5.84375 -4.890625 "/>
</g>
<g id="glyph-2-0-1a67842f">
<path d="M 4.859375 0 C 4.859375 0 3.625 0 3.625 0 C 3.625 0 3.625 -7.0625 3.625 -7.0625 C 3.625 -7.0625 1.421875 -7.0625 1.421875 -7.0625 C 1.421875 -7.0625 1.421875 -7.953125 1.421875 -7.953125 C 3.328125 -8.1875 3.609375 -8.40625 4.046875 -9.921875 C 4.046875 -9.921875 4.859375 -9.921875 4.859375 -9.921875 C 4.859375 -9.921875 4.859375 0 4.859375 0 Z M 4.859375 0 "/>
</g>
<g id="glyph-3-0-1a67842f">
<path d="M 7.15625 -7.015625 C 7.15625 -5.796875 6.4375 -4.765625 5.046875 -4.015625 C 5.046875 -4.015625 3.65625 -3.265625 3.65625 -3.265625 C 2.4375 -2.546875 1.984375 -2.03125 1.859375 -1.21875 C 1.859375 -1.21875 7.078125 -1.21875 7.078125 -1.21875 C 7.078125 -1.21875 7.078125 0 7.078125 0 C 7.078125 0 0.46875 0 0.46875 0 C 0.59375 -2.1875 1.1875 -3.125 3.265625 -4.296875 C 3.265625 -4.296875 4.546875 -5.03125 4.546875 -5.03125 C 5.4375 -5.53125 5.890625 -6.203125 5.890625 -6.984375 C 5.890625 -8.046875 5.046875 -8.84375 3.9375 -8.84375 C 2.71875 -8.84375 2.03125 -8.140625 1.9375 -6.484375 C 1.9375 -6.484375 0.703125 -6.484375 0.703125 -6.484375 C 0.765625 -8.890625 1.953125 -9.921875 3.96875 -9.921875 C 5.859375 -9.921875 7.15625 -8.6875 7.15625 -7.015625 Z M 7.15625 -7.015625 "/>
</g>
</g>
</defs>
<rect x="-120" y="-80" width="1440" height="960" fill="rgb(100%, 100%, 100%)" fill-opacity="1"/>
<path fill-rule="nonzero" fill="rgb(100%, 100%, 100%)" fill-opacity="1" d="M 41 761 L 1184 761 L 1184 16 L 41 16 Z M 41 761 "/>
<path fill="none" stroke-width="1" stroke-linecap="butt" stroke-linejoin="miter" stroke="rgb(0%, 0%, 0%)" stroke-opacity="0.12" stroke-miterlimit="1.154701" d="M 231.5 761 L 231.5 16 "/>
<path fill="none" stroke-width="1" stroke-linecap="butt" stroke-linejoin="miter" stroke="rgb(0%, 0%, 0%)" stroke-opacity="0.12" stroke-miterlimit="1.154701" d="M 439.316406 761 L 439.316406 16 "/>
<path fill="none" stroke-width="1" stroke-linecap="butt" stroke-linejoin="miter" stroke="rgb(0%, 0%, 0%)" stroke-opacity="0.12" stroke-miterlimit="1.154701" d="M 647.136719 761 L 647.136719 16 "/>
<path fill="none" stroke-width="1" stroke-linecap="butt" stroke-linejoin="miter" stroke="rgb(0%, 0%, 0%)" stroke-opacity="0.12" stroke-miterlimit="1.154701" d="M 854.953125 761 L 854.953125 16 "/>
<path fill="none" stroke-width="1" stroke-linecap="butt" stroke-linejoin="miter" stroke="rgb(0%, 0%, 0%)" stroke-opacity="0.12" stroke-miterlimit="1.154701" d="M 1062.773438 761 L 1062.773438 16 "/>
<path fill="none" stroke-width="1" stroke-linecap="butt" stroke-linejoin="miter" stroke="rgb(0%, 0%, 0%)" stroke-opacity="0.12" stroke-miterlimit="1.154701" d="M 41 694.007812 L 1184 694.007812 "/>
<path fill="none" stroke-width="1" stroke-linecap="butt" stroke-linejoin="miter" stroke="rgb(0%, 0%, 0%)" stroke-opacity="0.12" stroke-miterlimit="1.154701" d="M 41 500.5625 L 1184 500.5625 "/>
<path fill="none" stroke-width="1" stroke-linecap="butt" stroke-linejoin="miter" stroke="rgb(0%, 0%, 0%)" stroke-opacity="0.12" stroke-miterlimit="1.154701" d="M 41 307.117188 L 1184 307.117188 "/>
<path fill="none" stroke-width="1" stroke-linecap="butt" stroke-linejoin="miter" stroke="rgb(0%, 0%, 0%)" stroke-opacity="0.12" stroke-miterlimit="1.154701" d="M 41 113.671875 L 1184 113.671875 "/>
<g fill="rgb(0%, 0%, 0%)" fill-opacity="1">
<use xlink:href="#glyph-0-0-1a67842f" x="217.682005" y="782.258001"/>
</g>
<g fill="rgb(0%, 0%, 0%)" fill-opacity="1">
<use xlink:href="#glyph-0-1-1a67842f" x="225.858005" y="782.258001"/>
</g>
<g fill="rgb(0%, 0%, 0%)" fill-opacity="1">
<use xlink:href="#glyph-0-2-1a67842f" x="233.642005" y="782.258001"/>
</g>
<g fill="rgb(0%, 0%, 0%)" fill-opacity="1">
<use xlink:href="#glyph-0-3-1a67842f" x="237.534005" y="782.258001"/>
</g>
<g fill="rgb(0%, 0%, 0%)" fill-opacity="1">
<use xlink:href="#glyph-0-1-1a67842f" x="429.588187" y="782.258001"/>
</g>
<g fill="rgb(0%, 0%, 0%)" fill-opacity="1">
<use xlink:href="#glyph-0-2-1a67842f" x="437.372187" y="782.258001"/>
</g>
<g fill="rgb(0%, 0%, 0%)" fill-opacity="1">
<use xlink:href="#glyph-0-1-1a67842f" x="441.264187" y="782.258001"/>
</g>
<g fill="rgb(0%, 0%, 0%)" fill-opacity="1">
<use xlink:href="#glyph-0-1-1a67842f" x="637.406368" y="782.258001"/>
</g>
<g fill="rgb(0%, 0%, 0%)" fill-opacity="1">
<use xlink:href="#glyph-0-2-1a67842f" x="645.190369" y="782.258001"/>
</g>
<g fill="rgb(0%, 0%, 0%)" fill-opacity="1">
<use xlink:href="#glyph-0-3-1a67842f" x="649.082368" y="782.258001"/>
</g>
<g fill="rgb(0%, 0%, 0%)" fill-opacity="1">
<use xlink:href="#glyph-0-1-1a67842f" x="845.22455" y="782.258001"/>
</g>
<g fill="rgb(0%, 0%, 0%)" fill-opacity="1">
<use xlink:href="#glyph-0-2-1a67842f" x="853.00855" y="782.258001"/>
</g>
<g fill="rgb(0%, 0%, 0%)" fill-opacity="1">
<use xlink:href="#glyph-0-4-1a67842f" x="856.90055" y="782.258001"/>
</g>
<g fill="rgb(0%, 0%, 0%)" fill-opacity="1">
<use xlink:href="#glyph-0-1-1a67842f" x="1053.042731" y="782.258001"/>
</g>
<g fill="rgb(0%, 0%, 0%)" fill-opacity="1">
<use xlink:href="#glyph-0-2-1a67842f" x="1060.826731" y="782.258001"/>
</g>
<g fill="rgb(0%, 0%, 0%)" fill-opacity="1">
<use xlink:href="#glyph-0-5-1a67842f" x="1064.718731" y="782.258001"/>
</g>
<g fill="rgb(0%, 0%, 0%)" fill-opacity="1">
<use xlink:href="#glyph-0-0-1a67842f" x="15.040001" y="699.109716"/>
</g>
<g fill="rgb(0%, 0%, 0%)" fill-opacity="1">
<use xlink:href="#glyph-0-6-1a67842f" x="23.216001" y="699.109716"/>
</g>
<g fill="rgb(0%, 0%, 0%)" fill-opacity="1">
<use xlink:href="#glyph-1-0-1a67842f" x="23.216001" y="505.665079"/>
</g>
<g fill="rgb(0%, 0%, 0%)" fill-opacity="1">
<use xlink:href="#glyph-2-0-1a67842f" x="23.216001" y="312.220443"/>
</g>
<g fill="rgb(0%, 0%, 0%)" fill-opacity="1">
<use xlink:href="#glyph-3-0-1a67842f" x="23.216001" y="118.775806"/>
</g>
<path fill="none" stroke-width="3" stroke-linecap="butt" stroke-linejoin="miter" stroke="rgb(0%, 44.705883%, 69.803923%)" stroke-opacity="1" stroke-miterlimit="2" d="M 92.953125 576.851562 L 94.339844 572.730469 L 95.726562 567.109375 L 97.109375 565.542969 L 98.496094 572.25 L 99.882812 574.773438 L 101.265625 572.070312 L 102.652344 570.109375 L 104.039062 568.390625 L 105.421875 570.222656 L 106.808594 574.726562 L 108.195312 575.078125 L 109.578125 572.988281 L 110.964844 570.089844 L 112.351562 568.222656 L 113.738281 568.6875 L 115.121094 563.222656 L 116.507812 558.828125 L 117.894531 554.117188 L 119.277344 548.710938 L 120.664062 546.789062 L 122.050781 543.125 L 123.433594 538.535156 L 124.820312 545.027344 L 126.207031 547.839844 L 127.589844 557.289062 L 128.976562 563.902344 L 130.363281 562.476562 L 131.746094 564.796875 L 133.132812 566.941406 L 134.519531 575.042969 L 135.902344 575.519531 L 137.289062 579.339844 L 138.675781 579 L 140.058594 575.054688 L 141.445312 576.738281 L 142.832031 568.054688 L 144.214844 566.738281 L 145.601562 578.089844 L 146.988281 582.054688 L 148.371094 578.605469 L 149.757812 571.402344 L 151.144531 565.722656 L 152.527344 557.855469 L 153.914062 556.882812 L 155.300781 557.390625 L 156.683594 557.628906 L 158.070312 552.28125 L 159.457031 546.152344 L 160.84375 548.660156 L 162.226562 552.019531 L 163.613281 560.382812 L 165 563.078125 L 166.382812 566.910156 L 167.769531 560.570312 L 169.15625 555.171875 L 170.539062 557.433594 L 171.925781 557.609375 L 173.3125 561.398438 L 174.695312 561.796875 L 176.082031 559.394531 L 177.46875 550.351562 L 178.851562 547.027344 L 180.238281 539.734375 L 181.625 533.417969 L 183.007812 535.054688 L 184.394531 525.871094 L 185.78125 516.640625 L 187.164062 520.699219 L 188.550781 529.40625 L 189.9375 526.554688 L 191.320312 525.613281 L 192.707031 531.449219 L 194.09375 534.492188 L 195.476562 534.582031 L 196.863281 541.394531 L 198.25 533.765625 L 199.632812 544.210938 L 201.019531 553.175781 L 202.40625 560.964844 L 203.789062 564.976562 L 205.175781 561.289062 L 206.5625 554.011719 L 207.949219 542.90625 L 209.332031 548.246094 L 210.71875 546.09375 L 212.105469 546.070312 L 213.488281 545.652344 L 214.875 540.476562 L 216.261719 536.207031 L 217.644531 527.664062 L 219.03125 524.613281 L 220.417969 519.230469 L 221.800781 516.53125 L 223.1875 522.050781 L 224.574219 524.640625 L 225.957031 525.480469 L 227.34375 515.421875 L 228.730469 520.277344 L 230.113281 523.8125 L 231.5 530.289062 L 232.886719 533.878906 L 234.269531 538.855469 L 235.65625 542.402344 L 237.042969 544.316406 L 238.425781 554.898438 L 239.8125 561.589844 L 241.199219 545.992188 L 242.582031 536.0625 L 243.96875 541.125 L 245.355469 551.179688 L 246.738281 552.894531 L 248.125 548.421875 L 249.511719 545.441406 L 250.894531 535.347656 L 252.28125 531.015625 L 253.667969 529.777344 L 255.054688 529.355469 L 256.4375 534.121094 L 257.824219 528.480469 L 259.210938 535.300781 L 260.59375 537.960938 L 261.980469 540.320312 L 263.367188 538.027344 L 264.75 541.242188 L 266.136719 548.265625 L 267.523438 564.570312 L 268.90625 575.210938 L 270.292969 573.949219 L 271.679688 577.730469 L 273.0625 579.886719 L 274.449219 578.402344 L 275.835938 581.019531 L 277.21875 588.828125 L 278.605469 590.617188 L 279.992188 589.121094 L 281.375 589.824219 L 282.761719 585.765625 L 284.148438 593.929688 L 285.53125 587.796875 L 286.917969 580.421875 L 288.304688 570.261719 L 289.6875 575.503906 L 291.074219 579.59375 L 292.460938 579.320312 L 293.84375 576.46875 L 295.230469 580.773438 L 296.617188 578.0625 L 298 579.707031 L 299.386719 587.242188 L 300.773438 574.742188 L 302.15625 567.269531 L 303.542969 572.804688 L 304.929688 566.167969 L 306.316406 569.9375 L 307.699219 570.902344 L 309.085938 571.21875 L 310.472656 575.992188 L 311.855469 572.601562 L 313.242188 575.996094 L 314.628906 567.3125 L 316.011719 569.488281 L 317.398438 574.15625 L 318.785156 579.210938 L 320.167969 575.058594 L 321.554688 573.839844 L 322.941406 571.3125 L 324.324219 583.300781 L 325.710938 582.804688 L 327.097656 588.339844 L 328.480469 590.15625 L 329.867188 582.671875 L 331.253906 585.710938 L 332.636719 594.3125 L 334.023438 595.945312 L 335.410156 605.011719 L 336.792969 607.0625 L 338.179688 607.472656 L 339.566406 613.464844 L 340.949219 611.425781 L 342.335938 616.003906 L 343.722656 624.441406 L 345.105469 624.722656 L 346.492188 629.316406 L 347.878906 629.96875 L 349.261719 629.746094 L 350.648438 619.460938 L 352.035156 612.996094 L 353.421875 608.65625 L 354.804688 611.4375 L 356.191406 610.527344 L 357.578125 606.496094 L 358.960938 600.914062 L 360.347656 590.523438 L 361.734375 594.550781 L 363.117188 606.371094 L 364.503906 616.011719 L 365.890625 623.339844 L 367.273438 620.597656 L 368.660156 617.296875 L 370.046875 621.574219 L 371.429688 628.472656 L 372.816406 631.730469 L 374.203125 631.269531 L 375.585938 636.226562 L 376.972656 638.914062 L 378.359375 637.273438 L 379.742188 635.332031 L 381.128906 631.226562 L 382.515625 628.742188 L 383.898438 629.773438 L 385.285156 632.003906 L 386.671875 630.605469 L 388.054688 625.058594 L 389.441406 621.089844 L 390.828125 617.644531 L 392.210938 612.550781 L 393.597656 604.351562 L 394.984375 596.308594 L 396.367188 598.015625 L 397.753906 598.605469 L 399.140625 612.648438 L 400.527344 622.902344 L 401.910156 620.273438 L 403.296875 618.09375 L 404.683594 619.425781 L 406.066406 619.21875 L 407.453125 620.449219 L 408.839844 624.304688 L 410.222656 622.785156 L 411.609375 619.851562 L 412.996094 620.734375 L 414.378906 623.050781 L 415.765625 623.023438 L 417.152344 620.433594 L 418.535156 616.160156 L 419.921875 615.613281 L 421.308594 609.929688 L 422.691406 606.234375 L 424.078125 597.878906 L 425.464844 595.433594 L 426.847656 593.910156 L 428.234375 587.898438 L 429.621094 582.539062 L 431.003906 583.992188 L 432.390625 591.480469 L 433.777344 593.828125 L 435.160156 592.03125 L 436.546875 586.714844 L 437.933594 585.273438 L 439.316406 583.691406 L 440.703125 585.351562 L 442.089844 584.839844 L 443.472656 586.175781 L 444.859375 592.773438 L 446.246094 596.375 L 447.632812 603.996094 L 449.015625 608.746094 L 450.402344 606.992188 L 451.789062 609.398438 L 453.171875 599.074219 L 454.558594 602.40625 L 455.945312 604.441406 L 457.328125 601.875 L 458.714844 595.089844 L 460.101562 590.0625 L 461.484375 584.183594 L 462.871094 588.082031 L 464.257812 576.660156 L 465.640625 578.703125 L 467.027344 572.144531 L 468.414062 572.707031 L 469.796875 560.5625 L 471.183594 549.242188 L 472.570312 556 L 473.953125 556.320312 L 475.339844 552.28125 L 476.726562 548.578125 L 478.109375 534.703125 L 479.496094 526.078125 L 480.882812 524.1875 L 482.265625 525.296875 L 483.652344 537.84375 L 485.039062 533.328125 L 486.421875 532.074219 L 487.808594 536.726562 L 489.195312 541.679688 L 490.578125 541.738281 L 491.964844 547.929688 L 493.351562 545.371094 L 494.738281 542.171875 L 496.121094 526 L 497.507812 517.292969 L 498.894531 512.304688 L 500.277344 511.824219 L 501.664062 515.765625 L 503.050781 518.292969 L 504.433594 514.589844 L 505.820312 499.125 L 507.207031 492.390625 L 508.589844 482.75 L 509.976562 478 L 511.363281 470.839844 L 512.746094 462.039062 L 514.132812 452.796875 L 515.519531 446.980469 L 516.902344 447.140625 L 518.289062 432.601562 L 519.675781 429.421875 L 521.058594 419.761719 L 522.445312 411.710938 L 523.832031 397.769531 L 525.214844 386.695312 L 526.601562 373.871094 L 527.988281 363.785156 L 529.371094 354.605469 L 530.757812 337.902344 L 532.144531 324.445312 L 533.527344 318.359375 L 534.914062 310.273438 L 536.300781 302.453125 L 537.683594 300.824219 L 539.070312 291.558594 L 540.457031 290.292969 L 541.84375 289.691406 L 543.226562 284.074219 L 544.613281 273.726562 L 546 278.894531 L 547.382812 271.535156 L 548.769531 279.410156 L 550.15625 277.167969 L 551.539062 280.398438 L 552.925781 268.542969 L 554.3125 249.96875 L 555.695312 231.074219 L 557.082031 221.746094 L 558.46875 208.308594 L 559.851562 196.945312 L 561.238281 188.027344 L 562.625 176.53125 L 564.007812 162.09375 L 565.394531 146.402344 L 566.78125 137.3125 L 568.164062 128.074219 L 569.550781 120.191406 L 570.9375 116.722656 L 572.320312 113.953125 L 573.707031 118.140625 L 575.09375 115.082031 L 576.476562 114.546875 L 577.863281 111.371094 L 579.25 113.859375 L 580.632812 112.6875 L 582.019531 117.210938 L 583.40625 116.484375 L 584.789062 115.578125 L 586.175781 117.71875 L 587.5625 123.085938 L 588.945312 127.128906 L 590.332031 135.390625 L 591.71875 141.429688 L 593.105469 141.984375 L 594.488281 137.761719 L 595.875 142.574219 L 597.261719 144.355469 L 598.644531 142.996094 L 600.03125 143.421875 L 601.417969 147.3125 L 602.800781 151.765625 L 604.1875 154.398438 L 605.574219 150.554688 L 606.957031 152.761719 L 608.34375 156.035156 L 609.730469 167.46875 L 611.113281 167.542969 L 612.5 159.820312 L 613.886719 168.71875 L 615.269531 178.144531 L 616.65625 182.324219 L 618.042969 188.769531 L 619.425781 187.609375 L 620.8125 195.847656 L 622.199219 199.667969 L 623.582031 195.578125 L 624.96875 201.144531 L 626.355469 208.65625 L 627.738281 211.324219 L 629.125 216.613281 L 630.511719 225.96875 L 631.894531 227.753906 L 633.28125 224.800781 L 634.667969 235.363281 L 636.054688 240.371094 L 637.4375 250.113281 L 638.824219 252.3125 L 640.210938 257.097656 L 641.59375 257.644531 L 642.980469 260.007812 L 644.367188 270.195312 L 645.75 280.601562 L 647.136719 275.660156 L 648.523438 272.070312 L 649.90625 274.597656 L 651.292969 279.53125 L 652.679688 286.03125 L 654.0625 281.472656 L 655.449219 273.539062 L 656.835938 273.894531 L 658.21875 271.695312 L 659.605469 278.359375 L 660.992188 281.6875 L 662.375 278.90625 L 663.761719 278.054688 L 665.148438 281.585938 L 666.53125 287.246094 L 667.917969 296.660156 L 669.304688 297.394531 L 670.6875 305.054688 L 672.074219 310.203125 L 673.460938 306.445312 L 674.84375 303.617188 L 676.230469 303.910156 L 677.617188 308.367188 L 679 308.660156 L 680.386719 312.339844 L 681.773438 315.480469 L 683.15625 326.796875 L 684.542969 337.316406 L 685.929688 339.519531 L 687.316406 340.660156 L 688.699219 345.257812 L 690.085938 347.234375 L 691.472656 347.375 L 692.855469 345.441406 L 694.242188 342.941406 L 695.628906 344.808594 L 697.011719 347.984375 L 698.398438 348.945312 L 699.785156 357.023438 L 701.167969 351.875 L 702.554688 350.101562 L 703.941406 348.203125 L 705.324219 350.347656 L 706.710938 350.335938 L 708.097656 352.273438 L 709.480469 350.644531 L 710.867188 347.039062 L 712.253906 356.773438 L 713.636719 357.96875 L 715.023438 358.109375 L 716.410156 358.058594 L 717.792969 354.554688 L 719.179688 346.667969 L 720.566406 341.226562 L 721.949219 340.804688 L 723.335938 340.679688 L 724.722656 342.746094 L 726.105469 339.832031 L 727.492188 340.703125 L 728.878906 340.09375 L 730.261719 337.980469 L 731.648438 340.957031 L 733.035156 350.105469 L 734.421875 353.113281 L 735.804688 351.167969 L 737.191406 350.058594 L 738.578125 355.449219 L 739.960938 354.8125 L 741.347656 357.679688 L 742.734375 365.5 L 744.117188 367.132812 L 745.503906 365.121094 L 746.890625 365.457031 L 748.273438 366.605469 L 749.660156 363.386719 L 751.046875 362.382812 L 752.429688 368.386719 L 753.816406 370.109375 L 755.203125 362.425781 L 756.585938 363.238281 L 757.972656 365.878906 L 759.359375 373.457031 L 760.742188 373.457031 L 762.128906 374.105469 L 763.515625 378.167969 L 764.898438 381.699219 L 766.285156 387.4375 L 767.671875 385.46875 L 769.054688 385.148438 L 770.441406 390.714844 L 771.828125 399.03125 L 773.210938 400.351562 L 774.597656 401.003906 L 775.984375 402.332031 L 777.367188 394.421875 L 778.753906 395.644531 L 780.140625 402.285156 L 781.523438 406.914062 L 782.910156 410.316406 L 784.296875 410.3125 L 785.683594 404.527344 L 787.066406 407.074219 L 788.453125 401.984375 L 789.839844 406.507812 L 791.222656 405.546875 L 792.609375 406.71875 L 793.996094 408.941406 L 795.378906 406.800781 L 796.765625 411.933594 L 798.152344 420.617188 L 799.535156 428.683594 L 800.921875 433.109375 L 802.308594 434.300781 L 803.691406 438.292969 L 805.078125 443.195312 L 806.464844 450.507812 L 807.847656 455.195312 L 809.234375 457.117188 L 810.621094 454.019531 L 812.003906 451.664062 L 813.390625 454.136719 L 814.777344 460.671875 L 816.160156 465.890625 L 817.546875 475.210938 L 818.933594 472.421875 L 820.316406 475.234375 L 821.703125 473.457031 L 823.089844 477.136719 L 824.472656 481.511719 L 825.859375 489.277344 L 827.246094 490.246094 L 828.632812 491.980469 L 830.015625 491.554688 L 831.402344 502.28125 L 832.789062 510.664062 L 834.171875 510.589844 L 835.558594 505.378906 L 836.945312 501.820312 L 838.328125 505.515625 L 839.714844 511.695312 L 841.101562 516.679688 L 842.484375 514.230469 L 843.871094 508.683594 L 845.257812 505.800781 L 846.640625 506.417969 L 848.027344 504.023438 L 849.414062 505.09375 L 850.796875 512.769531 L 852.183594 520.074219 L 853.570312 522.335938 L 854.953125 522.617188 L 856.339844 520.632812 L 857.726562 518.585938 L 859.109375 527.707031 L 860.496094 529.789062 L 861.882812 526.53125 L 863.265625 530.550781 L 864.652344 534.398438 L 866.039062 535.589844 L 867.421875 539.503906 L 868.808594 536.128906 L 870.195312 532.65625 L 871.578125 530.789062 L 872.964844 533.144531 L 874.351562 534.285156 L 875.734375 529.863281 L 877.121094 528.976562 L 878.507812 530.355469 L 879.894531 530.203125 L 881.277344 523.660156 L 882.664062 523.5625 L 884.050781 521.371094 L 885.433594 516.644531 L 886.820312 519.007812 L 888.207031 524.859375 L 889.589844 534.679688 L 890.976562 538.257812 L 892.363281 546.605469 L 893.746094 548.15625 L 895.132812 551.488281 L 896.519531 548.074219 L 897.902344 533.6875 L 899.289062 530.980469 L 900.675781 533.867188 L 902.058594 529.054688 L 903.445312 536.144531 L 904.832031 539.230469 L 906.214844 543.757812 L 907.601562 552.054688 L 908.988281 555.746094 L 910.371094 556.261719 L 911.757812 559.796875 L 913.144531 565.472656 L 914.527344 561.941406 L 915.914062 549.253906 L 917.300781 548.355469 L 918.683594 549.761719 L 920.070312 556.605469 L 921.457031 559.597656 L 922.84375 554.925781 L 924.226562 549.546875 L 925.613281 555.40625 L 927 562.011719 L 928.382812 572.941406 L 929.769531 577.601562 L 931.15625 573.453125 L 932.539062 574.535156 L 933.925781 576.386719 L 935.3125 583.15625 L 936.695312 581.125 L 938.082031 579.953125 L 939.46875 576.183594 L 940.851562 581.824219 L 942.238281 586.554688 L 943.625 594.675781 L 945.007812 598.746094 L 946.394531 593.695312 L 947.78125 590.191406 L 949.164062 587.195312 L 950.550781 582.285156 L 951.9375 579.535156 L 953.320312 577.40625 L 954.707031 586.140625 L 956.09375 578.542969 L 957.476562 576.605469 L 958.863281 573.851562 L 960.25 569.296875 L 961.632812 570.9375 L 963.019531 567.917969 L 964.40625 561.523438 L 965.789062 558.4375 L 967.175781 565.753906 L 968.5625 565.8125 L 969.945312 567.765625 L 971.332031 563.828125 L 972.71875 570.296875 L 974.105469 571.339844 L 975.488281 564.316406 L 976.875 558.507812 L 978.261719 558.429688 L 979.644531 568.804688 L 981.03125 568.683594 L 982.417969 569.621094 L 983.800781 567.765625 L 985.1875 563.953125 L 986.574219 567.148438 L 987.957031 572.707031 L 989.34375 568.296875 L 990.730469 560.746094 L 992.113281 565.902344 L 993.5 571.277344 L 994.886719 575.824219 L 996.269531 572.789062 L 997.65625 575.886719 L 999.042969 579.34375 L 1000.425781 574.652344 L 1001.8125 579.886719 L 1003.199219 583.519531 L 1004.582031 591.300781 L 1005.96875 600.539062 L 1007.355469 603.5 L 1008.738281 606.015625 L 1010.125 598.265625 L 1011.511719 591.027344 L 1012.894531 587.042969 L 1014.28125 583.164062 L 1015.667969 583.546875 L 1017.050781 580.789062 L 1018.4375 586.667969 L 1019.824219 581.375 L 1021.210938 581.90625 L 1022.59375 581.542969 L 1023.980469 585.132812 L 1025.367188 577.242188 L 1026.75 568.429688 L 1028.136719 569.589844 L 1029.523438 569.554688 L 1030.90625 567.5625 L 1032.292969 566.78125 L 1033.679688 561.402344 L 1035.0625 563.164062 L 1036.449219 559.335938 L 1037.835938 565.632812 L 1039.21875 573.15625 L 1040.605469 571.503906 L 1041.992188 566.121094 L 1043.375 553.25 L 1044.761719 554.914062 L 1046.148438 558.105469 L 1047.53125 570.242188 L 1048.917969 574.390625 L 1050.304688 580.964844 L 1051.6875 586.140625 L 1053.074219 583.523438 L 1054.460938 585.558594 L 1055.84375 578.660156 L 1057.230469 570.972656 L 1058.617188 572.9375 L 1060 570.042969 L 1061.386719 567.167969 L 1062.773438 562.96875 L 1064.15625 556.277344 L 1065.542969 559.421875 L 1066.929688 552.523438 L 1068.3125 561.824219 L 1069.699219 559.859375 L 1071.085938 553.761719 L 1072.472656 555.78125 L 1073.855469 556.125 L 1075.242188 556.015625 L 1076.628906 555.5 L 1078.011719 555.96875 L 1079.398438 556.765625 L 1080.785156 557.867188 L 1082.167969 560.496094 L 1083.554688 574.5 L 1084.941406 582.136719 L 1086.324219 576.09375 L 1087.710938 580.191406 L 1089.097656 582.15625 L 1090.480469 579.328125 L 1091.867188 573.761719 L 1093.253906 570.039062 L 1094.636719 572.316406 L 1096.023438 564.328125 L 1097.410156 555.46875 L 1098.792969 549.894531 L 1100.179688 551.5625 L 1101.566406 559.277344 L 1102.949219 563.816406 L 1104.335938 562.847656 L 1105.722656 561.277344 L 1107.105469 564.253906 L 1108.492188 573.851562 L 1109.878906 577.972656 L 1111.261719 569.6875 L 1112.648438 565.859375 L 1114.035156 564.1875 L 1115.421875 565.976562 L 1116.804688 561.488281 L 1118.191406 572.820312 L 1119.578125 575.011719 L 1120.960938 578.277344 L 1122.347656 581.699219 L 1123.734375 589 L 1125.117188 589.703125 L 1126.503906 586.105469 L 1127.890625 575.726562 L 1129.273438 576.351562 L 1130.660156 575.523438 L 1132.046875 572.4375 "/>
<path fill="none" stroke-width="3" stroke-linecap="butt" stroke-linejoin="miter" stroke="rgb(90.196079%, 62.352943%, 0%)" stroke-opacity="1" stroke-miterlimit="2" d="M 92.953125 560.902344 L 94.339844 559.019531 L 95.726562 567.511719 L 97.109375 573.675781 L 98.496094 572.792969 L 99.882812 563.144531 L 101.265625 557.277344 L 102.652344 563.324219 L 104.039062 569.480469 L 105.421875 573.617188 L 106.808594 570.441406 L 108.195312 573.332031 L 109.578125 577.296875 L 110.964844 581.457031 L 112.351562 581.863281 L 113.738281 575.8125 L 115.121094 580.65625 L 116.507812 573.820312 L 117.894531 573.113281 L 119.277344 571.347656 L 120.664062 566.460938 L 122.050781 563.070312 L 123.433594 563.84375 L 124.820312 562.070312 L 126.207031 572.523438 L 127.589844 574.726562 L 128.976562 574.125 L 130.363281 567.332031 L 131.746094 569.050781 L 133.132812 576.714844 L 134.519531 581.882812 L 135.902344 584.195312 L 137.289062 585.035156 L 138.675781 580.945312 L 140.058594 583.316406 L 141.445312 585.449219 L 142.832031 579.320312 L 144.214844 583.199219 L 145.601562 579.394531 L 146.988281 573.109375 L 148.371094 572.605469 L 149.757812 575.167969 L 151.144531 577.65625 L 152.527344 567.359375 L 153.914062 567.769531 L 155.300781 569.5625 L 156.683594 576.226562 L 158.070312 573.808594 L 159.457031 566.765625 L 160.84375 558.292969 L 162.226562 558.957031 L 163.613281 569.46875 L 165 573.789062 L 166.382812 576.351562 L 167.769531 575.746094 L 169.15625 573.738281 L 170.539062 570.730469 L 171.925781 568.59375 L 173.3125 566.6875 L 174.695312 562.746094 L 176.082031 563.078125 L 177.46875 563.652344 L 178.851562 568.863281 L 180.238281 562.847656 L 181.625 559.246094 L 183.007812 557.164062 L 184.394531 558.738281 L 185.78125 555.542969 L 187.164062 554.195312 L 188.550781 559.625 L 189.9375 563.355469 L 191.320312 566.398438 L 192.707031 561.359375 L 194.09375 557.171875 L 195.476562 551.265625 L 196.863281 550.640625 L 198.25 554.46875 L 199.632812 558.617188 L 201.019531 563.621094 L 202.40625 569.636719 L 203.789062 571.816406 L 205.175781 571.441406 L 206.5625 574.480469 L 207.949219 570.609375 L 209.332031 567.59375 L 210.71875 571.808594 L 212.105469 573.660156 L 213.488281 579.800781 L 214.875 580.425781 L 216.261719 582.472656 L 217.644531 580.085938 L 219.03125 578.558594 L 220.417969 578.503906 L 221.800781 566.476562 L 223.1875 571.273438 L 224.574219 572.324219 L 225.957031 588.574219 L 227.34375 583.871094 L 228.730469 579.636719 L 230.113281 578.570312 L 231.5 584.578125 L 232.886719 590.195312 L 234.269531 600.359375 L 235.65625 607.007812 L 237.042969 603.054688 L 238.425781 596.722656 L 239.8125 592.347656 L 241.199219 590.921875 L 242.582031 592.839844 L 243.96875 591.171875 L 245.355469 597.480469 L 246.738281 596.34375 L 248.125 614.175781 L 249.511719 617.347656 L 250.894531 613.75 L 252.28125 610.097656 L 253.667969 599.558594 L 255.054688 593.222656 L 256.4375 586.257812 L 257.824219 592.058594 L 259.210938 587.359375 L 260.59375 587.292969 L 261.980469 582.296875 L 263.367188 575.011719 L 264.75 576.117188 L 266.136719 577.511719 L 267.523438 583.375 L 268.90625 586.464844 L 270.292969 584.199219 L 271.679688 581.089844 L 273.0625 575.902344 L 274.449219 586.554688 L 275.835938 595.554688 L 277.21875 603.863281 L 278.605469 607.277344 L 279.992188 603.714844 L 281.375 604 L 282.761719 602.519531 L 284.148438 600.238281 L 285.53125 595.347656 L 286.917969 591.484375 L 288.304688 582.585938 L 289.6875 571.15625 L 291.074219 569.78125 L 292.460938 575.792969 L 293.84375 576.132812 L 295.230469 572.6875 L 296.617188 572.332031 L 298 570.570312 L 299.386719 577.730469 L 300.773438 567.441406 L 302.15625 573.746094 L 303.542969 572.769531 L 304.929688 576.148438 L 306.316406 577.9375 L 307.699219 587.535156 L 309.085938 596.300781 L 310.472656 604.4375 L 311.855469 604.769531 L 313.242188 605.933594 L 314.628906 598.847656 L 316.011719 602.765625 L 317.398438 608.972656 L 318.785156 618.589844 L 320.167969 630.007812 L 321.554688 627.375 L 322.941406 626.71875 L 324.324219 627.304688 L 325.710938 618.464844 L 327.097656 609.34375 L 328.480469 607.128906 L 329.867188 605.964844 L 331.253906 610.726562 L 332.636719 612.636719 L 334.023438 607.175781 L 335.410156 600.351562 L 336.792969 596.019531 L 338.179688 603.476562 L 339.566406 607.105469 L 340.949219 607.789062 L 342.335938 608.121094 L 343.722656 609.503906 L 345.105469 620.386719 L 346.492188 621.550781 L 347.878906 623.910156 L 349.261719 618.972656 L 350.648438 623.671875 L 352.035156 628.742188 L 353.421875 643.847656 L 354.804688 652.140625 L 356.191406 654.722656 L 357.578125 663.183594 L 358.960938 670.652344 L 360.347656 665.144531 L 361.734375 656.660156 L 363.117188 658.386719 L 364.503906 660.230469 L 365.890625 655.300781 L 367.273438 659.082031 L 368.660156 660.507812 L 370.046875 658.003906 L 371.429688 653.351562 L 372.816406 657.96875 L 374.203125 663.558594 L 375.585938 670.660156 L 376.972656 680.027344 L 378.359375 680.042969 L 379.742188 679.21875 L 381.128906 692.089844 L 382.515625 694.382812 L 383.898438 689.199219 L 385.285156 689.238281 L 386.671875 684.761719 L 388.054688 692.976562 L 389.441406 695.25 L 390.828125 701.632812 L 392.210938 700.875 L 393.597656 694.320312 L 394.984375 695.640625 L 396.367188 702.203125 L 397.753906 707.277344 L 399.140625 710.605469 L 400.527344 704.308594 L 401.910156 712.347656 L 403.296875 719.398438 L 404.683594 720.105469 L 406.066406 714.476562 L 407.453125 716.691406 L 408.839844 719.519531 L 410.222656 723.464844 L 411.609375 727.136719 L 412.996094 718.019531 L 414.378906 710.503906 L 415.765625 706.625 L 417.152344 696.253906 L 418.535156 690.171875 L 419.921875 694.019531 L 421.308594 694.664062 L 422.691406 683.222656 L 424.078125 681.601562 L 425.464844 681.746094 L 426.847656 671.671875 L 428.234375 679.707031 L 429.621094 678.816406 L 431.003906 666.886719 L 432.390625 666.496094 L 433.777344 671.488281 L 435.160156 674.527344 L 436.546875 666.59375 L 437.933594 666.679688 L 439.316406 659.394531 L 440.703125 651.964844 L 442.089844 644.097656 L 443.472656 640.640625 L 444.859375 641.652344 L 446.246094 639.816406 L 447.632812 650.703125 L 449.015625 659.078125 L 450.402344 657.25 L 451.789062 660.652344 L 453.171875 661.925781 L 454.558594 661.226562 L 455.945312 655.75 L 457.328125 655.546875 L 458.714844 654.402344 L 460.101562 657.316406 L 461.484375 651.953125 L 462.871094 653.128906 L 464.257812 651.535156 L 465.640625 651.148438 L 467.027344 654.25 L 468.414062 650.542969 L 469.796875 643.691406 L 471.183594 638.632812 L 472.570312 637.984375 L 473.953125 632.695312 L 475.339844 618.984375 L 476.726562 610.828125 L 478.109375 601.265625 L 479.496094 600.882812 L 480.882812 594.460938 L 482.265625 587.601562 L 483.652344 582.257812 L 485.039062 587.160156 L 486.421875 602.960938 L 487.808594 612.054688 L 489.195312 613.121094 L 490.578125 611.460938 L 491.964844 613.050781 L 493.351562 619.113281 L 494.738281 619.558594 L 496.121094 613.210938 L 497.507812 610.289062 L 498.894531 604.476562 L 500.277344 599.761719 L 501.664062 602.640625 L 503.050781 600.519531 L 504.433594 599.457031 L 505.820312 588.128906 L 507.207031 581.363281 L 508.589844 570.269531 L 509.976562 553.125 L 511.363281 546.535156 L 512.746094 538.984375 L 514.132812 530.214844 L 515.519531 521.316406 L 516.902344 507.78125 L 518.289062 492.964844 L 519.675781 477.855469 L 521.058594 467.460938 L 522.445312 464.5 L 523.832031 458.046875 L 525.214844 451.019531 L 526.601562 443.4375 L 527.988281 429.710938 L 529.371094 417.890625 L 530.757812 409.667969 L 532.144531 402.601562 L 533.527344 389.039062 L 534.914062 381.847656 L 536.300781 378.328125 L 537.683594 376.953125 L 539.070312 371.90625 L 540.457031 366.363281 L 541.84375 354.289062 L 543.226562 340.304688 L 544.613281 332.832031 L 546 328.511719 L 547.382812 323.78125 L 548.769531 314.21875 L 550.15625 311.183594 L 551.539062 301.164062 L 552.925781 286.417969 L 554.3125 268.078125 L 555.695312 259.464844 L 557.082031 246.867188 L 558.46875 231.835938 L 559.851562 217.683594 L 561.238281 200.050781 L 562.625 186.949219 L 564.007812 171.816406 L 565.394531 160.191406 L 566.78125 156.417969 L 568.164062 151.828125 L 569.550781 149.671875 L 570.9375 144.390625 L 572.320312 123.4375 L 573.707031 107.804688 L 575.09375 96.054688 L 576.476562 92.832031 L 577.863281 84.363281 L 579.25 81.578125 L 580.632812 72.054688 L 582.019531 72.238281 L 583.40625 76.078125 L 584.789062 76.035156 L 586.175781 80.265625 L 587.5625 76.480469 L 588.945312 75.035156 L 590.332031 74.355469 L 591.71875 65.203125 L 593.105469 56.011719 L 594.488281 50.136719 L 595.875 49.863281 L 597.261719 52.160156 L 598.644531 55.765625 L 600.03125 61.835938 L 601.417969 66.09375 L 602.800781 77.066406 L 604.1875 84.503906 L 605.574219 94.503906 L 606.957031 99.136719 L 608.34375 103.597656 L 609.730469 115.078125 L 611.113281 113.734375 L 612.5 116.472656 L 613.886719 121.128906 L 615.269531 122.28125 L 616.65625 120.179688 L 618.042969 118.394531 L 619.425781 117.609375 L 620.8125 114.867188 L 622.199219 112.25 L 623.582031 115.394531 L 624.96875 119.84375 L 626.355469 127.023438 L 627.738281 130.453125 L 629.125 132.609375 L 630.511719 139.832031 L 631.894531 145.695312 L 633.28125 152.683594 L 634.667969 157.246094 L 636.054688 159.699219 L 637.4375 162.226562 L 638.824219 170.710938 L 640.210938 179.011719 L 641.59375 182.207031 L 642.980469 179.753906 L 644.367188 183.589844 L 645.75 184.628906 L 647.136719 181.28125 L 648.523438 187.011719 L 649.90625 191.679688 L 651.292969 191.921875 L 652.679688 202.394531 L 654.0625 206.960938 L 655.449219 209.605469 L 656.835938 207.484375 L 658.21875 222.003906 L 659.605469 233.609375 L 660.992188 230.203125 L 662.375 225.863281 L 663.761719 224.40625 L 665.148438 227.597656 L 666.53125 230.726562 L 667.917969 237.527344 L 669.304688 233.222656 L 670.6875 238.183594 L 672.074219 248.746094 L 673.460938 255.46875 L 674.84375 259.117188 L 676.230469 256.261719 L 677.617188 254.375 L 679 261.03125 L 680.386719 264.605469 L 681.773438 264.503906 L 683.15625 267.898438 L 684.542969 270.542969 L 685.929688 266.972656 L 687.316406 262.515625 L 688.699219 258.371094 L 690.085938 269.21875 L 691.472656 268.691406 L 692.855469 267.953125 L 694.242188 266.554688 L 695.628906 259.527344 L 697.011719 256.105469 L 698.398438 262.019531 L 699.785156 268.808594 L 701.167969 268.449219 L 702.554688 271.988281 L 703.941406 263.234375 L 705.324219 262.128906 L 706.710938 265.558594 L 708.097656 266.34375 L 709.480469 269.363281 L 710.867188 268.414062 L 712.253906 270.125 L 713.636719 272.113281 L 715.023438 264.03125 L 716.410156 261.808594 L 717.792969 262.542969 L 719.179688 254.476562 L 720.566406 252.015625 L 721.949219 254.738281 L 723.335938 256.617188 L 724.722656 261.378906 L 726.105469 260.5625 L 727.492188 259.386719 L 728.878906 256.03125 L 730.261719 254.878906 L 731.648438 258.292969 L 733.035156 254.757812 L 734.421875 255.46875 L 735.804688 257.644531 L 737.191406 261.808594 L 738.578125 268.28125 L 739.960938 275.722656 L 741.347656 279.367188 L 742.734375 280.644531 L 744.117188 275.894531 L 745.503906 272.734375 L 746.890625 269.980469 L 748.273438 281.253906 L 749.660156 289.175781 L 751.046875 294.402344 L 752.429688 292.660156 L 753.816406 283.839844 L 755.203125 281.492188 L 756.585938 282.621094 L 757.972656 286.402344 L 759.359375 286.457031 L 760.742188 295.222656 L 762.128906 296.355469 L 763.515625 295.464844 L 764.898438 286.230469 L 766.285156 286.21875 L 767.671875 286.714844 L 769.054688 291.636719 L 770.441406 287.433594 L 771.828125 289.648438 L 773.210938 293.894531 L 774.597656 298.140625 L 775.984375 302.5625 L 777.367188 303.125 L 778.753906 297.359375 L 780.140625 307.859375 L 781.523438 315.289062 L 782.910156 318.464844 L 784.296875 324.101562 L 785.683594 324.484375 L 787.066406 326.015625 L 788.453125 323.476562 L 789.839844 321.742188 L 791.222656 323.644531 L 792.609375 325.738281 L 793.996094 327.738281 L 795.378906 330.175781 L 796.765625 328.824219 L 798.152344 333.25 L 799.535156 334.566406 L 800.921875 338.007812 L 802.308594 340.820312 L 803.691406 343.261719 L 805.078125 343.117188 L 806.464844 345.308594 L 807.847656 347.535156 L 809.234375 354.871094 L 810.621094 357.558594 L 812.003906 359.707031 L 813.390625 363.5 L 814.777344 367.140625 L 816.160156 376.554688 L 817.546875 387.5 L 818.933594 394.140625 L 820.316406 407.214844 L 821.703125 406.832031 L 823.089844 407.828125 L 824.472656 406.695312 L 825.859375 409.996094 L 827.246094 416.691406 L 828.632812 420.015625 L 830.015625 421.503906 L 831.402344 425.089844 L 832.789062 432.824219 L 834.171875 438.785156 L 835.558594 435.460938 L 836.945312 426.441406 L 838.328125 421.367188 L 839.714844 422.152344 L 841.101562 420.894531 L 842.484375 424.058594 L 843.871094 421.121094 L 845.257812 424.257812 L 846.640625 428.8125 L 848.027344 430.1875 L 849.414062 431.566406 L 850.796875 430.460938 L 852.183594 430.492188 L 853.570312 431.390625 L 854.953125 436.679688 L 856.339844 443.628906 L 857.726562 448.246094 L 859.109375 451.265625 L 860.496094 444.769531 L 861.882812 444.285156 L 863.265625 446.6875 L 864.652344 450.480469 L 866.039062 457.359375 L 867.421875 445.679688 L 868.808594 441.460938 L 870.195312 440.890625 L 871.578125 440.449219 L 872.964844 450.609375 L 874.351562 452.492188 L 875.734375 454.546875 L 877.121094 456.34375 L 878.507812 455.273438 L 879.894531 459.320312 L 881.277344 456.21875 L 882.664062 461.03125 L 884.050781 469.597656 L 885.433594 476.679688 L 886.820312 474.402344 L 888.207031 469.589844 L 889.589844 472.054688 L 890.976562 477.675781 L 892.363281 486.574219 L 893.746094 488.046875 L 895.132812 483.0625 L 896.519531 475.339844 L 897.902344 472.679688 L 899.289062 472.355469 L 900.675781 473.886719 L 902.058594 475.441406 L 903.445312 475.949219 L 904.832031 473.695312 L 906.214844 465.757812 L 907.601562 466.859375 L 908.988281 468.230469 L 910.371094 474.519531 L 911.757812 471.222656 L 913.144531 465.597656 L 914.527344 472.359375 L 915.914062 472.480469 L 917.300781 475.507812 L 918.683594 478.347656 L 920.070312 483.992188 L 921.457031 487.863281 L 922.84375 498.097656 L 924.226562 493.703125 L 925.613281 494.667969 L 927 495.171875 L 928.382812 505.328125 L 929.769531 504.207031 L 931.15625 507.25 L 932.539062 505.503906 L 933.925781 500.269531 L 935.3125 498.664062 L 936.695312 499.726562 L 938.082031 497.609375 L 939.46875 491.238281 L 940.851562 489.851562 L 942.238281 490.8125 L 943.625 496.039062 L 945.007812 497.453125 L 946.394531 505.777344 L 947.78125 502.125 L 949.164062 499.191406 L 950.550781 500.285156 L 951.9375 506.890625 L 953.320312 506.667969 L 954.707031 507.496094 L 956.09375 505.742188 L 957.476562 517.132812 L 958.863281 521.730469 L 960.25 526.871094 L 961.632812 528.746094 L 963.019531 532.15625 L 964.40625 539.238281 L 965.789062 539.617188 L 967.175781 542.957031 L 968.5625 549.289062 L 969.945312 554.316406 L 971.332031 560.011719 L 972.71875 553.28125 L 974.105469 547.039062 L 975.488281 541.210938 L 976.875 534.742188 L 978.261719 546.929688 L 979.644531 548.9375 L 981.03125 548.625 L 982.417969 546.800781 L 983.800781 544.628906 L 985.1875 543.378906 L 986.574219 540.976562 L 987.957031 548.390625 L 989.34375 550.765625 L 990.730469 550.304688 L 992.113281 550.796875 L 993.5 563.648438 L 994.886719 574.300781 L 996.269531 572.480469 L 997.65625 575.246094 L 999.042969 578.652344 L 1000.425781 577.707031 L 1001.8125 580.648438 L 1003.199219 583.160156 L 1004.582031 586.082031 L 1005.96875 590.535156 L 1007.355469 588.109375 L 1008.738281 584.769531 L 1010.125 580.878906 L 1011.511719 576.804688 L 1012.894531 578.316406 L 1014.28125 577.515625 L 1015.667969 574.371094 L 1017.050781 573.109375 L 1018.4375 575.292969 L 1019.824219 579.902344 L 1021.210938 578.804688 L 1022.59375 571.496094 L 1023.980469 568.375 L 1025.367188 567.621094 L 1026.75 567.351562 L 1028.136719 568.652344 L 1029.523438 568.777344 L 1030.90625 574.492188 L 1032.292969 572.589844 L 1033.679688 577.214844 L 1035.0625 586.738281 L 1036.449219 589.382812 L 1037.835938 593.527344 L 1039.21875 593.417969 L 1040.605469 592.128906 L 1041.992188 600.042969 L 1043.375 597.664062 L 1044.761719 596.617188 L 1046.148438 597.621094 L 1047.53125 595.234375 L 1048.917969 596.988281 L 1050.304688 596.53125 L 1051.6875 599.425781 L 1053.074219 594.914062 L 1054.460938 590.488281 L 1055.84375 591.101562 L 1057.230469 591.199219 L 1058.617188 598.882812 L 1060 607.328125 L 1061.386719 612.449219 L 1062.773438 606.84375 L 1064.15625 604.140625 L 1065.542969 598.855469 L 1066.929688 599.496094 L 1068.3125 601.953125 L 1069.699219 607.367188 L 1071.085938 604.523438 L 1072.472656 605.683594 L 1073.855469 604.910156 L 1075.242188 605.644531 L 1076.628906 600.109375 L 1078.011719 599.375 L 1079.398438 599.070312 L 1080.785156 595.140625 L 1082.167969 597.363281 L 1083.554688 598.90625 L 1084.941406 600.710938 L 1086.324219 602.902344 L 1087.710938 600.039062 L 1089.097656 600.390625 L 1090.480469 599.949219 L 1091.867188 596.246094 L 1093.253906 600.4375 L 1094.636719 601.949219 L 1096.023438 603.070312 L 1097.410156 606.753906 L 1098.792969 602.554688 L 1100.179688 602.160156 L 1101.566406 603.640625 L 1102.949219 601.285156 L 1104.335938 601.902344 L 1105.722656 600.210938 L 1107.105469 606.941406 L 1108.492188 604.480469 L 1109.878906 600.773438 L 1111.261719 597.453125 L 1112.648438 601.050781 L 1114.035156 597.707031 L 1115.421875 600.894531 L 1116.804688 599.839844 L 1118.191406 600.492188 L 1119.578125 599.570312 L 1120.960938 599.019531 L 1122.347656 600.03125 L 1123.734375 596.902344 L 1125.117188 587.378906 L 1126.503906 596.699219 L 1127.890625 594.335938 L 1129.273438 595.460938 L 1130.660156 596.269531 L 1132.046875 593.378906 "/>
<path fill="none" stroke-width="3" stroke-linecap="butt" stroke-linejoin="miter" stroke="rgb(0%, 61.960787%, 45.09804%)" stroke-opacity="1" stroke-miterlimit="2" d="M 92.953125 578.46875 L 94.339844 573.53125 L 95.726562 568.90625 L 97.109375 565.242188 L 98.496094 566.078125 L 99.882812 565.457031 L 101.265625 565.214844 L 102.652344 568.648438 L 104.039062 572.050781 L 105.421875 568.515625 L 106.808594 565.027344 L 108.195312 568.027344 L 109.578125 569.335938 L 110.964844 572.859375 L 112.351562 573.40625 L 113.738281 575.355469 L 115.121094 576.636719 L 116.507812 571.910156 L 117.894531 579.523438 L 119.277344 583.980469 L 120.664062 586.957031 L 122.050781 585.71875 L 123.433594 590.335938 L 124.820312 591.214844 L 126.207031 591.902344 L 127.589844 582 L 128.976562 576.96875 L 130.363281 572.441406 L 131.746094 573.714844 L 133.132812 577.757812 L 134.519531 580.851562 L 135.902344 585.535156 L 137.289062 591.953125 L 138.675781 597.214844 L 140.058594 595.160156 L 141.445312 601.121094 L 142.832031 602.039062 L 144.214844 610.789062 L 145.601562 613.164062 L 146.988281 606.113281 L 148.371094 603.421875 L 149.757812 593.378906 L 151.144531 601.8125 L 152.527344 610.902344 L 153.914062 606.3125 L 155.300781 609.296875 L 156.683594 609.554688 L 158.070312 614.03125 L 159.457031 615.371094 L 160.84375 614.203125 L 162.226562 604.332031 L 163.613281 610.375 L 165 609.84375 L 166.382812 623.304688 L 167.769531 617.171875 L 169.15625 619.09375 L 170.539062 613.949219 L 171.925781 614.734375 L 173.3125 603.4375 L 174.695312 595.285156 L 176.082031 593.546875 L 177.46875 596.144531 L 178.851562 596.671875 L 180.238281 599.070312 L 181.625 594.773438 L 183.007812 597.324219 L 184.394531 605.089844 L 185.78125 609.015625 L 187.164062 610.726562 L 188.550781 613.414062 L 189.9375 608.3125 L 191.320312 607.804688 L 192.707031 610.640625 L 194.09375 621.28125 L 195.476562 620.960938 L 196.863281 619.503906 L 198.25 612.964844 L 199.632812 616.425781 L 201.019531 622.171875 L 202.40625 622.695312 L 203.789062 620.925781 L 205.175781 622.738281 L 206.5625 622.617188 L 207.949219 619.957031 L 209.332031 622.28125 L 210.71875 617.679688 L 212.105469 614.253906 L 213.488281 613.105469 L 214.875 614.835938 L 216.261719 611.457031 L 217.644531 613.203125 L 219.03125 617.949219 L 220.417969 616.8125 L 221.800781 621.925781 L 223.1875 621.5 L 224.574219 616.039062 L 225.957031 607.582031 L 227.34375 608.113281 L 228.730469 613.652344 L 230.113281 611.144531 L 231.5 599.410156 L 232.886719 593.816406 L 234.269531 590.761719 L 235.65625 586.410156 L 237.042969 580.753906 L 238.425781 582.085938 L 239.8125 579.46875 L 241.199219 578.214844 L 242.582031 571.507812 L 243.96875 564.316406 L 245.355469 565.5625 L 246.738281 573.179688 L 248.125 579.015625 L 249.511719 583.914062 L 250.894531 588.800781 L 252.28125 584.445312 L 253.667969 573.324219 L 255.054688 576.261719 L 256.4375 575.601562 L 257.824219 575.675781 L 259.210938 586.035156 L 260.59375 582.246094 L 261.980469 577.296875 L 263.367188 579.710938 L 264.75 574.921875 L 266.136719 566.988281 L 267.523438 569.597656 L 268.90625 576.652344 L 270.292969 577.277344 L 271.679688 576.527344 L 273.0625 565.667969 L 274.449219 559.210938 L 275.835938 557.511719 L 277.21875 558.492188 L 278.605469 570.40625 L 279.992188 575.039062 L 281.375 573.117188 L 282.761719 575.527344 L 284.148438 574.851562 L 285.53125 572.671875 L 286.917969 579.808594 L 288.304688 578.679688 L 289.6875 577.121094 L 291.074219 577.507812 L 292.460938 581.332031 L 293.84375 583.496094 L 295.230469 574.605469 L 296.617188 569.582031 L 298 569.121094 L 299.386719 571.539062 L 300.773438 571.320312 L 302.15625 575.214844 L 303.542969 576.664062 L 304.929688 575.988281 L 306.316406 576.25 L 307.699219 575.542969 L 309.085938 577.074219 L 310.472656 577.726562 L 311.855469 572.054688 L 313.242188 569.082031 L 314.628906 572.292969 L 316.011719 582.449219 L 317.398438 587.011719 L 318.785156 590.71875 L 320.167969 593.585938 L 321.554688 594.316406 L 322.941406 599.328125 L 324.324219 601.722656 L 325.710938 603.390625 L 327.097656 606.039062 L 328.480469 614.9375 L 329.867188 613.109375 L 331.253906 610.402344 L 332.636719 604.089844 L 334.023438 598.1875 L 335.410156 592.78125 L 336.792969 590.230469 L 338.179688 597.679688 L 339.566406 596.617188 L 340.949219 603.960938 L 342.335938 611.574219 L 343.722656 603.148438 L 345.105469 604.386719 L 346.492188 602.808594 L 347.878906 608.3125 L 349.261719 611.164062 L 350.648438 615.292969 L 352.035156 621.398438 L 353.421875 630.121094 L 354.804688 628.804688 L 356.191406 621.789062 L 357.578125 624.710938 L 358.960938 624.515625 L 360.347656 630.285156 L 361.734375 629.769531 L 363.117188 626.792969 L 364.503906 622.234375 L 365.890625 622.78125 L 367.273438 622.824219 L 368.660156 619.804688 L 370.046875 613.371094 L 371.429688 610.09375 L 372.816406 613.613281 L 374.203125 623.667969 L 375.585938 623.351562 L 376.972656 619.195312 L 378.359375 622.507812 L 379.742188 612.753906 L 381.128906 619.277344 L 382.515625 618.523438 L 383.898438 618.152344 L 385.285156 614.609375 L 386.671875 614.078125 L 388.054688 618.300781 L 389.441406 623.050781 L 390.828125 620.074219 L 392.210938 618.8125 L 393.597656 614.519531 L 394.984375 622.117188 L 396.367188 629.464844 L 397.753906 632.261719 L 399.140625 628.667969 L 400.527344 616.101562 L 401.910156 610.695312 L 403.296875 608.507812 L 404.683594 611.636719 L 406.066406 614.640625 L 407.453125 616.65625 L 408.839844 617.070312 L 410.222656 615.90625 L 411.609375 614.445312 L 412.996094 617.484375 L 414.378906 616.832031 L 415.765625 614.878906 L 417.152344 618.707031 L 418.535156 621.863281 L 419.921875 628.628906 L 421.308594 633.027344 L 422.691406 634.753906 L 424.078125 630.652344 L 425.464844 629.359375 L 426.847656 624.144531 L 428.234375 627.808594 L 429.621094 628.816406 L 431.003906 636.492188 L 432.390625 635.203125 L 433.777344 630.113281 L 435.160156 624.585938 L 436.546875 623.277344 L 437.933594 617.175781 L 439.316406 615.351562 L 440.703125 608.566406 L 442.089844 604.847656 L 443.472656 585.917969 L 444.859375 584.214844 L 446.246094 594.042969 L 447.632812 595.871094 L 449.015625 607.25 L 450.402344 610.710938 L 451.789062 620.457031 L 453.171875 626.097656 L 454.558594 635.664062 L 455.945312 643.640625 L 457.328125 649.738281 L 458.714844 638.972656 L 460.101562 636.386719 L 461.484375 637.992188 L 462.871094 634.761719 L 464.257812 634.945312 L 465.640625 627.320312 L 467.027344 630.347656 L 468.414062 628.976562 L 469.796875 619.507812 L 471.183594 610.148438 L 472.570312 598.308594 L 473.953125 587.878906 L 475.339844 579.183594 L 476.726562 575.183594 L 478.109375 569.488281 L 479.496094 564 L 480.882812 556.679688 L 482.265625 552.085938 L 483.652344 548.621094 L 485.039062 557.320312 L 486.421875 565.210938 L 487.808594 570.082031 L 489.195312 580.046875 L 490.578125 586.035156 L 491.964844 587.855469 L 493.351562 587.410156 L 494.738281 586.128906 L 496.121094 586.394531 L 497.507812 576.902344 L 498.894531 562.382812 L 500.277344 560.75 L 501.664062 564.675781 L 503.050781 560.824219 L 504.433594 553.011719 L 505.820312 544.621094 L 507.207031 539.609375 L 508.589844 536.4375 L 509.976562 529.941406 L 511.363281 517.886719 L 512.746094 510.917969 L 514.132812 501.875 L 515.519531 487.671875 L 516.902344 477.097656 L 518.289062 465.347656 L 519.675781 452.648438 L 521.058594 444.863281 L 522.445312 436.285156 L 523.832031 423.6875 L 525.214844 412.429688 L 526.601562 403.332031 L 527.988281 393.53125 L 529.371094 391.515625 L 530.757812 378.816406 L 532.144531 369.726562 L 533.527344 359.503906 L 534.914062 345.984375 L 536.300781 347.132812 L 537.683594 347.113281 L 539.070312 344.453125 L 540.457031 336.296875 L 541.84375 327.261719 L 543.226562 323.609375 L 544.613281 318.6875 L 546 312.570312 L 547.382812 309.058594 L 548.769531 300.535156 L 550.15625 290.558594 L 551.539062 277.601562 L 552.925781 261.15625 L 554.3125 243.117188 L 555.695312 234.453125 L 557.082031 227.859375 L 558.46875 210.398438 L 559.851562 195.003906 L 561.238281 186.5 L 562.625 164.703125 L 564.007812 156.726562 L 565.394531 147.769531 L 566.78125 133.859375 L 568.164062 126.21875 L 569.550781 122.957031 L 570.9375 116.148438 L 572.320312 95.929688 L 573.707031 85.625 L 575.09375 76.480469 L 576.476562 74.511719 L 577.863281 69.417969 L 579.25 62.128906 L 580.632812 58.953125 L 582.019531 60.53125 L 583.40625 67.109375 L 584.789062 62.96875 L 586.175781 62.742188 L 587.5625 66.707031 L 588.945312 69.527344 L 590.332031 73.441406 L 591.71875 77.9375 L 593.105469 77.445312 L 594.488281 75.195312 L 595.875 70.480469 L 597.261719 73.980469 L 598.644531 79.855469 L 600.03125 84.285156 L 601.417969 92.355469 L 602.800781 96.984375 L 604.1875 99.625 L 605.574219 111.136719 L 606.957031 111.59375 L 608.34375 127.46875 L 609.730469 134.46875 L 611.113281 140.25 L 612.5 142.542969 L 613.886719 146.710938 L 615.269531 151.140625 L 616.65625 153.171875 L 618.042969 155.132812 L 619.425781 157.636719 L 620.8125 168.472656 L 622.199219 177.988281 L 623.582031 181.863281 L 624.96875 184.296875 L 626.355469 185.347656 L 627.738281 184.464844 L 629.125 185.566406 L 630.511719 189.445312 L 631.894531 189.835938 L 633.28125 189.363281 L 634.667969 189.210938 L 636.054688 201.777344 L 637.4375 210.03125 L 638.824219 216.722656 L 640.210938 214.851562 L 641.59375 220.382812 L 642.980469 232.3125 L 644.367188 242.007812 L 645.75 243.445312 L 647.136719 241.878906 L 648.523438 239.75 L 649.90625 243.609375 L 651.292969 257.816406 L 652.679688 262.859375 L 654.0625 270.578125 L 655.449219 276.703125 L 656.835938 281.972656 L 658.21875 281.175781 L 659.605469 283.597656 L 660.992188 280.941406 L 662.375 287.011719 L 663.761719 289.742188 L 665.148438 280.628906 L 666.53125 281.460938 L 667.917969 283.144531 L 669.304688 278.296875 L 670.6875 281.535156 L 672.074219 281.101562 L 673.460938 278.269531 L 674.84375 274.859375 L 676.230469 279.359375 L 677.617188 282.976562 L 679 289.078125 L 680.386719 297.007812 L 681.773438 293.058594 L 683.15625 294.375 L 684.542969 295.394531 L 685.929688 297.109375 L 687.316406 302.433594 L 688.699219 307.34375 L 690.085938 310.847656 L 691.472656 317.75 L 692.855469 318.816406 L 694.242188 319.570312 L 695.628906 326.835938 L 697.011719 322.71875 L 698.398438 328.8125 L 699.785156 336.03125 L 701.167969 329.503906 L 702.554688 327.863281 L 703.941406 318.828125 L 705.324219 321.4375 L 706.710938 329.101562 L 708.097656 329.539062 L 709.480469 328.539062 L 710.867188 327.824219 L 712.253906 333.128906 L 713.636719 333.75 L 715.023438 335.039062 L 716.410156 334.988281 L 717.792969 326.300781 L 719.179688 333.820312 L 720.566406 333.210938 L 721.949219 333.625 L 723.335938 334.453125 L 724.722656 334.820312 L 726.105469 333.671875 L 727.492188 331.417969 L 728.878906 327.019531 L 730.261719 325.058594 L 731.648438 322.179688 L 733.035156 319.765625 L 734.421875 321.292969 L 735.804688 320.722656 L 737.191406 314.15625 L 738.578125 313.546875 L 739.960938 309.816406 L 741.347656 305.800781 L 742.734375 306.621094 L 744.117188 306.386719 L 745.503906 303.484375 L 746.890625 307.554688 L 748.273438 312.375 L 749.660156 312.519531 L 751.046875 311.34375 L 752.429688 321.347656 L 753.816406 321.71875 L 755.203125 321.542969 L 756.585938 319.761719 L 757.972656 319.644531 L 759.359375 318.21875 L 760.742188 319.765625 L 762.128906 312.484375 L 763.515625 308.628906 L 764.898438 305.746094 L 766.285156 312.90625 L 767.671875 312.664062 L 769.054688 319.441406 L 770.441406 319.71875 L 771.828125 308.976562 L 773.210938 307.660156 L 774.597656 300.871094 L 775.984375 299.648438 L 777.367188 297.996094 L 778.753906 304.011719 L 780.140625 308.976562 L 781.523438 315.261719 L 782.910156 325.515625 L 784.296875 333.410156 L 785.683594 330.515625 L 787.066406 331.21875 L 788.453125 334.617188 L 789.839844 336.667969 L 791.222656 346.71875 L 792.609375 354.484375 L 793.996094 354.882812 L 795.378906 356.074219 L 796.765625 356.3125 L 798.152344 358.625 L 799.535156 359.5 L 800.921875 362.800781 L 802.308594 364.878906 L 803.691406 369.632812 L 805.078125 372.007812 L 806.464844 364.601562 L 807.847656 361.214844 L 809.234375 365.199219 L 810.621094 366.855469 L 812.003906 371.351562 L 813.390625 372.589844 L 814.777344 377.699219 L 816.160156 380.410156 L 817.546875 382.667969 L 818.933594 381.589844 L 820.316406 381 L 821.703125 379.855469 L 823.089844 378.300781 L 824.472656 385.40625 L 825.859375 393.054688 L 827.246094 399.40625 L 828.632812 400.328125 L 830.015625 399.464844 L 831.402344 398.472656 L 832.789062 398.007812 L 834.171875 397.390625 L 835.558594 397.128906 L 836.945312 393.84375 L 838.328125 389.691406 L 839.714844 387.496094 L 841.101562 395.445312 L 842.484375 397.90625 L 843.871094 396.6875 L 845.257812 401.800781 L 846.640625 406.917969 L 848.027344 408.117188 L 849.414062 409.613281 L 850.796875 413.269531 L 852.183594 415.808594 L 853.570312 422.628906 L 854.953125 426.144531 L 856.339844 426.425781 L 857.726562 422.9375 L 859.109375 427.355469 L 860.496094 428.25 L 861.882812 433.6875 L 863.265625 438.171875 L 864.652344 445.601562 L 866.039062 443.265625 L 867.421875 446.542969 L 868.808594 446.269531 L 870.195312 441.417969 L 871.578125 448.746094 L 872.964844 451.625 L 874.351562 454.644531 L 875.734375 447.734375 L 877.121094 446.21875 L 878.507812 448.664062 L 879.894531 442.171875 L 881.277344 438.503906 L 882.664062 441.695312 L 884.050781 453.488281 L 885.433594 469.773438 L 886.820312 477.726562 L 888.207031 477.191406 L 889.589844 467.28125 L 890.976562 470.714844 L 892.363281 480.785156 L 893.746094 490.15625 L 895.132812 488.398438 L 896.519531 485.238281 L 897.902344 492.785156 L 899.289062 493.066406 L 900.675781 489.675781 L 902.058594 501.128906 L 903.445312 513.292969 L 904.832031 511.1875 L 906.214844 509.449219 L 907.601562 507.8125 L 908.988281 508.941406 L 910.371094 504.136719 L 911.757812 505.492188 L 913.144531 510.789062 L 914.527344 510.390625 L 915.914062 511.136719 L 917.300781 512.628906 L 918.683594 510.496094 L 920.070312 512.835938 L 921.457031 522.679688 L 922.84375 528.101562 L 924.226562 530.171875 L 925.613281 527.238281 L 927 526.722656 L 928.382812 527.484375 L 929.769531 531.40625 L 931.15625 536.109375 L 932.539062 544.515625 L 933.925781 549.042969 L 935.3125 547.402344 L 936.695312 543.898438 L 938.082031 540.148438 L 939.46875 538.492188 L 940.851562 537.390625 L 942.238281 537.683594 L 943.625 540.667969 L 945.007812 540.769531 L 946.394531 538.761719 L 947.78125 529.679688 L 949.164062 520.867188 L 950.550781 521.859375 L 951.9375 523.96875 L 953.320312 526.117188 L 954.707031 530.257812 L 956.09375 541.03125 L 957.476562 543.738281 L 958.863281 541.449219 L 960.25 543.183594 L 961.632812 545.835938 L 963.019531 544.832031 L 964.40625 545.378906 L 965.789062 543.699219 L 967.175781 542.042969 L 968.5625 544.160156 L 969.945312 540.578125 L 971.332031 536.332031 L 972.71875 519.902344 L 974.105469 520 L 975.488281 531.695312 L 976.875 534.121094 L 978.261719 534.449219 L 979.644531 532.664062 L 981.03125 538.375 L 982.417969 541.488281 L 983.800781 543.386719 L 985.1875 536.980469 L 986.574219 539.597656 L 987.957031 542.285156 L 989.34375 545.152344 L 990.730469 545.148438 L 992.113281 544.695312 L 993.5 545.390625 L 994.886719 547.007812 L 996.269531 547.359375 L 997.65625 543.171875 L 999.042969 538.425781 L 1000.425781 538.71875 L 1001.8125 542.308594 L 1003.199219 540.65625 L 1004.582031 542.941406 L 1005.96875 539.09375 L 1007.355469 544.347656 L 1008.738281 544.015625 L 1010.125 545.457031 L 1011.511719 539.804688 L 1012.894531 534.714844 L 1014.28125 541.4375 L 1015.667969 543.832031 L 1017.050781 545.589844 L 1018.4375 546.964844 L 1019.824219 546.878906 L 1021.210938 546.003906 L 1022.59375 547.945312 L 1023.980469 550.859375 L 1025.367188 549.675781 L 1026.75 549.414062 L 1028.136719 556.164062 L 1029.523438 560.652344 L 1030.90625 566.085938 L 1032.292969 564.019531 L 1033.679688 560.457031 L 1035.0625 557.75 L 1036.449219 562.289062 L 1037.835938 558.59375 L 1039.21875 551.535156 L 1040.605469 550.808594 L 1041.992188 549.863281 L 1043.375 546.226562 L 1044.761719 553.496094 L 1046.148438 554.609375 L 1047.53125 554.496094 L 1048.917969 560.203125 L 1050.304688 561.015625 L 1051.6875 558.96875 L 1053.074219 559.542969 L 1054.460938 557.703125 L 1055.84375 557.578125 L 1057.230469 556.785156 L 1058.617188 554.84375 L 1060 559.027344 L 1061.386719 555.726562 L 1062.773438 563.644531 L 1064.15625 568.097656 L 1065.542969 568.382812 L 1066.929688 564.777344 L 1068.3125 558.804688 L 1069.699219 556.765625 L 1071.085938 552.085938 L 1072.472656 548.355469 L 1073.855469 551.558594 L 1075.242188 555.546875 L 1076.628906 557.039062 L 1078.011719 552.832031 L 1079.398438 562.175781 L 1080.785156 559.851562 L 1082.167969 571.652344 L 1083.554688 579.3125 L 1084.941406 585.8125 L 1086.324219 579.285156 L 1087.710938 579.027344 L 1089.097656 587.546875 L 1090.480469 580.121094 L 1091.867188 588.082031 L 1093.253906 591.339844 L 1094.636719 590.738281 L 1096.023438 592.71875 L 1097.410156 596.039062 L 1098.792969 592.566406 L 1100.179688 593.167969 L 1101.566406 586.046875 L 1102.949219 584.859375 L 1104.335938 585.144531 L 1105.722656 580.660156 L 1107.105469 585.425781 L 1108.492188 593.265625 L 1109.878906 586.1875 L 1111.261719 583.308594 L 1112.648438 580.847656 L 1114.035156 581.855469 L 1115.421875 587.214844 L 1116.804688 587.800781 L 1118.191406 587.199219 L 1119.578125 589.480469 L 1120.960938 585.765625 L 1122.347656 587.476562 L 1123.734375 584.074219 L 1125.117188 576.394531 L 1126.503906 569.101562 L 1127.890625 567.894531 L 1129.273438 570.070312 L 1130.660156 570.148438 L 1132.046875 565.542969 "/>
<path fill="none" stroke-width="3" stroke-linecap="butt" stroke-linejoin="miter" stroke="rgb(80.000001%, 47.450981%, 65.490198%)" stroke-opacity="1" stroke-miterlimit="2" d="M 92.953125 584.269531 L 94.339844 586.414062 L 95.726562 584.449219 L 97.109375 579.695312 L 98.496094 583.285156 L 99.882812 581.597656 L 101.265625 589.78125 L 102.652344 593.316406 L 104.039062 598.613281 L 105.421875 597.875 L 106.808594 589.785156 L 108.195312 591.730469 L 109.578125 600.210938 L 110.964844 611.785156 L 112.351562 612.851562 L 113.738281 610.078125 L 115.121094 602.019531 L 116.507812 600.5 L 117.894531 596.964844 L 119.277344 603.515625 L 120.664062 597.460938 L 122.050781 589.503906 L 123.433594 583.355469 L 124.820312 581.863281 L 126.207031 589.546875 L 127.589844 596.90625 L 128.976562 607.632812 L 130.363281 610.691406 L 131.746094 609.949219 L 133.132812 622.375 L 134.519531 624.574219 L 135.902344 618.796875 L 137.289062 617.828125 L 138.675781 623.484375 L 140.058594 623.417969 L 141.445312 619.5625 L 142.832031 618.824219 L 144.214844 615.761719 L 145.601562 626.074219 L 146.988281 628.34375 L 148.371094 622.703125 L 149.757812 617.984375 L 151.144531 612.652344 L 152.527344 606.023438 L 153.914062 602.820312 L 155.300781 594.503906 L 156.683594 588.707031 L 158.070312 593.070312 L 159.457031 591.527344 L 160.84375 585.488281 L 162.226562 579.765625 L 163.613281 577.460938 L 165 571.953125 L 166.382812 574.851562 L 167.769531 582.621094 L 169.15625 600.769531 L 170.539062 598.257812 L 171.925781 598.726562 L 173.3125 610.882812 L 174.695312 610.800781 L 176.082031 602.429688 L 177.46875 606.914062 L 178.851562 596.109375 L 180.238281 600.109375 L 181.625 609.957031 L 183.007812 610.699219 L 184.394531 610.171875 L 185.78125 606.703125 L 187.164062 597.316406 L 188.550781 595.964844 L 189.9375 593.21875 L 191.320312 588.070312 L 192.707031 588.125 L 194.09375 592.511719 L 195.476562 592.847656 L 196.863281 587.179688 L 198.25 584.855469 L 199.632812 591.984375 L 201.019531 597.113281 L 202.40625 597.886719 L 203.789062 604.789062 L 205.175781 609.289062 L 206.5625 612.242188 L 207.949219 614.316406 L 209.332031 610.214844 L 210.71875 612.375 L 212.105469 611.90625 L 213.488281 615.632812 L 214.875 625.824219 L 216.261719 631.09375 L 217.644531 622.179688 L 219.03125 615.328125 L 220.417969 609.925781 L 221.800781 608.472656 L 223.1875 608.144531 L 224.574219 615.300781 L 225.957031 619.671875 L 227.34375 616.867188 L 228.730469 606.453125 L 230.113281 595.011719 L 231.5 596.636719 L 232.886719 588.367188 L 234.269531 590.597656 L 235.65625 590.960938 L 237.042969 600.757812 L 238.425781 598.9375 L 239.8125 597.804688 L 241.199219 591.488281 L 242.582031 595.769531 L 243.96875 599.089844 L 245.355469 605.660156 L 246.738281 608.140625 L 248.125 609.464844 L 249.511719 614.136719 L 250.894531 610.40625 L 252.28125 606.210938 L 253.667969 609.644531 L 255.054688 608.835938 L 256.4375 612.167969 L 257.824219 601.039062 L 259.210938 598.160156 L 260.59375 592.039062 L 261.980469 597.675781 L 263.367188 608.097656 L 264.75 608.722656 L 266.136719 608.792969 L 267.523438 612.5 L 268.90625 604.882812 L 270.292969 607.179688 L 271.679688 607.273438 L 273.0625 600.9375 L 274.449219 608.976562 L 275.835938 616.917969 L 277.21875 626.375 L 278.605469 622.835938 L 279.992188 619.429688 L 281.375 622.101562 L 282.761719 631.957031 L 284.148438 642.382812 L 285.53125 639.691406 L 286.917969 635.613281 L 288.304688 636.730469 L 289.6875 639.886719 L 291.074219 636.703125 L 292.460938 637.089844 L 293.84375 644.8125 L 295.230469 647.613281 L 296.617188 651.996094 L 298 646.972656 L 299.386719 649.117188 L 300.773438 639.617188 L 302.15625 638.984375 L 303.542969 634.105469 L 304.929688 636.59375 L 306.316406 634.417969 L 307.699219 632.898438 L 309.085938 634.988281 L 310.472656 638.871094 L 311.855469 634.515625 L 313.242188 629.566406 L 314.628906 629.785156 L 316.011719 631.046875 L 317.398438 635.40625 L 318.785156 634.574219 L 320.167969 630.09375 L 321.554688 630.566406 L 322.941406 631.0625 L 324.324219 634.109375 L 325.710938 634.085938 L 327.097656 638.371094 L 328.480469 639.539062 L 329.867188 643.628906 L 331.253906 645.332031 L 332.636719 643.589844 L 334.023438 649.640625 L 335.410156 642.136719 L 336.792969 637.796875 L 338.179688 630.300781 L 339.566406 633.03125 L 340.949219 634.636719 L 342.335938 630.40625 L 343.722656 630.535156 L 345.105469 635.136719 L 346.492188 638.800781 L 347.878906 651.464844 L 349.261719 660.761719 L 350.648438 649.570312 L 352.035156 650.675781 L 353.421875 652.371094 L 354.804688 648.667969 L 356.191406 652.300781 L 357.578125 656.898438 L 358.960938 659.992188 L 360.347656 662.972656 L 361.734375 662.453125 L 363.117188 664.519531 L 364.503906 667.441406 L 365.890625 670.601562 L 367.273438 670.9375 L 368.660156 668.183594 L 370.046875 662.71875 L 371.429688 669.609375 L 372.816406 670.6875 L 374.203125 676.601562 L 375.585938 674.445312 L 376.972656 672.566406 L 378.359375 662.816406 L 379.742188 665.652344 L 381.128906 667.644531 L 382.515625 671.28125 L 383.898438 678.75 L 385.285156 680.207031 L 386.671875 682.445312 L 388.054688 679.242188 L 389.441406 681.339844 L 390.828125 682.128906 L 392.210938 682.597656 L 393.597656 691.367188 L 394.984375 701.582031 L 396.367188 709.394531 L 397.753906 708.191406 L 399.140625 700.835938 L 400.527344 701.78125 L 401.910156 702.273438 L 403.296875 699.785156 L 404.683594 698.210938 L 406.066406 692.042969 L 407.453125 692.460938 L 408.839844 696.886719 L 410.222656 701.667969 L 411.609375 696.308594 L 412.996094 685.507812 L 414.378906 683.300781 L 415.765625 688.851562 L 417.152344 697.09375 L 418.535156 699.386719 L 419.921875 697.230469 L 421.308594 687.011719 L 422.691406 692.15625 L 424.078125 691.503906 L 425.464844 679.621094 L 426.847656 671.820312 L 428.234375 675.941406 L 429.621094 677.390625 L 431.003906 686.855469 L 432.390625 674.960938 L 433.777344 664.507812 L 435.160156 666.628906 L 436.546875 663.8125 L 437.933594 660.902344 L 439.316406 668.878906 L 440.703125 670.28125 L 442.089844 657.542969 L 443.472656 638.585938 L 444.859375 639.375 L 446.246094 644.273438 L 447.632812 653.632812 L 449.015625 660.914062 L 450.402344 653.6875 L 451.789062 658.6875 L 453.171875 649.933594 L 454.558594 656.78125 L 455.945312 651.191406 L 457.328125 651.617188 L 458.714844 649.105469 L 460.101562 651.839844 L 461.484375 646.273438 L 462.871094 649.753906 L 464.257812 660.957031 L 465.640625 662.253906 L 467.027344 652.984375 L 468.414062 644.152344 L 469.796875 638.394531 L 471.183594 628.539062 L 472.570312 629.28125 L 473.953125 620.789062 L 475.339844 616.683594 L 476.726562 610.460938 L 478.109375 602.460938 L 479.496094 590.027344 L 480.882812 580.605469 L 482.265625 579.183594 L 483.652344 576.425781 L 485.039062 580.710938 L 486.421875 583.203125 L 487.808594 587.523438 L 489.195312 587.132812 L 490.578125 592.75 L 491.964844 590.527344 L 493.351562 587.421875 L 494.738281 578.949219 L 496.121094 578.332031 L 497.507812 588.652344 L 498.894531 582.878906 L 500.277344 555.480469 L 501.664062 550.15625 L 503.050781 549.332031 L 504.433594 534.222656 L 505.820312 529.382812 L 507.207031 524.433594 L 508.589844 519.445312 L 509.976562 509.402344 L 511.363281 493.855469 L 512.746094 483.339844 L 514.132812 481.320312 L 515.519531 471.183594 L 516.902344 456.457031 L 518.289062 449.640625 L 519.675781 438 L 521.058594 426.59375 L 522.445312 422.515625 L 523.832031 409.570312 L 525.214844 398.515625 L 526.601562 383.25 L 527.988281 371.144531 L 529.371094 363.90625 L 530.757812 359.378906 L 532.144531 353.167969 L 533.527344 350.917969 L 534.914062 340.535156 L 536.300781 334.808594 L 537.683594 332.671875 L 539.070312 326.617188 L 540.457031 324.390625 L 541.84375 326.304688 L 543.226562 321.507812 L 544.613281 320.269531 L 546 318.128906 L 547.382812 311.5625 L 548.769531 308.753906 L 550.15625 306.878906 L 551.539062 291.113281 L 552.925781 269.363281 L 554.3125 255.683594 L 555.695312 236.886719 L 557.082031 230.082031 L 558.46875 218.550781 L 559.851562 201.175781 L 561.238281 189.8125 L 562.625 187.132812 L 564.007812 190.355469 L 565.394531 180.746094 L 566.78125 175.917969 L 568.164062 170.78125 L 569.550781 153.828125 L 570.9375 152.566406 L 572.320312 143.414062 L 573.707031 138.367188 L 575.09375 129.285156 L 576.476562 126.1875 L 577.863281 127.292969 L 579.25 124.667969 L 580.632812 121.542969 L 582.019531 114.003906 L 583.40625 122.824219 L 584.789062 122.964844 L 586.175781 120.628906 L 587.5625 121.566406 L 588.945312 128.3125 L 590.332031 132.859375 L 591.71875 138.269531 L 593.105469 136.574219 L 594.488281 137.289062 L 595.875 135.390625 L 597.261719 136.570312 L 598.644531 132.460938 L 600.03125 117.417969 L 601.417969 126.371094 L 602.800781 138.046875 L 604.1875 141.5625 L 605.574219 149.601562 L 606.957031 160.601562 L 608.34375 169.296875 L 609.730469 179.335938 L 611.113281 187.484375 L 612.5 190.460938 L 613.886719 195.464844 L 615.269531 199.90625 L 616.65625 209.527344 L 618.042969 211.707031 L 619.425781 211.671875 L 620.8125 203.707031 L 622.199219 202.328125 L 623.582031 202.804688 L 624.96875 204.054688 L 626.355469 205.832031 L 627.738281 210.503906 L 629.125 220.015625 L 630.511719 227.496094 L 631.894531 227.800781 L 633.28125 224.855469 L 634.667969 221.355469 L 636.054688 223.402344 L 637.4375 224.707031 L 638.824219 229.390625 L 640.210938 232.234375 L 641.59375 233.535156 L 642.980469 249.375 L 644.367188 249.855469 L 645.75 249.625 L 647.136719 249.34375 L 648.523438 257.476562 L 649.90625 264.121094 L 651.292969 266.058594 L 652.679688 266.691406 L 654.0625 257.5625 L 655.449219 258.277344 L 656.835938 261.601562 L 658.21875 255.882812 L 659.605469 262.617188 L 660.992188 269.011719 L 662.375 277.257812 L 663.761719 279.726562 L 665.148438 280.0625 L 666.53125 272.695312 L 667.917969 275.789062 L 669.304688 279.003906 L 670.6875 279.183594 L 672.074219 284.027344 L 673.460938 278.78125 L 674.84375 279.402344 L 676.230469 284.40625 L 677.617188 285.8125 L 679 282.171875 L 680.386719 288.394531 L 681.773438 291.914062 L 683.15625 301.035156 L 684.542969 291.613281 L 685.929688 296.203125 L 687.316406 292.601562 L 688.699219 294.332031 L 690.085938 297.554688 L 691.472656 289.625 L 692.855469 293.742188 L 694.242188 301.515625 L 695.628906 300.054688 L 697.011719 298.585938 L 698.398438 302.289062 L 699.785156 297.140625 L 701.167969 297.453125 L 702.554688 301.273438 L 703.941406 293.367188 L 705.324219 294.632812 L 706.710938 303.289062 L 708.097656 312.421875 L 709.480469 322.6875 L 710.867188 318.691406 L 712.253906 317.972656 L 713.636719 320.46875 L 715.023438 324.890625 L 716.410156 322.460938 L 717.792969 319.953125 L 719.179688 320.046875 L 720.566406 327.621094 L 721.949219 324.441406 L 723.335938 328.652344 L 724.722656 325.140625 L 726.105469 319.925781 L 727.492188 316.199219 L 728.878906 308.324219 L 730.261719 306.726562 L 731.648438 304.113281 L 733.035156 298.292969 L 734.421875 301.722656 L 735.804688 302.761719 L 737.191406 308.210938 L 738.578125 310.039062 L 739.960938 314.792969 L 741.347656 316.25 L 742.734375 314.683594 L 744.117188 313.523438 L 745.503906 314.792969 L 746.890625 323.75 L 748.273438 326.988281 L 749.660156 325.230469 L 751.046875 325.789062 L 752.429688 326.746094 L 753.816406 323.855469 L 755.203125 315.605469 L 756.585938 319.945312 L 757.972656 313.4375 L 759.359375 312.339844 L 760.742188 313.753906 L 762.128906 310.992188 L 763.515625 305.585938 L 764.898438 300.210938 L 766.285156 305.085938 L 767.671875 308.269531 L 769.054688 312.960938 L 770.441406 320.300781 L 771.828125 331.289062 L 773.210938 332.601562 L 774.597656 331.675781 L 775.984375 328.4375 L 777.367188 330.6875 L 778.753906 333.019531 L 780.140625 348.667969 L 781.523438 353.042969 L 782.910156 357.605469 L 784.296875 365.109375 L 785.683594 363.886719 L 787.066406 354.4375 L 788.453125 342.613281 L 789.839844 340.292969 L 791.222656 342.800781 L 792.609375 353.804688 L 793.996094 358.085938 L 795.378906 349.40625 L 796.765625 346.148438 L 798.152344 338.398438 L 799.535156 331.835938 L 800.921875 329.882812 L 802.308594 343.226562 L 803.691406 349.699219 L 805.078125 354.871094 L 806.464844 357.628906 L 807.847656 348.773438 L 809.234375 346.402344 L 810.621094 353.578125 L 812.003906 359.230469 L 813.390625 364.902344 L 814.777344 372.953125 L 816.160156 372.96875 L 817.546875 378.089844 L 818.933594 385.097656 L 820.316406 397.816406 L 821.703125 403.222656 L 823.089844 395.683594 L 824.472656 400.164062 L 825.859375 405.847656 L 827.246094 416.453125 L 828.632812 403.347656 L 830.015625 398.175781 L 831.402344 400.476562 L 832.789062 406.789062 L 834.171875 406.609375 L 835.558594 405.976562 L 836.945312 399.636719 L 838.328125 400.890625 L 839.714844 404.097656 L 841.101562 406.574219 L 842.484375 403.609375 L 843.871094 406.210938 L 845.257812 410.613281 L 846.640625 421.65625 L 848.027344 427.222656 L 849.414062 436.117188 L 850.796875 439.015625 L 852.183594 436.109375 L 853.570312 437.777344 L 854.953125 434.007812 L 856.339844 435.648438 L 857.726562 436.382812 L 859.109375 451.835938 L 860.496094 451.867188 L 861.882812 450.824219 L 863.265625 443.644531 L 864.652344 445.730469 L 866.039062 449.90625 L 867.421875 453.769531 L 868.808594 455.890625 L 870.195312 455.09375 L 871.578125 460.484375 L 872.964844 464.652344 L 874.351562 467.773438 L 875.734375 475.300781 L 877.121094 481.71875 L 878.507812 489.941406 L 879.894531 489.335938 L 881.277344 489.84375 L 882.664062 484.273438 L 884.050781 488.542969 L 885.433594 503.398438 L 886.820312 509.261719 L 888.207031 507.242188 L 889.589844 506.054688 L 890.976562 509.175781 L 892.363281 502.574219 L 893.746094 498.363281 L 895.132812 493.777344 L 896.519531 498.75 L 897.902344 494.53125 L 899.289062 496.601562 L 900.675781 493.847656 L 902.058594 489.9375 L 903.445312 495.394531 L 904.832031 494.246094 L 906.214844 491.148438 L 907.601562 488.84375 L 908.988281 488.039062 L 910.371094 488.414062 L 911.757812 486.316406 L 913.144531 491.585938 L 914.527344 487.234375 L 915.914062 488.402344 L 917.300781 487.851562 L 918.683594 488.644531 L 920.070312 491.457031 L 921.457031 494.511719 L 922.84375 487.597656 L 924.226562 484.816406 L 925.613281 488.15625 L 927 494.644531 L 928.382812 490.976562 L 929.769531 492.164062 L 931.15625 485.410156 L 932.539062 486.242188 L 933.925781 482.546875 L 935.3125 486.957031 L 936.695312 493.710938 L 938.082031 494.617188 L 939.46875 496.890625 L 940.851562 490.886719 L 942.238281 494.824219 L 943.625 491.648438 L 945.007812 493.984375 L 946.394531 489.136719 L 947.78125 491.832031 L 949.164062 490.175781 L 950.550781 491.515625 L 951.9375 486.90625 L 953.320312 482.082031 L 954.707031 477.664062 L 956.09375 479.410156 L 957.476562 485.789062 L 958.863281 492.054688 L 960.25 489.910156 L 961.632812 490.167969 L 963.019531 498 L 964.40625 510.585938 L 965.789062 519.359375 L 967.175781 515.824219 L 968.5625 506.542969 L 969.945312 509.28125 L 971.332031 510.738281 L 972.71875 516.011719 L 974.105469 518.441406 L 975.488281 526.957031 L 976.875 511.984375 L 978.261719 505.863281 L 979.644531 514.503906 L 981.03125 516.894531 L 982.417969 508.160156 L 983.800781 505.574219 L 985.1875 505.660156 L 986.574219 515.816406 L 987.957031 514.238281 L 989.34375 514.917969 L 990.730469 515.308594 L 992.113281 514.40625 L 993.5 516.570312 L 994.886719 514.269531 L 996.269531 512.140625 L 997.65625 506.574219 L 999.042969 508.011719 L 1000.425781 511.078125 L 1001.8125 509.46875 L 1003.199219 513.628906 L 1004.582031 511.351562 L 1005.96875 509.738281 L 1007.355469 510.078125 L 1008.738281 511.554688 L 1010.125 507.296875 L 1011.511719 508.566406 L 1012.894531 510.269531 L 1014.28125 523.722656 L 1015.667969 531.890625 L 1017.050781 540.355469 L 1018.4375 541.8125 L 1019.824219 547.757812 L 1021.210938 554.289062 L 1022.59375 550.929688 L 1023.980469 549.113281 L 1025.367188 542.894531 L 1026.75 542.890625 L 1028.136719 544.402344 L 1029.523438 537.640625 L 1030.90625 531.445312 L 1032.292969 523.660156 L 1033.679688 521.195312 L 1035.0625 530.441406 L 1036.449219 533.519531 L 1037.835938 545.359375 L 1039.21875 536.523438 L 1040.605469 533.296875 L 1041.992188 532.941406 L 1043.375 539.253906 L 1044.761719 540.816406 L 1046.148438 535.609375 L 1047.53125 544.128906 L 1048.917969 541.636719 L 1050.304688 547.390625 L 1051.6875 541.746094 L 1053.074219 536.421875 L 1054.460938 536.039062 L 1055.84375 548.886719 L 1057.230469 554.863281 L 1058.617188 556.953125 L 1060 549.5625 L 1061.386719 543.148438 L 1062.773438 534.160156 L 1064.15625 537.773438 L 1065.542969 535.6875 L 1066.929688 533.609375 L 1068.3125 529.527344 L 1069.699219 522.644531 L 1071.085938 524.019531 L 1072.472656 521.296875 L 1073.855469 525.164062 L 1075.242188 535.609375 L 1076.628906 537.023438 L 1078.011719 540.789062 L 1079.398438 542.121094 L 1080.785156 546.398438 L 1082.167969 551.015625 L 1083.554688 550.660156 L 1084.941406 549.449219 L 1086.324219 553.757812 L 1087.710938 546.84375 L 1089.097656 549.035156 L 1090.480469 538.871094 L 1091.867188 533.394531 L 1093.253906 534.347656 L 1094.636719 536.917969 L 1096.023438 540.867188 L 1097.410156 541.1875 L 1098.792969 543.425781 L 1100.179688 537.195312 L 1101.566406 534.777344 L 1102.949219 537.273438 L 1104.335938 528.6875 L 1105.722656 524.535156 L 1107.105469 528.542969 L 1108.492188 537.402344 L 1109.878906 538.324219 L 1111.261719 537.429688 L 1112.648438 532.488281 L 1114.035156 533.484375 L 1115.421875 541.273438 L 1116.804688 544.351562 L 1118.191406 536.101562 L 1119.578125 538.472656 L 1120.960938 536.878906 L 1122.347656 539.386719 L 1123.734375 537.933594 L 1125.117188 544.136719 L 1126.503906 546.382812 L 1127.890625 548.175781 L 1129.273438 554.949219 L 1130.660156 554.988281 L 1132.046875 553.703125 "/>
<path fill="none" stroke-width="1" stroke-linecap="butt" stroke-linejoin="miter" stroke="rgb(0%, 0%, 0%)" stroke-opacity="1" stroke-miterlimit="1.154701" d="M 231.5 761.5 L 231.5 766.5 "/>
<path fill="none" stroke-width="1" stroke-linecap="butt" stroke-linejoin="miter" stroke="rgb(0%, 0%, 0%)" stroke-opacity="1" stroke-miterlimit="1.154701" d="M 439.316406 761.5 L 439.316406 766.5 "/>
<path fill="none" stroke-width="1" stroke-linecap="butt" stroke-linejoin="miter" stroke="rgb(0%, 0%, 0%)" stroke-opacity="1" stroke-miterlimit="1.154701" d="M 647.136719 761.5 L 647.136719 766.5 "/>
<path fill="none" stroke-width="1" stroke-linecap="butt" stroke-linejoin="miter" stroke="rgb(0%, 0%, 0%)" stroke-opacity="1" stroke-miterlimit="1.154701" d="M 854.953125 761.5 L 854.953125 766.5 "/>
<path fill="none" stroke-width="1" stroke-linecap="butt" stroke-linejoin="miter" stroke="rgb(0%, 0%, 0%)" stroke-opacity="1" stroke-miterlimit="1.154701" d="M 1062.773438 761.5 L 1062.773438 766.5 "/>
<path fill="none" stroke-width="1" stroke-linecap="butt" stroke-linejoin="miter" stroke="rgb(0%, 0%, 0%)" stroke-opacity="1" stroke-miterlimit="1.154701" d="M 40.5 694.007812 L 35.5 694.007812 "/>
<path fill="none" stroke-width="1" stroke-linecap="butt" stroke-linejoin="miter" stroke="rgb(0%, 0%, 0%)" stroke-opacity="1" stroke-miterlimit="1.154701" d="M 40.5 500.5625 L 35.5 500.5625 "/>
<path fill="none" stroke-width="1" stroke-linecap="butt" stroke-linejoin="miter" stroke="rgb(0%, 0%, 0%)" stroke-opacity="1" stroke-miterlimit="1.154701" d="M 40.5 307.117188 L 35.5 307.117188 "/>
<path fill="none" stroke-width="1" stroke-linecap="butt" stroke-linejoin="miter" stroke="rgb(0%, 0%, 0%)" stroke-opacity="1" stroke-miterlimit="1.154701" d="M 40.5 113.671875 L 35.5 113.671875 "/>
<path fill="none" stroke-width="1" stroke-linecap="butt" stroke-linejoin="miter" stroke="rgb(0%, 0%, 0%)" stroke-opacity="1" stroke-miterlimit="1.154701" d="M 40.5 761 L 1184.5 761 "/>
<path fill="none" stroke-width="1" stroke-linecap="butt" stroke-linejoin="miter" stroke="rgb(0%, 0%, 0%)" stroke-opacity="1" stroke-miterlimit="1.154701" d="M 41 761.5 L 41 15.5 "/>
<path fill="none" stroke-width="1" stroke-linecap="butt" stroke-linejoin="miter" stroke="rgb(0%, 0%, 0%)" stroke-opacity="1" stroke-miterlimit="1.154701" d="M 40.5 16 L 1184.5 16 "/>
<path fill="none" stroke-width="1" stroke-linecap="butt" stroke-linejoin="miter" stroke="rgb(0%, 0%, 0%)" stroke-opacity="1" stroke-miterlimit="1.154701" d="M 1184 761.5 L 1184 15.5 "/>
</svg>
