<?xml version="1.0" encoding="UTF-8"?>
<svg xmlns="http://www.w3.org/2000/svg" xmlns:xlink="http://www.w3.org/1999/xlink" width="1200" height="800" viewBox="0 0 1200 800">
<defs>
<g>
<g id="glyph-0-0-e7a7987a">
<path d="M 7.21875 -3.03125 C 7.21875 -3.03125 0.953125 -3.03125 0.953125 -3.03125 C 0.953125 -3.03125 0.953125 -3.96875 0.953125 -3.96875 C 0.953125 -3.96875 7.21875 -3.96875 7.21875 -3.96875 C 7.21875 -3.96875 7.21875 -3.03125 7.21875 -3.03125 Z M 7.21875 -3.03125 "/>
</g>
<g id="glyph-0-1-e7a7987a">
<path d="M 7.09375 -4.78125 C 7.09375 -1.515625 5.953125 0.203125 3.84375 0.203125 C 1.71875 0.203125 0.609375 -1.515625 0.609375 -4.859375 C 0.609375 -8.1875 1.703125 -9.921875 3.84375 -9.921875 C 6 -9.921875 7.09375 -8.21875 7.09375 -4.78125 Z M 5.84375 -4.890625 C 5.84375 -7.546875 5.1875 -8.828125 3.84375 -8.828125 C 2.515625 -8.828125 1.859375 -7.5625 1.859375 -4.84375 C 1.859375 -2.125 2.515625 -0.8125 3.828125 -0.8125 C 5.1875 -0.8125 5.84375 -2.078125 5.84375 -4.890625 Z M 5.84375 -4.890625 "/>
</g>
<g id="glyph-0-2-e7a7987a">
<path d="M 2.671875 0 C 2.671875 0 1.21875 0 1.21875 0 C 1.21875 0 1.21875 -1.453125 1.21875 -1.453125 C 1.21875 -1.453125 2.671875 -1.453125 2.671875 -1.453125 C 2.671875 -1.453125 2.671875 0 2.671875 0 Z M 2.671875 0 "/>
</g>
<g id="glyph-0-3-e7a7987a">
<path d="M 7.078125 -2.890625 C 7.078125 -1.015625 5.765625 0.203125 3.71875 0.203125 C 1.6875 0.203125 0.609375 -0.78125 0.453125 -3 C 0.453125 -3 1.6875 -3 1.6875 -3 C 1.765625 -1.546875 2.421875 -0.875 3.765625 -0.875 C 5.046875 -0.875 5.828125 -1.625 5.828125 -2.875 C 5.828125 -3.96875 5.125 -4.625 3.765625 -4.625 C 3.765625 -4.625 3.09375 -4.625 3.09375 -4.625 C 3.09375 -4.625 3.09375 -5.65625 3.09375 -5.65625 C 5.0625 -5.65625 5.53125 -6.09375 5.53125 -7.15625 C 5.53125 -8.203125 4.875 -8.84375 3.78125 -8.84375 C 2.515625 -8.84375 1.921875 -8.1875 1.890625 -6.71875 C 1.890625 -6.71875 0.65625 -6.71875 0.65625 -6.71875 C 0.703125 -8.828125 1.765625 -9.921875 3.765625 -9.921875 C 5.65625 -9.921875 6.796875 -8.90625 6.796875 -7.203125 C 6.796875 -6.203125 6.328125 -5.5625 5.40625 -5.1875 C 6.59375 -4.78125 7.078125 -4.09375 7.078125 -2.890625 Z M 7.078125 -2.890625 "/>
</g>
<g id="glyph-0-4-e7a7987a">
<path d="M 7.1875 -3.078125 C 7.1875 -1.140625 5.828125 0.203125 3.9375 0.203125 C 1.671875 0.203125 0.609375 -1.421875 0.609375 -4.515625 C 0.609375 -7.984375 1.84375 -9.921875 4.15625 -9.921875 C 5.671875 -9.921875 6.734375 -8.953125 6.96875 -7.34375 C 6.96875 -7.34375 5.734375 -7.34375 5.734375 -7.34375 C 5.546875 -8.28125 4.9375 -8.828125 4.078125 -8.828125 C 2.65625 -8.828125 1.875 -7.484375 1.859375 -5.0625 C 2.390625 -5.796875 3.15625 -6.171875 4.140625 -6.171875 C 5.921875 -6.171875 7.1875 -4.921875 7.1875 -3.078125 Z M 5.921875 -2.984375 C 5.921875 -4.3125 5.1875 -5.078125 3.984375 -5.078125 C 2.765625 -5.078125 1.9375 -4.28125 1.9375 -3.046875 C 1.9375 -1.78125 2.796875 -0.875 3.953125 -0.875 C 5.078125 -0.875 5.921875 -1.734375 5.921875 -2.984375 Z M 5.921875 -2.984375 "/>
</g>
<g id="glyph-0-5-e7a7987a">
<path d="M 7.125 -5.1875 C 7.125 -1.765625 5.875 0.203125 3.5625 0.203125 C 2.046875 0.203125 0.984375 -0.75 0.734375 -2.375 C 0.734375 -2.375 1.96875 -2.375 1.96875 -2.375 C 2.171875 -1.421875 2.765625 -0.875 3.640625 -0.875 C 5.046875 -0.875 5.84375 -2.21875 5.859375 -4.640625 C 5.203125 -3.875 4.515625 -3.546875 3.578125 -3.546875 C 1.796875 -3.546875 0.53125 -4.78125 0.53125 -6.640625 C 0.53125 -8.578125 1.890625 -9.921875 3.78125 -9.921875 C 6.046875 -9.921875 7.125 -8.296875 7.125 -5.1875 Z M 5.78125 -6.65625 C 5.78125 -7.953125 4.90625 -8.84375 3.765625 -8.84375 C 2.625 -8.84375 1.796875 -8 1.796875 -6.734375 C 1.796875 -5.40625 2.53125 -4.640625 3.71875 -4.640625 C 4.921875 -4.640625 5.78125 -5.453125 5.78125 -6.65625 Z M 5.78125 -6.65625 "/>
</g>
<g id="glyph-0-6-e7a7987a">
<path d="M 4.859375 0 C 4.859375 0 3.625 0 3.625 0 C 3.625 0 3.625 -7.0625 3.625 -7.0625 C 3.625 -7.0625 1.421875 -7.0625 1.421875 -7.0625 C 1.421875 -7.0625 1.421875 -7.953125 1.421875 -7.953125 C 3.328125 -8.1875 3.609375 -8.40625 4.046875 -9.921875 C 4.046875 -9.921875 4.859375 -9.921875 4.859375 -9.921875 C 4.859375 -9.921875 4.859375 0 4.859375 0 Z M 4.859375 0 "/>
</g>
<g id="glyph-0-7-e7a7987a">
<path d="M 7.15625 -7.015625 C 7.15625 -5.796875 6.4375 -4.765625 5.046875 -4.015625 C 5.046875 -4.015625 3.65625 -3.265625 3.65625 -3.265625 C 2.4375 -2.546875 1.984375 -2.03125 1.859375 -1.21875 C 1.859375 -1.21875 7.078125 -1.21875 7.078125 -1.21875 C 7.078125 -1.21875 7.078125 0 7.078125 0 C 7.078125 0 0.46875 0 0.46875 0 C 0.59375 -2.1875 1.1875 -3.125 3.265625 -4.296875 C 3.265625 -4.296875 4.546875 -5.03125 4.546875 -5.03125 C 5.4375 -5.53125 5.890625 -6.203125 5.890625 -6.984375 C 5.890625 -8.046875 5.046875 -8.84375 3.9375 -8.84375 C 2.71875 -8.84375 2.03125 -8.140625 1.9375 -6.484375 C 1.9375 -6.484375 0.703125 -6.484375 0.703125 -6.484375 C 0.765625 -8.890625 1.953125 -9.921875 3.96875 -9.921875 C 5.859375 -9.921875 7.15625 -8.6875 7.15625 -7.015625 Z M 7.15625 -7.015625 "/>
</g>
</g>
</defs>
<rect x="-120" y="-80" width="1440" height="960" fill="rgb(100%, 100%, 100%)" fill-opacity="1"/>
<path fill-rule="nonzero" fill="rgb(100%, 100%, 100%)" fill-opacity="1" d="M 33 761 L 1184 761 L 1184 16 L 33 16 Z M 33 761 "/>
<path fill="none" stroke-width="1" stroke-linecap="butt" stroke-linejoin="miter" stroke="rgb(0%, 0%, 0%)" stroke-opacity="0.12" stroke-miterlimit="1.154701" d="M 224.832031 761 L 224.832031 16 "/>
<path fill="none" stroke-width="1" stroke-linecap="butt" stroke-linejoin="miter" stroke="rgb(0%, 0%, 0%)" stroke-opacity="0.12" stroke-miterlimit="1.154701" d="M 434.105469 761 L 434.105469 16 "/>
<path fill="none" stroke-width="1" stroke-linecap="butt" stroke-linejoin="miter" stroke="rgb(0%, 0%, 0%)" stroke-opacity="0.12" stroke-miterlimit="1.154701" d="M 643.378906 761 L 643.378906 16 "/>
<path fill="none" stroke-width="1" stroke-linecap="butt" stroke-linejoin="miter" stroke="rgb(0%, 0%, 0%)" stroke-opacity="0.12" stroke-miterlimit="1.154701" d="M 852.652344 761 L 852.652344 16 "/>
<path fill="none" stroke-width="1" stroke-linecap="butt" stroke-linejoin="miter" stroke="rgb(0%, 0%, 0%)" stroke-opacity="0.12" stroke-miterlimit="1.154701" d="M 1061.925781 761 L 1061.925781 16 "/>
<path fill="none" stroke-width="1" stroke-linecap="butt" stroke-linejoin="miter" stroke="rgb(0%, 0%, 0%)" stroke-opacity="0.12" stroke-miterlimit="1.154701" d="M 33 559.296875 L 1184 559.296875 "/>
<path fill="none" stroke-width="1" stroke-linecap="butt" stroke-linejoin="miter" stroke="rgb(0%, 0%, 0%)" stroke-opacity="0.12" stroke-miterlimit="1.154701" d="M 33 345.832031 L 1184 345.832031 "/>
<path fill="none" stroke-width="1" stroke-linecap="butt" stroke-linejoin="miter" stroke="rgb(0%, 0%, 0%)" stroke-opacity="0.12" stroke-miterlimit="1.154701" d="M 33 132.363281 L 1184 132.363281 "/>
<g fill="rgb(0%, 0%, 0%)" fill-opacity="1">
<use xlink:href="#glyph-0-0-e7a7987a" x="211.015334" y="782.258001"/>
</g>
<g fill="rgb(0%, 0%, 0%)" fill-opacity="1">
<use xlink:href="#glyph-0-1-e7a7987a" x="219.191333" y="782.258001"/>
</g>
<g fill="rgb(0%, 0%, 0%)" fill-opacity="1">
<use xlink:href="#glyph-0-2-e7a7987a" x="226.975333" y="782.258001"/>
</g>
<g fill="rgb(0%, 0%, 0%)" fill-opacity="1">
<use xlink:href="#glyph-0-3-e7a7987a" x="230.867333" y="782.258001"/>
</g>
<g fill="rgb(0%, 0%, 0%)" fill-opacity="1">
<use xlink:href="#glyph-0-1-e7a7987a" x="424.376059" y="782.258001"/>
</g>
<g fill="rgb(0%, 0%, 0%)" fill-opacity="1">
<use xlink:href="#glyph-0-2-e7a7987a" x="432.160059" y="782.258001"/>
</g>
<g fill="rgb(0%, 0%, 0%)" fill-opacity="1">
<use xlink:href="#glyph-0-1-e7a7987a" x="436.052059" y="782.258001"/>
</g>
<g fill="rgb(0%, 0%, 0%)" fill-opacity="1">
<use xlink:href="#glyph-0-1-e7a7987a" x="633.6488" y="782.258001"/>
</g>
<g fill="rgb(0%, 0%, 0%)" fill-opacity="1">
<use xlink:href="#glyph-0-2-e7a7987a" x="641.4328" y="782.258001"/>
</g>
<g fill="rgb(0%, 0%, 0%)" fill-opacity="1">
<use xlink:href="#glyph-0-3-e7a7987a" x="645.3248" y="782.258001"/>
</g>
<g fill="rgb(0%, 0%, 0%)" fill-opacity="1">
<use xlink:href="#glyph-0-1-e7a7987a" x="842.92151" y="782.258001"/>
</g>
<g fill="rgb(0%, 0%, 0%)" fill-opacity="1">
<use xlink:href="#glyph-0-2-e7a7987a" x="850.70551" y="782.258001"/>
</g>
<g fill="rgb(0%, 0%, 0%)" fill-opacity="1">
<use xlink:href="#glyph-0-4-e7a7987a" x="854.59751" y="782.258001"/>
</g>
<g fill="rgb(0%, 0%, 0%)" fill-opacity="1">
<use xlink:href="#glyph-0-1-e7a7987a" x="1052.19422" y="782.258001"/>
</g>
<g fill="rgb(0%, 0%, 0%)" fill-opacity="1">
<use xlink:href="#glyph-0-2-e7a7987a" x="1059.97822" y="782.258001"/>
</g>
<g fill="rgb(0%, 0%, 0%)" fill-opacity="1">
<use xlink:href="#glyph-0-5-e7a7987a" x="1063.87022" y="782.258001"/>
</g>
<g fill="rgb(0%, 0%, 0%)" fill-opacity="1">
<use xlink:href="#glyph-0-1-e7a7987a" x="15.216" y="564.400613"/>
</g>
<g fill="rgb(0%, 0%, 0%)" fill-opacity="1">
<use xlink:href="#glyph-0-6-e7a7987a" x="15.216" y="350.933607"/>
</g>
<g fill="rgb(0%, 0%, 0%)" fill-opacity="1">
<use xlink:href="#glyph-0-7-e7a7987a" x="15.216" y="137.466601"/>
</g>
<path fill="none" stroke-width="3" stroke-linecap="butt" stroke-linejoin="miter" stroke="rgb(0%, 44.705883%, 69.803923%)" stroke-opacity="1" stroke-miterlimit="2" d="M 85.316406 652.292969 L 86.714844 649.207031 L 88.109375 645.414062 L 89.503906 644.054688 L 90.898438 640.046875 L 92.292969 642.195312 L 93.6875 645.78125 L 95.085938 646.828125 L 96.480469 645.730469 L 97.875 643.480469 L 99.269531 638.929688 L 100.664062 638.042969 L 102.058594 629.9375 L 103.457031 627.8125 L 104.851562 630.355469 L 106.246094 628.160156 L 107.640625 626.378906 L 109.035156 623.167969 L 110.429688 623.617188 L 111.824219 615.308594 L 113.222656 611.402344 L 114.617188 607.46875 L 116.011719 614.808594 L 117.40625 619.863281 L 118.800781 623.003906 L 120.195312 625.34375 L 121.59375 629.507812 L 122.988281 638.738281 L 124.382812 639.621094 L 125.777344 641.605469 L 127.171875 645.757812 L 128.566406 643.914062 L 129.964844 642.222656 L 131.359375 645.046875 L 132.753906 642.003906 L 134.148438 643.746094 L 135.542969 639.832031 L 136.9375 638.5 L 138.332031 641.304688 L 139.730469 640.3125 L 141.125 636.96875 L 142.519531 632.527344 L 143.914062 627.5 L 145.308594 626.636719 L 146.703125 624.09375 L 148.101562 628.03125 L 149.496094 622.746094 L 150.890625 608.621094 L 152.285156 612.261719 L 153.679688 618.496094 L 155.074219 626.976562 L 156.472656 631.78125 L 157.867188 635.007812 L 159.261719 639.382812 L 160.65625 636.75 L 162.050781 637.554688 L 163.445312 639.902344 L 164.84375 628.578125 L 166.238281 627.222656 L 167.632812 623.085938 L 169.027344 621.542969 L 170.421875 620.054688 L 171.816406 615.769531 L 173.210938 610.703125 L 174.609375 606.785156 L 176.003906 598.28125 L 177.398438 594.738281 L 178.792969 600.441406 L 180.1875 606.292969 L 181.582031 606.496094 L 182.980469 607.179688 L 184.375 602.941406 L 185.769531 608.699219 L 187.164062 607.554688 L 188.558594 606.089844 L 189.953125 605.648438 L 191.351562 618.667969 L 192.746094 623.972656 L 194.140625 631.527344 L 195.535156 638.328125 L 196.929688 637.535156 L 198.324219 626.40625 L 199.71875 627.75 L 201.117188 621.109375 L 202.511719 615.488281 L 203.90625 611.101562 L 205.300781 612.121094 L 206.695312 616.996094 L 208.089844 618.53125 L 209.488281 613.707031 L 210.882812 606.5625 L 212.277344 602.859375 L 213.671875 605.023438 L 215.066406 611.175781 L 216.460938 609.511719 L 217.859375 610.851562 L 219.253906 601.515625 L 220.648438 607.96875 L 222.042969 609.914062 L 223.4375 612.367188 L 224.832031 615.667969 L 226.226562 621.890625 L 227.625 618.421875 L 229.019531 616.375 L 230.414062 616.816406 L 231.808594 617.414062 L 233.203125 619.742188 L 234.597656 621.523438 L 235.996094 618.785156 L 237.390625 618.738281 L 238.785156 619.5625 L 240.179688 621.144531 L 241.574219 619.414062 L 242.96875 619.644531 L 244.367188 618.121094 L 245.761719 613.613281 L 247.15625 607.644531 L 248.550781 602.613281 L 249.945312 598.898438 L 251.339844 598.066406 L 252.738281 598.835938 L 254.132812 601.6875 L 255.527344 603.015625 L 256.921875 613.019531 L 258.316406 618.828125 L 259.710938 624.070312 L 261.105469 632.734375 L 262.503906 638.59375 L 263.898438 636.535156 L 265.292969 633.160156 L 266.6875 635.644531 L 268.082031 643.800781 L 269.476562 648.6875 L 270.875 652.742188 L 272.269531 648.835938 L 273.664062 652.875 L 275.058594 652.472656 L 276.453125 648.871094 L 277.847656 658.980469 L 279.246094 658.191406 L 280.640625 648.738281 L 282.035156 647.175781 L 283.429688 648.117188 L 284.824219 650.355469 L 286.21875 657.191406 L 287.613281 658.921875 L 289.011719 653.523438 L 290.40625 657.835938 L 291.800781 662.140625 L 293.195312 658.042969 L 294.589844 650.429688 L 295.984375 649.652344 L 297.382812 648.734375 L 298.777344 651.777344 L 300.171875 653.695312 L 301.566406 648.769531 L 302.960938 647.71875 L 304.355469 650.175781 L 305.753906 637.09375 L 307.148438 637.972656 L 308.542969 642.015625 L 309.9375 645.460938 L 311.332031 645.253906 L 312.726562 649.230469 L 314.121094 643.71875 L 315.519531 646.164062 L 316.914062 652.324219 L 318.308594 654.285156 L 319.703125 659.28125 L 321.097656 660.320312 L 322.492188 662.316406 L 323.890625 664.660156 L 325.285156 665.1875 L 326.679688 663.703125 L 328.074219 662.226562 L 329.46875 656.324219 L 330.863281 660.582031 L 332.261719 670.285156 L 333.65625 668.871094 L 335.050781 665.164062 L 336.445312 669.402344 L 337.839844 671.457031 L 339.234375 672.203125 L 340.632812 670.800781 L 342.027344 667.035156 L 343.421875 666.976562 L 344.816406 666.183594 L 346.210938 661.839844 L 347.605469 662.667969 L 349 669.808594 L 350.398438 673.273438 L 351.792969 668.542969 L 353.1875 663.183594 L 354.582031 651.753906 L 355.976562 651.425781 L 357.371094 661.585938 L 358.769531 672.582031 L 360.164062 669.519531 L 361.558594 666.957031 L 362.953125 661.171875 L 364.347656 657.832031 L 365.742188 661.234375 L 367.140625 665.867188 L 368.535156 670.117188 L 369.929688 671.378906 L 371.324219 671.496094 L 372.71875 667.566406 L 374.113281 667.621094 L 375.507812 657.902344 L 376.90625 652.378906 L 378.300781 654.792969 L 379.695312 658.21875 L 381.089844 654.960938 L 382.484375 655.96875 L 383.878906 652.289062 L 385.277344 648.820312 L 386.671875 653.347656 L 388.066406 652.464844 L 389.460938 650.101562 L 390.855469 644.046875 L 392.25 645.796875 L 393.648438 648.570312 L 395.042969 657.300781 L 396.4375 662.902344 L 397.832031 655.117188 L 399.226562 650.308594 L 400.621094 651.992188 L 402.015625 652.914062 L 403.414062 651.617188 L 404.808594 646.710938 L 406.203125 637.726562 L 407.597656 638.449219 L 408.992188 640.054688 L 410.386719 637.96875 L 411.785156 631.097656 L 413.179688 626.203125 L 414.574219 627.210938 L 415.96875 624.449219 L 417.363281 616.203125 L 418.757812 614.074219 L 420.15625 613.738281 L 421.550781 603.855469 L 422.945312 602.398438 L 424.339844 599.003906 L 425.734375 599.257812 L 427.128906 594.167969 L 428.527344 593.617188 L 429.921875 588.710938 L 431.316406 591.972656 L 432.710938 593.460938 L 434.105469 588.203125 L 435.5 593.933594 L 436.894531 595.871094 L 438.292969 596.394531 L 439.6875 600.339844 L 441.082031 600.792969 L 442.476562 607.390625 L 443.871094 613.960938 L 445.265625 618.914062 L 446.664062 625.125 L 448.058594 624.464844 L 449.453125 619.917969 L 450.847656 614.984375 L 452.242188 612.457031 L 453.636719 607.8125 L 455.035156 608.464844 L 456.429688 609.609375 L 457.824219 609.964844 L 459.21875 607.445312 L 460.613281 601.441406 L 462.007812 598.847656 L 463.402344 591.746094 L 464.800781 585.339844 L 466.195312 574.960938 L 467.589844 576.636719 L 468.984375 574.28125 L 470.378906 567.105469 L 471.773438 559.257812 L 473.171875 552.640625 L 474.566406 544.328125 L 475.960938 553.460938 L 477.355469 548.179688 L 478.75 555.503906 L 480.144531 556.511719 L 481.542969 557.730469 L 482.9375 574.210938 L 484.332031 582.402344 L 485.726562 585.5625 L 487.121094 592.480469 L 488.515625 590.671875 L 489.914062 587.472656 L 491.308594 574.84375 L 492.703125 572.460938 L 494.097656 566.101562 L 495.492188 562.980469 L 496.886719 551.753906 L 498.28125 555.59375 L 499.679688 555.304688 L 501.074219 553.375 L 502.46875 547.273438 L 503.863281 542.347656 L 505.257812 543.667969 L 506.652344 543.613281 L 508.050781 534.253906 L 509.445312 523.503906 L 510.839844 510.234375 L 512.234375 507.828125 L 513.628906 503.195312 L 515.023438 496.304688 L 516.421875 484.679688 L 517.816406 470.996094 L 519.210938 460.953125 L 520.605469 453.472656 L 522 438.066406 L 523.394531 423.394531 L 524.789062 414.101562 L 526.1875 406.570312 L 527.582031 394.625 L 528.976562 387.027344 L 530.371094 374.535156 L 531.765625 360.527344 L 533.160156 352.914062 L 534.558594 346.578125 L 535.953125 342.59375 L 537.347656 339.382812 L 538.742188 338.121094 L 540.136719 331.632812 L 541.53125 323.285156 L 542.929688 322.097656 L 544.324219 317.382812 L 545.71875 313.96875 L 547.113281 307.695312 L 548.507812 287.699219 L 549.902344 271.914062 L 551.296875 252.871094 L 552.695312 237.003906 L 554.089844 223.351562 L 555.484375 210.417969 L 556.878906 197.84375 L 558.273438 180.855469 L 559.667969 159.617188 L 561.066406 149.875 L 562.460938 134.445312 L 563.855469 122.535156 L 565.25 125.671875 L 566.644531 114.105469 L 568.039062 123.207031 L 569.4375 125.128906 L 570.832031 132.496094 L 572.226562 126.050781 L 573.621094 123.003906 L 575.015625 133.246094 L 576.410156 140.109375 L 577.804688 145.476562 L 579.203125 151.988281 L 580.597656 157.90625 L 581.992188 158.273438 L 583.386719 159.890625 L 584.78125 158.9375 L 586.175781 161.996094 L 587.574219 163.652344 L 588.96875 162.433594 L 590.363281 162.292969 L 591.757812 166.074219 L 593.152344 171.484375 L 594.546875 178.425781 L 595.945312 181.878906 L 597.339844 185.300781 L 598.734375 188.550781 L 600.128906 187.214844 L 601.523438 188.265625 L 602.917969 191.613281 L 604.316406 196.152344 L 605.710938 206.355469 L 607.105469 212.066406 L 608.5 215.957031 L 609.894531 218.992188 L 611.289062 225.671875 L 612.683594 233.355469 L 614.082031 236.964844 L 615.476562 240.898438 L 616.871094 246.90625 L 618.265625 254.792969 L 619.660156 261.742188 L 621.054688 264.273438 L 622.453125 270.1875 L 623.847656 276.894531 L 625.242188 275.03125 L 626.636719 270.511719 L 628.03125 272.980469 L 629.425781 285.636719 L 630.824219 292.359375 L 632.21875 304.472656 L 633.613281 311.808594 L 635.007812 312.09375 L 636.402344 315.105469 L 637.796875 320.101562 L 639.191406 327.558594 L 640.589844 328.121094 L 641.984375 336.527344 L 643.378906 339.867188 L 644.773438 340.503906 L 646.167969 343.015625 L 647.5625 341.515625 L 648.960938 337.898438 L 650.355469 337.535156 L 651.75 333.011719 L 653.144531 335.417969 L 654.539062 338.972656 L 655.933594 345.1875 L 657.332031 347.71875 L 658.726562 344.023438 L 660.121094 341.699219 L 661.515625 346.707031 L 662.910156 358.371094 L 664.304688 359.558594 L 665.703125 361.777344 L 667.097656 365.855469 L 668.492188 366.378906 L 669.886719 366.90625 L 671.28125 366.421875 L 672.675781 364.488281 L 674.070312 367.066406 L 675.46875 372.984375 L 676.863281 377.851562 L 678.257812 380.988281 L 679.652344 389.609375 L 681.046875 408.15625 L 682.441406 413.765625 L 683.839844 413.277344 L 685.234375 412.925781 L 686.628906 415.585938 L 688.023438 414.640625 L 689.417969 413.699219 L 690.8125 414.277344 L 692.210938 417.390625 L 693.605469 422.390625 L 695 424.660156 L 696.394531 426.449219 L 697.789062 426.457031 L 699.183594 418.75 L 700.578125 417.378906 L 701.976562 411.167969 L 703.371094 411.785156 L 704.765625 413.695312 L 706.160156 414.949219 L 707.554688 420.894531 L 708.949219 424.921875 L 710.347656 426.636719 L 711.742188 423.460938 L 713.136719 418.769531 L 714.53125 409.613281 L 715.925781 405.925781 L 717.320312 403.007812 L 718.71875 409.816406 L 720.113281 410.054688 L 721.507812 403.351562 L 722.902344 407.296875 L 724.296875 410.171875 L 725.691406 405.863281 L 727.085938 400.019531 L 728.484375 399.570312 L 729.878906 405.703125 L 731.273438 412.566406 L 732.667969 412.230469 L 734.0625 411.136719 L 735.457031 407.359375 L 736.855469 412.007812 L 738.25 418.316406 L 739.644531 423.652344 L 741.039062 423.484375 L 742.433594 425.003906 L 743.828125 427.246094 L 745.226562 430.472656 L 746.621094 432.765625 L 748.015625 432.820312 L 749.410156 436.269531 L 750.804688 443.941406 L 752.199219 443.675781 L 753.59375 442.460938 L 754.992188 437.507812 L 756.386719 437.492188 L 757.78125 437.957031 L 759.175781 439.613281 L 760.570312 446.1875 L 761.964844 447.917969 L 763.363281 448.46875 L 764.757812 449.839844 L 766.152344 451.011719 L 767.546875 457.464844 L 768.941406 461.894531 L 770.335938 463.492188 L 771.734375 463.019531 L 773.128906 462.554688 L 774.523438 464.066406 L 775.917969 467.492188 L 777.3125 471.730469 L 778.707031 474.914062 L 780.105469 478.160156 L 781.5 481.816406 L 782.894531 478.867188 L 784.289062 478.964844 L 785.683594 483.503906 L 787.078125 488.3125 L 788.472656 486.542969 L 789.871094 484.917969 L 791.265625 484.996094 L 792.660156 489.59375 L 794.054688 490.230469 L 795.449219 495.402344 L 796.84375 496 L 798.242188 497.992188 L 799.636719 498.292969 L 801.03125 506.480469 L 802.425781 513.898438 L 803.820312 519.773438 L 805.214844 523.464844 L 806.613281 524.976562 L 808.007812 524.84375 L 809.402344 524.171875 L 810.796875 523.558594 L 812.191406 526.605469 L 813.585938 531.542969 L 814.984375 536.011719 L 816.378906 541.726562 L 817.773438 539.71875 L 819.167969 542.558594 L 820.5625 546.734375 L 821.957031 556.875 L 823.351562 564.320312 L 824.75 569.015625 L 826.144531 571.058594 L 827.539062 570.53125 L 828.933594 569.703125 L 830.328125 571.035156 L 831.722656 574.320312 L 833.121094 573.554688 L 834.515625 576.921875 L 835.910156 584.398438 L 837.304688 586.90625 L 838.699219 587.597656 L 840.09375 588.671875 L 841.492188 591.023438 L 842.886719 594.394531 L 844.28125 596.105469 L 845.675781 598.183594 L 847.070312 596.722656 L 848.464844 594.632812 L 849.859375 599.78125 L 851.257812 602.707031 L 852.652344 602.234375 L 854.046875 603.226562 L 855.441406 600.355469 L 856.835938 598.371094 L 858.230469 597.878906 L 859.628906 603.0625 L 861.023438 608.949219 L 862.417969 608.175781 L 863.8125 610.414062 L 865.207031 613.28125 L 866.601562 614.339844 L 868 610.050781 L 869.394531 601.140625 L 870.789062 604.824219 L 872.183594 599.550781 L 873.578125 599.421875 L 874.972656 597.761719 L 876.367188 596.667969 L 877.765625 603.273438 L 879.160156 600.089844 L 880.554688 594.589844 L 881.949219 596.171875 L 883.34375 597.496094 L 884.738281 601.753906 L 886.136719 607.824219 L 887.53125 610.957031 L 888.925781 621.84375 L 890.320312 631.660156 L 891.714844 633.878906 L 893.109375 627.761719 L 894.507812 629.371094 L 895.902344 625.65625 L 897.296875 629.304688 L 898.691406 624.273438 L 900.085938 610.847656 L 901.480469 612.148438 L 902.875 613.695312 L 904.273438 617.421875 L 905.667969 617.058594 L 907.0625 621.261719 L 908.457031 629.84375 L 909.851562 635.9375 L 911.246094 635.449219 L 912.644531 631.710938 L 914.039062 628.167969 L 915.433594 627.113281 L 916.828125 635.121094 L 918.222656 637.800781 L 919.617188 636.722656 L 921.015625 634.035156 L 922.410156 627.242188 L 923.804688 632.507812 L 925.199219 640.332031 L 926.59375 649.488281 L 927.988281 652.089844 L 929.382812 650.632812 L 930.78125 653.730469 L 932.175781 656.664062 L 933.570312 651.855469 L 934.964844 649.167969 L 936.359375 650.839844 L 937.753906 642.929688 L 939.152344 640.492188 L 940.546875 647.835938 L 941.941406 654.496094 L 943.335938 649.003906 L 944.730469 646.164062 L 946.125 650.445312 L 947.523438 643.414062 L 948.917969 639.65625 L 950.3125 639.542969 L 951.707031 634.429688 L 953.101562 634.121094 L 954.496094 633.414062 L 955.894531 629.5625 L 957.289062 628.023438 L 958.683594 622.640625 L 960.078125 624.6875 L 961.472656 626.289062 L 962.867188 630.214844 L 964.261719 632.332031 L 965.660156 630.488281 L 967.054688 632.898438 L 968.449219 633.175781 L 969.84375 628.953125 L 971.238281 629.683594 L 972.632812 631.394531 L 974.03125 632.609375 L 975.425781 632.453125 L 976.820312 632.175781 L 978.214844 635.109375 L 979.609375 628.144531 L 981.003906 627.332031 L 982.402344 625.257812 L 983.796875 623.472656 L 985.191406 620.605469 L 986.585938 625.578125 L 987.980469 629.0625 L 989.375 635.238281 L 990.773438 629.066406 L 992.167969 624.773438 L 993.5625 637.042969 L 994.957031 629.742188 L 996.351562 627.457031 L 997.746094 633.585938 L 999.140625 639.90625 L 1000.539062 642.777344 L 1001.933594 644.542969 L 1003.328125 649.660156 L 1004.722656 655.433594 L 1006.117188 664.449219 L 1007.511719 665.167969 L 1008.910156 661.820312 L 1010.304688 659.300781 L 1011.699219 659.035156 L 1013.09375 652.003906 L 1014.488281 656.21875 L 1015.882812 652.347656 L 1017.28125 654.84375 L 1018.675781 654 L 1020.070312 654.21875 L 1021.464844 653.007812 L 1022.859375 646.820312 L 1024.253906 644.214844 L 1025.648438 643.171875 L 1027.046875 640.847656 L 1028.441406 638.253906 L 1029.835938 631.988281 L 1031.230469 631.253906 L 1032.625 632.648438 L 1034.019531 633.835938 L 1035.417969 636.148438 L 1036.8125 644.015625 L 1038.207031 642.886719 L 1039.601562 635.683594 L 1040.996094 632.449219 L 1042.390625 637.921875 L 1043.789062 636.628906 L 1045.183594 643.839844 L 1046.578125 651.570312 L 1047.972656 652.582031 L 1049.367188 644.085938 L 1050.761719 642.597656 L 1052.15625 642.117188 L 1053.554688 645.621094 L 1054.949219 644.015625 L 1056.34375 645.066406 L 1057.738281 646.863281 L 1059.132812 652.4375 L 1060.527344 650.636719 L 1061.925781 640.371094 L 1063.320312 629.882812 L 1064.714844 631.21875 L 1066.109375 636.171875 L 1067.503906 638.484375 L 1068.898438 630.1875 L 1070.296875 623.765625 L 1071.691406 623.050781 L 1073.085938 622.53125 L 1074.480469 624.210938 L 1075.875 627.875 L 1077.269531 627.761719 L 1078.664062 628.292969 L 1080.0625 625.132812 L 1081.457031 626.523438 L 1082.851562 637.113281 L 1084.246094 637.804688 L 1085.640625 641.472656 L 1087.035156 640.796875 L 1088.433594 639.699219 L 1089.828125 631.585938 L 1091.222656 632.738281 L 1092.617188 634.535156 L 1094.011719 636.421875 L 1095.40625 633.976562 L 1096.804688 627.921875 L 1098.199219 619.992188 L 1099.59375 617.292969 L 1100.988281 619.125 L 1102.382812 621.425781 L 1103.777344 623.453125 L 1105.175781 621.796875 L 1106.570312 617.582031 L 1107.964844 615.714844 L 1109.359375 625.851562 L 1110.753906 625.199219 L 1112.148438 619.519531 L 1113.542969 615.703125 L 1114.941406 622.464844 L 1116.335938 631.71875 L 1117.730469 635.976562 L 1119.125 644.457031 L 1120.519531 642.867188 L 1121.914062 642.683594 L 1123.3125 647.578125 L 1124.707031 649.386719 L 1126.101562 647.742188 L 1127.496094 636.335938 L 1128.890625 639.910156 L 1130.285156 637.804688 L 1131.683594 632.726562 "/>
<path fill="none" stroke-width="3" stroke-linecap="butt" stroke-linejoin="miter" stroke="rgb(90.196079%, 62.352943%, 0%)" stroke-opacity="1" stroke-miterlimit="2" d="M 85.316406 616.613281 L 86.714844 617.304688 L 88.109375 622.6875 L 89.503906 622.402344 L 90.898438 624.347656 L 92.292969 626.488281 L 93.6875 630.9375 L 95.085938 626.707031 L 96.480469 630.753906 L 97.875 634.308594 L 99.269531 626.167969 L 100.664062 629.214844 L 102.058594 636.394531 L 103.457031 639.886719 L 104.851562 643.058594 L 106.246094 640.265625 L 107.640625 638.558594 L 109.035156 637.859375 L 110.429688 638.347656 L 111.824219 637.355469 L 113.222656 630.238281 L 114.617188 626.753906 L 116.011719 627.769531 L 117.40625 627.476562 L 118.800781 632.96875 L 120.195312 632.320312 L 121.59375 630.375 L 122.988281 634.898438 L 124.382812 635.546875 L 125.777344 635.863281 L 127.171875 643.582031 L 128.566406 645.371094 L 129.964844 644.25 L 131.359375 646.417969 L 132.753906 654.359375 L 134.148438 660.402344 L 135.542969 661.375 L 136.9375 654.429688 L 138.332031 653.765625 L 139.730469 647.273438 L 141.125 646.816406 L 142.519531 648.078125 L 143.914062 637.789062 L 145.308594 629.460938 L 146.703125 628.359375 L 148.101562 631.316406 L 149.496094 637.613281 L 150.890625 636.292969 L 152.285156 635.527344 L 153.679688 626.96875 L 155.074219 625.109375 L 156.472656 625.652344 L 157.867188 624.054688 L 159.261719 627.75 L 160.65625 629.351562 L 162.050781 635.953125 L 163.445312 639.828125 L 164.84375 634.519531 L 166.238281 628.992188 L 167.632812 622.757812 L 169.027344 622.332031 L 170.421875 629.722656 L 171.816406 621.863281 L 173.210938 623.679688 L 174.609375 614.472656 L 176.003906 617.996094 L 177.398438 619.582031 L 178.792969 614.726562 L 180.1875 612.574219 L 181.582031 611.289062 L 182.980469 618.035156 L 184.375 621.703125 L 185.769531 624.535156 L 187.164062 621.429688 L 188.558594 614.53125 L 189.953125 625.308594 L 191.351562 629.5625 L 192.746094 630.496094 L 194.140625 631.546875 L 195.535156 631.964844 L 196.929688 639.875 L 198.324219 642.640625 L 199.71875 644.042969 L 201.117188 638.726562 L 202.511719 645.484375 L 203.90625 655.179688 L 205.300781 651.347656 L 206.695312 647.023438 L 208.089844 648.632812 L 209.488281 647.695312 L 210.882812 647.117188 L 212.277344 644.640625 L 213.671875 647.378906 L 215.066406 646.480469 L 216.460938 646.144531 L 217.859375 653.570312 L 219.253906 658.875 L 220.648438 651.664062 L 222.042969 655.601562 L 223.4375 653.371094 L 224.832031 654.425781 L 226.226562 657.824219 L 227.625 660.933594 L 229.019531 663.75 L 230.414062 662.097656 L 231.808594 655.507812 L 233.203125 653.195312 L 234.597656 653.5625 L 235.996094 659.070312 L 237.390625 662.300781 L 238.785156 666.445312 L 240.179688 667.410156 L 241.574219 670.101562 L 242.96875 669.550781 L 244.367188 668.792969 L 245.761719 662.632812 L 247.15625 652.023438 L 248.550781 650.433594 L 249.945312 651.03125 L 251.339844 652.71875 L 252.738281 649.070312 L 254.132812 642.242188 L 255.527344 631.882812 L 256.921875 629.65625 L 258.316406 634.066406 L 259.710938 639.226562 L 261.105469 640.09375 L 262.503906 641.476562 L 263.898438 642.457031 L 265.292969 639.296875 L 266.6875 638.71875 L 268.082031 645.355469 L 269.476562 642.769531 L 270.875 644.097656 L 272.269531 646.542969 L 273.664062 650.089844 L 275.058594 650.746094 L 276.453125 648.601562 L 277.847656 644.707031 L 279.246094 641.542969 L 280.640625 638.179688 L 282.035156 636.585938 L 283.429688 624.59375 L 284.824219 625.039062 L 286.21875 629.265625 L 287.613281 630.878906 L 289.011719 627.953125 L 290.40625 625.183594 L 291.800781 620.789062 L 293.195312 622.199219 L 294.589844 623.9375 L 295.984375 622.433594 L 297.382812 623.320312 L 298.777344 629.402344 L 300.171875 631.757812 L 301.566406 634.414062 L 302.960938 638.5 L 304.355469 643.5625 L 305.753906 646.398438 L 307.148438 648.445312 L 308.542969 646.253906 L 309.9375 643.613281 L 311.332031 648.539062 L 312.726562 660.046875 L 314.121094 663.511719 L 315.519531 666.175781 L 316.914062 661.308594 L 318.308594 659.539062 L 319.703125 656.71875 L 321.097656 651.554688 L 322.492188 644.226562 L 323.890625 647.046875 L 325.285156 644.914062 L 326.679688 642.542969 L 328.074219 638.5 L 329.46875 633.664062 L 330.863281 629.542969 L 332.261719 630.34375 L 333.65625 627.597656 L 335.050781 626.597656 L 336.445312 624.957031 L 337.839844 629.320312 L 339.234375 627.09375 L 340.632812 628.828125 L 342.027344 624.847656 L 343.421875 631.851562 L 344.816406 642.425781 L 346.210938 648.171875 L 347.605469 658.945312 L 349 671.902344 L 350.398438 677.183594 L 351.792969 685.59375 L 353.1875 678.519531 L 354.582031 674.390625 L 355.976562 669.855469 L 357.371094 668.761719 L 358.769531 675.484375 L 360.164062 672.722656 L 361.558594 666.390625 L 362.953125 661.25 L 364.347656 653.515625 L 365.742188 656.921875 L 367.140625 656.796875 L 368.535156 658.347656 L 369.929688 659.292969 L 371.324219 664.027344 L 372.71875 670.875 L 374.113281 671.757812 L 375.507812 680.289062 L 376.90625 679.828125 L 378.300781 682.246094 L 379.695312 685.738281 L 381.089844 685.71875 L 382.484375 688.054688 L 383.878906 688.667969 L 385.277344 684.769531 L 386.671875 680.53125 L 388.066406 684.664062 L 389.460938 683.953125 L 390.855469 681.507812 L 392.25 681.910156 L 393.648438 681.40625 L 395.042969 682.363281 L 396.4375 683.828125 L 397.832031 687.753906 L 399.226562 688.550781 L 400.621094 690.753906 L 402.015625 694.742188 L 403.414062 699.902344 L 404.808594 704.164062 L 406.203125 696.742188 L 407.597656 688.773438 L 408.992188 683.449219 L 410.386719 681.992188 L 411.785156 674.859375 L 413.179688 674.425781 L 414.574219 676.449219 L 415.96875 680.507812 L 417.363281 683.535156 L 418.757812 680.972656 L 420.15625 671.804688 L 421.550781 662.308594 L 422.945312 665.359375 L 424.339844 659.359375 L 425.734375 658.101562 L 427.128906 664.621094 L 428.527344 664.484375 L 429.921875 664.503906 L 431.316406 658.15625 L 432.710938 641.398438 L 434.105469 634.800781 L 435.5 621.429688 L 436.894531 620.363281 L 438.292969 618.691406 L 439.6875 618.714844 L 441.082031 622.933594 L 442.476562 636.078125 L 443.871094 647.574219 L 445.265625 644.609375 L 446.664062 645.429688 L 448.058594 638.859375 L 449.453125 641.730469 L 450.847656 636.511719 L 452.242188 639.269531 L 453.636719 637.089844 L 455.035156 635.40625 L 456.429688 640.472656 L 457.824219 634.257812 L 459.21875 632.703125 L 460.613281 631.515625 L 462.007812 631.152344 L 463.402344 629.417969 L 464.800781 623.933594 L 466.195312 614.777344 L 467.589844 611.136719 L 468.984375 601.042969 L 470.378906 589.015625 L 471.773438 578.589844 L 473.171875 580.625 L 474.566406 578.617188 L 475.960938 577.167969 L 477.355469 579.257812 L 478.75 579.894531 L 480.144531 588.523438 L 481.542969 608.777344 L 482.9375 628.539062 L 484.332031 636.414062 L 485.726562 635.246094 L 487.121094 634.699219 L 488.515625 634.414062 L 489.914062 638.464844 L 491.308594 647.679688 L 492.703125 649.296875 L 494.097656 647.761719 L 495.492188 642.808594 L 496.886719 641.660156 L 498.28125 642.222656 L 499.679688 640.546875 L 501.074219 635.714844 L 502.46875 627.851562 L 503.863281 614.046875 L 505.257812 607.953125 L 506.652344 601.71875 L 508.050781 595.628906 L 509.445312 589.453125 L 510.839844 579.058594 L 512.234375 566.714844 L 513.628906 553.011719 L 515.023438 538.988281 L 516.421875 527.363281 L 517.816406 525.261719 L 519.210938 520.566406 L 520.605469 512.667969 L 522 501.320312 L 523.394531 486.265625 L 524.789062 479.214844 L 526.1875 471.683594 L 527.582031 467.171875 L 528.976562 458.332031 L 530.371094 452.152344 L 531.765625 442.945312 L 533.160156 434.070312 L 534.558594 427.320312 L 535.953125 422.941406 L 537.347656 410.035156 L 538.742188 396.378906 L 540.136719 384.191406 L 541.53125 368.410156 L 542.929688 359.53125 L 544.324219 349.9375 L 545.71875 339.945312 L 547.113281 322.125 L 548.507812 312.855469 L 549.902344 295.769531 L 551.296875 271.011719 L 552.695312 250.726562 L 554.089844 227.929688 L 555.484375 210.074219 L 556.878906 192.835938 L 558.273438 173.503906 L 559.667969 152.15625 L 561.066406 138.949219 L 562.460938 130.578125 L 563.855469 122.546875 L 565.25 117.140625 L 566.644531 110.726562 L 568.039062 101.527344 L 569.4375 92.402344 L 570.832031 80.851562 L 572.226562 74.359375 L 573.621094 73.585938 L 575.015625 73.230469 L 576.410156 68.039062 L 577.804688 66.3125 L 579.203125 67.257812 L 580.597656 72.742188 L 581.992188 76.613281 L 583.386719 70.824219 L 584.78125 75.394531 L 586.175781 77.175781 L 587.574219 70.921875 L 588.96875 70.769531 L 590.363281 74.0625 L 591.757812 72.429688 L 593.152344 75.964844 L 594.546875 83.308594 L 595.945312 86.835938 L 597.339844 92.300781 L 598.734375 106.15625 L 600.128906 114.550781 L 601.523438 116.359375 L 602.917969 128.875 L 604.316406 139.601562 L 605.710938 151.910156 L 607.105469 160.777344 L 608.5 165.085938 L 609.894531 165.019531 L 611.289062 164.386719 L 612.683594 164.042969 L 614.082031 168.21875 L 615.476562 174.019531 L 616.871094 178.570312 L 618.265625 182.570312 L 619.660156 179.671875 L 621.054688 183.988281 L 622.453125 190.546875 L 623.847656 199.042969 L 625.242188 199.632812 L 626.636719 199.351562 L 628.03125 204.542969 L 629.425781 212.8125 L 630.824219 226.117188 L 632.21875 229.960938 L 633.613281 233.996094 L 635.007812 241.160156 L 636.402344 240.574219 L 637.796875 247.617188 L 639.191406 250.511719 L 640.589844 253.15625 L 641.984375 258.144531 L 643.378906 264.527344 L 644.773438 266.121094 L 646.167969 260.757812 L 647.5625 268.699219 L 648.960938 274.53125 L 650.355469 270.554688 L 651.75 272.433594 L 653.144531 280.261719 L 654.539062 285.492188 L 655.933594 287.675781 L 657.332031 291.667969 L 658.726562 284.929688 L 660.121094 287.0625 L 661.515625 293.886719 L 662.910156 294.726562 L 664.304688 298.859375 L 665.703125 304.277344 L 667.097656 301.671875 L 668.492188 308.25 L 669.886719 320.21875 L 671.28125 325.785156 L 672.675781 321.492188 L 674.070312 320.738281 L 675.46875 318.671875 L 676.863281 313.773438 L 678.257812 319.851562 L 679.652344 323.894531 L 681.046875 327.632812 L 682.441406 320.800781 L 683.839844 322.007812 L 685.234375 321.671875 L 686.628906 322.945312 L 688.023438 322.445312 L 689.417969 318.457031 L 690.8125 323.109375 L 692.210938 326.609375 L 693.605469 325.816406 L 695 325.144531 L 696.394531 331.320312 L 697.789062 331.015625 L 699.183594 330.234375 L 700.578125 330.347656 L 701.976562 332.285156 L 703.371094 334.273438 L 704.765625 333.699219 L 706.160156 336.207031 L 707.554688 336.179688 L 708.949219 331.519531 L 710.347656 328.726562 L 711.742188 330.707031 L 713.136719 330.679688 L 714.53125 330.441406 L 715.925781 326.5625 L 717.320312 322.378906 L 718.71875 322.359375 L 720.113281 321.582031 L 721.507812 322.722656 L 722.902344 324.246094 L 724.296875 324.179688 L 725.691406 322.226562 L 727.085938 322.226562 L 728.484375 324.816406 L 729.878906 323.15625 L 731.273438 330.808594 L 732.667969 330.578125 L 734.0625 331.683594 L 735.457031 339.136719 L 736.855469 348.445312 L 738.25 353.613281 L 739.644531 349.828125 L 741.039062 344.359375 L 742.433594 339.898438 L 743.828125 338.132812 L 745.226562 341.417969 L 746.621094 348.71875 L 748.015625 354.066406 L 749.410156 357.792969 L 750.804688 357.160156 L 752.199219 352.234375 L 753.59375 347.753906 L 754.992188 346.300781 L 756.386719 349.726562 L 757.78125 361.242188 L 759.175781 364.824219 L 760.570312 362.949219 L 761.964844 358.660156 L 763.363281 359.449219 L 764.757812 355.140625 L 766.152344 360.765625 L 767.546875 355.070312 L 768.941406 354.476562 L 770.335938 360.398438 L 771.734375 364.132812 L 773.128906 367.757812 L 774.523438 365.296875 L 775.917969 366.03125 L 777.3125 375.246094 L 778.707031 379.496094 L 780.105469 383.921875 L 781.5 385.503906 L 782.894531 387.121094 L 784.289062 396.71875 L 785.683594 395.699219 L 787.078125 396.5625 L 788.472656 399.539062 L 789.871094 404.652344 L 791.265625 403.5 L 792.660156 400.164062 L 794.054688 394.710938 L 795.449219 398.597656 L 796.84375 405.75 L 798.242188 406.761719 L 799.636719 409.757812 L 801.03125 414.082031 L 802.425781 412.011719 L 803.820312 410.660156 L 805.214844 417.78125 L 806.613281 423.878906 L 808.007812 430.128906 L 809.402344 443.140625 L 810.796875 443.996094 L 812.191406 445.519531 L 813.585938 448.964844 L 814.984375 457.015625 L 816.378906 464.292969 L 817.773438 471.152344 L 819.167969 476.976562 L 820.5625 488.234375 L 821.957031 489.144531 L 823.351562 487.375 L 824.75 490.777344 L 826.144531 490.847656 L 827.539062 498.003906 L 828.933594 497.328125 L 830.328125 501.84375 L 831.722656 499.898438 L 833.121094 502.890625 L 834.515625 500.070312 L 835.910156 494.207031 L 837.304688 491.925781 L 838.699219 494.507812 L 840.09375 495.363281 L 841.492188 497.808594 L 842.886719 503.921875 L 844.28125 504.203125 L 845.675781 509.132812 L 847.070312 517.148438 L 848.464844 518.117188 L 849.859375 523.847656 L 851.257812 526.605469 L 852.652344 529.917969 L 854.046875 533.21875 L 855.441406 541.707031 L 856.835938 542.328125 L 858.230469 541.058594 L 859.628906 541.644531 L 861.023438 541.488281 L 862.417969 546.664062 L 863.8125 547.023438 L 865.207031 545.804688 L 866.601562 545.195312 L 868 543.140625 L 869.394531 545.445312 L 870.789062 556.128906 L 872.183594 557.394531 L 873.578125 556.765625 L 874.972656 556.054688 L 876.367188 559.558594 L 877.765625 562.546875 L 879.160156 564.535156 L 880.554688 559.113281 L 881.949219 567.738281 L 883.34375 569.363281 L 884.738281 574.863281 L 886.136719 578.859375 L 887.53125 582.910156 L 888.925781 587.476562 L 890.320312 588.957031 L 891.714844 582.058594 L 893.109375 583.039062 L 894.507812 577.675781 L 895.902344 578.699219 L 897.296875 577.820312 L 898.691406 575.996094 L 900.085938 575 L 901.480469 573.601562 L 902.875 566.035156 L 904.273438 565.738281 L 905.667969 571.726562 L 907.0625 570.75 L 908.457031 572.460938 L 909.851562 577.089844 L 911.246094 579.398438 L 912.644531 580.453125 L 914.039062 581.816406 L 915.433594 581.082031 L 916.828125 584.15625 L 918.222656 585.0625 L 919.617188 589.707031 L 921.015625 594.738281 L 922.410156 595.441406 L 923.804688 594.976562 L 925.199219 596.304688 L 926.59375 601.21875 L 927.988281 604.144531 L 929.382812 600.503906 L 930.78125 598.589844 L 932.175781 597.878906 L 933.570312 599.925781 L 934.964844 602.4375 L 936.359375 596.515625 L 937.753906 592.5625 L 939.152344 594.347656 L 940.546875 597.855469 L 941.941406 606.289062 L 943.335938 610.03125 L 944.730469 609.707031 L 946.125 606.921875 L 947.523438 607.984375 L 948.917969 610.636719 L 950.3125 606.949219 L 951.707031 605.296875 L 953.101562 604.144531 L 954.496094 602.484375 L 955.894531 604.683594 L 957.289062 614.070312 L 958.683594 618.238281 L 960.078125 623.523438 L 961.472656 625.648438 L 962.867188 627.941406 L 964.261719 626.5625 L 965.660156 632.003906 L 967.054688 637.097656 L 968.449219 640.25 L 969.84375 644.429688 L 971.238281 644.082031 L 972.632812 637.941406 L 974.03125 635.121094 L 975.425781 634.222656 L 976.820312 640.335938 L 978.214844 646.921875 L 979.609375 646.136719 L 981.003906 643.375 L 982.402344 649.15625 L 983.796875 645.480469 L 985.191406 640.390625 L 986.585938 640.714844 L 987.980469 641.628906 L 989.375 649.269531 L 990.773438 651.425781 L 992.167969 654.15625 L 993.5625 661.589844 L 994.957031 664.066406 L 996.351562 666.75 L 997.746094 670.347656 L 999.140625 668.828125 L 1000.539062 668.492188 L 1001.933594 667.144531 L 1003.328125 671.898438 L 1004.722656 675.125 L 1006.117188 675.835938 L 1007.511719 673.84375 L 1008.910156 670.78125 L 1010.304688 669.5625 L 1011.699219 669.152344 L 1013.09375 670.234375 L 1014.488281 665.355469 L 1015.882812 668.003906 L 1017.28125 671.367188 L 1018.675781 676.292969 L 1020.070312 665.8125 L 1021.464844 657.601562 L 1022.859375 654.617188 L 1024.253906 653.140625 L 1025.648438 655.078125 L 1027.046875 649.757812 L 1028.441406 649.722656 L 1029.835938 650.238281 L 1031.230469 648.308594 L 1032.625 650.488281 L 1034.019531 662.15625 L 1035.417969 669.65625 L 1036.8125 677.871094 L 1038.207031 681.105469 L 1039.601562 676.917969 L 1040.996094 677.335938 L 1042.390625 678.300781 L 1043.789062 679.363281 L 1045.183594 679.488281 L 1046.578125 683.207031 L 1047.972656 678.914062 L 1049.367188 680.304688 L 1050.761719 677.59375 L 1052.15625 674.304688 L 1053.554688 670.878906 L 1054.949219 669.511719 L 1056.34375 672.929688 L 1057.738281 681.542969 L 1059.132812 681.703125 L 1060.527344 676.539062 L 1061.925781 680.160156 L 1063.320312 680.226562 L 1064.714844 675.75 L 1066.109375 675.703125 L 1067.503906 675.394531 L 1068.898438 676.605469 L 1070.296875 678.222656 L 1071.691406 682.230469 L 1073.085938 680.5 L 1074.480469 670.820312 L 1075.875 669.382812 L 1077.269531 666.628906 L 1078.664062 665.914062 L 1080.0625 667.296875 L 1081.457031 666.28125 L 1082.851562 664.988281 L 1084.246094 670.367188 L 1085.640625 673.394531 L 1087.035156 676.3125 L 1088.433594 673.953125 L 1089.828125 667.523438 L 1091.222656 664.441406 L 1092.617188 663.105469 L 1094.011719 663.808594 L 1095.40625 666.117188 L 1096.804688 673.632812 L 1098.199219 673.425781 L 1099.59375 672.453125 L 1100.988281 674.085938 L 1102.382812 672.066406 L 1103.777344 668.007812 L 1105.175781 668.828125 L 1106.570312 669.871094 L 1107.964844 669.421875 L 1109.359375 671.167969 L 1110.753906 671.773438 L 1112.148438 669.902344 L 1113.542969 668.074219 L 1114.941406 668.820312 L 1116.335938 668.058594 L 1117.730469 669.390625 L 1119.125 675.761719 L 1120.519531 675.136719 L 1121.914062 671.773438 L 1123.3125 664.078125 L 1124.707031 662.210938 L 1126.101562 663.992188 L 1127.496094 663.105469 L 1128.890625 660.761719 L 1130.285156 655.648438 L 1131.683594 658.570312 "/>
<path fill="none" stroke-width="3" stroke-linecap="butt" stroke-linejoin="miter" stroke="rgb(0%, 61.960787%, 45.09804%)" stroke-opacity="1" stroke-miterlimit="2" d="M 85.316406 660.195312 L 86.714844 662.9375 L 88.109375 668.328125 L 89.503906 674.855469 L 90.898438 676.039062 L 92.292969 677.738281 L 93.6875 679.039062 L 95.085938 679.5625 L 96.480469 679.507812 L 97.875 677.917969 L 99.269531 679.75 L 100.664062 679.5625 L 102.058594 677.132812 L 103.457031 679.339844 L 104.851562 685.859375 L 106.246094 683.425781 L 107.640625 682.277344 L 109.035156 676.878906 L 110.429688 676.816406 L 111.824219 678.1875 L 113.222656 684.050781 L 114.617188 687.53125 L 116.011719 688.1875 L 117.40625 689.621094 L 118.800781 684.285156 L 120.195312 679.542969 L 121.59375 671.660156 L 122.988281 666.925781 L 124.382812 668.851562 L 125.777344 674.910156 L 127.171875 677.785156 L 128.566406 681.652344 L 129.964844 682.53125 L 131.359375 687.726562 L 132.753906 690.175781 L 134.148438 693.363281 L 135.542969 700.515625 L 136.9375 703.878906 L 138.332031 699.554688 L 139.730469 695.46875 L 141.125 690.980469 L 142.519531 684.691406 L 143.914062 691.371094 L 145.308594 704.792969 L 146.703125 704.746094 L 148.101562 713.761719 L 149.496094 702.488281 L 150.890625 709.761719 L 152.285156 714.75 L 153.679688 701.351562 L 155.074219 699.449219 L 156.472656 706.300781 L 157.867188 711.316406 L 159.261719 711.882812 L 160.65625 709.679688 L 162.050781 706.722656 L 163.445312 704.371094 L 164.84375 695.730469 L 166.238281 687.640625 L 167.632812 687.121094 L 169.027344 693.082031 L 170.421875 687.671875 L 171.816406 687.242188 L 173.210938 676.46875 L 174.609375 675.34375 L 176.003906 678.644531 L 177.398438 683.65625 L 178.792969 682.957031 L 180.1875 685.917969 L 181.582031 685.425781 L 182.980469 684.566406 L 184.375 683.679688 L 185.769531 683.269531 L 187.164062 689.535156 L 188.558594 690.964844 L 189.953125 694.277344 L 191.351562 693.433594 L 192.746094 689.8125 L 194.140625 696.230469 L 195.535156 690.285156 L 196.929688 683 L 198.324219 685.171875 L 199.71875 690.363281 L 201.117188 686.03125 L 202.511719 691.371094 L 203.90625 688.023438 L 205.300781 685.863281 L 206.695312 683.148438 L 208.089844 682.910156 L 209.488281 685.15625 L 210.882812 690.34375 L 212.277344 689.640625 L 213.671875 690.101562 L 215.066406 689.453125 L 216.460938 689.890625 L 217.859375 686.464844 L 219.253906 674.824219 L 220.648438 673.148438 L 222.042969 671.921875 L 223.4375 674.835938 L 224.832031 668.792969 L 226.226562 666.210938 L 227.625 662.253906 L 229.019531 659.164062 L 230.414062 657.550781 L 231.808594 651.191406 L 233.203125 656.292969 L 234.597656 656.839844 L 235.996094 658.339844 L 237.390625 654.335938 L 238.785156 659.644531 L 240.179688 670.527344 L 241.574219 667.570312 L 242.96875 665.765625 L 244.367188 667.953125 L 245.761719 664.75 L 247.15625 661.988281 L 248.550781 657.613281 L 249.945312 660.890625 L 251.339844 662.371094 L 252.738281 671.539062 L 254.132812 668.492188 L 255.527344 669.292969 L 256.921875 667.589844 L 258.316406 669.234375 L 259.710938 663.570312 L 261.105469 664.667969 L 262.503906 669.128906 L 263.898438 674.78125 L 265.292969 675.023438 L 266.6875 663.140625 L 268.082031 660.765625 L 269.476562 653.355469 L 270.875 656.597656 L 272.269531 658.824219 L 273.664062 653.71875 L 275.058594 652.617188 L 276.453125 652.109375 L 277.847656 651.132812 L 279.246094 659.824219 L 280.640625 658.398438 L 282.035156 657.3125 L 283.429688 649.683594 L 284.824219 653.289062 L 286.21875 654.367188 L 287.613281 654.304688 L 289.011719 649.261719 L 290.40625 644.886719 L 291.800781 653.621094 L 293.195312 646.851562 L 294.589844 648.765625 L 295.984375 658.199219 L 297.382812 650.34375 L 298.777344 650.546875 L 300.171875 654.15625 L 301.566406 657.042969 L 302.960938 661.5625 L 304.355469 661.054688 L 305.753906 652.417969 L 307.148438 648.78125 L 308.542969 655.726562 L 309.9375 661.917969 L 311.332031 672.96875 L 312.726562 676.515625 L 314.121094 674.71875 L 315.519531 669.109375 L 316.914062 669.273438 L 318.308594 670.152344 L 319.703125 668.59375 L 321.097656 669.898438 L 322.492188 673.457031 L 323.890625 676.308594 L 325.285156 672.023438 L 326.679688 666.769531 L 328.074219 663.207031 L 329.46875 660.171875 L 330.863281 655.328125 L 332.261719 657.867188 L 333.65625 656.476562 L 335.050781 658.523438 L 336.445312 665.164062 L 337.839844 662.734375 L 339.234375 660.230469 L 340.632812 660.273438 L 342.027344 663.101562 L 343.421875 664.480469 L 344.816406 674.042969 L 346.210938 675.695312 L 347.605469 682.625 L 349 679.0625 L 350.398438 672.191406 L 351.792969 674.992188 L 353.1875 676.050781 L 354.582031 677.417969 L 355.976562 675.878906 L 357.371094 673.132812 L 358.769531 673.472656 L 360.164062 673.722656 L 361.558594 669.234375 L 362.953125 663.933594 L 364.347656 655.011719 L 365.742188 657.789062 L 367.140625 662.03125 L 368.535156 666.464844 L 369.929688 665.730469 L 371.324219 665.398438 L 372.71875 662.042969 L 374.113281 658.488281 L 375.507812 656.726562 L 376.90625 658.839844 L 378.300781 657.835938 L 379.695312 660.84375 L 381.089844 660.992188 L 382.484375 660.757812 L 383.878906 660.910156 L 385.277344 656.644531 L 386.671875 651.078125 L 388.066406 645.59375 L 389.460938 651.058594 L 390.855469 652.789062 L 392.25 657.683594 L 393.648438 659.316406 L 395.042969 652.929688 L 396.4375 646.019531 L 397.832031 638.847656 L 399.226562 635.609375 L 400.621094 643.234375 L 402.015625 651.015625 L 403.414062 652.40625 L 404.808594 651.457031 L 406.203125 644.902344 L 407.597656 641.277344 L 408.992188 639.816406 L 410.386719 641.597656 L 411.785156 644.351562 L 413.179688 649.425781 L 414.574219 652.238281 L 415.96875 660.265625 L 417.363281 657.136719 L 418.757812 655.707031 L 420.15625 650.992188 L 421.550781 650.085938 L 422.945312 645.257812 L 424.339844 651.804688 L 425.734375 651.027344 L 427.128906 653.390625 L 428.527344 649.746094 L 429.921875 645.878906 L 431.316406 646.574219 L 432.710938 643.972656 L 434.105469 640.3125 L 435.5 626.75 L 436.894531 619.757812 L 438.292969 618.214844 L 439.6875 616.695312 L 441.082031 619.570312 L 442.476562 627.644531 L 443.871094 635.9375 L 445.265625 641.242188 L 446.664062 647.96875 L 448.058594 654.617188 L 449.453125 664.101562 L 450.847656 665.082031 L 452.242188 659.792969 L 453.636719 661.054688 L 455.035156 664.921875 L 456.429688 662.792969 L 457.824219 656.222656 L 459.21875 652.558594 L 460.613281 647.242188 L 462.007812 641.785156 L 463.402344 636.304688 L 464.800781 629.289062 L 466.195312 615.066406 L 467.589844 601.1875 L 468.984375 588.761719 L 470.378906 585.578125 L 471.773438 576.925781 L 473.171875 572.546875 L 474.566406 566.433594 L 475.960938 562.230469 L 477.355469 559.222656 L 478.75 561.746094 L 480.144531 569.875 L 481.542969 586.777344 L 482.9375 596.046875 L 484.332031 611.347656 L 485.726562 618.074219 L 487.121094 619.699219 L 488.515625 623.933594 L 489.914062 628.324219 L 491.308594 628.4375 L 492.703125 625.363281 L 494.097656 614.554688 L 495.492188 613.1875 L 496.886719 617.296875 L 498.28125 617.054688 L 499.679688 610.898438 L 501.074219 604.929688 L 502.46875 603.738281 L 503.863281 593.066406 L 505.257812 594.9375 L 506.652344 585.628906 L 508.050781 581.542969 L 509.445312 568.300781 L 510.839844 553.554688 L 512.234375 543.46875 L 513.628906 540.761719 L 515.023438 534.507812 L 516.421875 520.808594 L 517.816406 515.445312 L 519.210938 507.445312 L 520.605469 496.296875 L 522 481.25 L 523.394531 472.886719 L 524.789062 463.050781 L 526.1875 459.316406 L 527.582031 449.121094 L 528.976562 440.714844 L 530.371094 427.773438 L 531.765625 428.578125 L 533.160156 424.535156 L 534.558594 417.359375 L 535.953125 405.410156 L 537.347656 394.390625 L 538.742188 392.894531 L 540.136719 383.539062 L 541.53125 373.175781 L 542.929688 358.199219 L 544.324219 342.621094 L 545.71875 333.84375 L 547.113281 312.636719 L 548.507812 290.992188 L 549.902344 270.949219 L 551.296875 248.066406 L 552.695312 235.710938 L 554.089844 211.886719 L 555.484375 192.296875 L 556.878906 175.742188 L 558.273438 155.375 L 559.667969 141.511719 L 561.066406 127.558594 L 562.460938 113.765625 L 563.855469 98.8125 L 565.25 84.09375 L 566.644531 76.53125 L 568.039062 61.667969 L 569.4375 53.414062 L 570.832031 53.566406 L 572.226562 51.4375 L 573.621094 49.863281 L 575.015625 50.140625 L 576.410156 56.027344 L 577.804688 54.484375 L 579.203125 58.140625 L 580.597656 56.953125 L 581.992188 60.957031 L 583.386719 72.457031 L 584.78125 79.363281 L 586.175781 87.917969 L 587.574219 91.453125 L 588.96875 97.734375 L 590.363281 92.910156 L 591.757812 96.015625 L 593.152344 105.207031 L 594.546875 108.492188 L 595.945312 115.347656 L 597.339844 124.25 L 598.734375 133.515625 L 600.128906 135.171875 L 601.523438 140.800781 L 602.917969 150.71875 L 604.316406 152.785156 L 605.710938 164.019531 L 607.105469 176.644531 L 608.5 187.863281 L 609.894531 201.851562 L 611.289062 207.316406 L 612.683594 208.796875 L 614.082031 216.714844 L 615.476562 222.820312 L 616.871094 239.191406 L 618.265625 241.421875 L 619.660156 250.578125 L 621.054688 252.882812 L 622.453125 254.550781 L 623.847656 254.65625 L 625.242188 251.460938 L 626.636719 253.65625 L 628.03125 254.542969 L 629.425781 252.921875 L 630.824219 254.339844 L 632.21875 261.238281 L 633.613281 267.097656 L 635.007812 272.484375 L 636.402344 270.136719 L 637.796875 278.769531 L 639.191406 288.230469 L 640.589844 294.207031 L 641.984375 302.0625 L 643.378906 300.140625 L 644.773438 307.363281 L 646.167969 318.128906 L 647.5625 323.589844 L 648.960938 328.648438 L 650.355469 332.890625 L 651.75 327.070312 L 653.144531 338.726562 L 654.539062 344.789062 L 655.933594 353.929688 L 657.332031 354.648438 L 658.726562 360.976562 L 660.121094 365.285156 L 661.515625 365.335938 L 662.910156 364.351562 L 664.304688 360.136719 L 665.703125 361.507812 L 667.097656 356.542969 L 668.492188 345.480469 L 669.886719 348.335938 L 671.28125 349.34375 L 672.675781 356.109375 L 674.070312 356.535156 L 675.46875 365.460938 L 676.863281 366.125 L 678.257812 363.144531 L 679.652344 363.9375 L 681.046875 366.425781 L 682.441406 367.988281 L 683.839844 379.070312 L 685.234375 376.816406 L 686.628906 376.601562 L 688.023438 372.933594 L 689.417969 375.042969 L 690.8125 378.566406 L 692.210938 385.390625 L 693.605469 392.1875 L 695 398.605469 L 696.394531 397.453125 L 697.789062 393.949219 L 699.183594 392.441406 L 700.578125 393.742188 L 701.976562 392.832031 L 703.371094 399.359375 L 704.765625 395.796875 L 706.160156 395.582031 L 707.554688 385.035156 L 708.949219 382.988281 L 710.347656 388.792969 L 711.742188 393.320312 L 713.136719 383.582031 L 714.53125 382.148438 L 715.925781 380.324219 L 717.320312 383.726562 L 718.71875 374.085938 L 720.113281 379.277344 L 721.507812 383.183594 L 722.902344 378.859375 L 724.296875 379.730469 L 725.691406 377.027344 L 727.085938 377.441406 L 728.484375 373.484375 L 729.878906 367.167969 L 731.273438 363.722656 L 732.667969 357.636719 L 734.0625 361.167969 L 735.457031 366.355469 L 736.855469 367.28125 L 738.25 364.570312 L 739.644531 363.058594 L 741.039062 361.121094 L 742.433594 358.042969 L 743.828125 365.105469 L 745.226562 368.910156 L 746.621094 374.878906 L 748.015625 381.726562 L 749.410156 391.648438 L 750.804688 390.6875 L 752.199219 384.78125 L 753.59375 379.011719 L 754.992188 378.265625 L 756.386719 383.875 L 757.78125 384.160156 L 759.175781 379.207031 L 760.570312 378.371094 L 761.964844 381.042969 L 763.363281 378.3125 L 764.757812 381.289062 L 766.152344 378.304688 L 767.546875 376.566406 L 768.941406 377.011719 L 770.335938 378.453125 L 771.734375 377.53125 L 773.128906 376.5 L 774.523438 380.8125 L 775.917969 385.75 L 777.3125 386.898438 L 778.707031 387.855469 L 780.105469 389.257812 L 781.5 396.351562 L 782.894531 402.265625 L 784.289062 404.265625 L 785.683594 407.234375 L 787.078125 418.484375 L 788.472656 422.414062 L 789.871094 422.335938 L 791.265625 422.332031 L 792.660156 419.703125 L 794.054688 419.269531 L 795.449219 422.308594 L 796.84375 423.46875 L 798.242188 427 L 799.636719 431.765625 L 801.03125 435.507812 L 802.425781 437.972656 L 803.820312 434.765625 L 805.214844 430.515625 L 806.613281 433.417969 L 808.007812 440.753906 L 809.402344 448.789062 L 810.796875 455.617188 L 812.191406 461.148438 L 813.585938 461.84375 L 814.984375 467.496094 L 816.378906 467.222656 L 817.773438 467.992188 L 819.167969 467.535156 L 820.5625 466.582031 L 821.957031 469.433594 L 823.351562 472.25 L 824.75 474.257812 L 826.144531 473.097656 L 827.539062 472.675781 L 828.933594 472.964844 L 830.328125 475.328125 L 831.722656 477.523438 L 833.121094 475.410156 L 834.515625 475.09375 L 835.910156 473.121094 L 837.304688 471.011719 L 838.699219 471.375 L 840.09375 468.558594 L 841.492188 472.03125 L 842.886719 476.757812 L 844.28125 478.765625 L 845.675781 482.535156 L 847.070312 484.492188 L 848.464844 490.75 L 849.859375 497.25 L 851.257812 497.027344 L 852.652344 494.765625 L 854.046875 496.410156 L 855.441406 501.386719 L 856.835938 509 L 858.230469 515.027344 L 859.628906 512.683594 L 861.023438 513.480469 L 862.417969 515.023438 L 863.8125 515.164062 L 865.207031 515.785156 L 866.601562 516.03125 L 868 520.074219 L 869.394531 523.34375 L 870.789062 525.371094 L 872.183594 521.394531 L 873.578125 516.367188 L 874.972656 513.605469 L 876.367188 517.878906 L 877.765625 519.609375 L 879.160156 523.421875 L 880.554688 525.929688 L 881.949219 533.84375 L 883.34375 543.496094 L 884.738281 552.925781 L 886.136719 556.21875 L 887.53125 558.554688 L 888.925781 565.683594 L 890.320312 573.230469 L 891.714844 572.109375 L 893.109375 570.175781 L 894.507812 564.316406 L 895.902344 566.175781 L 897.296875 562.78125 L 898.691406 563.511719 L 900.085938 564.84375 L 901.480469 569.210938 L 902.875 570.84375 L 904.273438 570.6875 L 905.667969 571.804688 L 907.0625 573.011719 L 908.457031 567.742188 L 909.851562 570.824219 L 911.246094 571.578125 L 912.644531 574.3125 L 914.039062 574.769531 L 915.433594 576.488281 L 916.828125 574.9375 L 918.222656 580.914062 L 919.617188 578.09375 L 921.015625 588.4375 L 922.410156 584.292969 L 923.804688 581.996094 L 925.199219 583.367188 L 926.59375 588.304688 L 927.988281 583.082031 L 929.382812 597.394531 L 930.78125 600.796875 L 932.175781 605.933594 L 933.570312 603.011719 L 934.964844 602.097656 L 936.359375 597.972656 L 937.753906 594.394531 L 939.152344 596.699219 L 940.546875 596.027344 L 941.941406 594.15625 L 943.335938 596.632812 L 944.730469 597.554688 L 946.125 599.277344 L 947.523438 591.179688 L 948.917969 594.699219 L 950.3125 598.105469 L 951.707031 605.03125 L 953.101562 607.355469 L 954.496094 608.683594 L 955.894531 611.171875 L 957.289062 609.019531 L 958.683594 620.09375 L 960.078125 621.453125 L 961.472656 620.3125 L 962.867188 620.308594 L 964.261719 612.8125 L 965.660156 613.140625 L 967.054688 612.125 L 968.449219 614.261719 L 969.84375 620.402344 L 971.238281 618.113281 L 972.632812 613.445312 L 974.03125 603.789062 L 975.425781 605.195312 L 976.820312 607.246094 L 978.214844 602.328125 L 979.609375 592.816406 L 981.003906 600.003906 L 982.402344 603.78125 L 983.796875 609.949219 L 985.191406 604.617188 L 986.585938 598.261719 L 987.980469 603.429688 L 989.375 603.117188 L 990.773438 607.691406 L 992.167969 612.707031 L 993.5625 612.777344 L 994.957031 612.28125 L 996.351562 609.410156 L 997.746094 603.851562 L 999.140625 604.320312 L 1000.539062 602.519531 L 1001.933594 603.984375 L 1003.328125 611.726562 L 1004.722656 614.78125 L 1006.117188 613.109375 L 1007.511719 613.273438 L 1008.910156 621.492188 L 1010.304688 625.167969 L 1011.699219 624.890625 L 1013.09375 623.332031 L 1014.488281 622.101562 L 1015.882812 624.070312 L 1017.28125 623.957031 L 1018.675781 623.183594 L 1020.070312 626.113281 L 1021.464844 628.390625 L 1022.859375 629.894531 L 1024.253906 630.222656 L 1025.648438 631.308594 L 1027.046875 637.03125 L 1028.441406 642.984375 L 1029.835938 649.375 L 1031.230469 649.230469 L 1032.625 644.511719 L 1034.019531 641.074219 L 1035.417969 640.050781 L 1036.8125 635.722656 L 1038.207031 636.761719 L 1039.601562 632.058594 L 1040.996094 629.457031 L 1042.390625 631.003906 L 1043.789062 636.441406 L 1045.183594 632.777344 L 1046.578125 634.574219 L 1047.972656 637.710938 L 1049.367188 639.382812 L 1050.761719 639.648438 L 1052.15625 633.378906 L 1053.554688 635.371094 L 1054.949219 631.964844 L 1056.34375 626.785156 L 1057.738281 632.113281 L 1059.132812 628.410156 L 1060.527344 629.832031 L 1061.925781 635.15625 L 1063.320312 636.308594 L 1064.714844 636.011719 L 1066.109375 633.222656 L 1067.503906 633.695312 L 1068.898438 632.425781 L 1070.296875 630.804688 L 1071.691406 628.074219 L 1073.085938 628.914062 L 1074.480469 631.625 L 1075.875 630.683594 L 1077.269531 630.285156 L 1078.664062 636.761719 L 1080.0625 636.511719 L 1081.457031 643.933594 L 1082.851562 645.460938 L 1084.246094 649.425781 L 1085.640625 649.558594 L 1087.035156 646.15625 L 1088.433594 651.082031 L 1089.828125 649.660156 L 1091.222656 650.058594 L 1092.617188 655.46875 L 1094.011719 654.722656 L 1095.40625 652.273438 L 1096.804688 650.746094 L 1098.199219 647.785156 L 1099.59375 642.988281 L 1100.988281 645.855469 L 1102.382812 645.34375 L 1103.777344 644.226562 L 1105.175781 645.773438 L 1106.570312 649.925781 L 1107.964844 653.949219 L 1109.359375 649.507812 L 1110.753906 645.300781 L 1112.148438 645.390625 L 1113.542969 644.542969 L 1114.941406 645.601562 L 1116.335938 652.347656 L 1117.730469 652.082031 L 1119.125 651.824219 L 1120.519531 645.695312 L 1121.914062 651.214844 L 1123.3125 645.742188 L 1124.707031 636.632812 L 1126.101562 636 L 1127.496094 637.144531 L 1128.890625 643.386719 L 1130.285156 643.144531 L 1131.683594 637.84375 "/>
<path fill="none" stroke-width="3" stroke-linecap="butt" stroke-linejoin="miter" stroke="rgb(80.000001%, 47.450981%, 65.490198%)" stroke-opacity="1" stroke-miterlimit="2" d="M 85.316406 658.804688 L 86.714844 655.460938 L 88.109375 652.703125 L 89.503906 653.175781 L 90.898438 664.382812 L 92.292969 664.386719 L 93.6875 667.632812 L 95.085938 666.039062 L 96.480469 666.933594 L 97.875 664.195312 L 99.269531 664.441406 L 100.664062 668.0625 L 102.058594 672.128906 L 103.457031 683.824219 L 104.851562 681.046875 L 106.246094 674.101562 L 107.640625 678.285156 L 109.035156 679.964844 L 110.429688 677.917969 L 111.824219 673.777344 L 113.222656 672.261719 L 114.617188 662.984375 L 116.011719 660.769531 L 117.40625 657.222656 L 118.800781 657.132812 L 120.195312 661.226562 L 121.59375 670.453125 L 122.988281 672.324219 L 124.382812 680.667969 L 125.777344 680.472656 L 127.171875 682.480469 L 128.566406 679.230469 L 129.964844 685.320312 L 131.359375 692.847656 L 132.753906 694.730469 L 134.148438 688.304688 L 135.542969 688.503906 L 136.9375 694.410156 L 138.332031 701.007812 L 139.730469 703.144531 L 141.125 691.757812 L 142.519531 684.113281 L 143.914062 685.671875 L 145.308594 686.820312 L 146.703125 684.09375 L 148.101562 680.289062 L 149.496094 674.511719 L 150.890625 674.714844 L 152.285156 674.566406 L 153.679688 671.683594 L 155.074219 667.609375 L 156.472656 660.976562 L 157.867188 652.378906 L 159.261719 654.140625 L 160.65625 657.378906 L 162.050781 665.929688 L 163.445312 677.195312 L 164.84375 685.1875 L 166.238281 681.644531 L 167.632812 681.679688 L 169.027344 682.078125 L 170.421875 684.152344 L 171.816406 693.390625 L 173.210938 691.421875 L 174.609375 690.605469 L 176.003906 687.269531 L 177.398438 688.835938 L 178.792969 691.960938 L 180.1875 692.210938 L 181.582031 679.914062 L 182.980469 671.585938 L 184.375 673.515625 L 185.769531 675.039062 L 187.164062 671.945312 L 188.558594 669.261719 L 189.953125 665.183594 L 191.351562 664.136719 L 192.746094 665.476562 L 194.140625 666.425781 L 195.535156 671.042969 L 196.929688 671.773438 L 198.324219 681.933594 L 199.71875 688.226562 L 201.117188 687.980469 L 202.511719 686.378906 L 203.90625 683.433594 L 205.300781 684.601562 L 206.695312 691.828125 L 208.089844 703.226562 L 209.488281 710.269531 L 210.882812 707.535156 L 212.277344 701.371094 L 213.671875 698.882812 L 215.066406 702.25 L 216.460938 697.234375 L 217.859375 690.03125 L 219.253906 687.207031 L 220.648438 687.886719 L 222.042969 684.265625 L 223.4375 681.707031 L 224.832031 674.589844 L 226.226562 670.660156 L 227.625 669.367188 L 229.019531 667.703125 L 230.414062 671.925781 L 231.808594 674.359375 L 233.203125 663.875 L 234.597656 658.582031 L 235.996094 660.394531 L 237.390625 663.714844 L 238.785156 674.101562 L 240.179688 679.257812 L 241.574219 684.9375 L 242.96875 692.507812 L 244.367188 686.558594 L 245.761719 687.300781 L 247.15625 687.890625 L 248.550781 678.847656 L 249.945312 683.046875 L 251.339844 679.695312 L 252.738281 681.3125 L 254.132812 682.253906 L 255.527344 687.351562 L 256.921875 694.941406 L 258.316406 700.890625 L 259.710938 700.367188 L 261.105469 691.011719 L 262.503906 690.605469 L 263.898438 694.414062 L 265.292969 686.335938 L 266.6875 686.148438 L 268.082031 685.535156 L 269.476562 688.148438 L 270.875 697.160156 L 272.269531 697.242188 L 273.664062 697.558594 L 275.058594 698.761719 L 276.453125 709.511719 L 277.847656 718.71875 L 279.246094 723.511719 L 280.640625 721.222656 L 282.035156 719.558594 L 283.429688 721.96875 L 284.824219 718.734375 L 286.21875 727.136719 L 287.613281 726.882812 L 289.011719 721.1875 L 290.40625 717.488281 L 291.800781 712.167969 L 293.195312 706.671875 L 294.589844 709.660156 L 295.984375 712.671875 L 297.382812 713.890625 L 298.777344 711.984375 L 300.171875 710.269531 L 301.566406 706.039062 L 302.960938 701.945312 L 304.355469 707.382812 L 305.753906 705.785156 L 307.148438 708.675781 L 308.542969 707.777344 L 309.9375 705.617188 L 311.332031 707.128906 L 312.726562 710.261719 L 314.121094 707.726562 L 315.519531 703.828125 L 316.914062 704.714844 L 318.308594 700.859375 L 319.703125 704.28125 L 321.097656 702.195312 L 322.492188 709.101562 L 323.890625 709.289062 L 325.285156 709.242188 L 326.679688 708.839844 L 328.074219 712.167969 L 329.46875 711.980469 L 330.863281 717.132812 L 332.261719 714.925781 L 333.65625 712.878906 L 335.050781 710.039062 L 336.445312 710.0625 L 337.839844 707.328125 L 339.234375 707.832031 L 340.632812 708.886719 L 342.027344 711.332031 L 343.421875 717.097656 L 344.816406 713.796875 L 346.210938 711.203125 L 347.605469 700.738281 L 349 701.566406 L 350.398438 697.523438 L 351.792969 696.515625 L 353.1875 693.441406 L 354.582031 692.167969 L 355.976562 692.949219 L 357.371094 693.773438 L 358.769531 700.492188 L 360.164062 704.488281 L 361.558594 699.441406 L 362.953125 695.945312 L 364.347656 693.574219 L 365.742188 695.273438 L 367.140625 692.101562 L 368.535156 696.222656 L 369.929688 694.765625 L 371.324219 690.816406 L 372.71875 692.25 L 374.113281 689.007812 L 375.507812 690.542969 L 376.90625 691.664062 L 378.300781 694.609375 L 379.695312 695.789062 L 381.089844 690.066406 L 382.484375 692.644531 L 383.878906 694.292969 L 385.277344 692.121094 L 386.671875 685.949219 L 388.066406 686.183594 L 389.460938 693.066406 L 390.855469 694.777344 L 392.25 698.175781 L 393.648438 695.820312 L 395.042969 690.855469 L 396.4375 692.6875 L 397.832031 699.183594 L 399.226562 698.679688 L 400.621094 694.15625 L 402.015625 696.089844 L 403.414062 697.035156 L 404.808594 696.328125 L 406.203125 697.828125 L 407.597656 697.601562 L 408.992188 708.457031 L 410.386719 705.976562 L 411.785156 709.167969 L 413.179688 700.96875 L 414.574219 690.019531 L 415.96875 695.9375 L 417.363281 693.332031 L 418.757812 683.761719 L 420.15625 672.152344 L 421.550781 661.675781 L 422.945312 655.519531 L 424.339844 653.9375 L 425.734375 655.578125 L 427.128906 662.085938 L 428.527344 663.882812 L 429.921875 660.824219 L 431.316406 659.300781 L 432.710938 654.820312 L 434.105469 649.515625 L 435.5 648.210938 L 436.894531 640.328125 L 438.292969 636.542969 L 439.6875 634.683594 L 441.082031 637.648438 L 442.476562 646.832031 L 443.871094 648.984375 L 445.265625 655.691406 L 446.664062 662.046875 L 448.058594 657.632812 L 449.453125 652.105469 L 450.847656 646.226562 L 452.242188 647.832031 L 453.636719 647.976562 L 455.035156 643.898438 L 456.429688 642.8125 L 457.824219 644.820312 L 459.21875 648.691406 L 460.613281 649.753906 L 462.007812 644.808594 L 463.402344 639.210938 L 464.800781 637.207031 L 466.195312 630.015625 L 467.589844 619.328125 L 468.984375 611.546875 L 470.378906 612.652344 L 471.773438 603.59375 L 473.171875 595.488281 L 474.566406 585.003906 L 475.960938 580.601562 L 477.355469 581.132812 L 478.75 587.050781 L 480.144531 586.738281 L 481.542969 586.792969 L 482.9375 594.425781 L 484.332031 599.4375 L 485.726562 594.386719 L 487.121094 593.769531 L 488.515625 602.757812 L 489.914062 612.851562 L 491.308594 618.667969 L 492.703125 613.8125 L 494.097656 616.65625 L 495.492188 614.632812 L 496.886719 606.75 L 498.28125 599.089844 L 499.679688 594.046875 L 501.074219 591.402344 L 502.46875 591.5 L 503.863281 581.804688 L 505.257812 575.832031 L 506.652344 566.558594 L 508.050781 556.039062 L 509.445312 550.140625 L 510.839844 545.691406 L 512.234375 540.972656 L 513.628906 528.613281 L 515.023438 513.824219 L 516.421875 497.671875 L 517.816406 486.621094 L 519.210938 479.074219 L 520.605469 464.234375 L 522 453.796875 L 523.394531 436.796875 L 524.789062 428.898438 L 526.1875 421.9375 L 527.582031 424.164062 L 528.976562 423.421875 L 530.371094 416.96875 L 531.765625 413.164062 L 533.160156 401.519531 L 534.558594 380.90625 L 535.953125 375.667969 L 537.347656 367.75 L 538.742188 356.730469 L 540.136719 355.578125 L 541.53125 355.464844 L 542.929688 344.753906 L 544.324219 335.699219 L 545.71875 318.15625 L 547.113281 300.011719 L 548.507812 283.441406 L 549.902344 259.378906 L 551.296875 250.46875 L 552.695312 236.003906 L 554.089844 224.972656 L 555.484375 209.261719 L 556.878906 196.613281 L 558.273438 183.066406 L 559.667969 178.835938 L 561.066406 167.632812 L 562.460938 159.601562 L 563.855469 155.339844 L 565.25 149.378906 L 566.644531 141.796875 L 568.039062 128.578125 L 569.4375 124.238281 L 570.832031 120.023438 L 572.226562 122.621094 L 573.621094 114.4375 L 575.015625 113.816406 L 576.410156 110.132812 L 577.804688 113.117188 L 579.203125 111.40625 L 580.597656 111.203125 L 581.992188 117.453125 L 583.386719 119.84375 L 584.78125 134.679688 L 586.175781 139.4375 L 587.574219 147.386719 L 588.96875 143.359375 L 590.363281 145.039062 L 591.757812 138.304688 L 593.152344 139.605469 L 594.546875 141.460938 L 595.945312 147.382812 L 597.339844 153.957031 L 598.734375 165.484375 L 600.128906 164.355469 L 601.523438 171.886719 L 602.917969 179.757812 L 604.316406 184.386719 L 605.710938 197.058594 L 607.105469 206.152344 L 608.5 212.25 L 609.894531 210.105469 L 611.289062 213.964844 L 612.683594 227.128906 L 614.082031 226.648438 L 615.476562 225.8125 L 616.871094 226.582031 L 618.265625 233.902344 L 619.660156 232.53125 L 621.054688 239.554688 L 622.453125 239.265625 L 623.847656 245.21875 L 625.242188 253.332031 L 626.636719 260.464844 L 628.03125 261.488281 L 629.425781 268.507812 L 630.824219 274.121094 L 632.21875 270.550781 L 633.613281 262.898438 L 635.007812 264.027344 L 636.402344 266.648438 L 637.796875 274.664062 L 639.191406 285.941406 L 640.589844 285.925781 L 641.984375 285.0625 L 643.378906 283.726562 L 644.773438 289.808594 L 646.167969 292.207031 L 647.5625 289.015625 L 648.960938 290 L 650.355469 290.480469 L 651.75 292.605469 L 653.144531 286.28125 L 654.539062 280.9375 L 655.933594 285.058594 L 657.332031 292.34375 L 658.726562 304.542969 L 660.121094 307.488281 L 661.515625 309.691406 L 662.910156 318.585938 L 664.304688 313.820312 L 665.703125 311.949219 L 667.097656 316.765625 L 668.492188 328.582031 L 669.886719 322.578125 L 671.28125 317.714844 L 672.675781 317.019531 L 674.070312 314.878906 L 675.46875 319.328125 L 676.863281 325.15625 L 678.257812 320.660156 L 679.652344 328.164062 L 681.046875 323.6875 L 682.441406 322.828125 L 683.839844 326.707031 L 685.234375 322.164062 L 686.628906 321.5 L 688.023438 322.554688 L 689.417969 324.875 L 690.8125 328.046875 L 692.210938 335.511719 L 693.605469 339.898438 L 695 344.253906 L 696.394531 352.0625 L 697.789062 351.460938 L 699.183594 347.339844 L 700.578125 344.929688 L 701.976562 340.488281 L 703.371094 340.847656 L 704.765625 351.578125 L 706.160156 352.40625 L 707.554688 351.054688 L 708.949219 355.035156 L 710.347656 361.90625 L 711.742188 371.9375 L 713.136719 371.507812 L 714.53125 370.078125 L 715.925781 362.492188 L 717.320312 361.023438 L 718.71875 357.042969 L 720.113281 356.832031 L 721.507812 355.789062 L 722.902344 353.128906 L 724.296875 348.195312 L 725.691406 339.546875 L 727.085938 338.015625 L 728.484375 339.882812 L 729.878906 343.390625 L 731.273438 352.40625 L 732.667969 358.417969 L 734.0625 359.074219 L 735.457031 358.546875 L 736.855469 352.902344 L 738.25 355.757812 L 739.644531 359.167969 L 741.039062 361.285156 L 742.433594 364.667969 L 743.828125 362.058594 L 745.226562 365.035156 L 746.621094 364.476562 L 748.015625 366.324219 L 749.410156 368.742188 L 750.804688 372.121094 L 752.199219 373.195312 L 753.59375 375.402344 L 754.992188 377.421875 L 756.386719 378.394531 L 757.78125 373.769531 L 759.175781 370.4375 L 760.570312 373.203125 L 761.964844 375.152344 L 763.363281 374.828125 L 764.757812 371.601562 L 766.152344 376.132812 L 767.546875 382.679688 L 768.941406 391.007812 L 770.335938 393.707031 L 771.734375 397.320312 L 773.128906 399.449219 L 774.523438 393.054688 L 775.917969 407.457031 L 777.3125 418.574219 L 778.707031 426.253906 L 780.105469 424.347656 L 781.5 414.890625 L 782.894531 417.707031 L 784.289062 425.828125 L 785.683594 420.1875 L 787.078125 408.894531 L 788.472656 410.5 L 789.871094 422.472656 L 791.265625 426.84375 L 792.660156 429.570312 L 794.054688 423.734375 L 795.449219 427.617188 L 796.84375 424.476562 L 798.242188 427.632812 L 799.636719 426.132812 L 801.03125 435.058594 L 802.425781 437.285156 L 803.820312 437.855469 L 805.214844 438.375 L 806.613281 432.332031 L 808.007812 441.664062 L 809.402344 449.507812 L 810.796875 456.449219 L 812.191406 459.777344 L 813.585938 474.191406 L 814.984375 477.359375 L 816.378906 482.222656 L 817.773438 484.203125 L 819.167969 490.6875 L 820.5625 493.386719 L 821.957031 493.484375 L 823.351562 495.320312 L 824.75 500.339844 L 826.144531 506.519531 L 827.539062 503.402344 L 828.933594 504.492188 L 830.328125 505.289062 L 831.722656 504.433594 L 833.121094 506.9375 L 834.515625 507.085938 L 835.910156 511.320312 L 837.304688 519.609375 L 838.699219 520.292969 L 840.09375 515 L 841.492188 507.5625 L 842.886719 509.234375 L 844.28125 513.472656 L 845.675781 514.984375 L 847.070312 517.144531 L 848.464844 517.179688 L 849.859375 518.414062 L 851.257812 516.542969 L 852.652344 518.734375 L 854.046875 524.007812 L 855.441406 525.878906 L 856.835938 530.472656 L 858.230469 538.375 L 859.628906 538.410156 L 861.023438 541.171875 L 862.417969 540.417969 L 863.8125 539.097656 L 865.207031 545.835938 L 866.601562 545.488281 L 868 547.515625 L 869.394531 546.816406 L 870.789062 551.980469 L 872.183594 558.398438 L 873.578125 558.753906 L 874.972656 560.203125 L 876.367188 556.726562 L 877.765625 557.375 L 879.160156 561.949219 L 880.554688 557.460938 L 881.949219 563.105469 L 883.34375 573.574219 L 884.738281 579.089844 L 886.136719 581.160156 L 887.53125 577.097656 L 888.925781 583.390625 L 890.320312 587.554688 L 891.714844 586.066406 L 893.109375 584.640625 L 894.507812 583.878906 L 895.902344 585.839844 L 897.296875 580.636719 L 898.691406 575.578125 L 900.085938 572.785156 L 901.480469 572.746094 L 902.875 581.296875 L 904.273438 585.585938 L 905.667969 584.679688 L 907.0625 577.40625 L 908.457031 572.410156 L 909.851562 568.878906 L 911.246094 575.453125 L 912.644531 584.152344 L 914.039062 588.96875 L 915.433594 592.867188 L 916.828125 590.085938 L 918.222656 585.425781 L 919.617188 588.476562 L 921.015625 581.273438 L 922.410156 576.007812 L 923.804688 577.078125 L 925.199219 578.507812 L 926.59375 585.105469 L 927.988281 580.578125 L 929.382812 577.722656 L 930.78125 575.828125 L 932.175781 574.257812 L 933.570312 576.410156 L 934.964844 580.265625 L 936.359375 588.546875 L 937.753906 587.199219 L 939.152344 579.839844 L 940.546875 582.253906 L 941.941406 582.429688 L 943.335938 588.695312 L 944.730469 586.726562 L 946.125 583.390625 L 947.523438 587.234375 L 948.917969 587.820312 L 950.3125 589.820312 L 951.707031 592.347656 L 953.101562 590.65625 L 954.496094 588.988281 L 955.894531 586.816406 L 957.289062 590.359375 L 958.683594 585.675781 L 960.078125 583.335938 L 961.472656 586.546875 L 962.867188 604.261719 L 964.261719 607.261719 L 965.660156 602.703125 L 967.054688 597.84375 L 968.449219 595.648438 L 969.84375 608.375 L 971.238281 604.019531 L 972.632812 608.351562 L 974.03125 604.710938 L 975.425781 599.628906 L 976.820312 611.523438 L 978.214844 611.902344 L 979.609375 610.5 L 981.003906 613.546875 L 982.402344 612.679688 L 983.796875 608.070312 L 985.191406 610.609375 L 986.585938 612.417969 L 987.980469 604.554688 L 989.375 605.796875 L 990.773438 605.011719 L 992.167969 614.824219 L 993.5625 615.804688 L 994.957031 613.140625 L 996.351562 612.832031 L 997.746094 605.679688 L 999.140625 617.675781 L 1000.539062 627.601562 L 1001.933594 620.84375 L 1003.328125 610.683594 L 1004.722656 610.765625 L 1006.117188 615.058594 L 1007.511719 619.355469 L 1008.910156 627.144531 L 1010.304688 631.285156 L 1011.699219 622.574219 L 1013.09375 626.421875 L 1014.488281 628.339844 L 1015.882812 636.375 L 1017.28125 633.75 L 1018.675781 642.234375 L 1020.070312 649.542969 L 1021.464844 644.265625 L 1022.859375 647.273438 L 1024.253906 646.59375 L 1025.648438 645.460938 L 1027.046875 647.550781 L 1028.441406 643.875 L 1029.835938 646.714844 L 1031.230469 647.914062 L 1032.625 646.609375 L 1034.019531 645.042969 L 1035.417969 648.722656 L 1036.8125 648.183594 L 1038.207031 651.894531 L 1039.601562 649.980469 L 1040.996094 643.574219 L 1042.390625 640.925781 L 1043.789062 641.394531 L 1045.183594 642.105469 L 1046.578125 642.265625 L 1047.972656 639.28125 L 1049.367188 636.382812 L 1050.761719 637.121094 L 1052.15625 631.949219 L 1053.554688 632.1875 L 1054.949219 639.074219 L 1056.34375 643.726562 L 1057.738281 642.125 L 1059.132812 649.078125 L 1060.527344 647.964844 L 1061.925781 639.75 L 1063.320312 633.957031 L 1064.714844 630.242188 L 1066.109375 628.761719 L 1067.503906 631.660156 L 1068.898438 627.363281 L 1070.296875 630.941406 L 1071.691406 630.328125 L 1073.085938 631.804688 L 1074.480469 633 L 1075.875 635.664062 L 1077.269531 632.898438 L 1078.664062 636.609375 L 1080.0625 636.988281 L 1081.457031 634.03125 L 1082.851562 630.6875 L 1084.246094 626.242188 L 1085.640625 627.453125 L 1087.035156 622.851562 L 1088.433594 624.257812 L 1089.828125 628.257812 L 1091.222656 622.015625 L 1092.617188 624.578125 L 1094.011719 624.210938 L 1095.40625 627.246094 L 1096.804688 629.328125 L 1098.199219 632.003906 L 1099.59375 636.042969 L 1100.988281 630.175781 L 1102.382812 631.355469 L 1103.777344 622.757812 L 1105.175781 619.761719 L 1106.570312 619.0625 L 1107.964844 625.871094 L 1109.359375 624.089844 L 1110.753906 620.234375 L 1112.148438 622.523438 L 1113.542969 620.792969 L 1114.941406 622.386719 L 1116.335938 618.726562 L 1117.730469 618.78125 L 1119.125 615.761719 L 1120.519531 616.214844 L 1121.914062 621.097656 L 1123.3125 620.574219 L 1124.707031 625.699219 L 1126.101562 622.953125 L 1127.496094 624.53125 L 1128.890625 627.109375 L 1130.285156 632.265625 L 1131.683594 636.792969 "/>
<path fill="none" stroke-width="1" stroke-linecap="butt" stroke-linejoin="miter" stroke="rgb(0%, 0%, 0%)" stroke-opacity="1" stroke-miterlimit="1.154701" d="M 224.832031 761.5 L 224.832031 766.5 "/>
<path fill="none" stroke-width="1" stroke-linecap="butt" stroke-linejoin="miter" stroke="rgb(0%, 0%, 0%)" stroke-opacity="1" stroke-miterlimit="1.154701" d="M 434.105469 761.5 L 434.105469 766.5 "/>
<path fill="none" stroke-width="1" stroke-linecap="butt" stroke-linejoin="miter" stroke="rgb(0%, 0%, 0%)" stroke-opacity="1" stroke-miterlimit="1.154701" d="M 643.378906 761.5 L 643.378906 766.5 "/>
<path fill="none" stroke-width="1" stroke-linecap="butt" stroke-linejoin="miter" stroke="rgb(0%, 0%, 0%)" stroke-opacity="1" stroke-miterlimit="1.154701" d="M 852.652344 761.5 L 852.652344 766.5 "/>
<path fill="none" stroke-width="1" stroke-linecap="butt" stroke-linejoin="miter" stroke="rgb(0%, 0%, 0%)" stroke-opacity="1" stroke-miterlimit="1.154701" d="M 1061.925781 761.5 L 1061.925781 766.5 "/>
<path fill="none" stroke-width="1" stroke-linecap="butt" stroke-linejoin="miter" stroke="rgb(0%, 0%, 0%)" stroke-opacity="1" stroke-miterlimit="1.154701" d="M 32.5 559.296875 L 27.5 559.296875 "/>
<path fill="none" stroke-width="1" stroke-linecap="butt" stroke-linejoin="miter" stroke="rgb(0%, 0%, 0%)" stroke-opacity="1" stroke-miterlimit="1.154701" d="M 32.5 345.832031 L 27.5 345.832031 "/>
<path fill="none" stroke-width="1" stroke-linecap="butt" stroke-linejoin="miter" stroke="rgb(0%, 0%, 0%)" stroke-opacity="1" stroke-miterlimit="1.154701" d="M 32.5 132.363281 L 27.5 132.363281 "/>
<path fill="none" stroke-width="1" stroke-linecap="butt" stroke-linejoin="miter" stroke="rgb(0%, 0%, 0%)" stroke-opacity="1" stroke-miterlimit="1.154701" d="M 32.5 761 L 1184.5 761 "/>
<path fill="none" stroke-width="1" stroke-linecap="butt" stroke-linejoin="miter" stroke="rgb(0%, 0%, 0%)" stroke-opacity="1" stroke-miterlimit="1.154701" d="M 33 761.5 L 33 15.5 "/>
<path fill="none" stroke-width="1" stroke-linecap="butt" stroke-linejoin="miter" stroke="rgb(0%, 0%, 0%)" stroke-opacity="1" stroke-miterlimit="1.154701" d="M 32.5 16 L 1184.5 16 "/>
<path fill="none" stroke-width="1" stroke-linecap="butt" stroke-linejoin="miter" stroke="rgb(0%, 0%, 0%)" stroke-opacity="1" stroke-miterlimit="1.154701" d="M 1184 761.5 L 1184 15.5 "/>
</svg>
