<?xml version="1.0" encoding="UTF-8"?>
<svg xmlns="http://www.w3.org/2000/svg" xmlns:xlink="http://www.w3.org/1999/xlink" width="1200" height="800" viewBox="0 0 1200 800">
<defs>
<g>
<g id="glyph-0-0-29633227">
<path d="M 7.21875 -3.03125 C 7.21875 -3.03125 0.953125 -3.03125 0.953125 -3.03125 C 0.953125 -3.03125 0.953125 -3.96875 0.953125 -3.96875 C 0.953125 -3.96875 7.21875 -3.96875 7.21875 -3.96875 C 7.21875 -3.96875 7.21875 -3.03125 7.21875 -3.03125 Z M 7.21875 -3.03125 "/>
</g>
<g id="glyph-0-1-29633227">
<path d="M 7.09375 -4.78125 C 7.09375 -1.515625 5.953125 0.203125 3.84375 0.203125 C 1.71875 0.203125 0.609375 -1.515625 0.609375 -4.859375 C 0.609375 -8.1875 1.703125 -9.921875 3.84375 -9.921875 C 6 -9.921875 7.09375 -8.21875 7.09375 -4.78125 Z M 5.84375 -4.890625 C 5.84375 -7.546875 5.1875 -8.828125 3.84375 -8.828125 C 2.515625 -8.828125 1.859375 -7.5625 1.859375 -4.84375 C 1.859375 -2.125 2.515625 -0.8125 3.828125 -0.8125 C 5.1875 -0.8125 5.84375 -2.078125 5.84375 -4.890625 Z M 5.84375 -4.890625 "/>
</g>
<g id="glyph-0-2-29633227">
<path d="M 2.671875 0 C 2.671875 0 1.21875 0 1.21875 0 C 1.21875 0 1.21875 -1.453125 1.21875 -1.453125 C 1.21875 -1.453125 2.671875 -1.453125 2.671875 -1.453125 C 2.671875 -1.453125 2.671875 0 2.671875 0 Z M 2.671875 0 "/>
</g>
<g id="glyph-0-3-29633227">
<path d="M 7.078125 -2.890625 C 7.078125 -1.015625 5.765625 0.203125 3.71875 0.203125 C 1.6875 0.203125 0.609375 -0.78125 0.453125 -3 C 0.453125 -3 1.6875 -3 1.6875 -3 C 1.765625 -1.546875 2.421875 -0.875 3.765625 -0.875 C 5.046875 -0.875 5.828125 -1.625 5.828125 -2.875 C 5.828125 -3.96875 5.125 -4.625 3.765625 -4.625 C 3.765625 -4.625 3.09375 -4.625 3.09375 -4.625 C 3.09375 -4.625 3.09375 -5.65625 3.09375 -5.65625 C 5.0625 -5.65625 5.53125 -6.09375 5.53125 -7.15625 C 5.53125 -8.203125 4.875 -8.84375 3.78125 -8.84375 C 2.515625 -8.84375 1.921875 -8.1875 1.890625 -6.71875 C 1.890625 -6.71875 0.65625 -6.71875 0.65625 -6.71875 C 0.703125 -8.828125 1.765625 -9.921875 3.765625 -9.921875 C 5.65625 -9.921875 6.796875 -8.90625 6.796875 -7.203125 C 6.796875 -6.203125 6.328125 -5.5625 5.40625 -5.1875 C 6.59375 -4.78125 7.078125 -4.09375 7.078125 -2.890625 Z M 7.078125 -2.890625 "/>
</g>
<g id="glyph-0-4-29633227">
<path d="M 7.1875 -3.078125 C 7.1875 -1.140625 5.828125 0.203125 3.9375 0.203125 C 1.671875 0.203125 0.609375 -1.421875 0.609375 -4.515625 C 0.609375 -7.984375 1.84375 -9.921875 4.15625 -9.921875 C 5.671875 -9.921875 6.734375 -8.953125 6.96875 -7.34375 C 6.96875 -7.34375 5.734375 -7.34375 5.734375 -7.34375 C 5.546875 -8.28125 4.9375 -8.828125 4.078125 -8.828125 C 2.65625 -8.828125 1.875 -7.484375 1.859375 -5.0625 C 2.390625 -5.796875 3.15625 -6.171875 4.140625 -6.171875 C 5.921875 -6.171875 7.1875 -4.921875 7.1875 -3.078125 Z M 5.921875 -2.984375 C 5.921875 -4.3125 5.1875 -5.078125 3.984375 -5.078125 C 2.765625 -5.078125 1.9375 -4.28125 1.9375 -3.046875 C 1.9375 -1.78125 2.796875 -0.875 3.953125 -0.875 C 5.078125 -0.875 5.921875 -1.734375 5.921875 -2.984375 Z M 5.921875 -2.984375 "/>
</g>
<g id="glyph-0-5-29633227">
<path d="M 7.125 -5.1875 C 7.125 -1.765625 5.875 0.203125 3.5625 0.203125 C 2.046875 0.203125 0.984375 -0.75 0.734375 -2.375 C 0.734375 -2.375 1.96875 -2.375 1.96875 -2.375 C 2.171875 -1.421875 2.765625 -0.875 3.640625 -0.875 C 5.046875 -0.875 5.84375 -2.21875 5.859375 -4.640625 C 5.203125 -3.875 4.515625 -3.546875 3.578125 -3.546875 C 1.796875 -3.546875 0.53125 -4.78125 0.53125 -6.640625 C 0.53125 -8.578125 1.890625 -9.921875 3.78125 -9.921875 C 6.046875 -9.921875 7.125 -8.296875 7.125 -5.1875 Z M 5.78125 -6.65625 C 5.78125 -7.953125 4.90625 -8.84375 3.765625 -8.84375 C 2.625 -8.84375 1.796875 -8 1.796875 -6.734375 C 1.796875 -5.40625 2.53125 -4.640625 3.71875 -4.640625 C 4.921875 -4.640625 5.78125 -5.453125 5.78125 -6.65625 Z M 5.78125 -6.65625 "/>
</g>
<g id="glyph-0-6-29633227">
<path d="M 4.859375 0 C 4.859375 0 3.625 0 3.625 0 C 3.625 0 3.625 -7.0625 3.625 -7.0625 C 3.625 -7.0625 1.421875 -7.0625 1.421875 -7.0625 C 1.421875 -7.0625 1.421875 -7.953125 1.421875 -7.953125 C 3.328125 -8.1875 3.609375 -8.40625 4.046875 -9.921875 C 4.046875 -9.921875 4.859375 -9.921875 4.859375 -9.921875 C 4.859375 -9.921875 4.859375 0 4.859375 0 Z M 4.859375 0 "/>
</g>
<g id="glyph-0-7-29633227">
<path d="M 7.15625 -7.015625 C 7.15625 -5.796875 6.4375 -4.765625 5.046875 -4.015625 C 5.046875 -4.015625 3.65625 -3.265625 3.65625 -3.265625 C 2.4375 -2.546875 1.984375 -2.03125 1.859375 -1.21875 C 1.859375 -1.21875 7.078125 -1.21875 7.078125 -1.21875 C 7.078125 -1.21875 7.078125 0 7.078125 0 C 7.078125 0 0.46875 0 0.46875 0 C 0.59375 -2.1875 1.1875 -3.125 3.265625 -4.296875 C 3.265625 -4.296875 4.546875 -5.03125 4.546875 -5.03125 C 5.4375 -5.53125 5.890625 -6.203125 5.890625 -6.984375 C 5.890625 -8.046875 5.046875 -8.84375 3.9375 -8.84375 C 2.71875 -8.84375 2.03125 -8.140625 1.9375 -6.484375 C 1.9375 -6.484375 0.703125 -6.484375 0.703125 -6.484375 C 0.765625 -8.890625 1.953125 -9.921875 3.96875 -9.921875 C 5.859375 -9.921875 7.15625 -8.6875 7.15625 -7.015625 Z M 7.15625 -7.015625 "/>
</g>
</g>
</defs>
<rect x="-120" y="-80" width="1440" height="960" fill="rgb(100%, 100%, 100%)" fill-opacity="1"/>
<path fill-rule="nonzero" fill="rgb(100%, 100%, 100%)" fill-opacity="1" d="M 33 761 L 1184 761 L 1184 16 L 33 16 Z M 33 761 "/>
<path fill="none" stroke-width="1" stroke-linecap="butt" stroke-linejoin="miter" stroke="rgb(0%, 0%, 0%)" stroke-opacity="0.12" stroke-miterlimit="1.154701" d="M 224.832031 761 L 224.832031 16 "/>
<path fill="none" stroke-width="1" stroke-linecap="butt" stroke-linejoin="miter" stroke="rgb(0%, 0%, 0%)" stroke-opacity="0.12" stroke-miterlimit="1.154701" d="M 434.105469 761 L 434.105469 16 "/>
<path fill="none" stroke-width="1" stroke-linecap="butt" stroke-linejoin="miter" stroke="rgb(0%, 0%, 0%)" stroke-opacity="0.12" stroke-miterlimit="1.154701" d="M 643.378906 761 L 643.378906 16 "/>
<path fill="none" stroke-width="1" stroke-linecap="butt" stroke-linejoin="miter" stroke="rgb(0%, 0%, 0%)" stroke-opacity="0.12" stroke-miterlimit="1.154701" d="M 852.652344 761 L 852.652344 16 "/>
<path fill="none" stroke-width="1" stroke-linecap="butt" stroke-linejoin="miter" stroke="rgb(0%, 0%, 0%)" stroke-opacity="0.12" stroke-miterlimit="1.154701" d="M 1061.925781 761 L 1061.925781 16 "/>
<path fill="none" stroke-width="1" stroke-linecap="butt" stroke-linejoin="miter" stroke="rgb(0%, 0%, 0%)" stroke-opacity="0.12" stroke-miterlimit="1.154701" d="M 33 565.453125 L 1184 565.453125 "/>
<path fill="none" stroke-width="1" stroke-linecap="butt" stroke-linejoin="miter" stroke="rgb(0%, 0%, 0%)" stroke-opacity="0.12" stroke-miterlimit="1.154701" d="M 33 346.097656 L 1184 346.097656 "/>
<path fill="none" stroke-width="1" stroke-linecap="butt" stroke-linejoin="miter" stroke="rgb(0%, 0%, 0%)" stroke-opacity="0.12" stroke-miterlimit="1.154701" d="M 33 126.738281 L 1184 126.738281 "/>
<g fill="rgb(0%, 0%, 0%)" fill-opacity="1">
<use xlink:href="#glyph-0-0-29633227" x="211.015334" y="782.258001"/>
</g>
<g fill="rgb(0%, 0%, 0%)" fill-opacity="1">
<use xlink:href="#glyph-0-1-29633227" x="219.191333" y="782.258001"/>
</g>
<g fill="rgb(0%, 0%, 0%)" fill-opacity="1">
<use xlink:href="#glyph-0-2-29633227" x="226.975333" y="782.258001"/>
</g>
<g fill="rgb(0%, 0%, 0%)" fill-opacity="1">
<use xlink:href="#glyph-0-3-29633227" x="230.867333" y="782.258001"/>
</g>
<g fill="rgb(0%, 0%, 0%)" fill-opacity="1">
<use xlink:href="#glyph-0-1-29633227" x="424.376059" y="782.258001"/>
</g>
<g fill="rgb(0%, 0%, 0%)" fill-opacity="1">
<use xlink:href="#glyph-0-2-29633227" x="432.160059" y="782.258001"/>
</g>
<g fill="rgb(0%, 0%, 0%)" fill-opacity="1">
<use xlink:href="#glyph-0-1-29633227" x="436.052059" y="782.258001"/>
</g>
<g fill="rgb(0%, 0%, 0%)" fill-opacity="1">
<use xlink:href="#glyph-0-1-29633227" x="633.6488" y="782.258001"/>
</g>
<g fill="rgb(0%, 0%, 0%)" fill-opacity="1">
<use xlink:href="#glyph-0-2-29633227" x="641.4328" y="782.258001"/>
</g>
<g fill="rgb(0%, 0%, 0%)" fill-opacity="1">
<use xlink:href="#glyph-0-3-29633227" x="645.3248" y="782.258001"/>
</g>
<g fill="rgb(0%, 0%, 0%)" fill-opacity="1">
<use xlink:href="#glyph-0-1-29633227" x="842.92151" y="782.258001"/>
</g>
<g fill="rgb(0%, 0%, 0%)" fill-opacity="1">
<use xlink:href="#glyph-0-2-29633227" x="850.70551" y="782.258001"/>
</g>
<g fill="rgb(0%, 0%, 0%)" fill-opacity="1">
<use xlink:href="#glyph-0-4-29633227" x="854.59751" y="782.258001"/>
</g>
<g fill="rgb(0%, 0%, 0%)" fill-opacity="1">
<use xlink:href="#glyph-0-1-29633227" x="1052.19422" y="782.258001"/>
</g>
<g fill="rgb(0%, 0%, 0%)" fill-opacity="1">
<use xlink:href="#glyph-0-2-29633227" x="1059.97822" y="782.258001"/>
</g>
<g fill="rgb(0%, 0%, 0%)" fill-opacity="1">
<use xlink:href="#glyph-0-5-29633227" x="1063.87022" y="782.258001"/>
</g>
<g fill="rgb(0%, 0%, 0%)" fill-opacity="1">
<use xlink:href="#glyph-0-1-29633227" x="15.216" y="570.557549"/>
</g>
<g fill="rgb(0%, 0%, 0%)" fill-opacity="1">
<use xlink:href="#glyph-0-6-29633227" x="15.216" y="351.199629"/>
</g>
<g fill="rgb(0%, 0%, 0%)" fill-opacity="1">
<use xlink:href="#glyph-0-7-29633227" x="15.216" y="131.841663"/>
</g>
<path fill="none" stroke-width="3" stroke-linecap="butt" stroke-linejoin="miter" stroke="rgb(0%, 44.705883%, 69.803923%)" stroke-opacity="1" stroke-miterlimit="2" d="M 85.316406 626.925781 L 86.714844 629.703125 L 88.109375 630.699219 L 89.503906 628.214844 L 90.898438 630.8125 L 92.292969 630.78125 L 93.6875 631.839844 L 95.085938 632.234375 L 96.480469 635.695312 L 97.875 637.332031 L 99.269531 637.582031 L 100.664062 640.203125 L 102.058594 639.132812 L 103.457031 642.628906 L 104.851562 648.640625 L 106.246094 643.183594 L 107.640625 641.390625 L 109.035156 637.5 L 110.429688 632.964844 L 111.824219 634.914062 L 113.222656 640.503906 L 114.617188 643.863281 L 116.011719 645.097656 L 117.40625 647.675781 L 118.800781 648.660156 L 120.195312 649.148438 L 121.59375 656.175781 L 122.988281 658.976562 L 124.382812 658.835938 L 125.777344 655.835938 L 127.171875 660.015625 L 128.566406 664.472656 L 129.964844 661.148438 L 131.359375 663.277344 L 132.753906 663.460938 L 134.148438 667.847656 L 135.542969 664.917969 L 136.9375 663.933594 L 138.332031 666.867188 L 139.730469 671.550781 L 141.125 669.886719 L 142.519531 665.816406 L 143.914062 663.640625 L 145.308594 660.960938 L 146.703125 657.785156 L 148.101562 655.914062 L 149.496094 650.421875 L 150.890625 648.253906 L 152.285156 648.09375 L 153.679688 652.027344 L 155.074219 652.421875 L 156.472656 654.679688 L 157.867188 661.378906 L 159.261719 663.394531 L 160.65625 662.480469 L 162.050781 659.71875 L 163.445312 660.949219 L 164.84375 653.488281 L 166.238281 647.824219 L 167.632812 643.636719 L 169.027344 636.726562 L 170.421875 636.691406 L 171.816406 630.339844 L 173.210938 629.882812 L 174.609375 627.503906 L 176.003906 628.675781 L 177.398438 630.925781 L 178.792969 628.78125 L 180.1875 627.722656 L 181.582031 627.523438 L 182.980469 629.121094 L 184.375 624.78125 L 185.769531 618.871094 L 187.164062 620.140625 L 188.558594 621.828125 L 189.953125 627.058594 L 191.351562 633.667969 L 192.746094 636.660156 L 194.140625 642.226562 L 195.535156 642.285156 L 196.929688 640.832031 L 198.324219 637.566406 L 199.71875 633.78125 L 201.117188 633.410156 L 202.511719 636.550781 L 203.90625 637.824219 L 205.300781 637.882812 L 206.695312 641.222656 L 208.089844 644.148438 L 209.488281 641.269531 L 210.882812 634.066406 L 212.277344 629.964844 L 213.671875 630.855469 L 215.066406 631.960938 L 216.460938 637.253906 L 217.859375 639.773438 L 219.253906 636.03125 L 220.648438 629.546875 L 222.042969 622.316406 L 223.4375 621.664062 L 224.832031 619.863281 L 226.226562 624.429688 L 227.625 623.273438 L 229.019531 625.515625 L 230.414062 629.402344 L 231.808594 624.742188 L 233.203125 626.136719 L 234.597656 622.648438 L 235.996094 623.449219 L 237.390625 624.089844 L 238.785156 632.410156 L 240.179688 635.765625 L 241.574219 633.136719 L 242.96875 635.722656 L 244.367188 636.292969 L 245.761719 631.714844 L 247.15625 621.183594 L 248.550781 618.820312 L 249.945312 624.8125 L 251.339844 630.640625 L 252.738281 629.066406 L 254.132812 624.265625 L 255.527344 617.417969 L 256.921875 618.601562 L 258.316406 624.140625 L 259.710938 622.816406 L 261.105469 624.054688 L 262.503906 632.667969 L 263.898438 634.363281 L 265.292969 633.515625 L 266.6875 629.492188 L 268.082031 634.472656 L 269.476562 636.640625 L 270.875 639.601562 L 272.269531 640.9375 L 273.664062 640.710938 L 275.058594 642.96875 L 276.453125 641.367188 L 277.847656 642.714844 L 279.246094 643.601562 L 280.640625 641.125 L 282.035156 637.8125 L 283.429688 641.609375 L 284.824219 644.527344 L 286.21875 643.78125 L 287.613281 642.644531 L 289.011719 629.597656 L 290.40625 625.613281 L 291.800781 624.890625 L 293.195312 622.742188 L 294.589844 621.886719 L 295.984375 621.644531 L 297.382812 623.914062 L 298.777344 621.710938 L 300.171875 631.535156 L 301.566406 632.695312 L 302.960938 638.777344 L 304.355469 643.464844 L 305.753906 640.289062 L 307.148438 631.578125 L 308.542969 633.53125 L 309.9375 634.8125 L 311.332031 643.90625 L 312.726562 646.453125 L 314.121094 639.445312 L 315.519531 634.824219 L 316.914062 629.394531 L 318.308594 634.578125 L 319.703125 632.410156 L 321.097656 631.425781 L 322.492188 631.734375 L 323.890625 631.300781 L 325.285156 630.195312 L 326.679688 628.445312 L 328.074219 622.5 L 329.46875 617.527344 L 330.863281 611.003906 L 332.261719 607.882812 L 333.65625 609.261719 L 335.050781 613.53125 L 336.445312 612.097656 L 337.839844 616.714844 L 339.234375 614.386719 L 340.632812 609.066406 L 342.027344 608.132812 L 343.421875 616.382812 L 344.816406 621.105469 L 346.210938 624.4375 L 347.605469 624.484375 L 349 629.523438 L 350.398438 636.785156 L 351.792969 637.183594 L 353.1875 634.707031 L 354.582031 627.523438 L 355.976562 624.484375 L 357.371094 627.175781 L 358.769531 635.277344 L 360.164062 640.402344 L 361.558594 639.375 L 362.953125 631.53125 L 364.347656 621.109375 L 365.742188 621.042969 L 367.140625 626.367188 L 368.535156 632.789062 L 369.929688 633.480469 L 371.324219 635.953125 L 372.71875 632.625 L 374.113281 630.574219 L 375.507812 630.320312 L 376.90625 628.40625 L 378.300781 627.933594 L 379.695312 631.144531 L 381.089844 636.011719 L 382.484375 638.890625 L 383.878906 639.183594 L 385.277344 637.632812 L 386.671875 638.519531 L 388.066406 637.527344 L 389.460938 634.902344 L 390.855469 632.257812 L 392.25 632.777344 L 393.648438 635.125 L 395.042969 635.472656 L 396.4375 634.585938 L 397.832031 631.21875 L 399.226562 631.292969 L 400.621094 634.597656 L 402.015625 638.738281 L 403.414062 641.542969 L 404.808594 640.894531 L 406.203125 635.007812 L 407.597656 624.652344 L 408.992188 627.308594 L 410.386719 629.828125 L 411.785156 627.683594 L 413.179688 628.824219 L 414.574219 633.011719 L 415.96875 635.40625 L 417.363281 640.53125 L 418.757812 637.15625 L 420.15625 631.90625 L 421.550781 628.289062 L 422.945312 621.308594 L 424.339844 623.085938 L 425.734375 615.082031 L 427.128906 620.675781 L 428.527344 617.65625 L 429.921875 612.199219 L 431.316406 610.542969 L 432.710938 600.691406 L 434.105469 591.242188 L 435.5 587.550781 L 436.894531 582.957031 L 438.292969 587.660156 L 439.6875 589.539062 L 441.082031 598.160156 L 442.476562 602.851562 L 443.871094 614.542969 L 445.265625 618.402344 L 446.664062 619.085938 L 448.058594 620.828125 L 449.453125 619.253906 L 450.847656 618.671875 L 452.242188 619.277344 L 453.636719 618.625 L 455.035156 618.214844 L 456.429688 616.902344 L 457.824219 615.457031 L 459.21875 612.730469 L 460.613281 611.046875 L 462.007812 609.839844 L 463.402344 600.132812 L 464.800781 587.15625 L 466.195312 574.480469 L 467.589844 570.65625 L 468.984375 565.925781 L 470.378906 559.640625 L 471.773438 552.605469 L 473.171875 546.726562 L 474.566406 545.417969 L 475.960938 539.964844 L 477.355469 539.789062 L 478.75 542.929688 L 480.144531 550.796875 L 481.542969 559.570312 L 482.9375 568.761719 L 484.332031 581.144531 L 485.726562 588.855469 L 487.121094 593.417969 L 488.515625 595.355469 L 489.914062 593.800781 L 491.308594 591.277344 L 492.703125 589.640625 L 494.097656 583.347656 L 495.492188 581.351562 L 496.886719 577.523438 L 498.28125 576.050781 L 499.679688 574.023438 L 501.074219 570.894531 L 502.46875 561.109375 L 503.863281 548.058594 L 505.257812 544.191406 L 506.652344 542.367188 L 508.050781 536.992188 L 509.445312 526.828125 L 510.839844 519.046875 L 512.234375 513.378906 L 513.628906 507.109375 L 515.023438 500.519531 L 516.421875 493.789062 L 517.816406 488.585938 L 519.210938 484.910156 L 520.605469 476.816406 L 522 465.621094 L 523.394531 452.21875 L 524.789062 448.683594 L 526.1875 449.09375 L 527.582031 448.050781 L 528.976562 446.660156 L 530.371094 435.886719 L 531.765625 434.855469 L 533.160156 433.84375 L 534.558594 427.109375 L 535.953125 424.230469 L 537.347656 415.488281 L 538.742188 409.417969 L 540.136719 400.804688 L 541.53125 389.980469 L 542.929688 378.933594 L 544.324219 368.0625 L 545.71875 357.972656 L 547.113281 345.570312 L 548.507812 326.65625 L 549.902344 308.691406 L 551.296875 290.691406 L 552.695312 274.652344 L 554.089844 257.179688 L 555.484375 242.394531 L 556.878906 231.320312 L 558.273438 221.304688 L 559.667969 204.53125 L 561.066406 192.410156 L 562.460938 178.339844 L 563.855469 170.59375 L 565.25 174.640625 L 566.644531 164.835938 L 568.039062 154.855469 L 569.4375 153.132812 L 570.832031 156.984375 L 572.226562 158.273438 L 573.621094 149.480469 L 575.015625 149.097656 L 576.410156 154.441406 L 577.804688 153.375 L 579.203125 159.960938 L 580.597656 161.625 L 581.992188 162.242188 L 583.386719 167.0625 L 584.78125 173.660156 L 586.175781 175.332031 L 587.574219 179.730469 L 588.96875 180.457031 L 590.363281 176.648438 L 591.757812 175.753906 L 593.152344 175.679688 L 594.546875 175.585938 L 595.945312 178.671875 L 597.339844 185.382812 L 598.734375 193.421875 L 600.128906 194.261719 L 601.523438 191.015625 L 602.917969 195.867188 L 604.316406 206.335938 L 605.710938 213.765625 L 607.105469 220.207031 L 608.5 223.199219 L 609.894531 222.578125 L 611.289062 229.109375 L 612.683594 234.523438 L 614.082031 237.246094 L 615.476562 243.105469 L 616.871094 248 L 618.265625 254.601562 L 619.660156 263.621094 L 621.054688 267.988281 L 622.453125 268.058594 L 623.847656 268.960938 L 625.242188 270.171875 L 626.636719 272.964844 L 628.03125 272.15625 L 629.425781 272.460938 L 630.824219 280.148438 L 632.21875 285.601562 L 633.613281 295.890625 L 635.007812 300.289062 L 636.402344 302.316406 L 637.796875 307.570312 L 639.191406 312.308594 L 640.589844 314.414062 L 641.984375 324.644531 L 643.378906 335.339844 L 644.773438 338.058594 L 646.167969 340.792969 L 647.5625 342.042969 L 648.960938 346.6875 L 650.355469 346.097656 L 651.75 347.667969 L 653.144531 355.394531 L 654.539062 359.296875 L 655.933594 364.15625 L 657.332031 368.121094 L 658.726562 360.78125 L 660.121094 357.828125 L 661.515625 358.078125 L 662.910156 358.988281 L 664.304688 360.980469 L 665.703125 357.53125 L 667.097656 356.9375 L 668.492188 360.933594 L 669.886719 362.796875 L 671.28125 363.292969 L 672.675781 365.472656 L 674.070312 368.121094 L 675.46875 372.101562 L 676.863281 381.203125 L 678.257812 390.011719 L 679.652344 397.277344 L 681.046875 402.78125 L 682.441406 403.390625 L 683.839844 408.070312 L 685.234375 401.796875 L 686.628906 401.097656 L 688.023438 406.359375 L 689.417969 404.351562 L 690.8125 408.007812 L 692.210938 412.933594 L 693.605469 413.660156 L 695 416.351562 L 696.394531 413.960938 L 697.789062 411.890625 L 699.183594 406.488281 L 700.578125 407.640625 L 701.976562 403.496094 L 703.371094 406.277344 L 704.765625 409.191406 L 706.160156 404.121094 L 707.554688 408.585938 L 708.949219 410.351562 L 710.347656 414.535156 L 711.742188 419.09375 L 713.136719 413.605469 L 714.53125 414.625 L 715.925781 410.101562 L 717.320312 417.605469 L 718.71875 427.46875 L 720.113281 426.273438 L 721.507812 425.609375 L 722.902344 419.210938 L 724.296875 416.214844 L 725.691406 408.71875 L 727.085938 407.726562 L 728.484375 401.191406 L 729.878906 402.710938 L 731.273438 407.515625 L 732.667969 411.101562 L 734.0625 408.945312 L 735.457031 404.722656 L 736.855469 406.988281 L 738.25 406.730469 L 739.644531 406.746094 L 741.039062 411.847656 L 742.433594 410.664062 L 743.828125 418.332031 L 745.226562 425.316406 L 746.621094 430.460938 L 748.015625 434.863281 L 749.410156 440.910156 L 750.804688 445.273438 L 752.199219 447.925781 L 753.59375 443.289062 L 754.992188 437.457031 L 756.386719 434.105469 L 757.78125 436.675781 L 759.175781 439.523438 L 760.570312 438.046875 L 761.964844 436.3125 L 763.363281 437.578125 L 764.757812 439.054688 L 766.152344 442.613281 L 767.546875 441.132812 L 768.941406 438.726562 L 770.335938 439.496094 L 771.734375 435.707031 L 773.128906 433.574219 L 774.523438 436.171875 L 775.917969 441.570312 L 777.3125 443.960938 L 778.707031 449.683594 L 780.105469 452.9375 L 781.5 454.882812 L 782.894531 460.703125 L 784.289062 457.734375 L 785.683594 457.007812 L 787.078125 455.101562 L 788.472656 457.050781 L 789.871094 458.664062 L 791.265625 459.609375 L 792.660156 458.515625 L 794.054688 457.308594 L 795.449219 459.761719 L 796.84375 463.007812 L 798.242188 466.761719 L 799.636719 464.851562 L 801.03125 463.972656 L 802.425781 466.835938 L 803.820312 471.015625 L 805.214844 476.320312 L 806.613281 478.023438 L 808.007812 486.417969 L 809.402344 484.011719 L 810.796875 491.488281 L 812.191406 494.292969 L 813.585938 497.320312 L 814.984375 504.664062 L 816.378906 506.550781 L 817.773438 509.847656 L 819.167969 507.683594 L 820.5625 513.460938 L 821.957031 516.324219 L 823.351562 519.507812 L 824.75 517.21875 L 826.144531 526.851562 L 827.539062 534.816406 L 828.933594 529.992188 L 830.328125 533.800781 L 831.722656 534.714844 L 833.121094 539.886719 L 834.515625 538.855469 L 835.910156 542.886719 L 837.304688 539.253906 L 838.699219 536.769531 L 840.09375 537.773438 L 841.492188 538.882812 L 842.886719 542.347656 L 844.28125 544.367188 L 845.675781 543.480469 L 847.070312 550.785156 L 848.464844 554.984375 L 849.859375 555.746094 L 851.257812 555.578125 L 852.652344 558.933594 L 854.046875 560.039062 L 855.441406 560.820312 L 856.835938 559.714844 L 858.230469 560.148438 L 859.628906 560.816406 L 861.023438 569.289062 L 862.417969 574.609375 L 863.8125 579.984375 L 865.207031 582.722656 L 866.601562 584.816406 L 868 583.816406 L 869.394531 580.59375 L 870.789062 586.691406 L 872.183594 583.835938 L 873.578125 582.152344 L 874.972656 584.597656 L 876.367188 587.074219 L 877.765625 591.144531 L 879.160156 586.023438 L 880.554688 583.945312 L 881.949219 584.535156 L 883.34375 587.617188 L 884.738281 588.585938 L 886.136719 596.921875 L 887.53125 606.914062 L 888.925781 612.710938 L 890.320312 624.125 L 891.714844 617.332031 L 893.109375 612.945312 L 894.507812 607.59375 L 895.902344 610.59375 L 897.296875 612.855469 L 898.691406 609.425781 L 900.085938 604.148438 L 901.480469 599.59375 L 902.875 607.109375 L 904.273438 611.679688 L 905.667969 606.710938 L 907.0625 603.761719 L 908.457031 607.277344 L 909.851562 604.671875 L 911.246094 604.097656 L 912.644531 601.75 L 914.039062 596.242188 L 915.433594 596.511719 L 916.828125 596.984375 L 918.222656 595.398438 L 919.617188 593.648438 L 921.015625 592.152344 L 922.410156 588.097656 L 923.804688 585.335938 L 925.199219 588.648438 L 926.59375 591.535156 L 927.988281 590.433594 L 929.382812 591.511719 L 930.78125 601.015625 L 932.175781 603.441406 L 933.570312 605.421875 L 934.964844 606.332031 L 936.359375 603.652344 L 937.753906 605.820312 L 939.152344 603.367188 L 940.546875 604.601562 L 941.941406 610.113281 L 943.335938 610.742188 L 944.730469 614.234375 L 946.125 614.195312 L 947.523438 608.605469 L 948.917969 608.359375 L 950.3125 605.910156 L 951.707031 606.457031 L 953.101562 605.484375 L 954.496094 607.804688 L 955.894531 603.96875 L 957.289062 611.070312 L 958.683594 609 L 960.078125 609.035156 L 961.472656 609.703125 L 962.867188 613.289062 L 964.261719 614.757812 L 965.660156 615.175781 L 967.054688 611.414062 L 968.449219 614.449219 L 969.84375 609.164062 L 971.238281 604.003906 L 972.632812 603.71875 L 974.03125 605.75 L 975.425781 612.054688 L 976.820312 621.335938 L 978.214844 626.3125 L 979.609375 624.847656 L 981.003906 621.746094 L 982.402344 621.589844 L 983.796875 622.785156 L 985.191406 626.085938 L 986.585938 627.425781 L 987.980469 625.382812 L 989.375 623.003906 L 990.773438 623.496094 L 992.167969 623.972656 L 993.5625 624.898438 L 994.957031 622.714844 L 996.351562 615.34375 L 997.746094 614.402344 L 999.140625 612.835938 L 1000.539062 617.859375 L 1001.933594 610.574219 L 1003.328125 613.484375 L 1004.722656 618.460938 L 1006.117188 623.964844 L 1007.511719 628.132812 L 1008.910156 630.703125 L 1010.304688 635.367188 L 1011.699219 635.851562 L 1013.09375 641.71875 L 1014.488281 642.929688 L 1015.882812 647.726562 L 1017.28125 652.238281 L 1018.675781 651.804688 L 1020.070312 654.292969 L 1021.464844 657.554688 L 1022.859375 651.679688 L 1024.253906 648.597656 L 1025.648438 641.132812 L 1027.046875 640.613281 L 1028.441406 644.058594 L 1029.835938 644.457031 L 1031.230469 637.789062 L 1032.625 633.691406 L 1034.019531 635.300781 L 1035.417969 640.160156 L 1036.8125 648.628906 L 1038.207031 654.425781 L 1039.601562 654.117188 L 1040.996094 655.171875 L 1042.390625 658.011719 L 1043.789062 658.375 L 1045.183594 658.316406 L 1046.578125 660.679688 L 1047.972656 663.03125 L 1049.367188 663.132812 L 1050.761719 663.710938 L 1052.15625 668.324219 L 1053.554688 665.402344 L 1054.949219 657 L 1056.34375 649.230469 L 1057.738281 645.140625 L 1059.132812 640.945312 L 1060.527344 637.195312 L 1061.925781 636.253906 L 1063.320312 631.753906 L 1064.714844 638.023438 L 1066.109375 640.792969 L 1067.503906 634.15625 L 1068.898438 632.4375 L 1070.296875 628.265625 L 1071.691406 624.453125 L 1073.085938 627.566406 L 1074.480469 623.257812 L 1075.875 620.859375 L 1077.269531 623.308594 L 1078.664062 627.863281 L 1080.0625 629.816406 L 1081.457031 636.421875 L 1082.851562 638.671875 L 1084.246094 641.816406 L 1085.640625 644.152344 L 1087.035156 650.339844 L 1088.433594 650.988281 L 1089.828125 644.03125 L 1091.222656 636.359375 L 1092.617188 633.601562 L 1094.011719 631.941406 L 1095.40625 631.992188 L 1096.804688 631.683594 L 1098.199219 629.910156 L 1099.59375 626.921875 L 1100.988281 627.363281 L 1102.382812 624.785156 L 1103.777344 622.914062 L 1105.175781 624.652344 L 1106.570312 627.425781 L 1107.964844 630.691406 L 1109.359375 631.316406 L 1110.753906 633.335938 L 1112.148438 633.035156 L 1113.542969 625.070312 L 1114.941406 625.027344 L 1116.335938 631.554688 L 1117.730469 634.355469 L 1119.125 635.355469 L 1120.519531 635.691406 L 1121.914062 637.453125 L 1123.3125 626.402344 L 1124.707031 613.777344 L 1126.101562 607.632812 L 1127.496094 612.273438 L 1128.890625 613.082031 L 1130.285156 613.261719 L 1131.683594 611.78125 "/>
<path fill="none" stroke-width="3" stroke-linecap="butt" stroke-linejoin="miter" stroke="rgb(90.196079%, 62.352943%, 0%)" stroke-opacity="1" stroke-miterlimit="2" d="M 85.316406 668.890625 L 86.714844 667.722656 L 88.109375 664.796875 L 89.503906 670.722656 L 90.898438 676.886719 L 92.292969 676.636719 L 93.6875 675.125 L 95.085938 677.476562 L 96.480469 674.398438 L 97.875 674.574219 L 99.269531 670.398438 L 100.664062 669.867188 L 102.058594 670.894531 L 103.457031 675.265625 L 104.851562 675.09375 L 106.246094 673.148438 L 107.640625 672.253906 L 109.035156 672.707031 L 110.429688 672.796875 L 111.824219 671.625 L 113.222656 667.488281 L 114.617188 663.410156 L 116.011719 661.605469 L 117.40625 662.695312 L 118.800781 663.164062 L 120.195312 663.5 L 121.59375 663.292969 L 122.988281 664.371094 L 124.382812 668.253906 L 125.777344 671.054688 L 127.171875 675.566406 L 128.566406 677.09375 L 129.964844 675.753906 L 131.359375 682.144531 L 132.753906 682.554688 L 134.148438 680.800781 L 135.542969 679.140625 L 136.9375 681.683594 L 138.332031 683.863281 L 139.730469 684.335938 L 141.125 679.515625 L 142.519531 676.375 L 143.914062 670.746094 L 145.308594 674.933594 L 146.703125 674.3125 L 148.101562 672.269531 L 149.496094 669.636719 L 150.890625 670.015625 L 152.285156 669.007812 L 153.679688 666.972656 L 155.074219 666.621094 L 156.472656 665.742188 L 157.867188 663.308594 L 159.261719 666.179688 L 160.65625 671.898438 L 162.050781 676.082031 L 163.445312 677.371094 L 164.84375 674.304688 L 166.238281 668.6875 L 167.632812 670.050781 L 169.027344 670.949219 L 170.421875 673.578125 L 171.816406 671.242188 L 173.210938 670.679688 L 174.609375 672.433594 L 176.003906 672.164062 L 177.398438 670.273438 L 178.792969 669.90625 L 180.1875 671.191406 L 181.582031 669.4375 L 182.980469 668.902344 L 184.375 668.179688 L 185.769531 670.175781 L 187.164062 667.519531 L 188.558594 666.941406 L 189.953125 666.3125 L 191.351562 669.21875 L 192.746094 674.167969 L 194.140625 673.507812 L 195.535156 679.695312 L 196.929688 680.203125 L 198.324219 682.699219 L 199.71875 683.988281 L 201.117188 683.566406 L 202.511719 684.8125 L 203.90625 686.296875 L 205.300781 686.242188 L 206.695312 685.570312 L 208.089844 688.925781 L 209.488281 689.441406 L 210.882812 688.332031 L 212.277344 686.789062 L 213.671875 688.855469 L 215.066406 688.496094 L 216.460938 686.015625 L 217.859375 683.542969 L 219.253906 683.945312 L 220.648438 682.894531 L 222.042969 686.964844 L 223.4375 686.257812 L 224.832031 684.339844 L 226.226562 685.019531 L 227.625 683.128906 L 229.019531 681.316406 L 230.414062 680.429688 L 231.808594 680.304688 L 233.203125 679.226562 L 234.597656 678.394531 L 235.996094 680.242188 L 237.390625 678.632812 L 238.785156 682.421875 L 240.179688 686.550781 L 241.574219 689.210938 L 242.96875 690.738281 L 244.367188 689.90625 L 245.761719 684.210938 L 247.15625 682.945312 L 248.550781 677.316406 L 249.945312 676.769531 L 251.339844 674.472656 L 252.738281 673.644531 L 254.132812 675.03125 L 255.527344 676.511719 L 256.921875 681.902344 L 258.316406 681.953125 L 259.710938 685.695312 L 261.105469 690.34375 L 262.503906 691.710938 L 263.898438 690.644531 L 265.292969 682.601562 L 266.6875 682.285156 L 268.082031 686.804688 L 269.476562 688.679688 L 270.875 693.285156 L 272.269531 694.605469 L 273.664062 693.226562 L 275.058594 689.917969 L 276.453125 696.046875 L 277.847656 697.207031 L 279.246094 698.683594 L 280.640625 697.453125 L 282.035156 689.535156 L 283.429688 684.90625 L 284.824219 686.5625 L 286.21875 693.378906 L 287.613281 697.128906 L 289.011719 698.328125 L 290.40625 698.65625 L 291.800781 698.246094 L 293.195312 695.589844 L 294.589844 692.835938 L 295.984375 693.949219 L 297.382812 690.460938 L 298.777344 686.5 L 300.171875 688.523438 L 301.566406 685.445312 L 302.960938 687.507812 L 304.355469 690.167969 L 305.753906 690.222656 L 307.148438 691.113281 L 308.542969 691.164062 L 309.9375 692.816406 L 311.332031 698.859375 L 312.726562 706.542969 L 314.121094 705.164062 L 315.519531 706.363281 L 316.914062 708.632812 L 318.308594 708.898438 L 319.703125 711.082031 L 321.097656 711.441406 L 322.492188 711.886719 L 323.890625 711.328125 L 325.285156 712.195312 L 326.679688 712.3125 L 328.074219 710.839844 L 329.46875 708.109375 L 330.863281 707.042969 L 332.261719 711.875 L 333.65625 715.234375 L 335.050781 714.117188 L 336.445312 717.660156 L 337.839844 715.351562 L 339.234375 715.859375 L 340.632812 715.453125 L 342.027344 719.964844 L 343.421875 719.675781 L 344.816406 721.464844 L 346.210938 719.238281 L 347.605469 720.960938 L 349 725.988281 L 350.398438 727.136719 L 351.792969 726.226562 L 353.1875 721.164062 L 354.582031 717.257812 L 355.976562 715.925781 L 357.371094 717.945312 L 358.769531 724.152344 L 360.164062 724.019531 L 361.558594 717.910156 L 362.953125 712.105469 L 364.347656 709.152344 L 365.742188 714.75 L 367.140625 712.238281 L 368.535156 711.507812 L 369.929688 717.3125 L 371.324219 712.21875 L 372.71875 713.402344 L 374.113281 714.503906 L 375.507812 709.265625 L 376.90625 709.078125 L 378.300781 712.554688 L 379.695312 709.117188 L 381.089844 709.707031 L 382.484375 709.859375 L 383.878906 709.65625 L 385.277344 703.957031 L 386.671875 697.753906 L 388.066406 701.195312 L 389.460938 705.621094 L 390.855469 705.957031 L 392.25 706.84375 L 393.648438 702.976562 L 395.042969 706.144531 L 396.4375 702.574219 L 397.832031 703.238281 L 399.226562 701.390625 L 400.621094 703.78125 L 402.015625 706.6875 L 403.414062 707.730469 L 404.808594 704.988281 L 406.203125 699.472656 L 407.597656 696.917969 L 408.992188 699.296875 L 410.386719 696.667969 L 411.785156 695.601562 L 413.179688 692.589844 L 414.574219 695.445312 L 415.96875 692.714844 L 417.363281 685.980469 L 418.757812 676.945312 L 420.15625 668.351562 L 421.550781 665.515625 L 422.945312 663.632812 L 424.339844 664.84375 L 425.734375 666.019531 L 427.128906 670.523438 L 428.527344 671.84375 L 429.921875 672.976562 L 431.316406 670.984375 L 432.710938 665.433594 L 434.105469 659.015625 L 435.5 651.851562 L 436.894531 648.105469 L 438.292969 643.023438 L 439.6875 642.117188 L 441.082031 644.214844 L 442.476562 650.246094 L 443.871094 660.0625 L 445.265625 663.914062 L 446.664062 669.910156 L 448.058594 665.796875 L 449.453125 667.160156 L 450.847656 666.210938 L 452.242188 660.707031 L 453.636719 657.390625 L 455.035156 657.992188 L 456.429688 662.203125 L 457.824219 659.351562 L 459.21875 662.066406 L 460.613281 659.667969 L 462.007812 655.035156 L 463.402344 651.980469 L 464.800781 649.148438 L 466.195312 639.773438 L 467.589844 632.757812 L 468.984375 622.941406 L 470.378906 612.730469 L 471.773438 604.511719 L 473.171875 598.539062 L 474.566406 593.554688 L 475.960938 590.117188 L 477.355469 589.65625 L 478.75 593.976562 L 480.144531 600.726562 L 481.542969 614.511719 L 482.9375 621.972656 L 484.332031 632.75 L 485.726562 635.390625 L 487.121094 636.085938 L 488.515625 644.277344 L 489.914062 642.996094 L 491.308594 644.054688 L 492.703125 642.847656 L 494.097656 641.269531 L 495.492188 638.828125 L 496.886719 635 L 498.28125 630.324219 L 499.679688 626.492188 L 501.074219 619.871094 L 502.46875 617.25 L 503.863281 611.164062 L 505.257812 606.308594 L 506.652344 598.128906 L 508.050781 591.464844 L 509.445312 578.441406 L 510.839844 567.679688 L 512.234375 555.460938 L 513.628906 546.660156 L 515.023438 534.703125 L 516.421875 517.363281 L 517.816406 504.5 L 519.210938 496.550781 L 520.605469 482.878906 L 522 469.363281 L 523.394531 459.425781 L 524.789062 446.375 L 526.1875 438.328125 L 527.582031 427.160156 L 528.976562 418.667969 L 530.371094 408.660156 L 531.765625 397.101562 L 533.160156 389.753906 L 534.558594 380.882812 L 535.953125 369.324219 L 537.347656 361.609375 L 538.742188 355.054688 L 540.136719 345.308594 L 541.53125 336.375 L 542.929688 326.929688 L 544.324219 319.523438 L 545.71875 306 L 547.113281 291.546875 L 548.507812 272.4375 L 549.902344 251.996094 L 551.296875 234.164062 L 552.695312 214.34375 L 554.089844 201.570312 L 555.484375 183.285156 L 556.878906 166.15625 L 558.273438 143.824219 L 559.667969 130.765625 L 561.066406 116.789062 L 562.460938 106.390625 L 563.855469 92.234375 L 565.25 81.9375 L 566.644531 73.753906 L 568.039062 67.109375 L 569.4375 61.0625 L 570.832031 54.515625 L 572.226562 49.863281 L 573.621094 52.148438 L 575.015625 51.761719 L 576.410156 55.546875 L 577.804688 52.414062 L 579.203125 54.546875 L 580.597656 57.9375 L 581.992188 65.363281 L 583.386719 67.027344 L 584.78125 70.6875 L 586.175781 76.5 L 587.574219 81.984375 L 588.96875 81.367188 L 590.363281 80.210938 L 591.757812 81.1875 L 593.152344 87.761719 L 594.546875 95.527344 L 595.945312 102.691406 L 597.339844 108.179688 L 598.734375 118.949219 L 600.128906 126.726562 L 601.523438 131.261719 L 602.917969 136.144531 L 604.316406 144.21875 L 605.710938 155.621094 L 607.105469 165.550781 L 608.5 172.453125 L 609.894531 178.84375 L 611.289062 186.308594 L 612.683594 187.625 L 614.082031 196.09375 L 615.476562 198.554688 L 616.871094 203.695312 L 618.265625 210.472656 L 619.660156 211.6875 L 621.054688 218.71875 L 622.453125 224.082031 L 623.847656 230.0625 L 625.242188 231.359375 L 626.636719 236.894531 L 628.03125 239.199219 L 629.425781 245.726562 L 630.824219 252.371094 L 632.21875 255.03125 L 633.613281 257.363281 L 635.007812 261.8125 L 636.402344 263.761719 L 637.796875 267.757812 L 639.191406 272.296875 L 640.589844 279.417969 L 641.984375 281.269531 L 643.378906 279.996094 L 644.773438 284.105469 L 646.167969 286.644531 L 647.5625 289.277344 L 648.960938 289.738281 L 650.355469 287.992188 L 651.75 283.433594 L 653.144531 283.433594 L 654.539062 288.820312 L 655.933594 293.917969 L 657.332031 299.816406 L 658.726562 297.800781 L 660.121094 301.710938 L 661.515625 308.554688 L 662.910156 313.253906 L 664.304688 320.839844 L 665.703125 322.449219 L 667.097656 322.125 L 668.492188 324.84375 L 669.886719 327.785156 L 671.28125 329.699219 L 672.675781 326.429688 L 674.070312 328.671875 L 675.46875 327.949219 L 676.863281 330.917969 L 678.257812 329.21875 L 679.652344 333.605469 L 681.046875 335.15625 L 682.441406 336.878906 L 683.839844 339.304688 L 685.234375 336.257812 L 686.628906 338.355469 L 688.023438 341 L 689.417969 338.039062 L 690.8125 339.140625 L 692.210938 342.648438 L 693.605469 345.441406 L 695 350.519531 L 696.394531 355.179688 L 697.789062 352.386719 L 699.183594 352.890625 L 700.578125 352.542969 L 701.976562 356.203125 L 703.371094 357.875 L 704.765625 359.851562 L 706.160156 359.125 L 707.554688 358.257812 L 708.949219 357.511719 L 710.347656 356.847656 L 711.742188 358.613281 L 713.136719 354.414062 L 714.53125 347.742188 L 715.925781 343.949219 L 717.320312 343.003906 L 718.71875 341.902344 L 720.113281 342.105469 L 721.507812 342.386719 L 722.902344 343.023438 L 724.296875 341.257812 L 725.691406 340.542969 L 727.085938 337.460938 L 728.484375 338.527344 L 729.878906 339.628906 L 731.273438 343.359375 L 732.667969 339.273438 L 734.0625 339.511719 L 735.457031 343.109375 L 736.855469 351.484375 L 738.25 354.074219 L 739.644531 353.984375 L 741.039062 350.949219 L 742.433594 353.257812 L 743.828125 354.246094 L 745.226562 353.082031 L 746.621094 356.164062 L 748.015625 359.644531 L 749.410156 364.078125 L 750.804688 365.292969 L 752.199219 360.125 L 753.59375 358.769531 L 754.992188 362.109375 L 756.386719 365.113281 L 757.78125 363.035156 L 759.175781 365.128906 L 760.570312 366.976562 L 761.964844 368.421875 L 763.363281 366.941406 L 764.757812 365.882812 L 766.152344 365.707031 L 767.546875 369.210938 L 768.941406 374.628906 L 770.335938 378.3125 L 771.734375 384.515625 L 773.128906 386.152344 L 774.523438 386.738281 L 775.917969 392.046875 L 777.3125 396.769531 L 778.707031 401.910156 L 780.105469 403.464844 L 781.5 405.046875 L 782.894531 406.09375 L 784.289062 412.921875 L 785.683594 415.667969 L 787.078125 415.078125 L 788.472656 418.105469 L 789.871094 421.246094 L 791.265625 425.636719 L 792.660156 423.515625 L 794.054688 421.03125 L 795.449219 424.730469 L 796.84375 426.875 L 798.242188 429.421875 L 799.636719 432.367188 L 801.03125 439.121094 L 802.425781 443.65625 L 803.820312 447.582031 L 805.214844 448.515625 L 806.613281 450.050781 L 808.007812 456.4375 L 809.402344 463.46875 L 810.796875 466.085938 L 812.191406 471.6875 L 813.585938 474.695312 L 814.984375 478.996094 L 816.378906 484.816406 L 817.773438 491.117188 L 819.167969 497.484375 L 820.5625 498.585938 L 821.957031 502.832031 L 823.351562 507.351562 L 824.75 509.460938 L 826.144531 510.328125 L 827.539062 507.574219 L 828.933594 506.804688 L 830.328125 508.160156 L 831.722656 510.476562 L 833.121094 510.617188 L 834.515625 508.203125 L 835.910156 507.855469 L 837.304688 512.265625 L 838.699219 515.023438 L 840.09375 516.75 L 841.492188 517.089844 L 842.886719 521.875 L 844.28125 525.761719 L 845.675781 528.234375 L 847.070312 529.554688 L 848.464844 531.777344 L 849.859375 534.785156 L 851.257812 538.011719 L 852.652344 536.15625 L 854.046875 536.859375 L 855.441406 544.609375 L 856.835938 550.445312 L 858.230469 551.695312 L 859.628906 550.808594 L 861.023438 550.546875 L 862.417969 551.066406 L 863.8125 555.113281 L 865.207031 556.15625 L 866.601562 554.914062 L 868 552.667969 L 869.394531 552.921875 L 870.789062 557.550781 L 872.183594 555.800781 L 873.578125 556.773438 L 874.972656 553.925781 L 876.367188 555.136719 L 877.765625 557.359375 L 879.160156 554.074219 L 880.554688 560.183594 L 881.949219 569.226562 L 883.34375 575.261719 L 884.738281 582.316406 L 886.136719 584.957031 L 887.53125 584.453125 L 888.925781 587.664062 L 890.320312 593.222656 L 891.714844 590.703125 L 893.109375 589.859375 L 894.507812 586.375 L 895.902344 584.441406 L 897.296875 584.574219 L 898.691406 579.957031 L 900.085938 578.644531 L 901.480469 580.367188 L 902.875 584.421875 L 904.273438 586.226562 L 905.667969 585.976562 L 907.0625 588.324219 L 908.457031 589.074219 L 909.851562 589.570312 L 911.246094 593.488281 L 912.644531 598.914062 L 914.039062 603.871094 L 915.433594 606.707031 L 916.828125 607.996094 L 918.222656 609.824219 L 919.617188 611.875 L 921.015625 615.601562 L 922.410156 616.171875 L 923.804688 619.566406 L 925.199219 622.824219 L 926.59375 622.558594 L 927.988281 623.738281 L 929.382812 622.90625 L 930.78125 624.644531 L 932.175781 623.539062 L 933.570312 621.609375 L 934.964844 621.691406 L 936.359375 620.230469 L 937.753906 620.054688 L 939.152344 619.46875 L 940.546875 622.257812 L 941.941406 625.769531 L 943.335938 623.613281 L 944.730469 623.480469 L 946.125 618.527344 L 947.523438 617.1875 L 948.917969 620.957031 L 950.3125 621.089844 L 951.707031 622.0625 L 953.101562 623.59375 L 954.496094 622.429688 L 955.894531 625.054688 L 957.289062 624.664062 L 958.683594 627.03125 L 960.078125 632.273438 L 961.472656 634.589844 L 962.867188 634.464844 L 964.261719 637.507812 L 965.660156 640.199219 L 967.054688 638.699219 L 968.449219 639.492188 L 969.84375 645.652344 L 971.238281 644.835938 L 972.632812 645.914062 L 974.03125 640.410156 L 975.425781 636.890625 L 976.820312 633.414062 L 978.214844 636.515625 L 979.609375 634.550781 L 981.003906 634.878906 L 982.402344 638.703125 L 983.796875 633.644531 L 985.191406 632.082031 L 986.585938 631.738281 L 987.980469 632.039062 L 989.375 636.585938 L 990.773438 640.746094 L 992.167969 640.730469 L 993.5625 646.484375 L 994.957031 650.128906 L 996.351562 650.875 L 997.746094 651.597656 L 999.140625 656.117188 L 1000.539062 659.933594 L 1001.933594 659.464844 L 1003.328125 659.617188 L 1004.722656 662.710938 L 1006.117188 664.910156 L 1007.511719 659.953125 L 1008.910156 662.769531 L 1010.304688 664.628906 L 1011.699219 659.316406 L 1013.09375 656.734375 L 1014.488281 653.453125 L 1015.882812 652.671875 L 1017.28125 658.777344 L 1018.675781 660.953125 L 1020.070312 659.574219 L 1021.464844 654.351562 L 1022.859375 656.140625 L 1024.253906 654.871094 L 1025.648438 658.878906 L 1027.046875 659.871094 L 1028.441406 654.621094 L 1029.835938 660.6875 L 1031.230469 663.335938 L 1032.625 658.695312 L 1034.019531 661.273438 L 1035.417969 663.273438 L 1036.8125 667.402344 L 1038.207031 666.855469 L 1039.601562 658.675781 L 1040.996094 652.875 L 1042.390625 656.175781 L 1043.789062 657.484375 L 1045.183594 661.636719 L 1046.578125 662.636719 L 1047.972656 659.25 L 1049.367188 662.097656 L 1050.761719 659.527344 L 1052.15625 652.496094 L 1053.554688 652.238281 L 1054.949219 658.804688 L 1056.34375 664.441406 L 1057.738281 667.890625 L 1059.132812 673.800781 L 1060.527344 671.8125 L 1061.925781 670.066406 L 1063.320312 666.664062 L 1064.714844 662.476562 L 1066.109375 662.023438 L 1067.503906 662.769531 L 1068.898438 660.226562 L 1070.296875 661.535156 L 1071.691406 660.363281 L 1073.085938 661.007812 L 1074.480469 659.871094 L 1075.875 661.140625 L 1077.269531 657.378906 L 1078.664062 659.871094 L 1080.0625 658.40625 L 1081.457031 660.484375 L 1082.851562 663.207031 L 1084.246094 661.027344 L 1085.640625 662.097656 L 1087.035156 657.984375 L 1088.433594 657.792969 L 1089.828125 657.582031 L 1091.222656 658.671875 L 1092.617188 662.378906 L 1094.011719 665.554688 L 1095.40625 663.828125 L 1096.804688 662.835938 L 1098.199219 659.160156 L 1099.59375 656.617188 L 1100.988281 660.964844 L 1102.382812 663.570312 L 1103.777344 658.855469 L 1105.175781 658.25 L 1106.570312 659.542969 L 1107.964844 657.648438 L 1109.359375 658.335938 L 1110.753906 656.128906 L 1112.148438 657.949219 L 1113.542969 660.21875 L 1114.941406 659.898438 L 1116.335938 666.371094 L 1117.730469 668.867188 L 1119.125 665.382812 L 1120.519531 666.816406 L 1121.914062 667.605469 L 1123.3125 663.625 L 1124.707031 665.6875 L 1126.101562 670.855469 L 1127.496094 672.160156 L 1128.890625 671.320312 L 1130.285156 668.839844 L 1131.683594 668.351562 "/>
<path fill="none" stroke-width="1" stroke-linecap="butt" stroke-linejoin="miter" stroke="rgb(0%, 0%, 0%)" stroke-opacity="1" stroke-miterlimit="1.154701" d="M 224.832031 761.5 L 224.832031 766.5 "/>
<path fill="none" stroke-width="1" stroke-linecap="butt" stroke-linejoin="miter" stroke="rgb(0%, 0%, 0%)" stroke-opacity="1" stroke-miterlimit="1.154701" d="M 434.105469 761.5 L 434.105469 766.5 "/>
<path fill="none" stroke-width="1" stroke-linecap="butt" stroke-linejoin="miter" stroke="rgb(0%, 0%, 0%)" stroke-opacity="1" stroke-miterlimit="1.154701" d="M 643.378906 761.5 L 643.378906 766.5 "/>
<path fill="none" stroke-width="1" stroke-linecap="butt" stroke-linejoin="miter" stroke="rgb(0%, 0%, 0%)" stroke-opacity="1" stroke-miterlimit="1.154701" d="M 852.652344 761.5 L 852.652344 766.5 "/>
<path fill="none" stroke-width="1" stroke-linecap="butt" stroke-linejoin="miter" stroke="rgb(0%, 0%, 0%)" stroke-opacity="1" stroke-miterlimit="1.154701" d="M 1061.925781 761.5 L 1061.925781 766.5 "/>
<path fill="none" stroke-width="1" stroke-linecap="butt" stroke-linejoin="miter" stroke="rgb(0%, 0%, 0%)" stroke-opacity="1" stroke-miterlimit="1.154701" d="M 32.5 565.453125 L 27.5 565.453125 "/>
<path fill="none" stroke-width="1" stroke-linecap="butt" stroke-linejoin="miter" stroke="rgb(0%, 0%, 0%)" stroke-opacity="1" stroke-miterlimit="1.154701" d="M 32.5 346.097656 L 27.5 346.097656 "/>
<path fill="none" stroke-width="1" stroke-linecap="butt" stroke-linejoin="miter" stroke="rgb(0%, 0%, 0%)" stroke-opacity="1" stroke-miterlimit="1.154701" d="M 32.5 126.738281 L 27.5 126.738281 "/>
<path fill="none" stroke-width="1" stroke-linecap="butt" stroke-linejoin="miter" stroke="rgb(0%, 0%, 0%)" stroke-opacity="1" stroke-miterlimit="1.154701" d="M 32.5 761 L 1184.5 761 "/>
<path fill="none" stroke-width="1" stroke-linecap="butt" stroke-linejoin="miter" stroke="rgb(0%, 0%, 0%)" stroke-opacity="1" stroke-miterlimit="1.154701" d="M 33 761.5 L 33 15.5 "/>
<path fill="none" stroke-width="1" stroke-linecap="butt" stroke-linejoin="miter" stroke="rgb(0%, 0%, 0%)" stroke-opacity="1" stroke-miterlimit="1.154701" d="M 32.5 16 L 1184.5 16 "/>
<path fill="none" stroke-width="1" stroke-linecap="butt" stroke-linejoin="miter" stroke="rgb(0%, 0%, 0%)" stroke-opacity="1" stroke-miterlimit="1.154701" d="M 1184 761.5 L 1184 15.5 "/>
</svg>
